G04 #@! TF.GenerationSoftware,KiCad,Pcbnew,8.0.8*
G04 #@! TF.CreationDate,2025-04-14T10:10:08+01:00*
G04 #@! TF.ProjectId,oscar_panel,6f736361-725f-4706-916e-656c2e6b6963,rev?*
G04 #@! TF.SameCoordinates,Original*
G04 #@! TF.FileFunction,Legend,Bot*
G04 #@! TF.FilePolarity,Positive*
%FSLAX46Y46*%
G04 Gerber Fmt 4.6, Leading zero omitted, Abs format (unit mm)*
G04 Created by KiCad (PCBNEW 8.0.8) date 2025-04-14 10:10:08*
%MOMM*%
%LPD*%
G01*
G04 APERTURE LIST*
%ADD10C,0.150000*%
G04 APERTURE END LIST*
D10*
X140714286Y-37754819D02*
X140523810Y-37754819D01*
X140523810Y-37754819D02*
X140428572Y-37802438D01*
X140428572Y-37802438D02*
X140333334Y-37897676D01*
X140333334Y-37897676D02*
X140285715Y-38088152D01*
X140285715Y-38088152D02*
X140285715Y-38421485D01*
X140285715Y-38421485D02*
X140333334Y-38611961D01*
X140333334Y-38611961D02*
X140428572Y-38707200D01*
X140428572Y-38707200D02*
X140523810Y-38754819D01*
X140523810Y-38754819D02*
X140714286Y-38754819D01*
X140714286Y-38754819D02*
X140809524Y-38707200D01*
X140809524Y-38707200D02*
X140904762Y-38611961D01*
X140904762Y-38611961D02*
X140952381Y-38421485D01*
X140952381Y-38421485D02*
X140952381Y-38088152D01*
X140952381Y-38088152D02*
X140904762Y-37897676D01*
X140904762Y-37897676D02*
X140809524Y-37802438D01*
X140809524Y-37802438D02*
X140714286Y-37754819D01*
X139904762Y-38707200D02*
X139761905Y-38754819D01*
X139761905Y-38754819D02*
X139523810Y-38754819D01*
X139523810Y-38754819D02*
X139428572Y-38707200D01*
X139428572Y-38707200D02*
X139380953Y-38659580D01*
X139380953Y-38659580D02*
X139333334Y-38564342D01*
X139333334Y-38564342D02*
X139333334Y-38469104D01*
X139333334Y-38469104D02*
X139380953Y-38373866D01*
X139380953Y-38373866D02*
X139428572Y-38326247D01*
X139428572Y-38326247D02*
X139523810Y-38278628D01*
X139523810Y-38278628D02*
X139714286Y-38231009D01*
X139714286Y-38231009D02*
X139809524Y-38183390D01*
X139809524Y-38183390D02*
X139857143Y-38135771D01*
X139857143Y-38135771D02*
X139904762Y-38040533D01*
X139904762Y-38040533D02*
X139904762Y-37945295D01*
X139904762Y-37945295D02*
X139857143Y-37850057D01*
X139857143Y-37850057D02*
X139809524Y-37802438D01*
X139809524Y-37802438D02*
X139714286Y-37754819D01*
X139714286Y-37754819D02*
X139476191Y-37754819D01*
X139476191Y-37754819D02*
X139333334Y-37802438D01*
X138333334Y-38659580D02*
X138380953Y-38707200D01*
X138380953Y-38707200D02*
X138523810Y-38754819D01*
X138523810Y-38754819D02*
X138619048Y-38754819D01*
X138619048Y-38754819D02*
X138761905Y-38707200D01*
X138761905Y-38707200D02*
X138857143Y-38611961D01*
X138857143Y-38611961D02*
X138904762Y-38516723D01*
X138904762Y-38516723D02*
X138952381Y-38326247D01*
X138952381Y-38326247D02*
X138952381Y-38183390D01*
X138952381Y-38183390D02*
X138904762Y-37992914D01*
X138904762Y-37992914D02*
X138857143Y-37897676D01*
X138857143Y-37897676D02*
X138761905Y-37802438D01*
X138761905Y-37802438D02*
X138619048Y-37754819D01*
X138619048Y-37754819D02*
X138523810Y-37754819D01*
X138523810Y-37754819D02*
X138380953Y-37802438D01*
X138380953Y-37802438D02*
X138333334Y-37850057D01*
X137952381Y-38469104D02*
X137476191Y-38469104D01*
X138047619Y-38754819D02*
X137714286Y-37754819D01*
X137714286Y-37754819D02*
X137380953Y-38754819D01*
X136476191Y-38754819D02*
X136809524Y-38278628D01*
X137047619Y-38754819D02*
X137047619Y-37754819D01*
X137047619Y-37754819D02*
X136666667Y-37754819D01*
X136666667Y-37754819D02*
X136571429Y-37802438D01*
X136571429Y-37802438D02*
X136523810Y-37850057D01*
X136523810Y-37850057D02*
X136476191Y-37945295D01*
X136476191Y-37945295D02*
X136476191Y-38088152D01*
X136476191Y-38088152D02*
X136523810Y-38183390D01*
X136523810Y-38183390D02*
X136571429Y-38231009D01*
X136571429Y-38231009D02*
X136666667Y-38278628D01*
X136666667Y-38278628D02*
X137047619Y-38278628D01*
X135285714Y-38754819D02*
X135285714Y-37754819D01*
X135285714Y-37754819D02*
X134904762Y-37754819D01*
X134904762Y-37754819D02*
X134809524Y-37802438D01*
X134809524Y-37802438D02*
X134761905Y-37850057D01*
X134761905Y-37850057D02*
X134714286Y-37945295D01*
X134714286Y-37945295D02*
X134714286Y-38088152D01*
X134714286Y-38088152D02*
X134761905Y-38183390D01*
X134761905Y-38183390D02*
X134809524Y-38231009D01*
X134809524Y-38231009D02*
X134904762Y-38278628D01*
X134904762Y-38278628D02*
X135285714Y-38278628D01*
X133857143Y-38754819D02*
X133857143Y-38231009D01*
X133857143Y-38231009D02*
X133904762Y-38135771D01*
X133904762Y-38135771D02*
X134000000Y-38088152D01*
X134000000Y-38088152D02*
X134190476Y-38088152D01*
X134190476Y-38088152D02*
X134285714Y-38135771D01*
X133857143Y-38707200D02*
X133952381Y-38754819D01*
X133952381Y-38754819D02*
X134190476Y-38754819D01*
X134190476Y-38754819D02*
X134285714Y-38707200D01*
X134285714Y-38707200D02*
X134333333Y-38611961D01*
X134333333Y-38611961D02*
X134333333Y-38516723D01*
X134333333Y-38516723D02*
X134285714Y-38421485D01*
X134285714Y-38421485D02*
X134190476Y-38373866D01*
X134190476Y-38373866D02*
X133952381Y-38373866D01*
X133952381Y-38373866D02*
X133857143Y-38326247D01*
X133380952Y-38088152D02*
X133380952Y-38754819D01*
X133380952Y-38183390D02*
X133333333Y-38135771D01*
X133333333Y-38135771D02*
X133238095Y-38088152D01*
X133238095Y-38088152D02*
X133095238Y-38088152D01*
X133095238Y-38088152D02*
X133000000Y-38135771D01*
X133000000Y-38135771D02*
X132952381Y-38231009D01*
X132952381Y-38231009D02*
X132952381Y-38754819D01*
X132095238Y-38707200D02*
X132190476Y-38754819D01*
X132190476Y-38754819D02*
X132380952Y-38754819D01*
X132380952Y-38754819D02*
X132476190Y-38707200D01*
X132476190Y-38707200D02*
X132523809Y-38611961D01*
X132523809Y-38611961D02*
X132523809Y-38231009D01*
X132523809Y-38231009D02*
X132476190Y-38135771D01*
X132476190Y-38135771D02*
X132380952Y-38088152D01*
X132380952Y-38088152D02*
X132190476Y-38088152D01*
X132190476Y-38088152D02*
X132095238Y-38135771D01*
X132095238Y-38135771D02*
X132047619Y-38231009D01*
X132047619Y-38231009D02*
X132047619Y-38326247D01*
X132047619Y-38326247D02*
X132523809Y-38421485D01*
X131476190Y-38754819D02*
X131571428Y-38707200D01*
X131571428Y-38707200D02*
X131619047Y-38611961D01*
X131619047Y-38611961D02*
X131619047Y-37754819D01*
X130428570Y-38088152D02*
X130190475Y-38754819D01*
X130190475Y-38754819D02*
X129952380Y-38088152D01*
X129666665Y-37754819D02*
X129047618Y-37754819D01*
X129047618Y-37754819D02*
X129380951Y-38135771D01*
X129380951Y-38135771D02*
X129238094Y-38135771D01*
X129238094Y-38135771D02*
X129142856Y-38183390D01*
X129142856Y-38183390D02*
X129095237Y-38231009D01*
X129095237Y-38231009D02*
X129047618Y-38326247D01*
X129047618Y-38326247D02*
X129047618Y-38564342D01*
X129047618Y-38564342D02*
X129095237Y-38659580D01*
X129095237Y-38659580D02*
X129142856Y-38707200D01*
X129142856Y-38707200D02*
X129238094Y-38754819D01*
X129238094Y-38754819D02*
X129523808Y-38754819D01*
X129523808Y-38754819D02*
X129619046Y-38707200D01*
X129619046Y-38707200D02*
X129666665Y-38659580D01*
X139819048Y-161354819D02*
X139819048Y-162069104D01*
X139819048Y-162069104D02*
X139866667Y-162211961D01*
X139866667Y-162211961D02*
X139961905Y-162307200D01*
X139961905Y-162307200D02*
X140104762Y-162354819D01*
X140104762Y-162354819D02*
X140200000Y-162354819D01*
X138866667Y-162354819D02*
X139342857Y-162354819D01*
X139342857Y-162354819D02*
X139342857Y-161354819D01*
X137961905Y-162259580D02*
X138009524Y-162307200D01*
X138009524Y-162307200D02*
X138152381Y-162354819D01*
X138152381Y-162354819D02*
X138247619Y-162354819D01*
X138247619Y-162354819D02*
X138390476Y-162307200D01*
X138390476Y-162307200D02*
X138485714Y-162211961D01*
X138485714Y-162211961D02*
X138533333Y-162116723D01*
X138533333Y-162116723D02*
X138580952Y-161926247D01*
X138580952Y-161926247D02*
X138580952Y-161783390D01*
X138580952Y-161783390D02*
X138533333Y-161592914D01*
X138533333Y-161592914D02*
X138485714Y-161497676D01*
X138485714Y-161497676D02*
X138390476Y-161402438D01*
X138390476Y-161402438D02*
X138247619Y-161354819D01*
X138247619Y-161354819D02*
X138152381Y-161354819D01*
X138152381Y-161354819D02*
X138009524Y-161402438D01*
X138009524Y-161402438D02*
X137961905Y-161450057D01*
X137247619Y-161354819D02*
X137247619Y-162069104D01*
X137247619Y-162069104D02*
X137295238Y-162211961D01*
X137295238Y-162211961D02*
X137390476Y-162307200D01*
X137390476Y-162307200D02*
X137533333Y-162354819D01*
X137533333Y-162354819D02*
X137628571Y-162354819D01*
X136295238Y-162354819D02*
X136771428Y-162354819D01*
X136771428Y-162354819D02*
X136771428Y-161354819D01*
X135390476Y-162259580D02*
X135438095Y-162307200D01*
X135438095Y-162307200D02*
X135580952Y-162354819D01*
X135580952Y-162354819D02*
X135676190Y-162354819D01*
X135676190Y-162354819D02*
X135819047Y-162307200D01*
X135819047Y-162307200D02*
X135914285Y-162211961D01*
X135914285Y-162211961D02*
X135961904Y-162116723D01*
X135961904Y-162116723D02*
X136009523Y-161926247D01*
X136009523Y-161926247D02*
X136009523Y-161783390D01*
X136009523Y-161783390D02*
X135961904Y-161592914D01*
X135961904Y-161592914D02*
X135914285Y-161497676D01*
X135914285Y-161497676D02*
X135819047Y-161402438D01*
X135819047Y-161402438D02*
X135676190Y-161354819D01*
X135676190Y-161354819D02*
X135580952Y-161354819D01*
X135580952Y-161354819D02*
X135438095Y-161402438D01*
X135438095Y-161402438D02*
X135390476Y-161450057D01*
X134676190Y-161354819D02*
X134676190Y-162069104D01*
X134676190Y-162069104D02*
X134723809Y-162211961D01*
X134723809Y-162211961D02*
X134819047Y-162307200D01*
X134819047Y-162307200D02*
X134961904Y-162354819D01*
X134961904Y-162354819D02*
X135057142Y-162354819D01*
X133723809Y-162354819D02*
X134199999Y-162354819D01*
X134199999Y-162354819D02*
X134199999Y-161354819D01*
X132819047Y-162259580D02*
X132866666Y-162307200D01*
X132866666Y-162307200D02*
X133009523Y-162354819D01*
X133009523Y-162354819D02*
X133104761Y-162354819D01*
X133104761Y-162354819D02*
X133247618Y-162307200D01*
X133247618Y-162307200D02*
X133342856Y-162211961D01*
X133342856Y-162211961D02*
X133390475Y-162116723D01*
X133390475Y-162116723D02*
X133438094Y-161926247D01*
X133438094Y-161926247D02*
X133438094Y-161783390D01*
X133438094Y-161783390D02*
X133390475Y-161592914D01*
X133390475Y-161592914D02*
X133342856Y-161497676D01*
X133342856Y-161497676D02*
X133247618Y-161402438D01*
X133247618Y-161402438D02*
X133104761Y-161354819D01*
X133104761Y-161354819D02*
X133009523Y-161354819D01*
X133009523Y-161354819D02*
X132866666Y-161402438D01*
X132866666Y-161402438D02*
X132819047Y-161450057D01*
X132104761Y-161354819D02*
X132104761Y-162069104D01*
X132104761Y-162069104D02*
X132152380Y-162211961D01*
X132152380Y-162211961D02*
X132247618Y-162307200D01*
X132247618Y-162307200D02*
X132390475Y-162354819D01*
X132390475Y-162354819D02*
X132485713Y-162354819D01*
X131152380Y-162354819D02*
X131628570Y-162354819D01*
X131628570Y-162354819D02*
X131628570Y-161354819D01*
X130247618Y-162259580D02*
X130295237Y-162307200D01*
X130295237Y-162307200D02*
X130438094Y-162354819D01*
X130438094Y-162354819D02*
X130533332Y-162354819D01*
X130533332Y-162354819D02*
X130676189Y-162307200D01*
X130676189Y-162307200D02*
X130771427Y-162211961D01*
X130771427Y-162211961D02*
X130819046Y-162116723D01*
X130819046Y-162116723D02*
X130866665Y-161926247D01*
X130866665Y-161926247D02*
X130866665Y-161783390D01*
X130866665Y-161783390D02*
X130819046Y-161592914D01*
X130819046Y-161592914D02*
X130771427Y-161497676D01*
X130771427Y-161497676D02*
X130676189Y-161402438D01*
X130676189Y-161402438D02*
X130533332Y-161354819D01*
X130533332Y-161354819D02*
X130438094Y-161354819D01*
X130438094Y-161354819D02*
X130295237Y-161402438D01*
X130295237Y-161402438D02*
X130247618Y-161450057D01*
M02*
