G04 #@! TF.GenerationSoftware,KiCad,Pcbnew,(5.1.4)-1*
G04 #@! TF.CreationDate,2019-09-13T09:02:02+01:00*
G04 #@! TF.ProjectId,oscar_panel,6f736361-725f-4706-916e-656c2e6b6963,rev?*
G04 #@! TF.SameCoordinates,Original*
G04 #@! TF.FileFunction,Copper,L1,Top*
G04 #@! TF.FilePolarity,Positive*
%FSLAX46Y46*%
G04 Gerber Fmt 4.6, Leading zero omitted, Abs format (unit mm)*
G04 Created by KiCad (PCBNEW (5.1.4)-1) date 2019-09-13 09:02:02*
%MOMM*%
%LPD*%
G04 APERTURE LIST*
%ADD10C,1.524000*%
%ADD11C,0.100000*%
%ADD12C,0.254000*%
G04 APERTURE END LIST*
D10*
X167800000Y-111700000D03*
D11*
G36*
X167728191Y-110656576D02*
G01*
X167728205Y-110656576D01*
X168219294Y-110658013D01*
X168219351Y-110658014D01*
X168591006Y-110663356D01*
X168591144Y-110663359D01*
X168869069Y-110675026D01*
X168869343Y-110675045D01*
X169079239Y-110695455D01*
X169079681Y-110695518D01*
X169247250Y-110727091D01*
X169247757Y-110727215D01*
X169398702Y-110772368D01*
X169399045Y-110772484D01*
X169544153Y-110827628D01*
X169544688Y-110827868D01*
X170035425Y-111083607D01*
X170036443Y-111084310D01*
X170400566Y-111409184D01*
X170401230Y-111409905D01*
X170401517Y-111410330D01*
X170642967Y-111810057D01*
X170643531Y-111811404D01*
X170766248Y-112291702D01*
X170766397Y-112292668D01*
X170784639Y-112627155D01*
X170784611Y-112628019D01*
X170720018Y-113169668D01*
X170719693Y-113170940D01*
X170534181Y-113632698D01*
X170533443Y-113633960D01*
X170225693Y-114018173D01*
X170224755Y-114019074D01*
X169843065Y-114299985D01*
X169842983Y-114300044D01*
X169758659Y-114359530D01*
X169753215Y-114425598D01*
X169827384Y-114554819D01*
X169845964Y-114583376D01*
X169964885Y-114741197D01*
X170147611Y-114956914D01*
X170355678Y-115185202D01*
X170366946Y-115197068D01*
X170750628Y-115600154D01*
X170751231Y-115600926D01*
X170751671Y-115601802D01*
X170751932Y-115602747D01*
X170752004Y-115603724D01*
X170751884Y-115604697D01*
X170751577Y-115605628D01*
X170751094Y-115606481D01*
X170750453Y-115607223D01*
X170749681Y-115607826D01*
X170748981Y-115608195D01*
X170082903Y-115894537D01*
X169796149Y-116017833D01*
X169560364Y-116119253D01*
X169406735Y-116185381D01*
X169365913Y-116202994D01*
X169364979Y-116203292D01*
X169364005Y-116203402D01*
X169363028Y-116203321D01*
X169362086Y-116203050D01*
X169361248Y-116202622D01*
X169295420Y-116160743D01*
X169294328Y-116159802D01*
X169180343Y-116028507D01*
X169180077Y-116028172D01*
X169094798Y-115911060D01*
X169094628Y-115910811D01*
X168935767Y-115662392D01*
X168935666Y-115662227D01*
X168762689Y-115367178D01*
X168762612Y-115367043D01*
X168670944Y-115198965D01*
X168670906Y-115198893D01*
X168470289Y-114816371D01*
X168449800Y-115360045D01*
X168428605Y-115922474D01*
X168428473Y-115923445D01*
X168428153Y-115924372D01*
X168427659Y-115925218D01*
X168427009Y-115925952D01*
X168426228Y-115926545D01*
X168425347Y-115926974D01*
X168424399Y-115927223D01*
X168423609Y-115927286D01*
X167446928Y-115927286D01*
X167052711Y-115925798D01*
X167052611Y-115925797D01*
X166781007Y-115919309D01*
X166780704Y-115919292D01*
X166609200Y-115904769D01*
X166608307Y-115904611D01*
X166514386Y-115879016D01*
X166513470Y-115878667D01*
X166512640Y-115878146D01*
X166512127Y-115877689D01*
X166473275Y-115837986D01*
X166472662Y-115837222D01*
X166472209Y-115836352D01*
X166471904Y-115835228D01*
X166465341Y-115791328D01*
X166465289Y-115790748D01*
X166462058Y-115688936D01*
X166452884Y-115460006D01*
X166438543Y-115121876D01*
X166438544Y-115121876D01*
X166419817Y-114692462D01*
X166397480Y-114189656D01*
X166372312Y-113631357D01*
X166352915Y-113205955D01*
X166352915Y-113205944D01*
X166338720Y-112879286D01*
X168507286Y-112879286D01*
X168507286Y-113418571D01*
X168509814Y-113695334D01*
X168523731Y-113856700D01*
X168557641Y-113932332D01*
X168620756Y-113956053D01*
X168673395Y-113957836D01*
X168849632Y-113913909D01*
X169033610Y-113808503D01*
X169171267Y-113656602D01*
X169220828Y-113457044D01*
X169222985Y-113381595D01*
X169166145Y-113117630D01*
X169002715Y-112947897D01*
X168740725Y-112880078D01*
X168703792Y-112879286D01*
X168507286Y-112879286D01*
X166338720Y-112879286D01*
X166338512Y-112874503D01*
X166327605Y-112623547D01*
X166327604Y-112623523D01*
X166306951Y-112087852D01*
X166306950Y-112087824D01*
X166291410Y-111615975D01*
X166291409Y-111615938D01*
X166281436Y-111225010D01*
X166281434Y-111224949D01*
X166277485Y-110932038D01*
X166277486Y-110931900D01*
X166280016Y-110754105D01*
X166280059Y-110753511D01*
X166286430Y-110706044D01*
X166286655Y-110705090D01*
X166287062Y-110704198D01*
X166287635Y-110703403D01*
X166288352Y-110702735D01*
X166289186Y-110702219D01*
X166290547Y-110701780D01*
X166374181Y-110687547D01*
X166374720Y-110687485D01*
X166580315Y-110675127D01*
X166580455Y-110675121D01*
X166884833Y-110665365D01*
X166884908Y-110665363D01*
X167264892Y-110658939D01*
X167264950Y-110658938D01*
X167697363Y-110656572D01*
X167697391Y-110656572D01*
X167728191Y-110656576D01*
X167728191Y-110656576D01*
G37*
D10*
X163900000Y-112000000D03*
D11*
G36*
X164613180Y-110767894D02*
G01*
X164613294Y-110767896D01*
X164839656Y-110773504D01*
X164839965Y-110773521D01*
X164956826Y-110783685D01*
X164957790Y-110783865D01*
X164958568Y-110784164D01*
X164968908Y-110789160D01*
X164969745Y-110789671D01*
X164970466Y-110790335D01*
X164971043Y-110791127D01*
X164971455Y-110792017D01*
X164971680Y-110792939D01*
X164987525Y-110901316D01*
X165032030Y-111130613D01*
X165100668Y-111460732D01*
X165100669Y-111460732D01*
X165188847Y-111871256D01*
X165188846Y-111871256D01*
X165291979Y-112341812D01*
X165405506Y-112852158D01*
X165524851Y-113381966D01*
X165645442Y-113910930D01*
X165762707Y-114418746D01*
X165872074Y-114885109D01*
X165968977Y-115289742D01*
X165968976Y-115289742D01*
X166048811Y-115612207D01*
X166103968Y-115821430D01*
X166149619Y-115984653D01*
X166149789Y-115985619D01*
X166149768Y-115986598D01*
X166149556Y-115987555D01*
X166149161Y-115988453D01*
X166148599Y-115989255D01*
X166147891Y-115989933D01*
X166147064Y-115990460D01*
X166146151Y-115990815D01*
X166144804Y-115991000D01*
X164252551Y-115991000D01*
X164251576Y-115990904D01*
X164250638Y-115990619D01*
X164249773Y-115990157D01*
X164249015Y-115989536D01*
X164248394Y-115988778D01*
X164247932Y-115987913D01*
X164247667Y-115987073D01*
X164199904Y-115769606D01*
X164150003Y-115618485D01*
X164097697Y-115556284D01*
X164014006Y-115593321D01*
X163848317Y-115692709D01*
X163672835Y-115808923D01*
X163303391Y-116063056D01*
X163302533Y-116063530D01*
X163301599Y-116063827D01*
X163300624Y-116063937D01*
X163299648Y-116063854D01*
X163298706Y-116063582D01*
X163297836Y-116063131D01*
X163297070Y-116062520D01*
X163296438Y-116061771D01*
X163296100Y-116061202D01*
X163121271Y-115717193D01*
X162952102Y-115384324D01*
X162863547Y-115679895D01*
X162771405Y-115987435D01*
X162771033Y-115988342D01*
X162770491Y-115989159D01*
X162769800Y-115989854D01*
X162768987Y-115990401D01*
X162768083Y-115990780D01*
X162767122Y-115990974D01*
X162766615Y-115991000D01*
X162262338Y-115991000D01*
X162262205Y-115990998D01*
X161984609Y-115983625D01*
X161983944Y-115983563D01*
X161832372Y-115959066D01*
X161831425Y-115958815D01*
X161830544Y-115958385D01*
X161829589Y-115957619D01*
X161785560Y-115912431D01*
X161784948Y-115911666D01*
X161784497Y-115910795D01*
X161784225Y-115909854D01*
X161784141Y-115908877D01*
X161784267Y-115907826D01*
X161787394Y-115894169D01*
X161787480Y-115893844D01*
X161831617Y-115747169D01*
X161900326Y-115482384D01*
X161988170Y-115123379D01*
X162020571Y-114986383D01*
X162020836Y-114985261D01*
X163090456Y-114985261D01*
X163139764Y-115022483D01*
X163232508Y-115009384D01*
X163421969Y-114973413D01*
X163422052Y-114973398D01*
X163656464Y-114932976D01*
X163656511Y-114932968D01*
X163684394Y-114928429D01*
X163861277Y-114890743D01*
X163926413Y-114834686D01*
X163918507Y-114723099D01*
X163911800Y-114694665D01*
X163855184Y-114521661D01*
X163759174Y-114280554D01*
X163679950Y-114101162D01*
X163500447Y-113712880D01*
X163325879Y-114171403D01*
X163227594Y-114443673D01*
X163147541Y-114690760D01*
X163106213Y-114845732D01*
X163090456Y-114985261D01*
X162020836Y-114985261D01*
X162089714Y-114694048D01*
X162199516Y-114218319D01*
X162312140Y-113720099D01*
X162422147Y-113223300D01*
X162524101Y-112751828D01*
X162612563Y-112329594D01*
X162682098Y-111980511D01*
X162703767Y-111864665D01*
X162898258Y-110796247D01*
X162898527Y-110795304D01*
X162898975Y-110794432D01*
X162899584Y-110793665D01*
X162900332Y-110793030D01*
X162901189Y-110792554D01*
X162902122Y-110792255D01*
X162903079Y-110792143D01*
X163934857Y-110772008D01*
X163934890Y-110772007D01*
X164302995Y-110767257D01*
X164303070Y-110767257D01*
X164613180Y-110767894D01*
X164613180Y-110767894D01*
G37*
D10*
X160100000Y-111600000D03*
D11*
G36*
X161071119Y-110625306D02*
G01*
X161071566Y-110625333D01*
X161301721Y-110649168D01*
X161302681Y-110649364D01*
X161303189Y-110649551D01*
X161441824Y-110709432D01*
X161442681Y-110709907D01*
X161443429Y-110710540D01*
X161444024Y-110711283D01*
X161517941Y-110824164D01*
X161518395Y-110825033D01*
X161518664Y-110825937D01*
X161554666Y-111008770D01*
X161554737Y-111009253D01*
X161569100Y-111157385D01*
X161569108Y-111157480D01*
X161592698Y-111460235D01*
X161592702Y-111460285D01*
X161617720Y-111829448D01*
X161617722Y-111829491D01*
X161638852Y-112186485D01*
X161638854Y-112186513D01*
X161639317Y-112195174D01*
X161670803Y-112786329D01*
X161670759Y-112787308D01*
X161670525Y-112788260D01*
X161670110Y-112789148D01*
X161669529Y-112789938D01*
X161668806Y-112790599D01*
X161667967Y-112791107D01*
X161667046Y-112791441D01*
X161666062Y-112791590D01*
X161132942Y-112818511D01*
X160795577Y-112849136D01*
X160562437Y-112906701D01*
X160399184Y-112995971D01*
X160142773Y-113263278D01*
X159986198Y-113587533D01*
X159928186Y-113938252D01*
X159967488Y-114284761D01*
X160102743Y-114596387D01*
X160332713Y-114842812D01*
X160479114Y-114930218D01*
X160829310Y-115030381D01*
X161202597Y-115030414D01*
X161420368Y-114975869D01*
X161522421Y-114938166D01*
X161523370Y-114937918D01*
X161524186Y-114937856D01*
X161580818Y-114938220D01*
X161581793Y-114938322D01*
X161582729Y-114938613D01*
X161583591Y-114939081D01*
X161584344Y-114939707D01*
X161584961Y-114940469D01*
X161585418Y-114941336D01*
X161585626Y-114941966D01*
X161602279Y-115006226D01*
X161602431Y-115007194D01*
X161602407Y-115008049D01*
X161584776Y-115161937D01*
X161584736Y-115162214D01*
X161538515Y-115431463D01*
X161538513Y-115431476D01*
X161533152Y-115462206D01*
X161533136Y-115462290D01*
X161485183Y-115712017D01*
X161484991Y-115712728D01*
X161434311Y-115857302D01*
X161433898Y-115858191D01*
X161433117Y-115859195D01*
X161354882Y-115936913D01*
X161354122Y-115937533D01*
X161353119Y-115938046D01*
X161222498Y-115987204D01*
X161222095Y-115987336D01*
X161184870Y-115997842D01*
X161184327Y-115997963D01*
X160893293Y-116046059D01*
X160892697Y-116046121D01*
X160523410Y-116062330D01*
X160522990Y-116062331D01*
X160138744Y-116046857D01*
X160138253Y-116046813D01*
X159802344Y-115999861D01*
X159801937Y-115999787D01*
X159773345Y-115993345D01*
X159772705Y-115993155D01*
X159246795Y-115798049D01*
X159245746Y-115797511D01*
X158781902Y-115485919D01*
X158781073Y-115485221D01*
X158391500Y-115076970D01*
X158390877Y-115076167D01*
X158087780Y-114591079D01*
X158087342Y-114590194D01*
X157882924Y-114048095D01*
X157882666Y-114047128D01*
X157789132Y-113467842D01*
X157789074Y-113466798D01*
X157818628Y-112870150D01*
X157818690Y-112869576D01*
X157825346Y-112829613D01*
X157825457Y-112829108D01*
X157995622Y-112210274D01*
X157996026Y-112209258D01*
X158272123Y-111688605D01*
X158272827Y-111687598D01*
X158651789Y-111267465D01*
X158652740Y-111266646D01*
X159131501Y-110949368D01*
X159132534Y-110948844D01*
X159708028Y-110736760D01*
X159708985Y-110736512D01*
X160378148Y-110631957D01*
X160378755Y-110631900D01*
X160722407Y-110620565D01*
X160722640Y-110620562D01*
X161071119Y-110625306D01*
X161071119Y-110625306D01*
G37*
D10*
X155900000Y-111800000D03*
D11*
G36*
X156515238Y-110557063D02*
G01*
X156515500Y-110557083D01*
X156767011Y-110583072D01*
X156767174Y-110583092D01*
X157027819Y-110618734D01*
X157027990Y-110618760D01*
X157254748Y-110657780D01*
X157255072Y-110657847D01*
X157404925Y-110693969D01*
X157405956Y-110694341D01*
X157440536Y-110711309D01*
X157441369Y-110711825D01*
X157442086Y-110712494D01*
X157442658Y-110713289D01*
X157443064Y-110714181D01*
X157443301Y-110715236D01*
X157451754Y-110789991D01*
X157451774Y-110790204D01*
X157465305Y-110983662D01*
X157465308Y-110983714D01*
X157482291Y-111269592D01*
X157482293Y-111269622D01*
X157501102Y-111621635D01*
X157501103Y-111621652D01*
X157508393Y-111767321D01*
X157508393Y-111767326D01*
X157559198Y-112801469D01*
X157559150Y-112802448D01*
X157558912Y-112803398D01*
X157558493Y-112804285D01*
X157557909Y-112805072D01*
X157557182Y-112805730D01*
X157556342Y-112806234D01*
X157555419Y-112806564D01*
X157554204Y-112806714D01*
X157264332Y-112806714D01*
X156985917Y-112843887D01*
X156820334Y-112957533D01*
X156763845Y-113152793D01*
X156815801Y-113436783D01*
X156976215Y-113814213D01*
X157010209Y-113880353D01*
X157010398Y-113880765D01*
X157203738Y-114359133D01*
X157204055Y-114360323D01*
X157264155Y-114795622D01*
X157264193Y-114796602D01*
X157264119Y-114797214D01*
X157192995Y-115182332D01*
X157192723Y-115183274D01*
X157192344Y-115184031D01*
X156992013Y-115511854D01*
X156991423Y-115512636D01*
X156990881Y-115513143D01*
X156663361Y-115776561D01*
X156662448Y-115777145D01*
X156440847Y-115887016D01*
X156439875Y-115887377D01*
X156216895Y-115944914D01*
X156216230Y-115945039D01*
X155909209Y-115981133D01*
X155908801Y-115981164D01*
X155577660Y-115992829D01*
X155577218Y-115992825D01*
X155281882Y-115977076D01*
X155281266Y-115977005D01*
X155141876Y-115952018D01*
X155140933Y-115951751D01*
X155140060Y-115951305D01*
X155139239Y-115950648D01*
X155050374Y-115862633D01*
X155049749Y-115861879D01*
X155049306Y-115861071D01*
X154966275Y-115669643D01*
X154966045Y-115668994D01*
X154940105Y-115575856D01*
X154940069Y-115575717D01*
X154881135Y-115337709D01*
X154829103Y-115137043D01*
X154813662Y-115080993D01*
X154813553Y-115080507D01*
X154798406Y-114991841D01*
X154798337Y-114990863D01*
X154798459Y-114989891D01*
X154798769Y-114988961D01*
X154799255Y-114988109D01*
X154799906Y-114987360D01*
X154842491Y-114947228D01*
X154843267Y-114946629D01*
X154844144Y-114946193D01*
X154845090Y-114945936D01*
X154845805Y-114945868D01*
X154977915Y-114942833D01*
X154978455Y-114942850D01*
X155145649Y-114957100D01*
X155399064Y-114966597D01*
X155562279Y-114928707D01*
X155655758Y-114864447D01*
X155768150Y-114730089D01*
X155800048Y-114587741D01*
X155744387Y-114417988D01*
X155592252Y-114202352D01*
X155335721Y-113923584D01*
X155185345Y-113773987D01*
X155185318Y-113773960D01*
X154855366Y-113440635D01*
X154855147Y-113440399D01*
X154620174Y-113170305D01*
X154619784Y-113169794D01*
X154462704Y-112933922D01*
X154462252Y-112933077D01*
X154365982Y-112702418D01*
X154365699Y-112701503D01*
X154313154Y-112447047D01*
X154313075Y-112446528D01*
X154294750Y-112261200D01*
X154294737Y-112260375D01*
X154325978Y-111792778D01*
X154326139Y-111791811D01*
X154326324Y-111791255D01*
X154490564Y-111380448D01*
X154491016Y-111379578D01*
X154491390Y-111379074D01*
X154786183Y-111030681D01*
X154786801Y-111030068D01*
X154855658Y-110972743D01*
X154856346Y-110972262D01*
X155138717Y-110808267D01*
X155139522Y-110807891D01*
X155513417Y-110672158D01*
X155514034Y-110671978D01*
X155926403Y-110579968D01*
X155927070Y-110579866D01*
X156315206Y-110547018D01*
X156315880Y-110547006D01*
X156515238Y-110557063D01*
X156515238Y-110557063D01*
G37*
D10*
X151500000Y-111700000D03*
D11*
G36*
X151774973Y-110519966D02*
G01*
X152278927Y-110560664D01*
X152279978Y-110560864D01*
X152696062Y-110687269D01*
X152697250Y-110687808D01*
X153065429Y-110916892D01*
X153066211Y-110917492D01*
X153359555Y-111192958D01*
X153360188Y-111193680D01*
X153679159Y-111636283D01*
X153679712Y-111637268D01*
X153898855Y-112158297D01*
X153899139Y-112159207D01*
X154019690Y-112732908D01*
X154019793Y-112733743D01*
X154042985Y-113334362D01*
X154042953Y-113335157D01*
X153970018Y-113936939D01*
X153969855Y-113937733D01*
X153802028Y-114514927D01*
X153801706Y-114515754D01*
X153540220Y-115042604D01*
X153539674Y-115043469D01*
X153185762Y-115494222D01*
X153185349Y-115494685D01*
X153152389Y-115527359D01*
X153151825Y-115527841D01*
X152747159Y-115824438D01*
X152746035Y-115825057D01*
X152275290Y-116010458D01*
X152274134Y-116010760D01*
X151770712Y-116079459D01*
X151769507Y-116079477D01*
X151266811Y-116025965D01*
X151265691Y-116025713D01*
X150902065Y-115898686D01*
X150900992Y-115898160D01*
X150457786Y-115610528D01*
X150456868Y-115609761D01*
X150077774Y-115207118D01*
X150077133Y-115206274D01*
X149778015Y-114710498D01*
X149777589Y-114709602D01*
X149574310Y-114142569D01*
X149574148Y-114142017D01*
X149548756Y-114033124D01*
X149548670Y-114032658D01*
X149513605Y-113773024D01*
X149513567Y-113772627D01*
X149507784Y-113666461D01*
X149507780Y-113666373D01*
X151176406Y-113666373D01*
X151191818Y-114002233D01*
X151257646Y-114326105D01*
X151371470Y-114601661D01*
X151530867Y-114793136D01*
X151570746Y-114819793D01*
X151677655Y-114880549D01*
X151747059Y-114889993D01*
X151858211Y-114851950D01*
X151903559Y-114834510D01*
X152088273Y-114697331D01*
X152229855Y-114463895D01*
X152325566Y-114167012D01*
X152372377Y-113840454D01*
X152367505Y-113517960D01*
X152308337Y-113233326D01*
X152192567Y-113020234D01*
X152059611Y-112924094D01*
X151814924Y-112881456D01*
X151557240Y-112909996D01*
X151453695Y-112949595D01*
X151305485Y-113104058D01*
X151213641Y-113354835D01*
X151176406Y-113666373D01*
X149507780Y-113666373D01*
X149494763Y-113427463D01*
X149494756Y-113427189D01*
X149494923Y-113055474D01*
X149494927Y-113055285D01*
X149498954Y-112950025D01*
X149498991Y-112949576D01*
X149584505Y-112287478D01*
X149584714Y-112286556D01*
X149770082Y-111722764D01*
X149770563Y-111721724D01*
X150051554Y-111260757D01*
X150052380Y-111259733D01*
X150424761Y-110906111D01*
X150425876Y-110905312D01*
X150885417Y-110663554D01*
X150886619Y-110663107D01*
X151429087Y-110537734D01*
X151429957Y-110537613D01*
X151774315Y-110519957D01*
X151774973Y-110519966D01*
X151774973Y-110519966D01*
G37*
D12*
G36*
X195305001Y-168555000D02*
G01*
X125695000Y-168555000D01*
X125695000Y-166250000D01*
X129354186Y-166250000D01*
X129397339Y-166688137D01*
X129525138Y-167109436D01*
X129732674Y-167497707D01*
X130011970Y-167838030D01*
X130352293Y-168117326D01*
X130740564Y-168324862D01*
X131161863Y-168452661D01*
X131490204Y-168485000D01*
X133509796Y-168485000D01*
X133838137Y-168452661D01*
X134259436Y-168324862D01*
X134647707Y-168117326D01*
X134988030Y-167838030D01*
X135267326Y-167497707D01*
X135474862Y-167109436D01*
X135602661Y-166688137D01*
X135645814Y-166250000D01*
X185354186Y-166250000D01*
X185397339Y-166688137D01*
X185525138Y-167109436D01*
X185732674Y-167497707D01*
X186011970Y-167838030D01*
X186352293Y-168117326D01*
X186740564Y-168324862D01*
X187161863Y-168452661D01*
X187490204Y-168485000D01*
X189509796Y-168485000D01*
X189838137Y-168452661D01*
X190259436Y-168324862D01*
X190647707Y-168117326D01*
X190988030Y-167838030D01*
X191267326Y-167497707D01*
X191474862Y-167109436D01*
X191602661Y-166688137D01*
X191645814Y-166250000D01*
X191602661Y-165811863D01*
X191474862Y-165390564D01*
X191267326Y-165002293D01*
X190988030Y-164661970D01*
X190647707Y-164382674D01*
X190259436Y-164175138D01*
X189838137Y-164047339D01*
X189509796Y-164015000D01*
X187490204Y-164015000D01*
X187161863Y-164047339D01*
X186740564Y-164175138D01*
X186352293Y-164382674D01*
X186011970Y-164661970D01*
X185732674Y-165002293D01*
X185525138Y-165390564D01*
X185397339Y-165811863D01*
X185354186Y-166250000D01*
X135645814Y-166250000D01*
X135602661Y-165811863D01*
X135474862Y-165390564D01*
X135267326Y-165002293D01*
X134988030Y-164661970D01*
X134647707Y-164382674D01*
X134259436Y-164175138D01*
X133838137Y-164047339D01*
X133509796Y-164015000D01*
X131490204Y-164015000D01*
X131161863Y-164047339D01*
X130740564Y-164175138D01*
X130352293Y-164382674D01*
X130011970Y-164661970D01*
X129732674Y-165002293D01*
X129525138Y-165390564D01*
X129397339Y-165811863D01*
X129354186Y-166250000D01*
X125695000Y-166250000D01*
X125695000Y-150641984D01*
X131365000Y-150641984D01*
X131365000Y-151358016D01*
X131504691Y-152060290D01*
X131778705Y-152721818D01*
X132176511Y-153317177D01*
X132682823Y-153823489D01*
X133278182Y-154221295D01*
X133939710Y-154495309D01*
X134641984Y-154635000D01*
X135358016Y-154635000D01*
X136060290Y-154495309D01*
X136721818Y-154221295D01*
X137317177Y-153823489D01*
X137823489Y-153317177D01*
X138221295Y-152721818D01*
X138495309Y-152060290D01*
X138635000Y-151358016D01*
X138635000Y-150641984D01*
X146365000Y-150641984D01*
X146365000Y-151358016D01*
X146504691Y-152060290D01*
X146778705Y-152721818D01*
X147176511Y-153317177D01*
X147682823Y-153823489D01*
X148278182Y-154221295D01*
X148939710Y-154495309D01*
X149641984Y-154635000D01*
X150358016Y-154635000D01*
X151060290Y-154495309D01*
X151721818Y-154221295D01*
X152317177Y-153823489D01*
X152823489Y-153317177D01*
X153221295Y-152721818D01*
X153495309Y-152060290D01*
X153635000Y-151358016D01*
X153635000Y-150641984D01*
X161365000Y-150641984D01*
X161365000Y-151358016D01*
X161504691Y-152060290D01*
X161778705Y-152721818D01*
X162176511Y-153317177D01*
X162682823Y-153823489D01*
X163278182Y-154221295D01*
X163939710Y-154495309D01*
X164641984Y-154635000D01*
X165358016Y-154635000D01*
X166060290Y-154495309D01*
X166721818Y-154221295D01*
X167317177Y-153823489D01*
X167823489Y-153317177D01*
X168221295Y-152721818D01*
X168495309Y-152060290D01*
X168635000Y-151358016D01*
X168635000Y-150789721D01*
X183865000Y-150789721D01*
X183865000Y-151210279D01*
X183947047Y-151622756D01*
X184107988Y-152011302D01*
X184341637Y-152360983D01*
X184639017Y-152658363D01*
X184988698Y-152892012D01*
X185377244Y-153052953D01*
X185789721Y-153135000D01*
X186210279Y-153135000D01*
X186622756Y-153052953D01*
X187011302Y-152892012D01*
X187360983Y-152658363D01*
X187658363Y-152360983D01*
X187892012Y-152011302D01*
X188052953Y-151622756D01*
X188135000Y-151210279D01*
X188135000Y-150789721D01*
X188052953Y-150377244D01*
X187892012Y-149988698D01*
X187658363Y-149639017D01*
X187360983Y-149341637D01*
X187011302Y-149107988D01*
X186622756Y-148947047D01*
X186210279Y-148865000D01*
X185789721Y-148865000D01*
X185377244Y-148947047D01*
X184988698Y-149107988D01*
X184639017Y-149341637D01*
X184341637Y-149639017D01*
X184107988Y-149988698D01*
X183947047Y-150377244D01*
X183865000Y-150789721D01*
X168635000Y-150789721D01*
X168635000Y-150641984D01*
X168495309Y-149939710D01*
X168221295Y-149278182D01*
X167823489Y-148682823D01*
X167317177Y-148176511D01*
X166721818Y-147778705D01*
X166060290Y-147504691D01*
X165358016Y-147365000D01*
X164641984Y-147365000D01*
X163939710Y-147504691D01*
X163278182Y-147778705D01*
X162682823Y-148176511D01*
X162176511Y-148682823D01*
X161778705Y-149278182D01*
X161504691Y-149939710D01*
X161365000Y-150641984D01*
X153635000Y-150641984D01*
X153495309Y-149939710D01*
X153221295Y-149278182D01*
X152823489Y-148682823D01*
X152317177Y-148176511D01*
X151721818Y-147778705D01*
X151060290Y-147504691D01*
X150358016Y-147365000D01*
X149641984Y-147365000D01*
X148939710Y-147504691D01*
X148278182Y-147778705D01*
X147682823Y-148176511D01*
X147176511Y-148682823D01*
X146778705Y-149278182D01*
X146504691Y-149939710D01*
X146365000Y-150641984D01*
X138635000Y-150641984D01*
X138495309Y-149939710D01*
X138221295Y-149278182D01*
X137823489Y-148682823D01*
X137317177Y-148176511D01*
X136721818Y-147778705D01*
X136060290Y-147504691D01*
X135358016Y-147365000D01*
X134641984Y-147365000D01*
X133939710Y-147504691D01*
X133278182Y-147778705D01*
X132682823Y-148176511D01*
X132176511Y-148682823D01*
X131778705Y-149278182D01*
X131504691Y-149939710D01*
X131365000Y-150641984D01*
X125695000Y-150641984D01*
X125695000Y-136641984D01*
X131365000Y-136641984D01*
X131365000Y-137358016D01*
X131504691Y-138060290D01*
X131778705Y-138721818D01*
X132176511Y-139317177D01*
X132682823Y-139823489D01*
X133278182Y-140221295D01*
X133939710Y-140495309D01*
X134641984Y-140635000D01*
X135358016Y-140635000D01*
X136060290Y-140495309D01*
X136721818Y-140221295D01*
X137317177Y-139823489D01*
X137823489Y-139317177D01*
X138221295Y-138721818D01*
X138495309Y-138060290D01*
X138635000Y-137358016D01*
X138635000Y-136641984D01*
X146365000Y-136641984D01*
X146365000Y-137358016D01*
X146504691Y-138060290D01*
X146778705Y-138721818D01*
X147176511Y-139317177D01*
X147682823Y-139823489D01*
X148278182Y-140221295D01*
X148939710Y-140495309D01*
X149641984Y-140635000D01*
X150358016Y-140635000D01*
X151060290Y-140495309D01*
X151721818Y-140221295D01*
X152317177Y-139823489D01*
X152823489Y-139317177D01*
X153221295Y-138721818D01*
X153495309Y-138060290D01*
X153635000Y-137358016D01*
X153635000Y-136641984D01*
X161365000Y-136641984D01*
X161365000Y-137358016D01*
X161504691Y-138060290D01*
X161778705Y-138721818D01*
X162176511Y-139317177D01*
X162682823Y-139823489D01*
X163278182Y-140221295D01*
X163939710Y-140495309D01*
X164641984Y-140635000D01*
X165358016Y-140635000D01*
X166060290Y-140495309D01*
X166721818Y-140221295D01*
X167317177Y-139823489D01*
X167823489Y-139317177D01*
X168221295Y-138721818D01*
X168495309Y-138060290D01*
X168635000Y-137358016D01*
X168635000Y-136641984D01*
X182365000Y-136641984D01*
X182365000Y-137358016D01*
X182504691Y-138060290D01*
X182778705Y-138721818D01*
X183176511Y-139317177D01*
X183682823Y-139823489D01*
X184278182Y-140221295D01*
X184939710Y-140495309D01*
X185641984Y-140635000D01*
X186358016Y-140635000D01*
X187060290Y-140495309D01*
X187721818Y-140221295D01*
X188317177Y-139823489D01*
X188823489Y-139317177D01*
X189221295Y-138721818D01*
X189495309Y-138060290D01*
X189635000Y-137358016D01*
X189635000Y-136641984D01*
X189495309Y-135939710D01*
X189221295Y-135278182D01*
X188823489Y-134682823D01*
X188317177Y-134176511D01*
X187721818Y-133778705D01*
X187060290Y-133504691D01*
X186358016Y-133365000D01*
X185641984Y-133365000D01*
X184939710Y-133504691D01*
X184278182Y-133778705D01*
X183682823Y-134176511D01*
X183176511Y-134682823D01*
X182778705Y-135278182D01*
X182504691Y-135939710D01*
X182365000Y-136641984D01*
X168635000Y-136641984D01*
X168495309Y-135939710D01*
X168221295Y-135278182D01*
X167823489Y-134682823D01*
X167317177Y-134176511D01*
X166721818Y-133778705D01*
X166060290Y-133504691D01*
X165358016Y-133365000D01*
X164641984Y-133365000D01*
X163939710Y-133504691D01*
X163278182Y-133778705D01*
X162682823Y-134176511D01*
X162176511Y-134682823D01*
X161778705Y-135278182D01*
X161504691Y-135939710D01*
X161365000Y-136641984D01*
X153635000Y-136641984D01*
X153495309Y-135939710D01*
X153221295Y-135278182D01*
X152823489Y-134682823D01*
X152317177Y-134176511D01*
X151721818Y-133778705D01*
X151060290Y-133504691D01*
X150358016Y-133365000D01*
X149641984Y-133365000D01*
X148939710Y-133504691D01*
X148278182Y-133778705D01*
X147682823Y-134176511D01*
X147176511Y-134682823D01*
X146778705Y-135278182D01*
X146504691Y-135939710D01*
X146365000Y-136641984D01*
X138635000Y-136641984D01*
X138495309Y-135939710D01*
X138221295Y-135278182D01*
X137823489Y-134682823D01*
X137317177Y-134176511D01*
X136721818Y-133778705D01*
X136060290Y-133504691D01*
X135358016Y-133365000D01*
X134641984Y-133365000D01*
X133939710Y-133504691D01*
X133278182Y-133778705D01*
X132682823Y-134176511D01*
X132176511Y-134682823D01*
X131778705Y-135278182D01*
X131504691Y-135939710D01*
X131365000Y-136641984D01*
X125695000Y-136641984D01*
X125695000Y-113592738D01*
X131865000Y-113592738D01*
X131865000Y-114407262D01*
X132023906Y-115206135D01*
X132335611Y-115958657D01*
X132788136Y-116635909D01*
X133364091Y-117211864D01*
X134041343Y-117664389D01*
X134793865Y-117976094D01*
X135592738Y-118135000D01*
X136407262Y-118135000D01*
X137206135Y-117976094D01*
X137958657Y-117664389D01*
X138635909Y-117211864D01*
X139211864Y-116635909D01*
X139664389Y-115958657D01*
X139976094Y-115206135D01*
X140135000Y-114407262D01*
X140135000Y-113592738D01*
X140102014Y-113426902D01*
X148856684Y-113426902D01*
X148856892Y-113443485D01*
X148856899Y-113443759D01*
X148857636Y-113462177D01*
X148870653Y-113701087D01*
X148870657Y-113701166D01*
X148876440Y-113807332D01*
X148878398Y-113833424D01*
X148878436Y-113833821D01*
X148881274Y-113858424D01*
X148916339Y-114118058D01*
X148921194Y-114148458D01*
X148921280Y-114148924D01*
X148923031Y-114157312D01*
X148973777Y-114614025D01*
X148976113Y-114627947D01*
X148983946Y-114651580D01*
X149383946Y-115551580D01*
X149399752Y-115577970D01*
X150099752Y-116477970D01*
X150116890Y-116496030D01*
X150137221Y-116510398D01*
X150159965Y-116520525D01*
X150184248Y-116526019D01*
X151097509Y-116640177D01*
X151125626Y-116648222D01*
X151126746Y-116648474D01*
X151199270Y-116660452D01*
X151606562Y-116703808D01*
X151784248Y-116726019D01*
X151808870Y-116726690D01*
X151833416Y-116722525D01*
X151889466Y-116707239D01*
X152360408Y-116642972D01*
X152435415Y-116628113D01*
X152436571Y-116627811D01*
X152509111Y-116604144D01*
X152979856Y-116418743D01*
X153053839Y-116383978D01*
X153054963Y-116383359D01*
X153124361Y-116339078D01*
X153164150Y-116309915D01*
X153356796Y-116213592D01*
X153386957Y-116192560D01*
X153403344Y-116173817D01*
X153462136Y-116091508D01*
X153529027Y-116042481D01*
X153566368Y-116012908D01*
X153566932Y-116012426D01*
X153601604Y-115980506D01*
X153634564Y-115947832D01*
X153661512Y-115919426D01*
X153661925Y-115918963D01*
X153687625Y-115888264D01*
X154041537Y-115437511D01*
X154079246Y-115384054D01*
X154079792Y-115383189D01*
X154111768Y-115326274D01*
X154124968Y-115299678D01*
X154477886Y-116534890D01*
X154482667Y-116548601D01*
X154494403Y-116570557D01*
X154510197Y-116589803D01*
X154529443Y-116605597D01*
X154551399Y-116617333D01*
X154575224Y-116624560D01*
X154600000Y-116627000D01*
X155487133Y-116627000D01*
X155543241Y-116629992D01*
X155571444Y-116630871D01*
X155571886Y-116630875D01*
X155600123Y-116630505D01*
X155699621Y-116627000D01*
X155800000Y-116627000D01*
X155824907Y-116624534D01*
X155836726Y-116622170D01*
X155931264Y-116618840D01*
X155957143Y-116617402D01*
X155957551Y-116617371D01*
X155983709Y-116614841D01*
X156290730Y-116578747D01*
X156334104Y-116572129D01*
X156334769Y-116572004D01*
X156376319Y-116562749D01*
X156599299Y-116505212D01*
X156662028Y-116485528D01*
X156663000Y-116485167D01*
X156724282Y-116458681D01*
X156771685Y-116435178D01*
X156824907Y-116424534D01*
X156848478Y-116417383D01*
X156870447Y-116405670D01*
X157470447Y-116005670D01*
X157489896Y-115989709D01*
X157505670Y-115970447D01*
X157800000Y-115528952D01*
X157894330Y-115670447D01*
X157918697Y-115697564D01*
X158518697Y-116197564D01*
X158543204Y-116213592D01*
X159143204Y-116513592D01*
X159169198Y-116523208D01*
X159969198Y-116723208D01*
X159983042Y-116725863D01*
X160007922Y-116726753D01*
X160461117Y-116698428D01*
X160497315Y-116699886D01*
X160524509Y-116700401D01*
X160524929Y-116700400D01*
X160551390Y-116699788D01*
X160920677Y-116683579D01*
X160958717Y-116680768D01*
X160959313Y-116680706D01*
X160997329Y-116675592D01*
X161101232Y-116658421D01*
X161600000Y-116627248D01*
X163192078Y-116726753D01*
X163215884Y-116726003D01*
X163240161Y-116720483D01*
X163304874Y-116698912D01*
X163372158Y-116697987D01*
X163373133Y-116697877D01*
X163494957Y-116671896D01*
X163495891Y-116671599D01*
X163611081Y-116622041D01*
X163611939Y-116621567D01*
X163665013Y-116588761D01*
X163692922Y-116569563D01*
X163805077Y-116532178D01*
X164041170Y-116591201D01*
X164065141Y-116601132D01*
X164066079Y-116601417D01*
X164144492Y-116617031D01*
X164169198Y-116623208D01*
X164185729Y-116625243D01*
X164189053Y-116625905D01*
X164190028Y-116626001D01*
X164193118Y-116626153D01*
X164200000Y-116627000D01*
X164210367Y-116627000D01*
X164252551Y-116629072D01*
X166144804Y-116629072D01*
X166175119Y-116627000D01*
X168573933Y-116627000D01*
X169249972Y-116916731D01*
X169276744Y-116924853D01*
X169301548Y-116926991D01*
X169326293Y-116924248D01*
X169350028Y-116916731D01*
X171450028Y-116016731D01*
X171468676Y-116006830D01*
X171488198Y-115991379D01*
X171504330Y-115972416D01*
X171516454Y-115950671D01*
X171524101Y-115926979D01*
X171526980Y-115902249D01*
X171524979Y-115877433D01*
X171518175Y-115853485D01*
X171506830Y-115831324D01*
X171386215Y-115643701D01*
X171388350Y-115556828D01*
X171388278Y-115555851D01*
X171366977Y-115432877D01*
X171366716Y-115431932D01*
X171321858Y-115315407D01*
X171321418Y-115314531D01*
X171254087Y-115208151D01*
X171253484Y-115207379D01*
X171212800Y-115160230D01*
X170829118Y-114757144D01*
X170822890Y-114750586D01*
X170786170Y-114710297D01*
X170649493Y-114497689D01*
X170654216Y-114489818D01*
X170666773Y-114479244D01*
X170667711Y-114478343D01*
X170723703Y-114417073D01*
X171031453Y-114032860D01*
X171084248Y-113956063D01*
X171084986Y-113954801D01*
X171126258Y-113870566D01*
X171186858Y-113719725D01*
X171288448Y-113592738D01*
X179865000Y-113592738D01*
X179865000Y-114407262D01*
X180023906Y-115206135D01*
X180335611Y-115958657D01*
X180788136Y-116635909D01*
X181364091Y-117211864D01*
X182041343Y-117664389D01*
X182793865Y-117976094D01*
X183592738Y-118135000D01*
X184407262Y-118135000D01*
X185206135Y-117976094D01*
X185958657Y-117664389D01*
X186635909Y-117211864D01*
X187211864Y-116635909D01*
X187664389Y-115958657D01*
X187976094Y-115206135D01*
X188135000Y-114407262D01*
X188135000Y-113592738D01*
X187976094Y-112793865D01*
X187664389Y-112041343D01*
X187211864Y-111364091D01*
X186635909Y-110788136D01*
X185958657Y-110335611D01*
X185206135Y-110023906D01*
X184407262Y-109865000D01*
X183592738Y-109865000D01*
X182793865Y-110023906D01*
X182041343Y-110335611D01*
X181364091Y-110788136D01*
X180788136Y-111364091D01*
X180335611Y-112041343D01*
X180023906Y-112793865D01*
X179865000Y-113592738D01*
X171288448Y-113592738D01*
X171299170Y-113579336D01*
X171311248Y-113561261D01*
X171321062Y-113538380D01*
X171326223Y-113514025D01*
X171390056Y-112939530D01*
X171418194Y-112703575D01*
X171422297Y-112649357D01*
X171426223Y-112614025D01*
X171426370Y-112587363D01*
X171415633Y-112479997D01*
X171403522Y-112257921D01*
X171397012Y-112195399D01*
X171396863Y-112194433D01*
X171384460Y-112133748D01*
X171378789Y-112111552D01*
X171326370Y-111587363D01*
X171320441Y-111559713D01*
X171310267Y-111536990D01*
X170910267Y-110836990D01*
X170895943Y-110816789D01*
X170877866Y-110799671D01*
X170856796Y-110786408D01*
X170382915Y-110549467D01*
X170330306Y-110517761D01*
X169839569Y-110262022D01*
X169805851Y-110245691D01*
X169805316Y-110245451D01*
X169770818Y-110231173D01*
X169668751Y-110192385D01*
X169456796Y-110086408D01*
X169433007Y-110077364D01*
X169408448Y-110073281D01*
X168979821Y-110044706D01*
X168931097Y-110039968D01*
X168913483Y-110038502D01*
X168913209Y-110038483D01*
X168895831Y-110037515D01*
X168831364Y-110034809D01*
X167908448Y-109973281D01*
X167893658Y-109973158D01*
X166697257Y-110032978D01*
X166560014Y-110037377D01*
X166553134Y-110037634D01*
X166552994Y-110037640D01*
X166542031Y-110038205D01*
X166336436Y-110050563D01*
X166324271Y-110051627D01*
X165893658Y-110073158D01*
X165861167Y-110079083D01*
X165838323Y-110088982D01*
X165817850Y-110103148D01*
X165800533Y-110121035D01*
X165787039Y-110141958D01*
X165777886Y-110165110D01*
X165650247Y-110611847D01*
X165303344Y-110126183D01*
X165286285Y-110106812D01*
X165266447Y-110091770D01*
X165244055Y-110080886D01*
X165219971Y-110074580D01*
X165195119Y-110073094D01*
X163288389Y-110146430D01*
X162890629Y-110154192D01*
X162828910Y-110158396D01*
X162827953Y-110158508D01*
X162796346Y-110165354D01*
X162595119Y-110173094D01*
X162566456Y-110177510D01*
X162543204Y-110186408D01*
X162522134Y-110199671D01*
X162504057Y-110216789D01*
X162489667Y-110237106D01*
X162479517Y-110259839D01*
X162451674Y-110343368D01*
X162399875Y-110396895D01*
X162399266Y-110397662D01*
X162331424Y-110502846D01*
X162330976Y-110503718D01*
X162284932Y-110620270D01*
X162284663Y-110621213D01*
X162270502Y-110681973D01*
X162220665Y-110955747D01*
X162124534Y-110475093D01*
X162117282Y-110451276D01*
X162105523Y-110429332D01*
X162089709Y-110410104D01*
X162070447Y-110394330D01*
X161932226Y-110302182D01*
X161855616Y-110223469D01*
X161854868Y-110222836D01*
X161752003Y-110151825D01*
X161751146Y-110151350D01*
X161694835Y-110123667D01*
X161608546Y-110086396D01*
X161470447Y-109994330D01*
X161448601Y-109982667D01*
X161424776Y-109975440D01*
X161400000Y-109973000D01*
X160600000Y-109973000D01*
X160588502Y-109973522D01*
X160363368Y-109993989D01*
X160357720Y-109994175D01*
X160319100Y-109996623D01*
X160318493Y-109996680D01*
X160279646Y-110001534D01*
X160278639Y-110001691D01*
X159488502Y-110073522D01*
X159461167Y-110079083D01*
X159438323Y-110088982D01*
X159079292Y-110288444D01*
X158911894Y-110350134D01*
X158843879Y-110379797D01*
X158842846Y-110380321D01*
X158779022Y-110417490D01*
X158300261Y-110734768D01*
X158236359Y-110783156D01*
X158235408Y-110783975D01*
X158177986Y-110840093D01*
X158149863Y-110871271D01*
X158082887Y-110692668D01*
X158077332Y-110643542D01*
X158065858Y-110575382D01*
X158065621Y-110574327D01*
X158023810Y-110449851D01*
X158023404Y-110448959D01*
X157960599Y-110340632D01*
X157960027Y-110339837D01*
X157943562Y-110321134D01*
X157918914Y-110255407D01*
X157911018Y-110238323D01*
X157896852Y-110217850D01*
X157878965Y-110200533D01*
X157858042Y-110187039D01*
X157834890Y-110177886D01*
X157747921Y-110153038D01*
X157721615Y-110138482D01*
X157687035Y-110121514D01*
X157622516Y-110094143D01*
X157621485Y-110093771D01*
X157554449Y-110073664D01*
X157404596Y-110037542D01*
X157384285Y-110032995D01*
X157383961Y-110032928D01*
X157362956Y-110028950D01*
X157238896Y-110007602D01*
X157134890Y-109977886D01*
X157112637Y-109973630D01*
X156112637Y-109873630D01*
X156093827Y-109873150D01*
X156069198Y-109876792D01*
X155416058Y-110040077D01*
X155375081Y-110049220D01*
X155335336Y-110059440D01*
X155334719Y-110059620D01*
X155324436Y-110062982D01*
X154869198Y-110176792D01*
X154857160Y-110180444D01*
X154834659Y-110191098D01*
X153906059Y-110748258D01*
X153538599Y-110485786D01*
X153502999Y-110452356D01*
X153454624Y-110411260D01*
X153453842Y-110410660D01*
X153402518Y-110375129D01*
X153034339Y-110146045D01*
X152960881Y-110106745D01*
X152959693Y-110106206D01*
X152907244Y-110086438D01*
X152563010Y-109889733D01*
X152548601Y-109882667D01*
X152524776Y-109875440D01*
X152500000Y-109873000D01*
X151300000Y-109873000D01*
X151284116Y-109873997D01*
X151259839Y-109879517D01*
X150844626Y-110017921D01*
X150742938Y-110041423D01*
X150664214Y-110065050D01*
X150663012Y-110065497D01*
X150588339Y-110098859D01*
X150565038Y-110111117D01*
X150059839Y-110279517D01*
X150038739Y-110288752D01*
X150018213Y-110302841D01*
X150000830Y-110320664D01*
X149640990Y-110770464D01*
X149613000Y-110797044D01*
X149555742Y-110859125D01*
X149554916Y-110860149D01*
X149506725Y-110928646D01*
X149482015Y-110969182D01*
X149200830Y-111320664D01*
X149189667Y-111337106D01*
X149179517Y-111359839D01*
X148979517Y-111959839D01*
X148973777Y-111985975D01*
X148935005Y-112334923D01*
X148866175Y-112867844D01*
X148863074Y-112897173D01*
X148863037Y-112897622D01*
X148861348Y-112925632D01*
X148857321Y-113030892D01*
X148856998Y-113041784D01*
X148856994Y-113041973D01*
X148856851Y-113055187D01*
X148856684Y-113426902D01*
X140102014Y-113426902D01*
X139976094Y-112793865D01*
X139664389Y-112041343D01*
X139211864Y-111364091D01*
X138635909Y-110788136D01*
X137958657Y-110335611D01*
X137206135Y-110023906D01*
X136407262Y-109865000D01*
X135592738Y-109865000D01*
X134793865Y-110023906D01*
X134041343Y-110335611D01*
X133364091Y-110788136D01*
X132788136Y-111364091D01*
X132335611Y-112041343D01*
X132023906Y-112793865D01*
X131865000Y-113592738D01*
X125695000Y-113592738D01*
X125695000Y-52800000D01*
X134986565Y-52800000D01*
X134990001Y-52834887D01*
X134990000Y-93165123D01*
X134986565Y-93200000D01*
X135000273Y-93339184D01*
X135040872Y-93473020D01*
X135106800Y-93596363D01*
X135195525Y-93704475D01*
X135303637Y-93793200D01*
X135426980Y-93859128D01*
X135560816Y-93899727D01*
X135700000Y-93913435D01*
X135734877Y-93910000D01*
X186265123Y-93910000D01*
X186300000Y-93913435D01*
X186334877Y-93910000D01*
X186439184Y-93899727D01*
X186573020Y-93859128D01*
X186696363Y-93793200D01*
X186804475Y-93704475D01*
X186893200Y-93596363D01*
X186959128Y-93473020D01*
X186999727Y-93339184D01*
X187013435Y-93200000D01*
X187010000Y-93165123D01*
X187010000Y-52834877D01*
X187013435Y-52800000D01*
X186999727Y-52660816D01*
X186959128Y-52526980D01*
X186893200Y-52403637D01*
X186804475Y-52295525D01*
X186696363Y-52206800D01*
X186573020Y-52140872D01*
X186439184Y-52100273D01*
X186334877Y-52090000D01*
X186300000Y-52086565D01*
X186265123Y-52090000D01*
X135734877Y-52090000D01*
X135700000Y-52086565D01*
X135665123Y-52090000D01*
X135560816Y-52100273D01*
X135426980Y-52140872D01*
X135303637Y-52206800D01*
X135195525Y-52295525D01*
X135106800Y-52403637D01*
X135040872Y-52526980D01*
X135000273Y-52660816D01*
X134986565Y-52800000D01*
X125695000Y-52800000D01*
X125695000Y-43750000D01*
X129354186Y-43750000D01*
X129397339Y-44188137D01*
X129525138Y-44609436D01*
X129732674Y-44997707D01*
X130011970Y-45338030D01*
X130352293Y-45617326D01*
X130740564Y-45824862D01*
X131161863Y-45952661D01*
X131490204Y-45985000D01*
X133509796Y-45985000D01*
X133838137Y-45952661D01*
X134259436Y-45824862D01*
X134647707Y-45617326D01*
X134988030Y-45338030D01*
X135267326Y-44997707D01*
X135474862Y-44609436D01*
X135602661Y-44188137D01*
X135645814Y-43750000D01*
X185354186Y-43750000D01*
X185397339Y-44188137D01*
X185525138Y-44609436D01*
X185732674Y-44997707D01*
X186011970Y-45338030D01*
X186352293Y-45617326D01*
X186740564Y-45824862D01*
X187161863Y-45952661D01*
X187490204Y-45985000D01*
X189509796Y-45985000D01*
X189838137Y-45952661D01*
X190259436Y-45824862D01*
X190647707Y-45617326D01*
X190988030Y-45338030D01*
X191267326Y-44997707D01*
X191474862Y-44609436D01*
X191602661Y-44188137D01*
X191645814Y-43750000D01*
X191602661Y-43311863D01*
X191474862Y-42890564D01*
X191267326Y-42502293D01*
X190988030Y-42161970D01*
X190647707Y-41882674D01*
X190259436Y-41675138D01*
X189838137Y-41547339D01*
X189509796Y-41515000D01*
X187490204Y-41515000D01*
X187161863Y-41547339D01*
X186740564Y-41675138D01*
X186352293Y-41882674D01*
X186011970Y-42161970D01*
X185732674Y-42502293D01*
X185525138Y-42890564D01*
X185397339Y-43311863D01*
X185354186Y-43750000D01*
X135645814Y-43750000D01*
X135602661Y-43311863D01*
X135474862Y-42890564D01*
X135267326Y-42502293D01*
X134988030Y-42161970D01*
X134647707Y-41882674D01*
X134259436Y-41675138D01*
X133838137Y-41547339D01*
X133509796Y-41515000D01*
X131490204Y-41515000D01*
X131161863Y-41547339D01*
X130740564Y-41675138D01*
X130352293Y-41882674D01*
X130011970Y-42161970D01*
X129732674Y-42502293D01*
X129525138Y-42890564D01*
X129397339Y-43311863D01*
X129354186Y-43750000D01*
X125695000Y-43750000D01*
X125695000Y-41445000D01*
X195305000Y-41445000D01*
X195305001Y-168555000D01*
X195305001Y-168555000D01*
G37*
X195305001Y-168555000D02*
X125695000Y-168555000D01*
X125695000Y-166250000D01*
X129354186Y-166250000D01*
X129397339Y-166688137D01*
X129525138Y-167109436D01*
X129732674Y-167497707D01*
X130011970Y-167838030D01*
X130352293Y-168117326D01*
X130740564Y-168324862D01*
X131161863Y-168452661D01*
X131490204Y-168485000D01*
X133509796Y-168485000D01*
X133838137Y-168452661D01*
X134259436Y-168324862D01*
X134647707Y-168117326D01*
X134988030Y-167838030D01*
X135267326Y-167497707D01*
X135474862Y-167109436D01*
X135602661Y-166688137D01*
X135645814Y-166250000D01*
X185354186Y-166250000D01*
X185397339Y-166688137D01*
X185525138Y-167109436D01*
X185732674Y-167497707D01*
X186011970Y-167838030D01*
X186352293Y-168117326D01*
X186740564Y-168324862D01*
X187161863Y-168452661D01*
X187490204Y-168485000D01*
X189509796Y-168485000D01*
X189838137Y-168452661D01*
X190259436Y-168324862D01*
X190647707Y-168117326D01*
X190988030Y-167838030D01*
X191267326Y-167497707D01*
X191474862Y-167109436D01*
X191602661Y-166688137D01*
X191645814Y-166250000D01*
X191602661Y-165811863D01*
X191474862Y-165390564D01*
X191267326Y-165002293D01*
X190988030Y-164661970D01*
X190647707Y-164382674D01*
X190259436Y-164175138D01*
X189838137Y-164047339D01*
X189509796Y-164015000D01*
X187490204Y-164015000D01*
X187161863Y-164047339D01*
X186740564Y-164175138D01*
X186352293Y-164382674D01*
X186011970Y-164661970D01*
X185732674Y-165002293D01*
X185525138Y-165390564D01*
X185397339Y-165811863D01*
X185354186Y-166250000D01*
X135645814Y-166250000D01*
X135602661Y-165811863D01*
X135474862Y-165390564D01*
X135267326Y-165002293D01*
X134988030Y-164661970D01*
X134647707Y-164382674D01*
X134259436Y-164175138D01*
X133838137Y-164047339D01*
X133509796Y-164015000D01*
X131490204Y-164015000D01*
X131161863Y-164047339D01*
X130740564Y-164175138D01*
X130352293Y-164382674D01*
X130011970Y-164661970D01*
X129732674Y-165002293D01*
X129525138Y-165390564D01*
X129397339Y-165811863D01*
X129354186Y-166250000D01*
X125695000Y-166250000D01*
X125695000Y-150641984D01*
X131365000Y-150641984D01*
X131365000Y-151358016D01*
X131504691Y-152060290D01*
X131778705Y-152721818D01*
X132176511Y-153317177D01*
X132682823Y-153823489D01*
X133278182Y-154221295D01*
X133939710Y-154495309D01*
X134641984Y-154635000D01*
X135358016Y-154635000D01*
X136060290Y-154495309D01*
X136721818Y-154221295D01*
X137317177Y-153823489D01*
X137823489Y-153317177D01*
X138221295Y-152721818D01*
X138495309Y-152060290D01*
X138635000Y-151358016D01*
X138635000Y-150641984D01*
X146365000Y-150641984D01*
X146365000Y-151358016D01*
X146504691Y-152060290D01*
X146778705Y-152721818D01*
X147176511Y-153317177D01*
X147682823Y-153823489D01*
X148278182Y-154221295D01*
X148939710Y-154495309D01*
X149641984Y-154635000D01*
X150358016Y-154635000D01*
X151060290Y-154495309D01*
X151721818Y-154221295D01*
X152317177Y-153823489D01*
X152823489Y-153317177D01*
X153221295Y-152721818D01*
X153495309Y-152060290D01*
X153635000Y-151358016D01*
X153635000Y-150641984D01*
X161365000Y-150641984D01*
X161365000Y-151358016D01*
X161504691Y-152060290D01*
X161778705Y-152721818D01*
X162176511Y-153317177D01*
X162682823Y-153823489D01*
X163278182Y-154221295D01*
X163939710Y-154495309D01*
X164641984Y-154635000D01*
X165358016Y-154635000D01*
X166060290Y-154495309D01*
X166721818Y-154221295D01*
X167317177Y-153823489D01*
X167823489Y-153317177D01*
X168221295Y-152721818D01*
X168495309Y-152060290D01*
X168635000Y-151358016D01*
X168635000Y-150789721D01*
X183865000Y-150789721D01*
X183865000Y-151210279D01*
X183947047Y-151622756D01*
X184107988Y-152011302D01*
X184341637Y-152360983D01*
X184639017Y-152658363D01*
X184988698Y-152892012D01*
X185377244Y-153052953D01*
X185789721Y-153135000D01*
X186210279Y-153135000D01*
X186622756Y-153052953D01*
X187011302Y-152892012D01*
X187360983Y-152658363D01*
X187658363Y-152360983D01*
X187892012Y-152011302D01*
X188052953Y-151622756D01*
X188135000Y-151210279D01*
X188135000Y-150789721D01*
X188052953Y-150377244D01*
X187892012Y-149988698D01*
X187658363Y-149639017D01*
X187360983Y-149341637D01*
X187011302Y-149107988D01*
X186622756Y-148947047D01*
X186210279Y-148865000D01*
X185789721Y-148865000D01*
X185377244Y-148947047D01*
X184988698Y-149107988D01*
X184639017Y-149341637D01*
X184341637Y-149639017D01*
X184107988Y-149988698D01*
X183947047Y-150377244D01*
X183865000Y-150789721D01*
X168635000Y-150789721D01*
X168635000Y-150641984D01*
X168495309Y-149939710D01*
X168221295Y-149278182D01*
X167823489Y-148682823D01*
X167317177Y-148176511D01*
X166721818Y-147778705D01*
X166060290Y-147504691D01*
X165358016Y-147365000D01*
X164641984Y-147365000D01*
X163939710Y-147504691D01*
X163278182Y-147778705D01*
X162682823Y-148176511D01*
X162176511Y-148682823D01*
X161778705Y-149278182D01*
X161504691Y-149939710D01*
X161365000Y-150641984D01*
X153635000Y-150641984D01*
X153495309Y-149939710D01*
X153221295Y-149278182D01*
X152823489Y-148682823D01*
X152317177Y-148176511D01*
X151721818Y-147778705D01*
X151060290Y-147504691D01*
X150358016Y-147365000D01*
X149641984Y-147365000D01*
X148939710Y-147504691D01*
X148278182Y-147778705D01*
X147682823Y-148176511D01*
X147176511Y-148682823D01*
X146778705Y-149278182D01*
X146504691Y-149939710D01*
X146365000Y-150641984D01*
X138635000Y-150641984D01*
X138495309Y-149939710D01*
X138221295Y-149278182D01*
X137823489Y-148682823D01*
X137317177Y-148176511D01*
X136721818Y-147778705D01*
X136060290Y-147504691D01*
X135358016Y-147365000D01*
X134641984Y-147365000D01*
X133939710Y-147504691D01*
X133278182Y-147778705D01*
X132682823Y-148176511D01*
X132176511Y-148682823D01*
X131778705Y-149278182D01*
X131504691Y-149939710D01*
X131365000Y-150641984D01*
X125695000Y-150641984D01*
X125695000Y-136641984D01*
X131365000Y-136641984D01*
X131365000Y-137358016D01*
X131504691Y-138060290D01*
X131778705Y-138721818D01*
X132176511Y-139317177D01*
X132682823Y-139823489D01*
X133278182Y-140221295D01*
X133939710Y-140495309D01*
X134641984Y-140635000D01*
X135358016Y-140635000D01*
X136060290Y-140495309D01*
X136721818Y-140221295D01*
X137317177Y-139823489D01*
X137823489Y-139317177D01*
X138221295Y-138721818D01*
X138495309Y-138060290D01*
X138635000Y-137358016D01*
X138635000Y-136641984D01*
X146365000Y-136641984D01*
X146365000Y-137358016D01*
X146504691Y-138060290D01*
X146778705Y-138721818D01*
X147176511Y-139317177D01*
X147682823Y-139823489D01*
X148278182Y-140221295D01*
X148939710Y-140495309D01*
X149641984Y-140635000D01*
X150358016Y-140635000D01*
X151060290Y-140495309D01*
X151721818Y-140221295D01*
X152317177Y-139823489D01*
X152823489Y-139317177D01*
X153221295Y-138721818D01*
X153495309Y-138060290D01*
X153635000Y-137358016D01*
X153635000Y-136641984D01*
X161365000Y-136641984D01*
X161365000Y-137358016D01*
X161504691Y-138060290D01*
X161778705Y-138721818D01*
X162176511Y-139317177D01*
X162682823Y-139823489D01*
X163278182Y-140221295D01*
X163939710Y-140495309D01*
X164641984Y-140635000D01*
X165358016Y-140635000D01*
X166060290Y-140495309D01*
X166721818Y-140221295D01*
X167317177Y-139823489D01*
X167823489Y-139317177D01*
X168221295Y-138721818D01*
X168495309Y-138060290D01*
X168635000Y-137358016D01*
X168635000Y-136641984D01*
X182365000Y-136641984D01*
X182365000Y-137358016D01*
X182504691Y-138060290D01*
X182778705Y-138721818D01*
X183176511Y-139317177D01*
X183682823Y-139823489D01*
X184278182Y-140221295D01*
X184939710Y-140495309D01*
X185641984Y-140635000D01*
X186358016Y-140635000D01*
X187060290Y-140495309D01*
X187721818Y-140221295D01*
X188317177Y-139823489D01*
X188823489Y-139317177D01*
X189221295Y-138721818D01*
X189495309Y-138060290D01*
X189635000Y-137358016D01*
X189635000Y-136641984D01*
X189495309Y-135939710D01*
X189221295Y-135278182D01*
X188823489Y-134682823D01*
X188317177Y-134176511D01*
X187721818Y-133778705D01*
X187060290Y-133504691D01*
X186358016Y-133365000D01*
X185641984Y-133365000D01*
X184939710Y-133504691D01*
X184278182Y-133778705D01*
X183682823Y-134176511D01*
X183176511Y-134682823D01*
X182778705Y-135278182D01*
X182504691Y-135939710D01*
X182365000Y-136641984D01*
X168635000Y-136641984D01*
X168495309Y-135939710D01*
X168221295Y-135278182D01*
X167823489Y-134682823D01*
X167317177Y-134176511D01*
X166721818Y-133778705D01*
X166060290Y-133504691D01*
X165358016Y-133365000D01*
X164641984Y-133365000D01*
X163939710Y-133504691D01*
X163278182Y-133778705D01*
X162682823Y-134176511D01*
X162176511Y-134682823D01*
X161778705Y-135278182D01*
X161504691Y-135939710D01*
X161365000Y-136641984D01*
X153635000Y-136641984D01*
X153495309Y-135939710D01*
X153221295Y-135278182D01*
X152823489Y-134682823D01*
X152317177Y-134176511D01*
X151721818Y-133778705D01*
X151060290Y-133504691D01*
X150358016Y-133365000D01*
X149641984Y-133365000D01*
X148939710Y-133504691D01*
X148278182Y-133778705D01*
X147682823Y-134176511D01*
X147176511Y-134682823D01*
X146778705Y-135278182D01*
X146504691Y-135939710D01*
X146365000Y-136641984D01*
X138635000Y-136641984D01*
X138495309Y-135939710D01*
X138221295Y-135278182D01*
X137823489Y-134682823D01*
X137317177Y-134176511D01*
X136721818Y-133778705D01*
X136060290Y-133504691D01*
X135358016Y-133365000D01*
X134641984Y-133365000D01*
X133939710Y-133504691D01*
X133278182Y-133778705D01*
X132682823Y-134176511D01*
X132176511Y-134682823D01*
X131778705Y-135278182D01*
X131504691Y-135939710D01*
X131365000Y-136641984D01*
X125695000Y-136641984D01*
X125695000Y-113592738D01*
X131865000Y-113592738D01*
X131865000Y-114407262D01*
X132023906Y-115206135D01*
X132335611Y-115958657D01*
X132788136Y-116635909D01*
X133364091Y-117211864D01*
X134041343Y-117664389D01*
X134793865Y-117976094D01*
X135592738Y-118135000D01*
X136407262Y-118135000D01*
X137206135Y-117976094D01*
X137958657Y-117664389D01*
X138635909Y-117211864D01*
X139211864Y-116635909D01*
X139664389Y-115958657D01*
X139976094Y-115206135D01*
X140135000Y-114407262D01*
X140135000Y-113592738D01*
X140102014Y-113426902D01*
X148856684Y-113426902D01*
X148856892Y-113443485D01*
X148856899Y-113443759D01*
X148857636Y-113462177D01*
X148870653Y-113701087D01*
X148870657Y-113701166D01*
X148876440Y-113807332D01*
X148878398Y-113833424D01*
X148878436Y-113833821D01*
X148881274Y-113858424D01*
X148916339Y-114118058D01*
X148921194Y-114148458D01*
X148921280Y-114148924D01*
X148923031Y-114157312D01*
X148973777Y-114614025D01*
X148976113Y-114627947D01*
X148983946Y-114651580D01*
X149383946Y-115551580D01*
X149399752Y-115577970D01*
X150099752Y-116477970D01*
X150116890Y-116496030D01*
X150137221Y-116510398D01*
X150159965Y-116520525D01*
X150184248Y-116526019D01*
X151097509Y-116640177D01*
X151125626Y-116648222D01*
X151126746Y-116648474D01*
X151199270Y-116660452D01*
X151606562Y-116703808D01*
X151784248Y-116726019D01*
X151808870Y-116726690D01*
X151833416Y-116722525D01*
X151889466Y-116707239D01*
X152360408Y-116642972D01*
X152435415Y-116628113D01*
X152436571Y-116627811D01*
X152509111Y-116604144D01*
X152979856Y-116418743D01*
X153053839Y-116383978D01*
X153054963Y-116383359D01*
X153124361Y-116339078D01*
X153164150Y-116309915D01*
X153356796Y-116213592D01*
X153386957Y-116192560D01*
X153403344Y-116173817D01*
X153462136Y-116091508D01*
X153529027Y-116042481D01*
X153566368Y-116012908D01*
X153566932Y-116012426D01*
X153601604Y-115980506D01*
X153634564Y-115947832D01*
X153661512Y-115919426D01*
X153661925Y-115918963D01*
X153687625Y-115888264D01*
X154041537Y-115437511D01*
X154079246Y-115384054D01*
X154079792Y-115383189D01*
X154111768Y-115326274D01*
X154124968Y-115299678D01*
X154477886Y-116534890D01*
X154482667Y-116548601D01*
X154494403Y-116570557D01*
X154510197Y-116589803D01*
X154529443Y-116605597D01*
X154551399Y-116617333D01*
X154575224Y-116624560D01*
X154600000Y-116627000D01*
X155487133Y-116627000D01*
X155543241Y-116629992D01*
X155571444Y-116630871D01*
X155571886Y-116630875D01*
X155600123Y-116630505D01*
X155699621Y-116627000D01*
X155800000Y-116627000D01*
X155824907Y-116624534D01*
X155836726Y-116622170D01*
X155931264Y-116618840D01*
X155957143Y-116617402D01*
X155957551Y-116617371D01*
X155983709Y-116614841D01*
X156290730Y-116578747D01*
X156334104Y-116572129D01*
X156334769Y-116572004D01*
X156376319Y-116562749D01*
X156599299Y-116505212D01*
X156662028Y-116485528D01*
X156663000Y-116485167D01*
X156724282Y-116458681D01*
X156771685Y-116435178D01*
X156824907Y-116424534D01*
X156848478Y-116417383D01*
X156870447Y-116405670D01*
X157470447Y-116005670D01*
X157489896Y-115989709D01*
X157505670Y-115970447D01*
X157800000Y-115528952D01*
X157894330Y-115670447D01*
X157918697Y-115697564D01*
X158518697Y-116197564D01*
X158543204Y-116213592D01*
X159143204Y-116513592D01*
X159169198Y-116523208D01*
X159969198Y-116723208D01*
X159983042Y-116725863D01*
X160007922Y-116726753D01*
X160461117Y-116698428D01*
X160497315Y-116699886D01*
X160524509Y-116700401D01*
X160524929Y-116700400D01*
X160551390Y-116699788D01*
X160920677Y-116683579D01*
X160958717Y-116680768D01*
X160959313Y-116680706D01*
X160997329Y-116675592D01*
X161101232Y-116658421D01*
X161600000Y-116627248D01*
X163192078Y-116726753D01*
X163215884Y-116726003D01*
X163240161Y-116720483D01*
X163304874Y-116698912D01*
X163372158Y-116697987D01*
X163373133Y-116697877D01*
X163494957Y-116671896D01*
X163495891Y-116671599D01*
X163611081Y-116622041D01*
X163611939Y-116621567D01*
X163665013Y-116588761D01*
X163692922Y-116569563D01*
X163805077Y-116532178D01*
X164041170Y-116591201D01*
X164065141Y-116601132D01*
X164066079Y-116601417D01*
X164144492Y-116617031D01*
X164169198Y-116623208D01*
X164185729Y-116625243D01*
X164189053Y-116625905D01*
X164190028Y-116626001D01*
X164193118Y-116626153D01*
X164200000Y-116627000D01*
X164210367Y-116627000D01*
X164252551Y-116629072D01*
X166144804Y-116629072D01*
X166175119Y-116627000D01*
X168573933Y-116627000D01*
X169249972Y-116916731D01*
X169276744Y-116924853D01*
X169301548Y-116926991D01*
X169326293Y-116924248D01*
X169350028Y-116916731D01*
X171450028Y-116016731D01*
X171468676Y-116006830D01*
X171488198Y-115991379D01*
X171504330Y-115972416D01*
X171516454Y-115950671D01*
X171524101Y-115926979D01*
X171526980Y-115902249D01*
X171524979Y-115877433D01*
X171518175Y-115853485D01*
X171506830Y-115831324D01*
X171386215Y-115643701D01*
X171388350Y-115556828D01*
X171388278Y-115555851D01*
X171366977Y-115432877D01*
X171366716Y-115431932D01*
X171321858Y-115315407D01*
X171321418Y-115314531D01*
X171254087Y-115208151D01*
X171253484Y-115207379D01*
X171212800Y-115160230D01*
X170829118Y-114757144D01*
X170822890Y-114750586D01*
X170786170Y-114710297D01*
X170649493Y-114497689D01*
X170654216Y-114489818D01*
X170666773Y-114479244D01*
X170667711Y-114478343D01*
X170723703Y-114417073D01*
X171031453Y-114032860D01*
X171084248Y-113956063D01*
X171084986Y-113954801D01*
X171126258Y-113870566D01*
X171186858Y-113719725D01*
X171288448Y-113592738D01*
X179865000Y-113592738D01*
X179865000Y-114407262D01*
X180023906Y-115206135D01*
X180335611Y-115958657D01*
X180788136Y-116635909D01*
X181364091Y-117211864D01*
X182041343Y-117664389D01*
X182793865Y-117976094D01*
X183592738Y-118135000D01*
X184407262Y-118135000D01*
X185206135Y-117976094D01*
X185958657Y-117664389D01*
X186635909Y-117211864D01*
X187211864Y-116635909D01*
X187664389Y-115958657D01*
X187976094Y-115206135D01*
X188135000Y-114407262D01*
X188135000Y-113592738D01*
X187976094Y-112793865D01*
X187664389Y-112041343D01*
X187211864Y-111364091D01*
X186635909Y-110788136D01*
X185958657Y-110335611D01*
X185206135Y-110023906D01*
X184407262Y-109865000D01*
X183592738Y-109865000D01*
X182793865Y-110023906D01*
X182041343Y-110335611D01*
X181364091Y-110788136D01*
X180788136Y-111364091D01*
X180335611Y-112041343D01*
X180023906Y-112793865D01*
X179865000Y-113592738D01*
X171288448Y-113592738D01*
X171299170Y-113579336D01*
X171311248Y-113561261D01*
X171321062Y-113538380D01*
X171326223Y-113514025D01*
X171390056Y-112939530D01*
X171418194Y-112703575D01*
X171422297Y-112649357D01*
X171426223Y-112614025D01*
X171426370Y-112587363D01*
X171415633Y-112479997D01*
X171403522Y-112257921D01*
X171397012Y-112195399D01*
X171396863Y-112194433D01*
X171384460Y-112133748D01*
X171378789Y-112111552D01*
X171326370Y-111587363D01*
X171320441Y-111559713D01*
X171310267Y-111536990D01*
X170910267Y-110836990D01*
X170895943Y-110816789D01*
X170877866Y-110799671D01*
X170856796Y-110786408D01*
X170382915Y-110549467D01*
X170330306Y-110517761D01*
X169839569Y-110262022D01*
X169805851Y-110245691D01*
X169805316Y-110245451D01*
X169770818Y-110231173D01*
X169668751Y-110192385D01*
X169456796Y-110086408D01*
X169433007Y-110077364D01*
X169408448Y-110073281D01*
X168979821Y-110044706D01*
X168931097Y-110039968D01*
X168913483Y-110038502D01*
X168913209Y-110038483D01*
X168895831Y-110037515D01*
X168831364Y-110034809D01*
X167908448Y-109973281D01*
X167893658Y-109973158D01*
X166697257Y-110032978D01*
X166560014Y-110037377D01*
X166553134Y-110037634D01*
X166552994Y-110037640D01*
X166542031Y-110038205D01*
X166336436Y-110050563D01*
X166324271Y-110051627D01*
X165893658Y-110073158D01*
X165861167Y-110079083D01*
X165838323Y-110088982D01*
X165817850Y-110103148D01*
X165800533Y-110121035D01*
X165787039Y-110141958D01*
X165777886Y-110165110D01*
X165650247Y-110611847D01*
X165303344Y-110126183D01*
X165286285Y-110106812D01*
X165266447Y-110091770D01*
X165244055Y-110080886D01*
X165219971Y-110074580D01*
X165195119Y-110073094D01*
X163288389Y-110146430D01*
X162890629Y-110154192D01*
X162828910Y-110158396D01*
X162827953Y-110158508D01*
X162796346Y-110165354D01*
X162595119Y-110173094D01*
X162566456Y-110177510D01*
X162543204Y-110186408D01*
X162522134Y-110199671D01*
X162504057Y-110216789D01*
X162489667Y-110237106D01*
X162479517Y-110259839D01*
X162451674Y-110343368D01*
X162399875Y-110396895D01*
X162399266Y-110397662D01*
X162331424Y-110502846D01*
X162330976Y-110503718D01*
X162284932Y-110620270D01*
X162284663Y-110621213D01*
X162270502Y-110681973D01*
X162220665Y-110955747D01*
X162124534Y-110475093D01*
X162117282Y-110451276D01*
X162105523Y-110429332D01*
X162089709Y-110410104D01*
X162070447Y-110394330D01*
X161932226Y-110302182D01*
X161855616Y-110223469D01*
X161854868Y-110222836D01*
X161752003Y-110151825D01*
X161751146Y-110151350D01*
X161694835Y-110123667D01*
X161608546Y-110086396D01*
X161470447Y-109994330D01*
X161448601Y-109982667D01*
X161424776Y-109975440D01*
X161400000Y-109973000D01*
X160600000Y-109973000D01*
X160588502Y-109973522D01*
X160363368Y-109993989D01*
X160357720Y-109994175D01*
X160319100Y-109996623D01*
X160318493Y-109996680D01*
X160279646Y-110001534D01*
X160278639Y-110001691D01*
X159488502Y-110073522D01*
X159461167Y-110079083D01*
X159438323Y-110088982D01*
X159079292Y-110288444D01*
X158911894Y-110350134D01*
X158843879Y-110379797D01*
X158842846Y-110380321D01*
X158779022Y-110417490D01*
X158300261Y-110734768D01*
X158236359Y-110783156D01*
X158235408Y-110783975D01*
X158177986Y-110840093D01*
X158149863Y-110871271D01*
X158082887Y-110692668D01*
X158077332Y-110643542D01*
X158065858Y-110575382D01*
X158065621Y-110574327D01*
X158023810Y-110449851D01*
X158023404Y-110448959D01*
X157960599Y-110340632D01*
X157960027Y-110339837D01*
X157943562Y-110321134D01*
X157918914Y-110255407D01*
X157911018Y-110238323D01*
X157896852Y-110217850D01*
X157878965Y-110200533D01*
X157858042Y-110187039D01*
X157834890Y-110177886D01*
X157747921Y-110153038D01*
X157721615Y-110138482D01*
X157687035Y-110121514D01*
X157622516Y-110094143D01*
X157621485Y-110093771D01*
X157554449Y-110073664D01*
X157404596Y-110037542D01*
X157384285Y-110032995D01*
X157383961Y-110032928D01*
X157362956Y-110028950D01*
X157238896Y-110007602D01*
X157134890Y-109977886D01*
X157112637Y-109973630D01*
X156112637Y-109873630D01*
X156093827Y-109873150D01*
X156069198Y-109876792D01*
X155416058Y-110040077D01*
X155375081Y-110049220D01*
X155335336Y-110059440D01*
X155334719Y-110059620D01*
X155324436Y-110062982D01*
X154869198Y-110176792D01*
X154857160Y-110180444D01*
X154834659Y-110191098D01*
X153906059Y-110748258D01*
X153538599Y-110485786D01*
X153502999Y-110452356D01*
X153454624Y-110411260D01*
X153453842Y-110410660D01*
X153402518Y-110375129D01*
X153034339Y-110146045D01*
X152960881Y-110106745D01*
X152959693Y-110106206D01*
X152907244Y-110086438D01*
X152563010Y-109889733D01*
X152548601Y-109882667D01*
X152524776Y-109875440D01*
X152500000Y-109873000D01*
X151300000Y-109873000D01*
X151284116Y-109873997D01*
X151259839Y-109879517D01*
X150844626Y-110017921D01*
X150742938Y-110041423D01*
X150664214Y-110065050D01*
X150663012Y-110065497D01*
X150588339Y-110098859D01*
X150565038Y-110111117D01*
X150059839Y-110279517D01*
X150038739Y-110288752D01*
X150018213Y-110302841D01*
X150000830Y-110320664D01*
X149640990Y-110770464D01*
X149613000Y-110797044D01*
X149555742Y-110859125D01*
X149554916Y-110860149D01*
X149506725Y-110928646D01*
X149482015Y-110969182D01*
X149200830Y-111320664D01*
X149189667Y-111337106D01*
X149179517Y-111359839D01*
X148979517Y-111959839D01*
X148973777Y-111985975D01*
X148935005Y-112334923D01*
X148866175Y-112867844D01*
X148863074Y-112897173D01*
X148863037Y-112897622D01*
X148861348Y-112925632D01*
X148857321Y-113030892D01*
X148856998Y-113041784D01*
X148856994Y-113041973D01*
X148856851Y-113055187D01*
X148856684Y-113426902D01*
X140102014Y-113426902D01*
X139976094Y-112793865D01*
X139664389Y-112041343D01*
X139211864Y-111364091D01*
X138635909Y-110788136D01*
X137958657Y-110335611D01*
X137206135Y-110023906D01*
X136407262Y-109865000D01*
X135592738Y-109865000D01*
X134793865Y-110023906D01*
X134041343Y-110335611D01*
X133364091Y-110788136D01*
X132788136Y-111364091D01*
X132335611Y-112041343D01*
X132023906Y-112793865D01*
X131865000Y-113592738D01*
X125695000Y-113592738D01*
X125695000Y-52800000D01*
X134986565Y-52800000D01*
X134990001Y-52834887D01*
X134990000Y-93165123D01*
X134986565Y-93200000D01*
X135000273Y-93339184D01*
X135040872Y-93473020D01*
X135106800Y-93596363D01*
X135195525Y-93704475D01*
X135303637Y-93793200D01*
X135426980Y-93859128D01*
X135560816Y-93899727D01*
X135700000Y-93913435D01*
X135734877Y-93910000D01*
X186265123Y-93910000D01*
X186300000Y-93913435D01*
X186334877Y-93910000D01*
X186439184Y-93899727D01*
X186573020Y-93859128D01*
X186696363Y-93793200D01*
X186804475Y-93704475D01*
X186893200Y-93596363D01*
X186959128Y-93473020D01*
X186999727Y-93339184D01*
X187013435Y-93200000D01*
X187010000Y-93165123D01*
X187010000Y-52834877D01*
X187013435Y-52800000D01*
X186999727Y-52660816D01*
X186959128Y-52526980D01*
X186893200Y-52403637D01*
X186804475Y-52295525D01*
X186696363Y-52206800D01*
X186573020Y-52140872D01*
X186439184Y-52100273D01*
X186334877Y-52090000D01*
X186300000Y-52086565D01*
X186265123Y-52090000D01*
X135734877Y-52090000D01*
X135700000Y-52086565D01*
X135665123Y-52090000D01*
X135560816Y-52100273D01*
X135426980Y-52140872D01*
X135303637Y-52206800D01*
X135195525Y-52295525D01*
X135106800Y-52403637D01*
X135040872Y-52526980D01*
X135000273Y-52660816D01*
X134986565Y-52800000D01*
X125695000Y-52800000D01*
X125695000Y-43750000D01*
X129354186Y-43750000D01*
X129397339Y-44188137D01*
X129525138Y-44609436D01*
X129732674Y-44997707D01*
X130011970Y-45338030D01*
X130352293Y-45617326D01*
X130740564Y-45824862D01*
X131161863Y-45952661D01*
X131490204Y-45985000D01*
X133509796Y-45985000D01*
X133838137Y-45952661D01*
X134259436Y-45824862D01*
X134647707Y-45617326D01*
X134988030Y-45338030D01*
X135267326Y-44997707D01*
X135474862Y-44609436D01*
X135602661Y-44188137D01*
X135645814Y-43750000D01*
X185354186Y-43750000D01*
X185397339Y-44188137D01*
X185525138Y-44609436D01*
X185732674Y-44997707D01*
X186011970Y-45338030D01*
X186352293Y-45617326D01*
X186740564Y-45824862D01*
X187161863Y-45952661D01*
X187490204Y-45985000D01*
X189509796Y-45985000D01*
X189838137Y-45952661D01*
X190259436Y-45824862D01*
X190647707Y-45617326D01*
X190988030Y-45338030D01*
X191267326Y-44997707D01*
X191474862Y-44609436D01*
X191602661Y-44188137D01*
X191645814Y-43750000D01*
X191602661Y-43311863D01*
X191474862Y-42890564D01*
X191267326Y-42502293D01*
X190988030Y-42161970D01*
X190647707Y-41882674D01*
X190259436Y-41675138D01*
X189838137Y-41547339D01*
X189509796Y-41515000D01*
X187490204Y-41515000D01*
X187161863Y-41547339D01*
X186740564Y-41675138D01*
X186352293Y-41882674D01*
X186011970Y-42161970D01*
X185732674Y-42502293D01*
X185525138Y-42890564D01*
X185397339Y-43311863D01*
X185354186Y-43750000D01*
X135645814Y-43750000D01*
X135602661Y-43311863D01*
X135474862Y-42890564D01*
X135267326Y-42502293D01*
X134988030Y-42161970D01*
X134647707Y-41882674D01*
X134259436Y-41675138D01*
X133838137Y-41547339D01*
X133509796Y-41515000D01*
X131490204Y-41515000D01*
X131161863Y-41547339D01*
X130740564Y-41675138D01*
X130352293Y-41882674D01*
X130011970Y-42161970D01*
X129732674Y-42502293D01*
X129525138Y-42890564D01*
X129397339Y-43311863D01*
X129354186Y-43750000D01*
X125695000Y-43750000D01*
X125695000Y-41445000D01*
X195305000Y-41445000D01*
X195305001Y-168555000D01*
M02*
