G04 #@! TF.GenerationSoftware,KiCad,Pcbnew,(5.1.4)-1*
G04 #@! TF.CreationDate,2019-09-13T09:02:02+01:00*
G04 #@! TF.ProjectId,oscar_panel,6f736361-725f-4706-916e-656c2e6b6963,rev?*
G04 #@! TF.SameCoordinates,Original*
G04 #@! TF.FileFunction,Legend,Bot*
G04 #@! TF.FilePolarity,Positive*
%FSLAX46Y46*%
G04 Gerber Fmt 4.6, Leading zero omitted, Abs format (unit mm)*
G04 Created by KiCad (PCBNEW (5.1.4)-1) date 2019-09-13 09:02:02*
%MOMM*%
%LPD*%
G04 APERTURE LIST*
%ADD10C,0.150000*%
G04 APERTURE END LIST*
D10*
X165514285Y-43552380D02*
X165323809Y-43552380D01*
X165228571Y-43600000D01*
X165133333Y-43695238D01*
X165085714Y-43885714D01*
X165085714Y-44219047D01*
X165133333Y-44409523D01*
X165228571Y-44504761D01*
X165323809Y-44552380D01*
X165514285Y-44552380D01*
X165609523Y-44504761D01*
X165704761Y-44409523D01*
X165752380Y-44219047D01*
X165752380Y-43885714D01*
X165704761Y-43695238D01*
X165609523Y-43600000D01*
X165514285Y-43552380D01*
X164704761Y-44504761D02*
X164561904Y-44552380D01*
X164323809Y-44552380D01*
X164228571Y-44504761D01*
X164180952Y-44457142D01*
X164133333Y-44361904D01*
X164133333Y-44266666D01*
X164180952Y-44171428D01*
X164228571Y-44123809D01*
X164323809Y-44076190D01*
X164514285Y-44028571D01*
X164609523Y-43980952D01*
X164657142Y-43933333D01*
X164704761Y-43838095D01*
X164704761Y-43742857D01*
X164657142Y-43647619D01*
X164609523Y-43600000D01*
X164514285Y-43552380D01*
X164276190Y-43552380D01*
X164133333Y-43600000D01*
X163133333Y-44457142D02*
X163180952Y-44504761D01*
X163323809Y-44552380D01*
X163419047Y-44552380D01*
X163561904Y-44504761D01*
X163657142Y-44409523D01*
X163704761Y-44314285D01*
X163752380Y-44123809D01*
X163752380Y-43980952D01*
X163704761Y-43790476D01*
X163657142Y-43695238D01*
X163561904Y-43600000D01*
X163419047Y-43552380D01*
X163323809Y-43552380D01*
X163180952Y-43600000D01*
X163133333Y-43647619D01*
X162752380Y-44266666D02*
X162276190Y-44266666D01*
X162847619Y-44552380D02*
X162514285Y-43552380D01*
X162180952Y-44552380D01*
X161276190Y-44552380D02*
X161609523Y-44076190D01*
X161847619Y-44552380D02*
X161847619Y-43552380D01*
X161466666Y-43552380D01*
X161371428Y-43600000D01*
X161323809Y-43647619D01*
X161276190Y-43742857D01*
X161276190Y-43885714D01*
X161323809Y-43980952D01*
X161371428Y-44028571D01*
X161466666Y-44076190D01*
X161847619Y-44076190D01*
X160085714Y-44552380D02*
X160085714Y-43552380D01*
X159704761Y-43552380D01*
X159609523Y-43600000D01*
X159561904Y-43647619D01*
X159514285Y-43742857D01*
X159514285Y-43885714D01*
X159561904Y-43980952D01*
X159609523Y-44028571D01*
X159704761Y-44076190D01*
X160085714Y-44076190D01*
X158657142Y-44552380D02*
X158657142Y-44028571D01*
X158704761Y-43933333D01*
X158800000Y-43885714D01*
X158990476Y-43885714D01*
X159085714Y-43933333D01*
X158657142Y-44504761D02*
X158752380Y-44552380D01*
X158990476Y-44552380D01*
X159085714Y-44504761D01*
X159133333Y-44409523D01*
X159133333Y-44314285D01*
X159085714Y-44219047D01*
X158990476Y-44171428D01*
X158752380Y-44171428D01*
X158657142Y-44123809D01*
X158180952Y-43885714D02*
X158180952Y-44552380D01*
X158180952Y-43980952D02*
X158133333Y-43933333D01*
X158038095Y-43885714D01*
X157895238Y-43885714D01*
X157800000Y-43933333D01*
X157752380Y-44028571D01*
X157752380Y-44552380D01*
X156895238Y-44504761D02*
X156990476Y-44552380D01*
X157180952Y-44552380D01*
X157276190Y-44504761D01*
X157323809Y-44409523D01*
X157323809Y-44028571D01*
X157276190Y-43933333D01*
X157180952Y-43885714D01*
X156990476Y-43885714D01*
X156895238Y-43933333D01*
X156847619Y-44028571D01*
X156847619Y-44123809D01*
X157323809Y-44219047D01*
X156276190Y-44552380D02*
X156371428Y-44504761D01*
X156419047Y-44409523D01*
X156419047Y-43552380D01*
X155228571Y-43885714D02*
X154990476Y-44552380D01*
X154752380Y-43885714D01*
X153847619Y-44552380D02*
X154419047Y-44552380D01*
X154133333Y-44552380D02*
X154133333Y-43552380D01*
X154228571Y-43695238D01*
X154323809Y-43790476D01*
X154419047Y-43838095D01*
X164619047Y-167152380D02*
X164619047Y-167866666D01*
X164666666Y-168009523D01*
X164761904Y-168104761D01*
X164904761Y-168152380D01*
X165000000Y-168152380D01*
X163666666Y-168152380D02*
X164142857Y-168152380D01*
X164142857Y-167152380D01*
X162761904Y-168057142D02*
X162809523Y-168104761D01*
X162952380Y-168152380D01*
X163047619Y-168152380D01*
X163190476Y-168104761D01*
X163285714Y-168009523D01*
X163333333Y-167914285D01*
X163380952Y-167723809D01*
X163380952Y-167580952D01*
X163333333Y-167390476D01*
X163285714Y-167295238D01*
X163190476Y-167200000D01*
X163047619Y-167152380D01*
X162952380Y-167152380D01*
X162809523Y-167200000D01*
X162761904Y-167247619D01*
X162047619Y-167152380D02*
X162047619Y-167866666D01*
X162095238Y-168009523D01*
X162190476Y-168104761D01*
X162333333Y-168152380D01*
X162428571Y-168152380D01*
X161095238Y-168152380D02*
X161571428Y-168152380D01*
X161571428Y-167152380D01*
X160190476Y-168057142D02*
X160238095Y-168104761D01*
X160380952Y-168152380D01*
X160476190Y-168152380D01*
X160619047Y-168104761D01*
X160714285Y-168009523D01*
X160761904Y-167914285D01*
X160809523Y-167723809D01*
X160809523Y-167580952D01*
X160761904Y-167390476D01*
X160714285Y-167295238D01*
X160619047Y-167200000D01*
X160476190Y-167152380D01*
X160380952Y-167152380D01*
X160238095Y-167200000D01*
X160190476Y-167247619D01*
X159476190Y-167152380D02*
X159476190Y-167866666D01*
X159523809Y-168009523D01*
X159619047Y-168104761D01*
X159761904Y-168152380D01*
X159857142Y-168152380D01*
X158523809Y-168152380D02*
X159000000Y-168152380D01*
X159000000Y-167152380D01*
X157619047Y-168057142D02*
X157666666Y-168104761D01*
X157809523Y-168152380D01*
X157904761Y-168152380D01*
X158047619Y-168104761D01*
X158142857Y-168009523D01*
X158190476Y-167914285D01*
X158238095Y-167723809D01*
X158238095Y-167580952D01*
X158190476Y-167390476D01*
X158142857Y-167295238D01*
X158047619Y-167200000D01*
X157904761Y-167152380D01*
X157809523Y-167152380D01*
X157666666Y-167200000D01*
X157619047Y-167247619D01*
X156904761Y-167152380D02*
X156904761Y-167866666D01*
X156952380Y-168009523D01*
X157047619Y-168104761D01*
X157190476Y-168152380D01*
X157285714Y-168152380D01*
X155952380Y-168152380D02*
X156428571Y-168152380D01*
X156428571Y-167152380D01*
X155047619Y-168057142D02*
X155095238Y-168104761D01*
X155238095Y-168152380D01*
X155333333Y-168152380D01*
X155476190Y-168104761D01*
X155571428Y-168009523D01*
X155619047Y-167914285D01*
X155666666Y-167723809D01*
X155666666Y-167580952D01*
X155619047Y-167390476D01*
X155571428Y-167295238D01*
X155476190Y-167200000D01*
X155333333Y-167152380D01*
X155238095Y-167152380D01*
X155095238Y-167200000D01*
X155047619Y-167247619D01*
M02*
