G04 #@! TF.GenerationSoftware,KiCad,Pcbnew,(5.1.4)-1*
G04 #@! TF.CreationDate,2019-09-13T11:08:06+01:00*
G04 #@! TF.ProjectId,oscar,6f736361-722e-46b6-9963-61645f706362,rev?*
G04 #@! TF.SameCoordinates,Original*
G04 #@! TF.FileFunction,Legend,Bot*
G04 #@! TF.FilePolarity,Positive*
%FSLAX46Y46*%
G04 Gerber Fmt 4.6, Leading zero omitted, Abs format (unit mm)*
G04 Created by KiCad (PCBNEW (5.1.4)-1) date 2019-09-13 11:08:06*
%MOMM*%
%LPD*%
G04 APERTURE LIST*
%ADD10C,0.100000*%
%ADD11C,0.120000*%
%ADD12C,0.150000*%
%ADD13C,0.300000*%
%ADD14C,0.200000*%
G04 APERTURE END LIST*
D10*
G36*
X181250000Y-65000000D02*
G01*
X180600000Y-65000000D01*
X180600000Y-63000000D01*
X181250000Y-63000000D01*
X181250000Y-65000000D01*
G37*
X181250000Y-65000000D02*
X180600000Y-65000000D01*
X180600000Y-63000000D01*
X181250000Y-63000000D01*
X181250000Y-65000000D01*
G36*
X173750000Y-55000000D02*
G01*
X173100000Y-55000000D01*
X173100000Y-53000000D01*
X173750000Y-53000000D01*
X173750000Y-55000000D01*
G37*
X173750000Y-55000000D02*
X173100000Y-55000000D01*
X173100000Y-53000000D01*
X173750000Y-53000000D01*
X173750000Y-55000000D01*
D11*
X153007107Y-98592894D02*
G75*
G03X153007107Y-98592894I-707107J0D01*
G01*
D10*
X152300000Y-106050000D02*
X152300000Y-106516666D01*
X152466666Y-105783333D02*
X152633333Y-106283333D01*
X152200000Y-106283333D01*
X151900000Y-106516666D02*
X151766666Y-106516666D01*
X151700000Y-106483333D01*
X151666666Y-106450000D01*
X151600000Y-106350000D01*
X151566666Y-106216666D01*
X151566666Y-105950000D01*
X151600000Y-105883333D01*
X151633333Y-105850000D01*
X151700000Y-105816666D01*
X151833333Y-105816666D01*
X151900000Y-105850000D01*
X151933333Y-105883333D01*
X151966666Y-105950000D01*
X151966666Y-106116666D01*
X151933333Y-106183333D01*
X151900000Y-106216666D01*
X151833333Y-106250000D01*
X151700000Y-106250000D01*
X151633333Y-106216666D01*
X151600000Y-106183333D01*
X151566666Y-106116666D01*
X160166666Y-106116666D02*
X159733333Y-106116666D01*
X159966666Y-106383333D01*
X159866666Y-106383333D01*
X159800000Y-106416666D01*
X159766666Y-106450000D01*
X159733333Y-106516666D01*
X159733333Y-106683333D01*
X159766666Y-106750000D01*
X159800000Y-106783333D01*
X159866666Y-106816666D01*
X160066666Y-106816666D01*
X160133333Y-106783333D01*
X160166666Y-106750000D01*
X159500000Y-106116666D02*
X159066666Y-106116666D01*
X159300000Y-106383333D01*
X159200000Y-106383333D01*
X159133333Y-106416666D01*
X159100000Y-106450000D01*
X159066666Y-106516666D01*
X159066666Y-106683333D01*
X159100000Y-106750000D01*
X159133333Y-106783333D01*
X159200000Y-106816666D01*
X159400000Y-106816666D01*
X159466666Y-106783333D01*
X159500000Y-106750000D01*
X160133333Y-99016666D02*
X160533333Y-99016666D01*
X160333333Y-99016666D02*
X160333333Y-98316666D01*
X160400000Y-98416666D01*
X160466666Y-98483333D01*
X160533333Y-98516666D01*
X159900000Y-98316666D02*
X159433333Y-98316666D01*
X159733333Y-99016666D01*
X152100000Y-98916666D02*
X152500000Y-98916666D01*
X152300000Y-98916666D02*
X152300000Y-98216666D01*
X152366666Y-98316666D01*
X152433333Y-98383333D01*
X152500000Y-98416666D01*
D12*
X131671428Y-79352380D02*
X131052380Y-79352380D01*
X131385714Y-79733333D01*
X131242857Y-79733333D01*
X131147618Y-79780952D01*
X131099999Y-79828571D01*
X131052380Y-79923809D01*
X131052380Y-80161904D01*
X131099999Y-80257142D01*
X131147618Y-80304761D01*
X131242857Y-80352380D01*
X131528571Y-80352380D01*
X131623809Y-80304761D01*
X131671428Y-80257142D01*
X130623809Y-80257142D02*
X130576190Y-80304761D01*
X130623809Y-80352380D01*
X130671428Y-80304761D01*
X130623809Y-80257142D01*
X130623809Y-80352380D01*
X130242857Y-79352380D02*
X129623809Y-79352380D01*
X129957142Y-79733333D01*
X129814285Y-79733333D01*
X129719047Y-79780952D01*
X129671428Y-79828571D01*
X129623809Y-79923809D01*
X129623809Y-80161904D01*
X129671428Y-80257142D01*
X129719047Y-80304761D01*
X129814285Y-80352380D01*
X130099999Y-80352380D01*
X130195238Y-80304761D01*
X130242857Y-80257142D01*
X129338095Y-79352380D02*
X129004761Y-80352380D01*
X128671428Y-79352380D01*
X130338095Y-67652380D02*
X130338095Y-66652380D01*
X130100000Y-66652380D01*
X129957143Y-66700000D01*
X129861905Y-66795238D01*
X129814286Y-66890476D01*
X129766667Y-67080952D01*
X129766667Y-67223809D01*
X129814286Y-67414285D01*
X129861905Y-67509523D01*
X129957143Y-67604761D01*
X130100000Y-67652380D01*
X130338095Y-67652380D01*
X128766667Y-67557142D02*
X128814286Y-67604761D01*
X128957143Y-67652380D01*
X129052381Y-67652380D01*
X129195238Y-67604761D01*
X129290476Y-67509523D01*
X129338095Y-67414285D01*
X129385714Y-67223809D01*
X129385714Y-67080952D01*
X129338095Y-66890476D01*
X129290476Y-66795238D01*
X129195238Y-66700000D01*
X129052381Y-66652380D01*
X128957143Y-66652380D01*
X128814286Y-66700000D01*
X128766667Y-66747619D01*
X130861904Y-84500000D02*
X130957142Y-84452380D01*
X131100000Y-84452380D01*
X131242857Y-84500000D01*
X131338095Y-84595238D01*
X131385714Y-84690476D01*
X131433333Y-84880952D01*
X131433333Y-85023809D01*
X131385714Y-85214285D01*
X131338095Y-85309523D01*
X131242857Y-85404761D01*
X131100000Y-85452380D01*
X131004761Y-85452380D01*
X130861904Y-85404761D01*
X130814285Y-85357142D01*
X130814285Y-85023809D01*
X131004761Y-85023809D01*
X130385714Y-85452380D02*
X130385714Y-84452380D01*
X129814285Y-85452380D01*
X129814285Y-84452380D01*
X129338095Y-85452380D02*
X129338095Y-84452380D01*
X129100000Y-84452380D01*
X128957142Y-84500000D01*
X128861904Y-84595238D01*
X128814285Y-84690476D01*
X128766666Y-84880952D01*
X128766666Y-85023809D01*
X128814285Y-85214285D01*
X128861904Y-85309523D01*
X128957142Y-85404761D01*
X129100000Y-85452380D01*
X129338095Y-85452380D01*
X131338095Y-65004761D02*
X131195238Y-65052380D01*
X130957142Y-65052380D01*
X130861904Y-65004761D01*
X130814285Y-64957142D01*
X130766666Y-64861904D01*
X130766666Y-64766666D01*
X130814285Y-64671428D01*
X130861904Y-64623809D01*
X130957142Y-64576190D01*
X131147619Y-64528571D01*
X131242857Y-64480952D01*
X131290476Y-64433333D01*
X131338095Y-64338095D01*
X131338095Y-64242857D01*
X131290476Y-64147619D01*
X131242857Y-64100000D01*
X131147619Y-64052380D01*
X130909523Y-64052380D01*
X130766666Y-64100000D01*
X129766666Y-64957142D02*
X129814285Y-65004761D01*
X129957142Y-65052380D01*
X130052381Y-65052380D01*
X130195238Y-65004761D01*
X130290476Y-64909523D01*
X130338095Y-64814285D01*
X130385714Y-64623809D01*
X130385714Y-64480952D01*
X130338095Y-64290476D01*
X130290476Y-64195238D01*
X130195238Y-64100000D01*
X130052381Y-64052380D01*
X129957142Y-64052380D01*
X129814285Y-64100000D01*
X129766666Y-64147619D01*
X129338095Y-65052380D02*
X129338095Y-64052380D01*
X128766666Y-65052380D02*
X129195238Y-64480952D01*
X128766666Y-64052380D02*
X129338095Y-64623809D01*
X130861904Y-69300000D02*
X130957142Y-69252380D01*
X131100000Y-69252380D01*
X131242857Y-69300000D01*
X131338095Y-69395238D01*
X131385714Y-69490476D01*
X131433333Y-69680952D01*
X131433333Y-69823809D01*
X131385714Y-70014285D01*
X131338095Y-70109523D01*
X131242857Y-70204761D01*
X131100000Y-70252380D01*
X131004761Y-70252380D01*
X130861904Y-70204761D01*
X130814285Y-70157142D01*
X130814285Y-69823809D01*
X131004761Y-69823809D01*
X130385714Y-70252380D02*
X130385714Y-69252380D01*
X129814285Y-70252380D01*
X129814285Y-69252380D01*
X129338095Y-70252380D02*
X129338095Y-69252380D01*
X129100000Y-69252380D01*
X128957142Y-69300000D01*
X128861904Y-69395238D01*
X128814285Y-69490476D01*
X128766666Y-69680952D01*
X128766666Y-69823809D01*
X128814285Y-70014285D01*
X128861904Y-70109523D01*
X128957142Y-70204761D01*
X129100000Y-70252380D01*
X129338095Y-70252380D01*
X130861904Y-59100000D02*
X130957142Y-59052380D01*
X131100000Y-59052380D01*
X131242857Y-59100000D01*
X131338095Y-59195238D01*
X131385714Y-59290476D01*
X131433333Y-59480952D01*
X131433333Y-59623809D01*
X131385714Y-59814285D01*
X131338095Y-59909523D01*
X131242857Y-60004761D01*
X131100000Y-60052380D01*
X131004761Y-60052380D01*
X130861904Y-60004761D01*
X130814285Y-59957142D01*
X130814285Y-59623809D01*
X131004761Y-59623809D01*
X130385714Y-60052380D02*
X130385714Y-59052380D01*
X129814285Y-60052380D01*
X129814285Y-59052380D01*
X129338095Y-60052380D02*
X129338095Y-59052380D01*
X129100000Y-59052380D01*
X128957142Y-59100000D01*
X128861904Y-59195238D01*
X128814285Y-59290476D01*
X128766666Y-59480952D01*
X128766666Y-59623809D01*
X128814285Y-59814285D01*
X128861904Y-59909523D01*
X128957142Y-60004761D01*
X129100000Y-60052380D01*
X129338095Y-60052380D01*
X130861904Y-81900000D02*
X130957142Y-81852380D01*
X131100000Y-81852380D01*
X131242857Y-81900000D01*
X131338095Y-81995238D01*
X131385714Y-82090476D01*
X131433333Y-82280952D01*
X131433333Y-82423809D01*
X131385714Y-82614285D01*
X131338095Y-82709523D01*
X131242857Y-82804761D01*
X131100000Y-82852380D01*
X131004761Y-82852380D01*
X130861904Y-82804761D01*
X130814285Y-82757142D01*
X130814285Y-82423809D01*
X131004761Y-82423809D01*
X130385714Y-82852380D02*
X130385714Y-81852380D01*
X129814285Y-82852380D01*
X129814285Y-81852380D01*
X129338095Y-82852380D02*
X129338095Y-81852380D01*
X129100000Y-81852380D01*
X128957142Y-81900000D01*
X128861904Y-81995238D01*
X128814285Y-82090476D01*
X128766666Y-82280952D01*
X128766666Y-82423809D01*
X128814285Y-82614285D01*
X128861904Y-82709523D01*
X128957142Y-82804761D01*
X129100000Y-82852380D01*
X129338095Y-82852380D01*
X130576190Y-87852380D02*
X131147619Y-87852380D01*
X130861904Y-87852380D02*
X130861904Y-86852380D01*
X130957143Y-86995238D01*
X131052381Y-87090476D01*
X131147619Y-87138095D01*
X130195238Y-86947619D02*
X130147619Y-86900000D01*
X130052381Y-86852380D01*
X129814285Y-86852380D01*
X129719047Y-86900000D01*
X129671428Y-86947619D01*
X129623809Y-87042857D01*
X129623809Y-87138095D01*
X129671428Y-87280952D01*
X130242857Y-87852380D01*
X129623809Y-87852380D01*
X129338095Y-86852380D02*
X129004762Y-87852380D01*
X128671428Y-86852380D01*
X131957143Y-72752380D02*
X131957143Y-71752380D01*
X131623810Y-72466666D01*
X131290476Y-71752380D01*
X131290476Y-72752380D01*
X130623810Y-71752380D02*
X130433334Y-71752380D01*
X130338095Y-71800000D01*
X130242857Y-71895238D01*
X130195238Y-72085714D01*
X130195238Y-72419047D01*
X130242857Y-72609523D01*
X130338095Y-72704761D01*
X130433334Y-72752380D01*
X130623810Y-72752380D01*
X130719048Y-72704761D01*
X130814286Y-72609523D01*
X130861905Y-72419047D01*
X130861905Y-72085714D01*
X130814286Y-71895238D01*
X130719048Y-71800000D01*
X130623810Y-71752380D01*
X129814286Y-72704761D02*
X129671429Y-72752380D01*
X129433334Y-72752380D01*
X129338095Y-72704761D01*
X129290476Y-72657142D01*
X129242857Y-72561904D01*
X129242857Y-72466666D01*
X129290476Y-72371428D01*
X129338095Y-72323809D01*
X129433334Y-72276190D01*
X129623810Y-72228571D01*
X129719048Y-72180952D01*
X129766667Y-72133333D01*
X129814286Y-72038095D01*
X129814286Y-71942857D01*
X129766667Y-71847619D01*
X129719048Y-71800000D01*
X129623810Y-71752380D01*
X129385715Y-71752380D01*
X129242857Y-71800000D01*
X128814286Y-72752380D02*
X128814286Y-71752380D01*
X130861904Y-76900000D02*
X130957142Y-76852380D01*
X131100000Y-76852380D01*
X131242857Y-76900000D01*
X131338095Y-76995238D01*
X131385714Y-77090476D01*
X131433333Y-77280952D01*
X131433333Y-77423809D01*
X131385714Y-77614285D01*
X131338095Y-77709523D01*
X131242857Y-77804761D01*
X131100000Y-77852380D01*
X131004761Y-77852380D01*
X130861904Y-77804761D01*
X130814285Y-77757142D01*
X130814285Y-77423809D01*
X131004761Y-77423809D01*
X130385714Y-77852380D02*
X130385714Y-76852380D01*
X129814285Y-77852380D01*
X129814285Y-76852380D01*
X129338095Y-77852380D02*
X129338095Y-76852380D01*
X129100000Y-76852380D01*
X128957142Y-76900000D01*
X128861904Y-76995238D01*
X128814285Y-77090476D01*
X128766666Y-77280952D01*
X128766666Y-77423809D01*
X128814285Y-77614285D01*
X128861904Y-77709523D01*
X128957142Y-77804761D01*
X129100000Y-77852380D01*
X129338095Y-77852380D01*
X129719047Y-62652380D02*
X130052381Y-62176190D01*
X130290476Y-62652380D02*
X130290476Y-61652380D01*
X129909523Y-61652380D01*
X129814285Y-61700000D01*
X129766666Y-61747619D01*
X129719047Y-61842857D01*
X129719047Y-61985714D01*
X129766666Y-62080952D01*
X129814285Y-62128571D01*
X129909523Y-62176190D01*
X130290476Y-62176190D01*
X129338095Y-62604761D02*
X129195238Y-62652380D01*
X128957142Y-62652380D01*
X128861904Y-62604761D01*
X128814285Y-62557142D01*
X128766666Y-62461904D01*
X128766666Y-62366666D01*
X128814285Y-62271428D01*
X128861904Y-62223809D01*
X128957142Y-62176190D01*
X129147619Y-62128571D01*
X129242857Y-62080952D01*
X129290476Y-62033333D01*
X129338095Y-61938095D01*
X129338095Y-61842857D01*
X129290476Y-61747619D01*
X129242857Y-61700000D01*
X129147619Y-61652380D01*
X128909523Y-61652380D01*
X128766666Y-61700000D01*
D13*
X144862142Y-53853571D02*
X144576428Y-53853571D01*
X144433571Y-53925000D01*
X144290714Y-54067857D01*
X144219285Y-54353571D01*
X144219285Y-54853571D01*
X144290714Y-55139285D01*
X144433571Y-55282142D01*
X144576428Y-55353571D01*
X144862142Y-55353571D01*
X145005000Y-55282142D01*
X145147857Y-55139285D01*
X145219285Y-54853571D01*
X145219285Y-54353571D01*
X145147857Y-54067857D01*
X145005000Y-53925000D01*
X144862142Y-53853571D01*
X143647857Y-55282142D02*
X143505000Y-55353571D01*
X143219285Y-55353571D01*
X143076428Y-55282142D01*
X143005000Y-55139285D01*
X143005000Y-55067857D01*
X143076428Y-54925000D01*
X143219285Y-54853571D01*
X143433571Y-54853571D01*
X143576428Y-54782142D01*
X143647857Y-54639285D01*
X143647857Y-54567857D01*
X143576428Y-54425000D01*
X143433571Y-54353571D01*
X143219285Y-54353571D01*
X143076428Y-54425000D01*
X141719285Y-55282142D02*
X141862142Y-55353571D01*
X142147857Y-55353571D01*
X142290714Y-55282142D01*
X142362142Y-55210714D01*
X142433571Y-55067857D01*
X142433571Y-54639285D01*
X142362142Y-54496428D01*
X142290714Y-54425000D01*
X142147857Y-54353571D01*
X141862142Y-54353571D01*
X141719285Y-54425000D01*
X140433571Y-55353571D02*
X140433571Y-54567857D01*
X140505000Y-54425000D01*
X140647857Y-54353571D01*
X140933571Y-54353571D01*
X141076428Y-54425000D01*
X140433571Y-55282142D02*
X140576428Y-55353571D01*
X140933571Y-55353571D01*
X141076428Y-55282142D01*
X141147857Y-55139285D01*
X141147857Y-54996428D01*
X141076428Y-54853571D01*
X140933571Y-54782142D01*
X140576428Y-54782142D01*
X140433571Y-54710714D01*
X139719285Y-55353571D02*
X139719285Y-54353571D01*
X139719285Y-54639285D02*
X139647857Y-54496428D01*
X139576428Y-54425000D01*
X139433571Y-54353571D01*
X139290714Y-54353571D01*
X137790714Y-54353571D02*
X137433571Y-55353571D01*
X137076428Y-54353571D01*
X136576428Y-53996428D02*
X136505000Y-53925000D01*
X136362142Y-53853571D01*
X136005000Y-53853571D01*
X135862142Y-53925000D01*
X135790714Y-53996428D01*
X135719285Y-54139285D01*
X135719285Y-54282142D01*
X135790714Y-54496428D01*
X136647857Y-55353571D01*
X135719285Y-55353571D01*
X145147857Y-60453571D02*
X145147857Y-58953571D01*
X144647857Y-60025000D01*
X144147857Y-58953571D01*
X144147857Y-60453571D01*
X143219285Y-60453571D02*
X143362142Y-60382142D01*
X143433571Y-60310714D01*
X143505000Y-60167857D01*
X143505000Y-59739285D01*
X143433571Y-59596428D01*
X143362142Y-59525000D01*
X143219285Y-59453571D01*
X143005000Y-59453571D01*
X142862142Y-59525000D01*
X142790714Y-59596428D01*
X142719285Y-59739285D01*
X142719285Y-60167857D01*
X142790714Y-60310714D01*
X142862142Y-60382142D01*
X143005000Y-60453571D01*
X143219285Y-60453571D01*
X141433571Y-59453571D02*
X141433571Y-60453571D01*
X142076428Y-59453571D02*
X142076428Y-60239285D01*
X142005000Y-60382142D01*
X141862142Y-60453571D01*
X141647857Y-60453571D01*
X141505000Y-60382142D01*
X141433571Y-60310714D01*
X140719285Y-59453571D02*
X140719285Y-60453571D01*
X140719285Y-59596428D02*
X140647857Y-59525000D01*
X140505000Y-59453571D01*
X140290714Y-59453571D01*
X140147857Y-59525000D01*
X140076428Y-59667857D01*
X140076428Y-60453571D01*
X139576428Y-59453571D02*
X139005000Y-59453571D01*
X139362142Y-58953571D02*
X139362142Y-60239285D01*
X139290714Y-60382142D01*
X139147857Y-60453571D01*
X139005000Y-60453571D01*
X138505000Y-59453571D02*
X138505000Y-60739285D01*
X138576428Y-60882142D01*
X138719285Y-60953571D01*
X138790714Y-60953571D01*
X138505000Y-58953571D02*
X138576428Y-59025000D01*
X138505000Y-59096428D01*
X138433571Y-59025000D01*
X138505000Y-58953571D01*
X138505000Y-59096428D01*
X137576428Y-60453571D02*
X137719285Y-60382142D01*
X137790714Y-60310714D01*
X137862142Y-60167857D01*
X137862142Y-59739285D01*
X137790714Y-59596428D01*
X137719285Y-59525000D01*
X137576428Y-59453571D01*
X137362142Y-59453571D01*
X137219285Y-59525000D01*
X137147857Y-59596428D01*
X137076428Y-59739285D01*
X137076428Y-60167857D01*
X137147857Y-60310714D01*
X137219285Y-60382142D01*
X137362142Y-60453571D01*
X137576428Y-60453571D01*
X136576428Y-59453571D02*
X136219285Y-60453571D01*
X135862142Y-59453571D02*
X136219285Y-60453571D01*
X136362142Y-60810714D01*
X136433571Y-60882142D01*
X136576428Y-60953571D01*
X145147857Y-63003571D02*
X145147857Y-61503571D01*
X144647857Y-62575000D01*
X144147857Y-61503571D01*
X144147857Y-63003571D01*
X143219285Y-63003571D02*
X143362142Y-62932142D01*
X143433571Y-62860714D01*
X143505000Y-62717857D01*
X143505000Y-62289285D01*
X143433571Y-62146428D01*
X143362142Y-62075000D01*
X143219285Y-62003571D01*
X143005000Y-62003571D01*
X142862142Y-62075000D01*
X142790714Y-62146428D01*
X142719285Y-62289285D01*
X142719285Y-62717857D01*
X142790714Y-62860714D01*
X142862142Y-62932142D01*
X143005000Y-63003571D01*
X143219285Y-63003571D01*
X141433571Y-63003571D02*
X141433571Y-61503571D01*
X141433571Y-62932142D02*
X141576428Y-63003571D01*
X141862142Y-63003571D01*
X142005000Y-62932142D01*
X142076428Y-62860714D01*
X142147857Y-62717857D01*
X142147857Y-62289285D01*
X142076428Y-62146428D01*
X142005000Y-62075000D01*
X141862142Y-62003571D01*
X141576428Y-62003571D01*
X141433571Y-62075000D01*
X140076428Y-62003571D02*
X140076428Y-63003571D01*
X140719285Y-62003571D02*
X140719285Y-62789285D01*
X140647857Y-62932142D01*
X140505000Y-63003571D01*
X140290714Y-63003571D01*
X140147857Y-62932142D01*
X140076428Y-62860714D01*
X139147857Y-63003571D02*
X139290714Y-62932142D01*
X139362142Y-62789285D01*
X139362142Y-61503571D01*
X137933571Y-63003571D02*
X137933571Y-62217857D01*
X138005000Y-62075000D01*
X138147857Y-62003571D01*
X138433571Y-62003571D01*
X138576428Y-62075000D01*
X137933571Y-62932142D02*
X138076428Y-63003571D01*
X138433571Y-63003571D01*
X138576428Y-62932142D01*
X138647857Y-62789285D01*
X138647857Y-62646428D01*
X138576428Y-62503571D01*
X138433571Y-62432142D01*
X138076428Y-62432142D01*
X137933571Y-62360714D01*
X137219285Y-63003571D02*
X137219285Y-62003571D01*
X137219285Y-62289285D02*
X137147857Y-62146428D01*
X137076428Y-62075000D01*
X136933571Y-62003571D01*
X136790714Y-62003571D01*
D11*
X159700000Y-86400000D02*
X160400000Y-86400000D01*
X159700000Y-79800000D02*
X159700000Y-86400000D01*
D14*
X161166666Y-78452380D02*
X160547619Y-78452380D01*
X160880952Y-78833333D01*
X160738095Y-78833333D01*
X160642857Y-78880952D01*
X160595238Y-78928571D01*
X160547619Y-79023809D01*
X160547619Y-79261904D01*
X160595238Y-79357142D01*
X160642857Y-79404761D01*
X160738095Y-79452380D01*
X161023809Y-79452380D01*
X161119047Y-79404761D01*
X161166666Y-79357142D01*
X160261904Y-78452380D02*
X159928571Y-79452380D01*
X159595238Y-78452380D01*
X159357142Y-78452380D02*
X158738095Y-78452380D01*
X159071428Y-78833333D01*
X158928571Y-78833333D01*
X158833333Y-78880952D01*
X158785714Y-78928571D01*
X158738095Y-79023809D01*
X158738095Y-79261904D01*
X158785714Y-79357142D01*
X158833333Y-79404761D01*
X158928571Y-79452380D01*
X159214285Y-79452380D01*
X159309523Y-79404761D01*
X159357142Y-79357142D01*
X158357142Y-79166666D02*
X157880952Y-79166666D01*
X158452380Y-79452380D02*
X158119047Y-78452380D01*
X157785714Y-79452380D01*
D11*
X180600000Y-54300000D02*
X178300000Y-54300000D01*
X179500000Y-56300000D02*
X179500000Y-54300000D01*
D14*
X181461904Y-57271428D02*
X180700000Y-57271428D01*
X179700000Y-57652380D02*
X180271428Y-57652380D01*
X179985714Y-57652380D02*
X179985714Y-56652380D01*
X180080952Y-56795238D01*
X180176190Y-56890476D01*
X180271428Y-56938095D01*
X179319047Y-56747619D02*
X179271428Y-56700000D01*
X179176190Y-56652380D01*
X178938095Y-56652380D01*
X178842857Y-56700000D01*
X178795238Y-56747619D01*
X178747619Y-56842857D01*
X178747619Y-56938095D01*
X178795238Y-57080952D01*
X179366666Y-57652380D01*
X178747619Y-57652380D01*
X178461904Y-56652380D02*
X178128571Y-57652380D01*
X177795238Y-56652380D01*
D11*
X185000000Y-72500000D02*
X175500000Y-72500000D01*
X180500000Y-72500000D02*
X185000000Y-72500000D01*
X180500000Y-75000000D02*
X180500000Y-72500000D01*
D14*
X182261904Y-76571428D02*
X181500000Y-76571428D01*
X181880952Y-76952380D02*
X181880952Y-76190476D01*
X180500000Y-76952380D02*
X181071428Y-76952380D01*
X180785714Y-76952380D02*
X180785714Y-75952380D01*
X180880952Y-76095238D01*
X180976190Y-76190476D01*
X181071428Y-76238095D01*
X180119047Y-76047619D02*
X180071428Y-76000000D01*
X179976190Y-75952380D01*
X179738095Y-75952380D01*
X179642857Y-76000000D01*
X179595238Y-76047619D01*
X179547619Y-76142857D01*
X179547619Y-76238095D01*
X179595238Y-76380952D01*
X180166666Y-76952380D01*
X179547619Y-76952380D01*
X179261904Y-75952380D02*
X178928571Y-76952380D01*
X178595238Y-75952380D01*
D11*
X164600000Y-70300000D02*
X161600000Y-70300000D01*
X163000000Y-75000000D02*
X163000000Y-70300000D01*
D14*
X164738095Y-75952380D02*
X164119047Y-75952380D01*
X164452380Y-76333333D01*
X164309523Y-76333333D01*
X164214285Y-76380952D01*
X164166666Y-76428571D01*
X164119047Y-76523809D01*
X164119047Y-76761904D01*
X164166666Y-76857142D01*
X164214285Y-76904761D01*
X164309523Y-76952380D01*
X164595238Y-76952380D01*
X164690476Y-76904761D01*
X164738095Y-76857142D01*
X163833333Y-75952380D02*
X163500000Y-76952380D01*
X163166666Y-75952380D01*
X162928571Y-75952380D02*
X162309523Y-75952380D01*
X162642857Y-76333333D01*
X162500000Y-76333333D01*
X162404761Y-76380952D01*
X162357142Y-76428571D01*
X162309523Y-76523809D01*
X162309523Y-76761904D01*
X162357142Y-76857142D01*
X162404761Y-76904761D01*
X162500000Y-76952380D01*
X162785714Y-76952380D01*
X162880952Y-76904761D01*
X162928571Y-76857142D01*
X161880952Y-76952380D02*
X161880952Y-75952380D01*
X161642857Y-75952380D01*
X161500000Y-76000000D01*
X161404761Y-76095238D01*
X161357142Y-76190476D01*
X161309523Y-76380952D01*
X161309523Y-76523809D01*
X161357142Y-76714285D01*
X161404761Y-76809523D01*
X161500000Y-76904761D01*
X161642857Y-76952380D01*
X161880952Y-76952380D01*
D13*
X169707142Y-129035714D02*
X169778571Y-129107142D01*
X169992857Y-129178571D01*
X170135714Y-129178571D01*
X170350000Y-129107142D01*
X170492857Y-128964285D01*
X170564285Y-128821428D01*
X170635714Y-128535714D01*
X170635714Y-128321428D01*
X170564285Y-128035714D01*
X170492857Y-127892857D01*
X170350000Y-127750000D01*
X170135714Y-127678571D01*
X169992857Y-127678571D01*
X169778571Y-127750000D01*
X169707142Y-127821428D01*
X169064285Y-129178571D02*
X169064285Y-127678571D01*
X168421428Y-129178571D02*
X168421428Y-128392857D01*
X168492857Y-128250000D01*
X168635714Y-128178571D01*
X168850000Y-128178571D01*
X168992857Y-128250000D01*
X169064285Y-128321428D01*
X167064285Y-129178571D02*
X167064285Y-128392857D01*
X167135714Y-128250000D01*
X167278571Y-128178571D01*
X167564285Y-128178571D01*
X167707142Y-128250000D01*
X167064285Y-129107142D02*
X167207142Y-129178571D01*
X167564285Y-129178571D01*
X167707142Y-129107142D01*
X167778571Y-128964285D01*
X167778571Y-128821428D01*
X167707142Y-128678571D01*
X167564285Y-128607142D01*
X167207142Y-128607142D01*
X167064285Y-128535714D01*
X166350000Y-128178571D02*
X166350000Y-129178571D01*
X166350000Y-128321428D02*
X166278571Y-128250000D01*
X166135714Y-128178571D01*
X165921428Y-128178571D01*
X165778571Y-128250000D01*
X165707142Y-128392857D01*
X165707142Y-129178571D01*
X164992857Y-128178571D02*
X164992857Y-129178571D01*
X164992857Y-128321428D02*
X164921428Y-128250000D01*
X164778571Y-128178571D01*
X164564285Y-128178571D01*
X164421428Y-128250000D01*
X164350000Y-128392857D01*
X164350000Y-129178571D01*
X163064285Y-129107142D02*
X163207142Y-129178571D01*
X163492857Y-129178571D01*
X163635714Y-129107142D01*
X163707142Y-128964285D01*
X163707142Y-128392857D01*
X163635714Y-128250000D01*
X163492857Y-128178571D01*
X163207142Y-128178571D01*
X163064285Y-128250000D01*
X162992857Y-128392857D01*
X162992857Y-128535714D01*
X163707142Y-128678571D01*
X162135714Y-129178571D02*
X162278571Y-129107142D01*
X162350000Y-128964285D01*
X162350000Y-127678571D01*
X159564285Y-129035714D02*
X159635714Y-129107142D01*
X159850000Y-129178571D01*
X159992857Y-129178571D01*
X160207142Y-129107142D01*
X160350000Y-128964285D01*
X160421428Y-128821428D01*
X160492857Y-128535714D01*
X160492857Y-128321428D01*
X160421428Y-128035714D01*
X160350000Y-127892857D01*
X160207142Y-127750000D01*
X159992857Y-127678571D01*
X159850000Y-127678571D01*
X159635714Y-127750000D01*
X159564285Y-127821428D01*
X188257142Y-157278571D02*
X188757142Y-156564285D01*
X189114285Y-157278571D02*
X189114285Y-155778571D01*
X188542857Y-155778571D01*
X188400000Y-155850000D01*
X188328571Y-155921428D01*
X188257142Y-156064285D01*
X188257142Y-156278571D01*
X188328571Y-156421428D01*
X188400000Y-156492857D01*
X188542857Y-156564285D01*
X189114285Y-156564285D01*
X187042857Y-157207142D02*
X187185714Y-157278571D01*
X187471428Y-157278571D01*
X187614285Y-157207142D01*
X187685714Y-157064285D01*
X187685714Y-156492857D01*
X187614285Y-156350000D01*
X187471428Y-156278571D01*
X187185714Y-156278571D01*
X187042857Y-156350000D01*
X186971428Y-156492857D01*
X186971428Y-156635714D01*
X187685714Y-156778571D01*
X186400000Y-157207142D02*
X186257142Y-157278571D01*
X185971428Y-157278571D01*
X185828571Y-157207142D01*
X185757142Y-157064285D01*
X185757142Y-156992857D01*
X185828571Y-156850000D01*
X185971428Y-156778571D01*
X186185714Y-156778571D01*
X186328571Y-156707142D01*
X186400000Y-156564285D01*
X186400000Y-156492857D01*
X186328571Y-156350000D01*
X186185714Y-156278571D01*
X185971428Y-156278571D01*
X185828571Y-156350000D01*
X184542857Y-157207142D02*
X184685714Y-157278571D01*
X184971428Y-157278571D01*
X185114285Y-157207142D01*
X185185714Y-157064285D01*
X185185714Y-156492857D01*
X185114285Y-156350000D01*
X184971428Y-156278571D01*
X184685714Y-156278571D01*
X184542857Y-156350000D01*
X184471428Y-156492857D01*
X184471428Y-156635714D01*
X185185714Y-156778571D01*
X184042857Y-156278571D02*
X183471428Y-156278571D01*
X183828571Y-155778571D02*
X183828571Y-157064285D01*
X183757142Y-157207142D01*
X183614285Y-157278571D01*
X183471428Y-157278571D01*
X139600000Y-129035714D02*
X139671428Y-129107142D01*
X139885714Y-129178571D01*
X140028571Y-129178571D01*
X140242857Y-129107142D01*
X140385714Y-128964285D01*
X140457142Y-128821428D01*
X140528571Y-128535714D01*
X140528571Y-128321428D01*
X140457142Y-128035714D01*
X140385714Y-127892857D01*
X140242857Y-127750000D01*
X140028571Y-127678571D01*
X139885714Y-127678571D01*
X139671428Y-127750000D01*
X139600000Y-127821428D01*
X138957142Y-129178571D02*
X138957142Y-127678571D01*
X138314285Y-129178571D02*
X138314285Y-128392857D01*
X138385714Y-128250000D01*
X138528571Y-128178571D01*
X138742857Y-128178571D01*
X138885714Y-128250000D01*
X138957142Y-128321428D01*
X136957142Y-129178571D02*
X136957142Y-128392857D01*
X137028571Y-128250000D01*
X137171428Y-128178571D01*
X137457142Y-128178571D01*
X137600000Y-128250000D01*
X136957142Y-129107142D02*
X137100000Y-129178571D01*
X137457142Y-129178571D01*
X137600000Y-129107142D01*
X137671428Y-128964285D01*
X137671428Y-128821428D01*
X137600000Y-128678571D01*
X137457142Y-128607142D01*
X137100000Y-128607142D01*
X136957142Y-128535714D01*
X136242857Y-128178571D02*
X136242857Y-129178571D01*
X136242857Y-128321428D02*
X136171428Y-128250000D01*
X136028571Y-128178571D01*
X135814285Y-128178571D01*
X135671428Y-128250000D01*
X135600000Y-128392857D01*
X135600000Y-129178571D01*
X134885714Y-128178571D02*
X134885714Y-129178571D01*
X134885714Y-128321428D02*
X134814285Y-128250000D01*
X134671428Y-128178571D01*
X134457142Y-128178571D01*
X134314285Y-128250000D01*
X134242857Y-128392857D01*
X134242857Y-129178571D01*
X132957142Y-129107142D02*
X133100000Y-129178571D01*
X133385714Y-129178571D01*
X133528571Y-129107142D01*
X133600000Y-128964285D01*
X133600000Y-128392857D01*
X133528571Y-128250000D01*
X133385714Y-128178571D01*
X133100000Y-128178571D01*
X132957142Y-128250000D01*
X132885714Y-128392857D01*
X132885714Y-128535714D01*
X133600000Y-128678571D01*
X132028571Y-129178571D02*
X132171428Y-129107142D01*
X132242857Y-128964285D01*
X132242857Y-127678571D01*
X130385714Y-128750000D02*
X129671428Y-128750000D01*
X130528571Y-129178571D02*
X130028571Y-127678571D01*
X129528571Y-129178571D01*
X188064285Y-129278571D02*
X188064285Y-127778571D01*
X187564285Y-128850000D01*
X187064285Y-127778571D01*
X187064285Y-129278571D01*
X186350000Y-129278571D02*
X186350000Y-127778571D01*
X185635714Y-129278571D02*
X185635714Y-127778571D01*
X185278571Y-127778571D01*
X185064285Y-127850000D01*
X184921428Y-127992857D01*
X184850000Y-128135714D01*
X184778571Y-128421428D01*
X184778571Y-128635714D01*
X184850000Y-128921428D01*
X184921428Y-129064285D01*
X185064285Y-129207142D01*
X185278571Y-129278571D01*
X185635714Y-129278571D01*
X184135714Y-129278571D02*
X184135714Y-127778571D01*
X154707142Y-129035714D02*
X154778571Y-129107142D01*
X154992857Y-129178571D01*
X155135714Y-129178571D01*
X155350000Y-129107142D01*
X155492857Y-128964285D01*
X155564285Y-128821428D01*
X155635714Y-128535714D01*
X155635714Y-128321428D01*
X155564285Y-128035714D01*
X155492857Y-127892857D01*
X155350000Y-127750000D01*
X155135714Y-127678571D01*
X154992857Y-127678571D01*
X154778571Y-127750000D01*
X154707142Y-127821428D01*
X154064285Y-129178571D02*
X154064285Y-127678571D01*
X153421428Y-129178571D02*
X153421428Y-128392857D01*
X153492857Y-128250000D01*
X153635714Y-128178571D01*
X153850000Y-128178571D01*
X153992857Y-128250000D01*
X154064285Y-128321428D01*
X152064285Y-129178571D02*
X152064285Y-128392857D01*
X152135714Y-128250000D01*
X152278571Y-128178571D01*
X152564285Y-128178571D01*
X152707142Y-128250000D01*
X152064285Y-129107142D02*
X152207142Y-129178571D01*
X152564285Y-129178571D01*
X152707142Y-129107142D01*
X152778571Y-128964285D01*
X152778571Y-128821428D01*
X152707142Y-128678571D01*
X152564285Y-128607142D01*
X152207142Y-128607142D01*
X152064285Y-128535714D01*
X151350000Y-128178571D02*
X151350000Y-129178571D01*
X151350000Y-128321428D02*
X151278571Y-128250000D01*
X151135714Y-128178571D01*
X150921428Y-128178571D01*
X150778571Y-128250000D01*
X150707142Y-128392857D01*
X150707142Y-129178571D01*
X149992857Y-128178571D02*
X149992857Y-129178571D01*
X149992857Y-128321428D02*
X149921428Y-128250000D01*
X149778571Y-128178571D01*
X149564285Y-128178571D01*
X149421428Y-128250000D01*
X149350000Y-128392857D01*
X149350000Y-129178571D01*
X148064285Y-129107142D02*
X148207142Y-129178571D01*
X148492857Y-129178571D01*
X148635714Y-129107142D01*
X148707142Y-128964285D01*
X148707142Y-128392857D01*
X148635714Y-128250000D01*
X148492857Y-128178571D01*
X148207142Y-128178571D01*
X148064285Y-128250000D01*
X147992857Y-128392857D01*
X147992857Y-128535714D01*
X148707142Y-128678571D01*
X147135714Y-129178571D02*
X147278571Y-129107142D01*
X147350000Y-128964285D01*
X147350000Y-127678571D01*
X144921428Y-128392857D02*
X144707142Y-128464285D01*
X144635714Y-128535714D01*
X144564285Y-128678571D01*
X144564285Y-128892857D01*
X144635714Y-129035714D01*
X144707142Y-129107142D01*
X144850000Y-129178571D01*
X145421428Y-129178571D01*
X145421428Y-127678571D01*
X144921428Y-127678571D01*
X144778571Y-127750000D01*
X144707142Y-127821428D01*
X144635714Y-127964285D01*
X144635714Y-128107142D01*
X144707142Y-128250000D01*
X144778571Y-128321428D01*
X144921428Y-128392857D01*
X145421428Y-128392857D01*
D11*
X163580000Y-120500000D02*
X163580000Y-119300000D01*
X161820000Y-119300000D02*
X161820000Y-120500000D01*
D12*
X151530000Y-54100000D02*
X151530000Y-63040000D01*
X151530000Y-63040000D02*
X171830000Y-63040000D01*
X171830000Y-63040000D02*
X171830000Y-54100000D01*
X171830000Y-54100000D02*
X151530000Y-54100000D01*
X159455000Y-54100000D02*
X159455000Y-55400000D01*
X159455000Y-55400000D02*
X152730000Y-55400000D01*
X152730000Y-55400000D02*
X152730000Y-61740000D01*
X152730000Y-61740000D02*
X170630000Y-61740000D01*
X170630000Y-61740000D02*
X170630000Y-55400000D01*
X170630000Y-55400000D02*
X163905000Y-55400000D01*
X163905000Y-55400000D02*
X163905000Y-54100000D01*
X161430000Y-63040000D02*
X161430000Y-63240000D01*
X161430000Y-63240000D02*
X161930000Y-63240000D01*
X161930000Y-63240000D02*
X161930000Y-63040000D01*
X161430000Y-63140000D02*
X161930000Y-63140000D01*
X168910000Y-63040000D02*
X168910000Y-63240000D01*
X168910000Y-63240000D02*
X169410000Y-63240000D01*
X169410000Y-63240000D02*
X169410000Y-63040000D01*
X168910000Y-63140000D02*
X169410000Y-63140000D01*
X153950000Y-63040000D02*
X153950000Y-63240000D01*
X153950000Y-63240000D02*
X154450000Y-63240000D01*
X154450000Y-63240000D02*
X154450000Y-63040000D01*
X153950000Y-63140000D02*
X154450000Y-63140000D01*
D10*
G36*
X153300000Y-63500000D02*
G01*
X155300000Y-63500000D01*
X155300000Y-53600000D01*
X153300000Y-53600000D01*
X153300000Y-63500000D01*
G37*
X153300000Y-63500000D02*
X155300000Y-63500000D01*
X155300000Y-53600000D01*
X153300000Y-53600000D01*
X153300000Y-63500000D01*
D11*
X168100000Y-88120000D02*
X166900000Y-88120000D01*
X166900000Y-89880000D02*
X168100000Y-89880000D01*
X161110000Y-106560000D02*
X161110000Y-107510000D01*
X161110000Y-107510000D02*
X160160000Y-107510000D01*
X161110000Y-98240000D02*
X161110000Y-97290000D01*
X161110000Y-97290000D02*
X160160000Y-97290000D01*
X150890000Y-106560000D02*
X150890000Y-107510000D01*
X150890000Y-107510000D02*
X151840000Y-107510000D01*
X150890000Y-98240000D02*
X150890000Y-97290000D01*
X150890000Y-97290000D02*
X151840000Y-97290000D01*
X151840000Y-97290000D02*
X151840000Y-95950000D01*
X146500000Y-107550000D02*
X147500000Y-107550000D01*
X147500000Y-109250000D02*
X146500000Y-109250000D01*
X146000000Y-84750000D02*
X147000000Y-84750000D01*
X147000000Y-86450000D02*
X146000000Y-86450000D01*
X156500000Y-84550000D02*
X157500000Y-84550000D01*
X157500000Y-86250000D02*
X156500000Y-86250000D01*
X148500000Y-96250000D02*
X147500000Y-96250000D01*
X147500000Y-94550000D02*
X148500000Y-94550000D01*
X164150000Y-104400000D02*
X164150000Y-103400000D01*
X165850000Y-103400000D02*
X165850000Y-104400000D01*
X166500000Y-100250000D02*
X165500000Y-100250000D01*
X165500000Y-98550000D02*
X166500000Y-98550000D01*
X164100000Y-107550000D02*
X165100000Y-107550000D01*
X165100000Y-109250000D02*
X164100000Y-109250000D01*
X180100000Y-150500000D02*
X180100000Y-151500000D01*
X178400000Y-151500000D02*
X178400000Y-150500000D01*
X136500000Y-110850000D02*
X135500000Y-110850000D01*
X135500000Y-109150000D02*
X136500000Y-109150000D01*
X183500000Y-109150000D02*
X184500000Y-109150000D01*
X184500000Y-110850000D02*
X183500000Y-110850000D01*
X184270000Y-77170000D02*
X182720000Y-77170000D01*
X178930000Y-77170000D02*
X180480000Y-77170000D01*
X183510000Y-71830000D02*
X182720000Y-71830000D01*
X179690000Y-71830000D02*
X180480000Y-71830000D01*
X178930000Y-77170000D02*
X178930000Y-72590000D01*
X178930000Y-72590000D02*
X179690000Y-71830000D01*
X183510000Y-71830000D02*
X184270000Y-72590000D01*
X184270000Y-72590000D02*
X184270000Y-77170000D01*
X187090000Y-64920000D02*
X186320000Y-65690000D01*
X187090000Y-64920000D02*
X187090000Y-61110000D01*
X182510000Y-64920000D02*
X183280000Y-65690000D01*
X182510000Y-64920000D02*
X182510000Y-61110000D01*
X186320000Y-65690000D02*
X185920000Y-65690000D01*
X187090000Y-61110000D02*
X185920000Y-61110000D01*
X182510000Y-61110000D02*
X183680000Y-61110000D01*
X183280000Y-65690000D02*
X183680000Y-65690000D01*
X185520000Y-51710000D02*
X186290000Y-52480000D01*
X185520000Y-51710000D02*
X181710000Y-51710000D01*
X185520000Y-56290000D02*
X186290000Y-55520000D01*
X185520000Y-56290000D02*
X181710000Y-56290000D01*
X186290000Y-52480000D02*
X186290000Y-52880000D01*
X181710000Y-51710000D02*
X181710000Y-52880000D01*
X181710000Y-56290000D02*
X181710000Y-55120000D01*
X186290000Y-55520000D02*
X186290000Y-55120000D01*
X159910000Y-72670000D02*
X155330000Y-72670000D01*
X160670000Y-71910000D02*
X159910000Y-72670000D01*
X159910000Y-67330000D02*
X160670000Y-68090000D01*
X155330000Y-67330000D02*
X159910000Y-67330000D01*
X160670000Y-68090000D02*
X160670000Y-68880000D01*
X160670000Y-71910000D02*
X160670000Y-71120000D01*
X155330000Y-67330000D02*
X155330000Y-68880000D01*
X155330000Y-72670000D02*
X155330000Y-71120000D01*
X160980000Y-93590000D02*
X161380000Y-93590000D01*
X160210000Y-89010000D02*
X161380000Y-89010000D01*
X164790000Y-89010000D02*
X163620000Y-89010000D01*
X164020000Y-93590000D02*
X163620000Y-93590000D01*
X160210000Y-92820000D02*
X160210000Y-89010000D01*
X160210000Y-92820000D02*
X160980000Y-93590000D01*
X164790000Y-92820000D02*
X164790000Y-89010000D01*
X164790000Y-92820000D02*
X164020000Y-93590000D01*
X158150000Y-92900000D02*
X158150000Y-91900000D01*
X159850000Y-91900000D02*
X159850000Y-92900000D01*
X180650000Y-63000000D02*
X176750000Y-63000000D01*
X180650000Y-65000000D02*
X176750000Y-65000000D01*
X180650000Y-63000000D02*
X180650000Y-65000000D01*
X173750000Y-55000000D02*
X173750000Y-53000000D01*
X173750000Y-53000000D02*
X177650000Y-53000000D01*
X173750000Y-55000000D02*
X177650000Y-55000000D01*
D12*
X135670000Y-100970000D02*
X133130000Y-100970000D01*
X133130000Y-100970000D02*
X133130000Y-90810000D01*
X133130000Y-90810000D02*
X135670000Y-90810000D01*
X135670000Y-90810000D02*
X135670000Y-100970000D01*
D11*
X161980000Y-85500000D02*
X161980000Y-84300000D01*
X160220000Y-84300000D02*
X160220000Y-85500000D01*
X172680000Y-87450000D02*
X172680000Y-86250000D01*
X170920000Y-86250000D02*
X170920000Y-87450000D01*
X175730000Y-87450000D02*
X175730000Y-86250000D01*
X173970000Y-86250000D02*
X173970000Y-87450000D01*
X173720000Y-105400000D02*
X173720000Y-106600000D01*
X175480000Y-106600000D02*
X175480000Y-105400000D01*
X172980000Y-106600000D02*
X172980000Y-105400000D01*
X171220000Y-105400000D02*
X171220000Y-106600000D01*
X168200000Y-82220000D02*
X167000000Y-82220000D01*
X167000000Y-83980000D02*
X168200000Y-83980000D01*
X168100000Y-85220000D02*
X166900000Y-85220000D01*
X166900000Y-86980000D02*
X168100000Y-86980000D01*
X176720000Y-86250000D02*
X176720000Y-87450000D01*
X178480000Y-87450000D02*
X178480000Y-86250000D01*
X170430000Y-106600000D02*
X170430000Y-105400000D01*
X168670000Y-105400000D02*
X168670000Y-106600000D01*
X141880000Y-142600000D02*
X141880000Y-141400000D01*
X140120000Y-141400000D02*
X140120000Y-142600000D01*
X143120000Y-141400000D02*
X143120000Y-142600000D01*
X144880000Y-142600000D02*
X144880000Y-141400000D01*
X172880000Y-142600000D02*
X172880000Y-141400000D01*
X171120000Y-141400000D02*
X171120000Y-142600000D01*
D12*
X178730000Y-97036000D02*
X178730000Y-92210000D01*
X178730000Y-92210000D02*
X168570000Y-92210000D01*
X168570000Y-92210000D02*
X168570000Y-97036000D01*
X168570000Y-97036000D02*
X178730000Y-97036000D01*
X168570000Y-95258000D02*
X169205000Y-95258000D01*
X169205000Y-95258000D02*
X169205000Y-93988000D01*
X169205000Y-93988000D02*
X168570000Y-93988000D01*
X158445000Y-122762000D02*
X159080000Y-122762000D01*
X158445000Y-121492000D02*
X158445000Y-122762000D01*
X159080000Y-121492000D02*
X158445000Y-121492000D01*
X159080000Y-119714000D02*
X148920000Y-119714000D01*
X159080000Y-124540000D02*
X159080000Y-119714000D01*
X148920000Y-124540000D02*
X159080000Y-124540000D01*
X148920000Y-119714000D02*
X148920000Y-124540000D01*
D11*
X172370000Y-73180000D02*
X173470000Y-73180000D01*
X172370000Y-73450000D02*
X172370000Y-73180000D01*
X170870000Y-73450000D02*
X172370000Y-73450000D01*
X172370000Y-66820000D02*
X175200000Y-66820000D01*
X172370000Y-66550000D02*
X172370000Y-66820000D01*
X170870000Y-66550000D02*
X172370000Y-66550000D01*
X145100000Y-86850000D02*
X157700000Y-86850000D01*
X157700000Y-86850000D02*
X157700000Y-91950000D01*
X157700000Y-91950000D02*
X145100000Y-91950000D01*
D12*
X164852380Y-119257142D02*
X164376190Y-118923809D01*
X164852380Y-118685714D02*
X163852380Y-118685714D01*
X163852380Y-119066666D01*
X163900000Y-119161904D01*
X163947619Y-119209523D01*
X164042857Y-119257142D01*
X164185714Y-119257142D01*
X164280952Y-119209523D01*
X164328571Y-119161904D01*
X164376190Y-119066666D01*
X164376190Y-118685714D01*
X164852380Y-120209523D02*
X164852380Y-119638095D01*
X164852380Y-119923809D02*
X163852380Y-119923809D01*
X163995238Y-119828571D01*
X164090476Y-119733333D01*
X164138095Y-119638095D01*
X163852380Y-120542857D02*
X163852380Y-121161904D01*
X164233333Y-120828571D01*
X164233333Y-120971428D01*
X164280952Y-121066666D01*
X164328571Y-121114285D01*
X164423809Y-121161904D01*
X164661904Y-121161904D01*
X164757142Y-121114285D01*
X164804761Y-121066666D01*
X164852380Y-120971428D01*
X164852380Y-120685714D01*
X164804761Y-120590476D01*
X164757142Y-120542857D01*
X155361904Y-64971428D02*
X154600000Y-64971428D01*
X153600000Y-65352380D02*
X154171428Y-65352380D01*
X153885714Y-65352380D02*
X153885714Y-64352380D01*
X153980952Y-64495238D01*
X154076190Y-64590476D01*
X154171428Y-64638095D01*
X153219047Y-64447619D02*
X153171428Y-64400000D01*
X153076190Y-64352380D01*
X152838095Y-64352380D01*
X152742857Y-64400000D01*
X152695238Y-64447619D01*
X152647619Y-64542857D01*
X152647619Y-64638095D01*
X152695238Y-64780952D01*
X153266666Y-65352380D01*
X152647619Y-65352380D01*
X152361904Y-64352380D02*
X152028571Y-65352380D01*
X151695238Y-64352380D01*
X167666666Y-91152380D02*
X168000000Y-90676190D01*
X168238095Y-91152380D02*
X168238095Y-90152380D01*
X167857142Y-90152380D01*
X167761904Y-90200000D01*
X167714285Y-90247619D01*
X167666666Y-90342857D01*
X167666666Y-90485714D01*
X167714285Y-90580952D01*
X167761904Y-90628571D01*
X167857142Y-90676190D01*
X168238095Y-90676190D01*
X167190476Y-91152380D02*
X167000000Y-91152380D01*
X166904761Y-91104761D01*
X166857142Y-91057142D01*
X166761904Y-90914285D01*
X166714285Y-90723809D01*
X166714285Y-90342857D01*
X166761904Y-90247619D01*
X166809523Y-90200000D01*
X166904761Y-90152380D01*
X167095238Y-90152380D01*
X167190476Y-90200000D01*
X167238095Y-90247619D01*
X167285714Y-90342857D01*
X167285714Y-90580952D01*
X167238095Y-90676190D01*
X167190476Y-90723809D01*
X167095238Y-90771428D01*
X166904761Y-90771428D01*
X166809523Y-90723809D01*
X166761904Y-90676190D01*
X166714285Y-90580952D01*
X167595238Y-92752380D02*
X168166666Y-92752380D01*
X167880952Y-92752380D02*
X167880952Y-91752380D01*
X167976190Y-91895238D01*
X168071428Y-91990476D01*
X168166666Y-92038095D01*
X166690476Y-91752380D02*
X167166666Y-91752380D01*
X167214285Y-92228571D01*
X167166666Y-92180952D01*
X167071428Y-92133333D01*
X166833333Y-92133333D01*
X166738095Y-92180952D01*
X166690476Y-92228571D01*
X166642857Y-92323809D01*
X166642857Y-92561904D01*
X166690476Y-92657142D01*
X166738095Y-92704761D01*
X166833333Y-92752380D01*
X167071428Y-92752380D01*
X167166666Y-92704761D01*
X167214285Y-92657142D01*
X166214285Y-92752380D02*
X166214285Y-91752380D01*
X166119047Y-92371428D02*
X165833333Y-92752380D01*
X165833333Y-92085714D02*
X166214285Y-92466666D01*
X148052380Y-101638095D02*
X148861904Y-101638095D01*
X148957142Y-101685714D01*
X149004761Y-101733333D01*
X149052380Y-101828571D01*
X149052380Y-102019047D01*
X149004761Y-102114285D01*
X148957142Y-102161904D01*
X148861904Y-102209523D01*
X148052380Y-102209523D01*
X149052380Y-103209523D02*
X149052380Y-102638095D01*
X149052380Y-102923809D02*
X148052380Y-102923809D01*
X148195238Y-102828571D01*
X148290476Y-102733333D01*
X148338095Y-102638095D01*
X147166666Y-107007142D02*
X147214285Y-107054761D01*
X147357142Y-107102380D01*
X147452380Y-107102380D01*
X147595238Y-107054761D01*
X147690476Y-106959523D01*
X147738095Y-106864285D01*
X147785714Y-106673809D01*
X147785714Y-106530952D01*
X147738095Y-106340476D01*
X147690476Y-106245238D01*
X147595238Y-106150000D01*
X147452380Y-106102380D01*
X147357142Y-106102380D01*
X147214285Y-106150000D01*
X147166666Y-106197619D01*
X146214285Y-107102380D02*
X146785714Y-107102380D01*
X146500000Y-107102380D02*
X146500000Y-106102380D01*
X146595238Y-106245238D01*
X146690476Y-106340476D01*
X146785714Y-106388095D01*
X148547619Y-110602380D02*
X149119047Y-110602380D01*
X148833333Y-110602380D02*
X148833333Y-109602380D01*
X148928571Y-109745238D01*
X149023809Y-109840476D01*
X149119047Y-109888095D01*
X147928571Y-109602380D02*
X147833333Y-109602380D01*
X147738095Y-109650000D01*
X147690476Y-109697619D01*
X147642857Y-109792857D01*
X147595238Y-109983333D01*
X147595238Y-110221428D01*
X147642857Y-110411904D01*
X147690476Y-110507142D01*
X147738095Y-110554761D01*
X147833333Y-110602380D01*
X147928571Y-110602380D01*
X148023809Y-110554761D01*
X148071428Y-110507142D01*
X148119047Y-110411904D01*
X148166666Y-110221428D01*
X148166666Y-109983333D01*
X148119047Y-109792857D01*
X148071428Y-109697619D01*
X148023809Y-109650000D01*
X147928571Y-109602380D01*
X146976190Y-109602380D02*
X146880952Y-109602380D01*
X146785714Y-109650000D01*
X146738095Y-109697619D01*
X146690476Y-109792857D01*
X146642857Y-109983333D01*
X146642857Y-110221428D01*
X146690476Y-110411904D01*
X146738095Y-110507142D01*
X146785714Y-110554761D01*
X146880952Y-110602380D01*
X146976190Y-110602380D01*
X147071428Y-110554761D01*
X147119047Y-110507142D01*
X147166666Y-110411904D01*
X147214285Y-110221428D01*
X147214285Y-109983333D01*
X147166666Y-109792857D01*
X147119047Y-109697619D01*
X147071428Y-109650000D01*
X146976190Y-109602380D01*
X146214285Y-109935714D02*
X146214285Y-110602380D01*
X146214285Y-110030952D02*
X146166666Y-109983333D01*
X146071428Y-109935714D01*
X145928571Y-109935714D01*
X145833333Y-109983333D01*
X145785714Y-110078571D01*
X145785714Y-110602380D01*
X144976190Y-110078571D02*
X145309523Y-110078571D01*
X145309523Y-110602380D02*
X145309523Y-109602380D01*
X144833333Y-109602380D01*
X146716666Y-82557142D02*
X146764285Y-82604761D01*
X146907142Y-82652380D01*
X147002380Y-82652380D01*
X147145238Y-82604761D01*
X147240476Y-82509523D01*
X147288095Y-82414285D01*
X147335714Y-82223809D01*
X147335714Y-82080952D01*
X147288095Y-81890476D01*
X147240476Y-81795238D01*
X147145238Y-81700000D01*
X147002380Y-81652380D01*
X146907142Y-81652380D01*
X146764285Y-81700000D01*
X146716666Y-81747619D01*
X146335714Y-81747619D02*
X146288095Y-81700000D01*
X146192857Y-81652380D01*
X145954761Y-81652380D01*
X145859523Y-81700000D01*
X145811904Y-81747619D01*
X145764285Y-81842857D01*
X145764285Y-81938095D01*
X145811904Y-82080952D01*
X146383333Y-82652380D01*
X145764285Y-82652380D01*
X147446428Y-84177380D02*
X148017857Y-84177380D01*
X147732142Y-84177380D02*
X147732142Y-83177380D01*
X147827380Y-83320238D01*
X147922619Y-83415476D01*
X148017857Y-83463095D01*
X146875000Y-83605952D02*
X146970238Y-83558333D01*
X147017857Y-83510714D01*
X147065476Y-83415476D01*
X147065476Y-83367857D01*
X147017857Y-83272619D01*
X146970238Y-83225000D01*
X146875000Y-83177380D01*
X146684523Y-83177380D01*
X146589285Y-83225000D01*
X146541666Y-83272619D01*
X146494047Y-83367857D01*
X146494047Y-83415476D01*
X146541666Y-83510714D01*
X146589285Y-83558333D01*
X146684523Y-83605952D01*
X146875000Y-83605952D01*
X146970238Y-83653571D01*
X147017857Y-83701190D01*
X147065476Y-83796428D01*
X147065476Y-83986904D01*
X147017857Y-84082142D01*
X146970238Y-84129761D01*
X146875000Y-84177380D01*
X146684523Y-84177380D01*
X146589285Y-84129761D01*
X146541666Y-84082142D01*
X146494047Y-83986904D01*
X146494047Y-83796428D01*
X146541666Y-83701190D01*
X146589285Y-83653571D01*
X146684523Y-83605952D01*
X146065476Y-83510714D02*
X146065476Y-84510714D01*
X146065476Y-83558333D02*
X145970238Y-83510714D01*
X145779761Y-83510714D01*
X145684523Y-83558333D01*
X145636904Y-83605952D01*
X145589285Y-83701190D01*
X145589285Y-83986904D01*
X145636904Y-84082142D01*
X145684523Y-84129761D01*
X145779761Y-84177380D01*
X145970238Y-84177380D01*
X146065476Y-84129761D01*
X144827380Y-83653571D02*
X145160714Y-83653571D01*
X145160714Y-84177380D02*
X145160714Y-83177380D01*
X144684523Y-83177380D01*
X157316666Y-82482142D02*
X157364285Y-82529761D01*
X157507142Y-82577380D01*
X157602380Y-82577380D01*
X157745238Y-82529761D01*
X157840476Y-82434523D01*
X157888095Y-82339285D01*
X157935714Y-82148809D01*
X157935714Y-82005952D01*
X157888095Y-81815476D01*
X157840476Y-81720238D01*
X157745238Y-81625000D01*
X157602380Y-81577380D01*
X157507142Y-81577380D01*
X157364285Y-81625000D01*
X157316666Y-81672619D01*
X156983333Y-81577380D02*
X156364285Y-81577380D01*
X156697619Y-81958333D01*
X156554761Y-81958333D01*
X156459523Y-82005952D01*
X156411904Y-82053571D01*
X156364285Y-82148809D01*
X156364285Y-82386904D01*
X156411904Y-82482142D01*
X156459523Y-82529761D01*
X156554761Y-82577380D01*
X156840476Y-82577380D01*
X156935714Y-82529761D01*
X156983333Y-82482142D01*
X158071428Y-84102380D02*
X158642857Y-84102380D01*
X158357142Y-84102380D02*
X158357142Y-83102380D01*
X158452380Y-83245238D01*
X158547619Y-83340476D01*
X158642857Y-83388095D01*
X157500000Y-83530952D02*
X157595238Y-83483333D01*
X157642857Y-83435714D01*
X157690476Y-83340476D01*
X157690476Y-83292857D01*
X157642857Y-83197619D01*
X157595238Y-83150000D01*
X157500000Y-83102380D01*
X157309523Y-83102380D01*
X157214285Y-83150000D01*
X157166666Y-83197619D01*
X157119047Y-83292857D01*
X157119047Y-83340476D01*
X157166666Y-83435714D01*
X157214285Y-83483333D01*
X157309523Y-83530952D01*
X157500000Y-83530952D01*
X157595238Y-83578571D01*
X157642857Y-83626190D01*
X157690476Y-83721428D01*
X157690476Y-83911904D01*
X157642857Y-84007142D01*
X157595238Y-84054761D01*
X157500000Y-84102380D01*
X157309523Y-84102380D01*
X157214285Y-84054761D01*
X157166666Y-84007142D01*
X157119047Y-83911904D01*
X157119047Y-83721428D01*
X157166666Y-83626190D01*
X157214285Y-83578571D01*
X157309523Y-83530952D01*
X156690476Y-83435714D02*
X156690476Y-84435714D01*
X156690476Y-83483333D02*
X156595238Y-83435714D01*
X156404761Y-83435714D01*
X156309523Y-83483333D01*
X156261904Y-83530952D01*
X156214285Y-83626190D01*
X156214285Y-83911904D01*
X156261904Y-84007142D01*
X156309523Y-84054761D01*
X156404761Y-84102380D01*
X156595238Y-84102380D01*
X156690476Y-84054761D01*
X155452380Y-83578571D02*
X155785714Y-83578571D01*
X155785714Y-84102380D02*
X155785714Y-83102380D01*
X155309523Y-83102380D01*
X148166666Y-94007142D02*
X148214285Y-94054761D01*
X148357142Y-94102380D01*
X148452380Y-94102380D01*
X148595238Y-94054761D01*
X148690476Y-93959523D01*
X148738095Y-93864285D01*
X148785714Y-93673809D01*
X148785714Y-93530952D01*
X148738095Y-93340476D01*
X148690476Y-93245238D01*
X148595238Y-93150000D01*
X148452380Y-93102380D01*
X148357142Y-93102380D01*
X148214285Y-93150000D01*
X148166666Y-93197619D01*
X147309523Y-93435714D02*
X147309523Y-94102380D01*
X147547619Y-93054761D02*
X147785714Y-93769047D01*
X147166666Y-93769047D01*
X149547619Y-97602380D02*
X150119047Y-97602380D01*
X149833333Y-97602380D02*
X149833333Y-96602380D01*
X149928571Y-96745238D01*
X150023809Y-96840476D01*
X150119047Y-96888095D01*
X148928571Y-96602380D02*
X148833333Y-96602380D01*
X148738095Y-96650000D01*
X148690476Y-96697619D01*
X148642857Y-96792857D01*
X148595238Y-96983333D01*
X148595238Y-97221428D01*
X148642857Y-97411904D01*
X148690476Y-97507142D01*
X148738095Y-97554761D01*
X148833333Y-97602380D01*
X148928571Y-97602380D01*
X149023809Y-97554761D01*
X149071428Y-97507142D01*
X149119047Y-97411904D01*
X149166666Y-97221428D01*
X149166666Y-96983333D01*
X149119047Y-96792857D01*
X149071428Y-96697619D01*
X149023809Y-96650000D01*
X148928571Y-96602380D01*
X147976190Y-96602380D02*
X147880952Y-96602380D01*
X147785714Y-96650000D01*
X147738095Y-96697619D01*
X147690476Y-96792857D01*
X147642857Y-96983333D01*
X147642857Y-97221428D01*
X147690476Y-97411904D01*
X147738095Y-97507142D01*
X147785714Y-97554761D01*
X147880952Y-97602380D01*
X147976190Y-97602380D01*
X148071428Y-97554761D01*
X148119047Y-97507142D01*
X148166666Y-97411904D01*
X148214285Y-97221428D01*
X148214285Y-96983333D01*
X148166666Y-96792857D01*
X148119047Y-96697619D01*
X148071428Y-96650000D01*
X147976190Y-96602380D01*
X147214285Y-96935714D02*
X147214285Y-97602380D01*
X147214285Y-97030952D02*
X147166666Y-96983333D01*
X147071428Y-96935714D01*
X146928571Y-96935714D01*
X146833333Y-96983333D01*
X146785714Y-97078571D01*
X146785714Y-97602380D01*
X145976190Y-97078571D02*
X146309523Y-97078571D01*
X146309523Y-97602380D02*
X146309523Y-96602380D01*
X145833333Y-96602380D01*
X163807142Y-103833333D02*
X163854761Y-103785714D01*
X163902380Y-103642857D01*
X163902380Y-103547619D01*
X163854761Y-103404761D01*
X163759523Y-103309523D01*
X163664285Y-103261904D01*
X163473809Y-103214285D01*
X163330952Y-103214285D01*
X163140476Y-103261904D01*
X163045238Y-103309523D01*
X162950000Y-103404761D01*
X162902380Y-103547619D01*
X162902380Y-103642857D01*
X162950000Y-103785714D01*
X162997619Y-103833333D01*
X162902380Y-104738095D02*
X162902380Y-104261904D01*
X163378571Y-104214285D01*
X163330952Y-104261904D01*
X163283333Y-104357142D01*
X163283333Y-104595238D01*
X163330952Y-104690476D01*
X163378571Y-104738095D01*
X163473809Y-104785714D01*
X163711904Y-104785714D01*
X163807142Y-104738095D01*
X163854761Y-104690476D01*
X163902380Y-104595238D01*
X163902380Y-104357142D01*
X163854761Y-104261904D01*
X163807142Y-104214285D01*
X166347619Y-102669047D02*
X166300000Y-102716666D01*
X166252380Y-102811904D01*
X166252380Y-103050000D01*
X166300000Y-103145238D01*
X166347619Y-103192857D01*
X166442857Y-103240476D01*
X166538095Y-103240476D01*
X166680952Y-103192857D01*
X167252380Y-102621428D01*
X167252380Y-103240476D01*
X167157142Y-103669047D02*
X167204761Y-103716666D01*
X167252380Y-103669047D01*
X167204761Y-103621428D01*
X167157142Y-103669047D01*
X167252380Y-103669047D01*
X166347619Y-104097619D02*
X166300000Y-104145238D01*
X166252380Y-104240476D01*
X166252380Y-104478571D01*
X166300000Y-104573809D01*
X166347619Y-104621428D01*
X166442857Y-104669047D01*
X166538095Y-104669047D01*
X166680952Y-104621428D01*
X167252380Y-104050000D01*
X167252380Y-104669047D01*
X166585714Y-105526190D02*
X167252380Y-105526190D01*
X166585714Y-105097619D02*
X167109523Y-105097619D01*
X167204761Y-105145238D01*
X167252380Y-105240476D01*
X167252380Y-105383333D01*
X167204761Y-105478571D01*
X167157142Y-105526190D01*
X166728571Y-106335714D02*
X166728571Y-106002380D01*
X167252380Y-106002380D02*
X166252380Y-106002380D01*
X166252380Y-106478571D01*
X166341666Y-98057142D02*
X166389285Y-98104761D01*
X166532142Y-98152380D01*
X166627380Y-98152380D01*
X166770238Y-98104761D01*
X166865476Y-98009523D01*
X166913095Y-97914285D01*
X166960714Y-97723809D01*
X166960714Y-97580952D01*
X166913095Y-97390476D01*
X166865476Y-97295238D01*
X166770238Y-97200000D01*
X166627380Y-97152380D01*
X166532142Y-97152380D01*
X166389285Y-97200000D01*
X166341666Y-97247619D01*
X165484523Y-97152380D02*
X165675000Y-97152380D01*
X165770238Y-97200000D01*
X165817857Y-97247619D01*
X165913095Y-97390476D01*
X165960714Y-97580952D01*
X165960714Y-97961904D01*
X165913095Y-98057142D01*
X165865476Y-98104761D01*
X165770238Y-98152380D01*
X165579761Y-98152380D01*
X165484523Y-98104761D01*
X165436904Y-98057142D01*
X165389285Y-97961904D01*
X165389285Y-97723809D01*
X165436904Y-97628571D01*
X165484523Y-97580952D01*
X165579761Y-97533333D01*
X165770238Y-97533333D01*
X165865476Y-97580952D01*
X165913095Y-97628571D01*
X165960714Y-97723809D01*
X167422619Y-101402380D02*
X167994047Y-101402380D01*
X167708333Y-101402380D02*
X167708333Y-100402380D01*
X167803571Y-100545238D01*
X167898809Y-100640476D01*
X167994047Y-100688095D01*
X166803571Y-100402380D02*
X166708333Y-100402380D01*
X166613095Y-100450000D01*
X166565476Y-100497619D01*
X166517857Y-100592857D01*
X166470238Y-100783333D01*
X166470238Y-101021428D01*
X166517857Y-101211904D01*
X166565476Y-101307142D01*
X166613095Y-101354761D01*
X166708333Y-101402380D01*
X166803571Y-101402380D01*
X166898809Y-101354761D01*
X166946428Y-101307142D01*
X166994047Y-101211904D01*
X167041666Y-101021428D01*
X167041666Y-100783333D01*
X166994047Y-100592857D01*
X166946428Y-100497619D01*
X166898809Y-100450000D01*
X166803571Y-100402380D01*
X165851190Y-100402380D02*
X165755952Y-100402380D01*
X165660714Y-100450000D01*
X165613095Y-100497619D01*
X165565476Y-100592857D01*
X165517857Y-100783333D01*
X165517857Y-101021428D01*
X165565476Y-101211904D01*
X165613095Y-101307142D01*
X165660714Y-101354761D01*
X165755952Y-101402380D01*
X165851190Y-101402380D01*
X165946428Y-101354761D01*
X165994047Y-101307142D01*
X166041666Y-101211904D01*
X166089285Y-101021428D01*
X166089285Y-100783333D01*
X166041666Y-100592857D01*
X165994047Y-100497619D01*
X165946428Y-100450000D01*
X165851190Y-100402380D01*
X165089285Y-100735714D02*
X165089285Y-101402380D01*
X165089285Y-100830952D02*
X165041666Y-100783333D01*
X164946428Y-100735714D01*
X164803571Y-100735714D01*
X164708333Y-100783333D01*
X164660714Y-100878571D01*
X164660714Y-101402380D01*
X163851190Y-100878571D02*
X164184523Y-100878571D01*
X164184523Y-101402380D02*
X164184523Y-100402380D01*
X163708333Y-100402380D01*
X164891666Y-110582142D02*
X164939285Y-110629761D01*
X165082142Y-110677380D01*
X165177380Y-110677380D01*
X165320238Y-110629761D01*
X165415476Y-110534523D01*
X165463095Y-110439285D01*
X165510714Y-110248809D01*
X165510714Y-110105952D01*
X165463095Y-109915476D01*
X165415476Y-109820238D01*
X165320238Y-109725000D01*
X165177380Y-109677380D01*
X165082142Y-109677380D01*
X164939285Y-109725000D01*
X164891666Y-109772619D01*
X164558333Y-109677380D02*
X163891666Y-109677380D01*
X164320238Y-110677380D01*
X166022619Y-112427380D02*
X166594047Y-112427380D01*
X166308333Y-112427380D02*
X166308333Y-111427380D01*
X166403571Y-111570238D01*
X166498809Y-111665476D01*
X166594047Y-111713095D01*
X165403571Y-111427380D02*
X165308333Y-111427380D01*
X165213095Y-111475000D01*
X165165476Y-111522619D01*
X165117857Y-111617857D01*
X165070238Y-111808333D01*
X165070238Y-112046428D01*
X165117857Y-112236904D01*
X165165476Y-112332142D01*
X165213095Y-112379761D01*
X165308333Y-112427380D01*
X165403571Y-112427380D01*
X165498809Y-112379761D01*
X165546428Y-112332142D01*
X165594047Y-112236904D01*
X165641666Y-112046428D01*
X165641666Y-111808333D01*
X165594047Y-111617857D01*
X165546428Y-111522619D01*
X165498809Y-111475000D01*
X165403571Y-111427380D01*
X164451190Y-111427380D02*
X164355952Y-111427380D01*
X164260714Y-111475000D01*
X164213095Y-111522619D01*
X164165476Y-111617857D01*
X164117857Y-111808333D01*
X164117857Y-112046428D01*
X164165476Y-112236904D01*
X164213095Y-112332142D01*
X164260714Y-112379761D01*
X164355952Y-112427380D01*
X164451190Y-112427380D01*
X164546428Y-112379761D01*
X164594047Y-112332142D01*
X164641666Y-112236904D01*
X164689285Y-112046428D01*
X164689285Y-111808333D01*
X164641666Y-111617857D01*
X164594047Y-111522619D01*
X164546428Y-111475000D01*
X164451190Y-111427380D01*
X163689285Y-111760714D02*
X163689285Y-112427380D01*
X163689285Y-111855952D02*
X163641666Y-111808333D01*
X163546428Y-111760714D01*
X163403571Y-111760714D01*
X163308333Y-111808333D01*
X163260714Y-111903571D01*
X163260714Y-112427380D01*
X162451190Y-111903571D02*
X162784523Y-111903571D01*
X162784523Y-112427380D02*
X162784523Y-111427380D01*
X162308333Y-111427380D01*
X181357142Y-150833333D02*
X181404761Y-150785714D01*
X181452380Y-150642857D01*
X181452380Y-150547619D01*
X181404761Y-150404761D01*
X181309523Y-150309523D01*
X181214285Y-150261904D01*
X181023809Y-150214285D01*
X180880952Y-150214285D01*
X180690476Y-150261904D01*
X180595238Y-150309523D01*
X180500000Y-150404761D01*
X180452380Y-150547619D01*
X180452380Y-150642857D01*
X180500000Y-150785714D01*
X180547619Y-150833333D01*
X180880952Y-151404761D02*
X180833333Y-151309523D01*
X180785714Y-151261904D01*
X180690476Y-151214285D01*
X180642857Y-151214285D01*
X180547619Y-151261904D01*
X180500000Y-151309523D01*
X180452380Y-151404761D01*
X180452380Y-151595238D01*
X180500000Y-151690476D01*
X180547619Y-151738095D01*
X180642857Y-151785714D01*
X180690476Y-151785714D01*
X180785714Y-151738095D01*
X180833333Y-151690476D01*
X180880952Y-151595238D01*
X180880952Y-151404761D01*
X180928571Y-151309523D01*
X180976190Y-151261904D01*
X181071428Y-151214285D01*
X181261904Y-151214285D01*
X181357142Y-151261904D01*
X181404761Y-151309523D01*
X181452380Y-151404761D01*
X181452380Y-151595238D01*
X181404761Y-151690476D01*
X181357142Y-151738095D01*
X181261904Y-151785714D01*
X181071428Y-151785714D01*
X180976190Y-151738095D01*
X180928571Y-151690476D01*
X180880952Y-151595238D01*
X136166666Y-112107142D02*
X136214285Y-112154761D01*
X136357142Y-112202380D01*
X136452380Y-112202380D01*
X136595238Y-112154761D01*
X136690476Y-112059523D01*
X136738095Y-111964285D01*
X136785714Y-111773809D01*
X136785714Y-111630952D01*
X136738095Y-111440476D01*
X136690476Y-111345238D01*
X136595238Y-111250000D01*
X136452380Y-111202380D01*
X136357142Y-111202380D01*
X136214285Y-111250000D01*
X136166666Y-111297619D01*
X135690476Y-112202380D02*
X135500000Y-112202380D01*
X135404761Y-112154761D01*
X135357142Y-112107142D01*
X135261904Y-111964285D01*
X135214285Y-111773809D01*
X135214285Y-111392857D01*
X135261904Y-111297619D01*
X135309523Y-111250000D01*
X135404761Y-111202380D01*
X135595238Y-111202380D01*
X135690476Y-111250000D01*
X135738095Y-111297619D01*
X135785714Y-111392857D01*
X135785714Y-111630952D01*
X135738095Y-111726190D01*
X135690476Y-111773809D01*
X135595238Y-111821428D01*
X135404761Y-111821428D01*
X135309523Y-111773809D01*
X135261904Y-111726190D01*
X135214285Y-111630952D01*
X137547619Y-108702380D02*
X138119047Y-108702380D01*
X137833333Y-108702380D02*
X137833333Y-107702380D01*
X137928571Y-107845238D01*
X138023809Y-107940476D01*
X138119047Y-107988095D01*
X136928571Y-107702380D02*
X136833333Y-107702380D01*
X136738095Y-107750000D01*
X136690476Y-107797619D01*
X136642857Y-107892857D01*
X136595238Y-108083333D01*
X136595238Y-108321428D01*
X136642857Y-108511904D01*
X136690476Y-108607142D01*
X136738095Y-108654761D01*
X136833333Y-108702380D01*
X136928571Y-108702380D01*
X137023809Y-108654761D01*
X137071428Y-108607142D01*
X137119047Y-108511904D01*
X137166666Y-108321428D01*
X137166666Y-108083333D01*
X137119047Y-107892857D01*
X137071428Y-107797619D01*
X137023809Y-107750000D01*
X136928571Y-107702380D01*
X135976190Y-107702380D02*
X135880952Y-107702380D01*
X135785714Y-107750000D01*
X135738095Y-107797619D01*
X135690476Y-107892857D01*
X135642857Y-108083333D01*
X135642857Y-108321428D01*
X135690476Y-108511904D01*
X135738095Y-108607142D01*
X135785714Y-108654761D01*
X135880952Y-108702380D01*
X135976190Y-108702380D01*
X136071428Y-108654761D01*
X136119047Y-108607142D01*
X136166666Y-108511904D01*
X136214285Y-108321428D01*
X136214285Y-108083333D01*
X136166666Y-107892857D01*
X136119047Y-107797619D01*
X136071428Y-107750000D01*
X135976190Y-107702380D01*
X135214285Y-108035714D02*
X135214285Y-108702380D01*
X135214285Y-108130952D02*
X135166666Y-108083333D01*
X135071428Y-108035714D01*
X134928571Y-108035714D01*
X134833333Y-108083333D01*
X134785714Y-108178571D01*
X134785714Y-108702380D01*
X133976190Y-108178571D02*
X134309523Y-108178571D01*
X134309523Y-108702380D02*
X134309523Y-107702380D01*
X133833333Y-107702380D01*
X184642857Y-112107142D02*
X184690476Y-112154761D01*
X184833333Y-112202380D01*
X184928571Y-112202380D01*
X185071428Y-112154761D01*
X185166666Y-112059523D01*
X185214285Y-111964285D01*
X185261904Y-111773809D01*
X185261904Y-111630952D01*
X185214285Y-111440476D01*
X185166666Y-111345238D01*
X185071428Y-111250000D01*
X184928571Y-111202380D01*
X184833333Y-111202380D01*
X184690476Y-111250000D01*
X184642857Y-111297619D01*
X183690476Y-112202380D02*
X184261904Y-112202380D01*
X183976190Y-112202380D02*
X183976190Y-111202380D01*
X184071428Y-111345238D01*
X184166666Y-111440476D01*
X184261904Y-111488095D01*
X183071428Y-111202380D02*
X182976190Y-111202380D01*
X182880952Y-111250000D01*
X182833333Y-111297619D01*
X182785714Y-111392857D01*
X182738095Y-111583333D01*
X182738095Y-111821428D01*
X182785714Y-112011904D01*
X182833333Y-112107142D01*
X182880952Y-112154761D01*
X182976190Y-112202380D01*
X183071428Y-112202380D01*
X183166666Y-112154761D01*
X183214285Y-112107142D01*
X183261904Y-112011904D01*
X183309523Y-111821428D01*
X183309523Y-111583333D01*
X183261904Y-111392857D01*
X183214285Y-111297619D01*
X183166666Y-111250000D01*
X183071428Y-111202380D01*
X185547619Y-108702380D02*
X186119047Y-108702380D01*
X185833333Y-108702380D02*
X185833333Y-107702380D01*
X185928571Y-107845238D01*
X186023809Y-107940476D01*
X186119047Y-107988095D01*
X184928571Y-107702380D02*
X184833333Y-107702380D01*
X184738095Y-107750000D01*
X184690476Y-107797619D01*
X184642857Y-107892857D01*
X184595238Y-108083333D01*
X184595238Y-108321428D01*
X184642857Y-108511904D01*
X184690476Y-108607142D01*
X184738095Y-108654761D01*
X184833333Y-108702380D01*
X184928571Y-108702380D01*
X185023809Y-108654761D01*
X185071428Y-108607142D01*
X185119047Y-108511904D01*
X185166666Y-108321428D01*
X185166666Y-108083333D01*
X185119047Y-107892857D01*
X185071428Y-107797619D01*
X185023809Y-107750000D01*
X184928571Y-107702380D01*
X183976190Y-107702380D02*
X183880952Y-107702380D01*
X183785714Y-107750000D01*
X183738095Y-107797619D01*
X183690476Y-107892857D01*
X183642857Y-108083333D01*
X183642857Y-108321428D01*
X183690476Y-108511904D01*
X183738095Y-108607142D01*
X183785714Y-108654761D01*
X183880952Y-108702380D01*
X183976190Y-108702380D01*
X184071428Y-108654761D01*
X184119047Y-108607142D01*
X184166666Y-108511904D01*
X184214285Y-108321428D01*
X184214285Y-108083333D01*
X184166666Y-107892857D01*
X184119047Y-107797619D01*
X184071428Y-107750000D01*
X183976190Y-107702380D01*
X183214285Y-108035714D02*
X183214285Y-108702380D01*
X183214285Y-108130952D02*
X183166666Y-108083333D01*
X183071428Y-108035714D01*
X182928571Y-108035714D01*
X182833333Y-108083333D01*
X182785714Y-108178571D01*
X182785714Y-108702380D01*
X181976190Y-108178571D02*
X182309523Y-108178571D01*
X182309523Y-108702380D02*
X182309523Y-107702380D01*
X181833333Y-107702380D01*
X185877142Y-73857142D02*
X185924761Y-73809523D01*
X185972380Y-73666666D01*
X185972380Y-73571428D01*
X185924761Y-73428571D01*
X185829523Y-73333333D01*
X185734285Y-73285714D01*
X185543809Y-73238095D01*
X185400952Y-73238095D01*
X185210476Y-73285714D01*
X185115238Y-73333333D01*
X185020000Y-73428571D01*
X184972380Y-73571428D01*
X184972380Y-73666666D01*
X185020000Y-73809523D01*
X185067619Y-73857142D01*
X185972380Y-74809523D02*
X185972380Y-74238095D01*
X185972380Y-74523809D02*
X184972380Y-74523809D01*
X185115238Y-74428571D01*
X185210476Y-74333333D01*
X185258095Y-74238095D01*
X185972380Y-75761904D02*
X185972380Y-75190476D01*
X185972380Y-75476190D02*
X184972380Y-75476190D01*
X185115238Y-75380952D01*
X185210476Y-75285714D01*
X185258095Y-75190476D01*
X177465714Y-73333333D02*
X178132380Y-73333333D01*
X177084761Y-73095238D02*
X177799047Y-72857142D01*
X177799047Y-73476190D01*
X177132380Y-73761904D02*
X177132380Y-74428571D01*
X178132380Y-74000000D01*
X177465714Y-75238095D02*
X178132380Y-75238095D01*
X177465714Y-74809523D02*
X177989523Y-74809523D01*
X178084761Y-74857142D01*
X178132380Y-74952380D01*
X178132380Y-75095238D01*
X178084761Y-75190476D01*
X178037142Y-75238095D01*
X177608571Y-76047619D02*
X177608571Y-75714285D01*
X178132380Y-75714285D02*
X177132380Y-75714285D01*
X177132380Y-76190476D01*
X184021428Y-70739047D02*
X184021428Y-71500952D01*
X184402380Y-71120000D02*
X183640476Y-71120000D01*
X185542857Y-59557142D02*
X185590476Y-59604761D01*
X185733333Y-59652380D01*
X185828571Y-59652380D01*
X185971428Y-59604761D01*
X186066666Y-59509523D01*
X186114285Y-59414285D01*
X186161904Y-59223809D01*
X186161904Y-59080952D01*
X186114285Y-58890476D01*
X186066666Y-58795238D01*
X185971428Y-58700000D01*
X185828571Y-58652380D01*
X185733333Y-58652380D01*
X185590476Y-58700000D01*
X185542857Y-58747619D01*
X184590476Y-59652380D02*
X185161904Y-59652380D01*
X184876190Y-59652380D02*
X184876190Y-58652380D01*
X184971428Y-58795238D01*
X185066666Y-58890476D01*
X185161904Y-58938095D01*
X184209523Y-58747619D02*
X184161904Y-58700000D01*
X184066666Y-58652380D01*
X183828571Y-58652380D01*
X183733333Y-58700000D01*
X183685714Y-58747619D01*
X183638095Y-58842857D01*
X183638095Y-58938095D01*
X183685714Y-59080952D01*
X184257142Y-59652380D01*
X183638095Y-59652380D01*
X187887619Y-61757142D02*
X187840000Y-61804761D01*
X187792380Y-61900000D01*
X187792380Y-62138095D01*
X187840000Y-62233333D01*
X187887619Y-62280952D01*
X187982857Y-62328571D01*
X188078095Y-62328571D01*
X188220952Y-62280952D01*
X188792380Y-61709523D01*
X188792380Y-62328571D01*
X187887619Y-62709523D02*
X187840000Y-62757142D01*
X187792380Y-62852380D01*
X187792380Y-63090476D01*
X187840000Y-63185714D01*
X187887619Y-63233333D01*
X187982857Y-63280952D01*
X188078095Y-63280952D01*
X188220952Y-63233333D01*
X188792380Y-62661904D01*
X188792380Y-63280952D01*
X188125714Y-64138095D02*
X188792380Y-64138095D01*
X188125714Y-63709523D02*
X188649523Y-63709523D01*
X188744761Y-63757142D01*
X188792380Y-63852380D01*
X188792380Y-63995238D01*
X188744761Y-64090476D01*
X188697142Y-64138095D01*
X188268571Y-64947619D02*
X188268571Y-64614285D01*
X188792380Y-64614285D02*
X187792380Y-64614285D01*
X187792380Y-65090476D01*
X182861428Y-65799047D02*
X182861428Y-66560952D01*
X183242380Y-66180000D02*
X182480476Y-66180000D01*
X189842857Y-55257142D02*
X189890476Y-55304761D01*
X190033333Y-55352380D01*
X190128571Y-55352380D01*
X190271428Y-55304761D01*
X190366666Y-55209523D01*
X190414285Y-55114285D01*
X190461904Y-54923809D01*
X190461904Y-54780952D01*
X190414285Y-54590476D01*
X190366666Y-54495238D01*
X190271428Y-54400000D01*
X190128571Y-54352380D01*
X190033333Y-54352380D01*
X189890476Y-54400000D01*
X189842857Y-54447619D01*
X188890476Y-55352380D02*
X189461904Y-55352380D01*
X189176190Y-55352380D02*
X189176190Y-54352380D01*
X189271428Y-54495238D01*
X189366666Y-54590476D01*
X189461904Y-54638095D01*
X188557142Y-54352380D02*
X187938095Y-54352380D01*
X188271428Y-54733333D01*
X188128571Y-54733333D01*
X188033333Y-54780952D01*
X187985714Y-54828571D01*
X187938095Y-54923809D01*
X187938095Y-55161904D01*
X187985714Y-55257142D01*
X188033333Y-55304761D01*
X188128571Y-55352380D01*
X188414285Y-55352380D01*
X188509523Y-55304761D01*
X188557142Y-55257142D01*
X190942857Y-52847619D02*
X190895238Y-52800000D01*
X190800000Y-52752380D01*
X190561904Y-52752380D01*
X190466666Y-52800000D01*
X190419047Y-52847619D01*
X190371428Y-52942857D01*
X190371428Y-53038095D01*
X190419047Y-53180952D01*
X190990476Y-53752380D01*
X190371428Y-53752380D01*
X189990476Y-52847619D02*
X189942857Y-52800000D01*
X189847619Y-52752380D01*
X189609523Y-52752380D01*
X189514285Y-52800000D01*
X189466666Y-52847619D01*
X189419047Y-52942857D01*
X189419047Y-53038095D01*
X189466666Y-53180952D01*
X190038095Y-53752380D01*
X189419047Y-53752380D01*
X188561904Y-53085714D02*
X188561904Y-53752380D01*
X188990476Y-53085714D02*
X188990476Y-53609523D01*
X188942857Y-53704761D01*
X188847619Y-53752380D01*
X188704761Y-53752380D01*
X188609523Y-53704761D01*
X188561904Y-53657142D01*
X187752380Y-53228571D02*
X188085714Y-53228571D01*
X188085714Y-53752380D02*
X188085714Y-52752380D01*
X187609523Y-52752380D01*
X187160952Y-56081428D02*
X186399047Y-56081428D01*
X186780000Y-56462380D02*
X186780000Y-55700476D01*
X158642857Y-74277142D02*
X158690476Y-74324761D01*
X158833333Y-74372380D01*
X158928571Y-74372380D01*
X159071428Y-74324761D01*
X159166666Y-74229523D01*
X159214285Y-74134285D01*
X159261904Y-73943809D01*
X159261904Y-73800952D01*
X159214285Y-73610476D01*
X159166666Y-73515238D01*
X159071428Y-73420000D01*
X158928571Y-73372380D01*
X158833333Y-73372380D01*
X158690476Y-73420000D01*
X158642857Y-73467619D01*
X157690476Y-74372380D02*
X158261904Y-74372380D01*
X157976190Y-74372380D02*
X157976190Y-73372380D01*
X158071428Y-73515238D01*
X158166666Y-73610476D01*
X158261904Y-73658095D01*
X156833333Y-73705714D02*
X156833333Y-74372380D01*
X157071428Y-73324761D02*
X157309523Y-74039047D01*
X156690476Y-74039047D01*
X159166666Y-65865714D02*
X159166666Y-66532380D01*
X159404761Y-65484761D02*
X159642857Y-66199047D01*
X159023809Y-66199047D01*
X158738095Y-65532380D02*
X158071428Y-65532380D01*
X158500000Y-66532380D01*
X157261904Y-65865714D02*
X157261904Y-66532380D01*
X157690476Y-65865714D02*
X157690476Y-66389523D01*
X157642857Y-66484761D01*
X157547619Y-66532380D01*
X157404761Y-66532380D01*
X157309523Y-66484761D01*
X157261904Y-66437142D01*
X156452380Y-66008571D02*
X156785714Y-66008571D01*
X156785714Y-66532380D02*
X156785714Y-65532380D01*
X156309523Y-65532380D01*
X161760952Y-72421428D02*
X160999047Y-72421428D01*
X161380000Y-72802380D02*
X161380000Y-72040476D01*
X165592857Y-95932142D02*
X165640476Y-95979761D01*
X165783333Y-96027380D01*
X165878571Y-96027380D01*
X166021428Y-95979761D01*
X166116666Y-95884523D01*
X166164285Y-95789285D01*
X166211904Y-95598809D01*
X166211904Y-95455952D01*
X166164285Y-95265476D01*
X166116666Y-95170238D01*
X166021428Y-95075000D01*
X165878571Y-95027380D01*
X165783333Y-95027380D01*
X165640476Y-95075000D01*
X165592857Y-95122619D01*
X164640476Y-96027380D02*
X165211904Y-96027380D01*
X164926190Y-96027380D02*
X164926190Y-95027380D01*
X165021428Y-95170238D01*
X165116666Y-95265476D01*
X165211904Y-95313095D01*
X163735714Y-95027380D02*
X164211904Y-95027380D01*
X164259523Y-95503571D01*
X164211904Y-95455952D01*
X164116666Y-95408333D01*
X163878571Y-95408333D01*
X163783333Y-95455952D01*
X163735714Y-95503571D01*
X163688095Y-95598809D01*
X163688095Y-95836904D01*
X163735714Y-95932142D01*
X163783333Y-95979761D01*
X163878571Y-96027380D01*
X164116666Y-96027380D01*
X164211904Y-95979761D01*
X164259523Y-95932142D01*
X162220238Y-96052380D02*
X162791666Y-96052380D01*
X162505952Y-96052380D02*
X162505952Y-95052380D01*
X162601190Y-95195238D01*
X162696428Y-95290476D01*
X162791666Y-95338095D01*
X161363095Y-95385714D02*
X161363095Y-96052380D01*
X161791666Y-95385714D02*
X161791666Y-95909523D01*
X161744047Y-96004761D01*
X161648809Y-96052380D01*
X161505952Y-96052380D01*
X161410714Y-96004761D01*
X161363095Y-95957142D01*
X160553571Y-95528571D02*
X160886904Y-95528571D01*
X160886904Y-96052380D02*
X160886904Y-95052380D01*
X160410714Y-95052380D01*
X160561428Y-93699047D02*
X160561428Y-94460952D01*
X160942380Y-94080000D02*
X160180476Y-94080000D01*
X157017857Y-93382142D02*
X157065476Y-93429761D01*
X157208333Y-93477380D01*
X157303571Y-93477380D01*
X157446428Y-93429761D01*
X157541666Y-93334523D01*
X157589285Y-93239285D01*
X157636904Y-93048809D01*
X157636904Y-92905952D01*
X157589285Y-92715476D01*
X157541666Y-92620238D01*
X157446428Y-92525000D01*
X157303571Y-92477380D01*
X157208333Y-92477380D01*
X157065476Y-92525000D01*
X157017857Y-92572619D01*
X156065476Y-93477380D02*
X156636904Y-93477380D01*
X156351190Y-93477380D02*
X156351190Y-92477380D01*
X156446428Y-92620238D01*
X156541666Y-92715476D01*
X156636904Y-92763095D01*
X155208333Y-92477380D02*
X155398809Y-92477380D01*
X155494047Y-92525000D01*
X155541666Y-92572619D01*
X155636904Y-92715476D01*
X155684523Y-92905952D01*
X155684523Y-93286904D01*
X155636904Y-93382142D01*
X155589285Y-93429761D01*
X155494047Y-93477380D01*
X155303571Y-93477380D01*
X155208333Y-93429761D01*
X155160714Y-93382142D01*
X155113095Y-93286904D01*
X155113095Y-93048809D01*
X155160714Y-92953571D01*
X155208333Y-92905952D01*
X155303571Y-92858333D01*
X155494047Y-92858333D01*
X155589285Y-92905952D01*
X155636904Y-92953571D01*
X155684523Y-93048809D01*
X157172619Y-95027380D02*
X157744047Y-95027380D01*
X157458333Y-95027380D02*
X157458333Y-94027380D01*
X157553571Y-94170238D01*
X157648809Y-94265476D01*
X157744047Y-94313095D01*
X156553571Y-94027380D02*
X156458333Y-94027380D01*
X156363095Y-94075000D01*
X156315476Y-94122619D01*
X156267857Y-94217857D01*
X156220238Y-94408333D01*
X156220238Y-94646428D01*
X156267857Y-94836904D01*
X156315476Y-94932142D01*
X156363095Y-94979761D01*
X156458333Y-95027380D01*
X156553571Y-95027380D01*
X156648809Y-94979761D01*
X156696428Y-94932142D01*
X156744047Y-94836904D01*
X156791666Y-94646428D01*
X156791666Y-94408333D01*
X156744047Y-94217857D01*
X156696428Y-94122619D01*
X156648809Y-94075000D01*
X156553571Y-94027380D01*
X155601190Y-94027380D02*
X155505952Y-94027380D01*
X155410714Y-94075000D01*
X155363095Y-94122619D01*
X155315476Y-94217857D01*
X155267857Y-94408333D01*
X155267857Y-94646428D01*
X155315476Y-94836904D01*
X155363095Y-94932142D01*
X155410714Y-94979761D01*
X155505952Y-95027380D01*
X155601190Y-95027380D01*
X155696428Y-94979761D01*
X155744047Y-94932142D01*
X155791666Y-94836904D01*
X155839285Y-94646428D01*
X155839285Y-94408333D01*
X155791666Y-94217857D01*
X155744047Y-94122619D01*
X155696428Y-94075000D01*
X155601190Y-94027380D01*
X154839285Y-94360714D02*
X154839285Y-95027380D01*
X154839285Y-94455952D02*
X154791666Y-94408333D01*
X154696428Y-94360714D01*
X154553571Y-94360714D01*
X154458333Y-94408333D01*
X154410714Y-94503571D01*
X154410714Y-95027380D01*
X153601190Y-94503571D02*
X153934523Y-94503571D01*
X153934523Y-95027380D02*
X153934523Y-94027380D01*
X153458333Y-94027380D01*
X179138095Y-62452380D02*
X179138095Y-61452380D01*
X178900000Y-61452380D01*
X178757142Y-61500000D01*
X178661904Y-61595238D01*
X178614285Y-61690476D01*
X178566666Y-61880952D01*
X178566666Y-62023809D01*
X178614285Y-62214285D01*
X178661904Y-62309523D01*
X178757142Y-62404761D01*
X178900000Y-62452380D01*
X179138095Y-62452380D01*
X177614285Y-62452380D02*
X178185714Y-62452380D01*
X177900000Y-62452380D02*
X177900000Y-61452380D01*
X177995238Y-61595238D01*
X178090476Y-61690476D01*
X178185714Y-61738095D01*
X180542857Y-66552380D02*
X181114285Y-66552380D01*
X180828571Y-66552380D02*
X180828571Y-65552380D01*
X180923809Y-65695238D01*
X181019047Y-65790476D01*
X181114285Y-65838095D01*
X180114285Y-66552380D02*
X180114285Y-65552380D01*
X179542857Y-66552380D01*
X179542857Y-65552380D01*
X178590476Y-65552380D02*
X179066666Y-65552380D01*
X179114285Y-66028571D01*
X179066666Y-65980952D01*
X178971428Y-65933333D01*
X178733333Y-65933333D01*
X178638095Y-65980952D01*
X178590476Y-66028571D01*
X178542857Y-66123809D01*
X178542857Y-66361904D01*
X178590476Y-66457142D01*
X178638095Y-66504761D01*
X178733333Y-66552380D01*
X178971428Y-66552380D01*
X179066666Y-66504761D01*
X179114285Y-66457142D01*
X177971428Y-65980952D02*
X178066666Y-65933333D01*
X178114285Y-65885714D01*
X178161904Y-65790476D01*
X178161904Y-65742857D01*
X178114285Y-65647619D01*
X178066666Y-65600000D01*
X177971428Y-65552380D01*
X177780952Y-65552380D01*
X177685714Y-65600000D01*
X177638095Y-65647619D01*
X177590476Y-65742857D01*
X177590476Y-65790476D01*
X177638095Y-65885714D01*
X177685714Y-65933333D01*
X177780952Y-65980952D01*
X177971428Y-65980952D01*
X178066666Y-66028571D01*
X178114285Y-66076190D01*
X178161904Y-66171428D01*
X178161904Y-66361904D01*
X178114285Y-66457142D01*
X178066666Y-66504761D01*
X177971428Y-66552380D01*
X177780952Y-66552380D01*
X177685714Y-66504761D01*
X177638095Y-66457142D01*
X177590476Y-66361904D01*
X177590476Y-66171428D01*
X177638095Y-66076190D01*
X177685714Y-66028571D01*
X177780952Y-65980952D01*
X176638095Y-66552380D02*
X177209523Y-66552380D01*
X176923809Y-66552380D02*
X176923809Y-65552380D01*
X177019047Y-65695238D01*
X177114285Y-65790476D01*
X177209523Y-65838095D01*
X176161904Y-66552380D02*
X175971428Y-66552380D01*
X175876190Y-66504761D01*
X175828571Y-66457142D01*
X175733333Y-66314285D01*
X175685714Y-66123809D01*
X175685714Y-65742857D01*
X175733333Y-65647619D01*
X175780952Y-65600000D01*
X175876190Y-65552380D01*
X176066666Y-65552380D01*
X176161904Y-65600000D01*
X176209523Y-65647619D01*
X176257142Y-65742857D01*
X176257142Y-65980952D01*
X176209523Y-66076190D01*
X176161904Y-66123809D01*
X176066666Y-66171428D01*
X175876190Y-66171428D01*
X175780952Y-66123809D01*
X175733333Y-66076190D01*
X175685714Y-65980952D01*
X176738095Y-56452380D02*
X176738095Y-55452380D01*
X176500000Y-55452380D01*
X176357142Y-55500000D01*
X176261904Y-55595238D01*
X176214285Y-55690476D01*
X176166666Y-55880952D01*
X176166666Y-56023809D01*
X176214285Y-56214285D01*
X176261904Y-56309523D01*
X176357142Y-56404761D01*
X176500000Y-56452380D01*
X176738095Y-56452380D01*
X175785714Y-55547619D02*
X175738095Y-55500000D01*
X175642857Y-55452380D01*
X175404761Y-55452380D01*
X175309523Y-55500000D01*
X175261904Y-55547619D01*
X175214285Y-55642857D01*
X175214285Y-55738095D01*
X175261904Y-55880952D01*
X175833333Y-56452380D01*
X175214285Y-56452380D01*
X178142857Y-52352380D02*
X178714285Y-52352380D01*
X178428571Y-52352380D02*
X178428571Y-51352380D01*
X178523809Y-51495238D01*
X178619047Y-51590476D01*
X178714285Y-51638095D01*
X177714285Y-52352380D02*
X177714285Y-51352380D01*
X177142857Y-52352380D01*
X177142857Y-51352380D01*
X176190476Y-51352380D02*
X176666666Y-51352380D01*
X176714285Y-51828571D01*
X176666666Y-51780952D01*
X176571428Y-51733333D01*
X176333333Y-51733333D01*
X176238095Y-51780952D01*
X176190476Y-51828571D01*
X176142857Y-51923809D01*
X176142857Y-52161904D01*
X176190476Y-52257142D01*
X176238095Y-52304761D01*
X176333333Y-52352380D01*
X176571428Y-52352380D01*
X176666666Y-52304761D01*
X176714285Y-52257142D01*
X175571428Y-51780952D02*
X175666666Y-51733333D01*
X175714285Y-51685714D01*
X175761904Y-51590476D01*
X175761904Y-51542857D01*
X175714285Y-51447619D01*
X175666666Y-51400000D01*
X175571428Y-51352380D01*
X175380952Y-51352380D01*
X175285714Y-51400000D01*
X175238095Y-51447619D01*
X175190476Y-51542857D01*
X175190476Y-51590476D01*
X175238095Y-51685714D01*
X175285714Y-51733333D01*
X175380952Y-51780952D01*
X175571428Y-51780952D01*
X175666666Y-51828571D01*
X175714285Y-51876190D01*
X175761904Y-51971428D01*
X175761904Y-52161904D01*
X175714285Y-52257142D01*
X175666666Y-52304761D01*
X175571428Y-52352380D01*
X175380952Y-52352380D01*
X175285714Y-52304761D01*
X175238095Y-52257142D01*
X175190476Y-52161904D01*
X175190476Y-51971428D01*
X175238095Y-51876190D01*
X175285714Y-51828571D01*
X175380952Y-51780952D01*
X174238095Y-52352380D02*
X174809523Y-52352380D01*
X174523809Y-52352380D02*
X174523809Y-51352380D01*
X174619047Y-51495238D01*
X174714285Y-51590476D01*
X174809523Y-51638095D01*
X173761904Y-52352380D02*
X173571428Y-52352380D01*
X173476190Y-52304761D01*
X173428571Y-52257142D01*
X173333333Y-52114285D01*
X173285714Y-51923809D01*
X173285714Y-51542857D01*
X173333333Y-51447619D01*
X173380952Y-51400000D01*
X173476190Y-51352380D01*
X173666666Y-51352380D01*
X173761904Y-51400000D01*
X173809523Y-51447619D01*
X173857142Y-51542857D01*
X173857142Y-51780952D01*
X173809523Y-51876190D01*
X173761904Y-51923809D01*
X173666666Y-51971428D01*
X173476190Y-51971428D01*
X173380952Y-51923809D01*
X173333333Y-51876190D01*
X173285714Y-51780952D01*
X132701190Y-99152380D02*
X132082142Y-99152380D01*
X132415476Y-99533333D01*
X132272619Y-99533333D01*
X132177380Y-99580952D01*
X132129761Y-99628571D01*
X132082142Y-99723809D01*
X132082142Y-99961904D01*
X132129761Y-100057142D01*
X132177380Y-100104761D01*
X132272619Y-100152380D01*
X132558333Y-100152380D01*
X132653571Y-100104761D01*
X132701190Y-100057142D01*
X131653571Y-100057142D02*
X131605952Y-100104761D01*
X131653571Y-100152380D01*
X131701190Y-100104761D01*
X131653571Y-100057142D01*
X131653571Y-100152380D01*
X131272619Y-99152380D02*
X130653571Y-99152380D01*
X130986904Y-99533333D01*
X130844047Y-99533333D01*
X130748809Y-99580952D01*
X130701190Y-99628571D01*
X130653571Y-99723809D01*
X130653571Y-99961904D01*
X130701190Y-100057142D01*
X130748809Y-100104761D01*
X130844047Y-100152380D01*
X131129761Y-100152380D01*
X131225000Y-100104761D01*
X131272619Y-100057142D01*
X130367857Y-99152380D02*
X130034523Y-100152380D01*
X129701190Y-99152380D01*
X131986904Y-96660000D02*
X132082142Y-96612380D01*
X132225000Y-96612380D01*
X132367857Y-96660000D01*
X132463095Y-96755238D01*
X132510714Y-96850476D01*
X132558333Y-97040952D01*
X132558333Y-97183809D01*
X132510714Y-97374285D01*
X132463095Y-97469523D01*
X132367857Y-97564761D01*
X132225000Y-97612380D01*
X132129761Y-97612380D01*
X131986904Y-97564761D01*
X131939285Y-97517142D01*
X131939285Y-97183809D01*
X132129761Y-97183809D01*
X131510714Y-97612380D02*
X131510714Y-96612380D01*
X130939285Y-97612380D01*
X130939285Y-96612380D01*
X130463095Y-97612380D02*
X130463095Y-96612380D01*
X130225000Y-96612380D01*
X130082142Y-96660000D01*
X129986904Y-96755238D01*
X129939285Y-96850476D01*
X129891666Y-97040952D01*
X129891666Y-97183809D01*
X129939285Y-97374285D01*
X129986904Y-97469523D01*
X130082142Y-97564761D01*
X130225000Y-97612380D01*
X130463095Y-97612380D01*
X132383809Y-95072380D02*
X132383809Y-94072380D01*
X131717142Y-94072380D02*
X131526666Y-94072380D01*
X131431428Y-94120000D01*
X131336190Y-94215238D01*
X131288571Y-94405714D01*
X131288571Y-94739047D01*
X131336190Y-94929523D01*
X131431428Y-95024761D01*
X131526666Y-95072380D01*
X131717142Y-95072380D01*
X131812380Y-95024761D01*
X131907619Y-94929523D01*
X131955238Y-94739047D01*
X131955238Y-94405714D01*
X131907619Y-94215238D01*
X131812380Y-94120000D01*
X131717142Y-94072380D01*
X131820238Y-92437142D02*
X131867857Y-92484761D01*
X132010714Y-92532380D01*
X132105952Y-92532380D01*
X132248809Y-92484761D01*
X132344047Y-92389523D01*
X132391666Y-92294285D01*
X132439285Y-92103809D01*
X132439285Y-91960952D01*
X132391666Y-91770476D01*
X132344047Y-91675238D01*
X132248809Y-91580000D01*
X132105952Y-91532380D01*
X132010714Y-91532380D01*
X131867857Y-91580000D01*
X131820238Y-91627619D01*
X130915476Y-92532380D02*
X131391666Y-92532380D01*
X131391666Y-91532380D01*
X130582142Y-92532380D02*
X130582142Y-91532380D01*
X130010714Y-92532380D02*
X130439285Y-91960952D01*
X130010714Y-91532380D02*
X130582142Y-92103809D01*
X161266666Y-82152380D02*
X161742857Y-82152380D01*
X161742857Y-81152380D01*
X160409523Y-82152380D02*
X160980952Y-82152380D01*
X160695238Y-82152380D02*
X160695238Y-81152380D01*
X160790476Y-81295238D01*
X160885714Y-81390476D01*
X160980952Y-81438095D01*
X171666666Y-82077380D02*
X172000000Y-81601190D01*
X172238095Y-82077380D02*
X172238095Y-81077380D01*
X171857142Y-81077380D01*
X171761904Y-81125000D01*
X171714285Y-81172619D01*
X171666666Y-81267857D01*
X171666666Y-81410714D01*
X171714285Y-81505952D01*
X171761904Y-81553571D01*
X171857142Y-81601190D01*
X172238095Y-81601190D01*
X170714285Y-82077380D02*
X171285714Y-82077380D01*
X171000000Y-82077380D02*
X171000000Y-81077380D01*
X171095238Y-81220238D01*
X171190476Y-81315476D01*
X171285714Y-81363095D01*
X172921428Y-83852380D02*
X173492857Y-83852380D01*
X173207142Y-83852380D02*
X173207142Y-82852380D01*
X173302380Y-82995238D01*
X173397619Y-83090476D01*
X173492857Y-83138095D01*
X172302380Y-82852380D02*
X172207142Y-82852380D01*
X172111904Y-82900000D01*
X172064285Y-82947619D01*
X172016666Y-83042857D01*
X171969047Y-83233333D01*
X171969047Y-83471428D01*
X172016666Y-83661904D01*
X172064285Y-83757142D01*
X172111904Y-83804761D01*
X172207142Y-83852380D01*
X172302380Y-83852380D01*
X172397619Y-83804761D01*
X172445238Y-83757142D01*
X172492857Y-83661904D01*
X172540476Y-83471428D01*
X172540476Y-83233333D01*
X172492857Y-83042857D01*
X172445238Y-82947619D01*
X172397619Y-82900000D01*
X172302380Y-82852380D01*
X171350000Y-82852380D02*
X171254761Y-82852380D01*
X171159523Y-82900000D01*
X171111904Y-82947619D01*
X171064285Y-83042857D01*
X171016666Y-83233333D01*
X171016666Y-83471428D01*
X171064285Y-83661904D01*
X171111904Y-83757142D01*
X171159523Y-83804761D01*
X171254761Y-83852380D01*
X171350000Y-83852380D01*
X171445238Y-83804761D01*
X171492857Y-83757142D01*
X171540476Y-83661904D01*
X171588095Y-83471428D01*
X171588095Y-83233333D01*
X171540476Y-83042857D01*
X171492857Y-82947619D01*
X171445238Y-82900000D01*
X171350000Y-82852380D01*
X170588095Y-83852380D02*
X170588095Y-82852380D01*
X170492857Y-83471428D02*
X170207142Y-83852380D01*
X170207142Y-83185714D02*
X170588095Y-83566666D01*
X175066666Y-82252380D02*
X175400000Y-81776190D01*
X175638095Y-82252380D02*
X175638095Y-81252380D01*
X175257142Y-81252380D01*
X175161904Y-81300000D01*
X175114285Y-81347619D01*
X175066666Y-81442857D01*
X175066666Y-81585714D01*
X175114285Y-81680952D01*
X175161904Y-81728571D01*
X175257142Y-81776190D01*
X175638095Y-81776190D01*
X174685714Y-81347619D02*
X174638095Y-81300000D01*
X174542857Y-81252380D01*
X174304761Y-81252380D01*
X174209523Y-81300000D01*
X174161904Y-81347619D01*
X174114285Y-81442857D01*
X174114285Y-81538095D01*
X174161904Y-81680952D01*
X174733333Y-82252380D01*
X174114285Y-82252380D01*
X176796428Y-83802380D02*
X177367857Y-83802380D01*
X177082142Y-83802380D02*
X177082142Y-82802380D01*
X177177380Y-82945238D01*
X177272619Y-83040476D01*
X177367857Y-83088095D01*
X176177380Y-82802380D02*
X176082142Y-82802380D01*
X175986904Y-82850000D01*
X175939285Y-82897619D01*
X175891666Y-82992857D01*
X175844047Y-83183333D01*
X175844047Y-83421428D01*
X175891666Y-83611904D01*
X175939285Y-83707142D01*
X175986904Y-83754761D01*
X176082142Y-83802380D01*
X176177380Y-83802380D01*
X176272619Y-83754761D01*
X176320238Y-83707142D01*
X176367857Y-83611904D01*
X176415476Y-83421428D01*
X176415476Y-83183333D01*
X176367857Y-82992857D01*
X176320238Y-82897619D01*
X176272619Y-82850000D01*
X176177380Y-82802380D01*
X175225000Y-82802380D02*
X175129761Y-82802380D01*
X175034523Y-82850000D01*
X174986904Y-82897619D01*
X174939285Y-82992857D01*
X174891666Y-83183333D01*
X174891666Y-83421428D01*
X174939285Y-83611904D01*
X174986904Y-83707142D01*
X175034523Y-83754761D01*
X175129761Y-83802380D01*
X175225000Y-83802380D01*
X175320238Y-83754761D01*
X175367857Y-83707142D01*
X175415476Y-83611904D01*
X175463095Y-83421428D01*
X175463095Y-83183333D01*
X175415476Y-82992857D01*
X175367857Y-82897619D01*
X175320238Y-82850000D01*
X175225000Y-82802380D01*
X174463095Y-83802380D02*
X174463095Y-82802380D01*
X174367857Y-83421428D02*
X174082142Y-83802380D01*
X174082142Y-83135714D02*
X174463095Y-83516666D01*
X174966666Y-103052380D02*
X175300000Y-102576190D01*
X175538095Y-103052380D02*
X175538095Y-102052380D01*
X175157142Y-102052380D01*
X175061904Y-102100000D01*
X175014285Y-102147619D01*
X174966666Y-102242857D01*
X174966666Y-102385714D01*
X175014285Y-102480952D01*
X175061904Y-102528571D01*
X175157142Y-102576190D01*
X175538095Y-102576190D01*
X174633333Y-102052380D02*
X174014285Y-102052380D01*
X174347619Y-102433333D01*
X174204761Y-102433333D01*
X174109523Y-102480952D01*
X174061904Y-102528571D01*
X174014285Y-102623809D01*
X174014285Y-102861904D01*
X174061904Y-102957142D01*
X174109523Y-103004761D01*
X174204761Y-103052380D01*
X174490476Y-103052380D01*
X174585714Y-103004761D01*
X174633333Y-102957142D01*
X174952380Y-109478571D02*
X174952380Y-108907142D01*
X174952380Y-109192857D02*
X173952380Y-109192857D01*
X174095238Y-109097619D01*
X174190476Y-109002380D01*
X174238095Y-108907142D01*
X173952380Y-110097619D02*
X173952380Y-110192857D01*
X174000000Y-110288095D01*
X174047619Y-110335714D01*
X174142857Y-110383333D01*
X174333333Y-110430952D01*
X174571428Y-110430952D01*
X174761904Y-110383333D01*
X174857142Y-110335714D01*
X174904761Y-110288095D01*
X174952380Y-110192857D01*
X174952380Y-110097619D01*
X174904761Y-110002380D01*
X174857142Y-109954761D01*
X174761904Y-109907142D01*
X174571428Y-109859523D01*
X174333333Y-109859523D01*
X174142857Y-109907142D01*
X174047619Y-109954761D01*
X174000000Y-110002380D01*
X173952380Y-110097619D01*
X173952380Y-111050000D02*
X173952380Y-111145238D01*
X174000000Y-111240476D01*
X174047619Y-111288095D01*
X174142857Y-111335714D01*
X174333333Y-111383333D01*
X174571428Y-111383333D01*
X174761904Y-111335714D01*
X174857142Y-111288095D01*
X174904761Y-111240476D01*
X174952380Y-111145238D01*
X174952380Y-111050000D01*
X174904761Y-110954761D01*
X174857142Y-110907142D01*
X174761904Y-110859523D01*
X174571428Y-110811904D01*
X174333333Y-110811904D01*
X174142857Y-110859523D01*
X174047619Y-110907142D01*
X174000000Y-110954761D01*
X173952380Y-111050000D01*
X174952380Y-111811904D02*
X173952380Y-111811904D01*
X174571428Y-111907142D02*
X174952380Y-112192857D01*
X174285714Y-112192857D02*
X174666666Y-111811904D01*
X172316666Y-102952380D02*
X172650000Y-102476190D01*
X172888095Y-102952380D02*
X172888095Y-101952380D01*
X172507142Y-101952380D01*
X172411904Y-102000000D01*
X172364285Y-102047619D01*
X172316666Y-102142857D01*
X172316666Y-102285714D01*
X172364285Y-102380952D01*
X172411904Y-102428571D01*
X172507142Y-102476190D01*
X172888095Y-102476190D01*
X171459523Y-102285714D02*
X171459523Y-102952380D01*
X171697619Y-101904761D02*
X171935714Y-102619047D01*
X171316666Y-102619047D01*
X172552380Y-109328571D02*
X172552380Y-108757142D01*
X172552380Y-109042857D02*
X171552380Y-109042857D01*
X171695238Y-108947619D01*
X171790476Y-108852380D01*
X171838095Y-108757142D01*
X171552380Y-109947619D02*
X171552380Y-110042857D01*
X171600000Y-110138095D01*
X171647619Y-110185714D01*
X171742857Y-110233333D01*
X171933333Y-110280952D01*
X172171428Y-110280952D01*
X172361904Y-110233333D01*
X172457142Y-110185714D01*
X172504761Y-110138095D01*
X172552380Y-110042857D01*
X172552380Y-109947619D01*
X172504761Y-109852380D01*
X172457142Y-109804761D01*
X172361904Y-109757142D01*
X172171428Y-109709523D01*
X171933333Y-109709523D01*
X171742857Y-109757142D01*
X171647619Y-109804761D01*
X171600000Y-109852380D01*
X171552380Y-109947619D01*
X171552380Y-110900000D02*
X171552380Y-110995238D01*
X171600000Y-111090476D01*
X171647619Y-111138095D01*
X171742857Y-111185714D01*
X171933333Y-111233333D01*
X172171428Y-111233333D01*
X172361904Y-111185714D01*
X172457142Y-111138095D01*
X172504761Y-111090476D01*
X172552380Y-110995238D01*
X172552380Y-110900000D01*
X172504761Y-110804761D01*
X172457142Y-110757142D01*
X172361904Y-110709523D01*
X172171428Y-110661904D01*
X171933333Y-110661904D01*
X171742857Y-110709523D01*
X171647619Y-110757142D01*
X171600000Y-110804761D01*
X171552380Y-110900000D01*
X172552380Y-111661904D02*
X171552380Y-111661904D01*
X172171428Y-111757142D02*
X172552380Y-112042857D01*
X171885714Y-112042857D02*
X172266666Y-111661904D01*
X167766666Y-80352380D02*
X168100000Y-79876190D01*
X168338095Y-80352380D02*
X168338095Y-79352380D01*
X167957142Y-79352380D01*
X167861904Y-79400000D01*
X167814285Y-79447619D01*
X167766666Y-79542857D01*
X167766666Y-79685714D01*
X167814285Y-79780952D01*
X167861904Y-79828571D01*
X167957142Y-79876190D01*
X168338095Y-79876190D01*
X166861904Y-79352380D02*
X167338095Y-79352380D01*
X167385714Y-79828571D01*
X167338095Y-79780952D01*
X167242857Y-79733333D01*
X167004761Y-79733333D01*
X166909523Y-79780952D01*
X166861904Y-79828571D01*
X166814285Y-79923809D01*
X166814285Y-80161904D01*
X166861904Y-80257142D01*
X166909523Y-80304761D01*
X167004761Y-80352380D01*
X167242857Y-80352380D01*
X167338095Y-80304761D01*
X167385714Y-80257142D01*
X168671428Y-81802380D02*
X169242857Y-81802380D01*
X168957142Y-81802380D02*
X168957142Y-80802380D01*
X169052380Y-80945238D01*
X169147619Y-81040476D01*
X169242857Y-81088095D01*
X168052380Y-80802380D02*
X167957142Y-80802380D01*
X167861904Y-80850000D01*
X167814285Y-80897619D01*
X167766666Y-80992857D01*
X167719047Y-81183333D01*
X167719047Y-81421428D01*
X167766666Y-81611904D01*
X167814285Y-81707142D01*
X167861904Y-81754761D01*
X167957142Y-81802380D01*
X168052380Y-81802380D01*
X168147619Y-81754761D01*
X168195238Y-81707142D01*
X168242857Y-81611904D01*
X168290476Y-81421428D01*
X168290476Y-81183333D01*
X168242857Y-80992857D01*
X168195238Y-80897619D01*
X168147619Y-80850000D01*
X168052380Y-80802380D01*
X167100000Y-80802380D02*
X167004761Y-80802380D01*
X166909523Y-80850000D01*
X166861904Y-80897619D01*
X166814285Y-80992857D01*
X166766666Y-81183333D01*
X166766666Y-81421428D01*
X166814285Y-81611904D01*
X166861904Y-81707142D01*
X166909523Y-81754761D01*
X167004761Y-81802380D01*
X167100000Y-81802380D01*
X167195238Y-81754761D01*
X167242857Y-81707142D01*
X167290476Y-81611904D01*
X167338095Y-81421428D01*
X167338095Y-81183333D01*
X167290476Y-80992857D01*
X167242857Y-80897619D01*
X167195238Y-80850000D01*
X167100000Y-80802380D01*
X166338095Y-81802380D02*
X166338095Y-80802380D01*
X166242857Y-81421428D02*
X165957142Y-81802380D01*
X165957142Y-81135714D02*
X166338095Y-81516666D01*
X164566666Y-85752380D02*
X164900000Y-85276190D01*
X165138095Y-85752380D02*
X165138095Y-84752380D01*
X164757142Y-84752380D01*
X164661904Y-84800000D01*
X164614285Y-84847619D01*
X164566666Y-84942857D01*
X164566666Y-85085714D01*
X164614285Y-85180952D01*
X164661904Y-85228571D01*
X164757142Y-85276190D01*
X165138095Y-85276190D01*
X163709523Y-84752380D02*
X163900000Y-84752380D01*
X163995238Y-84800000D01*
X164042857Y-84847619D01*
X164138095Y-84990476D01*
X164185714Y-85180952D01*
X164185714Y-85561904D01*
X164138095Y-85657142D01*
X164090476Y-85704761D01*
X163995238Y-85752380D01*
X163804761Y-85752380D01*
X163709523Y-85704761D01*
X163661904Y-85657142D01*
X163614285Y-85561904D01*
X163614285Y-85323809D01*
X163661904Y-85228571D01*
X163709523Y-85180952D01*
X163804761Y-85133333D01*
X163995238Y-85133333D01*
X164090476Y-85180952D01*
X164138095Y-85228571D01*
X164185714Y-85323809D01*
X164671428Y-87752380D02*
X165242857Y-87752380D01*
X164957142Y-87752380D02*
X164957142Y-86752380D01*
X165052380Y-86895238D01*
X165147619Y-86990476D01*
X165242857Y-87038095D01*
X164052380Y-86752380D02*
X163957142Y-86752380D01*
X163861904Y-86800000D01*
X163814285Y-86847619D01*
X163766666Y-86942857D01*
X163719047Y-87133333D01*
X163719047Y-87371428D01*
X163766666Y-87561904D01*
X163814285Y-87657142D01*
X163861904Y-87704761D01*
X163957142Y-87752380D01*
X164052380Y-87752380D01*
X164147619Y-87704761D01*
X164195238Y-87657142D01*
X164242857Y-87561904D01*
X164290476Y-87371428D01*
X164290476Y-87133333D01*
X164242857Y-86942857D01*
X164195238Y-86847619D01*
X164147619Y-86800000D01*
X164052380Y-86752380D01*
X163100000Y-86752380D02*
X163004761Y-86752380D01*
X162909523Y-86800000D01*
X162861904Y-86847619D01*
X162814285Y-86942857D01*
X162766666Y-87133333D01*
X162766666Y-87371428D01*
X162814285Y-87561904D01*
X162861904Y-87657142D01*
X162909523Y-87704761D01*
X163004761Y-87752380D01*
X163100000Y-87752380D01*
X163195238Y-87704761D01*
X163242857Y-87657142D01*
X163290476Y-87561904D01*
X163338095Y-87371428D01*
X163338095Y-87133333D01*
X163290476Y-86942857D01*
X163242857Y-86847619D01*
X163195238Y-86800000D01*
X163100000Y-86752380D01*
X162338095Y-87752380D02*
X162338095Y-86752380D01*
X162242857Y-87371428D02*
X161957142Y-87752380D01*
X161957142Y-87085714D02*
X162338095Y-87466666D01*
X180116666Y-86052380D02*
X180450000Y-85576190D01*
X180688095Y-86052380D02*
X180688095Y-85052380D01*
X180307142Y-85052380D01*
X180211904Y-85100000D01*
X180164285Y-85147619D01*
X180116666Y-85242857D01*
X180116666Y-85385714D01*
X180164285Y-85480952D01*
X180211904Y-85528571D01*
X180307142Y-85576190D01*
X180688095Y-85576190D01*
X179783333Y-85052380D02*
X179116666Y-85052380D01*
X179545238Y-86052380D01*
X180795238Y-88102380D02*
X181366666Y-88102380D01*
X181080952Y-88102380D02*
X181080952Y-87102380D01*
X181176190Y-87245238D01*
X181271428Y-87340476D01*
X181366666Y-87388095D01*
X179890476Y-87102380D02*
X180366666Y-87102380D01*
X180414285Y-87578571D01*
X180366666Y-87530952D01*
X180271428Y-87483333D01*
X180033333Y-87483333D01*
X179938095Y-87530952D01*
X179890476Y-87578571D01*
X179842857Y-87673809D01*
X179842857Y-87911904D01*
X179890476Y-88007142D01*
X179938095Y-88054761D01*
X180033333Y-88102380D01*
X180271428Y-88102380D01*
X180366666Y-88054761D01*
X180414285Y-88007142D01*
X179414285Y-88102380D02*
X179414285Y-87102380D01*
X179319047Y-87721428D02*
X179033333Y-88102380D01*
X179033333Y-87435714D02*
X179414285Y-87816666D01*
X169766666Y-103052380D02*
X170100000Y-102576190D01*
X170338095Y-103052380D02*
X170338095Y-102052380D01*
X169957142Y-102052380D01*
X169861904Y-102100000D01*
X169814285Y-102147619D01*
X169766666Y-102242857D01*
X169766666Y-102385714D01*
X169814285Y-102480952D01*
X169861904Y-102528571D01*
X169957142Y-102576190D01*
X170338095Y-102576190D01*
X169195238Y-102480952D02*
X169290476Y-102433333D01*
X169338095Y-102385714D01*
X169385714Y-102290476D01*
X169385714Y-102242857D01*
X169338095Y-102147619D01*
X169290476Y-102100000D01*
X169195238Y-102052380D01*
X169004761Y-102052380D01*
X168909523Y-102100000D01*
X168861904Y-102147619D01*
X168814285Y-102242857D01*
X168814285Y-102290476D01*
X168861904Y-102385714D01*
X168909523Y-102433333D01*
X169004761Y-102480952D01*
X169195238Y-102480952D01*
X169290476Y-102528571D01*
X169338095Y-102576190D01*
X169385714Y-102671428D01*
X169385714Y-102861904D01*
X169338095Y-102957142D01*
X169290476Y-103004761D01*
X169195238Y-103052380D01*
X169004761Y-103052380D01*
X168909523Y-103004761D01*
X168861904Y-102957142D01*
X168814285Y-102861904D01*
X168814285Y-102671428D01*
X168861904Y-102576190D01*
X168909523Y-102528571D01*
X169004761Y-102480952D01*
X169927380Y-109404761D02*
X169927380Y-108833333D01*
X169927380Y-109119047D02*
X168927380Y-109119047D01*
X169070238Y-109023809D01*
X169165476Y-108928571D01*
X169213095Y-108833333D01*
X168927380Y-110309523D02*
X168927380Y-109833333D01*
X169403571Y-109785714D01*
X169355952Y-109833333D01*
X169308333Y-109928571D01*
X169308333Y-110166666D01*
X169355952Y-110261904D01*
X169403571Y-110309523D01*
X169498809Y-110357142D01*
X169736904Y-110357142D01*
X169832142Y-110309523D01*
X169879761Y-110261904D01*
X169927380Y-110166666D01*
X169927380Y-109928571D01*
X169879761Y-109833333D01*
X169832142Y-109785714D01*
X169927380Y-110785714D02*
X168927380Y-110785714D01*
X169546428Y-110880952D02*
X169927380Y-111166666D01*
X169260714Y-111166666D02*
X169641666Y-110785714D01*
X138277380Y-141282142D02*
X137801190Y-140948809D01*
X138277380Y-140710714D02*
X137277380Y-140710714D01*
X137277380Y-141091666D01*
X137325000Y-141186904D01*
X137372619Y-141234523D01*
X137467857Y-141282142D01*
X137610714Y-141282142D01*
X137705952Y-141234523D01*
X137753571Y-141186904D01*
X137801190Y-141091666D01*
X137801190Y-140710714D01*
X138277380Y-142234523D02*
X138277380Y-141663095D01*
X138277380Y-141948809D02*
X137277380Y-141948809D01*
X137420238Y-141853571D01*
X137515476Y-141758333D01*
X137563095Y-141663095D01*
X137277380Y-142853571D02*
X137277380Y-142948809D01*
X137325000Y-143044047D01*
X137372619Y-143091666D01*
X137467857Y-143139285D01*
X137658333Y-143186904D01*
X137896428Y-143186904D01*
X138086904Y-143139285D01*
X138182142Y-143091666D01*
X138229761Y-143044047D01*
X138277380Y-142948809D01*
X138277380Y-142853571D01*
X138229761Y-142758333D01*
X138182142Y-142710714D01*
X138086904Y-142663095D01*
X137896428Y-142615476D01*
X137658333Y-142615476D01*
X137467857Y-142663095D01*
X137372619Y-142710714D01*
X137325000Y-142758333D01*
X137277380Y-142853571D01*
X139802380Y-141258333D02*
X139802380Y-140686904D01*
X139802380Y-140972619D02*
X138802380Y-140972619D01*
X138945238Y-140877380D01*
X139040476Y-140782142D01*
X139088095Y-140686904D01*
X138802380Y-141877380D02*
X138802380Y-141972619D01*
X138850000Y-142067857D01*
X138897619Y-142115476D01*
X138992857Y-142163095D01*
X139183333Y-142210714D01*
X139421428Y-142210714D01*
X139611904Y-142163095D01*
X139707142Y-142115476D01*
X139754761Y-142067857D01*
X139802380Y-141972619D01*
X139802380Y-141877380D01*
X139754761Y-141782142D01*
X139707142Y-141734523D01*
X139611904Y-141686904D01*
X139421428Y-141639285D01*
X139183333Y-141639285D01*
X138992857Y-141686904D01*
X138897619Y-141734523D01*
X138850000Y-141782142D01*
X138802380Y-141877380D01*
X138802380Y-142829761D02*
X138802380Y-142925000D01*
X138850000Y-143020238D01*
X138897619Y-143067857D01*
X138992857Y-143115476D01*
X139183333Y-143163095D01*
X139421428Y-143163095D01*
X139611904Y-143115476D01*
X139707142Y-143067857D01*
X139754761Y-143020238D01*
X139802380Y-142925000D01*
X139802380Y-142829761D01*
X139754761Y-142734523D01*
X139707142Y-142686904D01*
X139611904Y-142639285D01*
X139421428Y-142591666D01*
X139183333Y-142591666D01*
X138992857Y-142639285D01*
X138897619Y-142686904D01*
X138850000Y-142734523D01*
X138802380Y-142829761D01*
X146252380Y-141257142D02*
X145776190Y-140923809D01*
X146252380Y-140685714D02*
X145252380Y-140685714D01*
X145252380Y-141066666D01*
X145300000Y-141161904D01*
X145347619Y-141209523D01*
X145442857Y-141257142D01*
X145585714Y-141257142D01*
X145680952Y-141209523D01*
X145728571Y-141161904D01*
X145776190Y-141066666D01*
X145776190Y-140685714D01*
X146252380Y-142209523D02*
X146252380Y-141638095D01*
X146252380Y-141923809D02*
X145252380Y-141923809D01*
X145395238Y-141828571D01*
X145490476Y-141733333D01*
X145538095Y-141638095D01*
X146252380Y-143161904D02*
X146252380Y-142590476D01*
X146252380Y-142876190D02*
X145252380Y-142876190D01*
X145395238Y-142780952D01*
X145490476Y-142685714D01*
X145538095Y-142590476D01*
X147852380Y-141208333D02*
X147852380Y-140636904D01*
X147852380Y-140922619D02*
X146852380Y-140922619D01*
X146995238Y-140827380D01*
X147090476Y-140732142D01*
X147138095Y-140636904D01*
X146852380Y-141827380D02*
X146852380Y-141922619D01*
X146900000Y-142017857D01*
X146947619Y-142065476D01*
X147042857Y-142113095D01*
X147233333Y-142160714D01*
X147471428Y-142160714D01*
X147661904Y-142113095D01*
X147757142Y-142065476D01*
X147804761Y-142017857D01*
X147852380Y-141922619D01*
X147852380Y-141827380D01*
X147804761Y-141732142D01*
X147757142Y-141684523D01*
X147661904Y-141636904D01*
X147471428Y-141589285D01*
X147233333Y-141589285D01*
X147042857Y-141636904D01*
X146947619Y-141684523D01*
X146900000Y-141732142D01*
X146852380Y-141827380D01*
X146852380Y-142779761D02*
X146852380Y-142875000D01*
X146900000Y-142970238D01*
X146947619Y-143017857D01*
X147042857Y-143065476D01*
X147233333Y-143113095D01*
X147471428Y-143113095D01*
X147661904Y-143065476D01*
X147757142Y-143017857D01*
X147804761Y-142970238D01*
X147852380Y-142875000D01*
X147852380Y-142779761D01*
X147804761Y-142684523D01*
X147757142Y-142636904D01*
X147661904Y-142589285D01*
X147471428Y-142541666D01*
X147233333Y-142541666D01*
X147042857Y-142589285D01*
X146947619Y-142636904D01*
X146900000Y-142684523D01*
X146852380Y-142779761D01*
X174252380Y-141257142D02*
X173776190Y-140923809D01*
X174252380Y-140685714D02*
X173252380Y-140685714D01*
X173252380Y-141066666D01*
X173300000Y-141161904D01*
X173347619Y-141209523D01*
X173442857Y-141257142D01*
X173585714Y-141257142D01*
X173680952Y-141209523D01*
X173728571Y-141161904D01*
X173776190Y-141066666D01*
X173776190Y-140685714D01*
X174252380Y-142209523D02*
X174252380Y-141638095D01*
X174252380Y-141923809D02*
X173252380Y-141923809D01*
X173395238Y-141828571D01*
X173490476Y-141733333D01*
X173538095Y-141638095D01*
X173347619Y-142590476D02*
X173300000Y-142638095D01*
X173252380Y-142733333D01*
X173252380Y-142971428D01*
X173300000Y-143066666D01*
X173347619Y-143114285D01*
X173442857Y-143161904D01*
X173538095Y-143161904D01*
X173680952Y-143114285D01*
X174252380Y-142542857D01*
X174252380Y-143161904D01*
X170702380Y-141333333D02*
X170702380Y-140761904D01*
X170702380Y-141047619D02*
X169702380Y-141047619D01*
X169845238Y-140952380D01*
X169940476Y-140857142D01*
X169988095Y-140761904D01*
X169702380Y-141952380D02*
X169702380Y-142047619D01*
X169750000Y-142142857D01*
X169797619Y-142190476D01*
X169892857Y-142238095D01*
X170083333Y-142285714D01*
X170321428Y-142285714D01*
X170511904Y-142238095D01*
X170607142Y-142190476D01*
X170654761Y-142142857D01*
X170702380Y-142047619D01*
X170702380Y-141952380D01*
X170654761Y-141857142D01*
X170607142Y-141809523D01*
X170511904Y-141761904D01*
X170321428Y-141714285D01*
X170083333Y-141714285D01*
X169892857Y-141761904D01*
X169797619Y-141809523D01*
X169750000Y-141857142D01*
X169702380Y-141952380D01*
X169702380Y-142904761D02*
X169702380Y-143000000D01*
X169750000Y-143095238D01*
X169797619Y-143142857D01*
X169892857Y-143190476D01*
X170083333Y-143238095D01*
X170321428Y-143238095D01*
X170511904Y-143190476D01*
X170607142Y-143142857D01*
X170654761Y-143095238D01*
X170702380Y-143000000D01*
X170702380Y-142904761D01*
X170654761Y-142809523D01*
X170607142Y-142761904D01*
X170511904Y-142714285D01*
X170321428Y-142666666D01*
X170083333Y-142666666D01*
X169892857Y-142714285D01*
X169797619Y-142761904D01*
X169750000Y-142809523D01*
X169702380Y-142904761D01*
X176838095Y-95002380D02*
X176838095Y-94002380D01*
X176504761Y-94716666D01*
X176171428Y-94002380D01*
X176171428Y-95002380D01*
X175123809Y-94907142D02*
X175171428Y-94954761D01*
X175314285Y-95002380D01*
X175409523Y-95002380D01*
X175552380Y-94954761D01*
X175647619Y-94859523D01*
X175695238Y-94764285D01*
X175742857Y-94573809D01*
X175742857Y-94430952D01*
X175695238Y-94240476D01*
X175647619Y-94145238D01*
X175552380Y-94050000D01*
X175409523Y-94002380D01*
X175314285Y-94002380D01*
X175171428Y-94050000D01*
X175123809Y-94097619D01*
X174695238Y-95002380D02*
X174695238Y-94002380D01*
X174314285Y-94002380D01*
X174219047Y-94050000D01*
X174171428Y-94097619D01*
X174123809Y-94192857D01*
X174123809Y-94335714D01*
X174171428Y-94430952D01*
X174219047Y-94478571D01*
X174314285Y-94526190D01*
X174695238Y-94526190D01*
X173266666Y-94002380D02*
X173457142Y-94002380D01*
X173552380Y-94050000D01*
X173600000Y-94097619D01*
X173695238Y-94240476D01*
X173742857Y-94430952D01*
X173742857Y-94811904D01*
X173695238Y-94907142D01*
X173647619Y-94954761D01*
X173552380Y-95002380D01*
X173361904Y-95002380D01*
X173266666Y-94954761D01*
X173219047Y-94907142D01*
X173171428Y-94811904D01*
X173171428Y-94573809D01*
X173219047Y-94478571D01*
X173266666Y-94430952D01*
X173361904Y-94383333D01*
X173552380Y-94383333D01*
X173647619Y-94430952D01*
X173695238Y-94478571D01*
X173742857Y-94573809D01*
X172552380Y-94002380D02*
X172457142Y-94002380D01*
X172361904Y-94050000D01*
X172314285Y-94097619D01*
X172266666Y-94192857D01*
X172219047Y-94383333D01*
X172219047Y-94621428D01*
X172266666Y-94811904D01*
X172314285Y-94907142D01*
X172361904Y-94954761D01*
X172457142Y-95002380D01*
X172552380Y-95002380D01*
X172647619Y-94954761D01*
X172695238Y-94907142D01*
X172742857Y-94811904D01*
X172790476Y-94621428D01*
X172790476Y-94383333D01*
X172742857Y-94192857D01*
X172695238Y-94097619D01*
X172647619Y-94050000D01*
X172552380Y-94002380D01*
X171600000Y-94002380D02*
X171504761Y-94002380D01*
X171409523Y-94050000D01*
X171361904Y-94097619D01*
X171314285Y-94192857D01*
X171266666Y-94383333D01*
X171266666Y-94621428D01*
X171314285Y-94811904D01*
X171361904Y-94907142D01*
X171409523Y-94954761D01*
X171504761Y-95002380D01*
X171600000Y-95002380D01*
X171695238Y-94954761D01*
X171742857Y-94907142D01*
X171790476Y-94811904D01*
X171838095Y-94621428D01*
X171838095Y-94383333D01*
X171790476Y-94192857D01*
X171742857Y-94097619D01*
X171695238Y-94050000D01*
X171600000Y-94002380D01*
X170409523Y-94335714D02*
X170409523Y-95002380D01*
X170647619Y-93954761D02*
X170885714Y-94669047D01*
X170266666Y-94669047D01*
X155944047Y-121602380D02*
X155372619Y-121602380D01*
X155658333Y-122602380D02*
X155658333Y-121602380D01*
X154563095Y-122602380D02*
X155039285Y-122602380D01*
X155039285Y-121602380D01*
X154039285Y-121602380D02*
X153944047Y-121602380D01*
X153848809Y-121650000D01*
X153801190Y-121697619D01*
X153753571Y-121792857D01*
X153705952Y-121983333D01*
X153705952Y-122221428D01*
X153753571Y-122411904D01*
X153801190Y-122507142D01*
X153848809Y-122554761D01*
X153944047Y-122602380D01*
X154039285Y-122602380D01*
X154134523Y-122554761D01*
X154182142Y-122507142D01*
X154229761Y-122411904D01*
X154277380Y-122221428D01*
X154277380Y-121983333D01*
X154229761Y-121792857D01*
X154182142Y-121697619D01*
X154134523Y-121650000D01*
X154039285Y-121602380D01*
X153372619Y-121602380D02*
X152705952Y-121602380D01*
X153134523Y-122602380D01*
X151896428Y-121935714D02*
X151896428Y-122602380D01*
X152134523Y-121554761D02*
X152372619Y-122269047D01*
X151753571Y-122269047D01*
X173876190Y-74952380D02*
X174352380Y-74952380D01*
X174352380Y-73952380D01*
X173542857Y-74952380D02*
X173542857Y-73952380D01*
X173209523Y-74666666D01*
X172876190Y-73952380D01*
X172876190Y-74952380D01*
X171876190Y-74952380D02*
X172447619Y-74952380D01*
X172161904Y-74952380D02*
X172161904Y-73952380D01*
X172257142Y-74095238D01*
X172352380Y-74190476D01*
X172447619Y-74238095D01*
X170923809Y-74952380D02*
X171495238Y-74952380D01*
X171209523Y-74952380D02*
X171209523Y-73952380D01*
X171304761Y-74095238D01*
X171400000Y-74190476D01*
X171495238Y-74238095D01*
X169971428Y-74952380D02*
X170542857Y-74952380D01*
X170257142Y-74952380D02*
X170257142Y-73952380D01*
X170352380Y-74095238D01*
X170447619Y-74190476D01*
X170542857Y-74238095D01*
X169638095Y-73952380D02*
X168971428Y-73952380D01*
X169400000Y-74952380D01*
X168590476Y-74571428D02*
X167828571Y-74571428D01*
X167447619Y-73952380D02*
X166828571Y-73952380D01*
X167161904Y-74333333D01*
X167019047Y-74333333D01*
X166923809Y-74380952D01*
X166876190Y-74428571D01*
X166828571Y-74523809D01*
X166828571Y-74761904D01*
X166876190Y-74857142D01*
X166923809Y-74904761D01*
X167019047Y-74952380D01*
X167304761Y-74952380D01*
X167400000Y-74904761D01*
X167447619Y-74857142D01*
X166400000Y-74857142D02*
X166352380Y-74904761D01*
X166400000Y-74952380D01*
X166447619Y-74904761D01*
X166400000Y-74857142D01*
X166400000Y-74952380D01*
X166019047Y-73952380D02*
X165400000Y-73952380D01*
X165733333Y-74333333D01*
X165590476Y-74333333D01*
X165495238Y-74380952D01*
X165447619Y-74428571D01*
X165400000Y-74523809D01*
X165400000Y-74761904D01*
X165447619Y-74857142D01*
X165495238Y-74904761D01*
X165590476Y-74952380D01*
X165876190Y-74952380D01*
X165971428Y-74904761D01*
X166019047Y-74857142D01*
X152585714Y-87957142D02*
X152633333Y-88004761D01*
X152776190Y-88052380D01*
X152871428Y-88052380D01*
X153014285Y-88004761D01*
X153109523Y-87909523D01*
X153157142Y-87814285D01*
X153204761Y-87623809D01*
X153204761Y-87480952D01*
X153157142Y-87290476D01*
X153109523Y-87195238D01*
X153014285Y-87100000D01*
X152871428Y-87052380D01*
X152776190Y-87052380D01*
X152633333Y-87100000D01*
X152585714Y-87147619D01*
X152157142Y-88052380D02*
X152157142Y-87385714D01*
X152157142Y-87576190D02*
X152109523Y-87480952D01*
X152061904Y-87433333D01*
X151966666Y-87385714D01*
X151871428Y-87385714D01*
X151633333Y-87385714D02*
X151395238Y-88052380D01*
X151157142Y-87385714D02*
X151395238Y-88052380D01*
X151490476Y-88290476D01*
X151538095Y-88338095D01*
X151633333Y-88385714D01*
X150823809Y-88004761D02*
X150728571Y-88052380D01*
X150538095Y-88052380D01*
X150442857Y-88004761D01*
X150395238Y-87909523D01*
X150395238Y-87861904D01*
X150442857Y-87766666D01*
X150538095Y-87719047D01*
X150680952Y-87719047D01*
X150776190Y-87671428D01*
X150823809Y-87576190D01*
X150823809Y-87528571D01*
X150776190Y-87433333D01*
X150680952Y-87385714D01*
X150538095Y-87385714D01*
X150442857Y-87433333D01*
X150109523Y-87385714D02*
X149728571Y-87385714D01*
X149966666Y-87052380D02*
X149966666Y-87909523D01*
X149919047Y-88004761D01*
X149823809Y-88052380D01*
X149728571Y-88052380D01*
X148966666Y-88052380D02*
X148966666Y-87528571D01*
X149014285Y-87433333D01*
X149109523Y-87385714D01*
X149300000Y-87385714D01*
X149395238Y-87433333D01*
X148966666Y-88004761D02*
X149061904Y-88052380D01*
X149300000Y-88052380D01*
X149395238Y-88004761D01*
X149442857Y-87909523D01*
X149442857Y-87814285D01*
X149395238Y-87719047D01*
X149300000Y-87671428D01*
X149061904Y-87671428D01*
X148966666Y-87623809D01*
X148347619Y-88052380D02*
X148442857Y-88004761D01*
X148490476Y-87909523D01*
X148490476Y-87052380D01*
M02*
