G04 #@! TF.GenerationSoftware,KiCad,Pcbnew,(5.1.0)-1*
G04 #@! TF.CreationDate,2019-07-28T15:16:17+01:00*
G04 #@! TF.ProjectId,oscar,6f736361-722e-46b6-9963-61645f706362,rev?*
G04 #@! TF.SameCoordinates,Original*
G04 #@! TF.FileFunction,Legend,Top*
G04 #@! TF.FilePolarity,Positive*
%FSLAX46Y46*%
G04 Gerber Fmt 4.6, Leading zero omitted, Abs format (unit mm)*
G04 Created by KiCad (PCBNEW (5.1.0)-1) date 2019-07-28 15:16:17*
%MOMM*%
%LPD*%
G04 APERTURE LIST*
%ADD10C,0.300000*%
%ADD11C,0.120000*%
%ADD12C,0.150000*%
%ADD13C,0.200000*%
G04 APERTURE END LIST*
D10*
X122237857Y-51503571D02*
X122523571Y-51503571D01*
X122666428Y-51575000D01*
X122809285Y-51717857D01*
X122880714Y-52003571D01*
X122880714Y-52503571D01*
X122809285Y-52789285D01*
X122666428Y-52932142D01*
X122523571Y-53003571D01*
X122237857Y-53003571D01*
X122095000Y-52932142D01*
X121952142Y-52789285D01*
X121880714Y-52503571D01*
X121880714Y-52003571D01*
X121952142Y-51717857D01*
X122095000Y-51575000D01*
X122237857Y-51503571D01*
X123452142Y-52932142D02*
X123595000Y-53003571D01*
X123880714Y-53003571D01*
X124023571Y-52932142D01*
X124095000Y-52789285D01*
X124095000Y-52717857D01*
X124023571Y-52575000D01*
X123880714Y-52503571D01*
X123666428Y-52503571D01*
X123523571Y-52432142D01*
X123452142Y-52289285D01*
X123452142Y-52217857D01*
X123523571Y-52075000D01*
X123666428Y-52003571D01*
X123880714Y-52003571D01*
X124023571Y-52075000D01*
X125380714Y-52932142D02*
X125237857Y-53003571D01*
X124952142Y-53003571D01*
X124809285Y-52932142D01*
X124737857Y-52860714D01*
X124666428Y-52717857D01*
X124666428Y-52289285D01*
X124737857Y-52146428D01*
X124809285Y-52075000D01*
X124952142Y-52003571D01*
X125237857Y-52003571D01*
X125380714Y-52075000D01*
X126666428Y-53003571D02*
X126666428Y-52217857D01*
X126595000Y-52075000D01*
X126452142Y-52003571D01*
X126166428Y-52003571D01*
X126023571Y-52075000D01*
X126666428Y-52932142D02*
X126523571Y-53003571D01*
X126166428Y-53003571D01*
X126023571Y-52932142D01*
X125952142Y-52789285D01*
X125952142Y-52646428D01*
X126023571Y-52503571D01*
X126166428Y-52432142D01*
X126523571Y-52432142D01*
X126666428Y-52360714D01*
X127380714Y-53003571D02*
X127380714Y-52003571D01*
X127380714Y-52289285D02*
X127452142Y-52146428D01*
X127523571Y-52075000D01*
X127666428Y-52003571D01*
X127809285Y-52003571D01*
X129309285Y-52003571D02*
X129666428Y-53003571D01*
X130023571Y-52003571D01*
X131380714Y-53003571D02*
X130523571Y-53003571D01*
X130952142Y-53003571D02*
X130952142Y-51503571D01*
X130809285Y-51717857D01*
X130666428Y-51860714D01*
X130523571Y-51932142D01*
X121952142Y-55553571D02*
X121952142Y-54053571D01*
X122452142Y-55125000D01*
X122952142Y-54053571D01*
X122952142Y-55553571D01*
X123880714Y-55553571D02*
X123737857Y-55482142D01*
X123666428Y-55410714D01*
X123595000Y-55267857D01*
X123595000Y-54839285D01*
X123666428Y-54696428D01*
X123737857Y-54625000D01*
X123880714Y-54553571D01*
X124095000Y-54553571D01*
X124237857Y-54625000D01*
X124309285Y-54696428D01*
X124380714Y-54839285D01*
X124380714Y-55267857D01*
X124309285Y-55410714D01*
X124237857Y-55482142D01*
X124095000Y-55553571D01*
X123880714Y-55553571D01*
X125666428Y-54553571D02*
X125666428Y-55553571D01*
X125023571Y-54553571D02*
X125023571Y-55339285D01*
X125095000Y-55482142D01*
X125237857Y-55553571D01*
X125452142Y-55553571D01*
X125595000Y-55482142D01*
X125666428Y-55410714D01*
X126380714Y-54553571D02*
X126380714Y-55553571D01*
X126380714Y-54696428D02*
X126452142Y-54625000D01*
X126595000Y-54553571D01*
X126809285Y-54553571D01*
X126952142Y-54625000D01*
X127023571Y-54767857D01*
X127023571Y-55553571D01*
X127523571Y-54553571D02*
X128095000Y-54553571D01*
X127737857Y-54053571D02*
X127737857Y-55339285D01*
X127809285Y-55482142D01*
X127952142Y-55553571D01*
X128095000Y-55553571D01*
X128595000Y-54553571D02*
X128595000Y-55839285D01*
X128523571Y-55982142D01*
X128380714Y-56053571D01*
X128309285Y-56053571D01*
X128595000Y-54053571D02*
X128523571Y-54125000D01*
X128595000Y-54196428D01*
X128666428Y-54125000D01*
X128595000Y-54053571D01*
X128595000Y-54196428D01*
X129523571Y-55553571D02*
X129380714Y-55482142D01*
X129309285Y-55410714D01*
X129237857Y-55267857D01*
X129237857Y-54839285D01*
X129309285Y-54696428D01*
X129380714Y-54625000D01*
X129523571Y-54553571D01*
X129737857Y-54553571D01*
X129880714Y-54625000D01*
X129952142Y-54696428D01*
X130023571Y-54839285D01*
X130023571Y-55267857D01*
X129952142Y-55410714D01*
X129880714Y-55482142D01*
X129737857Y-55553571D01*
X129523571Y-55553571D01*
X130523571Y-54553571D02*
X130880714Y-55553571D01*
X131237857Y-54553571D02*
X130880714Y-55553571D01*
X130737857Y-55910714D01*
X130666428Y-55982142D01*
X130523571Y-56053571D01*
X132952142Y-55553571D02*
X132952142Y-54053571D01*
X133452142Y-55125000D01*
X133952142Y-54053571D01*
X133952142Y-55553571D01*
X134880714Y-55553571D02*
X134737857Y-55482142D01*
X134666428Y-55410714D01*
X134595000Y-55267857D01*
X134595000Y-54839285D01*
X134666428Y-54696428D01*
X134737857Y-54625000D01*
X134880714Y-54553571D01*
X135095000Y-54553571D01*
X135237857Y-54625000D01*
X135309285Y-54696428D01*
X135380714Y-54839285D01*
X135380714Y-55267857D01*
X135309285Y-55410714D01*
X135237857Y-55482142D01*
X135095000Y-55553571D01*
X134880714Y-55553571D01*
X136666428Y-55553571D02*
X136666428Y-54053571D01*
X136666428Y-55482142D02*
X136523571Y-55553571D01*
X136237857Y-55553571D01*
X136095000Y-55482142D01*
X136023571Y-55410714D01*
X135952142Y-55267857D01*
X135952142Y-54839285D01*
X136023571Y-54696428D01*
X136095000Y-54625000D01*
X136237857Y-54553571D01*
X136523571Y-54553571D01*
X136666428Y-54625000D01*
X138023571Y-54553571D02*
X138023571Y-55553571D01*
X137380714Y-54553571D02*
X137380714Y-55339285D01*
X137452142Y-55482142D01*
X137595000Y-55553571D01*
X137809285Y-55553571D01*
X137952142Y-55482142D01*
X138023571Y-55410714D01*
X138952142Y-55553571D02*
X138809285Y-55482142D01*
X138737857Y-55339285D01*
X138737857Y-54053571D01*
X140166428Y-55553571D02*
X140166428Y-54767857D01*
X140095000Y-54625000D01*
X139952142Y-54553571D01*
X139666428Y-54553571D01*
X139523571Y-54625000D01*
X140166428Y-55482142D02*
X140023571Y-55553571D01*
X139666428Y-55553571D01*
X139523571Y-55482142D01*
X139452142Y-55339285D01*
X139452142Y-55196428D01*
X139523571Y-55053571D01*
X139666428Y-54982142D01*
X140023571Y-54982142D01*
X140166428Y-54910714D01*
X140880714Y-55553571D02*
X140880714Y-54553571D01*
X140880714Y-54839285D02*
X140952142Y-54696428D01*
X141023571Y-54625000D01*
X141166428Y-54553571D01*
X141309285Y-54553571D01*
X183035714Y-127678571D02*
X183035714Y-126178571D01*
X183535714Y-127250000D01*
X184035714Y-126178571D01*
X184035714Y-127678571D01*
X184750000Y-127678571D02*
X184750000Y-126178571D01*
X185464285Y-127678571D02*
X185464285Y-126178571D01*
X185821428Y-126178571D01*
X186035714Y-126250000D01*
X186178571Y-126392857D01*
X186250000Y-126535714D01*
X186321428Y-126821428D01*
X186321428Y-127035714D01*
X186250000Y-127321428D01*
X186178571Y-127464285D01*
X186035714Y-127607142D01*
X185821428Y-127678571D01*
X185464285Y-127678571D01*
X186964285Y-127678571D02*
X186964285Y-126178571D01*
X183142857Y-158678571D02*
X182642857Y-157964285D01*
X182285714Y-158678571D02*
X182285714Y-157178571D01*
X182857142Y-157178571D01*
X183000000Y-157250000D01*
X183071428Y-157321428D01*
X183142857Y-157464285D01*
X183142857Y-157678571D01*
X183071428Y-157821428D01*
X183000000Y-157892857D01*
X182857142Y-157964285D01*
X182285714Y-157964285D01*
X184357142Y-158607142D02*
X184214285Y-158678571D01*
X183928571Y-158678571D01*
X183785714Y-158607142D01*
X183714285Y-158464285D01*
X183714285Y-157892857D01*
X183785714Y-157750000D01*
X183928571Y-157678571D01*
X184214285Y-157678571D01*
X184357142Y-157750000D01*
X184428571Y-157892857D01*
X184428571Y-158035714D01*
X183714285Y-158178571D01*
X185000000Y-158607142D02*
X185142857Y-158678571D01*
X185428571Y-158678571D01*
X185571428Y-158607142D01*
X185642857Y-158464285D01*
X185642857Y-158392857D01*
X185571428Y-158250000D01*
X185428571Y-158178571D01*
X185214285Y-158178571D01*
X185071428Y-158107142D01*
X185000000Y-157964285D01*
X185000000Y-157892857D01*
X185071428Y-157750000D01*
X185214285Y-157678571D01*
X185428571Y-157678571D01*
X185571428Y-157750000D01*
X186857142Y-158607142D02*
X186714285Y-158678571D01*
X186428571Y-158678571D01*
X186285714Y-158607142D01*
X186214285Y-158464285D01*
X186214285Y-157892857D01*
X186285714Y-157750000D01*
X186428571Y-157678571D01*
X186714285Y-157678571D01*
X186857142Y-157750000D01*
X186928571Y-157892857D01*
X186928571Y-158035714D01*
X186214285Y-158178571D01*
X187357142Y-157678571D02*
X187928571Y-157678571D01*
X187571428Y-157178571D02*
X187571428Y-158464285D01*
X187642857Y-158607142D01*
X187785714Y-158678571D01*
X187928571Y-158678571D01*
X160392857Y-158535714D02*
X160321428Y-158607142D01*
X160107142Y-158678571D01*
X159964285Y-158678571D01*
X159750000Y-158607142D01*
X159607142Y-158464285D01*
X159535714Y-158321428D01*
X159464285Y-158035714D01*
X159464285Y-157821428D01*
X159535714Y-157535714D01*
X159607142Y-157392857D01*
X159750000Y-157250000D01*
X159964285Y-157178571D01*
X160107142Y-157178571D01*
X160321428Y-157250000D01*
X160392857Y-157321428D01*
X161035714Y-158678571D02*
X161035714Y-157178571D01*
X161678571Y-158678571D02*
X161678571Y-157892857D01*
X161607142Y-157750000D01*
X161464285Y-157678571D01*
X161250000Y-157678571D01*
X161107142Y-157750000D01*
X161035714Y-157821428D01*
X163035714Y-158678571D02*
X163035714Y-157892857D01*
X162964285Y-157750000D01*
X162821428Y-157678571D01*
X162535714Y-157678571D01*
X162392857Y-157750000D01*
X163035714Y-158607142D02*
X162892857Y-158678571D01*
X162535714Y-158678571D01*
X162392857Y-158607142D01*
X162321428Y-158464285D01*
X162321428Y-158321428D01*
X162392857Y-158178571D01*
X162535714Y-158107142D01*
X162892857Y-158107142D01*
X163035714Y-158035714D01*
X163750000Y-157678571D02*
X163750000Y-158678571D01*
X163750000Y-157821428D02*
X163821428Y-157750000D01*
X163964285Y-157678571D01*
X164178571Y-157678571D01*
X164321428Y-157750000D01*
X164392857Y-157892857D01*
X164392857Y-158678571D01*
X165107142Y-157678571D02*
X165107142Y-158678571D01*
X165107142Y-157821428D02*
X165178571Y-157750000D01*
X165321428Y-157678571D01*
X165535714Y-157678571D01*
X165678571Y-157750000D01*
X165750000Y-157892857D01*
X165750000Y-158678571D01*
X167035714Y-158607142D02*
X166892857Y-158678571D01*
X166607142Y-158678571D01*
X166464285Y-158607142D01*
X166392857Y-158464285D01*
X166392857Y-157892857D01*
X166464285Y-157750000D01*
X166607142Y-157678571D01*
X166892857Y-157678571D01*
X167035714Y-157750000D01*
X167107142Y-157892857D01*
X167107142Y-158035714D01*
X166392857Y-158178571D01*
X167964285Y-158678571D02*
X167821428Y-158607142D01*
X167750000Y-158464285D01*
X167750000Y-157178571D01*
X170535714Y-158535714D02*
X170464285Y-158607142D01*
X170250000Y-158678571D01*
X170107142Y-158678571D01*
X169892857Y-158607142D01*
X169750000Y-158464285D01*
X169678571Y-158321428D01*
X169607142Y-158035714D01*
X169607142Y-157821428D01*
X169678571Y-157535714D01*
X169750000Y-157392857D01*
X169892857Y-157250000D01*
X170107142Y-157178571D01*
X170250000Y-157178571D01*
X170464285Y-157250000D01*
X170535714Y-157321428D01*
X145392857Y-158535714D02*
X145321428Y-158607142D01*
X145107142Y-158678571D01*
X144964285Y-158678571D01*
X144750000Y-158607142D01*
X144607142Y-158464285D01*
X144535714Y-158321428D01*
X144464285Y-158035714D01*
X144464285Y-157821428D01*
X144535714Y-157535714D01*
X144607142Y-157392857D01*
X144750000Y-157250000D01*
X144964285Y-157178571D01*
X145107142Y-157178571D01*
X145321428Y-157250000D01*
X145392857Y-157321428D01*
X146035714Y-158678571D02*
X146035714Y-157178571D01*
X146678571Y-158678571D02*
X146678571Y-157892857D01*
X146607142Y-157750000D01*
X146464285Y-157678571D01*
X146250000Y-157678571D01*
X146107142Y-157750000D01*
X146035714Y-157821428D01*
X148035714Y-158678571D02*
X148035714Y-157892857D01*
X147964285Y-157750000D01*
X147821428Y-157678571D01*
X147535714Y-157678571D01*
X147392857Y-157750000D01*
X148035714Y-158607142D02*
X147892857Y-158678571D01*
X147535714Y-158678571D01*
X147392857Y-158607142D01*
X147321428Y-158464285D01*
X147321428Y-158321428D01*
X147392857Y-158178571D01*
X147535714Y-158107142D01*
X147892857Y-158107142D01*
X148035714Y-158035714D01*
X148750000Y-157678571D02*
X148750000Y-158678571D01*
X148750000Y-157821428D02*
X148821428Y-157750000D01*
X148964285Y-157678571D01*
X149178571Y-157678571D01*
X149321428Y-157750000D01*
X149392857Y-157892857D01*
X149392857Y-158678571D01*
X150107142Y-157678571D02*
X150107142Y-158678571D01*
X150107142Y-157821428D02*
X150178571Y-157750000D01*
X150321428Y-157678571D01*
X150535714Y-157678571D01*
X150678571Y-157750000D01*
X150750000Y-157892857D01*
X150750000Y-158678571D01*
X152035714Y-158607142D02*
X151892857Y-158678571D01*
X151607142Y-158678571D01*
X151464285Y-158607142D01*
X151392857Y-158464285D01*
X151392857Y-157892857D01*
X151464285Y-157750000D01*
X151607142Y-157678571D01*
X151892857Y-157678571D01*
X152035714Y-157750000D01*
X152107142Y-157892857D01*
X152107142Y-158035714D01*
X151392857Y-158178571D01*
X152964285Y-158678571D02*
X152821428Y-158607142D01*
X152750000Y-158464285D01*
X152750000Y-157178571D01*
X155178571Y-157892857D02*
X155392857Y-157964285D01*
X155464285Y-158035714D01*
X155535714Y-158178571D01*
X155535714Y-158392857D01*
X155464285Y-158535714D01*
X155392857Y-158607142D01*
X155250000Y-158678571D01*
X154678571Y-158678571D01*
X154678571Y-157178571D01*
X155178571Y-157178571D01*
X155321428Y-157250000D01*
X155392857Y-157321428D01*
X155464285Y-157464285D01*
X155464285Y-157607142D01*
X155392857Y-157750000D01*
X155321428Y-157821428D01*
X155178571Y-157892857D01*
X154678571Y-157892857D01*
X130500000Y-158535714D02*
X130428571Y-158607142D01*
X130214285Y-158678571D01*
X130071428Y-158678571D01*
X129857142Y-158607142D01*
X129714285Y-158464285D01*
X129642857Y-158321428D01*
X129571428Y-158035714D01*
X129571428Y-157821428D01*
X129642857Y-157535714D01*
X129714285Y-157392857D01*
X129857142Y-157250000D01*
X130071428Y-157178571D01*
X130214285Y-157178571D01*
X130428571Y-157250000D01*
X130500000Y-157321428D01*
X131142857Y-158678571D02*
X131142857Y-157178571D01*
X131785714Y-158678571D02*
X131785714Y-157892857D01*
X131714285Y-157750000D01*
X131571428Y-157678571D01*
X131357142Y-157678571D01*
X131214285Y-157750000D01*
X131142857Y-157821428D01*
X133142857Y-158678571D02*
X133142857Y-157892857D01*
X133071428Y-157750000D01*
X132928571Y-157678571D01*
X132642857Y-157678571D01*
X132500000Y-157750000D01*
X133142857Y-158607142D02*
X133000000Y-158678571D01*
X132642857Y-158678571D01*
X132500000Y-158607142D01*
X132428571Y-158464285D01*
X132428571Y-158321428D01*
X132500000Y-158178571D01*
X132642857Y-158107142D01*
X133000000Y-158107142D01*
X133142857Y-158035714D01*
X133857142Y-157678571D02*
X133857142Y-158678571D01*
X133857142Y-157821428D02*
X133928571Y-157750000D01*
X134071428Y-157678571D01*
X134285714Y-157678571D01*
X134428571Y-157750000D01*
X134500000Y-157892857D01*
X134500000Y-158678571D01*
X135214285Y-157678571D02*
X135214285Y-158678571D01*
X135214285Y-157821428D02*
X135285714Y-157750000D01*
X135428571Y-157678571D01*
X135642857Y-157678571D01*
X135785714Y-157750000D01*
X135857142Y-157892857D01*
X135857142Y-158678571D01*
X137142857Y-158607142D02*
X137000000Y-158678571D01*
X136714285Y-158678571D01*
X136571428Y-158607142D01*
X136500000Y-158464285D01*
X136500000Y-157892857D01*
X136571428Y-157750000D01*
X136714285Y-157678571D01*
X137000000Y-157678571D01*
X137142857Y-157750000D01*
X137214285Y-157892857D01*
X137214285Y-158035714D01*
X136500000Y-158178571D01*
X138071428Y-158678571D02*
X137928571Y-158607142D01*
X137857142Y-158464285D01*
X137857142Y-157178571D01*
X139714285Y-158250000D02*
X140428571Y-158250000D01*
X139571428Y-158678571D02*
X140071428Y-157178571D01*
X140571428Y-158678571D01*
D11*
X121000000Y-100000000D02*
X121000000Y-57000000D01*
X198000000Y-100000000D02*
X121000000Y-100000000D01*
X198000000Y-57000000D02*
X198000000Y-100000000D01*
X121000000Y-57000000D02*
X198000000Y-57000000D01*
X137950000Y-98510000D02*
X137950000Y-58510000D01*
X189950000Y-98510000D02*
X137950000Y-98510000D01*
X189950000Y-58510000D02*
X189950000Y-98510000D01*
X137950000Y-58510000D02*
X189950000Y-58510000D01*
D12*
X136300000Y-135000000D02*
G75*
G03X136300000Y-135000000I-1300000J0D01*
G01*
X130500000Y-129000000D02*
X139500000Y-129000000D01*
X130500000Y-139500000D02*
X139500000Y-139500000D01*
X130500000Y-129000000D02*
X130500000Y-139500000D01*
X139500000Y-129000000D02*
X139500000Y-139500000D01*
X136796051Y-135000000D02*
G75*
G03X136796051Y-135000000I-1796051J0D01*
G01*
X133095000Y-133095000D02*
X136905000Y-133095000D01*
X136905000Y-136905000D02*
X133095000Y-136905000D01*
X133095000Y-133095000D02*
G75*
G03X133095000Y-136905000I1905000J-1905000D01*
G01*
X136905000Y-136905000D02*
G75*
G03X136905000Y-133095000I-1905000J1905000D01*
G01*
X136905000Y-138810000D02*
X139445000Y-138810000D01*
X136905000Y-139445000D02*
X136905000Y-138810000D01*
X133095000Y-139445000D02*
X136905000Y-139445000D01*
X133095000Y-138810000D02*
X133095000Y-139445000D01*
X130555000Y-138810000D02*
X133095000Y-138810000D01*
X151300000Y-135000000D02*
G75*
G03X151300000Y-135000000I-1300000J0D01*
G01*
X145500000Y-129000000D02*
X154500000Y-129000000D01*
X145500000Y-139500000D02*
X154500000Y-139500000D01*
X145500000Y-129000000D02*
X145500000Y-139500000D01*
X154500000Y-129000000D02*
X154500000Y-139500000D01*
X151796051Y-135000000D02*
G75*
G03X151796051Y-135000000I-1796051J0D01*
G01*
X148095000Y-133095000D02*
X151905000Y-133095000D01*
X151905000Y-136905000D02*
X148095000Y-136905000D01*
X148095000Y-133095000D02*
G75*
G03X148095000Y-136905000I1905000J-1905000D01*
G01*
X151905000Y-136905000D02*
G75*
G03X151905000Y-133095000I-1905000J1905000D01*
G01*
X151905000Y-138810000D02*
X154445000Y-138810000D01*
X151905000Y-139445000D02*
X151905000Y-138810000D01*
X148095000Y-139445000D02*
X151905000Y-139445000D01*
X148095000Y-138810000D02*
X148095000Y-139445000D01*
X145555000Y-138810000D02*
X148095000Y-138810000D01*
X166300000Y-135000000D02*
G75*
G03X166300000Y-135000000I-1300000J0D01*
G01*
X160500000Y-129000000D02*
X169500000Y-129000000D01*
X160500000Y-139500000D02*
X169500000Y-139500000D01*
X160500000Y-129000000D02*
X160500000Y-139500000D01*
X169500000Y-129000000D02*
X169500000Y-139500000D01*
X166796051Y-135000000D02*
G75*
G03X166796051Y-135000000I-1796051J0D01*
G01*
X163095000Y-133095000D02*
X166905000Y-133095000D01*
X166905000Y-136905000D02*
X163095000Y-136905000D01*
X163095000Y-133095000D02*
G75*
G03X163095000Y-136905000I1905000J-1905000D01*
G01*
X166905000Y-136905000D02*
G75*
G03X166905000Y-133095000I-1905000J1905000D01*
G01*
X166905000Y-138810000D02*
X169445000Y-138810000D01*
X166905000Y-139445000D02*
X166905000Y-138810000D01*
X163095000Y-139445000D02*
X166905000Y-139445000D01*
X163095000Y-138810000D02*
X163095000Y-139445000D01*
X160555000Y-138810000D02*
X163095000Y-138810000D01*
X130555000Y-152810000D02*
X133095000Y-152810000D01*
X133095000Y-152810000D02*
X133095000Y-153445000D01*
X133095000Y-153445000D02*
X136905000Y-153445000D01*
X136905000Y-153445000D02*
X136905000Y-152810000D01*
X136905000Y-152810000D02*
X139445000Y-152810000D01*
X136905000Y-150905000D02*
G75*
G03X136905000Y-147095000I-1905000J1905000D01*
G01*
X133095000Y-147095000D02*
G75*
G03X133095000Y-150905000I1905000J-1905000D01*
G01*
X136905000Y-150905000D02*
X133095000Y-150905000D01*
X133095000Y-147095000D02*
X136905000Y-147095000D01*
X136796051Y-149000000D02*
G75*
G03X136796051Y-149000000I-1796051J0D01*
G01*
X139500000Y-143000000D02*
X139500000Y-153500000D01*
X130500000Y-143000000D02*
X130500000Y-153500000D01*
X130500000Y-153500000D02*
X139500000Y-153500000D01*
X130500000Y-143000000D02*
X139500000Y-143000000D01*
X136300000Y-149000000D02*
G75*
G03X136300000Y-149000000I-1300000J0D01*
G01*
X145555000Y-152810000D02*
X148095000Y-152810000D01*
X148095000Y-152810000D02*
X148095000Y-153445000D01*
X148095000Y-153445000D02*
X151905000Y-153445000D01*
X151905000Y-153445000D02*
X151905000Y-152810000D01*
X151905000Y-152810000D02*
X154445000Y-152810000D01*
X151905000Y-150905000D02*
G75*
G03X151905000Y-147095000I-1905000J1905000D01*
G01*
X148095000Y-147095000D02*
G75*
G03X148095000Y-150905000I1905000J-1905000D01*
G01*
X151905000Y-150905000D02*
X148095000Y-150905000D01*
X148095000Y-147095000D02*
X151905000Y-147095000D01*
X151796051Y-149000000D02*
G75*
G03X151796051Y-149000000I-1796051J0D01*
G01*
X154500000Y-143000000D02*
X154500000Y-153500000D01*
X145500000Y-143000000D02*
X145500000Y-153500000D01*
X145500000Y-153500000D02*
X154500000Y-153500000D01*
X145500000Y-143000000D02*
X154500000Y-143000000D01*
X151300000Y-149000000D02*
G75*
G03X151300000Y-149000000I-1300000J0D01*
G01*
X160555000Y-152810000D02*
X163095000Y-152810000D01*
X163095000Y-152810000D02*
X163095000Y-153445000D01*
X163095000Y-153445000D02*
X166905000Y-153445000D01*
X166905000Y-153445000D02*
X166905000Y-152810000D01*
X166905000Y-152810000D02*
X169445000Y-152810000D01*
X166905000Y-150905000D02*
G75*
G03X166905000Y-147095000I-1905000J1905000D01*
G01*
X163095000Y-147095000D02*
G75*
G03X163095000Y-150905000I1905000J-1905000D01*
G01*
X166905000Y-150905000D02*
X163095000Y-150905000D01*
X163095000Y-147095000D02*
X166905000Y-147095000D01*
X166796051Y-149000000D02*
G75*
G03X166796051Y-149000000I-1796051J0D01*
G01*
X169500000Y-143000000D02*
X169500000Y-153500000D01*
X160500000Y-143000000D02*
X160500000Y-153500000D01*
X160500000Y-153500000D02*
X169500000Y-153500000D01*
X160500000Y-143000000D02*
X169500000Y-143000000D01*
X166300000Y-149000000D02*
G75*
G03X166300000Y-149000000I-1300000J0D01*
G01*
X180555000Y-138810000D02*
X183095000Y-138810000D01*
X183095000Y-138810000D02*
X183095000Y-139445000D01*
X183095000Y-139445000D02*
X186905000Y-139445000D01*
X186905000Y-139445000D02*
X186905000Y-138810000D01*
X186905000Y-138810000D02*
X189445000Y-138810000D01*
X186905000Y-136905000D02*
G75*
G03X186905000Y-133095000I-1905000J1905000D01*
G01*
X183095000Y-133095000D02*
G75*
G03X183095000Y-136905000I1905000J-1905000D01*
G01*
X186905000Y-136905000D02*
X183095000Y-136905000D01*
X183095000Y-133095000D02*
X186905000Y-133095000D01*
X186796051Y-135000000D02*
G75*
G03X186796051Y-135000000I-1796051J0D01*
G01*
X189500000Y-129000000D02*
X189500000Y-139500000D01*
X180500000Y-129000000D02*
X180500000Y-139500000D01*
X180500000Y-139500000D02*
X189500000Y-139500000D01*
X180500000Y-129000000D02*
X189500000Y-129000000D01*
X186300000Y-135000000D02*
G75*
G03X186300000Y-135000000I-1300000J0D01*
G01*
D13*
X139000000Y-114000000D02*
G75*
G03X139000000Y-114000000I-3000000J0D01*
G01*
X133400000Y-112500000D02*
X138600000Y-112500000D01*
X142200000Y-108200000D02*
G75*
G03X141400000Y-107400000I-800000J0D01*
G01*
X141400000Y-120600000D02*
G75*
G03X142200000Y-119800000I0J800000D01*
G01*
X129800000Y-119800000D02*
G75*
G03X130600000Y-120600000I800000J0D01*
G01*
X130600000Y-107400000D02*
G75*
G03X129800000Y-108200000I0J-800000D01*
G01*
X130600000Y-120600000D02*
X141400000Y-120600000D01*
X130600000Y-107400000D02*
X141400000Y-107400000D01*
X142200000Y-108200000D02*
X142200000Y-119800000D01*
X129800000Y-119800000D02*
X129800000Y-108200000D01*
X132400000Y-108950000D02*
G75*
G03X132400000Y-108950000I-500000J0D01*
G01*
X140600000Y-108950000D02*
G75*
G03X140600000Y-108950000I-500000J0D01*
G01*
X140600000Y-119150000D02*
G75*
G03X140600000Y-119150000I-500000J0D01*
G01*
X132400000Y-119150000D02*
G75*
G03X132400000Y-119150000I-500000J0D01*
G01*
X180400000Y-119150000D02*
G75*
G03X180400000Y-119150000I-500000J0D01*
G01*
X188600000Y-119150000D02*
G75*
G03X188600000Y-119150000I-500000J0D01*
G01*
X188600000Y-108950000D02*
G75*
G03X188600000Y-108950000I-500000J0D01*
G01*
X180400000Y-108950000D02*
G75*
G03X180400000Y-108950000I-500000J0D01*
G01*
X177800000Y-119800000D02*
X177800000Y-108200000D01*
X190200000Y-108200000D02*
X190200000Y-119800000D01*
X178600000Y-107400000D02*
X189400000Y-107400000D01*
X178600000Y-120600000D02*
X189400000Y-120600000D01*
X178600000Y-107400000D02*
G75*
G03X177800000Y-108200000I0J-800000D01*
G01*
X177800000Y-119800000D02*
G75*
G03X178600000Y-120600000I800000J0D01*
G01*
X189400000Y-120600000D02*
G75*
G03X190200000Y-119800000I0J800000D01*
G01*
X190200000Y-108200000D02*
G75*
G03X189400000Y-107400000I-800000J0D01*
G01*
X181400000Y-112500000D02*
X186600000Y-112500000D01*
X187000000Y-114000000D02*
G75*
G03X187000000Y-114000000I-3000000J0D01*
G01*
D11*
X188500000Y-151250000D02*
X188500000Y-149750000D01*
X187250000Y-147250000D02*
X182750000Y-147250000D01*
X181500000Y-149750000D02*
X181500000Y-151250000D01*
X182750000Y-153750000D02*
X187250000Y-153750000D01*
D12*
X138476666Y-140802380D02*
X138476666Y-141516666D01*
X138429047Y-141659523D01*
X138333809Y-141754761D01*
X138190952Y-141802380D01*
X138095714Y-141802380D01*
X138905238Y-140897619D02*
X138952857Y-140850000D01*
X139048095Y-140802380D01*
X139286190Y-140802380D01*
X139381428Y-140850000D01*
X139429047Y-140897619D01*
X139476666Y-140992857D01*
X139476666Y-141088095D01*
X139429047Y-141230952D01*
X138857619Y-141802380D01*
X139476666Y-141802380D01*
X153476666Y-140802380D02*
X153476666Y-141516666D01*
X153429047Y-141659523D01*
X153333809Y-141754761D01*
X153190952Y-141802380D01*
X153095714Y-141802380D01*
X153857619Y-140802380D02*
X154476666Y-140802380D01*
X154143333Y-141183333D01*
X154286190Y-141183333D01*
X154381428Y-141230952D01*
X154429047Y-141278571D01*
X154476666Y-141373809D01*
X154476666Y-141611904D01*
X154429047Y-141707142D01*
X154381428Y-141754761D01*
X154286190Y-141802380D01*
X154000476Y-141802380D01*
X153905238Y-141754761D01*
X153857619Y-141707142D01*
X168476666Y-140802380D02*
X168476666Y-141516666D01*
X168429047Y-141659523D01*
X168333809Y-141754761D01*
X168190952Y-141802380D01*
X168095714Y-141802380D01*
X169381428Y-141135714D02*
X169381428Y-141802380D01*
X169143333Y-140754761D02*
X168905238Y-141469047D01*
X169524285Y-141469047D01*
X138476666Y-154802380D02*
X138476666Y-155516666D01*
X138429047Y-155659523D01*
X138333809Y-155754761D01*
X138190952Y-155802380D01*
X138095714Y-155802380D01*
X139429047Y-154802380D02*
X138952857Y-154802380D01*
X138905238Y-155278571D01*
X138952857Y-155230952D01*
X139048095Y-155183333D01*
X139286190Y-155183333D01*
X139381428Y-155230952D01*
X139429047Y-155278571D01*
X139476666Y-155373809D01*
X139476666Y-155611904D01*
X139429047Y-155707142D01*
X139381428Y-155754761D01*
X139286190Y-155802380D01*
X139048095Y-155802380D01*
X138952857Y-155754761D01*
X138905238Y-155707142D01*
X153476666Y-154802380D02*
X153476666Y-155516666D01*
X153429047Y-155659523D01*
X153333809Y-155754761D01*
X153190952Y-155802380D01*
X153095714Y-155802380D01*
X154381428Y-154802380D02*
X154190952Y-154802380D01*
X154095714Y-154850000D01*
X154048095Y-154897619D01*
X153952857Y-155040476D01*
X153905238Y-155230952D01*
X153905238Y-155611904D01*
X153952857Y-155707142D01*
X154000476Y-155754761D01*
X154095714Y-155802380D01*
X154286190Y-155802380D01*
X154381428Y-155754761D01*
X154429047Y-155707142D01*
X154476666Y-155611904D01*
X154476666Y-155373809D01*
X154429047Y-155278571D01*
X154381428Y-155230952D01*
X154286190Y-155183333D01*
X154095714Y-155183333D01*
X154000476Y-155230952D01*
X153952857Y-155278571D01*
X153905238Y-155373809D01*
X168476666Y-154802380D02*
X168476666Y-155516666D01*
X168429047Y-155659523D01*
X168333809Y-155754761D01*
X168190952Y-155802380D01*
X168095714Y-155802380D01*
X168857619Y-154802380D02*
X169524285Y-154802380D01*
X169095714Y-155802380D01*
X188476666Y-140802380D02*
X188476666Y-141516666D01*
X188429047Y-141659523D01*
X188333809Y-141754761D01*
X188190952Y-141802380D01*
X188095714Y-141802380D01*
X189095714Y-141230952D02*
X189000476Y-141183333D01*
X188952857Y-141135714D01*
X188905238Y-141040476D01*
X188905238Y-140992857D01*
X188952857Y-140897619D01*
X189000476Y-140850000D01*
X189095714Y-140802380D01*
X189286190Y-140802380D01*
X189381428Y-140850000D01*
X189429047Y-140897619D01*
X189476666Y-140992857D01*
X189476666Y-141040476D01*
X189429047Y-141135714D01*
X189381428Y-141183333D01*
X189286190Y-141230952D01*
X189095714Y-141230952D01*
X189000476Y-141278571D01*
X188952857Y-141326190D01*
X188905238Y-141421428D01*
X188905238Y-141611904D01*
X188952857Y-141707142D01*
X189000476Y-141754761D01*
X189095714Y-141802380D01*
X189286190Y-141802380D01*
X189381428Y-141754761D01*
X189429047Y-141707142D01*
X189476666Y-141611904D01*
X189476666Y-141421428D01*
X189429047Y-141326190D01*
X189381428Y-141278571D01*
X189286190Y-141230952D01*
D13*
X134666666Y-105304761D02*
X134809523Y-105352380D01*
X135047619Y-105352380D01*
X135142857Y-105304761D01*
X135190476Y-105257142D01*
X135238095Y-105161904D01*
X135238095Y-105066666D01*
X135190476Y-104971428D01*
X135142857Y-104923809D01*
X135047619Y-104876190D01*
X134857142Y-104828571D01*
X134761904Y-104780952D01*
X134714285Y-104733333D01*
X134666666Y-104638095D01*
X134666666Y-104542857D01*
X134714285Y-104447619D01*
X134761904Y-104400000D01*
X134857142Y-104352380D01*
X135095238Y-104352380D01*
X135238095Y-104400000D01*
X135571428Y-104352380D02*
X135809523Y-105352380D01*
X136000000Y-104638095D01*
X136190476Y-105352380D01*
X136428571Y-104352380D01*
X137333333Y-105352380D02*
X136761904Y-105352380D01*
X137047619Y-105352380D02*
X137047619Y-104352380D01*
X136952380Y-104495238D01*
X136857142Y-104590476D01*
X136761904Y-104638095D01*
X182666666Y-105304761D02*
X182809523Y-105352380D01*
X183047619Y-105352380D01*
X183142857Y-105304761D01*
X183190476Y-105257142D01*
X183238095Y-105161904D01*
X183238095Y-105066666D01*
X183190476Y-104971428D01*
X183142857Y-104923809D01*
X183047619Y-104876190D01*
X182857142Y-104828571D01*
X182761904Y-104780952D01*
X182714285Y-104733333D01*
X182666666Y-104638095D01*
X182666666Y-104542857D01*
X182714285Y-104447619D01*
X182761904Y-104400000D01*
X182857142Y-104352380D01*
X183095238Y-104352380D01*
X183238095Y-104400000D01*
X183571428Y-104352380D02*
X183809523Y-105352380D01*
X184000000Y-104638095D01*
X184190476Y-105352380D01*
X184428571Y-104352380D01*
X184761904Y-104447619D02*
X184809523Y-104400000D01*
X184904761Y-104352380D01*
X185142857Y-104352380D01*
X185238095Y-104400000D01*
X185285714Y-104447619D01*
X185333333Y-104542857D01*
X185333333Y-104638095D01*
X185285714Y-104780952D01*
X184714285Y-105352380D01*
X185333333Y-105352380D01*
D12*
X183666666Y-146654761D02*
X183809523Y-146702380D01*
X184047619Y-146702380D01*
X184142857Y-146654761D01*
X184190476Y-146607142D01*
X184238095Y-146511904D01*
X184238095Y-146416666D01*
X184190476Y-146321428D01*
X184142857Y-146273809D01*
X184047619Y-146226190D01*
X183857142Y-146178571D01*
X183761904Y-146130952D01*
X183714285Y-146083333D01*
X183666666Y-145988095D01*
X183666666Y-145892857D01*
X183714285Y-145797619D01*
X183761904Y-145750000D01*
X183857142Y-145702380D01*
X184095238Y-145702380D01*
X184238095Y-145750000D01*
X184571428Y-145702380D02*
X184809523Y-146702380D01*
X185000000Y-145988095D01*
X185190476Y-146702380D01*
X185428571Y-145702380D01*
X185714285Y-145702380D02*
X186333333Y-145702380D01*
X186000000Y-146083333D01*
X186142857Y-146083333D01*
X186238095Y-146130952D01*
X186285714Y-146178571D01*
X186333333Y-146273809D01*
X186333333Y-146511904D01*
X186285714Y-146607142D01*
X186238095Y-146654761D01*
X186142857Y-146702380D01*
X185857142Y-146702380D01*
X185761904Y-146654761D01*
X185714285Y-146607142D01*
M02*
