M48
; DRILL file {KiCad (5.1.4)-1} date 13/09/2019 11:08:09
; FORMAT={-:-/ absolute / inch / decimal}
; #@! TF.CreationDate,2019-09-13T11:08:09+01:00
; #@! TF.GenerationSoftware,Kicad,Pcbnew,(5.1.4)-1
; #@! TF.FileFunction,Plated,1,4,PTH
FMAT,2
INCH
T1C0.0157
T2C0.0197
T3C0.0354
T4C0.0394
T5C0.0433
T6C0.0984
%
G90
G05
T1
X5.5472Y-3.7598
X5.6457Y-4.2165
X5.8268Y-3.8976
X5.8366Y-4.3209
X5.8661Y-3.8189
X5.8898Y-4.4331
X5.9606Y-4.3268
X5.9843Y-4.0551
X6.0039Y-4.4094
X6.063Y-4.0157
X6.063Y-4.7441
X6.063Y-4.9882
X6.126Y-3.7323
X6.1811Y-3.7008
X6.2327Y-3.2752
X6.2362Y-4.0354
X6.2598Y-3.9075
X6.2598Y-4.1339
X6.3071Y-2.885
X6.3386Y-4.7736
X6.3425Y-3.2244
X6.3504Y-5.0157
X6.4173Y-4.439
X6.4528Y-3.3622
X6.4606Y-4.3701
X6.4882Y-3.8661
X6.5079Y-4.6063
X6.5118Y-3.6035
X6.5157Y-3.7008
X6.5276Y-4.6811
X6.5398Y-4.3406
X6.5764Y-4.0409
X6.5846Y-3.8484
X6.6063Y-4.9331
X6.6614Y-3.7402
X6.7441Y-3.2717
X6.752Y-3.7008
X6.7839Y-3.9118
X6.8209Y-3.5335
X6.8504Y-3.2677
X6.8543Y-3.685
X6.874Y-4.2913
X6.8976Y-3.7756
X6.9669Y-2.6634
X6.9724Y-3.2598
X7.0433Y-3.7283
X7.1126Y-2.0441
X7.2756Y-2.7165
X7.4366Y-2.122
X7.4882Y-4.0984
T3
X6.1535Y-4.4843
X6.2535Y-4.4843
T4
X5.2913Y-3.6252
X5.2913Y-3.7252
X5.2913Y-3.8252
X5.2913Y-3.9252
X5.0039Y-2.3425
X5.0039Y-2.4425
X5.0039Y-2.5425
X5.0039Y-2.6425
X5.0039Y-2.7425
X5.0039Y-2.8425
X5.0039Y-2.9425
X5.0039Y-3.0425
X5.0039Y-3.1425
X5.0039Y-3.2425
X5.0039Y-3.3425
X5.0039Y-3.4425
X7.5197Y-2.3425
X7.5197Y-2.4425
X7.5197Y-2.5425
X7.5197Y-2.6425
X7.5197Y-2.7425
X7.5197Y-2.8425
X7.5197Y-2.9425
X7.5197Y-3.0425
X7.5197Y-3.1425
X7.5197Y-3.2425
X7.5197Y-3.3425
X7.5197Y-3.4425
X6.1654Y-2.2559
X6.1654Y-2.3559
X6.2654Y-2.2559
X6.2654Y-2.3559
X6.3654Y-2.2559
X6.3654Y-2.3559
X6.4654Y-2.2559
X6.4654Y-2.3559
X6.5654Y-2.2559
X6.5654Y-2.3559
T5
X7.1457Y-4.2126
X7.1457Y-4.7835
X7.2441Y-4.7835
X7.3425Y-4.2126
X7.3425Y-4.7835
X7.1949Y-5.8563
X7.1949Y-6.0335
X7.4508Y-5.8563
X7.4508Y-6.0335
X5.2559Y-4.2126
X5.2559Y-4.7835
X5.3543Y-4.7835
X5.4528Y-4.2126
X5.4528Y-4.7835
T6
X7.0Y-4.4882
X7.4882Y-4.4882
X5.1102Y-4.4882
X5.5984Y-4.4882
T2
G00X5.8858Y-5.2
M15
G01X5.9252Y-5.2
M16
G05
G00X5.8858Y-5.5268
M15
G01X5.9252Y-5.5268
M16
G05
G00X5.8858Y-5.6488
M15
G01X5.9252Y-5.6488
M16
G05
G00X5.2953Y-5.7512
M15
G01X5.3346Y-5.7512
M16
G05
G00X5.2953Y-6.078
M15
G01X5.3346Y-6.078
M16
G05
G00X5.2953Y-6.2
M15
G01X5.3346Y-6.2
M16
G05
G00X6.4764Y-5.2
M15
G01X6.5157Y-5.2
M16
G05
G00X6.4764Y-5.5268
M15
G01X6.5157Y-5.5268
M16
G05
G00X6.4764Y-5.6488
M15
G01X6.5157Y-5.6488
M16
G05
G00X5.8858Y-5.7512
M15
G01X5.9252Y-5.7512
M16
G05
G00X5.8858Y-6.078
M15
G01X5.9252Y-6.078
M16
G05
G00X5.8858Y-6.2
M15
G01X5.9252Y-6.2
M16
G05
G00X5.2953Y-5.2
M15
G01X5.3346Y-5.2
M16
G05
G00X5.2953Y-5.5268
M15
G01X5.3346Y-5.5268
M16
G05
G00X5.2953Y-5.6488
M15
G01X5.3346Y-5.6488
M16
G05
G00X7.3031Y-5.2
M15
G01X7.3425Y-5.2
M16
G05
G00X7.3031Y-5.5268
M15
G01X7.3425Y-5.5268
M16
G05
G00X7.3031Y-5.6488
M15
G01X7.3425Y-5.6488
M16
G05
G00X6.4764Y-5.7512
M15
G01X6.5157Y-5.7512
M16
G05
G00X6.4764Y-6.078
M15
G01X6.5157Y-6.078
M16
G05
G00X6.4764Y-6.2
M15
G01X6.5157Y-6.2
M16
G05
T0
M30
