M48
; DRILL file {KiCad (5.1.0)-1} date 28/07/2019 15:16:20
; FORMAT={-:-/ absolute / inch / decimal}
; #@! TF.CreationDate,2019-07-28T15:16:20+01:00
; #@! TF.GenerationSoftware,Kicad,Pcbnew,(5.1.0)-1
; #@! TF.FileFunction,Plated,1,4,PTH
FMAT,2
INCH
T1C0.0157
T2C0.0197
T3C0.0394
T4C0.0433
T5C0.0984
T6C0.1378
%
G90
G05
T1
X5.6457Y-4.2165
X5.7047Y-3.0748
X5.7087Y-3.2323
X5.8268Y-3.8976
X5.8366Y-4.3209
X5.8661Y-3.8189
X5.8898Y-4.4331
X5.9094Y-2.8228
X5.9213Y-3.064
X5.9281Y-2.9488
X5.9606Y-4.3268
X5.9843Y-4.0551
X6.0039Y-4.4094
X6.0299Y-2.7539
X6.063Y-4.0157
X6.063Y-4.7441
X6.063Y-4.9882
X6.1102Y-4.6102
X6.126Y-3.7323
X6.1811Y-3.7008
X6.2327Y-3.2752
X6.2362Y-4.0354
X6.2598Y-3.9075
X6.2598Y-4.1339
X6.2992Y-4.626
X6.3071Y-2.885
X6.3425Y-3.2244
X6.3583Y-4.5669
X6.4173Y-4.439
X6.4488Y-4.3425
X6.4528Y-3.3622
X6.4882Y-3.8661
X6.5118Y-3.6035
X6.5157Y-3.7008
X6.5276Y-4.9291
X6.5398Y-4.3406
X6.5764Y-4.0409
X6.5827Y-4.622
X6.5846Y-3.8484
X6.7441Y-3.2717
X6.752Y-3.7008
X6.7839Y-3.9118
X6.8209Y-3.5335
X6.8504Y-3.2677
X6.8543Y-3.685
X6.874Y-4.2913
X6.8976Y-3.7756
X6.9669Y-2.6634
X6.9724Y-3.2598
X7.0433Y-3.7283
X7.1126Y-2.0441
X7.3457Y-2.6543
X7.4366Y-2.122
X7.4697Y-2.3283
X7.6547Y-2.8465
T3
X4.8543Y-2.4441
X4.8543Y-2.5441
X4.8543Y-2.6441
X4.8543Y-2.7441
X4.8543Y-2.8441
X4.8543Y-2.9441
X4.8543Y-3.0441
X4.8543Y-3.1441
X4.8543Y-3.2441
X4.8543Y-3.3441
X4.8543Y-3.4441
X4.8543Y-3.5441
X4.8543Y-3.6441
X4.8543Y-3.7441
X5.9016Y-2.2992
X5.9016Y-2.3992
X6.0016Y-2.2992
X6.0016Y-2.3992
X6.1016Y-2.2992
X6.1016Y-2.3992
X6.2016Y-2.2992
X6.2016Y-2.3992
X6.3016Y-2.2992
X6.3016Y-2.3992
X6.4016Y-2.2992
X6.4016Y-2.3992
X6.5016Y-2.2992
X6.5016Y-2.3992
X6.6016Y-2.2992
X6.6016Y-2.3992
X5.9921Y-3.0118
X5.2913Y-3.6252
X5.2913Y-3.7252
X5.2913Y-3.8252
X5.2913Y-3.9252
T4
X7.1457Y-4.2126
X7.1457Y-4.7835
X7.2441Y-4.7835
X7.3425Y-4.2126
X7.3425Y-4.7835
X7.1555Y-5.8366
X7.1555Y-6.0138
X7.4114Y-5.8366
X7.4114Y-6.0138
X5.2559Y-4.2126
X5.2559Y-4.7835
X5.3543Y-4.7835
X5.4528Y-4.2126
X5.4528Y-4.7835
T5
X5.1102Y-4.4882
X5.5984Y-4.4882
X7.0Y-4.4882
X7.4882Y-4.4882
T6
X7.6685Y-2.3531
X7.6685Y-3.8295
T2
G00X5.2953Y-5.1213
M15
G01X5.3346Y-5.1213
M16
G05
G00X5.2953Y-5.448
M15
G01X5.3346Y-5.448
M16
G05
G00X5.2953Y-5.5701
M15
G01X5.3346Y-5.5701
M16
G05
G00X5.8858Y-5.1213
M15
G01X5.9252Y-5.1213
M16
G05
G00X5.8858Y-5.448
M15
G01X5.9252Y-5.448
M16
G05
G00X5.8858Y-5.5701
M15
G01X5.9252Y-5.5701
M16
G05
G00X5.8858Y-5.6724
M15
G01X5.9252Y-5.6724
M16
G05
G00X5.8858Y-5.9992
M15
G01X5.9252Y-5.9992
M16
G05
G00X5.8858Y-6.1213
M15
G01X5.9252Y-6.1213
M16
G05
G00X6.4764Y-5.1213
M15
G01X6.5157Y-5.1213
M16
G05
G00X6.4764Y-5.448
M15
G01X6.5157Y-5.448
M16
G05
G00X6.4764Y-5.5701
M15
G01X6.5157Y-5.5701
M16
G05
G00X5.2953Y-5.6724
M15
G01X5.3346Y-5.6724
M16
G05
G00X5.2953Y-5.9992
M15
G01X5.3346Y-5.9992
M16
G05
G00X5.2953Y-6.1213
M15
G01X5.3346Y-6.1213
M16
G05
G00X6.4764Y-5.6724
M15
G01X6.5157Y-5.6724
M16
G05
G00X6.4764Y-5.9992
M15
G01X6.5157Y-5.9992
M16
G05
G00X6.4764Y-6.1213
M15
G01X6.5157Y-6.1213
M16
G05
G00X7.2638Y-5.1213
M15
G01X7.3031Y-5.1213
M16
G05
G00X7.2638Y-5.448
M15
G01X7.3031Y-5.448
M16
G05
G00X7.2638Y-5.5701
M15
G01X7.3031Y-5.5701
M16
G05
T0
M30
