G04 #@! TF.GenerationSoftware,KiCad,Pcbnew,(5.1.0)-1*
G04 #@! TF.CreationDate,2019-07-28T15:16:17+01:00*
G04 #@! TF.ProjectId,oscar,6f736361-722e-46b6-9963-61645f706362,rev?*
G04 #@! TF.SameCoordinates,Original*
G04 #@! TF.FileFunction,Soldermask,Top*
G04 #@! TF.FilePolarity,Negative*
%FSLAX46Y46*%
G04 Gerber Fmt 4.6, Leading zero omitted, Abs format (unit mm)*
G04 Created by KiCad (PCBNEW (5.1.0)-1) date 2019-07-28 15:16:17*
%MOMM*%
%LPD*%
G04 APERTURE LIST*
%ADD10C,0.100000*%
G04 APERTURE END LIST*
D10*
G36*
X136301000Y-156031000D02*
G01*
X133699000Y-156031000D01*
X133699000Y-154929000D01*
X136301000Y-154929000D01*
X136301000Y-156031000D01*
X136301000Y-156031000D01*
G37*
G36*
X151301000Y-156031000D02*
G01*
X148699000Y-156031000D01*
X148699000Y-154929000D01*
X151301000Y-154929000D01*
X151301000Y-156031000D01*
X151301000Y-156031000D01*
G37*
G36*
X166301000Y-156031000D02*
G01*
X163699000Y-156031000D01*
X163699000Y-154929000D01*
X166301000Y-154929000D01*
X166301000Y-156031000D01*
X166301000Y-156031000D01*
G37*
G36*
X188556564Y-151739389D02*
G01*
X188747833Y-151818615D01*
X188747835Y-151818616D01*
X188919973Y-151933635D01*
X189066365Y-152080027D01*
X189181385Y-152252167D01*
X189260611Y-152443436D01*
X189301000Y-152646484D01*
X189301000Y-152853516D01*
X189260611Y-153056564D01*
X189181385Y-153247833D01*
X189181384Y-153247835D01*
X189066365Y-153419973D01*
X188919973Y-153566365D01*
X188747835Y-153681384D01*
X188747834Y-153681385D01*
X188747833Y-153681385D01*
X188556564Y-153760611D01*
X188353516Y-153801000D01*
X188146484Y-153801000D01*
X187943436Y-153760611D01*
X187752167Y-153681385D01*
X187752166Y-153681385D01*
X187752165Y-153681384D01*
X187580027Y-153566365D01*
X187433635Y-153419973D01*
X187318616Y-153247835D01*
X187318615Y-153247833D01*
X187239389Y-153056564D01*
X187199000Y-152853516D01*
X187199000Y-152646484D01*
X187239389Y-152443436D01*
X187318615Y-152252167D01*
X187433635Y-152080027D01*
X187580027Y-151933635D01*
X187752165Y-151818616D01*
X187752167Y-151818615D01*
X187943436Y-151739389D01*
X188146484Y-151699000D01*
X188353516Y-151699000D01*
X188556564Y-151739389D01*
X188556564Y-151739389D01*
G37*
G36*
X182056564Y-151739389D02*
G01*
X182247833Y-151818615D01*
X182247835Y-151818616D01*
X182419973Y-151933635D01*
X182566365Y-152080027D01*
X182681385Y-152252167D01*
X182760611Y-152443436D01*
X182801000Y-152646484D01*
X182801000Y-152853516D01*
X182760611Y-153056564D01*
X182681385Y-153247833D01*
X182681384Y-153247835D01*
X182566365Y-153419973D01*
X182419973Y-153566365D01*
X182247835Y-153681384D01*
X182247834Y-153681385D01*
X182247833Y-153681385D01*
X182056564Y-153760611D01*
X181853516Y-153801000D01*
X181646484Y-153801000D01*
X181443436Y-153760611D01*
X181252167Y-153681385D01*
X181252166Y-153681385D01*
X181252165Y-153681384D01*
X181080027Y-153566365D01*
X180933635Y-153419973D01*
X180818616Y-153247835D01*
X180818615Y-153247833D01*
X180739389Y-153056564D01*
X180699000Y-152853516D01*
X180699000Y-152646484D01*
X180739389Y-152443436D01*
X180818615Y-152252167D01*
X180933635Y-152080027D01*
X181080027Y-151933635D01*
X181252165Y-151818616D01*
X181252167Y-151818615D01*
X181443436Y-151739389D01*
X181646484Y-151699000D01*
X181853516Y-151699000D01*
X182056564Y-151739389D01*
X182056564Y-151739389D01*
G37*
G36*
X151301000Y-152931000D02*
G01*
X148699000Y-152931000D01*
X148699000Y-151829000D01*
X151301000Y-151829000D01*
X151301000Y-152931000D01*
X151301000Y-152931000D01*
G37*
G36*
X136301000Y-152931000D02*
G01*
X133699000Y-152931000D01*
X133699000Y-151829000D01*
X136301000Y-151829000D01*
X136301000Y-152931000D01*
X136301000Y-152931000D01*
G37*
G36*
X166301000Y-152931000D02*
G01*
X163699000Y-152931000D01*
X163699000Y-151829000D01*
X166301000Y-151829000D01*
X166301000Y-152931000D01*
X166301000Y-152931000D01*
G37*
G36*
X165379487Y-147748996D02*
G01*
X165616253Y-147847068D01*
X165616255Y-147847069D01*
X165829339Y-147989447D01*
X166010553Y-148170661D01*
X166132733Y-148353516D01*
X166152932Y-148383747D01*
X166251004Y-148620513D01*
X166301000Y-148871861D01*
X166301000Y-149128139D01*
X166251004Y-149379487D01*
X166152932Y-149616253D01*
X166152931Y-149616255D01*
X166010553Y-149829339D01*
X165829339Y-150010553D01*
X165616255Y-150152931D01*
X165616254Y-150152932D01*
X165616253Y-150152932D01*
X165379487Y-150251004D01*
X165128139Y-150301000D01*
X164871861Y-150301000D01*
X164620513Y-150251004D01*
X164383747Y-150152932D01*
X164383746Y-150152932D01*
X164383745Y-150152931D01*
X164170661Y-150010553D01*
X163989447Y-149829339D01*
X163847069Y-149616255D01*
X163847068Y-149616253D01*
X163748996Y-149379487D01*
X163699000Y-149128139D01*
X163699000Y-148871861D01*
X163748996Y-148620513D01*
X163847068Y-148383747D01*
X163867268Y-148353516D01*
X163989447Y-148170661D01*
X164170661Y-147989447D01*
X164383745Y-147847069D01*
X164383747Y-147847068D01*
X164620513Y-147748996D01*
X164871861Y-147699000D01*
X165128139Y-147699000D01*
X165379487Y-147748996D01*
X165379487Y-147748996D01*
G37*
G36*
X135379487Y-147748996D02*
G01*
X135616253Y-147847068D01*
X135616255Y-147847069D01*
X135829339Y-147989447D01*
X136010553Y-148170661D01*
X136132733Y-148353516D01*
X136152932Y-148383747D01*
X136251004Y-148620513D01*
X136301000Y-148871861D01*
X136301000Y-149128139D01*
X136251004Y-149379487D01*
X136152932Y-149616253D01*
X136152931Y-149616255D01*
X136010553Y-149829339D01*
X135829339Y-150010553D01*
X135616255Y-150152931D01*
X135616254Y-150152932D01*
X135616253Y-150152932D01*
X135379487Y-150251004D01*
X135128139Y-150301000D01*
X134871861Y-150301000D01*
X134620513Y-150251004D01*
X134383747Y-150152932D01*
X134383746Y-150152932D01*
X134383745Y-150152931D01*
X134170661Y-150010553D01*
X133989447Y-149829339D01*
X133847069Y-149616255D01*
X133847068Y-149616253D01*
X133748996Y-149379487D01*
X133699000Y-149128139D01*
X133699000Y-148871861D01*
X133748996Y-148620513D01*
X133847068Y-148383747D01*
X133867268Y-148353516D01*
X133989447Y-148170661D01*
X134170661Y-147989447D01*
X134383745Y-147847069D01*
X134383747Y-147847068D01*
X134620513Y-147748996D01*
X134871861Y-147699000D01*
X135128139Y-147699000D01*
X135379487Y-147748996D01*
X135379487Y-147748996D01*
G37*
G36*
X150379487Y-147748996D02*
G01*
X150616253Y-147847068D01*
X150616255Y-147847069D01*
X150829339Y-147989447D01*
X151010553Y-148170661D01*
X151132733Y-148353516D01*
X151152932Y-148383747D01*
X151251004Y-148620513D01*
X151301000Y-148871861D01*
X151301000Y-149128139D01*
X151251004Y-149379487D01*
X151152932Y-149616253D01*
X151152931Y-149616255D01*
X151010553Y-149829339D01*
X150829339Y-150010553D01*
X150616255Y-150152931D01*
X150616254Y-150152932D01*
X150616253Y-150152932D01*
X150379487Y-150251004D01*
X150128139Y-150301000D01*
X149871861Y-150301000D01*
X149620513Y-150251004D01*
X149383747Y-150152932D01*
X149383746Y-150152932D01*
X149383745Y-150152931D01*
X149170661Y-150010553D01*
X148989447Y-149829339D01*
X148847069Y-149616255D01*
X148847068Y-149616253D01*
X148748996Y-149379487D01*
X148699000Y-149128139D01*
X148699000Y-148871861D01*
X148748996Y-148620513D01*
X148847068Y-148383747D01*
X148867268Y-148353516D01*
X148989447Y-148170661D01*
X149170661Y-147989447D01*
X149383745Y-147847069D01*
X149383747Y-147847068D01*
X149620513Y-147748996D01*
X149871861Y-147699000D01*
X150128139Y-147699000D01*
X150379487Y-147748996D01*
X150379487Y-147748996D01*
G37*
G36*
X188556564Y-147239389D02*
G01*
X188747833Y-147318615D01*
X188747835Y-147318616D01*
X188919973Y-147433635D01*
X189066365Y-147580027D01*
X189179267Y-147748996D01*
X189181385Y-147752167D01*
X189260611Y-147943436D01*
X189301000Y-148146484D01*
X189301000Y-148353516D01*
X189260611Y-148556564D01*
X189181385Y-148747833D01*
X189181384Y-148747835D01*
X189066365Y-148919973D01*
X188919973Y-149066365D01*
X188747835Y-149181384D01*
X188747834Y-149181385D01*
X188747833Y-149181385D01*
X188556564Y-149260611D01*
X188353516Y-149301000D01*
X188146484Y-149301000D01*
X187943436Y-149260611D01*
X187752167Y-149181385D01*
X187752166Y-149181385D01*
X187752165Y-149181384D01*
X187580027Y-149066365D01*
X187433635Y-148919973D01*
X187318616Y-148747835D01*
X187318615Y-148747833D01*
X187239389Y-148556564D01*
X187199000Y-148353516D01*
X187199000Y-148146484D01*
X187239389Y-147943436D01*
X187318615Y-147752167D01*
X187320734Y-147748996D01*
X187433635Y-147580027D01*
X187580027Y-147433635D01*
X187752165Y-147318616D01*
X187752167Y-147318615D01*
X187943436Y-147239389D01*
X188146484Y-147199000D01*
X188353516Y-147199000D01*
X188556564Y-147239389D01*
X188556564Y-147239389D01*
G37*
G36*
X182056564Y-147239389D02*
G01*
X182247833Y-147318615D01*
X182247835Y-147318616D01*
X182419973Y-147433635D01*
X182566365Y-147580027D01*
X182679267Y-147748996D01*
X182681385Y-147752167D01*
X182760611Y-147943436D01*
X182801000Y-148146484D01*
X182801000Y-148353516D01*
X182760611Y-148556564D01*
X182681385Y-148747833D01*
X182681384Y-148747835D01*
X182566365Y-148919973D01*
X182419973Y-149066365D01*
X182247835Y-149181384D01*
X182247834Y-149181385D01*
X182247833Y-149181385D01*
X182056564Y-149260611D01*
X181853516Y-149301000D01*
X181646484Y-149301000D01*
X181443436Y-149260611D01*
X181252167Y-149181385D01*
X181252166Y-149181385D01*
X181252165Y-149181384D01*
X181080027Y-149066365D01*
X180933635Y-148919973D01*
X180818616Y-148747835D01*
X180818615Y-148747833D01*
X180739389Y-148556564D01*
X180699000Y-148353516D01*
X180699000Y-148146484D01*
X180739389Y-147943436D01*
X180818615Y-147752167D01*
X180820734Y-147748996D01*
X180933635Y-147580027D01*
X181080027Y-147433635D01*
X181252165Y-147318616D01*
X181252167Y-147318615D01*
X181443436Y-147239389D01*
X181646484Y-147199000D01*
X181853516Y-147199000D01*
X182056564Y-147239389D01*
X182056564Y-147239389D01*
G37*
G36*
X136301000Y-144631000D02*
G01*
X133699000Y-144631000D01*
X133699000Y-143529000D01*
X136301000Y-143529000D01*
X136301000Y-144631000D01*
X136301000Y-144631000D01*
G37*
G36*
X151301000Y-144631000D02*
G01*
X148699000Y-144631000D01*
X148699000Y-143529000D01*
X151301000Y-143529000D01*
X151301000Y-144631000D01*
X151301000Y-144631000D01*
G37*
G36*
X166301000Y-144631000D02*
G01*
X163699000Y-144631000D01*
X163699000Y-143529000D01*
X166301000Y-143529000D01*
X166301000Y-144631000D01*
X166301000Y-144631000D01*
G37*
G36*
X186301000Y-142031000D02*
G01*
X183699000Y-142031000D01*
X183699000Y-140929000D01*
X186301000Y-140929000D01*
X186301000Y-142031000D01*
X186301000Y-142031000D01*
G37*
G36*
X166301000Y-142031000D02*
G01*
X163699000Y-142031000D01*
X163699000Y-140929000D01*
X166301000Y-140929000D01*
X166301000Y-142031000D01*
X166301000Y-142031000D01*
G37*
G36*
X151301000Y-142031000D02*
G01*
X148699000Y-142031000D01*
X148699000Y-140929000D01*
X151301000Y-140929000D01*
X151301000Y-142031000D01*
X151301000Y-142031000D01*
G37*
G36*
X136301000Y-142031000D02*
G01*
X133699000Y-142031000D01*
X133699000Y-140929000D01*
X136301000Y-140929000D01*
X136301000Y-142031000D01*
X136301000Y-142031000D01*
G37*
G36*
X166301000Y-138931000D02*
G01*
X163699000Y-138931000D01*
X163699000Y-137829000D01*
X166301000Y-137829000D01*
X166301000Y-138931000D01*
X166301000Y-138931000D01*
G37*
G36*
X151301000Y-138931000D02*
G01*
X148699000Y-138931000D01*
X148699000Y-137829000D01*
X151301000Y-137829000D01*
X151301000Y-138931000D01*
X151301000Y-138931000D01*
G37*
G36*
X136301000Y-138931000D02*
G01*
X133699000Y-138931000D01*
X133699000Y-137829000D01*
X136301000Y-137829000D01*
X136301000Y-138931000D01*
X136301000Y-138931000D01*
G37*
G36*
X186301000Y-138931000D02*
G01*
X183699000Y-138931000D01*
X183699000Y-137829000D01*
X186301000Y-137829000D01*
X186301000Y-138931000D01*
X186301000Y-138931000D01*
G37*
G36*
X135379487Y-133748996D02*
G01*
X135616253Y-133847068D01*
X135616255Y-133847069D01*
X135829339Y-133989447D01*
X136010553Y-134170661D01*
X136152932Y-134383747D01*
X136251004Y-134620513D01*
X136301000Y-134871861D01*
X136301000Y-135128139D01*
X136251004Y-135379487D01*
X136152932Y-135616253D01*
X136152931Y-135616255D01*
X136010553Y-135829339D01*
X135829339Y-136010553D01*
X135616255Y-136152931D01*
X135616254Y-136152932D01*
X135616253Y-136152932D01*
X135379487Y-136251004D01*
X135128139Y-136301000D01*
X134871861Y-136301000D01*
X134620513Y-136251004D01*
X134383747Y-136152932D01*
X134383746Y-136152932D01*
X134383745Y-136152931D01*
X134170661Y-136010553D01*
X133989447Y-135829339D01*
X133847069Y-135616255D01*
X133847068Y-135616253D01*
X133748996Y-135379487D01*
X133699000Y-135128139D01*
X133699000Y-134871861D01*
X133748996Y-134620513D01*
X133847068Y-134383747D01*
X133989447Y-134170661D01*
X134170661Y-133989447D01*
X134383745Y-133847069D01*
X134383747Y-133847068D01*
X134620513Y-133748996D01*
X134871861Y-133699000D01*
X135128139Y-133699000D01*
X135379487Y-133748996D01*
X135379487Y-133748996D01*
G37*
G36*
X150379487Y-133748996D02*
G01*
X150616253Y-133847068D01*
X150616255Y-133847069D01*
X150829339Y-133989447D01*
X151010553Y-134170661D01*
X151152932Y-134383747D01*
X151251004Y-134620513D01*
X151301000Y-134871861D01*
X151301000Y-135128139D01*
X151251004Y-135379487D01*
X151152932Y-135616253D01*
X151152931Y-135616255D01*
X151010553Y-135829339D01*
X150829339Y-136010553D01*
X150616255Y-136152931D01*
X150616254Y-136152932D01*
X150616253Y-136152932D01*
X150379487Y-136251004D01*
X150128139Y-136301000D01*
X149871861Y-136301000D01*
X149620513Y-136251004D01*
X149383747Y-136152932D01*
X149383746Y-136152932D01*
X149383745Y-136152931D01*
X149170661Y-136010553D01*
X148989447Y-135829339D01*
X148847069Y-135616255D01*
X148847068Y-135616253D01*
X148748996Y-135379487D01*
X148699000Y-135128139D01*
X148699000Y-134871861D01*
X148748996Y-134620513D01*
X148847068Y-134383747D01*
X148989447Y-134170661D01*
X149170661Y-133989447D01*
X149383745Y-133847069D01*
X149383747Y-133847068D01*
X149620513Y-133748996D01*
X149871861Y-133699000D01*
X150128139Y-133699000D01*
X150379487Y-133748996D01*
X150379487Y-133748996D01*
G37*
G36*
X185379487Y-133748996D02*
G01*
X185616253Y-133847068D01*
X185616255Y-133847069D01*
X185829339Y-133989447D01*
X186010553Y-134170661D01*
X186152932Y-134383747D01*
X186251004Y-134620513D01*
X186301000Y-134871861D01*
X186301000Y-135128139D01*
X186251004Y-135379487D01*
X186152932Y-135616253D01*
X186152931Y-135616255D01*
X186010553Y-135829339D01*
X185829339Y-136010553D01*
X185616255Y-136152931D01*
X185616254Y-136152932D01*
X185616253Y-136152932D01*
X185379487Y-136251004D01*
X185128139Y-136301000D01*
X184871861Y-136301000D01*
X184620513Y-136251004D01*
X184383747Y-136152932D01*
X184383746Y-136152932D01*
X184383745Y-136152931D01*
X184170661Y-136010553D01*
X183989447Y-135829339D01*
X183847069Y-135616255D01*
X183847068Y-135616253D01*
X183748996Y-135379487D01*
X183699000Y-135128139D01*
X183699000Y-134871861D01*
X183748996Y-134620513D01*
X183847068Y-134383747D01*
X183989447Y-134170661D01*
X184170661Y-133989447D01*
X184383745Y-133847069D01*
X184383747Y-133847068D01*
X184620513Y-133748996D01*
X184871861Y-133699000D01*
X185128139Y-133699000D01*
X185379487Y-133748996D01*
X185379487Y-133748996D01*
G37*
G36*
X165379487Y-133748996D02*
G01*
X165616253Y-133847068D01*
X165616255Y-133847069D01*
X165829339Y-133989447D01*
X166010553Y-134170661D01*
X166152932Y-134383747D01*
X166251004Y-134620513D01*
X166301000Y-134871861D01*
X166301000Y-135128139D01*
X166251004Y-135379487D01*
X166152932Y-135616253D01*
X166152931Y-135616255D01*
X166010553Y-135829339D01*
X165829339Y-136010553D01*
X165616255Y-136152931D01*
X165616254Y-136152932D01*
X165616253Y-136152932D01*
X165379487Y-136251004D01*
X165128139Y-136301000D01*
X164871861Y-136301000D01*
X164620513Y-136251004D01*
X164383747Y-136152932D01*
X164383746Y-136152932D01*
X164383745Y-136152931D01*
X164170661Y-136010553D01*
X163989447Y-135829339D01*
X163847069Y-135616255D01*
X163847068Y-135616253D01*
X163748996Y-135379487D01*
X163699000Y-135128139D01*
X163699000Y-134871861D01*
X163748996Y-134620513D01*
X163847068Y-134383747D01*
X163989447Y-134170661D01*
X164170661Y-133989447D01*
X164383745Y-133847069D01*
X164383747Y-133847068D01*
X164620513Y-133748996D01*
X164871861Y-133699000D01*
X165128139Y-133699000D01*
X165379487Y-133748996D01*
X165379487Y-133748996D01*
G37*
G36*
X166301000Y-130631000D02*
G01*
X163699000Y-130631000D01*
X163699000Y-129529000D01*
X166301000Y-129529000D01*
X166301000Y-130631000D01*
X166301000Y-130631000D01*
G37*
G36*
X136301000Y-130631000D02*
G01*
X133699000Y-130631000D01*
X133699000Y-129529000D01*
X136301000Y-129529000D01*
X136301000Y-130631000D01*
X136301000Y-130631000D01*
G37*
G36*
X151301000Y-130631000D02*
G01*
X148699000Y-130631000D01*
X148699000Y-129529000D01*
X151301000Y-129529000D01*
X151301000Y-130631000D01*
X151301000Y-130631000D01*
G37*
G36*
X186301000Y-130631000D02*
G01*
X183699000Y-130631000D01*
X183699000Y-129529000D01*
X186301000Y-129529000D01*
X186301000Y-130631000D01*
X186301000Y-130631000D01*
G37*
G36*
X184270104Y-120609585D02*
G01*
X184438626Y-120679389D01*
X184590291Y-120780728D01*
X184719272Y-120909709D01*
X184820611Y-121061374D01*
X184890415Y-121229896D01*
X184926000Y-121408797D01*
X184926000Y-121591203D01*
X184890415Y-121770104D01*
X184820611Y-121938626D01*
X184719272Y-122090291D01*
X184590291Y-122219272D01*
X184438626Y-122320611D01*
X184270104Y-122390415D01*
X184091203Y-122426000D01*
X183908797Y-122426000D01*
X183729896Y-122390415D01*
X183561374Y-122320611D01*
X183409709Y-122219272D01*
X183280728Y-122090291D01*
X183179389Y-121938626D01*
X183109585Y-121770104D01*
X183074000Y-121591203D01*
X183074000Y-121408797D01*
X183109585Y-121229896D01*
X183179389Y-121061374D01*
X183280728Y-120909709D01*
X183409709Y-120780728D01*
X183561374Y-120679389D01*
X183729896Y-120609585D01*
X183908797Y-120574000D01*
X184091203Y-120574000D01*
X184270104Y-120609585D01*
X184270104Y-120609585D01*
G37*
G36*
X136270104Y-120609585D02*
G01*
X136438626Y-120679389D01*
X136590291Y-120780728D01*
X136719272Y-120909709D01*
X136820611Y-121061374D01*
X136890415Y-121229896D01*
X136926000Y-121408797D01*
X136926000Y-121591203D01*
X136890415Y-121770104D01*
X136820611Y-121938626D01*
X136719272Y-122090291D01*
X136590291Y-122219272D01*
X136438626Y-122320611D01*
X136270104Y-122390415D01*
X136091203Y-122426000D01*
X135908797Y-122426000D01*
X135729896Y-122390415D01*
X135561374Y-122320611D01*
X135409709Y-122219272D01*
X135280728Y-122090291D01*
X135179389Y-121938626D01*
X135109585Y-121770104D01*
X135074000Y-121591203D01*
X135074000Y-121408797D01*
X135109585Y-121229896D01*
X135179389Y-121061374D01*
X135280728Y-120909709D01*
X135409709Y-120780728D01*
X135561374Y-120679389D01*
X135729896Y-120609585D01*
X135908797Y-120574000D01*
X136091203Y-120574000D01*
X136270104Y-120609585D01*
X136270104Y-120609585D01*
G37*
G36*
X138770104Y-120609585D02*
G01*
X138938626Y-120679389D01*
X139090291Y-120780728D01*
X139219272Y-120909709D01*
X139320611Y-121061374D01*
X139390415Y-121229896D01*
X139426000Y-121408797D01*
X139426000Y-121591203D01*
X139390415Y-121770104D01*
X139320611Y-121938626D01*
X139219272Y-122090291D01*
X139090291Y-122219272D01*
X138938626Y-122320611D01*
X138770104Y-122390415D01*
X138591203Y-122426000D01*
X138408797Y-122426000D01*
X138229896Y-122390415D01*
X138061374Y-122320611D01*
X137909709Y-122219272D01*
X137780728Y-122090291D01*
X137679389Y-121938626D01*
X137609585Y-121770104D01*
X137574000Y-121591203D01*
X137574000Y-121408797D01*
X137609585Y-121229896D01*
X137679389Y-121061374D01*
X137780728Y-120909709D01*
X137909709Y-120780728D01*
X138061374Y-120679389D01*
X138229896Y-120609585D01*
X138408797Y-120574000D01*
X138591203Y-120574000D01*
X138770104Y-120609585D01*
X138770104Y-120609585D01*
G37*
G36*
X133770104Y-120609585D02*
G01*
X133938626Y-120679389D01*
X134090291Y-120780728D01*
X134219272Y-120909709D01*
X134320611Y-121061374D01*
X134390415Y-121229896D01*
X134426000Y-121408797D01*
X134426000Y-121591203D01*
X134390415Y-121770104D01*
X134320611Y-121938626D01*
X134219272Y-122090291D01*
X134090291Y-122219272D01*
X133938626Y-122320611D01*
X133770104Y-122390415D01*
X133591203Y-122426000D01*
X133408797Y-122426000D01*
X133229896Y-122390415D01*
X133061374Y-122320611D01*
X132909709Y-122219272D01*
X132780728Y-122090291D01*
X132679389Y-121938626D01*
X132609585Y-121770104D01*
X132574000Y-121591203D01*
X132574000Y-121408797D01*
X132609585Y-121229896D01*
X132679389Y-121061374D01*
X132780728Y-120909709D01*
X132909709Y-120780728D01*
X133061374Y-120679389D01*
X133229896Y-120609585D01*
X133408797Y-120574000D01*
X133591203Y-120574000D01*
X133770104Y-120609585D01*
X133770104Y-120609585D01*
G37*
G36*
X186770104Y-120609585D02*
G01*
X186938626Y-120679389D01*
X187090291Y-120780728D01*
X187219272Y-120909709D01*
X187320611Y-121061374D01*
X187390415Y-121229896D01*
X187426000Y-121408797D01*
X187426000Y-121591203D01*
X187390415Y-121770104D01*
X187320611Y-121938626D01*
X187219272Y-122090291D01*
X187090291Y-122219272D01*
X186938626Y-122320611D01*
X186770104Y-122390415D01*
X186591203Y-122426000D01*
X186408797Y-122426000D01*
X186229896Y-122390415D01*
X186061374Y-122320611D01*
X185909709Y-122219272D01*
X185780728Y-122090291D01*
X185679389Y-121938626D01*
X185609585Y-121770104D01*
X185574000Y-121591203D01*
X185574000Y-121408797D01*
X185609585Y-121229896D01*
X185679389Y-121061374D01*
X185780728Y-120909709D01*
X185909709Y-120780728D01*
X186061374Y-120679389D01*
X186229896Y-120609585D01*
X186408797Y-120574000D01*
X186591203Y-120574000D01*
X186770104Y-120609585D01*
X186770104Y-120609585D01*
G37*
G36*
X181770104Y-120609585D02*
G01*
X181938626Y-120679389D01*
X182090291Y-120780728D01*
X182219272Y-120909709D01*
X182320611Y-121061374D01*
X182390415Y-121229896D01*
X182426000Y-121408797D01*
X182426000Y-121591203D01*
X182390415Y-121770104D01*
X182320611Y-121938626D01*
X182219272Y-122090291D01*
X182090291Y-122219272D01*
X181938626Y-122320611D01*
X181770104Y-122390415D01*
X181591203Y-122426000D01*
X181408797Y-122426000D01*
X181229896Y-122390415D01*
X181061374Y-122320611D01*
X180909709Y-122219272D01*
X180780728Y-122090291D01*
X180679389Y-121938626D01*
X180609585Y-121770104D01*
X180574000Y-121591203D01*
X180574000Y-121408797D01*
X180609585Y-121229896D01*
X180679389Y-121061374D01*
X180780728Y-120909709D01*
X180909709Y-120780728D01*
X181061374Y-120679389D01*
X181229896Y-120609585D01*
X181408797Y-120574000D01*
X181591203Y-120574000D01*
X181770104Y-120609585D01*
X181770104Y-120609585D01*
G37*
G36*
X142401189Y-111958892D02*
G01*
X142602066Y-111978677D01*
X142988681Y-112095955D01*
X142988684Y-112095956D01*
X143344983Y-112286402D01*
X143344986Y-112286404D01*
X143344987Y-112286405D01*
X143657293Y-112542707D01*
X143913595Y-112855013D01*
X143913598Y-112855017D01*
X144104044Y-113211316D01*
X144104045Y-113211319D01*
X144221323Y-113597934D01*
X144260923Y-114000000D01*
X144221323Y-114402066D01*
X144104045Y-114788681D01*
X144104044Y-114788684D01*
X143913598Y-115144983D01*
X143913596Y-115144986D01*
X143913595Y-115144987D01*
X143657293Y-115457293D01*
X143344987Y-115713595D01*
X143344983Y-115713598D01*
X142988684Y-115904044D01*
X142988681Y-115904045D01*
X142602066Y-116021323D01*
X142401189Y-116041108D01*
X142300751Y-116051000D01*
X142099249Y-116051000D01*
X141998811Y-116041108D01*
X141797934Y-116021323D01*
X141411319Y-115904045D01*
X141411316Y-115904044D01*
X141055017Y-115713598D01*
X141055013Y-115713595D01*
X140742707Y-115457293D01*
X140486405Y-115144987D01*
X140486404Y-115144986D01*
X140486402Y-115144983D01*
X140295956Y-114788684D01*
X140295955Y-114788681D01*
X140178677Y-114402066D01*
X140139077Y-114000000D01*
X140178677Y-113597934D01*
X140295955Y-113211319D01*
X140295956Y-113211316D01*
X140486402Y-112855017D01*
X140486405Y-112855013D01*
X140742707Y-112542707D01*
X141055013Y-112286405D01*
X141055014Y-112286404D01*
X141055017Y-112286402D01*
X141411316Y-112095956D01*
X141411319Y-112095955D01*
X141797934Y-111978677D01*
X141998811Y-111958892D01*
X142099249Y-111949000D01*
X142300751Y-111949000D01*
X142401189Y-111958892D01*
X142401189Y-111958892D01*
G37*
G36*
X130001189Y-111958892D02*
G01*
X130202066Y-111978677D01*
X130588681Y-112095955D01*
X130588684Y-112095956D01*
X130944983Y-112286402D01*
X130944986Y-112286404D01*
X130944987Y-112286405D01*
X131257293Y-112542707D01*
X131513595Y-112855013D01*
X131513598Y-112855017D01*
X131704044Y-113211316D01*
X131704045Y-113211319D01*
X131821323Y-113597934D01*
X131860923Y-114000000D01*
X131821323Y-114402066D01*
X131704045Y-114788681D01*
X131704044Y-114788684D01*
X131513598Y-115144983D01*
X131513596Y-115144986D01*
X131513595Y-115144987D01*
X131257293Y-115457293D01*
X130944987Y-115713595D01*
X130944983Y-115713598D01*
X130588684Y-115904044D01*
X130588681Y-115904045D01*
X130202066Y-116021323D01*
X130001189Y-116041108D01*
X129900751Y-116051000D01*
X129699249Y-116051000D01*
X129598811Y-116041108D01*
X129397934Y-116021323D01*
X129011319Y-115904045D01*
X129011316Y-115904044D01*
X128655017Y-115713598D01*
X128655013Y-115713595D01*
X128342707Y-115457293D01*
X128086405Y-115144987D01*
X128086404Y-115144986D01*
X128086402Y-115144983D01*
X127895956Y-114788684D01*
X127895955Y-114788681D01*
X127778677Y-114402066D01*
X127739077Y-114000000D01*
X127778677Y-113597934D01*
X127895955Y-113211319D01*
X127895956Y-113211316D01*
X128086402Y-112855017D01*
X128086405Y-112855013D01*
X128342707Y-112542707D01*
X128655013Y-112286405D01*
X128655014Y-112286404D01*
X128655017Y-112286402D01*
X129011316Y-112095956D01*
X129011319Y-112095955D01*
X129397934Y-111978677D01*
X129598811Y-111958892D01*
X129699249Y-111949000D01*
X129900751Y-111949000D01*
X130001189Y-111958892D01*
X130001189Y-111958892D01*
G37*
G36*
X178001189Y-111958892D02*
G01*
X178202066Y-111978677D01*
X178588681Y-112095955D01*
X178588684Y-112095956D01*
X178944983Y-112286402D01*
X178944986Y-112286404D01*
X178944987Y-112286405D01*
X179257293Y-112542707D01*
X179513595Y-112855013D01*
X179513598Y-112855017D01*
X179704044Y-113211316D01*
X179704045Y-113211319D01*
X179821323Y-113597934D01*
X179860923Y-114000000D01*
X179821323Y-114402066D01*
X179704045Y-114788681D01*
X179704044Y-114788684D01*
X179513598Y-115144983D01*
X179513596Y-115144986D01*
X179513595Y-115144987D01*
X179257293Y-115457293D01*
X178944987Y-115713595D01*
X178944983Y-115713598D01*
X178588684Y-115904044D01*
X178588681Y-115904045D01*
X178202066Y-116021323D01*
X178001189Y-116041108D01*
X177900751Y-116051000D01*
X177699249Y-116051000D01*
X177598811Y-116041108D01*
X177397934Y-116021323D01*
X177011319Y-115904045D01*
X177011316Y-115904044D01*
X176655017Y-115713598D01*
X176655013Y-115713595D01*
X176342707Y-115457293D01*
X176086405Y-115144987D01*
X176086404Y-115144986D01*
X176086402Y-115144983D01*
X175895956Y-114788684D01*
X175895955Y-114788681D01*
X175778677Y-114402066D01*
X175739077Y-114000000D01*
X175778677Y-113597934D01*
X175895955Y-113211319D01*
X175895956Y-113211316D01*
X176086402Y-112855017D01*
X176086405Y-112855013D01*
X176342707Y-112542707D01*
X176655013Y-112286405D01*
X176655014Y-112286404D01*
X176655017Y-112286402D01*
X177011316Y-112095956D01*
X177011319Y-112095955D01*
X177397934Y-111978677D01*
X177598811Y-111958892D01*
X177699249Y-111949000D01*
X177900751Y-111949000D01*
X178001189Y-111958892D01*
X178001189Y-111958892D01*
G37*
G36*
X190401189Y-111958892D02*
G01*
X190602066Y-111978677D01*
X190988681Y-112095955D01*
X190988684Y-112095956D01*
X191344983Y-112286402D01*
X191344986Y-112286404D01*
X191344987Y-112286405D01*
X191657293Y-112542707D01*
X191913595Y-112855013D01*
X191913598Y-112855017D01*
X192104044Y-113211316D01*
X192104045Y-113211319D01*
X192221323Y-113597934D01*
X192260923Y-114000000D01*
X192221323Y-114402066D01*
X192104045Y-114788681D01*
X192104044Y-114788684D01*
X191913598Y-115144983D01*
X191913596Y-115144986D01*
X191913595Y-115144987D01*
X191657293Y-115457293D01*
X191344987Y-115713595D01*
X191344983Y-115713598D01*
X190988684Y-115904044D01*
X190988681Y-115904045D01*
X190602066Y-116021323D01*
X190401189Y-116041108D01*
X190300751Y-116051000D01*
X190099249Y-116051000D01*
X189998811Y-116041108D01*
X189797934Y-116021323D01*
X189411319Y-115904045D01*
X189411316Y-115904044D01*
X189055017Y-115713598D01*
X189055013Y-115713595D01*
X188742707Y-115457293D01*
X188486405Y-115144987D01*
X188486404Y-115144986D01*
X188486402Y-115144983D01*
X188295956Y-114788684D01*
X188295955Y-114788681D01*
X188178677Y-114402066D01*
X188139077Y-114000000D01*
X188178677Y-113597934D01*
X188295955Y-113211319D01*
X188295956Y-113211316D01*
X188486402Y-112855017D01*
X188486405Y-112855013D01*
X188742707Y-112542707D01*
X189055013Y-112286405D01*
X189055014Y-112286404D01*
X189055017Y-112286402D01*
X189411316Y-112095956D01*
X189411319Y-112095955D01*
X189797934Y-111978677D01*
X189998811Y-111958892D01*
X190099249Y-111949000D01*
X190300751Y-111949000D01*
X190401189Y-111958892D01*
X190401189Y-111958892D01*
G37*
G36*
X181770104Y-106109585D02*
G01*
X181938626Y-106179389D01*
X182090291Y-106280728D01*
X182219272Y-106409709D01*
X182320611Y-106561374D01*
X182390415Y-106729896D01*
X182426000Y-106908797D01*
X182426000Y-107091203D01*
X182390415Y-107270104D01*
X182320611Y-107438626D01*
X182219272Y-107590291D01*
X182090291Y-107719272D01*
X181938626Y-107820611D01*
X181770104Y-107890415D01*
X181591203Y-107926000D01*
X181408797Y-107926000D01*
X181229896Y-107890415D01*
X181061374Y-107820611D01*
X180909709Y-107719272D01*
X180780728Y-107590291D01*
X180679389Y-107438626D01*
X180609585Y-107270104D01*
X180574000Y-107091203D01*
X180574000Y-106908797D01*
X180609585Y-106729896D01*
X180679389Y-106561374D01*
X180780728Y-106409709D01*
X180909709Y-106280728D01*
X181061374Y-106179389D01*
X181229896Y-106109585D01*
X181408797Y-106074000D01*
X181591203Y-106074000D01*
X181770104Y-106109585D01*
X181770104Y-106109585D01*
G37*
G36*
X138770104Y-106109585D02*
G01*
X138938626Y-106179389D01*
X139090291Y-106280728D01*
X139219272Y-106409709D01*
X139320611Y-106561374D01*
X139390415Y-106729896D01*
X139426000Y-106908797D01*
X139426000Y-107091203D01*
X139390415Y-107270104D01*
X139320611Y-107438626D01*
X139219272Y-107590291D01*
X139090291Y-107719272D01*
X138938626Y-107820611D01*
X138770104Y-107890415D01*
X138591203Y-107926000D01*
X138408797Y-107926000D01*
X138229896Y-107890415D01*
X138061374Y-107820611D01*
X137909709Y-107719272D01*
X137780728Y-107590291D01*
X137679389Y-107438626D01*
X137609585Y-107270104D01*
X137574000Y-107091203D01*
X137574000Y-106908797D01*
X137609585Y-106729896D01*
X137679389Y-106561374D01*
X137780728Y-106409709D01*
X137909709Y-106280728D01*
X138061374Y-106179389D01*
X138229896Y-106109585D01*
X138408797Y-106074000D01*
X138591203Y-106074000D01*
X138770104Y-106109585D01*
X138770104Y-106109585D01*
G37*
G36*
X186770104Y-106109585D02*
G01*
X186938626Y-106179389D01*
X187090291Y-106280728D01*
X187219272Y-106409709D01*
X187320611Y-106561374D01*
X187390415Y-106729896D01*
X187426000Y-106908797D01*
X187426000Y-107091203D01*
X187390415Y-107270104D01*
X187320611Y-107438626D01*
X187219272Y-107590291D01*
X187090291Y-107719272D01*
X186938626Y-107820611D01*
X186770104Y-107890415D01*
X186591203Y-107926000D01*
X186408797Y-107926000D01*
X186229896Y-107890415D01*
X186061374Y-107820611D01*
X185909709Y-107719272D01*
X185780728Y-107590291D01*
X185679389Y-107438626D01*
X185609585Y-107270104D01*
X185574000Y-107091203D01*
X185574000Y-106908797D01*
X185609585Y-106729896D01*
X185679389Y-106561374D01*
X185780728Y-106409709D01*
X185909709Y-106280728D01*
X186061374Y-106179389D01*
X186229896Y-106109585D01*
X186408797Y-106074000D01*
X186591203Y-106074000D01*
X186770104Y-106109585D01*
X186770104Y-106109585D01*
G37*
G36*
X133770104Y-106109585D02*
G01*
X133938626Y-106179389D01*
X134090291Y-106280728D01*
X134219272Y-106409709D01*
X134320611Y-106561374D01*
X134390415Y-106729896D01*
X134426000Y-106908797D01*
X134426000Y-107091203D01*
X134390415Y-107270104D01*
X134320611Y-107438626D01*
X134219272Y-107590291D01*
X134090291Y-107719272D01*
X133938626Y-107820611D01*
X133770104Y-107890415D01*
X133591203Y-107926000D01*
X133408797Y-107926000D01*
X133229896Y-107890415D01*
X133061374Y-107820611D01*
X132909709Y-107719272D01*
X132780728Y-107590291D01*
X132679389Y-107438626D01*
X132609585Y-107270104D01*
X132574000Y-107091203D01*
X132574000Y-106908797D01*
X132609585Y-106729896D01*
X132679389Y-106561374D01*
X132780728Y-106409709D01*
X132909709Y-106280728D01*
X133061374Y-106179389D01*
X133229896Y-106109585D01*
X133408797Y-106074000D01*
X133591203Y-106074000D01*
X133770104Y-106109585D01*
X133770104Y-106109585D01*
G37*
G36*
X135301000Y-100601000D02*
G01*
X133499000Y-100601000D01*
X133499000Y-98799000D01*
X135301000Y-98799000D01*
X135301000Y-100601000D01*
X135301000Y-100601000D01*
G37*
G36*
X195378254Y-95297818D02*
G01*
X195751511Y-95452426D01*
X195751513Y-95452427D01*
X196087436Y-95676884D01*
X196373116Y-95962564D01*
X196594324Y-96293624D01*
X196597574Y-96298489D01*
X196752182Y-96671746D01*
X196831000Y-97067993D01*
X196831000Y-97472007D01*
X196752182Y-97868254D01*
X196672344Y-98061000D01*
X196597573Y-98241513D01*
X196373116Y-98577436D01*
X196087436Y-98863116D01*
X195751513Y-99087573D01*
X195751512Y-99087574D01*
X195751511Y-99087574D01*
X195378254Y-99242182D01*
X194982007Y-99321000D01*
X194577993Y-99321000D01*
X194181746Y-99242182D01*
X193808489Y-99087574D01*
X193808488Y-99087574D01*
X193808487Y-99087573D01*
X193472564Y-98863116D01*
X193186884Y-98577436D01*
X192962427Y-98241513D01*
X192887656Y-98061000D01*
X192807818Y-97868254D01*
X192729000Y-97472007D01*
X192729000Y-97067993D01*
X192807818Y-96671746D01*
X192962426Y-96298489D01*
X192965677Y-96293624D01*
X193186884Y-95962564D01*
X193472564Y-95676884D01*
X193808487Y-95452427D01*
X193808489Y-95452426D01*
X194181746Y-95297818D01*
X194577993Y-95219000D01*
X194982007Y-95219000D01*
X195378254Y-95297818D01*
X195378254Y-95297818D01*
G37*
G36*
X134513512Y-96263927D02*
G01*
X134662812Y-96293624D01*
X134826784Y-96361544D01*
X134974354Y-96460147D01*
X135099853Y-96585646D01*
X135198456Y-96733216D01*
X135266376Y-96897188D01*
X135296073Y-97046488D01*
X135300351Y-97067993D01*
X135301000Y-97071259D01*
X135301000Y-97248741D01*
X135266376Y-97422812D01*
X135198456Y-97586784D01*
X135099853Y-97734354D01*
X134974354Y-97859853D01*
X134826784Y-97958456D01*
X134662812Y-98026376D01*
X134513512Y-98056073D01*
X134488742Y-98061000D01*
X134311258Y-98061000D01*
X134286488Y-98056073D01*
X134137188Y-98026376D01*
X133973216Y-97958456D01*
X133825646Y-97859853D01*
X133700147Y-97734354D01*
X133601544Y-97586784D01*
X133533624Y-97422812D01*
X133499000Y-97248741D01*
X133499000Y-97071259D01*
X133499650Y-97067993D01*
X133503927Y-97046488D01*
X133533624Y-96897188D01*
X133601544Y-96733216D01*
X133700147Y-96585646D01*
X133825646Y-96460147D01*
X133973216Y-96361544D01*
X134137188Y-96293624D01*
X134286488Y-96263927D01*
X134311258Y-96259000D01*
X134488742Y-96259000D01*
X134513512Y-96263927D01*
X134513512Y-96263927D01*
G37*
G36*
X123533642Y-94329781D02*
G01*
X123599810Y-94357189D01*
X123679416Y-94390163D01*
X123810608Y-94477822D01*
X123922178Y-94589392D01*
X124001924Y-94708742D01*
X124009838Y-94720586D01*
X124070219Y-94866358D01*
X124101000Y-95021107D01*
X124101000Y-95178893D01*
X124070219Y-95333642D01*
X124021017Y-95452426D01*
X124009837Y-95479416D01*
X123922178Y-95610608D01*
X123810608Y-95722178D01*
X123679416Y-95809837D01*
X123679415Y-95809838D01*
X123679414Y-95809838D01*
X123533642Y-95870219D01*
X123378893Y-95901000D01*
X123221107Y-95901000D01*
X123066358Y-95870219D01*
X122920586Y-95809838D01*
X122920585Y-95809838D01*
X122920584Y-95809837D01*
X122789392Y-95722178D01*
X122677822Y-95610608D01*
X122590163Y-95479416D01*
X122578983Y-95452426D01*
X122529781Y-95333642D01*
X122499000Y-95178893D01*
X122499000Y-95021107D01*
X122529781Y-94866358D01*
X122590162Y-94720586D01*
X122598076Y-94708742D01*
X122677822Y-94589392D01*
X122789392Y-94477822D01*
X122920584Y-94390163D01*
X123000190Y-94357189D01*
X123066358Y-94329781D01*
X123221107Y-94299000D01*
X123378893Y-94299000D01*
X123533642Y-94329781D01*
X123533642Y-94329781D01*
G37*
G36*
X134513512Y-93723927D02*
G01*
X134662812Y-93753624D01*
X134826784Y-93821544D01*
X134974354Y-93920147D01*
X135099853Y-94045646D01*
X135198456Y-94193216D01*
X135266376Y-94357188D01*
X135301000Y-94531259D01*
X135301000Y-94708741D01*
X135266376Y-94882812D01*
X135198456Y-95046784D01*
X135099853Y-95194354D01*
X134974354Y-95319853D01*
X134826784Y-95418456D01*
X134662812Y-95486376D01*
X134513512Y-95516073D01*
X134488742Y-95521000D01*
X134311258Y-95521000D01*
X134286488Y-95516073D01*
X134137188Y-95486376D01*
X133973216Y-95418456D01*
X133825646Y-95319853D01*
X133700147Y-95194354D01*
X133601544Y-95046784D01*
X133533624Y-94882812D01*
X133499000Y-94708741D01*
X133499000Y-94531259D01*
X133533624Y-94357188D01*
X133601544Y-94193216D01*
X133700147Y-94045646D01*
X133825646Y-93920147D01*
X133973216Y-93821544D01*
X134137188Y-93753624D01*
X134286488Y-93723927D01*
X134311258Y-93719000D01*
X134488742Y-93719000D01*
X134513512Y-93723927D01*
X134513512Y-93723927D01*
G37*
G36*
X123533642Y-91789781D02*
G01*
X123599810Y-91817189D01*
X123679416Y-91850163D01*
X123810608Y-91937822D01*
X123922178Y-92049392D01*
X124001924Y-92168742D01*
X124009838Y-92180586D01*
X124070219Y-92326358D01*
X124101000Y-92481107D01*
X124101000Y-92638893D01*
X124070219Y-92793642D01*
X124009838Y-92939414D01*
X124009837Y-92939416D01*
X123922178Y-93070608D01*
X123810608Y-93182178D01*
X123679416Y-93269837D01*
X123679415Y-93269838D01*
X123679414Y-93269838D01*
X123533642Y-93330219D01*
X123378893Y-93361000D01*
X123221107Y-93361000D01*
X123066358Y-93330219D01*
X122920586Y-93269838D01*
X122920585Y-93269838D01*
X122920584Y-93269837D01*
X122789392Y-93182178D01*
X122677822Y-93070608D01*
X122590163Y-92939416D01*
X122590162Y-92939414D01*
X122529781Y-92793642D01*
X122499000Y-92638893D01*
X122499000Y-92481107D01*
X122529781Y-92326358D01*
X122590162Y-92180586D01*
X122598076Y-92168742D01*
X122677822Y-92049392D01*
X122789392Y-91937822D01*
X122920584Y-91850163D01*
X123000190Y-91817189D01*
X123066358Y-91789781D01*
X123221107Y-91759000D01*
X123378893Y-91759000D01*
X123533642Y-91789781D01*
X123533642Y-91789781D01*
G37*
G36*
X134513512Y-91183927D02*
G01*
X134662812Y-91213624D01*
X134826784Y-91281544D01*
X134974354Y-91380147D01*
X135099853Y-91505646D01*
X135198456Y-91653216D01*
X135266376Y-91817188D01*
X135301000Y-91991259D01*
X135301000Y-92168741D01*
X135266376Y-92342812D01*
X135198456Y-92506784D01*
X135099853Y-92654354D01*
X134974354Y-92779853D01*
X134826784Y-92878456D01*
X134662812Y-92946376D01*
X134513512Y-92976073D01*
X134488742Y-92981000D01*
X134311258Y-92981000D01*
X134286488Y-92976073D01*
X134137188Y-92946376D01*
X133973216Y-92878456D01*
X133825646Y-92779853D01*
X133700147Y-92654354D01*
X133601544Y-92506784D01*
X133533624Y-92342812D01*
X133499000Y-92168741D01*
X133499000Y-91991259D01*
X133533624Y-91817188D01*
X133601544Y-91653216D01*
X133700147Y-91505646D01*
X133825646Y-91380147D01*
X133973216Y-91281544D01*
X134137188Y-91213624D01*
X134286488Y-91183927D01*
X134311258Y-91179000D01*
X134488742Y-91179000D01*
X134513512Y-91183927D01*
X134513512Y-91183927D01*
G37*
G36*
X123533642Y-89249781D02*
G01*
X123679414Y-89310162D01*
X123679416Y-89310163D01*
X123810608Y-89397822D01*
X123922178Y-89509392D01*
X124009837Y-89640584D01*
X124009838Y-89640586D01*
X124070219Y-89786358D01*
X124101000Y-89941107D01*
X124101000Y-90098893D01*
X124070219Y-90253642D01*
X124009838Y-90399414D01*
X124009837Y-90399416D01*
X123922178Y-90530608D01*
X123810608Y-90642178D01*
X123679416Y-90729837D01*
X123679415Y-90729838D01*
X123679414Y-90729838D01*
X123533642Y-90790219D01*
X123378893Y-90821000D01*
X123221107Y-90821000D01*
X123066358Y-90790219D01*
X122920586Y-90729838D01*
X122920585Y-90729838D01*
X122920584Y-90729837D01*
X122789392Y-90642178D01*
X122677822Y-90530608D01*
X122590163Y-90399416D01*
X122590162Y-90399414D01*
X122529781Y-90253642D01*
X122499000Y-90098893D01*
X122499000Y-89941107D01*
X122529781Y-89786358D01*
X122590162Y-89640586D01*
X122590163Y-89640584D01*
X122677822Y-89509392D01*
X122789392Y-89397822D01*
X122920584Y-89310163D01*
X122920586Y-89310162D01*
X123066358Y-89249781D01*
X123221107Y-89219000D01*
X123378893Y-89219000D01*
X123533642Y-89249781D01*
X123533642Y-89249781D01*
G37*
G36*
X123533642Y-86709781D02*
G01*
X123679414Y-86770162D01*
X123679416Y-86770163D01*
X123810608Y-86857822D01*
X123922178Y-86969392D01*
X124009837Y-87100584D01*
X124009838Y-87100586D01*
X124070219Y-87246358D01*
X124101000Y-87401107D01*
X124101000Y-87558893D01*
X124070219Y-87713642D01*
X124009838Y-87859414D01*
X124009837Y-87859416D01*
X123922178Y-87990608D01*
X123810608Y-88102178D01*
X123679416Y-88189837D01*
X123679415Y-88189838D01*
X123679414Y-88189838D01*
X123533642Y-88250219D01*
X123378893Y-88281000D01*
X123221107Y-88281000D01*
X123066358Y-88250219D01*
X122920586Y-88189838D01*
X122920585Y-88189838D01*
X122920584Y-88189837D01*
X122789392Y-88102178D01*
X122677822Y-87990608D01*
X122590163Y-87859416D01*
X122590162Y-87859414D01*
X122529781Y-87713642D01*
X122499000Y-87558893D01*
X122499000Y-87401107D01*
X122529781Y-87246358D01*
X122590162Y-87100586D01*
X122590163Y-87100584D01*
X122677822Y-86969392D01*
X122789392Y-86857822D01*
X122920584Y-86770163D01*
X122920586Y-86770162D01*
X123066358Y-86709781D01*
X123221107Y-86679000D01*
X123378893Y-86679000D01*
X123533642Y-86709781D01*
X123533642Y-86709781D01*
G37*
G36*
X123533642Y-84169781D02*
G01*
X123679414Y-84230162D01*
X123679416Y-84230163D01*
X123810608Y-84317822D01*
X123922178Y-84429392D01*
X124009837Y-84560584D01*
X124009838Y-84560586D01*
X124070219Y-84706358D01*
X124101000Y-84861107D01*
X124101000Y-85018893D01*
X124070219Y-85173642D01*
X124009838Y-85319414D01*
X124009837Y-85319416D01*
X123922178Y-85450608D01*
X123810608Y-85562178D01*
X123679416Y-85649837D01*
X123679415Y-85649838D01*
X123679414Y-85649838D01*
X123533642Y-85710219D01*
X123378893Y-85741000D01*
X123221107Y-85741000D01*
X123066358Y-85710219D01*
X122920586Y-85649838D01*
X122920585Y-85649838D01*
X122920584Y-85649837D01*
X122789392Y-85562178D01*
X122677822Y-85450608D01*
X122590163Y-85319416D01*
X122590162Y-85319414D01*
X122529781Y-85173642D01*
X122499000Y-85018893D01*
X122499000Y-84861107D01*
X122529781Y-84706358D01*
X122590162Y-84560586D01*
X122590163Y-84560584D01*
X122677822Y-84429392D01*
X122789392Y-84317822D01*
X122920584Y-84230163D01*
X122920586Y-84230162D01*
X123066358Y-84169781D01*
X123221107Y-84139000D01*
X123378893Y-84139000D01*
X123533642Y-84169781D01*
X123533642Y-84169781D01*
G37*
G36*
X149151000Y-85551000D02*
G01*
X146049000Y-85551000D01*
X146049000Y-85049000D01*
X149151000Y-85049000D01*
X149151000Y-85551000D01*
X149151000Y-85551000D01*
G37*
G36*
X149151000Y-84751000D02*
G01*
X146049000Y-84751000D01*
X146049000Y-84249000D01*
X149151000Y-84249000D01*
X149151000Y-84751000D01*
X149151000Y-84751000D01*
G37*
G36*
X149151000Y-83951000D02*
G01*
X146049000Y-83951000D01*
X146049000Y-83449000D01*
X149151000Y-83449000D01*
X149151000Y-83951000D01*
X149151000Y-83951000D01*
G37*
G36*
X123533642Y-81629781D02*
G01*
X123679414Y-81690162D01*
X123679416Y-81690163D01*
X123810608Y-81777822D01*
X123922178Y-81889392D01*
X124009837Y-82020584D01*
X124009838Y-82020586D01*
X124070219Y-82166358D01*
X124101000Y-82321107D01*
X124101000Y-82478893D01*
X124070219Y-82633642D01*
X124063857Y-82649000D01*
X124009837Y-82779416D01*
X123922178Y-82910608D01*
X123810608Y-83022178D01*
X123679416Y-83109837D01*
X123679415Y-83109838D01*
X123679414Y-83109838D01*
X123533642Y-83170219D01*
X123378893Y-83201000D01*
X123221107Y-83201000D01*
X123066358Y-83170219D01*
X122920586Y-83109838D01*
X122920585Y-83109838D01*
X122920584Y-83109837D01*
X122789392Y-83022178D01*
X122677822Y-82910608D01*
X122590163Y-82779416D01*
X122536143Y-82649000D01*
X122529781Y-82633642D01*
X122499000Y-82478893D01*
X122499000Y-82321107D01*
X122529781Y-82166358D01*
X122590162Y-82020586D01*
X122590163Y-82020584D01*
X122677822Y-81889392D01*
X122789392Y-81777822D01*
X122920584Y-81690163D01*
X122920586Y-81690162D01*
X123066358Y-81629781D01*
X123221107Y-81599000D01*
X123378893Y-81599000D01*
X123533642Y-81629781D01*
X123533642Y-81629781D01*
G37*
G36*
X149151000Y-83151000D02*
G01*
X146049000Y-83151000D01*
X146049000Y-82649000D01*
X149151000Y-82649000D01*
X149151000Y-83151000D01*
X149151000Y-83151000D01*
G37*
G36*
X149151000Y-82351000D02*
G01*
X146049000Y-82351000D01*
X146049000Y-81849000D01*
X149151000Y-81849000D01*
X149151000Y-82351000D01*
X149151000Y-82351000D01*
G37*
G36*
X149151000Y-81551000D02*
G01*
X146049000Y-81551000D01*
X146049000Y-81049000D01*
X149151000Y-81049000D01*
X149151000Y-81551000D01*
X149151000Y-81551000D01*
G37*
G36*
X149151000Y-80751000D02*
G01*
X146049000Y-80751000D01*
X146049000Y-80249000D01*
X149151000Y-80249000D01*
X149151000Y-80751000D01*
X149151000Y-80751000D01*
G37*
G36*
X123533642Y-79089781D02*
G01*
X123679414Y-79150162D01*
X123679416Y-79150163D01*
X123810608Y-79237822D01*
X123922178Y-79349392D01*
X123988733Y-79449000D01*
X124009838Y-79480586D01*
X124070219Y-79626358D01*
X124101000Y-79781107D01*
X124101000Y-79938893D01*
X124070219Y-80093642D01*
X124009838Y-80239414D01*
X124009837Y-80239416D01*
X123922178Y-80370608D01*
X123810608Y-80482178D01*
X123679416Y-80569837D01*
X123679415Y-80569838D01*
X123679414Y-80569838D01*
X123533642Y-80630219D01*
X123378893Y-80661000D01*
X123221107Y-80661000D01*
X123066358Y-80630219D01*
X122920586Y-80569838D01*
X122920585Y-80569838D01*
X122920584Y-80569837D01*
X122789392Y-80482178D01*
X122677822Y-80370608D01*
X122590163Y-80239416D01*
X122590162Y-80239414D01*
X122529781Y-80093642D01*
X122499000Y-79938893D01*
X122499000Y-79781107D01*
X122529781Y-79626358D01*
X122590162Y-79480586D01*
X122611267Y-79449000D01*
X122677822Y-79349392D01*
X122789392Y-79237822D01*
X122920584Y-79150163D01*
X122920586Y-79150162D01*
X123066358Y-79089781D01*
X123221107Y-79059000D01*
X123378893Y-79059000D01*
X123533642Y-79089781D01*
X123533642Y-79089781D01*
G37*
G36*
X149151000Y-79951000D02*
G01*
X146049000Y-79951000D01*
X146049000Y-79449000D01*
X149151000Y-79449000D01*
X149151000Y-79951000D01*
X149151000Y-79951000D01*
G37*
G36*
X149151000Y-79151000D02*
G01*
X146049000Y-79151000D01*
X146049000Y-78649000D01*
X149151000Y-78649000D01*
X149151000Y-79151000D01*
X149151000Y-79151000D01*
G37*
G36*
X149151000Y-78351000D02*
G01*
X146049000Y-78351000D01*
X146049000Y-77849000D01*
X149151000Y-77849000D01*
X149151000Y-78351000D01*
X149151000Y-78351000D01*
G37*
G36*
X123533642Y-76549781D02*
G01*
X123663364Y-76603514D01*
X123679416Y-76610163D01*
X123810608Y-76697822D01*
X123922178Y-76809392D01*
X124009837Y-76940584D01*
X124009838Y-76940586D01*
X124070219Y-77086358D01*
X124101000Y-77241107D01*
X124101000Y-77398893D01*
X124070219Y-77553642D01*
X124009838Y-77699414D01*
X124009837Y-77699416D01*
X123922178Y-77830608D01*
X123810608Y-77942178D01*
X123679416Y-78029837D01*
X123679415Y-78029838D01*
X123679414Y-78029838D01*
X123533642Y-78090219D01*
X123378893Y-78121000D01*
X123221107Y-78121000D01*
X123066358Y-78090219D01*
X122920586Y-78029838D01*
X122920585Y-78029838D01*
X122920584Y-78029837D01*
X122789392Y-77942178D01*
X122677822Y-77830608D01*
X122590163Y-77699416D01*
X122590162Y-77699414D01*
X122529781Y-77553642D01*
X122499000Y-77398893D01*
X122499000Y-77241107D01*
X122529781Y-77086358D01*
X122590162Y-76940586D01*
X122590163Y-76940584D01*
X122677822Y-76809392D01*
X122789392Y-76697822D01*
X122920584Y-76610163D01*
X122936636Y-76603514D01*
X123066358Y-76549781D01*
X123221107Y-76519000D01*
X123378893Y-76519000D01*
X123533642Y-76549781D01*
X123533642Y-76549781D01*
G37*
G36*
X149151000Y-77551000D02*
G01*
X146049000Y-77551000D01*
X146049000Y-77049000D01*
X149151000Y-77049000D01*
X149151000Y-77551000D01*
X149151000Y-77551000D01*
G37*
G36*
X152506564Y-75489389D02*
G01*
X152697833Y-75568615D01*
X152697835Y-75568616D01*
X152869973Y-75683635D01*
X153016365Y-75830027D01*
X153097197Y-75951000D01*
X153131385Y-76002167D01*
X153210611Y-76193436D01*
X153251000Y-76396484D01*
X153251000Y-76603516D01*
X153210611Y-76806564D01*
X153209439Y-76809393D01*
X153131384Y-76997835D01*
X153016365Y-77169973D01*
X152869973Y-77316365D01*
X152697835Y-77431384D01*
X152697834Y-77431385D01*
X152697833Y-77431385D01*
X152506564Y-77510611D01*
X152303516Y-77551000D01*
X152096484Y-77551000D01*
X151893436Y-77510611D01*
X151702167Y-77431385D01*
X151702166Y-77431385D01*
X151702165Y-77431384D01*
X151530027Y-77316365D01*
X151383635Y-77169973D01*
X151268616Y-76997835D01*
X151190561Y-76809393D01*
X151189389Y-76806564D01*
X151149000Y-76603516D01*
X151149000Y-76396484D01*
X151189389Y-76193436D01*
X151268615Y-76002167D01*
X151302804Y-75951000D01*
X151383635Y-75830027D01*
X151530027Y-75683635D01*
X151702165Y-75568616D01*
X151702167Y-75568615D01*
X151893436Y-75489389D01*
X152096484Y-75449000D01*
X152303516Y-75449000D01*
X152506564Y-75489389D01*
X152506564Y-75489389D01*
G37*
G36*
X149151000Y-76751000D02*
G01*
X146049000Y-76751000D01*
X146049000Y-76249000D01*
X149151000Y-76249000D01*
X149151000Y-76751000D01*
X149151000Y-76751000D01*
G37*
G36*
X149151000Y-75951000D02*
G01*
X146049000Y-75951000D01*
X146049000Y-75449000D01*
X149151000Y-75449000D01*
X149151000Y-75951000D01*
X149151000Y-75951000D01*
G37*
G36*
X123533642Y-74009781D02*
G01*
X123679414Y-74070162D01*
X123679416Y-74070163D01*
X123810608Y-74157822D01*
X123922178Y-74269392D01*
X123976706Y-74351000D01*
X124009838Y-74400586D01*
X124070219Y-74546358D01*
X124101000Y-74701107D01*
X124101000Y-74858893D01*
X124070219Y-75013642D01*
X124013323Y-75151000D01*
X124009837Y-75159416D01*
X123922178Y-75290608D01*
X123810608Y-75402178D01*
X123679416Y-75489837D01*
X123679415Y-75489838D01*
X123679414Y-75489838D01*
X123533642Y-75550219D01*
X123378893Y-75581000D01*
X123221107Y-75581000D01*
X123066358Y-75550219D01*
X122920586Y-75489838D01*
X122920585Y-75489838D01*
X122920584Y-75489837D01*
X122789392Y-75402178D01*
X122677822Y-75290608D01*
X122590163Y-75159416D01*
X122586677Y-75151000D01*
X122529781Y-75013642D01*
X122499000Y-74858893D01*
X122499000Y-74701107D01*
X122529781Y-74546358D01*
X122590162Y-74400586D01*
X122623294Y-74351000D01*
X122677822Y-74269392D01*
X122789392Y-74157822D01*
X122920584Y-74070163D01*
X122920586Y-74070162D01*
X123066358Y-74009781D01*
X123221107Y-73979000D01*
X123378893Y-73979000D01*
X123533642Y-74009781D01*
X123533642Y-74009781D01*
G37*
G36*
X149151000Y-75151000D02*
G01*
X146049000Y-75151000D01*
X146049000Y-74649000D01*
X149151000Y-74649000D01*
X149151000Y-75151000D01*
X149151000Y-75151000D01*
G37*
G36*
X149151000Y-74351000D02*
G01*
X146049000Y-74351000D01*
X146049000Y-73849000D01*
X149151000Y-73849000D01*
X149151000Y-74351000D01*
X149151000Y-74351000D01*
G37*
G36*
X149151000Y-73551000D02*
G01*
X146049000Y-73551000D01*
X146049000Y-73049000D01*
X149151000Y-73049000D01*
X149151000Y-73551000D01*
X149151000Y-73551000D01*
G37*
G36*
X123533642Y-71469781D02*
G01*
X123679414Y-71530162D01*
X123679416Y-71530163D01*
X123810608Y-71617822D01*
X123922178Y-71729392D01*
X124009837Y-71860584D01*
X124009838Y-71860586D01*
X124070219Y-72006358D01*
X124101000Y-72161107D01*
X124101000Y-72318893D01*
X124070219Y-72473642D01*
X124009838Y-72619414D01*
X124009837Y-72619416D01*
X123922178Y-72750608D01*
X123810608Y-72862178D01*
X123679416Y-72949837D01*
X123679415Y-72949838D01*
X123679414Y-72949838D01*
X123533642Y-73010219D01*
X123378893Y-73041000D01*
X123221107Y-73041000D01*
X123066358Y-73010219D01*
X122920586Y-72949838D01*
X122920585Y-72949838D01*
X122920584Y-72949837D01*
X122789392Y-72862178D01*
X122677822Y-72750608D01*
X122590163Y-72619416D01*
X122590162Y-72619414D01*
X122529781Y-72473642D01*
X122499000Y-72318893D01*
X122499000Y-72161107D01*
X122529781Y-72006358D01*
X122590162Y-71860586D01*
X122590163Y-71860584D01*
X122677822Y-71729392D01*
X122789392Y-71617822D01*
X122920584Y-71530163D01*
X122920586Y-71530162D01*
X123066358Y-71469781D01*
X123221107Y-71439000D01*
X123378893Y-71439000D01*
X123533642Y-71469781D01*
X123533642Y-71469781D01*
G37*
G36*
X149151000Y-72751000D02*
G01*
X146049000Y-72751000D01*
X146049000Y-72249000D01*
X149151000Y-72249000D01*
X149151000Y-72751000D01*
X149151000Y-72751000D01*
G37*
G36*
X149151000Y-71951000D02*
G01*
X146049000Y-71951000D01*
X146049000Y-71449000D01*
X149151000Y-71449000D01*
X149151000Y-71951000D01*
X149151000Y-71951000D01*
G37*
G36*
X123533642Y-68929781D02*
G01*
X123679414Y-68990162D01*
X123679416Y-68990163D01*
X123810608Y-69077822D01*
X123922178Y-69189392D01*
X124009837Y-69320584D01*
X124009838Y-69320586D01*
X124070219Y-69466358D01*
X124101000Y-69621107D01*
X124101000Y-69778893D01*
X124070219Y-69933642D01*
X124009838Y-70079414D01*
X124009837Y-70079416D01*
X123922178Y-70210608D01*
X123810608Y-70322178D01*
X123679416Y-70409837D01*
X123679415Y-70409838D01*
X123679414Y-70409838D01*
X123533642Y-70470219D01*
X123378893Y-70501000D01*
X123221107Y-70501000D01*
X123066358Y-70470219D01*
X122920586Y-70409838D01*
X122920585Y-70409838D01*
X122920584Y-70409837D01*
X122789392Y-70322178D01*
X122677822Y-70210608D01*
X122590163Y-70079416D01*
X122590162Y-70079414D01*
X122529781Y-69933642D01*
X122499000Y-69778893D01*
X122499000Y-69621107D01*
X122529781Y-69466358D01*
X122590162Y-69320586D01*
X122590163Y-69320584D01*
X122677822Y-69189392D01*
X122789392Y-69077822D01*
X122920584Y-68990163D01*
X122920586Y-68990162D01*
X123066358Y-68929781D01*
X123221107Y-68899000D01*
X123378893Y-68899000D01*
X123533642Y-68929781D01*
X123533642Y-68929781D01*
G37*
G36*
X123533642Y-66389781D02*
G01*
X123679414Y-66450162D01*
X123679416Y-66450163D01*
X123810608Y-66537822D01*
X123922178Y-66649392D01*
X124009837Y-66780584D01*
X124009838Y-66780586D01*
X124070219Y-66926358D01*
X124101000Y-67081107D01*
X124101000Y-67238893D01*
X124070219Y-67393642D01*
X124009838Y-67539414D01*
X124009837Y-67539416D01*
X123922178Y-67670608D01*
X123810608Y-67782178D01*
X123679416Y-67869837D01*
X123679415Y-67869838D01*
X123679414Y-67869838D01*
X123533642Y-67930219D01*
X123378893Y-67961000D01*
X123221107Y-67961000D01*
X123066358Y-67930219D01*
X122920586Y-67869838D01*
X122920585Y-67869838D01*
X122920584Y-67869837D01*
X122789392Y-67782178D01*
X122677822Y-67670608D01*
X122590163Y-67539416D01*
X122590162Y-67539414D01*
X122529781Y-67393642D01*
X122499000Y-67238893D01*
X122499000Y-67081107D01*
X122529781Y-66926358D01*
X122590162Y-66780586D01*
X122590163Y-66780584D01*
X122677822Y-66649392D01*
X122789392Y-66537822D01*
X122920584Y-66450163D01*
X122920586Y-66450162D01*
X123066358Y-66389781D01*
X123221107Y-66359000D01*
X123378893Y-66359000D01*
X123533642Y-66389781D01*
X123533642Y-66389781D01*
G37*
G36*
X123533642Y-63849781D02*
G01*
X123679414Y-63910162D01*
X123679416Y-63910163D01*
X123810608Y-63997822D01*
X123922178Y-64109392D01*
X124009837Y-64240584D01*
X124009838Y-64240586D01*
X124070219Y-64386358D01*
X124101000Y-64541107D01*
X124101000Y-64698893D01*
X124070219Y-64853642D01*
X124009838Y-64999414D01*
X124009837Y-64999416D01*
X123922178Y-65130608D01*
X123810608Y-65242178D01*
X123679416Y-65329837D01*
X123679415Y-65329838D01*
X123679414Y-65329838D01*
X123533642Y-65390219D01*
X123378893Y-65421000D01*
X123221107Y-65421000D01*
X123066358Y-65390219D01*
X122920586Y-65329838D01*
X122920585Y-65329838D01*
X122920584Y-65329837D01*
X122789392Y-65242178D01*
X122677822Y-65130608D01*
X122590163Y-64999416D01*
X122590162Y-64999414D01*
X122529781Y-64853642D01*
X122499000Y-64698893D01*
X122499000Y-64541107D01*
X122529781Y-64386358D01*
X122590162Y-64240586D01*
X122590163Y-64240584D01*
X122677822Y-64109392D01*
X122789392Y-63997822D01*
X122920584Y-63910163D01*
X122920586Y-63910162D01*
X123066358Y-63849781D01*
X123221107Y-63819000D01*
X123378893Y-63819000D01*
X123533642Y-63849781D01*
X123533642Y-63849781D01*
G37*
G36*
X124101000Y-62881000D02*
G01*
X122499000Y-62881000D01*
X122499000Y-61279000D01*
X124101000Y-61279000D01*
X124101000Y-62881000D01*
X124101000Y-62881000D01*
G37*
G36*
X160173512Y-60043927D02*
G01*
X160322812Y-60073624D01*
X160486784Y-60141544D01*
X160634354Y-60240147D01*
X160759853Y-60365646D01*
X160858456Y-60513216D01*
X160926376Y-60677188D01*
X160961000Y-60851259D01*
X160961000Y-61028741D01*
X160926376Y-61202812D01*
X160858456Y-61366784D01*
X160759853Y-61514354D01*
X160634354Y-61639853D01*
X160486784Y-61738456D01*
X160322812Y-61806376D01*
X160173512Y-61836073D01*
X160148742Y-61841000D01*
X159971258Y-61841000D01*
X159946488Y-61836073D01*
X159797188Y-61806376D01*
X159633216Y-61738456D01*
X159485646Y-61639853D01*
X159360147Y-61514354D01*
X159261544Y-61366784D01*
X159193624Y-61202812D01*
X159159000Y-61028741D01*
X159159000Y-60851259D01*
X159193624Y-60677188D01*
X159261544Y-60513216D01*
X159360147Y-60365646D01*
X159485646Y-60240147D01*
X159633216Y-60141544D01*
X159797188Y-60073624D01*
X159946488Y-60043927D01*
X159971258Y-60039000D01*
X160148742Y-60039000D01*
X160173512Y-60043927D01*
X160173512Y-60043927D01*
G37*
G36*
X165253512Y-60043927D02*
G01*
X165402812Y-60073624D01*
X165566784Y-60141544D01*
X165714354Y-60240147D01*
X165839853Y-60365646D01*
X165938456Y-60513216D01*
X166006376Y-60677188D01*
X166041000Y-60851259D01*
X166041000Y-61028741D01*
X166006376Y-61202812D01*
X165938456Y-61366784D01*
X165839853Y-61514354D01*
X165714354Y-61639853D01*
X165566784Y-61738456D01*
X165402812Y-61806376D01*
X165253512Y-61836073D01*
X165228742Y-61841000D01*
X165051258Y-61841000D01*
X165026488Y-61836073D01*
X164877188Y-61806376D01*
X164713216Y-61738456D01*
X164565646Y-61639853D01*
X164440147Y-61514354D01*
X164341544Y-61366784D01*
X164273624Y-61202812D01*
X164239000Y-61028741D01*
X164239000Y-60851259D01*
X164273624Y-60677188D01*
X164341544Y-60513216D01*
X164440147Y-60365646D01*
X164565646Y-60240147D01*
X164713216Y-60141544D01*
X164877188Y-60073624D01*
X165026488Y-60043927D01*
X165051258Y-60039000D01*
X165228742Y-60039000D01*
X165253512Y-60043927D01*
X165253512Y-60043927D01*
G37*
G36*
X162713512Y-60043927D02*
G01*
X162862812Y-60073624D01*
X163026784Y-60141544D01*
X163174354Y-60240147D01*
X163299853Y-60365646D01*
X163398456Y-60513216D01*
X163466376Y-60677188D01*
X163501000Y-60851259D01*
X163501000Y-61028741D01*
X163466376Y-61202812D01*
X163398456Y-61366784D01*
X163299853Y-61514354D01*
X163174354Y-61639853D01*
X163026784Y-61738456D01*
X162862812Y-61806376D01*
X162713512Y-61836073D01*
X162688742Y-61841000D01*
X162511258Y-61841000D01*
X162486488Y-61836073D01*
X162337188Y-61806376D01*
X162173216Y-61738456D01*
X162025646Y-61639853D01*
X161900147Y-61514354D01*
X161801544Y-61366784D01*
X161733624Y-61202812D01*
X161699000Y-61028741D01*
X161699000Y-60851259D01*
X161733624Y-60677188D01*
X161801544Y-60513216D01*
X161900147Y-60365646D01*
X162025646Y-60240147D01*
X162173216Y-60141544D01*
X162337188Y-60073624D01*
X162486488Y-60043927D01*
X162511258Y-60039000D01*
X162688742Y-60039000D01*
X162713512Y-60043927D01*
X162713512Y-60043927D01*
G37*
G36*
X157633512Y-60043927D02*
G01*
X157782812Y-60073624D01*
X157946784Y-60141544D01*
X158094354Y-60240147D01*
X158219853Y-60365646D01*
X158318456Y-60513216D01*
X158386376Y-60677188D01*
X158421000Y-60851259D01*
X158421000Y-61028741D01*
X158386376Y-61202812D01*
X158318456Y-61366784D01*
X158219853Y-61514354D01*
X158094354Y-61639853D01*
X157946784Y-61738456D01*
X157782812Y-61806376D01*
X157633512Y-61836073D01*
X157608742Y-61841000D01*
X157431258Y-61841000D01*
X157406488Y-61836073D01*
X157257188Y-61806376D01*
X157093216Y-61738456D01*
X156945646Y-61639853D01*
X156820147Y-61514354D01*
X156721544Y-61366784D01*
X156653624Y-61202812D01*
X156619000Y-61028741D01*
X156619000Y-60851259D01*
X156653624Y-60677188D01*
X156721544Y-60513216D01*
X156820147Y-60365646D01*
X156945646Y-60240147D01*
X157093216Y-60141544D01*
X157257188Y-60073624D01*
X157406488Y-60043927D01*
X157431258Y-60039000D01*
X157608742Y-60039000D01*
X157633512Y-60043927D01*
X157633512Y-60043927D01*
G37*
G36*
X155093512Y-60043927D02*
G01*
X155242812Y-60073624D01*
X155406784Y-60141544D01*
X155554354Y-60240147D01*
X155679853Y-60365646D01*
X155778456Y-60513216D01*
X155846376Y-60677188D01*
X155881000Y-60851259D01*
X155881000Y-61028741D01*
X155846376Y-61202812D01*
X155778456Y-61366784D01*
X155679853Y-61514354D01*
X155554354Y-61639853D01*
X155406784Y-61738456D01*
X155242812Y-61806376D01*
X155093512Y-61836073D01*
X155068742Y-61841000D01*
X154891258Y-61841000D01*
X154866488Y-61836073D01*
X154717188Y-61806376D01*
X154553216Y-61738456D01*
X154405646Y-61639853D01*
X154280147Y-61514354D01*
X154181544Y-61366784D01*
X154113624Y-61202812D01*
X154079000Y-61028741D01*
X154079000Y-60851259D01*
X154113624Y-60677188D01*
X154181544Y-60513216D01*
X154280147Y-60365646D01*
X154405646Y-60240147D01*
X154553216Y-60141544D01*
X154717188Y-60073624D01*
X154866488Y-60043927D01*
X154891258Y-60039000D01*
X155068742Y-60039000D01*
X155093512Y-60043927D01*
X155093512Y-60043927D01*
G37*
G36*
X152553512Y-60043927D02*
G01*
X152702812Y-60073624D01*
X152866784Y-60141544D01*
X153014354Y-60240147D01*
X153139853Y-60365646D01*
X153238456Y-60513216D01*
X153306376Y-60677188D01*
X153341000Y-60851259D01*
X153341000Y-61028741D01*
X153306376Y-61202812D01*
X153238456Y-61366784D01*
X153139853Y-61514354D01*
X153014354Y-61639853D01*
X152866784Y-61738456D01*
X152702812Y-61806376D01*
X152553512Y-61836073D01*
X152528742Y-61841000D01*
X152351258Y-61841000D01*
X152326488Y-61836073D01*
X152177188Y-61806376D01*
X152013216Y-61738456D01*
X151865646Y-61639853D01*
X151740147Y-61514354D01*
X151641544Y-61366784D01*
X151573624Y-61202812D01*
X151539000Y-61028741D01*
X151539000Y-60851259D01*
X151573624Y-60677188D01*
X151641544Y-60513216D01*
X151740147Y-60365646D01*
X151865646Y-60240147D01*
X152013216Y-60141544D01*
X152177188Y-60073624D01*
X152326488Y-60043927D01*
X152351258Y-60039000D01*
X152528742Y-60039000D01*
X152553512Y-60043927D01*
X152553512Y-60043927D01*
G37*
G36*
X150013512Y-60043927D02*
G01*
X150162812Y-60073624D01*
X150326784Y-60141544D01*
X150474354Y-60240147D01*
X150599853Y-60365646D01*
X150698456Y-60513216D01*
X150766376Y-60677188D01*
X150801000Y-60851259D01*
X150801000Y-61028741D01*
X150766376Y-61202812D01*
X150698456Y-61366784D01*
X150599853Y-61514354D01*
X150474354Y-61639853D01*
X150326784Y-61738456D01*
X150162812Y-61806376D01*
X150013512Y-61836073D01*
X149988742Y-61841000D01*
X149811258Y-61841000D01*
X149786488Y-61836073D01*
X149637188Y-61806376D01*
X149473216Y-61738456D01*
X149325646Y-61639853D01*
X149200147Y-61514354D01*
X149101544Y-61366784D01*
X149033624Y-61202812D01*
X148999000Y-61028741D01*
X148999000Y-60851259D01*
X149033624Y-60677188D01*
X149101544Y-60513216D01*
X149200147Y-60365646D01*
X149325646Y-60240147D01*
X149473216Y-60141544D01*
X149637188Y-60073624D01*
X149786488Y-60043927D01*
X149811258Y-60039000D01*
X149988742Y-60039000D01*
X150013512Y-60043927D01*
X150013512Y-60043927D01*
G37*
G36*
X167793512Y-60043927D02*
G01*
X167942812Y-60073624D01*
X168106784Y-60141544D01*
X168254354Y-60240147D01*
X168379853Y-60365646D01*
X168478456Y-60513216D01*
X168546376Y-60677188D01*
X168581000Y-60851259D01*
X168581000Y-61028741D01*
X168546376Y-61202812D01*
X168478456Y-61366784D01*
X168379853Y-61514354D01*
X168254354Y-61639853D01*
X168106784Y-61738456D01*
X167942812Y-61806376D01*
X167793512Y-61836073D01*
X167768742Y-61841000D01*
X167591258Y-61841000D01*
X167566488Y-61836073D01*
X167417188Y-61806376D01*
X167253216Y-61738456D01*
X167105646Y-61639853D01*
X166980147Y-61514354D01*
X166881544Y-61366784D01*
X166813624Y-61202812D01*
X166779000Y-61028741D01*
X166779000Y-60851259D01*
X166813624Y-60677188D01*
X166881544Y-60513216D01*
X166980147Y-60365646D01*
X167105646Y-60240147D01*
X167253216Y-60141544D01*
X167417188Y-60073624D01*
X167566488Y-60043927D01*
X167591258Y-60039000D01*
X167768742Y-60039000D01*
X167793512Y-60043927D01*
X167793512Y-60043927D01*
G37*
G36*
X195378254Y-57797818D02*
G01*
X195751511Y-57952426D01*
X195751513Y-57952427D01*
X196087436Y-58176884D01*
X196373116Y-58462564D01*
X196506918Y-58662812D01*
X196597574Y-58798489D01*
X196752182Y-59171746D01*
X196831000Y-59567993D01*
X196831000Y-59972007D01*
X196752182Y-60368254D01*
X196692136Y-60513218D01*
X196597573Y-60741513D01*
X196373116Y-61077436D01*
X196087436Y-61363116D01*
X195751513Y-61587573D01*
X195751512Y-61587574D01*
X195751511Y-61587574D01*
X195378254Y-61742182D01*
X194982007Y-61821000D01*
X194577993Y-61821000D01*
X194181746Y-61742182D01*
X193808489Y-61587574D01*
X193808488Y-61587574D01*
X193808487Y-61587573D01*
X193472564Y-61363116D01*
X193186884Y-61077436D01*
X192962427Y-60741513D01*
X192867864Y-60513218D01*
X192807818Y-60368254D01*
X192729000Y-59972007D01*
X192729000Y-59567993D01*
X192807818Y-59171746D01*
X192962426Y-58798489D01*
X193053083Y-58662812D01*
X193186884Y-58462564D01*
X193472564Y-58176884D01*
X193808487Y-57952427D01*
X193808489Y-57952426D01*
X194181746Y-57797818D01*
X194577993Y-57719000D01*
X194982007Y-57719000D01*
X195378254Y-57797818D01*
X195378254Y-57797818D01*
G37*
G36*
X167793512Y-57503927D02*
G01*
X167942812Y-57533624D01*
X168106784Y-57601544D01*
X168254354Y-57700147D01*
X168379853Y-57825646D01*
X168478456Y-57973216D01*
X168546376Y-58137188D01*
X168581000Y-58311259D01*
X168581000Y-58488741D01*
X168546376Y-58662812D01*
X168478456Y-58826784D01*
X168379853Y-58974354D01*
X168254354Y-59099853D01*
X168106784Y-59198456D01*
X167942812Y-59266376D01*
X167793512Y-59296073D01*
X167768742Y-59301000D01*
X167591258Y-59301000D01*
X167566488Y-59296073D01*
X167417188Y-59266376D01*
X167253216Y-59198456D01*
X167105646Y-59099853D01*
X166980147Y-58974354D01*
X166881544Y-58826784D01*
X166813624Y-58662812D01*
X166779000Y-58488741D01*
X166779000Y-58311259D01*
X166813624Y-58137188D01*
X166881544Y-57973216D01*
X166980147Y-57825646D01*
X167105646Y-57700147D01*
X167253216Y-57601544D01*
X167417188Y-57533624D01*
X167566488Y-57503927D01*
X167591258Y-57499000D01*
X167768742Y-57499000D01*
X167793512Y-57503927D01*
X167793512Y-57503927D01*
G37*
G36*
X152553512Y-57503927D02*
G01*
X152702812Y-57533624D01*
X152866784Y-57601544D01*
X153014354Y-57700147D01*
X153139853Y-57825646D01*
X153238456Y-57973216D01*
X153306376Y-58137188D01*
X153341000Y-58311259D01*
X153341000Y-58488741D01*
X153306376Y-58662812D01*
X153238456Y-58826784D01*
X153139853Y-58974354D01*
X153014354Y-59099853D01*
X152866784Y-59198456D01*
X152702812Y-59266376D01*
X152553512Y-59296073D01*
X152528742Y-59301000D01*
X152351258Y-59301000D01*
X152326488Y-59296073D01*
X152177188Y-59266376D01*
X152013216Y-59198456D01*
X151865646Y-59099853D01*
X151740147Y-58974354D01*
X151641544Y-58826784D01*
X151573624Y-58662812D01*
X151539000Y-58488741D01*
X151539000Y-58311259D01*
X151573624Y-58137188D01*
X151641544Y-57973216D01*
X151740147Y-57825646D01*
X151865646Y-57700147D01*
X152013216Y-57601544D01*
X152177188Y-57533624D01*
X152326488Y-57503927D01*
X152351258Y-57499000D01*
X152528742Y-57499000D01*
X152553512Y-57503927D01*
X152553512Y-57503927D01*
G37*
G36*
X150801000Y-59301000D02*
G01*
X148999000Y-59301000D01*
X148999000Y-57499000D01*
X150801000Y-57499000D01*
X150801000Y-59301000D01*
X150801000Y-59301000D01*
G37*
G36*
X155093512Y-57503927D02*
G01*
X155242812Y-57533624D01*
X155406784Y-57601544D01*
X155554354Y-57700147D01*
X155679853Y-57825646D01*
X155778456Y-57973216D01*
X155846376Y-58137188D01*
X155881000Y-58311259D01*
X155881000Y-58488741D01*
X155846376Y-58662812D01*
X155778456Y-58826784D01*
X155679853Y-58974354D01*
X155554354Y-59099853D01*
X155406784Y-59198456D01*
X155242812Y-59266376D01*
X155093512Y-59296073D01*
X155068742Y-59301000D01*
X154891258Y-59301000D01*
X154866488Y-59296073D01*
X154717188Y-59266376D01*
X154553216Y-59198456D01*
X154405646Y-59099853D01*
X154280147Y-58974354D01*
X154181544Y-58826784D01*
X154113624Y-58662812D01*
X154079000Y-58488741D01*
X154079000Y-58311259D01*
X154113624Y-58137188D01*
X154181544Y-57973216D01*
X154280147Y-57825646D01*
X154405646Y-57700147D01*
X154553216Y-57601544D01*
X154717188Y-57533624D01*
X154866488Y-57503927D01*
X154891258Y-57499000D01*
X155068742Y-57499000D01*
X155093512Y-57503927D01*
X155093512Y-57503927D01*
G37*
G36*
X157633512Y-57503927D02*
G01*
X157782812Y-57533624D01*
X157946784Y-57601544D01*
X158094354Y-57700147D01*
X158219853Y-57825646D01*
X158318456Y-57973216D01*
X158386376Y-58137188D01*
X158421000Y-58311259D01*
X158421000Y-58488741D01*
X158386376Y-58662812D01*
X158318456Y-58826784D01*
X158219853Y-58974354D01*
X158094354Y-59099853D01*
X157946784Y-59198456D01*
X157782812Y-59266376D01*
X157633512Y-59296073D01*
X157608742Y-59301000D01*
X157431258Y-59301000D01*
X157406488Y-59296073D01*
X157257188Y-59266376D01*
X157093216Y-59198456D01*
X156945646Y-59099853D01*
X156820147Y-58974354D01*
X156721544Y-58826784D01*
X156653624Y-58662812D01*
X156619000Y-58488741D01*
X156619000Y-58311259D01*
X156653624Y-58137188D01*
X156721544Y-57973216D01*
X156820147Y-57825646D01*
X156945646Y-57700147D01*
X157093216Y-57601544D01*
X157257188Y-57533624D01*
X157406488Y-57503927D01*
X157431258Y-57499000D01*
X157608742Y-57499000D01*
X157633512Y-57503927D01*
X157633512Y-57503927D01*
G37*
G36*
X160173512Y-57503927D02*
G01*
X160322812Y-57533624D01*
X160486784Y-57601544D01*
X160634354Y-57700147D01*
X160759853Y-57825646D01*
X160858456Y-57973216D01*
X160926376Y-58137188D01*
X160961000Y-58311259D01*
X160961000Y-58488741D01*
X160926376Y-58662812D01*
X160858456Y-58826784D01*
X160759853Y-58974354D01*
X160634354Y-59099853D01*
X160486784Y-59198456D01*
X160322812Y-59266376D01*
X160173512Y-59296073D01*
X160148742Y-59301000D01*
X159971258Y-59301000D01*
X159946488Y-59296073D01*
X159797188Y-59266376D01*
X159633216Y-59198456D01*
X159485646Y-59099853D01*
X159360147Y-58974354D01*
X159261544Y-58826784D01*
X159193624Y-58662812D01*
X159159000Y-58488741D01*
X159159000Y-58311259D01*
X159193624Y-58137188D01*
X159261544Y-57973216D01*
X159360147Y-57825646D01*
X159485646Y-57700147D01*
X159633216Y-57601544D01*
X159797188Y-57533624D01*
X159946488Y-57503927D01*
X159971258Y-57499000D01*
X160148742Y-57499000D01*
X160173512Y-57503927D01*
X160173512Y-57503927D01*
G37*
G36*
X162713512Y-57503927D02*
G01*
X162862812Y-57533624D01*
X163026784Y-57601544D01*
X163174354Y-57700147D01*
X163299853Y-57825646D01*
X163398456Y-57973216D01*
X163466376Y-58137188D01*
X163501000Y-58311259D01*
X163501000Y-58488741D01*
X163466376Y-58662812D01*
X163398456Y-58826784D01*
X163299853Y-58974354D01*
X163174354Y-59099853D01*
X163026784Y-59198456D01*
X162862812Y-59266376D01*
X162713512Y-59296073D01*
X162688742Y-59301000D01*
X162511258Y-59301000D01*
X162486488Y-59296073D01*
X162337188Y-59266376D01*
X162173216Y-59198456D01*
X162025646Y-59099853D01*
X161900147Y-58974354D01*
X161801544Y-58826784D01*
X161733624Y-58662812D01*
X161699000Y-58488741D01*
X161699000Y-58311259D01*
X161733624Y-58137188D01*
X161801544Y-57973216D01*
X161900147Y-57825646D01*
X162025646Y-57700147D01*
X162173216Y-57601544D01*
X162337188Y-57533624D01*
X162486488Y-57503927D01*
X162511258Y-57499000D01*
X162688742Y-57499000D01*
X162713512Y-57503927D01*
X162713512Y-57503927D01*
G37*
G36*
X165253512Y-57503927D02*
G01*
X165402812Y-57533624D01*
X165566784Y-57601544D01*
X165714354Y-57700147D01*
X165839853Y-57825646D01*
X165938456Y-57973216D01*
X166006376Y-58137188D01*
X166041000Y-58311259D01*
X166041000Y-58488741D01*
X166006376Y-58662812D01*
X165938456Y-58826784D01*
X165839853Y-58974354D01*
X165714354Y-59099853D01*
X165566784Y-59198456D01*
X165402812Y-59266376D01*
X165253512Y-59296073D01*
X165228742Y-59301000D01*
X165051258Y-59301000D01*
X165026488Y-59296073D01*
X164877188Y-59266376D01*
X164713216Y-59198456D01*
X164565646Y-59099853D01*
X164440147Y-58974354D01*
X164341544Y-58826784D01*
X164273624Y-58662812D01*
X164239000Y-58488741D01*
X164239000Y-58311259D01*
X164273624Y-58137188D01*
X164341544Y-57973216D01*
X164440147Y-57825646D01*
X164565646Y-57700147D01*
X164713216Y-57601544D01*
X164877188Y-57533624D01*
X165026488Y-57503927D01*
X165051258Y-57499000D01*
X165228742Y-57499000D01*
X165253512Y-57503927D01*
X165253512Y-57503927D01*
G37*
M02*
