G04 #@! TF.GenerationSoftware,KiCad,Pcbnew,(5.1.4)-1*
G04 #@! TF.CreationDate,2019-09-13T09:02:02+01:00*
G04 #@! TF.ProjectId,oscar_panel,6f736361-725f-4706-916e-656c2e6b6963,rev?*
G04 #@! TF.SameCoordinates,Original*
G04 #@! TF.FileFunction,Copper,L2,Bot*
G04 #@! TF.FilePolarity,Positive*
%FSLAX46Y46*%
G04 Gerber Fmt 4.6, Leading zero omitted, Abs format (unit mm)*
G04 Created by KiCad (PCBNEW (5.1.4)-1) date 2019-09-13 09:02:02*
%MOMM*%
%LPD*%
G04 APERTURE LIST*
%ADD10C,0.254000*%
G04 APERTURE END LIST*
D10*
G36*
X195305001Y-168555000D02*
G01*
X125695000Y-168555000D01*
X125695000Y-166250000D01*
X129354186Y-166250000D01*
X129397339Y-166688137D01*
X129525138Y-167109436D01*
X129732674Y-167497707D01*
X130011970Y-167838030D01*
X130352293Y-168117326D01*
X130740564Y-168324862D01*
X131161863Y-168452661D01*
X131490204Y-168485000D01*
X133509796Y-168485000D01*
X133838137Y-168452661D01*
X134259436Y-168324862D01*
X134647707Y-168117326D01*
X134988030Y-167838030D01*
X135267326Y-167497707D01*
X135474862Y-167109436D01*
X135602661Y-166688137D01*
X135645814Y-166250000D01*
X185354186Y-166250000D01*
X185397339Y-166688137D01*
X185525138Y-167109436D01*
X185732674Y-167497707D01*
X186011970Y-167838030D01*
X186352293Y-168117326D01*
X186740564Y-168324862D01*
X187161863Y-168452661D01*
X187490204Y-168485000D01*
X189509796Y-168485000D01*
X189838137Y-168452661D01*
X190259436Y-168324862D01*
X190647707Y-168117326D01*
X190988030Y-167838030D01*
X191267326Y-167497707D01*
X191474862Y-167109436D01*
X191602661Y-166688137D01*
X191645814Y-166250000D01*
X191602661Y-165811863D01*
X191474862Y-165390564D01*
X191267326Y-165002293D01*
X190988030Y-164661970D01*
X190647707Y-164382674D01*
X190259436Y-164175138D01*
X189838137Y-164047339D01*
X189509796Y-164015000D01*
X187490204Y-164015000D01*
X187161863Y-164047339D01*
X186740564Y-164175138D01*
X186352293Y-164382674D01*
X186011970Y-164661970D01*
X185732674Y-165002293D01*
X185525138Y-165390564D01*
X185397339Y-165811863D01*
X185354186Y-166250000D01*
X135645814Y-166250000D01*
X135602661Y-165811863D01*
X135474862Y-165390564D01*
X135267326Y-165002293D01*
X134988030Y-164661970D01*
X134647707Y-164382674D01*
X134259436Y-164175138D01*
X133838137Y-164047339D01*
X133509796Y-164015000D01*
X131490204Y-164015000D01*
X131161863Y-164047339D01*
X130740564Y-164175138D01*
X130352293Y-164382674D01*
X130011970Y-164661970D01*
X129732674Y-165002293D01*
X129525138Y-165390564D01*
X129397339Y-165811863D01*
X129354186Y-166250000D01*
X125695000Y-166250000D01*
X125695000Y-150641984D01*
X131365000Y-150641984D01*
X131365000Y-151358016D01*
X131504691Y-152060290D01*
X131778705Y-152721818D01*
X132176511Y-153317177D01*
X132682823Y-153823489D01*
X133278182Y-154221295D01*
X133939710Y-154495309D01*
X134641984Y-154635000D01*
X135358016Y-154635000D01*
X136060290Y-154495309D01*
X136721818Y-154221295D01*
X137317177Y-153823489D01*
X137823489Y-153317177D01*
X138221295Y-152721818D01*
X138495309Y-152060290D01*
X138635000Y-151358016D01*
X138635000Y-150641984D01*
X146365000Y-150641984D01*
X146365000Y-151358016D01*
X146504691Y-152060290D01*
X146778705Y-152721818D01*
X147176511Y-153317177D01*
X147682823Y-153823489D01*
X148278182Y-154221295D01*
X148939710Y-154495309D01*
X149641984Y-154635000D01*
X150358016Y-154635000D01*
X151060290Y-154495309D01*
X151721818Y-154221295D01*
X152317177Y-153823489D01*
X152823489Y-153317177D01*
X153221295Y-152721818D01*
X153495309Y-152060290D01*
X153635000Y-151358016D01*
X153635000Y-150641984D01*
X161365000Y-150641984D01*
X161365000Y-151358016D01*
X161504691Y-152060290D01*
X161778705Y-152721818D01*
X162176511Y-153317177D01*
X162682823Y-153823489D01*
X163278182Y-154221295D01*
X163939710Y-154495309D01*
X164641984Y-154635000D01*
X165358016Y-154635000D01*
X166060290Y-154495309D01*
X166721818Y-154221295D01*
X167317177Y-153823489D01*
X167823489Y-153317177D01*
X168221295Y-152721818D01*
X168495309Y-152060290D01*
X168635000Y-151358016D01*
X168635000Y-150789721D01*
X183865000Y-150789721D01*
X183865000Y-151210279D01*
X183947047Y-151622756D01*
X184107988Y-152011302D01*
X184341637Y-152360983D01*
X184639017Y-152658363D01*
X184988698Y-152892012D01*
X185377244Y-153052953D01*
X185789721Y-153135000D01*
X186210279Y-153135000D01*
X186622756Y-153052953D01*
X187011302Y-152892012D01*
X187360983Y-152658363D01*
X187658363Y-152360983D01*
X187892012Y-152011302D01*
X188052953Y-151622756D01*
X188135000Y-151210279D01*
X188135000Y-150789721D01*
X188052953Y-150377244D01*
X187892012Y-149988698D01*
X187658363Y-149639017D01*
X187360983Y-149341637D01*
X187011302Y-149107988D01*
X186622756Y-148947047D01*
X186210279Y-148865000D01*
X185789721Y-148865000D01*
X185377244Y-148947047D01*
X184988698Y-149107988D01*
X184639017Y-149341637D01*
X184341637Y-149639017D01*
X184107988Y-149988698D01*
X183947047Y-150377244D01*
X183865000Y-150789721D01*
X168635000Y-150789721D01*
X168635000Y-150641984D01*
X168495309Y-149939710D01*
X168221295Y-149278182D01*
X167823489Y-148682823D01*
X167317177Y-148176511D01*
X166721818Y-147778705D01*
X166060290Y-147504691D01*
X165358016Y-147365000D01*
X164641984Y-147365000D01*
X163939710Y-147504691D01*
X163278182Y-147778705D01*
X162682823Y-148176511D01*
X162176511Y-148682823D01*
X161778705Y-149278182D01*
X161504691Y-149939710D01*
X161365000Y-150641984D01*
X153635000Y-150641984D01*
X153495309Y-149939710D01*
X153221295Y-149278182D01*
X152823489Y-148682823D01*
X152317177Y-148176511D01*
X151721818Y-147778705D01*
X151060290Y-147504691D01*
X150358016Y-147365000D01*
X149641984Y-147365000D01*
X148939710Y-147504691D01*
X148278182Y-147778705D01*
X147682823Y-148176511D01*
X147176511Y-148682823D01*
X146778705Y-149278182D01*
X146504691Y-149939710D01*
X146365000Y-150641984D01*
X138635000Y-150641984D01*
X138495309Y-149939710D01*
X138221295Y-149278182D01*
X137823489Y-148682823D01*
X137317177Y-148176511D01*
X136721818Y-147778705D01*
X136060290Y-147504691D01*
X135358016Y-147365000D01*
X134641984Y-147365000D01*
X133939710Y-147504691D01*
X133278182Y-147778705D01*
X132682823Y-148176511D01*
X132176511Y-148682823D01*
X131778705Y-149278182D01*
X131504691Y-149939710D01*
X131365000Y-150641984D01*
X125695000Y-150641984D01*
X125695000Y-136641984D01*
X131365000Y-136641984D01*
X131365000Y-137358016D01*
X131504691Y-138060290D01*
X131778705Y-138721818D01*
X132176511Y-139317177D01*
X132682823Y-139823489D01*
X133278182Y-140221295D01*
X133939710Y-140495309D01*
X134641984Y-140635000D01*
X135358016Y-140635000D01*
X136060290Y-140495309D01*
X136721818Y-140221295D01*
X137317177Y-139823489D01*
X137823489Y-139317177D01*
X138221295Y-138721818D01*
X138495309Y-138060290D01*
X138635000Y-137358016D01*
X138635000Y-136641984D01*
X146365000Y-136641984D01*
X146365000Y-137358016D01*
X146504691Y-138060290D01*
X146778705Y-138721818D01*
X147176511Y-139317177D01*
X147682823Y-139823489D01*
X148278182Y-140221295D01*
X148939710Y-140495309D01*
X149641984Y-140635000D01*
X150358016Y-140635000D01*
X151060290Y-140495309D01*
X151721818Y-140221295D01*
X152317177Y-139823489D01*
X152823489Y-139317177D01*
X153221295Y-138721818D01*
X153495309Y-138060290D01*
X153635000Y-137358016D01*
X153635000Y-136641984D01*
X161365000Y-136641984D01*
X161365000Y-137358016D01*
X161504691Y-138060290D01*
X161778705Y-138721818D01*
X162176511Y-139317177D01*
X162682823Y-139823489D01*
X163278182Y-140221295D01*
X163939710Y-140495309D01*
X164641984Y-140635000D01*
X165358016Y-140635000D01*
X166060290Y-140495309D01*
X166721818Y-140221295D01*
X167317177Y-139823489D01*
X167823489Y-139317177D01*
X168221295Y-138721818D01*
X168495309Y-138060290D01*
X168635000Y-137358016D01*
X168635000Y-136641984D01*
X182365000Y-136641984D01*
X182365000Y-137358016D01*
X182504691Y-138060290D01*
X182778705Y-138721818D01*
X183176511Y-139317177D01*
X183682823Y-139823489D01*
X184278182Y-140221295D01*
X184939710Y-140495309D01*
X185641984Y-140635000D01*
X186358016Y-140635000D01*
X187060290Y-140495309D01*
X187721818Y-140221295D01*
X188317177Y-139823489D01*
X188823489Y-139317177D01*
X189221295Y-138721818D01*
X189495309Y-138060290D01*
X189635000Y-137358016D01*
X189635000Y-136641984D01*
X189495309Y-135939710D01*
X189221295Y-135278182D01*
X188823489Y-134682823D01*
X188317177Y-134176511D01*
X187721818Y-133778705D01*
X187060290Y-133504691D01*
X186358016Y-133365000D01*
X185641984Y-133365000D01*
X184939710Y-133504691D01*
X184278182Y-133778705D01*
X183682823Y-134176511D01*
X183176511Y-134682823D01*
X182778705Y-135278182D01*
X182504691Y-135939710D01*
X182365000Y-136641984D01*
X168635000Y-136641984D01*
X168495309Y-135939710D01*
X168221295Y-135278182D01*
X167823489Y-134682823D01*
X167317177Y-134176511D01*
X166721818Y-133778705D01*
X166060290Y-133504691D01*
X165358016Y-133365000D01*
X164641984Y-133365000D01*
X163939710Y-133504691D01*
X163278182Y-133778705D01*
X162682823Y-134176511D01*
X162176511Y-134682823D01*
X161778705Y-135278182D01*
X161504691Y-135939710D01*
X161365000Y-136641984D01*
X153635000Y-136641984D01*
X153495309Y-135939710D01*
X153221295Y-135278182D01*
X152823489Y-134682823D01*
X152317177Y-134176511D01*
X151721818Y-133778705D01*
X151060290Y-133504691D01*
X150358016Y-133365000D01*
X149641984Y-133365000D01*
X148939710Y-133504691D01*
X148278182Y-133778705D01*
X147682823Y-134176511D01*
X147176511Y-134682823D01*
X146778705Y-135278182D01*
X146504691Y-135939710D01*
X146365000Y-136641984D01*
X138635000Y-136641984D01*
X138495309Y-135939710D01*
X138221295Y-135278182D01*
X137823489Y-134682823D01*
X137317177Y-134176511D01*
X136721818Y-133778705D01*
X136060290Y-133504691D01*
X135358016Y-133365000D01*
X134641984Y-133365000D01*
X133939710Y-133504691D01*
X133278182Y-133778705D01*
X132682823Y-134176511D01*
X132176511Y-134682823D01*
X131778705Y-135278182D01*
X131504691Y-135939710D01*
X131365000Y-136641984D01*
X125695000Y-136641984D01*
X125695000Y-113592738D01*
X131865000Y-113592738D01*
X131865000Y-114407262D01*
X132023906Y-115206135D01*
X132335611Y-115958657D01*
X132788136Y-116635909D01*
X133364091Y-117211864D01*
X134041343Y-117664389D01*
X134793865Y-117976094D01*
X135592738Y-118135000D01*
X136407262Y-118135000D01*
X137206135Y-117976094D01*
X137958657Y-117664389D01*
X138635909Y-117211864D01*
X139211864Y-116635909D01*
X139664389Y-115958657D01*
X139976094Y-115206135D01*
X140135000Y-114407262D01*
X140135000Y-113592738D01*
X139997206Y-112900000D01*
X148873000Y-112900000D01*
X148873000Y-113700000D01*
X148873777Y-113714025D01*
X148973777Y-114614025D01*
X148976113Y-114627947D01*
X148983946Y-114651580D01*
X149383946Y-115551580D01*
X149399752Y-115577970D01*
X150099752Y-116477970D01*
X150116890Y-116496030D01*
X150137221Y-116510398D01*
X150159965Y-116520525D01*
X150184248Y-116526019D01*
X151784248Y-116726019D01*
X151808870Y-116726690D01*
X151833416Y-116722525D01*
X152933416Y-116422525D01*
X152956796Y-116413592D01*
X153356796Y-116213592D01*
X153386957Y-116192560D01*
X153403344Y-116173817D01*
X153902479Y-115475028D01*
X154099871Y-115211838D01*
X154477886Y-116534890D01*
X154482667Y-116548601D01*
X154494403Y-116570557D01*
X154510197Y-116589803D01*
X154529443Y-116605597D01*
X154551399Y-116617333D01*
X154575224Y-116624560D01*
X154600000Y-116627000D01*
X155800000Y-116627000D01*
X155824907Y-116624534D01*
X156824907Y-116424534D01*
X156848478Y-116417383D01*
X156870447Y-116405670D01*
X157470447Y-116005670D01*
X157489896Y-115989709D01*
X157505670Y-115970447D01*
X157800000Y-115528952D01*
X157894330Y-115670447D01*
X157918697Y-115697564D01*
X158518697Y-116197564D01*
X158543204Y-116213592D01*
X159143204Y-116513592D01*
X159169198Y-116523208D01*
X159969198Y-116723208D01*
X159983042Y-116725863D01*
X160007922Y-116726753D01*
X161600000Y-116627248D01*
X163192078Y-116726753D01*
X163215884Y-116726003D01*
X163240161Y-116720483D01*
X163805077Y-116532178D01*
X164169198Y-116623208D01*
X164200000Y-116627000D01*
X168573933Y-116627000D01*
X169249972Y-116916731D01*
X169276744Y-116924853D01*
X169301548Y-116926991D01*
X169326293Y-116924248D01*
X169350028Y-116916731D01*
X171450028Y-116016731D01*
X171468676Y-116006830D01*
X171488198Y-115991379D01*
X171504330Y-115972416D01*
X171516454Y-115950671D01*
X171524101Y-115926979D01*
X171526980Y-115902249D01*
X171524979Y-115877433D01*
X171518175Y-115853485D01*
X171506830Y-115831324D01*
X170649493Y-114497689D01*
X170904510Y-114072661D01*
X171288448Y-113592738D01*
X179865000Y-113592738D01*
X179865000Y-114407262D01*
X180023906Y-115206135D01*
X180335611Y-115958657D01*
X180788136Y-116635909D01*
X181364091Y-117211864D01*
X182041343Y-117664389D01*
X182793865Y-117976094D01*
X183592738Y-118135000D01*
X184407262Y-118135000D01*
X185206135Y-117976094D01*
X185958657Y-117664389D01*
X186635909Y-117211864D01*
X187211864Y-116635909D01*
X187664389Y-115958657D01*
X187976094Y-115206135D01*
X188135000Y-114407262D01*
X188135000Y-113592738D01*
X187976094Y-112793865D01*
X187664389Y-112041343D01*
X187211864Y-111364091D01*
X186635909Y-110788136D01*
X185958657Y-110335611D01*
X185206135Y-110023906D01*
X184407262Y-109865000D01*
X183592738Y-109865000D01*
X182793865Y-110023906D01*
X182041343Y-110335611D01*
X181364091Y-110788136D01*
X180788136Y-111364091D01*
X180335611Y-112041343D01*
X180023906Y-112793865D01*
X179865000Y-113592738D01*
X171288448Y-113592738D01*
X171299170Y-113579336D01*
X171311248Y-113561261D01*
X171321062Y-113538380D01*
X171326223Y-113514025D01*
X171426223Y-112614025D01*
X171426370Y-112587363D01*
X171326370Y-111587363D01*
X171320441Y-111559713D01*
X171310267Y-111536990D01*
X170910267Y-110836990D01*
X170895943Y-110816789D01*
X170877866Y-110799671D01*
X170856796Y-110786408D01*
X169456796Y-110086408D01*
X169433007Y-110077364D01*
X169408448Y-110073281D01*
X167908448Y-109973281D01*
X167893658Y-109973158D01*
X165893658Y-110073158D01*
X165861167Y-110079083D01*
X165838323Y-110088982D01*
X165817850Y-110103148D01*
X165800533Y-110121035D01*
X165787039Y-110141958D01*
X165777886Y-110165110D01*
X165650247Y-110611847D01*
X165303344Y-110126183D01*
X165286285Y-110106812D01*
X165266447Y-110091770D01*
X165244055Y-110080886D01*
X165219971Y-110074580D01*
X165195119Y-110073094D01*
X162595119Y-110173094D01*
X162566456Y-110177510D01*
X162543204Y-110186408D01*
X162522134Y-110199671D01*
X162504057Y-110216789D01*
X162489667Y-110237106D01*
X162479517Y-110259839D01*
X162230746Y-111006152D01*
X162124534Y-110475093D01*
X162117282Y-110451276D01*
X162105523Y-110429332D01*
X162089709Y-110410104D01*
X162070447Y-110394330D01*
X161470447Y-109994330D01*
X161448601Y-109982667D01*
X161424776Y-109975440D01*
X161400000Y-109973000D01*
X160600000Y-109973000D01*
X160588502Y-109973522D01*
X159488502Y-110073522D01*
X159461167Y-110079083D01*
X159438323Y-110088982D01*
X158538323Y-110588982D01*
X158520664Y-110600830D01*
X158157421Y-110891425D01*
X157918914Y-110255407D01*
X157911018Y-110238323D01*
X157896852Y-110217850D01*
X157878965Y-110200533D01*
X157858042Y-110187039D01*
X157834890Y-110177886D01*
X157134890Y-109977886D01*
X157112637Y-109973630D01*
X156112637Y-109873630D01*
X156093827Y-109873150D01*
X156069198Y-109876792D01*
X154869198Y-110176792D01*
X154857160Y-110180444D01*
X154834659Y-110191098D01*
X153906059Y-110748258D01*
X153273817Y-110296656D01*
X153263010Y-110289733D01*
X152563010Y-109889733D01*
X152548601Y-109882667D01*
X152524776Y-109875440D01*
X152500000Y-109873000D01*
X151300000Y-109873000D01*
X151284116Y-109873997D01*
X151259839Y-109879517D01*
X150059839Y-110279517D01*
X150038739Y-110288752D01*
X150018213Y-110302841D01*
X150000830Y-110320664D01*
X149200830Y-111320664D01*
X149189667Y-111337106D01*
X149179517Y-111359839D01*
X148979517Y-111959839D01*
X148973777Y-111985975D01*
X148873777Y-112885975D01*
X148873000Y-112900000D01*
X139997206Y-112900000D01*
X139976094Y-112793865D01*
X139664389Y-112041343D01*
X139211864Y-111364091D01*
X138635909Y-110788136D01*
X137958657Y-110335611D01*
X137206135Y-110023906D01*
X136407262Y-109865000D01*
X135592738Y-109865000D01*
X134793865Y-110023906D01*
X134041343Y-110335611D01*
X133364091Y-110788136D01*
X132788136Y-111364091D01*
X132335611Y-112041343D01*
X132023906Y-112793865D01*
X131865000Y-113592738D01*
X125695000Y-113592738D01*
X125695000Y-94127000D01*
X195305000Y-94127000D01*
X195305001Y-168555000D01*
X195305001Y-168555000D01*
G37*
X195305001Y-168555000D02*
X125695000Y-168555000D01*
X125695000Y-166250000D01*
X129354186Y-166250000D01*
X129397339Y-166688137D01*
X129525138Y-167109436D01*
X129732674Y-167497707D01*
X130011970Y-167838030D01*
X130352293Y-168117326D01*
X130740564Y-168324862D01*
X131161863Y-168452661D01*
X131490204Y-168485000D01*
X133509796Y-168485000D01*
X133838137Y-168452661D01*
X134259436Y-168324862D01*
X134647707Y-168117326D01*
X134988030Y-167838030D01*
X135267326Y-167497707D01*
X135474862Y-167109436D01*
X135602661Y-166688137D01*
X135645814Y-166250000D01*
X185354186Y-166250000D01*
X185397339Y-166688137D01*
X185525138Y-167109436D01*
X185732674Y-167497707D01*
X186011970Y-167838030D01*
X186352293Y-168117326D01*
X186740564Y-168324862D01*
X187161863Y-168452661D01*
X187490204Y-168485000D01*
X189509796Y-168485000D01*
X189838137Y-168452661D01*
X190259436Y-168324862D01*
X190647707Y-168117326D01*
X190988030Y-167838030D01*
X191267326Y-167497707D01*
X191474862Y-167109436D01*
X191602661Y-166688137D01*
X191645814Y-166250000D01*
X191602661Y-165811863D01*
X191474862Y-165390564D01*
X191267326Y-165002293D01*
X190988030Y-164661970D01*
X190647707Y-164382674D01*
X190259436Y-164175138D01*
X189838137Y-164047339D01*
X189509796Y-164015000D01*
X187490204Y-164015000D01*
X187161863Y-164047339D01*
X186740564Y-164175138D01*
X186352293Y-164382674D01*
X186011970Y-164661970D01*
X185732674Y-165002293D01*
X185525138Y-165390564D01*
X185397339Y-165811863D01*
X185354186Y-166250000D01*
X135645814Y-166250000D01*
X135602661Y-165811863D01*
X135474862Y-165390564D01*
X135267326Y-165002293D01*
X134988030Y-164661970D01*
X134647707Y-164382674D01*
X134259436Y-164175138D01*
X133838137Y-164047339D01*
X133509796Y-164015000D01*
X131490204Y-164015000D01*
X131161863Y-164047339D01*
X130740564Y-164175138D01*
X130352293Y-164382674D01*
X130011970Y-164661970D01*
X129732674Y-165002293D01*
X129525138Y-165390564D01*
X129397339Y-165811863D01*
X129354186Y-166250000D01*
X125695000Y-166250000D01*
X125695000Y-150641984D01*
X131365000Y-150641984D01*
X131365000Y-151358016D01*
X131504691Y-152060290D01*
X131778705Y-152721818D01*
X132176511Y-153317177D01*
X132682823Y-153823489D01*
X133278182Y-154221295D01*
X133939710Y-154495309D01*
X134641984Y-154635000D01*
X135358016Y-154635000D01*
X136060290Y-154495309D01*
X136721818Y-154221295D01*
X137317177Y-153823489D01*
X137823489Y-153317177D01*
X138221295Y-152721818D01*
X138495309Y-152060290D01*
X138635000Y-151358016D01*
X138635000Y-150641984D01*
X146365000Y-150641984D01*
X146365000Y-151358016D01*
X146504691Y-152060290D01*
X146778705Y-152721818D01*
X147176511Y-153317177D01*
X147682823Y-153823489D01*
X148278182Y-154221295D01*
X148939710Y-154495309D01*
X149641984Y-154635000D01*
X150358016Y-154635000D01*
X151060290Y-154495309D01*
X151721818Y-154221295D01*
X152317177Y-153823489D01*
X152823489Y-153317177D01*
X153221295Y-152721818D01*
X153495309Y-152060290D01*
X153635000Y-151358016D01*
X153635000Y-150641984D01*
X161365000Y-150641984D01*
X161365000Y-151358016D01*
X161504691Y-152060290D01*
X161778705Y-152721818D01*
X162176511Y-153317177D01*
X162682823Y-153823489D01*
X163278182Y-154221295D01*
X163939710Y-154495309D01*
X164641984Y-154635000D01*
X165358016Y-154635000D01*
X166060290Y-154495309D01*
X166721818Y-154221295D01*
X167317177Y-153823489D01*
X167823489Y-153317177D01*
X168221295Y-152721818D01*
X168495309Y-152060290D01*
X168635000Y-151358016D01*
X168635000Y-150789721D01*
X183865000Y-150789721D01*
X183865000Y-151210279D01*
X183947047Y-151622756D01*
X184107988Y-152011302D01*
X184341637Y-152360983D01*
X184639017Y-152658363D01*
X184988698Y-152892012D01*
X185377244Y-153052953D01*
X185789721Y-153135000D01*
X186210279Y-153135000D01*
X186622756Y-153052953D01*
X187011302Y-152892012D01*
X187360983Y-152658363D01*
X187658363Y-152360983D01*
X187892012Y-152011302D01*
X188052953Y-151622756D01*
X188135000Y-151210279D01*
X188135000Y-150789721D01*
X188052953Y-150377244D01*
X187892012Y-149988698D01*
X187658363Y-149639017D01*
X187360983Y-149341637D01*
X187011302Y-149107988D01*
X186622756Y-148947047D01*
X186210279Y-148865000D01*
X185789721Y-148865000D01*
X185377244Y-148947047D01*
X184988698Y-149107988D01*
X184639017Y-149341637D01*
X184341637Y-149639017D01*
X184107988Y-149988698D01*
X183947047Y-150377244D01*
X183865000Y-150789721D01*
X168635000Y-150789721D01*
X168635000Y-150641984D01*
X168495309Y-149939710D01*
X168221295Y-149278182D01*
X167823489Y-148682823D01*
X167317177Y-148176511D01*
X166721818Y-147778705D01*
X166060290Y-147504691D01*
X165358016Y-147365000D01*
X164641984Y-147365000D01*
X163939710Y-147504691D01*
X163278182Y-147778705D01*
X162682823Y-148176511D01*
X162176511Y-148682823D01*
X161778705Y-149278182D01*
X161504691Y-149939710D01*
X161365000Y-150641984D01*
X153635000Y-150641984D01*
X153495309Y-149939710D01*
X153221295Y-149278182D01*
X152823489Y-148682823D01*
X152317177Y-148176511D01*
X151721818Y-147778705D01*
X151060290Y-147504691D01*
X150358016Y-147365000D01*
X149641984Y-147365000D01*
X148939710Y-147504691D01*
X148278182Y-147778705D01*
X147682823Y-148176511D01*
X147176511Y-148682823D01*
X146778705Y-149278182D01*
X146504691Y-149939710D01*
X146365000Y-150641984D01*
X138635000Y-150641984D01*
X138495309Y-149939710D01*
X138221295Y-149278182D01*
X137823489Y-148682823D01*
X137317177Y-148176511D01*
X136721818Y-147778705D01*
X136060290Y-147504691D01*
X135358016Y-147365000D01*
X134641984Y-147365000D01*
X133939710Y-147504691D01*
X133278182Y-147778705D01*
X132682823Y-148176511D01*
X132176511Y-148682823D01*
X131778705Y-149278182D01*
X131504691Y-149939710D01*
X131365000Y-150641984D01*
X125695000Y-150641984D01*
X125695000Y-136641984D01*
X131365000Y-136641984D01*
X131365000Y-137358016D01*
X131504691Y-138060290D01*
X131778705Y-138721818D01*
X132176511Y-139317177D01*
X132682823Y-139823489D01*
X133278182Y-140221295D01*
X133939710Y-140495309D01*
X134641984Y-140635000D01*
X135358016Y-140635000D01*
X136060290Y-140495309D01*
X136721818Y-140221295D01*
X137317177Y-139823489D01*
X137823489Y-139317177D01*
X138221295Y-138721818D01*
X138495309Y-138060290D01*
X138635000Y-137358016D01*
X138635000Y-136641984D01*
X146365000Y-136641984D01*
X146365000Y-137358016D01*
X146504691Y-138060290D01*
X146778705Y-138721818D01*
X147176511Y-139317177D01*
X147682823Y-139823489D01*
X148278182Y-140221295D01*
X148939710Y-140495309D01*
X149641984Y-140635000D01*
X150358016Y-140635000D01*
X151060290Y-140495309D01*
X151721818Y-140221295D01*
X152317177Y-139823489D01*
X152823489Y-139317177D01*
X153221295Y-138721818D01*
X153495309Y-138060290D01*
X153635000Y-137358016D01*
X153635000Y-136641984D01*
X161365000Y-136641984D01*
X161365000Y-137358016D01*
X161504691Y-138060290D01*
X161778705Y-138721818D01*
X162176511Y-139317177D01*
X162682823Y-139823489D01*
X163278182Y-140221295D01*
X163939710Y-140495309D01*
X164641984Y-140635000D01*
X165358016Y-140635000D01*
X166060290Y-140495309D01*
X166721818Y-140221295D01*
X167317177Y-139823489D01*
X167823489Y-139317177D01*
X168221295Y-138721818D01*
X168495309Y-138060290D01*
X168635000Y-137358016D01*
X168635000Y-136641984D01*
X182365000Y-136641984D01*
X182365000Y-137358016D01*
X182504691Y-138060290D01*
X182778705Y-138721818D01*
X183176511Y-139317177D01*
X183682823Y-139823489D01*
X184278182Y-140221295D01*
X184939710Y-140495309D01*
X185641984Y-140635000D01*
X186358016Y-140635000D01*
X187060290Y-140495309D01*
X187721818Y-140221295D01*
X188317177Y-139823489D01*
X188823489Y-139317177D01*
X189221295Y-138721818D01*
X189495309Y-138060290D01*
X189635000Y-137358016D01*
X189635000Y-136641984D01*
X189495309Y-135939710D01*
X189221295Y-135278182D01*
X188823489Y-134682823D01*
X188317177Y-134176511D01*
X187721818Y-133778705D01*
X187060290Y-133504691D01*
X186358016Y-133365000D01*
X185641984Y-133365000D01*
X184939710Y-133504691D01*
X184278182Y-133778705D01*
X183682823Y-134176511D01*
X183176511Y-134682823D01*
X182778705Y-135278182D01*
X182504691Y-135939710D01*
X182365000Y-136641984D01*
X168635000Y-136641984D01*
X168495309Y-135939710D01*
X168221295Y-135278182D01*
X167823489Y-134682823D01*
X167317177Y-134176511D01*
X166721818Y-133778705D01*
X166060290Y-133504691D01*
X165358016Y-133365000D01*
X164641984Y-133365000D01*
X163939710Y-133504691D01*
X163278182Y-133778705D01*
X162682823Y-134176511D01*
X162176511Y-134682823D01*
X161778705Y-135278182D01*
X161504691Y-135939710D01*
X161365000Y-136641984D01*
X153635000Y-136641984D01*
X153495309Y-135939710D01*
X153221295Y-135278182D01*
X152823489Y-134682823D01*
X152317177Y-134176511D01*
X151721818Y-133778705D01*
X151060290Y-133504691D01*
X150358016Y-133365000D01*
X149641984Y-133365000D01*
X148939710Y-133504691D01*
X148278182Y-133778705D01*
X147682823Y-134176511D01*
X147176511Y-134682823D01*
X146778705Y-135278182D01*
X146504691Y-135939710D01*
X146365000Y-136641984D01*
X138635000Y-136641984D01*
X138495309Y-135939710D01*
X138221295Y-135278182D01*
X137823489Y-134682823D01*
X137317177Y-134176511D01*
X136721818Y-133778705D01*
X136060290Y-133504691D01*
X135358016Y-133365000D01*
X134641984Y-133365000D01*
X133939710Y-133504691D01*
X133278182Y-133778705D01*
X132682823Y-134176511D01*
X132176511Y-134682823D01*
X131778705Y-135278182D01*
X131504691Y-135939710D01*
X131365000Y-136641984D01*
X125695000Y-136641984D01*
X125695000Y-113592738D01*
X131865000Y-113592738D01*
X131865000Y-114407262D01*
X132023906Y-115206135D01*
X132335611Y-115958657D01*
X132788136Y-116635909D01*
X133364091Y-117211864D01*
X134041343Y-117664389D01*
X134793865Y-117976094D01*
X135592738Y-118135000D01*
X136407262Y-118135000D01*
X137206135Y-117976094D01*
X137958657Y-117664389D01*
X138635909Y-117211864D01*
X139211864Y-116635909D01*
X139664389Y-115958657D01*
X139976094Y-115206135D01*
X140135000Y-114407262D01*
X140135000Y-113592738D01*
X139997206Y-112900000D01*
X148873000Y-112900000D01*
X148873000Y-113700000D01*
X148873777Y-113714025D01*
X148973777Y-114614025D01*
X148976113Y-114627947D01*
X148983946Y-114651580D01*
X149383946Y-115551580D01*
X149399752Y-115577970D01*
X150099752Y-116477970D01*
X150116890Y-116496030D01*
X150137221Y-116510398D01*
X150159965Y-116520525D01*
X150184248Y-116526019D01*
X151784248Y-116726019D01*
X151808870Y-116726690D01*
X151833416Y-116722525D01*
X152933416Y-116422525D01*
X152956796Y-116413592D01*
X153356796Y-116213592D01*
X153386957Y-116192560D01*
X153403344Y-116173817D01*
X153902479Y-115475028D01*
X154099871Y-115211838D01*
X154477886Y-116534890D01*
X154482667Y-116548601D01*
X154494403Y-116570557D01*
X154510197Y-116589803D01*
X154529443Y-116605597D01*
X154551399Y-116617333D01*
X154575224Y-116624560D01*
X154600000Y-116627000D01*
X155800000Y-116627000D01*
X155824907Y-116624534D01*
X156824907Y-116424534D01*
X156848478Y-116417383D01*
X156870447Y-116405670D01*
X157470447Y-116005670D01*
X157489896Y-115989709D01*
X157505670Y-115970447D01*
X157800000Y-115528952D01*
X157894330Y-115670447D01*
X157918697Y-115697564D01*
X158518697Y-116197564D01*
X158543204Y-116213592D01*
X159143204Y-116513592D01*
X159169198Y-116523208D01*
X159969198Y-116723208D01*
X159983042Y-116725863D01*
X160007922Y-116726753D01*
X161600000Y-116627248D01*
X163192078Y-116726753D01*
X163215884Y-116726003D01*
X163240161Y-116720483D01*
X163805077Y-116532178D01*
X164169198Y-116623208D01*
X164200000Y-116627000D01*
X168573933Y-116627000D01*
X169249972Y-116916731D01*
X169276744Y-116924853D01*
X169301548Y-116926991D01*
X169326293Y-116924248D01*
X169350028Y-116916731D01*
X171450028Y-116016731D01*
X171468676Y-116006830D01*
X171488198Y-115991379D01*
X171504330Y-115972416D01*
X171516454Y-115950671D01*
X171524101Y-115926979D01*
X171526980Y-115902249D01*
X171524979Y-115877433D01*
X171518175Y-115853485D01*
X171506830Y-115831324D01*
X170649493Y-114497689D01*
X170904510Y-114072661D01*
X171288448Y-113592738D01*
X179865000Y-113592738D01*
X179865000Y-114407262D01*
X180023906Y-115206135D01*
X180335611Y-115958657D01*
X180788136Y-116635909D01*
X181364091Y-117211864D01*
X182041343Y-117664389D01*
X182793865Y-117976094D01*
X183592738Y-118135000D01*
X184407262Y-118135000D01*
X185206135Y-117976094D01*
X185958657Y-117664389D01*
X186635909Y-117211864D01*
X187211864Y-116635909D01*
X187664389Y-115958657D01*
X187976094Y-115206135D01*
X188135000Y-114407262D01*
X188135000Y-113592738D01*
X187976094Y-112793865D01*
X187664389Y-112041343D01*
X187211864Y-111364091D01*
X186635909Y-110788136D01*
X185958657Y-110335611D01*
X185206135Y-110023906D01*
X184407262Y-109865000D01*
X183592738Y-109865000D01*
X182793865Y-110023906D01*
X182041343Y-110335611D01*
X181364091Y-110788136D01*
X180788136Y-111364091D01*
X180335611Y-112041343D01*
X180023906Y-112793865D01*
X179865000Y-113592738D01*
X171288448Y-113592738D01*
X171299170Y-113579336D01*
X171311248Y-113561261D01*
X171321062Y-113538380D01*
X171326223Y-113514025D01*
X171426223Y-112614025D01*
X171426370Y-112587363D01*
X171326370Y-111587363D01*
X171320441Y-111559713D01*
X171310267Y-111536990D01*
X170910267Y-110836990D01*
X170895943Y-110816789D01*
X170877866Y-110799671D01*
X170856796Y-110786408D01*
X169456796Y-110086408D01*
X169433007Y-110077364D01*
X169408448Y-110073281D01*
X167908448Y-109973281D01*
X167893658Y-109973158D01*
X165893658Y-110073158D01*
X165861167Y-110079083D01*
X165838323Y-110088982D01*
X165817850Y-110103148D01*
X165800533Y-110121035D01*
X165787039Y-110141958D01*
X165777886Y-110165110D01*
X165650247Y-110611847D01*
X165303344Y-110126183D01*
X165286285Y-110106812D01*
X165266447Y-110091770D01*
X165244055Y-110080886D01*
X165219971Y-110074580D01*
X165195119Y-110073094D01*
X162595119Y-110173094D01*
X162566456Y-110177510D01*
X162543204Y-110186408D01*
X162522134Y-110199671D01*
X162504057Y-110216789D01*
X162489667Y-110237106D01*
X162479517Y-110259839D01*
X162230746Y-111006152D01*
X162124534Y-110475093D01*
X162117282Y-110451276D01*
X162105523Y-110429332D01*
X162089709Y-110410104D01*
X162070447Y-110394330D01*
X161470447Y-109994330D01*
X161448601Y-109982667D01*
X161424776Y-109975440D01*
X161400000Y-109973000D01*
X160600000Y-109973000D01*
X160588502Y-109973522D01*
X159488502Y-110073522D01*
X159461167Y-110079083D01*
X159438323Y-110088982D01*
X158538323Y-110588982D01*
X158520664Y-110600830D01*
X158157421Y-110891425D01*
X157918914Y-110255407D01*
X157911018Y-110238323D01*
X157896852Y-110217850D01*
X157878965Y-110200533D01*
X157858042Y-110187039D01*
X157834890Y-110177886D01*
X157134890Y-109977886D01*
X157112637Y-109973630D01*
X156112637Y-109873630D01*
X156093827Y-109873150D01*
X156069198Y-109876792D01*
X154869198Y-110176792D01*
X154857160Y-110180444D01*
X154834659Y-110191098D01*
X153906059Y-110748258D01*
X153273817Y-110296656D01*
X153263010Y-110289733D01*
X152563010Y-109889733D01*
X152548601Y-109882667D01*
X152524776Y-109875440D01*
X152500000Y-109873000D01*
X151300000Y-109873000D01*
X151284116Y-109873997D01*
X151259839Y-109879517D01*
X150059839Y-110279517D01*
X150038739Y-110288752D01*
X150018213Y-110302841D01*
X150000830Y-110320664D01*
X149200830Y-111320664D01*
X149189667Y-111337106D01*
X149179517Y-111359839D01*
X148979517Y-111959839D01*
X148973777Y-111985975D01*
X148873777Y-112885975D01*
X148873000Y-112900000D01*
X139997206Y-112900000D01*
X139976094Y-112793865D01*
X139664389Y-112041343D01*
X139211864Y-111364091D01*
X138635909Y-110788136D01*
X137958657Y-110335611D01*
X137206135Y-110023906D01*
X136407262Y-109865000D01*
X135592738Y-109865000D01*
X134793865Y-110023906D01*
X134041343Y-110335611D01*
X133364091Y-110788136D01*
X132788136Y-111364091D01*
X132335611Y-112041343D01*
X132023906Y-112793865D01*
X131865000Y-113592738D01*
X125695000Y-113592738D01*
X125695000Y-94127000D01*
X195305000Y-94127000D01*
X195305001Y-168555000D01*
G36*
X195305000Y-51873000D02*
G01*
X125695000Y-51873000D01*
X125695000Y-43750000D01*
X129354186Y-43750000D01*
X129397339Y-44188137D01*
X129525138Y-44609436D01*
X129732674Y-44997707D01*
X130011970Y-45338030D01*
X130352293Y-45617326D01*
X130740564Y-45824862D01*
X131161863Y-45952661D01*
X131490204Y-45985000D01*
X133509796Y-45985000D01*
X133838137Y-45952661D01*
X134259436Y-45824862D01*
X134647707Y-45617326D01*
X134988030Y-45338030D01*
X135267326Y-44997707D01*
X135474862Y-44609436D01*
X135602661Y-44188137D01*
X135645814Y-43750000D01*
X185354186Y-43750000D01*
X185397339Y-44188137D01*
X185525138Y-44609436D01*
X185732674Y-44997707D01*
X186011970Y-45338030D01*
X186352293Y-45617326D01*
X186740564Y-45824862D01*
X187161863Y-45952661D01*
X187490204Y-45985000D01*
X189509796Y-45985000D01*
X189838137Y-45952661D01*
X190259436Y-45824862D01*
X190647707Y-45617326D01*
X190988030Y-45338030D01*
X191267326Y-44997707D01*
X191474862Y-44609436D01*
X191602661Y-44188137D01*
X191645814Y-43750000D01*
X191602661Y-43311863D01*
X191474862Y-42890564D01*
X191267326Y-42502293D01*
X190988030Y-42161970D01*
X190647707Y-41882674D01*
X190259436Y-41675138D01*
X189838137Y-41547339D01*
X189509796Y-41515000D01*
X187490204Y-41515000D01*
X187161863Y-41547339D01*
X186740564Y-41675138D01*
X186352293Y-41882674D01*
X186011970Y-42161970D01*
X185732674Y-42502293D01*
X185525138Y-42890564D01*
X185397339Y-43311863D01*
X185354186Y-43750000D01*
X135645814Y-43750000D01*
X135602661Y-43311863D01*
X135474862Y-42890564D01*
X135267326Y-42502293D01*
X134988030Y-42161970D01*
X134647707Y-41882674D01*
X134259436Y-41675138D01*
X133838137Y-41547339D01*
X133509796Y-41515000D01*
X131490204Y-41515000D01*
X131161863Y-41547339D01*
X130740564Y-41675138D01*
X130352293Y-41882674D01*
X130011970Y-42161970D01*
X129732674Y-42502293D01*
X129525138Y-42890564D01*
X129397339Y-43311863D01*
X129354186Y-43750000D01*
X125695000Y-43750000D01*
X125695000Y-41445000D01*
X195305000Y-41445000D01*
X195305000Y-51873000D01*
X195305000Y-51873000D01*
G37*
X195305000Y-51873000D02*
X125695000Y-51873000D01*
X125695000Y-43750000D01*
X129354186Y-43750000D01*
X129397339Y-44188137D01*
X129525138Y-44609436D01*
X129732674Y-44997707D01*
X130011970Y-45338030D01*
X130352293Y-45617326D01*
X130740564Y-45824862D01*
X131161863Y-45952661D01*
X131490204Y-45985000D01*
X133509796Y-45985000D01*
X133838137Y-45952661D01*
X134259436Y-45824862D01*
X134647707Y-45617326D01*
X134988030Y-45338030D01*
X135267326Y-44997707D01*
X135474862Y-44609436D01*
X135602661Y-44188137D01*
X135645814Y-43750000D01*
X185354186Y-43750000D01*
X185397339Y-44188137D01*
X185525138Y-44609436D01*
X185732674Y-44997707D01*
X186011970Y-45338030D01*
X186352293Y-45617326D01*
X186740564Y-45824862D01*
X187161863Y-45952661D01*
X187490204Y-45985000D01*
X189509796Y-45985000D01*
X189838137Y-45952661D01*
X190259436Y-45824862D01*
X190647707Y-45617326D01*
X190988030Y-45338030D01*
X191267326Y-44997707D01*
X191474862Y-44609436D01*
X191602661Y-44188137D01*
X191645814Y-43750000D01*
X191602661Y-43311863D01*
X191474862Y-42890564D01*
X191267326Y-42502293D01*
X190988030Y-42161970D01*
X190647707Y-41882674D01*
X190259436Y-41675138D01*
X189838137Y-41547339D01*
X189509796Y-41515000D01*
X187490204Y-41515000D01*
X187161863Y-41547339D01*
X186740564Y-41675138D01*
X186352293Y-41882674D01*
X186011970Y-42161970D01*
X185732674Y-42502293D01*
X185525138Y-42890564D01*
X185397339Y-43311863D01*
X185354186Y-43750000D01*
X135645814Y-43750000D01*
X135602661Y-43311863D01*
X135474862Y-42890564D01*
X135267326Y-42502293D01*
X134988030Y-42161970D01*
X134647707Y-41882674D01*
X134259436Y-41675138D01*
X133838137Y-41547339D01*
X133509796Y-41515000D01*
X131490204Y-41515000D01*
X131161863Y-41547339D01*
X130740564Y-41675138D01*
X130352293Y-41882674D01*
X130011970Y-42161970D01*
X129732674Y-42502293D01*
X129525138Y-42890564D01*
X129397339Y-43311863D01*
X129354186Y-43750000D01*
X125695000Y-43750000D01*
X125695000Y-41445000D01*
X195305000Y-41445000D01*
X195305000Y-51873000D01*
M02*
