G04 #@! TF.GenerationSoftware,KiCad,Pcbnew,(5.1.4)-1*
G04 #@! TF.CreationDate,2019-09-13T11:08:06+01:00*
G04 #@! TF.ProjectId,oscar,6f736361-722e-46b6-9963-61645f706362,rev?*
G04 #@! TF.SameCoordinates,Original*
G04 #@! TF.FileFunction,Paste,Bot*
G04 #@! TF.FilePolarity,Positive*
%FSLAX46Y46*%
G04 Gerber Fmt 4.6, Leading zero omitted, Abs format (unit mm)*
G04 Created by KiCad (PCBNEW (5.1.4)-1) date 2019-09-13 11:08:06*
%MOMM*%
%LPD*%
G04 APERTURE LIST*
%ADD10R,1.300000X1.500000*%
%ADD11R,1.500000X1.300000*%
%ADD12C,0.100000*%
%ADD13C,0.300000*%
%ADD14R,1.500000X1.250000*%
%ADD15R,1.250000X1.500000*%
%ADD16R,1.600000X3.000000*%
%ADD17R,1.600000X2.600000*%
%ADD18R,2.600000X1.600000*%
%ADD19R,3.000000X1.600000*%
%ADD20R,0.900000X1.200000*%
%ADD21R,0.508000X1.143000*%
%ADD22R,3.050000X2.750000*%
%ADD23R,2.200000X1.200000*%
%ADD24R,4.500000X2.000000*%
G04 APERTURE END LIST*
D10*
X162700000Y-118550000D03*
X162700000Y-121250000D03*
D11*
X166150000Y-89000000D03*
X168850000Y-89000000D03*
D12*
G36*
X152332351Y-95950361D02*
G01*
X152339632Y-95951441D01*
X152346771Y-95953229D01*
X152353701Y-95955709D01*
X152360355Y-95958856D01*
X152366668Y-95962640D01*
X152372579Y-95967024D01*
X152378033Y-95971967D01*
X152382976Y-95977421D01*
X152387360Y-95983332D01*
X152391144Y-95989645D01*
X152394291Y-95996299D01*
X152396771Y-96003229D01*
X152398559Y-96010368D01*
X152399639Y-96017649D01*
X152400000Y-96025000D01*
X152400000Y-97425000D01*
X152399639Y-97432351D01*
X152398559Y-97439632D01*
X152396771Y-97446771D01*
X152394291Y-97453701D01*
X152391144Y-97460355D01*
X152387360Y-97466668D01*
X152382976Y-97472579D01*
X152378033Y-97478033D01*
X152372579Y-97482976D01*
X152366668Y-97487360D01*
X152360355Y-97491144D01*
X152353701Y-97494291D01*
X152346771Y-97496771D01*
X152339632Y-97498559D01*
X152332351Y-97499639D01*
X152325000Y-97500000D01*
X152175000Y-97500000D01*
X152167649Y-97499639D01*
X152160368Y-97498559D01*
X152153229Y-97496771D01*
X152146299Y-97494291D01*
X152139645Y-97491144D01*
X152133332Y-97487360D01*
X152127421Y-97482976D01*
X152121967Y-97478033D01*
X152117024Y-97472579D01*
X152112640Y-97466668D01*
X152108856Y-97460355D01*
X152105709Y-97453701D01*
X152103229Y-97446771D01*
X152101441Y-97439632D01*
X152100361Y-97432351D01*
X152100000Y-97425000D01*
X152100000Y-96025000D01*
X152100361Y-96017649D01*
X152101441Y-96010368D01*
X152103229Y-96003229D01*
X152105709Y-95996299D01*
X152108856Y-95989645D01*
X152112640Y-95983332D01*
X152117024Y-95977421D01*
X152121967Y-95971967D01*
X152127421Y-95967024D01*
X152133332Y-95962640D01*
X152139645Y-95958856D01*
X152146299Y-95955709D01*
X152153229Y-95953229D01*
X152160368Y-95951441D01*
X152167649Y-95950361D01*
X152175000Y-95950000D01*
X152325000Y-95950000D01*
X152332351Y-95950361D01*
X152332351Y-95950361D01*
G37*
D13*
X152250000Y-96725000D03*
D12*
G36*
X152832351Y-95950361D02*
G01*
X152839632Y-95951441D01*
X152846771Y-95953229D01*
X152853701Y-95955709D01*
X152860355Y-95958856D01*
X152866668Y-95962640D01*
X152872579Y-95967024D01*
X152878033Y-95971967D01*
X152882976Y-95977421D01*
X152887360Y-95983332D01*
X152891144Y-95989645D01*
X152894291Y-95996299D01*
X152896771Y-96003229D01*
X152898559Y-96010368D01*
X152899639Y-96017649D01*
X152900000Y-96025000D01*
X152900000Y-97425000D01*
X152899639Y-97432351D01*
X152898559Y-97439632D01*
X152896771Y-97446771D01*
X152894291Y-97453701D01*
X152891144Y-97460355D01*
X152887360Y-97466668D01*
X152882976Y-97472579D01*
X152878033Y-97478033D01*
X152872579Y-97482976D01*
X152866668Y-97487360D01*
X152860355Y-97491144D01*
X152853701Y-97494291D01*
X152846771Y-97496771D01*
X152839632Y-97498559D01*
X152832351Y-97499639D01*
X152825000Y-97500000D01*
X152675000Y-97500000D01*
X152667649Y-97499639D01*
X152660368Y-97498559D01*
X152653229Y-97496771D01*
X152646299Y-97494291D01*
X152639645Y-97491144D01*
X152633332Y-97487360D01*
X152627421Y-97482976D01*
X152621967Y-97478033D01*
X152617024Y-97472579D01*
X152612640Y-97466668D01*
X152608856Y-97460355D01*
X152605709Y-97453701D01*
X152603229Y-97446771D01*
X152601441Y-97439632D01*
X152600361Y-97432351D01*
X152600000Y-97425000D01*
X152600000Y-96025000D01*
X152600361Y-96017649D01*
X152601441Y-96010368D01*
X152603229Y-96003229D01*
X152605709Y-95996299D01*
X152608856Y-95989645D01*
X152612640Y-95983332D01*
X152617024Y-95977421D01*
X152621967Y-95971967D01*
X152627421Y-95967024D01*
X152633332Y-95962640D01*
X152639645Y-95958856D01*
X152646299Y-95955709D01*
X152653229Y-95953229D01*
X152660368Y-95951441D01*
X152667649Y-95950361D01*
X152675000Y-95950000D01*
X152825000Y-95950000D01*
X152832351Y-95950361D01*
X152832351Y-95950361D01*
G37*
D13*
X152750000Y-96725000D03*
D12*
G36*
X153332351Y-95950361D02*
G01*
X153339632Y-95951441D01*
X153346771Y-95953229D01*
X153353701Y-95955709D01*
X153360355Y-95958856D01*
X153366668Y-95962640D01*
X153372579Y-95967024D01*
X153378033Y-95971967D01*
X153382976Y-95977421D01*
X153387360Y-95983332D01*
X153391144Y-95989645D01*
X153394291Y-95996299D01*
X153396771Y-96003229D01*
X153398559Y-96010368D01*
X153399639Y-96017649D01*
X153400000Y-96025000D01*
X153400000Y-97425000D01*
X153399639Y-97432351D01*
X153398559Y-97439632D01*
X153396771Y-97446771D01*
X153394291Y-97453701D01*
X153391144Y-97460355D01*
X153387360Y-97466668D01*
X153382976Y-97472579D01*
X153378033Y-97478033D01*
X153372579Y-97482976D01*
X153366668Y-97487360D01*
X153360355Y-97491144D01*
X153353701Y-97494291D01*
X153346771Y-97496771D01*
X153339632Y-97498559D01*
X153332351Y-97499639D01*
X153325000Y-97500000D01*
X153175000Y-97500000D01*
X153167649Y-97499639D01*
X153160368Y-97498559D01*
X153153229Y-97496771D01*
X153146299Y-97494291D01*
X153139645Y-97491144D01*
X153133332Y-97487360D01*
X153127421Y-97482976D01*
X153121967Y-97478033D01*
X153117024Y-97472579D01*
X153112640Y-97466668D01*
X153108856Y-97460355D01*
X153105709Y-97453701D01*
X153103229Y-97446771D01*
X153101441Y-97439632D01*
X153100361Y-97432351D01*
X153100000Y-97425000D01*
X153100000Y-96025000D01*
X153100361Y-96017649D01*
X153101441Y-96010368D01*
X153103229Y-96003229D01*
X153105709Y-95996299D01*
X153108856Y-95989645D01*
X153112640Y-95983332D01*
X153117024Y-95977421D01*
X153121967Y-95971967D01*
X153127421Y-95967024D01*
X153133332Y-95962640D01*
X153139645Y-95958856D01*
X153146299Y-95955709D01*
X153153229Y-95953229D01*
X153160368Y-95951441D01*
X153167649Y-95950361D01*
X153175000Y-95950000D01*
X153325000Y-95950000D01*
X153332351Y-95950361D01*
X153332351Y-95950361D01*
G37*
D13*
X153250000Y-96725000D03*
D12*
G36*
X153832351Y-95950361D02*
G01*
X153839632Y-95951441D01*
X153846771Y-95953229D01*
X153853701Y-95955709D01*
X153860355Y-95958856D01*
X153866668Y-95962640D01*
X153872579Y-95967024D01*
X153878033Y-95971967D01*
X153882976Y-95977421D01*
X153887360Y-95983332D01*
X153891144Y-95989645D01*
X153894291Y-95996299D01*
X153896771Y-96003229D01*
X153898559Y-96010368D01*
X153899639Y-96017649D01*
X153900000Y-96025000D01*
X153900000Y-97425000D01*
X153899639Y-97432351D01*
X153898559Y-97439632D01*
X153896771Y-97446771D01*
X153894291Y-97453701D01*
X153891144Y-97460355D01*
X153887360Y-97466668D01*
X153882976Y-97472579D01*
X153878033Y-97478033D01*
X153872579Y-97482976D01*
X153866668Y-97487360D01*
X153860355Y-97491144D01*
X153853701Y-97494291D01*
X153846771Y-97496771D01*
X153839632Y-97498559D01*
X153832351Y-97499639D01*
X153825000Y-97500000D01*
X153675000Y-97500000D01*
X153667649Y-97499639D01*
X153660368Y-97498559D01*
X153653229Y-97496771D01*
X153646299Y-97494291D01*
X153639645Y-97491144D01*
X153633332Y-97487360D01*
X153627421Y-97482976D01*
X153621967Y-97478033D01*
X153617024Y-97472579D01*
X153612640Y-97466668D01*
X153608856Y-97460355D01*
X153605709Y-97453701D01*
X153603229Y-97446771D01*
X153601441Y-97439632D01*
X153600361Y-97432351D01*
X153600000Y-97425000D01*
X153600000Y-96025000D01*
X153600361Y-96017649D01*
X153601441Y-96010368D01*
X153603229Y-96003229D01*
X153605709Y-95996299D01*
X153608856Y-95989645D01*
X153612640Y-95983332D01*
X153617024Y-95977421D01*
X153621967Y-95971967D01*
X153627421Y-95967024D01*
X153633332Y-95962640D01*
X153639645Y-95958856D01*
X153646299Y-95955709D01*
X153653229Y-95953229D01*
X153660368Y-95951441D01*
X153667649Y-95950361D01*
X153675000Y-95950000D01*
X153825000Y-95950000D01*
X153832351Y-95950361D01*
X153832351Y-95950361D01*
G37*
D13*
X153750000Y-96725000D03*
D12*
G36*
X154332351Y-95950361D02*
G01*
X154339632Y-95951441D01*
X154346771Y-95953229D01*
X154353701Y-95955709D01*
X154360355Y-95958856D01*
X154366668Y-95962640D01*
X154372579Y-95967024D01*
X154378033Y-95971967D01*
X154382976Y-95977421D01*
X154387360Y-95983332D01*
X154391144Y-95989645D01*
X154394291Y-95996299D01*
X154396771Y-96003229D01*
X154398559Y-96010368D01*
X154399639Y-96017649D01*
X154400000Y-96025000D01*
X154400000Y-97425000D01*
X154399639Y-97432351D01*
X154398559Y-97439632D01*
X154396771Y-97446771D01*
X154394291Y-97453701D01*
X154391144Y-97460355D01*
X154387360Y-97466668D01*
X154382976Y-97472579D01*
X154378033Y-97478033D01*
X154372579Y-97482976D01*
X154366668Y-97487360D01*
X154360355Y-97491144D01*
X154353701Y-97494291D01*
X154346771Y-97496771D01*
X154339632Y-97498559D01*
X154332351Y-97499639D01*
X154325000Y-97500000D01*
X154175000Y-97500000D01*
X154167649Y-97499639D01*
X154160368Y-97498559D01*
X154153229Y-97496771D01*
X154146299Y-97494291D01*
X154139645Y-97491144D01*
X154133332Y-97487360D01*
X154127421Y-97482976D01*
X154121967Y-97478033D01*
X154117024Y-97472579D01*
X154112640Y-97466668D01*
X154108856Y-97460355D01*
X154105709Y-97453701D01*
X154103229Y-97446771D01*
X154101441Y-97439632D01*
X154100361Y-97432351D01*
X154100000Y-97425000D01*
X154100000Y-96025000D01*
X154100361Y-96017649D01*
X154101441Y-96010368D01*
X154103229Y-96003229D01*
X154105709Y-95996299D01*
X154108856Y-95989645D01*
X154112640Y-95983332D01*
X154117024Y-95977421D01*
X154121967Y-95971967D01*
X154127421Y-95967024D01*
X154133332Y-95962640D01*
X154139645Y-95958856D01*
X154146299Y-95955709D01*
X154153229Y-95953229D01*
X154160368Y-95951441D01*
X154167649Y-95950361D01*
X154175000Y-95950000D01*
X154325000Y-95950000D01*
X154332351Y-95950361D01*
X154332351Y-95950361D01*
G37*
D13*
X154250000Y-96725000D03*
D12*
G36*
X154832351Y-95950361D02*
G01*
X154839632Y-95951441D01*
X154846771Y-95953229D01*
X154853701Y-95955709D01*
X154860355Y-95958856D01*
X154866668Y-95962640D01*
X154872579Y-95967024D01*
X154878033Y-95971967D01*
X154882976Y-95977421D01*
X154887360Y-95983332D01*
X154891144Y-95989645D01*
X154894291Y-95996299D01*
X154896771Y-96003229D01*
X154898559Y-96010368D01*
X154899639Y-96017649D01*
X154900000Y-96025000D01*
X154900000Y-97425000D01*
X154899639Y-97432351D01*
X154898559Y-97439632D01*
X154896771Y-97446771D01*
X154894291Y-97453701D01*
X154891144Y-97460355D01*
X154887360Y-97466668D01*
X154882976Y-97472579D01*
X154878033Y-97478033D01*
X154872579Y-97482976D01*
X154866668Y-97487360D01*
X154860355Y-97491144D01*
X154853701Y-97494291D01*
X154846771Y-97496771D01*
X154839632Y-97498559D01*
X154832351Y-97499639D01*
X154825000Y-97500000D01*
X154675000Y-97500000D01*
X154667649Y-97499639D01*
X154660368Y-97498559D01*
X154653229Y-97496771D01*
X154646299Y-97494291D01*
X154639645Y-97491144D01*
X154633332Y-97487360D01*
X154627421Y-97482976D01*
X154621967Y-97478033D01*
X154617024Y-97472579D01*
X154612640Y-97466668D01*
X154608856Y-97460355D01*
X154605709Y-97453701D01*
X154603229Y-97446771D01*
X154601441Y-97439632D01*
X154600361Y-97432351D01*
X154600000Y-97425000D01*
X154600000Y-96025000D01*
X154600361Y-96017649D01*
X154601441Y-96010368D01*
X154603229Y-96003229D01*
X154605709Y-95996299D01*
X154608856Y-95989645D01*
X154612640Y-95983332D01*
X154617024Y-95977421D01*
X154621967Y-95971967D01*
X154627421Y-95967024D01*
X154633332Y-95962640D01*
X154639645Y-95958856D01*
X154646299Y-95955709D01*
X154653229Y-95953229D01*
X154660368Y-95951441D01*
X154667649Y-95950361D01*
X154675000Y-95950000D01*
X154825000Y-95950000D01*
X154832351Y-95950361D01*
X154832351Y-95950361D01*
G37*
D13*
X154750000Y-96725000D03*
D12*
G36*
X155332351Y-95950361D02*
G01*
X155339632Y-95951441D01*
X155346771Y-95953229D01*
X155353701Y-95955709D01*
X155360355Y-95958856D01*
X155366668Y-95962640D01*
X155372579Y-95967024D01*
X155378033Y-95971967D01*
X155382976Y-95977421D01*
X155387360Y-95983332D01*
X155391144Y-95989645D01*
X155394291Y-95996299D01*
X155396771Y-96003229D01*
X155398559Y-96010368D01*
X155399639Y-96017649D01*
X155400000Y-96025000D01*
X155400000Y-97425000D01*
X155399639Y-97432351D01*
X155398559Y-97439632D01*
X155396771Y-97446771D01*
X155394291Y-97453701D01*
X155391144Y-97460355D01*
X155387360Y-97466668D01*
X155382976Y-97472579D01*
X155378033Y-97478033D01*
X155372579Y-97482976D01*
X155366668Y-97487360D01*
X155360355Y-97491144D01*
X155353701Y-97494291D01*
X155346771Y-97496771D01*
X155339632Y-97498559D01*
X155332351Y-97499639D01*
X155325000Y-97500000D01*
X155175000Y-97500000D01*
X155167649Y-97499639D01*
X155160368Y-97498559D01*
X155153229Y-97496771D01*
X155146299Y-97494291D01*
X155139645Y-97491144D01*
X155133332Y-97487360D01*
X155127421Y-97482976D01*
X155121967Y-97478033D01*
X155117024Y-97472579D01*
X155112640Y-97466668D01*
X155108856Y-97460355D01*
X155105709Y-97453701D01*
X155103229Y-97446771D01*
X155101441Y-97439632D01*
X155100361Y-97432351D01*
X155100000Y-97425000D01*
X155100000Y-96025000D01*
X155100361Y-96017649D01*
X155101441Y-96010368D01*
X155103229Y-96003229D01*
X155105709Y-95996299D01*
X155108856Y-95989645D01*
X155112640Y-95983332D01*
X155117024Y-95977421D01*
X155121967Y-95971967D01*
X155127421Y-95967024D01*
X155133332Y-95962640D01*
X155139645Y-95958856D01*
X155146299Y-95955709D01*
X155153229Y-95953229D01*
X155160368Y-95951441D01*
X155167649Y-95950361D01*
X155175000Y-95950000D01*
X155325000Y-95950000D01*
X155332351Y-95950361D01*
X155332351Y-95950361D01*
G37*
D13*
X155250000Y-96725000D03*
D12*
G36*
X155832351Y-95950361D02*
G01*
X155839632Y-95951441D01*
X155846771Y-95953229D01*
X155853701Y-95955709D01*
X155860355Y-95958856D01*
X155866668Y-95962640D01*
X155872579Y-95967024D01*
X155878033Y-95971967D01*
X155882976Y-95977421D01*
X155887360Y-95983332D01*
X155891144Y-95989645D01*
X155894291Y-95996299D01*
X155896771Y-96003229D01*
X155898559Y-96010368D01*
X155899639Y-96017649D01*
X155900000Y-96025000D01*
X155900000Y-97425000D01*
X155899639Y-97432351D01*
X155898559Y-97439632D01*
X155896771Y-97446771D01*
X155894291Y-97453701D01*
X155891144Y-97460355D01*
X155887360Y-97466668D01*
X155882976Y-97472579D01*
X155878033Y-97478033D01*
X155872579Y-97482976D01*
X155866668Y-97487360D01*
X155860355Y-97491144D01*
X155853701Y-97494291D01*
X155846771Y-97496771D01*
X155839632Y-97498559D01*
X155832351Y-97499639D01*
X155825000Y-97500000D01*
X155675000Y-97500000D01*
X155667649Y-97499639D01*
X155660368Y-97498559D01*
X155653229Y-97496771D01*
X155646299Y-97494291D01*
X155639645Y-97491144D01*
X155633332Y-97487360D01*
X155627421Y-97482976D01*
X155621967Y-97478033D01*
X155617024Y-97472579D01*
X155612640Y-97466668D01*
X155608856Y-97460355D01*
X155605709Y-97453701D01*
X155603229Y-97446771D01*
X155601441Y-97439632D01*
X155600361Y-97432351D01*
X155600000Y-97425000D01*
X155600000Y-96025000D01*
X155600361Y-96017649D01*
X155601441Y-96010368D01*
X155603229Y-96003229D01*
X155605709Y-95996299D01*
X155608856Y-95989645D01*
X155612640Y-95983332D01*
X155617024Y-95977421D01*
X155621967Y-95971967D01*
X155627421Y-95967024D01*
X155633332Y-95962640D01*
X155639645Y-95958856D01*
X155646299Y-95955709D01*
X155653229Y-95953229D01*
X155660368Y-95951441D01*
X155667649Y-95950361D01*
X155675000Y-95950000D01*
X155825000Y-95950000D01*
X155832351Y-95950361D01*
X155832351Y-95950361D01*
G37*
D13*
X155750000Y-96725000D03*
D12*
G36*
X156332351Y-95950361D02*
G01*
X156339632Y-95951441D01*
X156346771Y-95953229D01*
X156353701Y-95955709D01*
X156360355Y-95958856D01*
X156366668Y-95962640D01*
X156372579Y-95967024D01*
X156378033Y-95971967D01*
X156382976Y-95977421D01*
X156387360Y-95983332D01*
X156391144Y-95989645D01*
X156394291Y-95996299D01*
X156396771Y-96003229D01*
X156398559Y-96010368D01*
X156399639Y-96017649D01*
X156400000Y-96025000D01*
X156400000Y-97425000D01*
X156399639Y-97432351D01*
X156398559Y-97439632D01*
X156396771Y-97446771D01*
X156394291Y-97453701D01*
X156391144Y-97460355D01*
X156387360Y-97466668D01*
X156382976Y-97472579D01*
X156378033Y-97478033D01*
X156372579Y-97482976D01*
X156366668Y-97487360D01*
X156360355Y-97491144D01*
X156353701Y-97494291D01*
X156346771Y-97496771D01*
X156339632Y-97498559D01*
X156332351Y-97499639D01*
X156325000Y-97500000D01*
X156175000Y-97500000D01*
X156167649Y-97499639D01*
X156160368Y-97498559D01*
X156153229Y-97496771D01*
X156146299Y-97494291D01*
X156139645Y-97491144D01*
X156133332Y-97487360D01*
X156127421Y-97482976D01*
X156121967Y-97478033D01*
X156117024Y-97472579D01*
X156112640Y-97466668D01*
X156108856Y-97460355D01*
X156105709Y-97453701D01*
X156103229Y-97446771D01*
X156101441Y-97439632D01*
X156100361Y-97432351D01*
X156100000Y-97425000D01*
X156100000Y-96025000D01*
X156100361Y-96017649D01*
X156101441Y-96010368D01*
X156103229Y-96003229D01*
X156105709Y-95996299D01*
X156108856Y-95989645D01*
X156112640Y-95983332D01*
X156117024Y-95977421D01*
X156121967Y-95971967D01*
X156127421Y-95967024D01*
X156133332Y-95962640D01*
X156139645Y-95958856D01*
X156146299Y-95955709D01*
X156153229Y-95953229D01*
X156160368Y-95951441D01*
X156167649Y-95950361D01*
X156175000Y-95950000D01*
X156325000Y-95950000D01*
X156332351Y-95950361D01*
X156332351Y-95950361D01*
G37*
D13*
X156250000Y-96725000D03*
D12*
G36*
X156832351Y-95950361D02*
G01*
X156839632Y-95951441D01*
X156846771Y-95953229D01*
X156853701Y-95955709D01*
X156860355Y-95958856D01*
X156866668Y-95962640D01*
X156872579Y-95967024D01*
X156878033Y-95971967D01*
X156882976Y-95977421D01*
X156887360Y-95983332D01*
X156891144Y-95989645D01*
X156894291Y-95996299D01*
X156896771Y-96003229D01*
X156898559Y-96010368D01*
X156899639Y-96017649D01*
X156900000Y-96025000D01*
X156900000Y-97425000D01*
X156899639Y-97432351D01*
X156898559Y-97439632D01*
X156896771Y-97446771D01*
X156894291Y-97453701D01*
X156891144Y-97460355D01*
X156887360Y-97466668D01*
X156882976Y-97472579D01*
X156878033Y-97478033D01*
X156872579Y-97482976D01*
X156866668Y-97487360D01*
X156860355Y-97491144D01*
X156853701Y-97494291D01*
X156846771Y-97496771D01*
X156839632Y-97498559D01*
X156832351Y-97499639D01*
X156825000Y-97500000D01*
X156675000Y-97500000D01*
X156667649Y-97499639D01*
X156660368Y-97498559D01*
X156653229Y-97496771D01*
X156646299Y-97494291D01*
X156639645Y-97491144D01*
X156633332Y-97487360D01*
X156627421Y-97482976D01*
X156621967Y-97478033D01*
X156617024Y-97472579D01*
X156612640Y-97466668D01*
X156608856Y-97460355D01*
X156605709Y-97453701D01*
X156603229Y-97446771D01*
X156601441Y-97439632D01*
X156600361Y-97432351D01*
X156600000Y-97425000D01*
X156600000Y-96025000D01*
X156600361Y-96017649D01*
X156601441Y-96010368D01*
X156603229Y-96003229D01*
X156605709Y-95996299D01*
X156608856Y-95989645D01*
X156612640Y-95983332D01*
X156617024Y-95977421D01*
X156621967Y-95971967D01*
X156627421Y-95967024D01*
X156633332Y-95962640D01*
X156639645Y-95958856D01*
X156646299Y-95955709D01*
X156653229Y-95953229D01*
X156660368Y-95951441D01*
X156667649Y-95950361D01*
X156675000Y-95950000D01*
X156825000Y-95950000D01*
X156832351Y-95950361D01*
X156832351Y-95950361D01*
G37*
D13*
X156750000Y-96725000D03*
D12*
G36*
X157332351Y-95950361D02*
G01*
X157339632Y-95951441D01*
X157346771Y-95953229D01*
X157353701Y-95955709D01*
X157360355Y-95958856D01*
X157366668Y-95962640D01*
X157372579Y-95967024D01*
X157378033Y-95971967D01*
X157382976Y-95977421D01*
X157387360Y-95983332D01*
X157391144Y-95989645D01*
X157394291Y-95996299D01*
X157396771Y-96003229D01*
X157398559Y-96010368D01*
X157399639Y-96017649D01*
X157400000Y-96025000D01*
X157400000Y-97425000D01*
X157399639Y-97432351D01*
X157398559Y-97439632D01*
X157396771Y-97446771D01*
X157394291Y-97453701D01*
X157391144Y-97460355D01*
X157387360Y-97466668D01*
X157382976Y-97472579D01*
X157378033Y-97478033D01*
X157372579Y-97482976D01*
X157366668Y-97487360D01*
X157360355Y-97491144D01*
X157353701Y-97494291D01*
X157346771Y-97496771D01*
X157339632Y-97498559D01*
X157332351Y-97499639D01*
X157325000Y-97500000D01*
X157175000Y-97500000D01*
X157167649Y-97499639D01*
X157160368Y-97498559D01*
X157153229Y-97496771D01*
X157146299Y-97494291D01*
X157139645Y-97491144D01*
X157133332Y-97487360D01*
X157127421Y-97482976D01*
X157121967Y-97478033D01*
X157117024Y-97472579D01*
X157112640Y-97466668D01*
X157108856Y-97460355D01*
X157105709Y-97453701D01*
X157103229Y-97446771D01*
X157101441Y-97439632D01*
X157100361Y-97432351D01*
X157100000Y-97425000D01*
X157100000Y-96025000D01*
X157100361Y-96017649D01*
X157101441Y-96010368D01*
X157103229Y-96003229D01*
X157105709Y-95996299D01*
X157108856Y-95989645D01*
X157112640Y-95983332D01*
X157117024Y-95977421D01*
X157121967Y-95971967D01*
X157127421Y-95967024D01*
X157133332Y-95962640D01*
X157139645Y-95958856D01*
X157146299Y-95955709D01*
X157153229Y-95953229D01*
X157160368Y-95951441D01*
X157167649Y-95950361D01*
X157175000Y-95950000D01*
X157325000Y-95950000D01*
X157332351Y-95950361D01*
X157332351Y-95950361D01*
G37*
D13*
X157250000Y-96725000D03*
D12*
G36*
X157832351Y-95950361D02*
G01*
X157839632Y-95951441D01*
X157846771Y-95953229D01*
X157853701Y-95955709D01*
X157860355Y-95958856D01*
X157866668Y-95962640D01*
X157872579Y-95967024D01*
X157878033Y-95971967D01*
X157882976Y-95977421D01*
X157887360Y-95983332D01*
X157891144Y-95989645D01*
X157894291Y-95996299D01*
X157896771Y-96003229D01*
X157898559Y-96010368D01*
X157899639Y-96017649D01*
X157900000Y-96025000D01*
X157900000Y-97425000D01*
X157899639Y-97432351D01*
X157898559Y-97439632D01*
X157896771Y-97446771D01*
X157894291Y-97453701D01*
X157891144Y-97460355D01*
X157887360Y-97466668D01*
X157882976Y-97472579D01*
X157878033Y-97478033D01*
X157872579Y-97482976D01*
X157866668Y-97487360D01*
X157860355Y-97491144D01*
X157853701Y-97494291D01*
X157846771Y-97496771D01*
X157839632Y-97498559D01*
X157832351Y-97499639D01*
X157825000Y-97500000D01*
X157675000Y-97500000D01*
X157667649Y-97499639D01*
X157660368Y-97498559D01*
X157653229Y-97496771D01*
X157646299Y-97494291D01*
X157639645Y-97491144D01*
X157633332Y-97487360D01*
X157627421Y-97482976D01*
X157621967Y-97478033D01*
X157617024Y-97472579D01*
X157612640Y-97466668D01*
X157608856Y-97460355D01*
X157605709Y-97453701D01*
X157603229Y-97446771D01*
X157601441Y-97439632D01*
X157600361Y-97432351D01*
X157600000Y-97425000D01*
X157600000Y-96025000D01*
X157600361Y-96017649D01*
X157601441Y-96010368D01*
X157603229Y-96003229D01*
X157605709Y-95996299D01*
X157608856Y-95989645D01*
X157612640Y-95983332D01*
X157617024Y-95977421D01*
X157621967Y-95971967D01*
X157627421Y-95967024D01*
X157633332Y-95962640D01*
X157639645Y-95958856D01*
X157646299Y-95955709D01*
X157653229Y-95953229D01*
X157660368Y-95951441D01*
X157667649Y-95950361D01*
X157675000Y-95950000D01*
X157825000Y-95950000D01*
X157832351Y-95950361D01*
X157832351Y-95950361D01*
G37*
D13*
X157750000Y-96725000D03*
D12*
G36*
X158332351Y-95950361D02*
G01*
X158339632Y-95951441D01*
X158346771Y-95953229D01*
X158353701Y-95955709D01*
X158360355Y-95958856D01*
X158366668Y-95962640D01*
X158372579Y-95967024D01*
X158378033Y-95971967D01*
X158382976Y-95977421D01*
X158387360Y-95983332D01*
X158391144Y-95989645D01*
X158394291Y-95996299D01*
X158396771Y-96003229D01*
X158398559Y-96010368D01*
X158399639Y-96017649D01*
X158400000Y-96025000D01*
X158400000Y-97425000D01*
X158399639Y-97432351D01*
X158398559Y-97439632D01*
X158396771Y-97446771D01*
X158394291Y-97453701D01*
X158391144Y-97460355D01*
X158387360Y-97466668D01*
X158382976Y-97472579D01*
X158378033Y-97478033D01*
X158372579Y-97482976D01*
X158366668Y-97487360D01*
X158360355Y-97491144D01*
X158353701Y-97494291D01*
X158346771Y-97496771D01*
X158339632Y-97498559D01*
X158332351Y-97499639D01*
X158325000Y-97500000D01*
X158175000Y-97500000D01*
X158167649Y-97499639D01*
X158160368Y-97498559D01*
X158153229Y-97496771D01*
X158146299Y-97494291D01*
X158139645Y-97491144D01*
X158133332Y-97487360D01*
X158127421Y-97482976D01*
X158121967Y-97478033D01*
X158117024Y-97472579D01*
X158112640Y-97466668D01*
X158108856Y-97460355D01*
X158105709Y-97453701D01*
X158103229Y-97446771D01*
X158101441Y-97439632D01*
X158100361Y-97432351D01*
X158100000Y-97425000D01*
X158100000Y-96025000D01*
X158100361Y-96017649D01*
X158101441Y-96010368D01*
X158103229Y-96003229D01*
X158105709Y-95996299D01*
X158108856Y-95989645D01*
X158112640Y-95983332D01*
X158117024Y-95977421D01*
X158121967Y-95971967D01*
X158127421Y-95967024D01*
X158133332Y-95962640D01*
X158139645Y-95958856D01*
X158146299Y-95955709D01*
X158153229Y-95953229D01*
X158160368Y-95951441D01*
X158167649Y-95950361D01*
X158175000Y-95950000D01*
X158325000Y-95950000D01*
X158332351Y-95950361D01*
X158332351Y-95950361D01*
G37*
D13*
X158250000Y-96725000D03*
D12*
G36*
X158832351Y-95950361D02*
G01*
X158839632Y-95951441D01*
X158846771Y-95953229D01*
X158853701Y-95955709D01*
X158860355Y-95958856D01*
X158866668Y-95962640D01*
X158872579Y-95967024D01*
X158878033Y-95971967D01*
X158882976Y-95977421D01*
X158887360Y-95983332D01*
X158891144Y-95989645D01*
X158894291Y-95996299D01*
X158896771Y-96003229D01*
X158898559Y-96010368D01*
X158899639Y-96017649D01*
X158900000Y-96025000D01*
X158900000Y-97425000D01*
X158899639Y-97432351D01*
X158898559Y-97439632D01*
X158896771Y-97446771D01*
X158894291Y-97453701D01*
X158891144Y-97460355D01*
X158887360Y-97466668D01*
X158882976Y-97472579D01*
X158878033Y-97478033D01*
X158872579Y-97482976D01*
X158866668Y-97487360D01*
X158860355Y-97491144D01*
X158853701Y-97494291D01*
X158846771Y-97496771D01*
X158839632Y-97498559D01*
X158832351Y-97499639D01*
X158825000Y-97500000D01*
X158675000Y-97500000D01*
X158667649Y-97499639D01*
X158660368Y-97498559D01*
X158653229Y-97496771D01*
X158646299Y-97494291D01*
X158639645Y-97491144D01*
X158633332Y-97487360D01*
X158627421Y-97482976D01*
X158621967Y-97478033D01*
X158617024Y-97472579D01*
X158612640Y-97466668D01*
X158608856Y-97460355D01*
X158605709Y-97453701D01*
X158603229Y-97446771D01*
X158601441Y-97439632D01*
X158600361Y-97432351D01*
X158600000Y-97425000D01*
X158600000Y-96025000D01*
X158600361Y-96017649D01*
X158601441Y-96010368D01*
X158603229Y-96003229D01*
X158605709Y-95996299D01*
X158608856Y-95989645D01*
X158612640Y-95983332D01*
X158617024Y-95977421D01*
X158621967Y-95971967D01*
X158627421Y-95967024D01*
X158633332Y-95962640D01*
X158639645Y-95958856D01*
X158646299Y-95955709D01*
X158653229Y-95953229D01*
X158660368Y-95951441D01*
X158667649Y-95950361D01*
X158675000Y-95950000D01*
X158825000Y-95950000D01*
X158832351Y-95950361D01*
X158832351Y-95950361D01*
G37*
D13*
X158750000Y-96725000D03*
D12*
G36*
X159332351Y-95950361D02*
G01*
X159339632Y-95951441D01*
X159346771Y-95953229D01*
X159353701Y-95955709D01*
X159360355Y-95958856D01*
X159366668Y-95962640D01*
X159372579Y-95967024D01*
X159378033Y-95971967D01*
X159382976Y-95977421D01*
X159387360Y-95983332D01*
X159391144Y-95989645D01*
X159394291Y-95996299D01*
X159396771Y-96003229D01*
X159398559Y-96010368D01*
X159399639Y-96017649D01*
X159400000Y-96025000D01*
X159400000Y-97425000D01*
X159399639Y-97432351D01*
X159398559Y-97439632D01*
X159396771Y-97446771D01*
X159394291Y-97453701D01*
X159391144Y-97460355D01*
X159387360Y-97466668D01*
X159382976Y-97472579D01*
X159378033Y-97478033D01*
X159372579Y-97482976D01*
X159366668Y-97487360D01*
X159360355Y-97491144D01*
X159353701Y-97494291D01*
X159346771Y-97496771D01*
X159339632Y-97498559D01*
X159332351Y-97499639D01*
X159325000Y-97500000D01*
X159175000Y-97500000D01*
X159167649Y-97499639D01*
X159160368Y-97498559D01*
X159153229Y-97496771D01*
X159146299Y-97494291D01*
X159139645Y-97491144D01*
X159133332Y-97487360D01*
X159127421Y-97482976D01*
X159121967Y-97478033D01*
X159117024Y-97472579D01*
X159112640Y-97466668D01*
X159108856Y-97460355D01*
X159105709Y-97453701D01*
X159103229Y-97446771D01*
X159101441Y-97439632D01*
X159100361Y-97432351D01*
X159100000Y-97425000D01*
X159100000Y-96025000D01*
X159100361Y-96017649D01*
X159101441Y-96010368D01*
X159103229Y-96003229D01*
X159105709Y-95996299D01*
X159108856Y-95989645D01*
X159112640Y-95983332D01*
X159117024Y-95977421D01*
X159121967Y-95971967D01*
X159127421Y-95967024D01*
X159133332Y-95962640D01*
X159139645Y-95958856D01*
X159146299Y-95955709D01*
X159153229Y-95953229D01*
X159160368Y-95951441D01*
X159167649Y-95950361D01*
X159175000Y-95950000D01*
X159325000Y-95950000D01*
X159332351Y-95950361D01*
X159332351Y-95950361D01*
G37*
D13*
X159250000Y-96725000D03*
D12*
G36*
X159832351Y-95950361D02*
G01*
X159839632Y-95951441D01*
X159846771Y-95953229D01*
X159853701Y-95955709D01*
X159860355Y-95958856D01*
X159866668Y-95962640D01*
X159872579Y-95967024D01*
X159878033Y-95971967D01*
X159882976Y-95977421D01*
X159887360Y-95983332D01*
X159891144Y-95989645D01*
X159894291Y-95996299D01*
X159896771Y-96003229D01*
X159898559Y-96010368D01*
X159899639Y-96017649D01*
X159900000Y-96025000D01*
X159900000Y-97425000D01*
X159899639Y-97432351D01*
X159898559Y-97439632D01*
X159896771Y-97446771D01*
X159894291Y-97453701D01*
X159891144Y-97460355D01*
X159887360Y-97466668D01*
X159882976Y-97472579D01*
X159878033Y-97478033D01*
X159872579Y-97482976D01*
X159866668Y-97487360D01*
X159860355Y-97491144D01*
X159853701Y-97494291D01*
X159846771Y-97496771D01*
X159839632Y-97498559D01*
X159832351Y-97499639D01*
X159825000Y-97500000D01*
X159675000Y-97500000D01*
X159667649Y-97499639D01*
X159660368Y-97498559D01*
X159653229Y-97496771D01*
X159646299Y-97494291D01*
X159639645Y-97491144D01*
X159633332Y-97487360D01*
X159627421Y-97482976D01*
X159621967Y-97478033D01*
X159617024Y-97472579D01*
X159612640Y-97466668D01*
X159608856Y-97460355D01*
X159605709Y-97453701D01*
X159603229Y-97446771D01*
X159601441Y-97439632D01*
X159600361Y-97432351D01*
X159600000Y-97425000D01*
X159600000Y-96025000D01*
X159600361Y-96017649D01*
X159601441Y-96010368D01*
X159603229Y-96003229D01*
X159605709Y-95996299D01*
X159608856Y-95989645D01*
X159612640Y-95983332D01*
X159617024Y-95977421D01*
X159621967Y-95971967D01*
X159627421Y-95967024D01*
X159633332Y-95962640D01*
X159639645Y-95958856D01*
X159646299Y-95955709D01*
X159653229Y-95953229D01*
X159660368Y-95951441D01*
X159667649Y-95950361D01*
X159675000Y-95950000D01*
X159825000Y-95950000D01*
X159832351Y-95950361D01*
X159832351Y-95950361D01*
G37*
D13*
X159750000Y-96725000D03*
D12*
G36*
X162382351Y-98500361D02*
G01*
X162389632Y-98501441D01*
X162396771Y-98503229D01*
X162403701Y-98505709D01*
X162410355Y-98508856D01*
X162416668Y-98512640D01*
X162422579Y-98517024D01*
X162428033Y-98521967D01*
X162432976Y-98527421D01*
X162437360Y-98533332D01*
X162441144Y-98539645D01*
X162444291Y-98546299D01*
X162446771Y-98553229D01*
X162448559Y-98560368D01*
X162449639Y-98567649D01*
X162450000Y-98575000D01*
X162450000Y-98725000D01*
X162449639Y-98732351D01*
X162448559Y-98739632D01*
X162446771Y-98746771D01*
X162444291Y-98753701D01*
X162441144Y-98760355D01*
X162437360Y-98766668D01*
X162432976Y-98772579D01*
X162428033Y-98778033D01*
X162422579Y-98782976D01*
X162416668Y-98787360D01*
X162410355Y-98791144D01*
X162403701Y-98794291D01*
X162396771Y-98796771D01*
X162389632Y-98798559D01*
X162382351Y-98799639D01*
X162375000Y-98800000D01*
X160975000Y-98800000D01*
X160967649Y-98799639D01*
X160960368Y-98798559D01*
X160953229Y-98796771D01*
X160946299Y-98794291D01*
X160939645Y-98791144D01*
X160933332Y-98787360D01*
X160927421Y-98782976D01*
X160921967Y-98778033D01*
X160917024Y-98772579D01*
X160912640Y-98766668D01*
X160908856Y-98760355D01*
X160905709Y-98753701D01*
X160903229Y-98746771D01*
X160901441Y-98739632D01*
X160900361Y-98732351D01*
X160900000Y-98725000D01*
X160900000Y-98575000D01*
X160900361Y-98567649D01*
X160901441Y-98560368D01*
X160903229Y-98553229D01*
X160905709Y-98546299D01*
X160908856Y-98539645D01*
X160912640Y-98533332D01*
X160917024Y-98527421D01*
X160921967Y-98521967D01*
X160927421Y-98517024D01*
X160933332Y-98512640D01*
X160939645Y-98508856D01*
X160946299Y-98505709D01*
X160953229Y-98503229D01*
X160960368Y-98501441D01*
X160967649Y-98500361D01*
X160975000Y-98500000D01*
X162375000Y-98500000D01*
X162382351Y-98500361D01*
X162382351Y-98500361D01*
G37*
D13*
X161675000Y-98650000D03*
D12*
G36*
X162382351Y-99000361D02*
G01*
X162389632Y-99001441D01*
X162396771Y-99003229D01*
X162403701Y-99005709D01*
X162410355Y-99008856D01*
X162416668Y-99012640D01*
X162422579Y-99017024D01*
X162428033Y-99021967D01*
X162432976Y-99027421D01*
X162437360Y-99033332D01*
X162441144Y-99039645D01*
X162444291Y-99046299D01*
X162446771Y-99053229D01*
X162448559Y-99060368D01*
X162449639Y-99067649D01*
X162450000Y-99075000D01*
X162450000Y-99225000D01*
X162449639Y-99232351D01*
X162448559Y-99239632D01*
X162446771Y-99246771D01*
X162444291Y-99253701D01*
X162441144Y-99260355D01*
X162437360Y-99266668D01*
X162432976Y-99272579D01*
X162428033Y-99278033D01*
X162422579Y-99282976D01*
X162416668Y-99287360D01*
X162410355Y-99291144D01*
X162403701Y-99294291D01*
X162396771Y-99296771D01*
X162389632Y-99298559D01*
X162382351Y-99299639D01*
X162375000Y-99300000D01*
X160975000Y-99300000D01*
X160967649Y-99299639D01*
X160960368Y-99298559D01*
X160953229Y-99296771D01*
X160946299Y-99294291D01*
X160939645Y-99291144D01*
X160933332Y-99287360D01*
X160927421Y-99282976D01*
X160921967Y-99278033D01*
X160917024Y-99272579D01*
X160912640Y-99266668D01*
X160908856Y-99260355D01*
X160905709Y-99253701D01*
X160903229Y-99246771D01*
X160901441Y-99239632D01*
X160900361Y-99232351D01*
X160900000Y-99225000D01*
X160900000Y-99075000D01*
X160900361Y-99067649D01*
X160901441Y-99060368D01*
X160903229Y-99053229D01*
X160905709Y-99046299D01*
X160908856Y-99039645D01*
X160912640Y-99033332D01*
X160917024Y-99027421D01*
X160921967Y-99021967D01*
X160927421Y-99017024D01*
X160933332Y-99012640D01*
X160939645Y-99008856D01*
X160946299Y-99005709D01*
X160953229Y-99003229D01*
X160960368Y-99001441D01*
X160967649Y-99000361D01*
X160975000Y-99000000D01*
X162375000Y-99000000D01*
X162382351Y-99000361D01*
X162382351Y-99000361D01*
G37*
D13*
X161675000Y-99150000D03*
D12*
G36*
X162382351Y-99500361D02*
G01*
X162389632Y-99501441D01*
X162396771Y-99503229D01*
X162403701Y-99505709D01*
X162410355Y-99508856D01*
X162416668Y-99512640D01*
X162422579Y-99517024D01*
X162428033Y-99521967D01*
X162432976Y-99527421D01*
X162437360Y-99533332D01*
X162441144Y-99539645D01*
X162444291Y-99546299D01*
X162446771Y-99553229D01*
X162448559Y-99560368D01*
X162449639Y-99567649D01*
X162450000Y-99575000D01*
X162450000Y-99725000D01*
X162449639Y-99732351D01*
X162448559Y-99739632D01*
X162446771Y-99746771D01*
X162444291Y-99753701D01*
X162441144Y-99760355D01*
X162437360Y-99766668D01*
X162432976Y-99772579D01*
X162428033Y-99778033D01*
X162422579Y-99782976D01*
X162416668Y-99787360D01*
X162410355Y-99791144D01*
X162403701Y-99794291D01*
X162396771Y-99796771D01*
X162389632Y-99798559D01*
X162382351Y-99799639D01*
X162375000Y-99800000D01*
X160975000Y-99800000D01*
X160967649Y-99799639D01*
X160960368Y-99798559D01*
X160953229Y-99796771D01*
X160946299Y-99794291D01*
X160939645Y-99791144D01*
X160933332Y-99787360D01*
X160927421Y-99782976D01*
X160921967Y-99778033D01*
X160917024Y-99772579D01*
X160912640Y-99766668D01*
X160908856Y-99760355D01*
X160905709Y-99753701D01*
X160903229Y-99746771D01*
X160901441Y-99739632D01*
X160900361Y-99732351D01*
X160900000Y-99725000D01*
X160900000Y-99575000D01*
X160900361Y-99567649D01*
X160901441Y-99560368D01*
X160903229Y-99553229D01*
X160905709Y-99546299D01*
X160908856Y-99539645D01*
X160912640Y-99533332D01*
X160917024Y-99527421D01*
X160921967Y-99521967D01*
X160927421Y-99517024D01*
X160933332Y-99512640D01*
X160939645Y-99508856D01*
X160946299Y-99505709D01*
X160953229Y-99503229D01*
X160960368Y-99501441D01*
X160967649Y-99500361D01*
X160975000Y-99500000D01*
X162375000Y-99500000D01*
X162382351Y-99500361D01*
X162382351Y-99500361D01*
G37*
D13*
X161675000Y-99650000D03*
D12*
G36*
X162382351Y-100000361D02*
G01*
X162389632Y-100001441D01*
X162396771Y-100003229D01*
X162403701Y-100005709D01*
X162410355Y-100008856D01*
X162416668Y-100012640D01*
X162422579Y-100017024D01*
X162428033Y-100021967D01*
X162432976Y-100027421D01*
X162437360Y-100033332D01*
X162441144Y-100039645D01*
X162444291Y-100046299D01*
X162446771Y-100053229D01*
X162448559Y-100060368D01*
X162449639Y-100067649D01*
X162450000Y-100075000D01*
X162450000Y-100225000D01*
X162449639Y-100232351D01*
X162448559Y-100239632D01*
X162446771Y-100246771D01*
X162444291Y-100253701D01*
X162441144Y-100260355D01*
X162437360Y-100266668D01*
X162432976Y-100272579D01*
X162428033Y-100278033D01*
X162422579Y-100282976D01*
X162416668Y-100287360D01*
X162410355Y-100291144D01*
X162403701Y-100294291D01*
X162396771Y-100296771D01*
X162389632Y-100298559D01*
X162382351Y-100299639D01*
X162375000Y-100300000D01*
X160975000Y-100300000D01*
X160967649Y-100299639D01*
X160960368Y-100298559D01*
X160953229Y-100296771D01*
X160946299Y-100294291D01*
X160939645Y-100291144D01*
X160933332Y-100287360D01*
X160927421Y-100282976D01*
X160921967Y-100278033D01*
X160917024Y-100272579D01*
X160912640Y-100266668D01*
X160908856Y-100260355D01*
X160905709Y-100253701D01*
X160903229Y-100246771D01*
X160901441Y-100239632D01*
X160900361Y-100232351D01*
X160900000Y-100225000D01*
X160900000Y-100075000D01*
X160900361Y-100067649D01*
X160901441Y-100060368D01*
X160903229Y-100053229D01*
X160905709Y-100046299D01*
X160908856Y-100039645D01*
X160912640Y-100033332D01*
X160917024Y-100027421D01*
X160921967Y-100021967D01*
X160927421Y-100017024D01*
X160933332Y-100012640D01*
X160939645Y-100008856D01*
X160946299Y-100005709D01*
X160953229Y-100003229D01*
X160960368Y-100001441D01*
X160967649Y-100000361D01*
X160975000Y-100000000D01*
X162375000Y-100000000D01*
X162382351Y-100000361D01*
X162382351Y-100000361D01*
G37*
D13*
X161675000Y-100150000D03*
D12*
G36*
X162382351Y-100500361D02*
G01*
X162389632Y-100501441D01*
X162396771Y-100503229D01*
X162403701Y-100505709D01*
X162410355Y-100508856D01*
X162416668Y-100512640D01*
X162422579Y-100517024D01*
X162428033Y-100521967D01*
X162432976Y-100527421D01*
X162437360Y-100533332D01*
X162441144Y-100539645D01*
X162444291Y-100546299D01*
X162446771Y-100553229D01*
X162448559Y-100560368D01*
X162449639Y-100567649D01*
X162450000Y-100575000D01*
X162450000Y-100725000D01*
X162449639Y-100732351D01*
X162448559Y-100739632D01*
X162446771Y-100746771D01*
X162444291Y-100753701D01*
X162441144Y-100760355D01*
X162437360Y-100766668D01*
X162432976Y-100772579D01*
X162428033Y-100778033D01*
X162422579Y-100782976D01*
X162416668Y-100787360D01*
X162410355Y-100791144D01*
X162403701Y-100794291D01*
X162396771Y-100796771D01*
X162389632Y-100798559D01*
X162382351Y-100799639D01*
X162375000Y-100800000D01*
X160975000Y-100800000D01*
X160967649Y-100799639D01*
X160960368Y-100798559D01*
X160953229Y-100796771D01*
X160946299Y-100794291D01*
X160939645Y-100791144D01*
X160933332Y-100787360D01*
X160927421Y-100782976D01*
X160921967Y-100778033D01*
X160917024Y-100772579D01*
X160912640Y-100766668D01*
X160908856Y-100760355D01*
X160905709Y-100753701D01*
X160903229Y-100746771D01*
X160901441Y-100739632D01*
X160900361Y-100732351D01*
X160900000Y-100725000D01*
X160900000Y-100575000D01*
X160900361Y-100567649D01*
X160901441Y-100560368D01*
X160903229Y-100553229D01*
X160905709Y-100546299D01*
X160908856Y-100539645D01*
X160912640Y-100533332D01*
X160917024Y-100527421D01*
X160921967Y-100521967D01*
X160927421Y-100517024D01*
X160933332Y-100512640D01*
X160939645Y-100508856D01*
X160946299Y-100505709D01*
X160953229Y-100503229D01*
X160960368Y-100501441D01*
X160967649Y-100500361D01*
X160975000Y-100500000D01*
X162375000Y-100500000D01*
X162382351Y-100500361D01*
X162382351Y-100500361D01*
G37*
D13*
X161675000Y-100650000D03*
D12*
G36*
X162382351Y-101000361D02*
G01*
X162389632Y-101001441D01*
X162396771Y-101003229D01*
X162403701Y-101005709D01*
X162410355Y-101008856D01*
X162416668Y-101012640D01*
X162422579Y-101017024D01*
X162428033Y-101021967D01*
X162432976Y-101027421D01*
X162437360Y-101033332D01*
X162441144Y-101039645D01*
X162444291Y-101046299D01*
X162446771Y-101053229D01*
X162448559Y-101060368D01*
X162449639Y-101067649D01*
X162450000Y-101075000D01*
X162450000Y-101225000D01*
X162449639Y-101232351D01*
X162448559Y-101239632D01*
X162446771Y-101246771D01*
X162444291Y-101253701D01*
X162441144Y-101260355D01*
X162437360Y-101266668D01*
X162432976Y-101272579D01*
X162428033Y-101278033D01*
X162422579Y-101282976D01*
X162416668Y-101287360D01*
X162410355Y-101291144D01*
X162403701Y-101294291D01*
X162396771Y-101296771D01*
X162389632Y-101298559D01*
X162382351Y-101299639D01*
X162375000Y-101300000D01*
X160975000Y-101300000D01*
X160967649Y-101299639D01*
X160960368Y-101298559D01*
X160953229Y-101296771D01*
X160946299Y-101294291D01*
X160939645Y-101291144D01*
X160933332Y-101287360D01*
X160927421Y-101282976D01*
X160921967Y-101278033D01*
X160917024Y-101272579D01*
X160912640Y-101266668D01*
X160908856Y-101260355D01*
X160905709Y-101253701D01*
X160903229Y-101246771D01*
X160901441Y-101239632D01*
X160900361Y-101232351D01*
X160900000Y-101225000D01*
X160900000Y-101075000D01*
X160900361Y-101067649D01*
X160901441Y-101060368D01*
X160903229Y-101053229D01*
X160905709Y-101046299D01*
X160908856Y-101039645D01*
X160912640Y-101033332D01*
X160917024Y-101027421D01*
X160921967Y-101021967D01*
X160927421Y-101017024D01*
X160933332Y-101012640D01*
X160939645Y-101008856D01*
X160946299Y-101005709D01*
X160953229Y-101003229D01*
X160960368Y-101001441D01*
X160967649Y-101000361D01*
X160975000Y-101000000D01*
X162375000Y-101000000D01*
X162382351Y-101000361D01*
X162382351Y-101000361D01*
G37*
D13*
X161675000Y-101150000D03*
D12*
G36*
X162382351Y-101500361D02*
G01*
X162389632Y-101501441D01*
X162396771Y-101503229D01*
X162403701Y-101505709D01*
X162410355Y-101508856D01*
X162416668Y-101512640D01*
X162422579Y-101517024D01*
X162428033Y-101521967D01*
X162432976Y-101527421D01*
X162437360Y-101533332D01*
X162441144Y-101539645D01*
X162444291Y-101546299D01*
X162446771Y-101553229D01*
X162448559Y-101560368D01*
X162449639Y-101567649D01*
X162450000Y-101575000D01*
X162450000Y-101725000D01*
X162449639Y-101732351D01*
X162448559Y-101739632D01*
X162446771Y-101746771D01*
X162444291Y-101753701D01*
X162441144Y-101760355D01*
X162437360Y-101766668D01*
X162432976Y-101772579D01*
X162428033Y-101778033D01*
X162422579Y-101782976D01*
X162416668Y-101787360D01*
X162410355Y-101791144D01*
X162403701Y-101794291D01*
X162396771Y-101796771D01*
X162389632Y-101798559D01*
X162382351Y-101799639D01*
X162375000Y-101800000D01*
X160975000Y-101800000D01*
X160967649Y-101799639D01*
X160960368Y-101798559D01*
X160953229Y-101796771D01*
X160946299Y-101794291D01*
X160939645Y-101791144D01*
X160933332Y-101787360D01*
X160927421Y-101782976D01*
X160921967Y-101778033D01*
X160917024Y-101772579D01*
X160912640Y-101766668D01*
X160908856Y-101760355D01*
X160905709Y-101753701D01*
X160903229Y-101746771D01*
X160901441Y-101739632D01*
X160900361Y-101732351D01*
X160900000Y-101725000D01*
X160900000Y-101575000D01*
X160900361Y-101567649D01*
X160901441Y-101560368D01*
X160903229Y-101553229D01*
X160905709Y-101546299D01*
X160908856Y-101539645D01*
X160912640Y-101533332D01*
X160917024Y-101527421D01*
X160921967Y-101521967D01*
X160927421Y-101517024D01*
X160933332Y-101512640D01*
X160939645Y-101508856D01*
X160946299Y-101505709D01*
X160953229Y-101503229D01*
X160960368Y-101501441D01*
X160967649Y-101500361D01*
X160975000Y-101500000D01*
X162375000Y-101500000D01*
X162382351Y-101500361D01*
X162382351Y-101500361D01*
G37*
D13*
X161675000Y-101650000D03*
D12*
G36*
X162382351Y-102000361D02*
G01*
X162389632Y-102001441D01*
X162396771Y-102003229D01*
X162403701Y-102005709D01*
X162410355Y-102008856D01*
X162416668Y-102012640D01*
X162422579Y-102017024D01*
X162428033Y-102021967D01*
X162432976Y-102027421D01*
X162437360Y-102033332D01*
X162441144Y-102039645D01*
X162444291Y-102046299D01*
X162446771Y-102053229D01*
X162448559Y-102060368D01*
X162449639Y-102067649D01*
X162450000Y-102075000D01*
X162450000Y-102225000D01*
X162449639Y-102232351D01*
X162448559Y-102239632D01*
X162446771Y-102246771D01*
X162444291Y-102253701D01*
X162441144Y-102260355D01*
X162437360Y-102266668D01*
X162432976Y-102272579D01*
X162428033Y-102278033D01*
X162422579Y-102282976D01*
X162416668Y-102287360D01*
X162410355Y-102291144D01*
X162403701Y-102294291D01*
X162396771Y-102296771D01*
X162389632Y-102298559D01*
X162382351Y-102299639D01*
X162375000Y-102300000D01*
X160975000Y-102300000D01*
X160967649Y-102299639D01*
X160960368Y-102298559D01*
X160953229Y-102296771D01*
X160946299Y-102294291D01*
X160939645Y-102291144D01*
X160933332Y-102287360D01*
X160927421Y-102282976D01*
X160921967Y-102278033D01*
X160917024Y-102272579D01*
X160912640Y-102266668D01*
X160908856Y-102260355D01*
X160905709Y-102253701D01*
X160903229Y-102246771D01*
X160901441Y-102239632D01*
X160900361Y-102232351D01*
X160900000Y-102225000D01*
X160900000Y-102075000D01*
X160900361Y-102067649D01*
X160901441Y-102060368D01*
X160903229Y-102053229D01*
X160905709Y-102046299D01*
X160908856Y-102039645D01*
X160912640Y-102033332D01*
X160917024Y-102027421D01*
X160921967Y-102021967D01*
X160927421Y-102017024D01*
X160933332Y-102012640D01*
X160939645Y-102008856D01*
X160946299Y-102005709D01*
X160953229Y-102003229D01*
X160960368Y-102001441D01*
X160967649Y-102000361D01*
X160975000Y-102000000D01*
X162375000Y-102000000D01*
X162382351Y-102000361D01*
X162382351Y-102000361D01*
G37*
D13*
X161675000Y-102150000D03*
D12*
G36*
X162382351Y-102500361D02*
G01*
X162389632Y-102501441D01*
X162396771Y-102503229D01*
X162403701Y-102505709D01*
X162410355Y-102508856D01*
X162416668Y-102512640D01*
X162422579Y-102517024D01*
X162428033Y-102521967D01*
X162432976Y-102527421D01*
X162437360Y-102533332D01*
X162441144Y-102539645D01*
X162444291Y-102546299D01*
X162446771Y-102553229D01*
X162448559Y-102560368D01*
X162449639Y-102567649D01*
X162450000Y-102575000D01*
X162450000Y-102725000D01*
X162449639Y-102732351D01*
X162448559Y-102739632D01*
X162446771Y-102746771D01*
X162444291Y-102753701D01*
X162441144Y-102760355D01*
X162437360Y-102766668D01*
X162432976Y-102772579D01*
X162428033Y-102778033D01*
X162422579Y-102782976D01*
X162416668Y-102787360D01*
X162410355Y-102791144D01*
X162403701Y-102794291D01*
X162396771Y-102796771D01*
X162389632Y-102798559D01*
X162382351Y-102799639D01*
X162375000Y-102800000D01*
X160975000Y-102800000D01*
X160967649Y-102799639D01*
X160960368Y-102798559D01*
X160953229Y-102796771D01*
X160946299Y-102794291D01*
X160939645Y-102791144D01*
X160933332Y-102787360D01*
X160927421Y-102782976D01*
X160921967Y-102778033D01*
X160917024Y-102772579D01*
X160912640Y-102766668D01*
X160908856Y-102760355D01*
X160905709Y-102753701D01*
X160903229Y-102746771D01*
X160901441Y-102739632D01*
X160900361Y-102732351D01*
X160900000Y-102725000D01*
X160900000Y-102575000D01*
X160900361Y-102567649D01*
X160901441Y-102560368D01*
X160903229Y-102553229D01*
X160905709Y-102546299D01*
X160908856Y-102539645D01*
X160912640Y-102533332D01*
X160917024Y-102527421D01*
X160921967Y-102521967D01*
X160927421Y-102517024D01*
X160933332Y-102512640D01*
X160939645Y-102508856D01*
X160946299Y-102505709D01*
X160953229Y-102503229D01*
X160960368Y-102501441D01*
X160967649Y-102500361D01*
X160975000Y-102500000D01*
X162375000Y-102500000D01*
X162382351Y-102500361D01*
X162382351Y-102500361D01*
G37*
D13*
X161675000Y-102650000D03*
D12*
G36*
X162382351Y-103000361D02*
G01*
X162389632Y-103001441D01*
X162396771Y-103003229D01*
X162403701Y-103005709D01*
X162410355Y-103008856D01*
X162416668Y-103012640D01*
X162422579Y-103017024D01*
X162428033Y-103021967D01*
X162432976Y-103027421D01*
X162437360Y-103033332D01*
X162441144Y-103039645D01*
X162444291Y-103046299D01*
X162446771Y-103053229D01*
X162448559Y-103060368D01*
X162449639Y-103067649D01*
X162450000Y-103075000D01*
X162450000Y-103225000D01*
X162449639Y-103232351D01*
X162448559Y-103239632D01*
X162446771Y-103246771D01*
X162444291Y-103253701D01*
X162441144Y-103260355D01*
X162437360Y-103266668D01*
X162432976Y-103272579D01*
X162428033Y-103278033D01*
X162422579Y-103282976D01*
X162416668Y-103287360D01*
X162410355Y-103291144D01*
X162403701Y-103294291D01*
X162396771Y-103296771D01*
X162389632Y-103298559D01*
X162382351Y-103299639D01*
X162375000Y-103300000D01*
X160975000Y-103300000D01*
X160967649Y-103299639D01*
X160960368Y-103298559D01*
X160953229Y-103296771D01*
X160946299Y-103294291D01*
X160939645Y-103291144D01*
X160933332Y-103287360D01*
X160927421Y-103282976D01*
X160921967Y-103278033D01*
X160917024Y-103272579D01*
X160912640Y-103266668D01*
X160908856Y-103260355D01*
X160905709Y-103253701D01*
X160903229Y-103246771D01*
X160901441Y-103239632D01*
X160900361Y-103232351D01*
X160900000Y-103225000D01*
X160900000Y-103075000D01*
X160900361Y-103067649D01*
X160901441Y-103060368D01*
X160903229Y-103053229D01*
X160905709Y-103046299D01*
X160908856Y-103039645D01*
X160912640Y-103033332D01*
X160917024Y-103027421D01*
X160921967Y-103021967D01*
X160927421Y-103017024D01*
X160933332Y-103012640D01*
X160939645Y-103008856D01*
X160946299Y-103005709D01*
X160953229Y-103003229D01*
X160960368Y-103001441D01*
X160967649Y-103000361D01*
X160975000Y-103000000D01*
X162375000Y-103000000D01*
X162382351Y-103000361D01*
X162382351Y-103000361D01*
G37*
D13*
X161675000Y-103150000D03*
D12*
G36*
X162382351Y-103500361D02*
G01*
X162389632Y-103501441D01*
X162396771Y-103503229D01*
X162403701Y-103505709D01*
X162410355Y-103508856D01*
X162416668Y-103512640D01*
X162422579Y-103517024D01*
X162428033Y-103521967D01*
X162432976Y-103527421D01*
X162437360Y-103533332D01*
X162441144Y-103539645D01*
X162444291Y-103546299D01*
X162446771Y-103553229D01*
X162448559Y-103560368D01*
X162449639Y-103567649D01*
X162450000Y-103575000D01*
X162450000Y-103725000D01*
X162449639Y-103732351D01*
X162448559Y-103739632D01*
X162446771Y-103746771D01*
X162444291Y-103753701D01*
X162441144Y-103760355D01*
X162437360Y-103766668D01*
X162432976Y-103772579D01*
X162428033Y-103778033D01*
X162422579Y-103782976D01*
X162416668Y-103787360D01*
X162410355Y-103791144D01*
X162403701Y-103794291D01*
X162396771Y-103796771D01*
X162389632Y-103798559D01*
X162382351Y-103799639D01*
X162375000Y-103800000D01*
X160975000Y-103800000D01*
X160967649Y-103799639D01*
X160960368Y-103798559D01*
X160953229Y-103796771D01*
X160946299Y-103794291D01*
X160939645Y-103791144D01*
X160933332Y-103787360D01*
X160927421Y-103782976D01*
X160921967Y-103778033D01*
X160917024Y-103772579D01*
X160912640Y-103766668D01*
X160908856Y-103760355D01*
X160905709Y-103753701D01*
X160903229Y-103746771D01*
X160901441Y-103739632D01*
X160900361Y-103732351D01*
X160900000Y-103725000D01*
X160900000Y-103575000D01*
X160900361Y-103567649D01*
X160901441Y-103560368D01*
X160903229Y-103553229D01*
X160905709Y-103546299D01*
X160908856Y-103539645D01*
X160912640Y-103533332D01*
X160917024Y-103527421D01*
X160921967Y-103521967D01*
X160927421Y-103517024D01*
X160933332Y-103512640D01*
X160939645Y-103508856D01*
X160946299Y-103505709D01*
X160953229Y-103503229D01*
X160960368Y-103501441D01*
X160967649Y-103500361D01*
X160975000Y-103500000D01*
X162375000Y-103500000D01*
X162382351Y-103500361D01*
X162382351Y-103500361D01*
G37*
D13*
X161675000Y-103650000D03*
D12*
G36*
X162382351Y-104000361D02*
G01*
X162389632Y-104001441D01*
X162396771Y-104003229D01*
X162403701Y-104005709D01*
X162410355Y-104008856D01*
X162416668Y-104012640D01*
X162422579Y-104017024D01*
X162428033Y-104021967D01*
X162432976Y-104027421D01*
X162437360Y-104033332D01*
X162441144Y-104039645D01*
X162444291Y-104046299D01*
X162446771Y-104053229D01*
X162448559Y-104060368D01*
X162449639Y-104067649D01*
X162450000Y-104075000D01*
X162450000Y-104225000D01*
X162449639Y-104232351D01*
X162448559Y-104239632D01*
X162446771Y-104246771D01*
X162444291Y-104253701D01*
X162441144Y-104260355D01*
X162437360Y-104266668D01*
X162432976Y-104272579D01*
X162428033Y-104278033D01*
X162422579Y-104282976D01*
X162416668Y-104287360D01*
X162410355Y-104291144D01*
X162403701Y-104294291D01*
X162396771Y-104296771D01*
X162389632Y-104298559D01*
X162382351Y-104299639D01*
X162375000Y-104300000D01*
X160975000Y-104300000D01*
X160967649Y-104299639D01*
X160960368Y-104298559D01*
X160953229Y-104296771D01*
X160946299Y-104294291D01*
X160939645Y-104291144D01*
X160933332Y-104287360D01*
X160927421Y-104282976D01*
X160921967Y-104278033D01*
X160917024Y-104272579D01*
X160912640Y-104266668D01*
X160908856Y-104260355D01*
X160905709Y-104253701D01*
X160903229Y-104246771D01*
X160901441Y-104239632D01*
X160900361Y-104232351D01*
X160900000Y-104225000D01*
X160900000Y-104075000D01*
X160900361Y-104067649D01*
X160901441Y-104060368D01*
X160903229Y-104053229D01*
X160905709Y-104046299D01*
X160908856Y-104039645D01*
X160912640Y-104033332D01*
X160917024Y-104027421D01*
X160921967Y-104021967D01*
X160927421Y-104017024D01*
X160933332Y-104012640D01*
X160939645Y-104008856D01*
X160946299Y-104005709D01*
X160953229Y-104003229D01*
X160960368Y-104001441D01*
X160967649Y-104000361D01*
X160975000Y-104000000D01*
X162375000Y-104000000D01*
X162382351Y-104000361D01*
X162382351Y-104000361D01*
G37*
D13*
X161675000Y-104150000D03*
D12*
G36*
X162382351Y-104500361D02*
G01*
X162389632Y-104501441D01*
X162396771Y-104503229D01*
X162403701Y-104505709D01*
X162410355Y-104508856D01*
X162416668Y-104512640D01*
X162422579Y-104517024D01*
X162428033Y-104521967D01*
X162432976Y-104527421D01*
X162437360Y-104533332D01*
X162441144Y-104539645D01*
X162444291Y-104546299D01*
X162446771Y-104553229D01*
X162448559Y-104560368D01*
X162449639Y-104567649D01*
X162450000Y-104575000D01*
X162450000Y-104725000D01*
X162449639Y-104732351D01*
X162448559Y-104739632D01*
X162446771Y-104746771D01*
X162444291Y-104753701D01*
X162441144Y-104760355D01*
X162437360Y-104766668D01*
X162432976Y-104772579D01*
X162428033Y-104778033D01*
X162422579Y-104782976D01*
X162416668Y-104787360D01*
X162410355Y-104791144D01*
X162403701Y-104794291D01*
X162396771Y-104796771D01*
X162389632Y-104798559D01*
X162382351Y-104799639D01*
X162375000Y-104800000D01*
X160975000Y-104800000D01*
X160967649Y-104799639D01*
X160960368Y-104798559D01*
X160953229Y-104796771D01*
X160946299Y-104794291D01*
X160939645Y-104791144D01*
X160933332Y-104787360D01*
X160927421Y-104782976D01*
X160921967Y-104778033D01*
X160917024Y-104772579D01*
X160912640Y-104766668D01*
X160908856Y-104760355D01*
X160905709Y-104753701D01*
X160903229Y-104746771D01*
X160901441Y-104739632D01*
X160900361Y-104732351D01*
X160900000Y-104725000D01*
X160900000Y-104575000D01*
X160900361Y-104567649D01*
X160901441Y-104560368D01*
X160903229Y-104553229D01*
X160905709Y-104546299D01*
X160908856Y-104539645D01*
X160912640Y-104533332D01*
X160917024Y-104527421D01*
X160921967Y-104521967D01*
X160927421Y-104517024D01*
X160933332Y-104512640D01*
X160939645Y-104508856D01*
X160946299Y-104505709D01*
X160953229Y-104503229D01*
X160960368Y-104501441D01*
X160967649Y-104500361D01*
X160975000Y-104500000D01*
X162375000Y-104500000D01*
X162382351Y-104500361D01*
X162382351Y-104500361D01*
G37*
D13*
X161675000Y-104650000D03*
D12*
G36*
X162382351Y-105000361D02*
G01*
X162389632Y-105001441D01*
X162396771Y-105003229D01*
X162403701Y-105005709D01*
X162410355Y-105008856D01*
X162416668Y-105012640D01*
X162422579Y-105017024D01*
X162428033Y-105021967D01*
X162432976Y-105027421D01*
X162437360Y-105033332D01*
X162441144Y-105039645D01*
X162444291Y-105046299D01*
X162446771Y-105053229D01*
X162448559Y-105060368D01*
X162449639Y-105067649D01*
X162450000Y-105075000D01*
X162450000Y-105225000D01*
X162449639Y-105232351D01*
X162448559Y-105239632D01*
X162446771Y-105246771D01*
X162444291Y-105253701D01*
X162441144Y-105260355D01*
X162437360Y-105266668D01*
X162432976Y-105272579D01*
X162428033Y-105278033D01*
X162422579Y-105282976D01*
X162416668Y-105287360D01*
X162410355Y-105291144D01*
X162403701Y-105294291D01*
X162396771Y-105296771D01*
X162389632Y-105298559D01*
X162382351Y-105299639D01*
X162375000Y-105300000D01*
X160975000Y-105300000D01*
X160967649Y-105299639D01*
X160960368Y-105298559D01*
X160953229Y-105296771D01*
X160946299Y-105294291D01*
X160939645Y-105291144D01*
X160933332Y-105287360D01*
X160927421Y-105282976D01*
X160921967Y-105278033D01*
X160917024Y-105272579D01*
X160912640Y-105266668D01*
X160908856Y-105260355D01*
X160905709Y-105253701D01*
X160903229Y-105246771D01*
X160901441Y-105239632D01*
X160900361Y-105232351D01*
X160900000Y-105225000D01*
X160900000Y-105075000D01*
X160900361Y-105067649D01*
X160901441Y-105060368D01*
X160903229Y-105053229D01*
X160905709Y-105046299D01*
X160908856Y-105039645D01*
X160912640Y-105033332D01*
X160917024Y-105027421D01*
X160921967Y-105021967D01*
X160927421Y-105017024D01*
X160933332Y-105012640D01*
X160939645Y-105008856D01*
X160946299Y-105005709D01*
X160953229Y-105003229D01*
X160960368Y-105001441D01*
X160967649Y-105000361D01*
X160975000Y-105000000D01*
X162375000Y-105000000D01*
X162382351Y-105000361D01*
X162382351Y-105000361D01*
G37*
D13*
X161675000Y-105150000D03*
D12*
G36*
X162382351Y-105500361D02*
G01*
X162389632Y-105501441D01*
X162396771Y-105503229D01*
X162403701Y-105505709D01*
X162410355Y-105508856D01*
X162416668Y-105512640D01*
X162422579Y-105517024D01*
X162428033Y-105521967D01*
X162432976Y-105527421D01*
X162437360Y-105533332D01*
X162441144Y-105539645D01*
X162444291Y-105546299D01*
X162446771Y-105553229D01*
X162448559Y-105560368D01*
X162449639Y-105567649D01*
X162450000Y-105575000D01*
X162450000Y-105725000D01*
X162449639Y-105732351D01*
X162448559Y-105739632D01*
X162446771Y-105746771D01*
X162444291Y-105753701D01*
X162441144Y-105760355D01*
X162437360Y-105766668D01*
X162432976Y-105772579D01*
X162428033Y-105778033D01*
X162422579Y-105782976D01*
X162416668Y-105787360D01*
X162410355Y-105791144D01*
X162403701Y-105794291D01*
X162396771Y-105796771D01*
X162389632Y-105798559D01*
X162382351Y-105799639D01*
X162375000Y-105800000D01*
X160975000Y-105800000D01*
X160967649Y-105799639D01*
X160960368Y-105798559D01*
X160953229Y-105796771D01*
X160946299Y-105794291D01*
X160939645Y-105791144D01*
X160933332Y-105787360D01*
X160927421Y-105782976D01*
X160921967Y-105778033D01*
X160917024Y-105772579D01*
X160912640Y-105766668D01*
X160908856Y-105760355D01*
X160905709Y-105753701D01*
X160903229Y-105746771D01*
X160901441Y-105739632D01*
X160900361Y-105732351D01*
X160900000Y-105725000D01*
X160900000Y-105575000D01*
X160900361Y-105567649D01*
X160901441Y-105560368D01*
X160903229Y-105553229D01*
X160905709Y-105546299D01*
X160908856Y-105539645D01*
X160912640Y-105533332D01*
X160917024Y-105527421D01*
X160921967Y-105521967D01*
X160927421Y-105517024D01*
X160933332Y-105512640D01*
X160939645Y-105508856D01*
X160946299Y-105505709D01*
X160953229Y-105503229D01*
X160960368Y-105501441D01*
X160967649Y-105500361D01*
X160975000Y-105500000D01*
X162375000Y-105500000D01*
X162382351Y-105500361D01*
X162382351Y-105500361D01*
G37*
D13*
X161675000Y-105650000D03*
D12*
G36*
X162382351Y-106000361D02*
G01*
X162389632Y-106001441D01*
X162396771Y-106003229D01*
X162403701Y-106005709D01*
X162410355Y-106008856D01*
X162416668Y-106012640D01*
X162422579Y-106017024D01*
X162428033Y-106021967D01*
X162432976Y-106027421D01*
X162437360Y-106033332D01*
X162441144Y-106039645D01*
X162444291Y-106046299D01*
X162446771Y-106053229D01*
X162448559Y-106060368D01*
X162449639Y-106067649D01*
X162450000Y-106075000D01*
X162450000Y-106225000D01*
X162449639Y-106232351D01*
X162448559Y-106239632D01*
X162446771Y-106246771D01*
X162444291Y-106253701D01*
X162441144Y-106260355D01*
X162437360Y-106266668D01*
X162432976Y-106272579D01*
X162428033Y-106278033D01*
X162422579Y-106282976D01*
X162416668Y-106287360D01*
X162410355Y-106291144D01*
X162403701Y-106294291D01*
X162396771Y-106296771D01*
X162389632Y-106298559D01*
X162382351Y-106299639D01*
X162375000Y-106300000D01*
X160975000Y-106300000D01*
X160967649Y-106299639D01*
X160960368Y-106298559D01*
X160953229Y-106296771D01*
X160946299Y-106294291D01*
X160939645Y-106291144D01*
X160933332Y-106287360D01*
X160927421Y-106282976D01*
X160921967Y-106278033D01*
X160917024Y-106272579D01*
X160912640Y-106266668D01*
X160908856Y-106260355D01*
X160905709Y-106253701D01*
X160903229Y-106246771D01*
X160901441Y-106239632D01*
X160900361Y-106232351D01*
X160900000Y-106225000D01*
X160900000Y-106075000D01*
X160900361Y-106067649D01*
X160901441Y-106060368D01*
X160903229Y-106053229D01*
X160905709Y-106046299D01*
X160908856Y-106039645D01*
X160912640Y-106033332D01*
X160917024Y-106027421D01*
X160921967Y-106021967D01*
X160927421Y-106017024D01*
X160933332Y-106012640D01*
X160939645Y-106008856D01*
X160946299Y-106005709D01*
X160953229Y-106003229D01*
X160960368Y-106001441D01*
X160967649Y-106000361D01*
X160975000Y-106000000D01*
X162375000Y-106000000D01*
X162382351Y-106000361D01*
X162382351Y-106000361D01*
G37*
D13*
X161675000Y-106150000D03*
D12*
G36*
X159832351Y-107300361D02*
G01*
X159839632Y-107301441D01*
X159846771Y-107303229D01*
X159853701Y-107305709D01*
X159860355Y-107308856D01*
X159866668Y-107312640D01*
X159872579Y-107317024D01*
X159878033Y-107321967D01*
X159882976Y-107327421D01*
X159887360Y-107333332D01*
X159891144Y-107339645D01*
X159894291Y-107346299D01*
X159896771Y-107353229D01*
X159898559Y-107360368D01*
X159899639Y-107367649D01*
X159900000Y-107375000D01*
X159900000Y-108775000D01*
X159899639Y-108782351D01*
X159898559Y-108789632D01*
X159896771Y-108796771D01*
X159894291Y-108803701D01*
X159891144Y-108810355D01*
X159887360Y-108816668D01*
X159882976Y-108822579D01*
X159878033Y-108828033D01*
X159872579Y-108832976D01*
X159866668Y-108837360D01*
X159860355Y-108841144D01*
X159853701Y-108844291D01*
X159846771Y-108846771D01*
X159839632Y-108848559D01*
X159832351Y-108849639D01*
X159825000Y-108850000D01*
X159675000Y-108850000D01*
X159667649Y-108849639D01*
X159660368Y-108848559D01*
X159653229Y-108846771D01*
X159646299Y-108844291D01*
X159639645Y-108841144D01*
X159633332Y-108837360D01*
X159627421Y-108832976D01*
X159621967Y-108828033D01*
X159617024Y-108822579D01*
X159612640Y-108816668D01*
X159608856Y-108810355D01*
X159605709Y-108803701D01*
X159603229Y-108796771D01*
X159601441Y-108789632D01*
X159600361Y-108782351D01*
X159600000Y-108775000D01*
X159600000Y-107375000D01*
X159600361Y-107367649D01*
X159601441Y-107360368D01*
X159603229Y-107353229D01*
X159605709Y-107346299D01*
X159608856Y-107339645D01*
X159612640Y-107333332D01*
X159617024Y-107327421D01*
X159621967Y-107321967D01*
X159627421Y-107317024D01*
X159633332Y-107312640D01*
X159639645Y-107308856D01*
X159646299Y-107305709D01*
X159653229Y-107303229D01*
X159660368Y-107301441D01*
X159667649Y-107300361D01*
X159675000Y-107300000D01*
X159825000Y-107300000D01*
X159832351Y-107300361D01*
X159832351Y-107300361D01*
G37*
D13*
X159750000Y-108075000D03*
D12*
G36*
X159332351Y-107300361D02*
G01*
X159339632Y-107301441D01*
X159346771Y-107303229D01*
X159353701Y-107305709D01*
X159360355Y-107308856D01*
X159366668Y-107312640D01*
X159372579Y-107317024D01*
X159378033Y-107321967D01*
X159382976Y-107327421D01*
X159387360Y-107333332D01*
X159391144Y-107339645D01*
X159394291Y-107346299D01*
X159396771Y-107353229D01*
X159398559Y-107360368D01*
X159399639Y-107367649D01*
X159400000Y-107375000D01*
X159400000Y-108775000D01*
X159399639Y-108782351D01*
X159398559Y-108789632D01*
X159396771Y-108796771D01*
X159394291Y-108803701D01*
X159391144Y-108810355D01*
X159387360Y-108816668D01*
X159382976Y-108822579D01*
X159378033Y-108828033D01*
X159372579Y-108832976D01*
X159366668Y-108837360D01*
X159360355Y-108841144D01*
X159353701Y-108844291D01*
X159346771Y-108846771D01*
X159339632Y-108848559D01*
X159332351Y-108849639D01*
X159325000Y-108850000D01*
X159175000Y-108850000D01*
X159167649Y-108849639D01*
X159160368Y-108848559D01*
X159153229Y-108846771D01*
X159146299Y-108844291D01*
X159139645Y-108841144D01*
X159133332Y-108837360D01*
X159127421Y-108832976D01*
X159121967Y-108828033D01*
X159117024Y-108822579D01*
X159112640Y-108816668D01*
X159108856Y-108810355D01*
X159105709Y-108803701D01*
X159103229Y-108796771D01*
X159101441Y-108789632D01*
X159100361Y-108782351D01*
X159100000Y-108775000D01*
X159100000Y-107375000D01*
X159100361Y-107367649D01*
X159101441Y-107360368D01*
X159103229Y-107353229D01*
X159105709Y-107346299D01*
X159108856Y-107339645D01*
X159112640Y-107333332D01*
X159117024Y-107327421D01*
X159121967Y-107321967D01*
X159127421Y-107317024D01*
X159133332Y-107312640D01*
X159139645Y-107308856D01*
X159146299Y-107305709D01*
X159153229Y-107303229D01*
X159160368Y-107301441D01*
X159167649Y-107300361D01*
X159175000Y-107300000D01*
X159325000Y-107300000D01*
X159332351Y-107300361D01*
X159332351Y-107300361D01*
G37*
D13*
X159250000Y-108075000D03*
D12*
G36*
X158832351Y-107300361D02*
G01*
X158839632Y-107301441D01*
X158846771Y-107303229D01*
X158853701Y-107305709D01*
X158860355Y-107308856D01*
X158866668Y-107312640D01*
X158872579Y-107317024D01*
X158878033Y-107321967D01*
X158882976Y-107327421D01*
X158887360Y-107333332D01*
X158891144Y-107339645D01*
X158894291Y-107346299D01*
X158896771Y-107353229D01*
X158898559Y-107360368D01*
X158899639Y-107367649D01*
X158900000Y-107375000D01*
X158900000Y-108775000D01*
X158899639Y-108782351D01*
X158898559Y-108789632D01*
X158896771Y-108796771D01*
X158894291Y-108803701D01*
X158891144Y-108810355D01*
X158887360Y-108816668D01*
X158882976Y-108822579D01*
X158878033Y-108828033D01*
X158872579Y-108832976D01*
X158866668Y-108837360D01*
X158860355Y-108841144D01*
X158853701Y-108844291D01*
X158846771Y-108846771D01*
X158839632Y-108848559D01*
X158832351Y-108849639D01*
X158825000Y-108850000D01*
X158675000Y-108850000D01*
X158667649Y-108849639D01*
X158660368Y-108848559D01*
X158653229Y-108846771D01*
X158646299Y-108844291D01*
X158639645Y-108841144D01*
X158633332Y-108837360D01*
X158627421Y-108832976D01*
X158621967Y-108828033D01*
X158617024Y-108822579D01*
X158612640Y-108816668D01*
X158608856Y-108810355D01*
X158605709Y-108803701D01*
X158603229Y-108796771D01*
X158601441Y-108789632D01*
X158600361Y-108782351D01*
X158600000Y-108775000D01*
X158600000Y-107375000D01*
X158600361Y-107367649D01*
X158601441Y-107360368D01*
X158603229Y-107353229D01*
X158605709Y-107346299D01*
X158608856Y-107339645D01*
X158612640Y-107333332D01*
X158617024Y-107327421D01*
X158621967Y-107321967D01*
X158627421Y-107317024D01*
X158633332Y-107312640D01*
X158639645Y-107308856D01*
X158646299Y-107305709D01*
X158653229Y-107303229D01*
X158660368Y-107301441D01*
X158667649Y-107300361D01*
X158675000Y-107300000D01*
X158825000Y-107300000D01*
X158832351Y-107300361D01*
X158832351Y-107300361D01*
G37*
D13*
X158750000Y-108075000D03*
D12*
G36*
X158332351Y-107300361D02*
G01*
X158339632Y-107301441D01*
X158346771Y-107303229D01*
X158353701Y-107305709D01*
X158360355Y-107308856D01*
X158366668Y-107312640D01*
X158372579Y-107317024D01*
X158378033Y-107321967D01*
X158382976Y-107327421D01*
X158387360Y-107333332D01*
X158391144Y-107339645D01*
X158394291Y-107346299D01*
X158396771Y-107353229D01*
X158398559Y-107360368D01*
X158399639Y-107367649D01*
X158400000Y-107375000D01*
X158400000Y-108775000D01*
X158399639Y-108782351D01*
X158398559Y-108789632D01*
X158396771Y-108796771D01*
X158394291Y-108803701D01*
X158391144Y-108810355D01*
X158387360Y-108816668D01*
X158382976Y-108822579D01*
X158378033Y-108828033D01*
X158372579Y-108832976D01*
X158366668Y-108837360D01*
X158360355Y-108841144D01*
X158353701Y-108844291D01*
X158346771Y-108846771D01*
X158339632Y-108848559D01*
X158332351Y-108849639D01*
X158325000Y-108850000D01*
X158175000Y-108850000D01*
X158167649Y-108849639D01*
X158160368Y-108848559D01*
X158153229Y-108846771D01*
X158146299Y-108844291D01*
X158139645Y-108841144D01*
X158133332Y-108837360D01*
X158127421Y-108832976D01*
X158121967Y-108828033D01*
X158117024Y-108822579D01*
X158112640Y-108816668D01*
X158108856Y-108810355D01*
X158105709Y-108803701D01*
X158103229Y-108796771D01*
X158101441Y-108789632D01*
X158100361Y-108782351D01*
X158100000Y-108775000D01*
X158100000Y-107375000D01*
X158100361Y-107367649D01*
X158101441Y-107360368D01*
X158103229Y-107353229D01*
X158105709Y-107346299D01*
X158108856Y-107339645D01*
X158112640Y-107333332D01*
X158117024Y-107327421D01*
X158121967Y-107321967D01*
X158127421Y-107317024D01*
X158133332Y-107312640D01*
X158139645Y-107308856D01*
X158146299Y-107305709D01*
X158153229Y-107303229D01*
X158160368Y-107301441D01*
X158167649Y-107300361D01*
X158175000Y-107300000D01*
X158325000Y-107300000D01*
X158332351Y-107300361D01*
X158332351Y-107300361D01*
G37*
D13*
X158250000Y-108075000D03*
D12*
G36*
X157832351Y-107300361D02*
G01*
X157839632Y-107301441D01*
X157846771Y-107303229D01*
X157853701Y-107305709D01*
X157860355Y-107308856D01*
X157866668Y-107312640D01*
X157872579Y-107317024D01*
X157878033Y-107321967D01*
X157882976Y-107327421D01*
X157887360Y-107333332D01*
X157891144Y-107339645D01*
X157894291Y-107346299D01*
X157896771Y-107353229D01*
X157898559Y-107360368D01*
X157899639Y-107367649D01*
X157900000Y-107375000D01*
X157900000Y-108775000D01*
X157899639Y-108782351D01*
X157898559Y-108789632D01*
X157896771Y-108796771D01*
X157894291Y-108803701D01*
X157891144Y-108810355D01*
X157887360Y-108816668D01*
X157882976Y-108822579D01*
X157878033Y-108828033D01*
X157872579Y-108832976D01*
X157866668Y-108837360D01*
X157860355Y-108841144D01*
X157853701Y-108844291D01*
X157846771Y-108846771D01*
X157839632Y-108848559D01*
X157832351Y-108849639D01*
X157825000Y-108850000D01*
X157675000Y-108850000D01*
X157667649Y-108849639D01*
X157660368Y-108848559D01*
X157653229Y-108846771D01*
X157646299Y-108844291D01*
X157639645Y-108841144D01*
X157633332Y-108837360D01*
X157627421Y-108832976D01*
X157621967Y-108828033D01*
X157617024Y-108822579D01*
X157612640Y-108816668D01*
X157608856Y-108810355D01*
X157605709Y-108803701D01*
X157603229Y-108796771D01*
X157601441Y-108789632D01*
X157600361Y-108782351D01*
X157600000Y-108775000D01*
X157600000Y-107375000D01*
X157600361Y-107367649D01*
X157601441Y-107360368D01*
X157603229Y-107353229D01*
X157605709Y-107346299D01*
X157608856Y-107339645D01*
X157612640Y-107333332D01*
X157617024Y-107327421D01*
X157621967Y-107321967D01*
X157627421Y-107317024D01*
X157633332Y-107312640D01*
X157639645Y-107308856D01*
X157646299Y-107305709D01*
X157653229Y-107303229D01*
X157660368Y-107301441D01*
X157667649Y-107300361D01*
X157675000Y-107300000D01*
X157825000Y-107300000D01*
X157832351Y-107300361D01*
X157832351Y-107300361D01*
G37*
D13*
X157750000Y-108075000D03*
D12*
G36*
X157332351Y-107300361D02*
G01*
X157339632Y-107301441D01*
X157346771Y-107303229D01*
X157353701Y-107305709D01*
X157360355Y-107308856D01*
X157366668Y-107312640D01*
X157372579Y-107317024D01*
X157378033Y-107321967D01*
X157382976Y-107327421D01*
X157387360Y-107333332D01*
X157391144Y-107339645D01*
X157394291Y-107346299D01*
X157396771Y-107353229D01*
X157398559Y-107360368D01*
X157399639Y-107367649D01*
X157400000Y-107375000D01*
X157400000Y-108775000D01*
X157399639Y-108782351D01*
X157398559Y-108789632D01*
X157396771Y-108796771D01*
X157394291Y-108803701D01*
X157391144Y-108810355D01*
X157387360Y-108816668D01*
X157382976Y-108822579D01*
X157378033Y-108828033D01*
X157372579Y-108832976D01*
X157366668Y-108837360D01*
X157360355Y-108841144D01*
X157353701Y-108844291D01*
X157346771Y-108846771D01*
X157339632Y-108848559D01*
X157332351Y-108849639D01*
X157325000Y-108850000D01*
X157175000Y-108850000D01*
X157167649Y-108849639D01*
X157160368Y-108848559D01*
X157153229Y-108846771D01*
X157146299Y-108844291D01*
X157139645Y-108841144D01*
X157133332Y-108837360D01*
X157127421Y-108832976D01*
X157121967Y-108828033D01*
X157117024Y-108822579D01*
X157112640Y-108816668D01*
X157108856Y-108810355D01*
X157105709Y-108803701D01*
X157103229Y-108796771D01*
X157101441Y-108789632D01*
X157100361Y-108782351D01*
X157100000Y-108775000D01*
X157100000Y-107375000D01*
X157100361Y-107367649D01*
X157101441Y-107360368D01*
X157103229Y-107353229D01*
X157105709Y-107346299D01*
X157108856Y-107339645D01*
X157112640Y-107333332D01*
X157117024Y-107327421D01*
X157121967Y-107321967D01*
X157127421Y-107317024D01*
X157133332Y-107312640D01*
X157139645Y-107308856D01*
X157146299Y-107305709D01*
X157153229Y-107303229D01*
X157160368Y-107301441D01*
X157167649Y-107300361D01*
X157175000Y-107300000D01*
X157325000Y-107300000D01*
X157332351Y-107300361D01*
X157332351Y-107300361D01*
G37*
D13*
X157250000Y-108075000D03*
D12*
G36*
X156832351Y-107300361D02*
G01*
X156839632Y-107301441D01*
X156846771Y-107303229D01*
X156853701Y-107305709D01*
X156860355Y-107308856D01*
X156866668Y-107312640D01*
X156872579Y-107317024D01*
X156878033Y-107321967D01*
X156882976Y-107327421D01*
X156887360Y-107333332D01*
X156891144Y-107339645D01*
X156894291Y-107346299D01*
X156896771Y-107353229D01*
X156898559Y-107360368D01*
X156899639Y-107367649D01*
X156900000Y-107375000D01*
X156900000Y-108775000D01*
X156899639Y-108782351D01*
X156898559Y-108789632D01*
X156896771Y-108796771D01*
X156894291Y-108803701D01*
X156891144Y-108810355D01*
X156887360Y-108816668D01*
X156882976Y-108822579D01*
X156878033Y-108828033D01*
X156872579Y-108832976D01*
X156866668Y-108837360D01*
X156860355Y-108841144D01*
X156853701Y-108844291D01*
X156846771Y-108846771D01*
X156839632Y-108848559D01*
X156832351Y-108849639D01*
X156825000Y-108850000D01*
X156675000Y-108850000D01*
X156667649Y-108849639D01*
X156660368Y-108848559D01*
X156653229Y-108846771D01*
X156646299Y-108844291D01*
X156639645Y-108841144D01*
X156633332Y-108837360D01*
X156627421Y-108832976D01*
X156621967Y-108828033D01*
X156617024Y-108822579D01*
X156612640Y-108816668D01*
X156608856Y-108810355D01*
X156605709Y-108803701D01*
X156603229Y-108796771D01*
X156601441Y-108789632D01*
X156600361Y-108782351D01*
X156600000Y-108775000D01*
X156600000Y-107375000D01*
X156600361Y-107367649D01*
X156601441Y-107360368D01*
X156603229Y-107353229D01*
X156605709Y-107346299D01*
X156608856Y-107339645D01*
X156612640Y-107333332D01*
X156617024Y-107327421D01*
X156621967Y-107321967D01*
X156627421Y-107317024D01*
X156633332Y-107312640D01*
X156639645Y-107308856D01*
X156646299Y-107305709D01*
X156653229Y-107303229D01*
X156660368Y-107301441D01*
X156667649Y-107300361D01*
X156675000Y-107300000D01*
X156825000Y-107300000D01*
X156832351Y-107300361D01*
X156832351Y-107300361D01*
G37*
D13*
X156750000Y-108075000D03*
D12*
G36*
X156332351Y-107300361D02*
G01*
X156339632Y-107301441D01*
X156346771Y-107303229D01*
X156353701Y-107305709D01*
X156360355Y-107308856D01*
X156366668Y-107312640D01*
X156372579Y-107317024D01*
X156378033Y-107321967D01*
X156382976Y-107327421D01*
X156387360Y-107333332D01*
X156391144Y-107339645D01*
X156394291Y-107346299D01*
X156396771Y-107353229D01*
X156398559Y-107360368D01*
X156399639Y-107367649D01*
X156400000Y-107375000D01*
X156400000Y-108775000D01*
X156399639Y-108782351D01*
X156398559Y-108789632D01*
X156396771Y-108796771D01*
X156394291Y-108803701D01*
X156391144Y-108810355D01*
X156387360Y-108816668D01*
X156382976Y-108822579D01*
X156378033Y-108828033D01*
X156372579Y-108832976D01*
X156366668Y-108837360D01*
X156360355Y-108841144D01*
X156353701Y-108844291D01*
X156346771Y-108846771D01*
X156339632Y-108848559D01*
X156332351Y-108849639D01*
X156325000Y-108850000D01*
X156175000Y-108850000D01*
X156167649Y-108849639D01*
X156160368Y-108848559D01*
X156153229Y-108846771D01*
X156146299Y-108844291D01*
X156139645Y-108841144D01*
X156133332Y-108837360D01*
X156127421Y-108832976D01*
X156121967Y-108828033D01*
X156117024Y-108822579D01*
X156112640Y-108816668D01*
X156108856Y-108810355D01*
X156105709Y-108803701D01*
X156103229Y-108796771D01*
X156101441Y-108789632D01*
X156100361Y-108782351D01*
X156100000Y-108775000D01*
X156100000Y-107375000D01*
X156100361Y-107367649D01*
X156101441Y-107360368D01*
X156103229Y-107353229D01*
X156105709Y-107346299D01*
X156108856Y-107339645D01*
X156112640Y-107333332D01*
X156117024Y-107327421D01*
X156121967Y-107321967D01*
X156127421Y-107317024D01*
X156133332Y-107312640D01*
X156139645Y-107308856D01*
X156146299Y-107305709D01*
X156153229Y-107303229D01*
X156160368Y-107301441D01*
X156167649Y-107300361D01*
X156175000Y-107300000D01*
X156325000Y-107300000D01*
X156332351Y-107300361D01*
X156332351Y-107300361D01*
G37*
D13*
X156250000Y-108075000D03*
D12*
G36*
X155832351Y-107300361D02*
G01*
X155839632Y-107301441D01*
X155846771Y-107303229D01*
X155853701Y-107305709D01*
X155860355Y-107308856D01*
X155866668Y-107312640D01*
X155872579Y-107317024D01*
X155878033Y-107321967D01*
X155882976Y-107327421D01*
X155887360Y-107333332D01*
X155891144Y-107339645D01*
X155894291Y-107346299D01*
X155896771Y-107353229D01*
X155898559Y-107360368D01*
X155899639Y-107367649D01*
X155900000Y-107375000D01*
X155900000Y-108775000D01*
X155899639Y-108782351D01*
X155898559Y-108789632D01*
X155896771Y-108796771D01*
X155894291Y-108803701D01*
X155891144Y-108810355D01*
X155887360Y-108816668D01*
X155882976Y-108822579D01*
X155878033Y-108828033D01*
X155872579Y-108832976D01*
X155866668Y-108837360D01*
X155860355Y-108841144D01*
X155853701Y-108844291D01*
X155846771Y-108846771D01*
X155839632Y-108848559D01*
X155832351Y-108849639D01*
X155825000Y-108850000D01*
X155675000Y-108850000D01*
X155667649Y-108849639D01*
X155660368Y-108848559D01*
X155653229Y-108846771D01*
X155646299Y-108844291D01*
X155639645Y-108841144D01*
X155633332Y-108837360D01*
X155627421Y-108832976D01*
X155621967Y-108828033D01*
X155617024Y-108822579D01*
X155612640Y-108816668D01*
X155608856Y-108810355D01*
X155605709Y-108803701D01*
X155603229Y-108796771D01*
X155601441Y-108789632D01*
X155600361Y-108782351D01*
X155600000Y-108775000D01*
X155600000Y-107375000D01*
X155600361Y-107367649D01*
X155601441Y-107360368D01*
X155603229Y-107353229D01*
X155605709Y-107346299D01*
X155608856Y-107339645D01*
X155612640Y-107333332D01*
X155617024Y-107327421D01*
X155621967Y-107321967D01*
X155627421Y-107317024D01*
X155633332Y-107312640D01*
X155639645Y-107308856D01*
X155646299Y-107305709D01*
X155653229Y-107303229D01*
X155660368Y-107301441D01*
X155667649Y-107300361D01*
X155675000Y-107300000D01*
X155825000Y-107300000D01*
X155832351Y-107300361D01*
X155832351Y-107300361D01*
G37*
D13*
X155750000Y-108075000D03*
D12*
G36*
X155332351Y-107300361D02*
G01*
X155339632Y-107301441D01*
X155346771Y-107303229D01*
X155353701Y-107305709D01*
X155360355Y-107308856D01*
X155366668Y-107312640D01*
X155372579Y-107317024D01*
X155378033Y-107321967D01*
X155382976Y-107327421D01*
X155387360Y-107333332D01*
X155391144Y-107339645D01*
X155394291Y-107346299D01*
X155396771Y-107353229D01*
X155398559Y-107360368D01*
X155399639Y-107367649D01*
X155400000Y-107375000D01*
X155400000Y-108775000D01*
X155399639Y-108782351D01*
X155398559Y-108789632D01*
X155396771Y-108796771D01*
X155394291Y-108803701D01*
X155391144Y-108810355D01*
X155387360Y-108816668D01*
X155382976Y-108822579D01*
X155378033Y-108828033D01*
X155372579Y-108832976D01*
X155366668Y-108837360D01*
X155360355Y-108841144D01*
X155353701Y-108844291D01*
X155346771Y-108846771D01*
X155339632Y-108848559D01*
X155332351Y-108849639D01*
X155325000Y-108850000D01*
X155175000Y-108850000D01*
X155167649Y-108849639D01*
X155160368Y-108848559D01*
X155153229Y-108846771D01*
X155146299Y-108844291D01*
X155139645Y-108841144D01*
X155133332Y-108837360D01*
X155127421Y-108832976D01*
X155121967Y-108828033D01*
X155117024Y-108822579D01*
X155112640Y-108816668D01*
X155108856Y-108810355D01*
X155105709Y-108803701D01*
X155103229Y-108796771D01*
X155101441Y-108789632D01*
X155100361Y-108782351D01*
X155100000Y-108775000D01*
X155100000Y-107375000D01*
X155100361Y-107367649D01*
X155101441Y-107360368D01*
X155103229Y-107353229D01*
X155105709Y-107346299D01*
X155108856Y-107339645D01*
X155112640Y-107333332D01*
X155117024Y-107327421D01*
X155121967Y-107321967D01*
X155127421Y-107317024D01*
X155133332Y-107312640D01*
X155139645Y-107308856D01*
X155146299Y-107305709D01*
X155153229Y-107303229D01*
X155160368Y-107301441D01*
X155167649Y-107300361D01*
X155175000Y-107300000D01*
X155325000Y-107300000D01*
X155332351Y-107300361D01*
X155332351Y-107300361D01*
G37*
D13*
X155250000Y-108075000D03*
D12*
G36*
X154832351Y-107300361D02*
G01*
X154839632Y-107301441D01*
X154846771Y-107303229D01*
X154853701Y-107305709D01*
X154860355Y-107308856D01*
X154866668Y-107312640D01*
X154872579Y-107317024D01*
X154878033Y-107321967D01*
X154882976Y-107327421D01*
X154887360Y-107333332D01*
X154891144Y-107339645D01*
X154894291Y-107346299D01*
X154896771Y-107353229D01*
X154898559Y-107360368D01*
X154899639Y-107367649D01*
X154900000Y-107375000D01*
X154900000Y-108775000D01*
X154899639Y-108782351D01*
X154898559Y-108789632D01*
X154896771Y-108796771D01*
X154894291Y-108803701D01*
X154891144Y-108810355D01*
X154887360Y-108816668D01*
X154882976Y-108822579D01*
X154878033Y-108828033D01*
X154872579Y-108832976D01*
X154866668Y-108837360D01*
X154860355Y-108841144D01*
X154853701Y-108844291D01*
X154846771Y-108846771D01*
X154839632Y-108848559D01*
X154832351Y-108849639D01*
X154825000Y-108850000D01*
X154675000Y-108850000D01*
X154667649Y-108849639D01*
X154660368Y-108848559D01*
X154653229Y-108846771D01*
X154646299Y-108844291D01*
X154639645Y-108841144D01*
X154633332Y-108837360D01*
X154627421Y-108832976D01*
X154621967Y-108828033D01*
X154617024Y-108822579D01*
X154612640Y-108816668D01*
X154608856Y-108810355D01*
X154605709Y-108803701D01*
X154603229Y-108796771D01*
X154601441Y-108789632D01*
X154600361Y-108782351D01*
X154600000Y-108775000D01*
X154600000Y-107375000D01*
X154600361Y-107367649D01*
X154601441Y-107360368D01*
X154603229Y-107353229D01*
X154605709Y-107346299D01*
X154608856Y-107339645D01*
X154612640Y-107333332D01*
X154617024Y-107327421D01*
X154621967Y-107321967D01*
X154627421Y-107317024D01*
X154633332Y-107312640D01*
X154639645Y-107308856D01*
X154646299Y-107305709D01*
X154653229Y-107303229D01*
X154660368Y-107301441D01*
X154667649Y-107300361D01*
X154675000Y-107300000D01*
X154825000Y-107300000D01*
X154832351Y-107300361D01*
X154832351Y-107300361D01*
G37*
D13*
X154750000Y-108075000D03*
D12*
G36*
X154332351Y-107300361D02*
G01*
X154339632Y-107301441D01*
X154346771Y-107303229D01*
X154353701Y-107305709D01*
X154360355Y-107308856D01*
X154366668Y-107312640D01*
X154372579Y-107317024D01*
X154378033Y-107321967D01*
X154382976Y-107327421D01*
X154387360Y-107333332D01*
X154391144Y-107339645D01*
X154394291Y-107346299D01*
X154396771Y-107353229D01*
X154398559Y-107360368D01*
X154399639Y-107367649D01*
X154400000Y-107375000D01*
X154400000Y-108775000D01*
X154399639Y-108782351D01*
X154398559Y-108789632D01*
X154396771Y-108796771D01*
X154394291Y-108803701D01*
X154391144Y-108810355D01*
X154387360Y-108816668D01*
X154382976Y-108822579D01*
X154378033Y-108828033D01*
X154372579Y-108832976D01*
X154366668Y-108837360D01*
X154360355Y-108841144D01*
X154353701Y-108844291D01*
X154346771Y-108846771D01*
X154339632Y-108848559D01*
X154332351Y-108849639D01*
X154325000Y-108850000D01*
X154175000Y-108850000D01*
X154167649Y-108849639D01*
X154160368Y-108848559D01*
X154153229Y-108846771D01*
X154146299Y-108844291D01*
X154139645Y-108841144D01*
X154133332Y-108837360D01*
X154127421Y-108832976D01*
X154121967Y-108828033D01*
X154117024Y-108822579D01*
X154112640Y-108816668D01*
X154108856Y-108810355D01*
X154105709Y-108803701D01*
X154103229Y-108796771D01*
X154101441Y-108789632D01*
X154100361Y-108782351D01*
X154100000Y-108775000D01*
X154100000Y-107375000D01*
X154100361Y-107367649D01*
X154101441Y-107360368D01*
X154103229Y-107353229D01*
X154105709Y-107346299D01*
X154108856Y-107339645D01*
X154112640Y-107333332D01*
X154117024Y-107327421D01*
X154121967Y-107321967D01*
X154127421Y-107317024D01*
X154133332Y-107312640D01*
X154139645Y-107308856D01*
X154146299Y-107305709D01*
X154153229Y-107303229D01*
X154160368Y-107301441D01*
X154167649Y-107300361D01*
X154175000Y-107300000D01*
X154325000Y-107300000D01*
X154332351Y-107300361D01*
X154332351Y-107300361D01*
G37*
D13*
X154250000Y-108075000D03*
D12*
G36*
X153832351Y-107300361D02*
G01*
X153839632Y-107301441D01*
X153846771Y-107303229D01*
X153853701Y-107305709D01*
X153860355Y-107308856D01*
X153866668Y-107312640D01*
X153872579Y-107317024D01*
X153878033Y-107321967D01*
X153882976Y-107327421D01*
X153887360Y-107333332D01*
X153891144Y-107339645D01*
X153894291Y-107346299D01*
X153896771Y-107353229D01*
X153898559Y-107360368D01*
X153899639Y-107367649D01*
X153900000Y-107375000D01*
X153900000Y-108775000D01*
X153899639Y-108782351D01*
X153898559Y-108789632D01*
X153896771Y-108796771D01*
X153894291Y-108803701D01*
X153891144Y-108810355D01*
X153887360Y-108816668D01*
X153882976Y-108822579D01*
X153878033Y-108828033D01*
X153872579Y-108832976D01*
X153866668Y-108837360D01*
X153860355Y-108841144D01*
X153853701Y-108844291D01*
X153846771Y-108846771D01*
X153839632Y-108848559D01*
X153832351Y-108849639D01*
X153825000Y-108850000D01*
X153675000Y-108850000D01*
X153667649Y-108849639D01*
X153660368Y-108848559D01*
X153653229Y-108846771D01*
X153646299Y-108844291D01*
X153639645Y-108841144D01*
X153633332Y-108837360D01*
X153627421Y-108832976D01*
X153621967Y-108828033D01*
X153617024Y-108822579D01*
X153612640Y-108816668D01*
X153608856Y-108810355D01*
X153605709Y-108803701D01*
X153603229Y-108796771D01*
X153601441Y-108789632D01*
X153600361Y-108782351D01*
X153600000Y-108775000D01*
X153600000Y-107375000D01*
X153600361Y-107367649D01*
X153601441Y-107360368D01*
X153603229Y-107353229D01*
X153605709Y-107346299D01*
X153608856Y-107339645D01*
X153612640Y-107333332D01*
X153617024Y-107327421D01*
X153621967Y-107321967D01*
X153627421Y-107317024D01*
X153633332Y-107312640D01*
X153639645Y-107308856D01*
X153646299Y-107305709D01*
X153653229Y-107303229D01*
X153660368Y-107301441D01*
X153667649Y-107300361D01*
X153675000Y-107300000D01*
X153825000Y-107300000D01*
X153832351Y-107300361D01*
X153832351Y-107300361D01*
G37*
D13*
X153750000Y-108075000D03*
D12*
G36*
X153332351Y-107300361D02*
G01*
X153339632Y-107301441D01*
X153346771Y-107303229D01*
X153353701Y-107305709D01*
X153360355Y-107308856D01*
X153366668Y-107312640D01*
X153372579Y-107317024D01*
X153378033Y-107321967D01*
X153382976Y-107327421D01*
X153387360Y-107333332D01*
X153391144Y-107339645D01*
X153394291Y-107346299D01*
X153396771Y-107353229D01*
X153398559Y-107360368D01*
X153399639Y-107367649D01*
X153400000Y-107375000D01*
X153400000Y-108775000D01*
X153399639Y-108782351D01*
X153398559Y-108789632D01*
X153396771Y-108796771D01*
X153394291Y-108803701D01*
X153391144Y-108810355D01*
X153387360Y-108816668D01*
X153382976Y-108822579D01*
X153378033Y-108828033D01*
X153372579Y-108832976D01*
X153366668Y-108837360D01*
X153360355Y-108841144D01*
X153353701Y-108844291D01*
X153346771Y-108846771D01*
X153339632Y-108848559D01*
X153332351Y-108849639D01*
X153325000Y-108850000D01*
X153175000Y-108850000D01*
X153167649Y-108849639D01*
X153160368Y-108848559D01*
X153153229Y-108846771D01*
X153146299Y-108844291D01*
X153139645Y-108841144D01*
X153133332Y-108837360D01*
X153127421Y-108832976D01*
X153121967Y-108828033D01*
X153117024Y-108822579D01*
X153112640Y-108816668D01*
X153108856Y-108810355D01*
X153105709Y-108803701D01*
X153103229Y-108796771D01*
X153101441Y-108789632D01*
X153100361Y-108782351D01*
X153100000Y-108775000D01*
X153100000Y-107375000D01*
X153100361Y-107367649D01*
X153101441Y-107360368D01*
X153103229Y-107353229D01*
X153105709Y-107346299D01*
X153108856Y-107339645D01*
X153112640Y-107333332D01*
X153117024Y-107327421D01*
X153121967Y-107321967D01*
X153127421Y-107317024D01*
X153133332Y-107312640D01*
X153139645Y-107308856D01*
X153146299Y-107305709D01*
X153153229Y-107303229D01*
X153160368Y-107301441D01*
X153167649Y-107300361D01*
X153175000Y-107300000D01*
X153325000Y-107300000D01*
X153332351Y-107300361D01*
X153332351Y-107300361D01*
G37*
D13*
X153250000Y-108075000D03*
D12*
G36*
X152832351Y-107300361D02*
G01*
X152839632Y-107301441D01*
X152846771Y-107303229D01*
X152853701Y-107305709D01*
X152860355Y-107308856D01*
X152866668Y-107312640D01*
X152872579Y-107317024D01*
X152878033Y-107321967D01*
X152882976Y-107327421D01*
X152887360Y-107333332D01*
X152891144Y-107339645D01*
X152894291Y-107346299D01*
X152896771Y-107353229D01*
X152898559Y-107360368D01*
X152899639Y-107367649D01*
X152900000Y-107375000D01*
X152900000Y-108775000D01*
X152899639Y-108782351D01*
X152898559Y-108789632D01*
X152896771Y-108796771D01*
X152894291Y-108803701D01*
X152891144Y-108810355D01*
X152887360Y-108816668D01*
X152882976Y-108822579D01*
X152878033Y-108828033D01*
X152872579Y-108832976D01*
X152866668Y-108837360D01*
X152860355Y-108841144D01*
X152853701Y-108844291D01*
X152846771Y-108846771D01*
X152839632Y-108848559D01*
X152832351Y-108849639D01*
X152825000Y-108850000D01*
X152675000Y-108850000D01*
X152667649Y-108849639D01*
X152660368Y-108848559D01*
X152653229Y-108846771D01*
X152646299Y-108844291D01*
X152639645Y-108841144D01*
X152633332Y-108837360D01*
X152627421Y-108832976D01*
X152621967Y-108828033D01*
X152617024Y-108822579D01*
X152612640Y-108816668D01*
X152608856Y-108810355D01*
X152605709Y-108803701D01*
X152603229Y-108796771D01*
X152601441Y-108789632D01*
X152600361Y-108782351D01*
X152600000Y-108775000D01*
X152600000Y-107375000D01*
X152600361Y-107367649D01*
X152601441Y-107360368D01*
X152603229Y-107353229D01*
X152605709Y-107346299D01*
X152608856Y-107339645D01*
X152612640Y-107333332D01*
X152617024Y-107327421D01*
X152621967Y-107321967D01*
X152627421Y-107317024D01*
X152633332Y-107312640D01*
X152639645Y-107308856D01*
X152646299Y-107305709D01*
X152653229Y-107303229D01*
X152660368Y-107301441D01*
X152667649Y-107300361D01*
X152675000Y-107300000D01*
X152825000Y-107300000D01*
X152832351Y-107300361D01*
X152832351Y-107300361D01*
G37*
D13*
X152750000Y-108075000D03*
D12*
G36*
X152332351Y-107300361D02*
G01*
X152339632Y-107301441D01*
X152346771Y-107303229D01*
X152353701Y-107305709D01*
X152360355Y-107308856D01*
X152366668Y-107312640D01*
X152372579Y-107317024D01*
X152378033Y-107321967D01*
X152382976Y-107327421D01*
X152387360Y-107333332D01*
X152391144Y-107339645D01*
X152394291Y-107346299D01*
X152396771Y-107353229D01*
X152398559Y-107360368D01*
X152399639Y-107367649D01*
X152400000Y-107375000D01*
X152400000Y-108775000D01*
X152399639Y-108782351D01*
X152398559Y-108789632D01*
X152396771Y-108796771D01*
X152394291Y-108803701D01*
X152391144Y-108810355D01*
X152387360Y-108816668D01*
X152382976Y-108822579D01*
X152378033Y-108828033D01*
X152372579Y-108832976D01*
X152366668Y-108837360D01*
X152360355Y-108841144D01*
X152353701Y-108844291D01*
X152346771Y-108846771D01*
X152339632Y-108848559D01*
X152332351Y-108849639D01*
X152325000Y-108850000D01*
X152175000Y-108850000D01*
X152167649Y-108849639D01*
X152160368Y-108848559D01*
X152153229Y-108846771D01*
X152146299Y-108844291D01*
X152139645Y-108841144D01*
X152133332Y-108837360D01*
X152127421Y-108832976D01*
X152121967Y-108828033D01*
X152117024Y-108822579D01*
X152112640Y-108816668D01*
X152108856Y-108810355D01*
X152105709Y-108803701D01*
X152103229Y-108796771D01*
X152101441Y-108789632D01*
X152100361Y-108782351D01*
X152100000Y-108775000D01*
X152100000Y-107375000D01*
X152100361Y-107367649D01*
X152101441Y-107360368D01*
X152103229Y-107353229D01*
X152105709Y-107346299D01*
X152108856Y-107339645D01*
X152112640Y-107333332D01*
X152117024Y-107327421D01*
X152121967Y-107321967D01*
X152127421Y-107317024D01*
X152133332Y-107312640D01*
X152139645Y-107308856D01*
X152146299Y-107305709D01*
X152153229Y-107303229D01*
X152160368Y-107301441D01*
X152167649Y-107300361D01*
X152175000Y-107300000D01*
X152325000Y-107300000D01*
X152332351Y-107300361D01*
X152332351Y-107300361D01*
G37*
D13*
X152250000Y-108075000D03*
D12*
G36*
X151032351Y-106000361D02*
G01*
X151039632Y-106001441D01*
X151046771Y-106003229D01*
X151053701Y-106005709D01*
X151060355Y-106008856D01*
X151066668Y-106012640D01*
X151072579Y-106017024D01*
X151078033Y-106021967D01*
X151082976Y-106027421D01*
X151087360Y-106033332D01*
X151091144Y-106039645D01*
X151094291Y-106046299D01*
X151096771Y-106053229D01*
X151098559Y-106060368D01*
X151099639Y-106067649D01*
X151100000Y-106075000D01*
X151100000Y-106225000D01*
X151099639Y-106232351D01*
X151098559Y-106239632D01*
X151096771Y-106246771D01*
X151094291Y-106253701D01*
X151091144Y-106260355D01*
X151087360Y-106266668D01*
X151082976Y-106272579D01*
X151078033Y-106278033D01*
X151072579Y-106282976D01*
X151066668Y-106287360D01*
X151060355Y-106291144D01*
X151053701Y-106294291D01*
X151046771Y-106296771D01*
X151039632Y-106298559D01*
X151032351Y-106299639D01*
X151025000Y-106300000D01*
X149625000Y-106300000D01*
X149617649Y-106299639D01*
X149610368Y-106298559D01*
X149603229Y-106296771D01*
X149596299Y-106294291D01*
X149589645Y-106291144D01*
X149583332Y-106287360D01*
X149577421Y-106282976D01*
X149571967Y-106278033D01*
X149567024Y-106272579D01*
X149562640Y-106266668D01*
X149558856Y-106260355D01*
X149555709Y-106253701D01*
X149553229Y-106246771D01*
X149551441Y-106239632D01*
X149550361Y-106232351D01*
X149550000Y-106225000D01*
X149550000Y-106075000D01*
X149550361Y-106067649D01*
X149551441Y-106060368D01*
X149553229Y-106053229D01*
X149555709Y-106046299D01*
X149558856Y-106039645D01*
X149562640Y-106033332D01*
X149567024Y-106027421D01*
X149571967Y-106021967D01*
X149577421Y-106017024D01*
X149583332Y-106012640D01*
X149589645Y-106008856D01*
X149596299Y-106005709D01*
X149603229Y-106003229D01*
X149610368Y-106001441D01*
X149617649Y-106000361D01*
X149625000Y-106000000D01*
X151025000Y-106000000D01*
X151032351Y-106000361D01*
X151032351Y-106000361D01*
G37*
D13*
X150325000Y-106150000D03*
D12*
G36*
X151032351Y-105500361D02*
G01*
X151039632Y-105501441D01*
X151046771Y-105503229D01*
X151053701Y-105505709D01*
X151060355Y-105508856D01*
X151066668Y-105512640D01*
X151072579Y-105517024D01*
X151078033Y-105521967D01*
X151082976Y-105527421D01*
X151087360Y-105533332D01*
X151091144Y-105539645D01*
X151094291Y-105546299D01*
X151096771Y-105553229D01*
X151098559Y-105560368D01*
X151099639Y-105567649D01*
X151100000Y-105575000D01*
X151100000Y-105725000D01*
X151099639Y-105732351D01*
X151098559Y-105739632D01*
X151096771Y-105746771D01*
X151094291Y-105753701D01*
X151091144Y-105760355D01*
X151087360Y-105766668D01*
X151082976Y-105772579D01*
X151078033Y-105778033D01*
X151072579Y-105782976D01*
X151066668Y-105787360D01*
X151060355Y-105791144D01*
X151053701Y-105794291D01*
X151046771Y-105796771D01*
X151039632Y-105798559D01*
X151032351Y-105799639D01*
X151025000Y-105800000D01*
X149625000Y-105800000D01*
X149617649Y-105799639D01*
X149610368Y-105798559D01*
X149603229Y-105796771D01*
X149596299Y-105794291D01*
X149589645Y-105791144D01*
X149583332Y-105787360D01*
X149577421Y-105782976D01*
X149571967Y-105778033D01*
X149567024Y-105772579D01*
X149562640Y-105766668D01*
X149558856Y-105760355D01*
X149555709Y-105753701D01*
X149553229Y-105746771D01*
X149551441Y-105739632D01*
X149550361Y-105732351D01*
X149550000Y-105725000D01*
X149550000Y-105575000D01*
X149550361Y-105567649D01*
X149551441Y-105560368D01*
X149553229Y-105553229D01*
X149555709Y-105546299D01*
X149558856Y-105539645D01*
X149562640Y-105533332D01*
X149567024Y-105527421D01*
X149571967Y-105521967D01*
X149577421Y-105517024D01*
X149583332Y-105512640D01*
X149589645Y-105508856D01*
X149596299Y-105505709D01*
X149603229Y-105503229D01*
X149610368Y-105501441D01*
X149617649Y-105500361D01*
X149625000Y-105500000D01*
X151025000Y-105500000D01*
X151032351Y-105500361D01*
X151032351Y-105500361D01*
G37*
D13*
X150325000Y-105650000D03*
D12*
G36*
X151032351Y-105000361D02*
G01*
X151039632Y-105001441D01*
X151046771Y-105003229D01*
X151053701Y-105005709D01*
X151060355Y-105008856D01*
X151066668Y-105012640D01*
X151072579Y-105017024D01*
X151078033Y-105021967D01*
X151082976Y-105027421D01*
X151087360Y-105033332D01*
X151091144Y-105039645D01*
X151094291Y-105046299D01*
X151096771Y-105053229D01*
X151098559Y-105060368D01*
X151099639Y-105067649D01*
X151100000Y-105075000D01*
X151100000Y-105225000D01*
X151099639Y-105232351D01*
X151098559Y-105239632D01*
X151096771Y-105246771D01*
X151094291Y-105253701D01*
X151091144Y-105260355D01*
X151087360Y-105266668D01*
X151082976Y-105272579D01*
X151078033Y-105278033D01*
X151072579Y-105282976D01*
X151066668Y-105287360D01*
X151060355Y-105291144D01*
X151053701Y-105294291D01*
X151046771Y-105296771D01*
X151039632Y-105298559D01*
X151032351Y-105299639D01*
X151025000Y-105300000D01*
X149625000Y-105300000D01*
X149617649Y-105299639D01*
X149610368Y-105298559D01*
X149603229Y-105296771D01*
X149596299Y-105294291D01*
X149589645Y-105291144D01*
X149583332Y-105287360D01*
X149577421Y-105282976D01*
X149571967Y-105278033D01*
X149567024Y-105272579D01*
X149562640Y-105266668D01*
X149558856Y-105260355D01*
X149555709Y-105253701D01*
X149553229Y-105246771D01*
X149551441Y-105239632D01*
X149550361Y-105232351D01*
X149550000Y-105225000D01*
X149550000Y-105075000D01*
X149550361Y-105067649D01*
X149551441Y-105060368D01*
X149553229Y-105053229D01*
X149555709Y-105046299D01*
X149558856Y-105039645D01*
X149562640Y-105033332D01*
X149567024Y-105027421D01*
X149571967Y-105021967D01*
X149577421Y-105017024D01*
X149583332Y-105012640D01*
X149589645Y-105008856D01*
X149596299Y-105005709D01*
X149603229Y-105003229D01*
X149610368Y-105001441D01*
X149617649Y-105000361D01*
X149625000Y-105000000D01*
X151025000Y-105000000D01*
X151032351Y-105000361D01*
X151032351Y-105000361D01*
G37*
D13*
X150325000Y-105150000D03*
D12*
G36*
X151032351Y-104500361D02*
G01*
X151039632Y-104501441D01*
X151046771Y-104503229D01*
X151053701Y-104505709D01*
X151060355Y-104508856D01*
X151066668Y-104512640D01*
X151072579Y-104517024D01*
X151078033Y-104521967D01*
X151082976Y-104527421D01*
X151087360Y-104533332D01*
X151091144Y-104539645D01*
X151094291Y-104546299D01*
X151096771Y-104553229D01*
X151098559Y-104560368D01*
X151099639Y-104567649D01*
X151100000Y-104575000D01*
X151100000Y-104725000D01*
X151099639Y-104732351D01*
X151098559Y-104739632D01*
X151096771Y-104746771D01*
X151094291Y-104753701D01*
X151091144Y-104760355D01*
X151087360Y-104766668D01*
X151082976Y-104772579D01*
X151078033Y-104778033D01*
X151072579Y-104782976D01*
X151066668Y-104787360D01*
X151060355Y-104791144D01*
X151053701Y-104794291D01*
X151046771Y-104796771D01*
X151039632Y-104798559D01*
X151032351Y-104799639D01*
X151025000Y-104800000D01*
X149625000Y-104800000D01*
X149617649Y-104799639D01*
X149610368Y-104798559D01*
X149603229Y-104796771D01*
X149596299Y-104794291D01*
X149589645Y-104791144D01*
X149583332Y-104787360D01*
X149577421Y-104782976D01*
X149571967Y-104778033D01*
X149567024Y-104772579D01*
X149562640Y-104766668D01*
X149558856Y-104760355D01*
X149555709Y-104753701D01*
X149553229Y-104746771D01*
X149551441Y-104739632D01*
X149550361Y-104732351D01*
X149550000Y-104725000D01*
X149550000Y-104575000D01*
X149550361Y-104567649D01*
X149551441Y-104560368D01*
X149553229Y-104553229D01*
X149555709Y-104546299D01*
X149558856Y-104539645D01*
X149562640Y-104533332D01*
X149567024Y-104527421D01*
X149571967Y-104521967D01*
X149577421Y-104517024D01*
X149583332Y-104512640D01*
X149589645Y-104508856D01*
X149596299Y-104505709D01*
X149603229Y-104503229D01*
X149610368Y-104501441D01*
X149617649Y-104500361D01*
X149625000Y-104500000D01*
X151025000Y-104500000D01*
X151032351Y-104500361D01*
X151032351Y-104500361D01*
G37*
D13*
X150325000Y-104650000D03*
D12*
G36*
X151032351Y-104000361D02*
G01*
X151039632Y-104001441D01*
X151046771Y-104003229D01*
X151053701Y-104005709D01*
X151060355Y-104008856D01*
X151066668Y-104012640D01*
X151072579Y-104017024D01*
X151078033Y-104021967D01*
X151082976Y-104027421D01*
X151087360Y-104033332D01*
X151091144Y-104039645D01*
X151094291Y-104046299D01*
X151096771Y-104053229D01*
X151098559Y-104060368D01*
X151099639Y-104067649D01*
X151100000Y-104075000D01*
X151100000Y-104225000D01*
X151099639Y-104232351D01*
X151098559Y-104239632D01*
X151096771Y-104246771D01*
X151094291Y-104253701D01*
X151091144Y-104260355D01*
X151087360Y-104266668D01*
X151082976Y-104272579D01*
X151078033Y-104278033D01*
X151072579Y-104282976D01*
X151066668Y-104287360D01*
X151060355Y-104291144D01*
X151053701Y-104294291D01*
X151046771Y-104296771D01*
X151039632Y-104298559D01*
X151032351Y-104299639D01*
X151025000Y-104300000D01*
X149625000Y-104300000D01*
X149617649Y-104299639D01*
X149610368Y-104298559D01*
X149603229Y-104296771D01*
X149596299Y-104294291D01*
X149589645Y-104291144D01*
X149583332Y-104287360D01*
X149577421Y-104282976D01*
X149571967Y-104278033D01*
X149567024Y-104272579D01*
X149562640Y-104266668D01*
X149558856Y-104260355D01*
X149555709Y-104253701D01*
X149553229Y-104246771D01*
X149551441Y-104239632D01*
X149550361Y-104232351D01*
X149550000Y-104225000D01*
X149550000Y-104075000D01*
X149550361Y-104067649D01*
X149551441Y-104060368D01*
X149553229Y-104053229D01*
X149555709Y-104046299D01*
X149558856Y-104039645D01*
X149562640Y-104033332D01*
X149567024Y-104027421D01*
X149571967Y-104021967D01*
X149577421Y-104017024D01*
X149583332Y-104012640D01*
X149589645Y-104008856D01*
X149596299Y-104005709D01*
X149603229Y-104003229D01*
X149610368Y-104001441D01*
X149617649Y-104000361D01*
X149625000Y-104000000D01*
X151025000Y-104000000D01*
X151032351Y-104000361D01*
X151032351Y-104000361D01*
G37*
D13*
X150325000Y-104150000D03*
D12*
G36*
X151032351Y-103500361D02*
G01*
X151039632Y-103501441D01*
X151046771Y-103503229D01*
X151053701Y-103505709D01*
X151060355Y-103508856D01*
X151066668Y-103512640D01*
X151072579Y-103517024D01*
X151078033Y-103521967D01*
X151082976Y-103527421D01*
X151087360Y-103533332D01*
X151091144Y-103539645D01*
X151094291Y-103546299D01*
X151096771Y-103553229D01*
X151098559Y-103560368D01*
X151099639Y-103567649D01*
X151100000Y-103575000D01*
X151100000Y-103725000D01*
X151099639Y-103732351D01*
X151098559Y-103739632D01*
X151096771Y-103746771D01*
X151094291Y-103753701D01*
X151091144Y-103760355D01*
X151087360Y-103766668D01*
X151082976Y-103772579D01*
X151078033Y-103778033D01*
X151072579Y-103782976D01*
X151066668Y-103787360D01*
X151060355Y-103791144D01*
X151053701Y-103794291D01*
X151046771Y-103796771D01*
X151039632Y-103798559D01*
X151032351Y-103799639D01*
X151025000Y-103800000D01*
X149625000Y-103800000D01*
X149617649Y-103799639D01*
X149610368Y-103798559D01*
X149603229Y-103796771D01*
X149596299Y-103794291D01*
X149589645Y-103791144D01*
X149583332Y-103787360D01*
X149577421Y-103782976D01*
X149571967Y-103778033D01*
X149567024Y-103772579D01*
X149562640Y-103766668D01*
X149558856Y-103760355D01*
X149555709Y-103753701D01*
X149553229Y-103746771D01*
X149551441Y-103739632D01*
X149550361Y-103732351D01*
X149550000Y-103725000D01*
X149550000Y-103575000D01*
X149550361Y-103567649D01*
X149551441Y-103560368D01*
X149553229Y-103553229D01*
X149555709Y-103546299D01*
X149558856Y-103539645D01*
X149562640Y-103533332D01*
X149567024Y-103527421D01*
X149571967Y-103521967D01*
X149577421Y-103517024D01*
X149583332Y-103512640D01*
X149589645Y-103508856D01*
X149596299Y-103505709D01*
X149603229Y-103503229D01*
X149610368Y-103501441D01*
X149617649Y-103500361D01*
X149625000Y-103500000D01*
X151025000Y-103500000D01*
X151032351Y-103500361D01*
X151032351Y-103500361D01*
G37*
D13*
X150325000Y-103650000D03*
D12*
G36*
X151032351Y-103000361D02*
G01*
X151039632Y-103001441D01*
X151046771Y-103003229D01*
X151053701Y-103005709D01*
X151060355Y-103008856D01*
X151066668Y-103012640D01*
X151072579Y-103017024D01*
X151078033Y-103021967D01*
X151082976Y-103027421D01*
X151087360Y-103033332D01*
X151091144Y-103039645D01*
X151094291Y-103046299D01*
X151096771Y-103053229D01*
X151098559Y-103060368D01*
X151099639Y-103067649D01*
X151100000Y-103075000D01*
X151100000Y-103225000D01*
X151099639Y-103232351D01*
X151098559Y-103239632D01*
X151096771Y-103246771D01*
X151094291Y-103253701D01*
X151091144Y-103260355D01*
X151087360Y-103266668D01*
X151082976Y-103272579D01*
X151078033Y-103278033D01*
X151072579Y-103282976D01*
X151066668Y-103287360D01*
X151060355Y-103291144D01*
X151053701Y-103294291D01*
X151046771Y-103296771D01*
X151039632Y-103298559D01*
X151032351Y-103299639D01*
X151025000Y-103300000D01*
X149625000Y-103300000D01*
X149617649Y-103299639D01*
X149610368Y-103298559D01*
X149603229Y-103296771D01*
X149596299Y-103294291D01*
X149589645Y-103291144D01*
X149583332Y-103287360D01*
X149577421Y-103282976D01*
X149571967Y-103278033D01*
X149567024Y-103272579D01*
X149562640Y-103266668D01*
X149558856Y-103260355D01*
X149555709Y-103253701D01*
X149553229Y-103246771D01*
X149551441Y-103239632D01*
X149550361Y-103232351D01*
X149550000Y-103225000D01*
X149550000Y-103075000D01*
X149550361Y-103067649D01*
X149551441Y-103060368D01*
X149553229Y-103053229D01*
X149555709Y-103046299D01*
X149558856Y-103039645D01*
X149562640Y-103033332D01*
X149567024Y-103027421D01*
X149571967Y-103021967D01*
X149577421Y-103017024D01*
X149583332Y-103012640D01*
X149589645Y-103008856D01*
X149596299Y-103005709D01*
X149603229Y-103003229D01*
X149610368Y-103001441D01*
X149617649Y-103000361D01*
X149625000Y-103000000D01*
X151025000Y-103000000D01*
X151032351Y-103000361D01*
X151032351Y-103000361D01*
G37*
D13*
X150325000Y-103150000D03*
D12*
G36*
X151032351Y-102500361D02*
G01*
X151039632Y-102501441D01*
X151046771Y-102503229D01*
X151053701Y-102505709D01*
X151060355Y-102508856D01*
X151066668Y-102512640D01*
X151072579Y-102517024D01*
X151078033Y-102521967D01*
X151082976Y-102527421D01*
X151087360Y-102533332D01*
X151091144Y-102539645D01*
X151094291Y-102546299D01*
X151096771Y-102553229D01*
X151098559Y-102560368D01*
X151099639Y-102567649D01*
X151100000Y-102575000D01*
X151100000Y-102725000D01*
X151099639Y-102732351D01*
X151098559Y-102739632D01*
X151096771Y-102746771D01*
X151094291Y-102753701D01*
X151091144Y-102760355D01*
X151087360Y-102766668D01*
X151082976Y-102772579D01*
X151078033Y-102778033D01*
X151072579Y-102782976D01*
X151066668Y-102787360D01*
X151060355Y-102791144D01*
X151053701Y-102794291D01*
X151046771Y-102796771D01*
X151039632Y-102798559D01*
X151032351Y-102799639D01*
X151025000Y-102800000D01*
X149625000Y-102800000D01*
X149617649Y-102799639D01*
X149610368Y-102798559D01*
X149603229Y-102796771D01*
X149596299Y-102794291D01*
X149589645Y-102791144D01*
X149583332Y-102787360D01*
X149577421Y-102782976D01*
X149571967Y-102778033D01*
X149567024Y-102772579D01*
X149562640Y-102766668D01*
X149558856Y-102760355D01*
X149555709Y-102753701D01*
X149553229Y-102746771D01*
X149551441Y-102739632D01*
X149550361Y-102732351D01*
X149550000Y-102725000D01*
X149550000Y-102575000D01*
X149550361Y-102567649D01*
X149551441Y-102560368D01*
X149553229Y-102553229D01*
X149555709Y-102546299D01*
X149558856Y-102539645D01*
X149562640Y-102533332D01*
X149567024Y-102527421D01*
X149571967Y-102521967D01*
X149577421Y-102517024D01*
X149583332Y-102512640D01*
X149589645Y-102508856D01*
X149596299Y-102505709D01*
X149603229Y-102503229D01*
X149610368Y-102501441D01*
X149617649Y-102500361D01*
X149625000Y-102500000D01*
X151025000Y-102500000D01*
X151032351Y-102500361D01*
X151032351Y-102500361D01*
G37*
D13*
X150325000Y-102650000D03*
D12*
G36*
X151032351Y-102000361D02*
G01*
X151039632Y-102001441D01*
X151046771Y-102003229D01*
X151053701Y-102005709D01*
X151060355Y-102008856D01*
X151066668Y-102012640D01*
X151072579Y-102017024D01*
X151078033Y-102021967D01*
X151082976Y-102027421D01*
X151087360Y-102033332D01*
X151091144Y-102039645D01*
X151094291Y-102046299D01*
X151096771Y-102053229D01*
X151098559Y-102060368D01*
X151099639Y-102067649D01*
X151100000Y-102075000D01*
X151100000Y-102225000D01*
X151099639Y-102232351D01*
X151098559Y-102239632D01*
X151096771Y-102246771D01*
X151094291Y-102253701D01*
X151091144Y-102260355D01*
X151087360Y-102266668D01*
X151082976Y-102272579D01*
X151078033Y-102278033D01*
X151072579Y-102282976D01*
X151066668Y-102287360D01*
X151060355Y-102291144D01*
X151053701Y-102294291D01*
X151046771Y-102296771D01*
X151039632Y-102298559D01*
X151032351Y-102299639D01*
X151025000Y-102300000D01*
X149625000Y-102300000D01*
X149617649Y-102299639D01*
X149610368Y-102298559D01*
X149603229Y-102296771D01*
X149596299Y-102294291D01*
X149589645Y-102291144D01*
X149583332Y-102287360D01*
X149577421Y-102282976D01*
X149571967Y-102278033D01*
X149567024Y-102272579D01*
X149562640Y-102266668D01*
X149558856Y-102260355D01*
X149555709Y-102253701D01*
X149553229Y-102246771D01*
X149551441Y-102239632D01*
X149550361Y-102232351D01*
X149550000Y-102225000D01*
X149550000Y-102075000D01*
X149550361Y-102067649D01*
X149551441Y-102060368D01*
X149553229Y-102053229D01*
X149555709Y-102046299D01*
X149558856Y-102039645D01*
X149562640Y-102033332D01*
X149567024Y-102027421D01*
X149571967Y-102021967D01*
X149577421Y-102017024D01*
X149583332Y-102012640D01*
X149589645Y-102008856D01*
X149596299Y-102005709D01*
X149603229Y-102003229D01*
X149610368Y-102001441D01*
X149617649Y-102000361D01*
X149625000Y-102000000D01*
X151025000Y-102000000D01*
X151032351Y-102000361D01*
X151032351Y-102000361D01*
G37*
D13*
X150325000Y-102150000D03*
D12*
G36*
X151032351Y-101500361D02*
G01*
X151039632Y-101501441D01*
X151046771Y-101503229D01*
X151053701Y-101505709D01*
X151060355Y-101508856D01*
X151066668Y-101512640D01*
X151072579Y-101517024D01*
X151078033Y-101521967D01*
X151082976Y-101527421D01*
X151087360Y-101533332D01*
X151091144Y-101539645D01*
X151094291Y-101546299D01*
X151096771Y-101553229D01*
X151098559Y-101560368D01*
X151099639Y-101567649D01*
X151100000Y-101575000D01*
X151100000Y-101725000D01*
X151099639Y-101732351D01*
X151098559Y-101739632D01*
X151096771Y-101746771D01*
X151094291Y-101753701D01*
X151091144Y-101760355D01*
X151087360Y-101766668D01*
X151082976Y-101772579D01*
X151078033Y-101778033D01*
X151072579Y-101782976D01*
X151066668Y-101787360D01*
X151060355Y-101791144D01*
X151053701Y-101794291D01*
X151046771Y-101796771D01*
X151039632Y-101798559D01*
X151032351Y-101799639D01*
X151025000Y-101800000D01*
X149625000Y-101800000D01*
X149617649Y-101799639D01*
X149610368Y-101798559D01*
X149603229Y-101796771D01*
X149596299Y-101794291D01*
X149589645Y-101791144D01*
X149583332Y-101787360D01*
X149577421Y-101782976D01*
X149571967Y-101778033D01*
X149567024Y-101772579D01*
X149562640Y-101766668D01*
X149558856Y-101760355D01*
X149555709Y-101753701D01*
X149553229Y-101746771D01*
X149551441Y-101739632D01*
X149550361Y-101732351D01*
X149550000Y-101725000D01*
X149550000Y-101575000D01*
X149550361Y-101567649D01*
X149551441Y-101560368D01*
X149553229Y-101553229D01*
X149555709Y-101546299D01*
X149558856Y-101539645D01*
X149562640Y-101533332D01*
X149567024Y-101527421D01*
X149571967Y-101521967D01*
X149577421Y-101517024D01*
X149583332Y-101512640D01*
X149589645Y-101508856D01*
X149596299Y-101505709D01*
X149603229Y-101503229D01*
X149610368Y-101501441D01*
X149617649Y-101500361D01*
X149625000Y-101500000D01*
X151025000Y-101500000D01*
X151032351Y-101500361D01*
X151032351Y-101500361D01*
G37*
D13*
X150325000Y-101650000D03*
D12*
G36*
X151032351Y-101000361D02*
G01*
X151039632Y-101001441D01*
X151046771Y-101003229D01*
X151053701Y-101005709D01*
X151060355Y-101008856D01*
X151066668Y-101012640D01*
X151072579Y-101017024D01*
X151078033Y-101021967D01*
X151082976Y-101027421D01*
X151087360Y-101033332D01*
X151091144Y-101039645D01*
X151094291Y-101046299D01*
X151096771Y-101053229D01*
X151098559Y-101060368D01*
X151099639Y-101067649D01*
X151100000Y-101075000D01*
X151100000Y-101225000D01*
X151099639Y-101232351D01*
X151098559Y-101239632D01*
X151096771Y-101246771D01*
X151094291Y-101253701D01*
X151091144Y-101260355D01*
X151087360Y-101266668D01*
X151082976Y-101272579D01*
X151078033Y-101278033D01*
X151072579Y-101282976D01*
X151066668Y-101287360D01*
X151060355Y-101291144D01*
X151053701Y-101294291D01*
X151046771Y-101296771D01*
X151039632Y-101298559D01*
X151032351Y-101299639D01*
X151025000Y-101300000D01*
X149625000Y-101300000D01*
X149617649Y-101299639D01*
X149610368Y-101298559D01*
X149603229Y-101296771D01*
X149596299Y-101294291D01*
X149589645Y-101291144D01*
X149583332Y-101287360D01*
X149577421Y-101282976D01*
X149571967Y-101278033D01*
X149567024Y-101272579D01*
X149562640Y-101266668D01*
X149558856Y-101260355D01*
X149555709Y-101253701D01*
X149553229Y-101246771D01*
X149551441Y-101239632D01*
X149550361Y-101232351D01*
X149550000Y-101225000D01*
X149550000Y-101075000D01*
X149550361Y-101067649D01*
X149551441Y-101060368D01*
X149553229Y-101053229D01*
X149555709Y-101046299D01*
X149558856Y-101039645D01*
X149562640Y-101033332D01*
X149567024Y-101027421D01*
X149571967Y-101021967D01*
X149577421Y-101017024D01*
X149583332Y-101012640D01*
X149589645Y-101008856D01*
X149596299Y-101005709D01*
X149603229Y-101003229D01*
X149610368Y-101001441D01*
X149617649Y-101000361D01*
X149625000Y-101000000D01*
X151025000Y-101000000D01*
X151032351Y-101000361D01*
X151032351Y-101000361D01*
G37*
D13*
X150325000Y-101150000D03*
D12*
G36*
X151032351Y-100500361D02*
G01*
X151039632Y-100501441D01*
X151046771Y-100503229D01*
X151053701Y-100505709D01*
X151060355Y-100508856D01*
X151066668Y-100512640D01*
X151072579Y-100517024D01*
X151078033Y-100521967D01*
X151082976Y-100527421D01*
X151087360Y-100533332D01*
X151091144Y-100539645D01*
X151094291Y-100546299D01*
X151096771Y-100553229D01*
X151098559Y-100560368D01*
X151099639Y-100567649D01*
X151100000Y-100575000D01*
X151100000Y-100725000D01*
X151099639Y-100732351D01*
X151098559Y-100739632D01*
X151096771Y-100746771D01*
X151094291Y-100753701D01*
X151091144Y-100760355D01*
X151087360Y-100766668D01*
X151082976Y-100772579D01*
X151078033Y-100778033D01*
X151072579Y-100782976D01*
X151066668Y-100787360D01*
X151060355Y-100791144D01*
X151053701Y-100794291D01*
X151046771Y-100796771D01*
X151039632Y-100798559D01*
X151032351Y-100799639D01*
X151025000Y-100800000D01*
X149625000Y-100800000D01*
X149617649Y-100799639D01*
X149610368Y-100798559D01*
X149603229Y-100796771D01*
X149596299Y-100794291D01*
X149589645Y-100791144D01*
X149583332Y-100787360D01*
X149577421Y-100782976D01*
X149571967Y-100778033D01*
X149567024Y-100772579D01*
X149562640Y-100766668D01*
X149558856Y-100760355D01*
X149555709Y-100753701D01*
X149553229Y-100746771D01*
X149551441Y-100739632D01*
X149550361Y-100732351D01*
X149550000Y-100725000D01*
X149550000Y-100575000D01*
X149550361Y-100567649D01*
X149551441Y-100560368D01*
X149553229Y-100553229D01*
X149555709Y-100546299D01*
X149558856Y-100539645D01*
X149562640Y-100533332D01*
X149567024Y-100527421D01*
X149571967Y-100521967D01*
X149577421Y-100517024D01*
X149583332Y-100512640D01*
X149589645Y-100508856D01*
X149596299Y-100505709D01*
X149603229Y-100503229D01*
X149610368Y-100501441D01*
X149617649Y-100500361D01*
X149625000Y-100500000D01*
X151025000Y-100500000D01*
X151032351Y-100500361D01*
X151032351Y-100500361D01*
G37*
D13*
X150325000Y-100650000D03*
D12*
G36*
X151032351Y-100000361D02*
G01*
X151039632Y-100001441D01*
X151046771Y-100003229D01*
X151053701Y-100005709D01*
X151060355Y-100008856D01*
X151066668Y-100012640D01*
X151072579Y-100017024D01*
X151078033Y-100021967D01*
X151082976Y-100027421D01*
X151087360Y-100033332D01*
X151091144Y-100039645D01*
X151094291Y-100046299D01*
X151096771Y-100053229D01*
X151098559Y-100060368D01*
X151099639Y-100067649D01*
X151100000Y-100075000D01*
X151100000Y-100225000D01*
X151099639Y-100232351D01*
X151098559Y-100239632D01*
X151096771Y-100246771D01*
X151094291Y-100253701D01*
X151091144Y-100260355D01*
X151087360Y-100266668D01*
X151082976Y-100272579D01*
X151078033Y-100278033D01*
X151072579Y-100282976D01*
X151066668Y-100287360D01*
X151060355Y-100291144D01*
X151053701Y-100294291D01*
X151046771Y-100296771D01*
X151039632Y-100298559D01*
X151032351Y-100299639D01*
X151025000Y-100300000D01*
X149625000Y-100300000D01*
X149617649Y-100299639D01*
X149610368Y-100298559D01*
X149603229Y-100296771D01*
X149596299Y-100294291D01*
X149589645Y-100291144D01*
X149583332Y-100287360D01*
X149577421Y-100282976D01*
X149571967Y-100278033D01*
X149567024Y-100272579D01*
X149562640Y-100266668D01*
X149558856Y-100260355D01*
X149555709Y-100253701D01*
X149553229Y-100246771D01*
X149551441Y-100239632D01*
X149550361Y-100232351D01*
X149550000Y-100225000D01*
X149550000Y-100075000D01*
X149550361Y-100067649D01*
X149551441Y-100060368D01*
X149553229Y-100053229D01*
X149555709Y-100046299D01*
X149558856Y-100039645D01*
X149562640Y-100033332D01*
X149567024Y-100027421D01*
X149571967Y-100021967D01*
X149577421Y-100017024D01*
X149583332Y-100012640D01*
X149589645Y-100008856D01*
X149596299Y-100005709D01*
X149603229Y-100003229D01*
X149610368Y-100001441D01*
X149617649Y-100000361D01*
X149625000Y-100000000D01*
X151025000Y-100000000D01*
X151032351Y-100000361D01*
X151032351Y-100000361D01*
G37*
D13*
X150325000Y-100150000D03*
D12*
G36*
X151032351Y-99500361D02*
G01*
X151039632Y-99501441D01*
X151046771Y-99503229D01*
X151053701Y-99505709D01*
X151060355Y-99508856D01*
X151066668Y-99512640D01*
X151072579Y-99517024D01*
X151078033Y-99521967D01*
X151082976Y-99527421D01*
X151087360Y-99533332D01*
X151091144Y-99539645D01*
X151094291Y-99546299D01*
X151096771Y-99553229D01*
X151098559Y-99560368D01*
X151099639Y-99567649D01*
X151100000Y-99575000D01*
X151100000Y-99725000D01*
X151099639Y-99732351D01*
X151098559Y-99739632D01*
X151096771Y-99746771D01*
X151094291Y-99753701D01*
X151091144Y-99760355D01*
X151087360Y-99766668D01*
X151082976Y-99772579D01*
X151078033Y-99778033D01*
X151072579Y-99782976D01*
X151066668Y-99787360D01*
X151060355Y-99791144D01*
X151053701Y-99794291D01*
X151046771Y-99796771D01*
X151039632Y-99798559D01*
X151032351Y-99799639D01*
X151025000Y-99800000D01*
X149625000Y-99800000D01*
X149617649Y-99799639D01*
X149610368Y-99798559D01*
X149603229Y-99796771D01*
X149596299Y-99794291D01*
X149589645Y-99791144D01*
X149583332Y-99787360D01*
X149577421Y-99782976D01*
X149571967Y-99778033D01*
X149567024Y-99772579D01*
X149562640Y-99766668D01*
X149558856Y-99760355D01*
X149555709Y-99753701D01*
X149553229Y-99746771D01*
X149551441Y-99739632D01*
X149550361Y-99732351D01*
X149550000Y-99725000D01*
X149550000Y-99575000D01*
X149550361Y-99567649D01*
X149551441Y-99560368D01*
X149553229Y-99553229D01*
X149555709Y-99546299D01*
X149558856Y-99539645D01*
X149562640Y-99533332D01*
X149567024Y-99527421D01*
X149571967Y-99521967D01*
X149577421Y-99517024D01*
X149583332Y-99512640D01*
X149589645Y-99508856D01*
X149596299Y-99505709D01*
X149603229Y-99503229D01*
X149610368Y-99501441D01*
X149617649Y-99500361D01*
X149625000Y-99500000D01*
X151025000Y-99500000D01*
X151032351Y-99500361D01*
X151032351Y-99500361D01*
G37*
D13*
X150325000Y-99650000D03*
D12*
G36*
X151032351Y-99000361D02*
G01*
X151039632Y-99001441D01*
X151046771Y-99003229D01*
X151053701Y-99005709D01*
X151060355Y-99008856D01*
X151066668Y-99012640D01*
X151072579Y-99017024D01*
X151078033Y-99021967D01*
X151082976Y-99027421D01*
X151087360Y-99033332D01*
X151091144Y-99039645D01*
X151094291Y-99046299D01*
X151096771Y-99053229D01*
X151098559Y-99060368D01*
X151099639Y-99067649D01*
X151100000Y-99075000D01*
X151100000Y-99225000D01*
X151099639Y-99232351D01*
X151098559Y-99239632D01*
X151096771Y-99246771D01*
X151094291Y-99253701D01*
X151091144Y-99260355D01*
X151087360Y-99266668D01*
X151082976Y-99272579D01*
X151078033Y-99278033D01*
X151072579Y-99282976D01*
X151066668Y-99287360D01*
X151060355Y-99291144D01*
X151053701Y-99294291D01*
X151046771Y-99296771D01*
X151039632Y-99298559D01*
X151032351Y-99299639D01*
X151025000Y-99300000D01*
X149625000Y-99300000D01*
X149617649Y-99299639D01*
X149610368Y-99298559D01*
X149603229Y-99296771D01*
X149596299Y-99294291D01*
X149589645Y-99291144D01*
X149583332Y-99287360D01*
X149577421Y-99282976D01*
X149571967Y-99278033D01*
X149567024Y-99272579D01*
X149562640Y-99266668D01*
X149558856Y-99260355D01*
X149555709Y-99253701D01*
X149553229Y-99246771D01*
X149551441Y-99239632D01*
X149550361Y-99232351D01*
X149550000Y-99225000D01*
X149550000Y-99075000D01*
X149550361Y-99067649D01*
X149551441Y-99060368D01*
X149553229Y-99053229D01*
X149555709Y-99046299D01*
X149558856Y-99039645D01*
X149562640Y-99033332D01*
X149567024Y-99027421D01*
X149571967Y-99021967D01*
X149577421Y-99017024D01*
X149583332Y-99012640D01*
X149589645Y-99008856D01*
X149596299Y-99005709D01*
X149603229Y-99003229D01*
X149610368Y-99001441D01*
X149617649Y-99000361D01*
X149625000Y-99000000D01*
X151025000Y-99000000D01*
X151032351Y-99000361D01*
X151032351Y-99000361D01*
G37*
D13*
X150325000Y-99150000D03*
D12*
G36*
X151032351Y-98500361D02*
G01*
X151039632Y-98501441D01*
X151046771Y-98503229D01*
X151053701Y-98505709D01*
X151060355Y-98508856D01*
X151066668Y-98512640D01*
X151072579Y-98517024D01*
X151078033Y-98521967D01*
X151082976Y-98527421D01*
X151087360Y-98533332D01*
X151091144Y-98539645D01*
X151094291Y-98546299D01*
X151096771Y-98553229D01*
X151098559Y-98560368D01*
X151099639Y-98567649D01*
X151100000Y-98575000D01*
X151100000Y-98725000D01*
X151099639Y-98732351D01*
X151098559Y-98739632D01*
X151096771Y-98746771D01*
X151094291Y-98753701D01*
X151091144Y-98760355D01*
X151087360Y-98766668D01*
X151082976Y-98772579D01*
X151078033Y-98778033D01*
X151072579Y-98782976D01*
X151066668Y-98787360D01*
X151060355Y-98791144D01*
X151053701Y-98794291D01*
X151046771Y-98796771D01*
X151039632Y-98798559D01*
X151032351Y-98799639D01*
X151025000Y-98800000D01*
X149625000Y-98800000D01*
X149617649Y-98799639D01*
X149610368Y-98798559D01*
X149603229Y-98796771D01*
X149596299Y-98794291D01*
X149589645Y-98791144D01*
X149583332Y-98787360D01*
X149577421Y-98782976D01*
X149571967Y-98778033D01*
X149567024Y-98772579D01*
X149562640Y-98766668D01*
X149558856Y-98760355D01*
X149555709Y-98753701D01*
X149553229Y-98746771D01*
X149551441Y-98739632D01*
X149550361Y-98732351D01*
X149550000Y-98725000D01*
X149550000Y-98575000D01*
X149550361Y-98567649D01*
X149551441Y-98560368D01*
X149553229Y-98553229D01*
X149555709Y-98546299D01*
X149558856Y-98539645D01*
X149562640Y-98533332D01*
X149567024Y-98527421D01*
X149571967Y-98521967D01*
X149577421Y-98517024D01*
X149583332Y-98512640D01*
X149589645Y-98508856D01*
X149596299Y-98505709D01*
X149603229Y-98503229D01*
X149610368Y-98501441D01*
X149617649Y-98500361D01*
X149625000Y-98500000D01*
X151025000Y-98500000D01*
X151032351Y-98500361D01*
X151032351Y-98500361D01*
G37*
D13*
X150325000Y-98650000D03*
D14*
X148250000Y-108400000D03*
X145750000Y-108400000D03*
X147750000Y-85600000D03*
X145250000Y-85600000D03*
X158250000Y-85400000D03*
X155750000Y-85400000D03*
X146750000Y-95400000D03*
X149250000Y-95400000D03*
D15*
X165000000Y-102650000D03*
X165000000Y-105150000D03*
D14*
X164750000Y-99400000D03*
X167250000Y-99400000D03*
X165850000Y-108400000D03*
X163350000Y-108400000D03*
D15*
X179250000Y-152250000D03*
X179250000Y-149750000D03*
D14*
X134750000Y-110000000D03*
X137250000Y-110000000D03*
X185250000Y-110000000D03*
X182750000Y-110000000D03*
D16*
X181600000Y-72300000D03*
X181600000Y-76700000D03*
D17*
X184800000Y-61600000D03*
X184800000Y-65200000D03*
D18*
X182200000Y-54000000D03*
X185800000Y-54000000D03*
D19*
X155800000Y-70000000D03*
X160200000Y-70000000D03*
D17*
X162500000Y-93100000D03*
X162500000Y-89500000D03*
D15*
X159000000Y-91150000D03*
X159000000Y-93650000D03*
D20*
X176750000Y-64000000D03*
X180050000Y-64000000D03*
X174350000Y-54000000D03*
X177650000Y-54000000D03*
D10*
X161100000Y-83550000D03*
X161100000Y-86250000D03*
X171800000Y-85500000D03*
X171800000Y-88200000D03*
X174850000Y-85500000D03*
X174850000Y-88200000D03*
X174600000Y-107350000D03*
X174600000Y-104650000D03*
X172100000Y-104650000D03*
X172100000Y-107350000D03*
D11*
X166250000Y-83100000D03*
X168950000Y-83100000D03*
X166150000Y-86100000D03*
X168850000Y-86100000D03*
D10*
X177600000Y-88200000D03*
X177600000Y-85500000D03*
X169550000Y-104650000D03*
X169550000Y-107350000D03*
X141000000Y-140650000D03*
X141000000Y-143350000D03*
X144000000Y-143350000D03*
X144000000Y-140650000D03*
X172000000Y-140650000D03*
X172000000Y-143350000D03*
D21*
X169840000Y-91448000D03*
X171110000Y-91448000D03*
X172380000Y-91448000D03*
X173650000Y-91448000D03*
X174920000Y-91448000D03*
X176190000Y-91448000D03*
X177460000Y-91448000D03*
X177460000Y-97798000D03*
X176190000Y-97798000D03*
X173650000Y-97798000D03*
X172380000Y-97798000D03*
X171110000Y-97798000D03*
X169840000Y-97798000D03*
X174920000Y-97798000D03*
X152730000Y-118952000D03*
X157810000Y-118952000D03*
X156540000Y-118952000D03*
X155270000Y-118952000D03*
X154000000Y-118952000D03*
X151460000Y-118952000D03*
X150190000Y-118952000D03*
X150190000Y-125302000D03*
X151460000Y-125302000D03*
X152730000Y-125302000D03*
X154000000Y-125302000D03*
X155270000Y-125302000D03*
X156540000Y-125302000D03*
X157810000Y-125302000D03*
D22*
X169475000Y-71525000D03*
X166125000Y-68475000D03*
X169475000Y-68475000D03*
X166125000Y-71525000D03*
D23*
X174100000Y-72280000D03*
X174100000Y-70000000D03*
X174100000Y-67720000D03*
D24*
X155250000Y-89400000D03*
X146750000Y-89400000D03*
M02*
