G04 #@! TF.GenerationSoftware,KiCad,Pcbnew,(5.1.4)-1*
G04 #@! TF.CreationDate,2019-09-13T11:08:06+01:00*
G04 #@! TF.ProjectId,oscar,6f736361-722e-46b6-9963-61645f706362,rev?*
G04 #@! TF.SameCoordinates,Original*
G04 #@! TF.FileFunction,Soldermask,Top*
G04 #@! TF.FilePolarity,Negative*
%FSLAX46Y46*%
G04 Gerber Fmt 4.6, Leading zero omitted, Abs format (unit mm)*
G04 Created by KiCad (PCBNEW (5.1.4)-1) date 2019-09-13 11:08:06*
%MOMM*%
%LPD*%
G04 APERTURE LIST*
%ADD10C,0.100000*%
G04 APERTURE END LIST*
D10*
G36*
X166301000Y-158031000D02*
G01*
X163699000Y-158031000D01*
X163699000Y-156929000D01*
X166301000Y-156929000D01*
X166301000Y-158031000D01*
X166301000Y-158031000D01*
G37*
G36*
X151301000Y-158031000D02*
G01*
X148699000Y-158031000D01*
X148699000Y-156929000D01*
X151301000Y-156929000D01*
X151301000Y-158031000D01*
X151301000Y-158031000D01*
G37*
G36*
X136301000Y-158031000D02*
G01*
X133699000Y-158031000D01*
X133699000Y-156929000D01*
X136301000Y-156929000D01*
X136301000Y-158031000D01*
X136301000Y-158031000D01*
G37*
G36*
X136301000Y-154931000D02*
G01*
X133699000Y-154931000D01*
X133699000Y-153829000D01*
X136301000Y-153829000D01*
X136301000Y-154931000D01*
X136301000Y-154931000D01*
G37*
G36*
X166301000Y-154931000D02*
G01*
X163699000Y-154931000D01*
X163699000Y-153829000D01*
X166301000Y-153829000D01*
X166301000Y-154931000D01*
X166301000Y-154931000D01*
G37*
G36*
X151301000Y-154931000D02*
G01*
X148699000Y-154931000D01*
X148699000Y-153829000D01*
X151301000Y-153829000D01*
X151301000Y-154931000D01*
X151301000Y-154931000D01*
G37*
G36*
X189556564Y-152239389D02*
G01*
X189747833Y-152318615D01*
X189747835Y-152318616D01*
X189919973Y-152433635D01*
X190066365Y-152580027D01*
X190181385Y-152752167D01*
X190260611Y-152943436D01*
X190301000Y-153146484D01*
X190301000Y-153353516D01*
X190260611Y-153556564D01*
X190181385Y-153747833D01*
X190181384Y-153747835D01*
X190066365Y-153919973D01*
X189919973Y-154066365D01*
X189747835Y-154181384D01*
X189747834Y-154181385D01*
X189747833Y-154181385D01*
X189556564Y-154260611D01*
X189353516Y-154301000D01*
X189146484Y-154301000D01*
X188943436Y-154260611D01*
X188752167Y-154181385D01*
X188752166Y-154181385D01*
X188752165Y-154181384D01*
X188580027Y-154066365D01*
X188433635Y-153919973D01*
X188318616Y-153747835D01*
X188318615Y-153747833D01*
X188239389Y-153556564D01*
X188199000Y-153353516D01*
X188199000Y-153146484D01*
X188239389Y-152943436D01*
X188318615Y-152752167D01*
X188433635Y-152580027D01*
X188580027Y-152433635D01*
X188752165Y-152318616D01*
X188752167Y-152318615D01*
X188943436Y-152239389D01*
X189146484Y-152199000D01*
X189353516Y-152199000D01*
X189556564Y-152239389D01*
X189556564Y-152239389D01*
G37*
G36*
X183056564Y-152239389D02*
G01*
X183247833Y-152318615D01*
X183247835Y-152318616D01*
X183419973Y-152433635D01*
X183566365Y-152580027D01*
X183681385Y-152752167D01*
X183760611Y-152943436D01*
X183801000Y-153146484D01*
X183801000Y-153353516D01*
X183760611Y-153556564D01*
X183681385Y-153747833D01*
X183681384Y-153747835D01*
X183566365Y-153919973D01*
X183419973Y-154066365D01*
X183247835Y-154181384D01*
X183247834Y-154181385D01*
X183247833Y-154181385D01*
X183056564Y-154260611D01*
X182853516Y-154301000D01*
X182646484Y-154301000D01*
X182443436Y-154260611D01*
X182252167Y-154181385D01*
X182252166Y-154181385D01*
X182252165Y-154181384D01*
X182080027Y-154066365D01*
X181933635Y-153919973D01*
X181818616Y-153747835D01*
X181818615Y-153747833D01*
X181739389Y-153556564D01*
X181699000Y-153353516D01*
X181699000Y-153146484D01*
X181739389Y-152943436D01*
X181818615Y-152752167D01*
X181933635Y-152580027D01*
X182080027Y-152433635D01*
X182252165Y-152318616D01*
X182252167Y-152318615D01*
X182443436Y-152239389D01*
X182646484Y-152199000D01*
X182853516Y-152199000D01*
X183056564Y-152239389D01*
X183056564Y-152239389D01*
G37*
G36*
X150379487Y-149748996D02*
G01*
X150616253Y-149847068D01*
X150616255Y-149847069D01*
X150829339Y-149989447D01*
X151010553Y-150170661D01*
X151152932Y-150383747D01*
X151251004Y-150620513D01*
X151301000Y-150871861D01*
X151301000Y-151128139D01*
X151251004Y-151379487D01*
X151152932Y-151616253D01*
X151152931Y-151616255D01*
X151010553Y-151829339D01*
X150829339Y-152010553D01*
X150616255Y-152152931D01*
X150616254Y-152152932D01*
X150616253Y-152152932D01*
X150379487Y-152251004D01*
X150128139Y-152301000D01*
X149871861Y-152301000D01*
X149620513Y-152251004D01*
X149383747Y-152152932D01*
X149383746Y-152152932D01*
X149383745Y-152152931D01*
X149170661Y-152010553D01*
X148989447Y-151829339D01*
X148847069Y-151616255D01*
X148847068Y-151616253D01*
X148748996Y-151379487D01*
X148699000Y-151128139D01*
X148699000Y-150871861D01*
X148748996Y-150620513D01*
X148847068Y-150383747D01*
X148989447Y-150170661D01*
X149170661Y-149989447D01*
X149383745Y-149847069D01*
X149383747Y-149847068D01*
X149620513Y-149748996D01*
X149871861Y-149699000D01*
X150128139Y-149699000D01*
X150379487Y-149748996D01*
X150379487Y-149748996D01*
G37*
G36*
X135379487Y-149748996D02*
G01*
X135616253Y-149847068D01*
X135616255Y-149847069D01*
X135829339Y-149989447D01*
X136010553Y-150170661D01*
X136152932Y-150383747D01*
X136251004Y-150620513D01*
X136301000Y-150871861D01*
X136301000Y-151128139D01*
X136251004Y-151379487D01*
X136152932Y-151616253D01*
X136152931Y-151616255D01*
X136010553Y-151829339D01*
X135829339Y-152010553D01*
X135616255Y-152152931D01*
X135616254Y-152152932D01*
X135616253Y-152152932D01*
X135379487Y-152251004D01*
X135128139Y-152301000D01*
X134871861Y-152301000D01*
X134620513Y-152251004D01*
X134383747Y-152152932D01*
X134383746Y-152152932D01*
X134383745Y-152152931D01*
X134170661Y-152010553D01*
X133989447Y-151829339D01*
X133847069Y-151616255D01*
X133847068Y-151616253D01*
X133748996Y-151379487D01*
X133699000Y-151128139D01*
X133699000Y-150871861D01*
X133748996Y-150620513D01*
X133847068Y-150383747D01*
X133989447Y-150170661D01*
X134170661Y-149989447D01*
X134383745Y-149847069D01*
X134383747Y-149847068D01*
X134620513Y-149748996D01*
X134871861Y-149699000D01*
X135128139Y-149699000D01*
X135379487Y-149748996D01*
X135379487Y-149748996D01*
G37*
G36*
X165379487Y-149748996D02*
G01*
X165616253Y-149847068D01*
X165616255Y-149847069D01*
X165829339Y-149989447D01*
X166010553Y-150170661D01*
X166152932Y-150383747D01*
X166251004Y-150620513D01*
X166301000Y-150871861D01*
X166301000Y-151128139D01*
X166251004Y-151379487D01*
X166152932Y-151616253D01*
X166152931Y-151616255D01*
X166010553Y-151829339D01*
X165829339Y-152010553D01*
X165616255Y-152152931D01*
X165616254Y-152152932D01*
X165616253Y-152152932D01*
X165379487Y-152251004D01*
X165128139Y-152301000D01*
X164871861Y-152301000D01*
X164620513Y-152251004D01*
X164383747Y-152152932D01*
X164383746Y-152152932D01*
X164383745Y-152152931D01*
X164170661Y-152010553D01*
X163989447Y-151829339D01*
X163847069Y-151616255D01*
X163847068Y-151616253D01*
X163748996Y-151379487D01*
X163699000Y-151128139D01*
X163699000Y-150871861D01*
X163748996Y-150620513D01*
X163847068Y-150383747D01*
X163989447Y-150170661D01*
X164170661Y-149989447D01*
X164383745Y-149847069D01*
X164383747Y-149847068D01*
X164620513Y-149748996D01*
X164871861Y-149699000D01*
X165128139Y-149699000D01*
X165379487Y-149748996D01*
X165379487Y-149748996D01*
G37*
G36*
X189556564Y-147739389D02*
G01*
X189747833Y-147818615D01*
X189747835Y-147818616D01*
X189919973Y-147933635D01*
X190066365Y-148080027D01*
X190181385Y-148252167D01*
X190260611Y-148443436D01*
X190301000Y-148646484D01*
X190301000Y-148853516D01*
X190260611Y-149056564D01*
X190181385Y-149247833D01*
X190181384Y-149247835D01*
X190066365Y-149419973D01*
X189919973Y-149566365D01*
X189747835Y-149681384D01*
X189747834Y-149681385D01*
X189747833Y-149681385D01*
X189556564Y-149760611D01*
X189353516Y-149801000D01*
X189146484Y-149801000D01*
X188943436Y-149760611D01*
X188752167Y-149681385D01*
X188752166Y-149681385D01*
X188752165Y-149681384D01*
X188580027Y-149566365D01*
X188433635Y-149419973D01*
X188318616Y-149247835D01*
X188318615Y-149247833D01*
X188239389Y-149056564D01*
X188199000Y-148853516D01*
X188199000Y-148646484D01*
X188239389Y-148443436D01*
X188318615Y-148252167D01*
X188433635Y-148080027D01*
X188580027Y-147933635D01*
X188752165Y-147818616D01*
X188752167Y-147818615D01*
X188943436Y-147739389D01*
X189146484Y-147699000D01*
X189353516Y-147699000D01*
X189556564Y-147739389D01*
X189556564Y-147739389D01*
G37*
G36*
X183056564Y-147739389D02*
G01*
X183247833Y-147818615D01*
X183247835Y-147818616D01*
X183419973Y-147933635D01*
X183566365Y-148080027D01*
X183681385Y-148252167D01*
X183760611Y-148443436D01*
X183801000Y-148646484D01*
X183801000Y-148853516D01*
X183760611Y-149056564D01*
X183681385Y-149247833D01*
X183681384Y-149247835D01*
X183566365Y-149419973D01*
X183419973Y-149566365D01*
X183247835Y-149681384D01*
X183247834Y-149681385D01*
X183247833Y-149681385D01*
X183056564Y-149760611D01*
X182853516Y-149801000D01*
X182646484Y-149801000D01*
X182443436Y-149760611D01*
X182252167Y-149681385D01*
X182252166Y-149681385D01*
X182252165Y-149681384D01*
X182080027Y-149566365D01*
X181933635Y-149419973D01*
X181818616Y-149247835D01*
X181818615Y-149247833D01*
X181739389Y-149056564D01*
X181699000Y-148853516D01*
X181699000Y-148646484D01*
X181739389Y-148443436D01*
X181818615Y-148252167D01*
X181933635Y-148080027D01*
X182080027Y-147933635D01*
X182252165Y-147818616D01*
X182252167Y-147818615D01*
X182443436Y-147739389D01*
X182646484Y-147699000D01*
X182853516Y-147699000D01*
X183056564Y-147739389D01*
X183056564Y-147739389D01*
G37*
G36*
X166301000Y-146631000D02*
G01*
X163699000Y-146631000D01*
X163699000Y-145529000D01*
X166301000Y-145529000D01*
X166301000Y-146631000D01*
X166301000Y-146631000D01*
G37*
G36*
X136301000Y-146631000D02*
G01*
X133699000Y-146631000D01*
X133699000Y-145529000D01*
X136301000Y-145529000D01*
X136301000Y-146631000D01*
X136301000Y-146631000D01*
G37*
G36*
X151301000Y-146631000D02*
G01*
X148699000Y-146631000D01*
X148699000Y-145529000D01*
X151301000Y-145529000D01*
X151301000Y-146631000D01*
X151301000Y-146631000D01*
G37*
G36*
X166301000Y-144031000D02*
G01*
X163699000Y-144031000D01*
X163699000Y-142929000D01*
X166301000Y-142929000D01*
X166301000Y-144031000D01*
X166301000Y-144031000D01*
G37*
G36*
X136301000Y-144031000D02*
G01*
X133699000Y-144031000D01*
X133699000Y-142929000D01*
X136301000Y-142929000D01*
X136301000Y-144031000D01*
X136301000Y-144031000D01*
G37*
G36*
X187301000Y-144031000D02*
G01*
X184699000Y-144031000D01*
X184699000Y-142929000D01*
X187301000Y-142929000D01*
X187301000Y-144031000D01*
X187301000Y-144031000D01*
G37*
G36*
X151301000Y-144031000D02*
G01*
X148699000Y-144031000D01*
X148699000Y-142929000D01*
X151301000Y-142929000D01*
X151301000Y-144031000D01*
X151301000Y-144031000D01*
G37*
G36*
X136301000Y-140931000D02*
G01*
X133699000Y-140931000D01*
X133699000Y-139829000D01*
X136301000Y-139829000D01*
X136301000Y-140931000D01*
X136301000Y-140931000D01*
G37*
G36*
X151301000Y-140931000D02*
G01*
X148699000Y-140931000D01*
X148699000Y-139829000D01*
X151301000Y-139829000D01*
X151301000Y-140931000D01*
X151301000Y-140931000D01*
G37*
G36*
X187301000Y-140931000D02*
G01*
X184699000Y-140931000D01*
X184699000Y-139829000D01*
X187301000Y-139829000D01*
X187301000Y-140931000D01*
X187301000Y-140931000D01*
G37*
G36*
X166301000Y-140931000D02*
G01*
X163699000Y-140931000D01*
X163699000Y-139829000D01*
X166301000Y-139829000D01*
X166301000Y-140931000D01*
X166301000Y-140931000D01*
G37*
G36*
X135379487Y-135748996D02*
G01*
X135616253Y-135847068D01*
X135616255Y-135847069D01*
X135829339Y-135989447D01*
X136010553Y-136170661D01*
X136152932Y-136383747D01*
X136251004Y-136620513D01*
X136301000Y-136871861D01*
X136301000Y-137128139D01*
X136251004Y-137379487D01*
X136152932Y-137616253D01*
X136152931Y-137616255D01*
X136010553Y-137829339D01*
X135829339Y-138010553D01*
X135616255Y-138152931D01*
X135616254Y-138152932D01*
X135616253Y-138152932D01*
X135379487Y-138251004D01*
X135128139Y-138301000D01*
X134871861Y-138301000D01*
X134620513Y-138251004D01*
X134383747Y-138152932D01*
X134383746Y-138152932D01*
X134383745Y-138152931D01*
X134170661Y-138010553D01*
X133989447Y-137829339D01*
X133847069Y-137616255D01*
X133847068Y-137616253D01*
X133748996Y-137379487D01*
X133699000Y-137128139D01*
X133699000Y-136871861D01*
X133748996Y-136620513D01*
X133847068Y-136383747D01*
X133989447Y-136170661D01*
X134170661Y-135989447D01*
X134383745Y-135847069D01*
X134383747Y-135847068D01*
X134620513Y-135748996D01*
X134871861Y-135699000D01*
X135128139Y-135699000D01*
X135379487Y-135748996D01*
X135379487Y-135748996D01*
G37*
G36*
X186379487Y-135748996D02*
G01*
X186616253Y-135847068D01*
X186616255Y-135847069D01*
X186829339Y-135989447D01*
X187010553Y-136170661D01*
X187152932Y-136383747D01*
X187251004Y-136620513D01*
X187301000Y-136871861D01*
X187301000Y-137128139D01*
X187251004Y-137379487D01*
X187152932Y-137616253D01*
X187152931Y-137616255D01*
X187010553Y-137829339D01*
X186829339Y-138010553D01*
X186616255Y-138152931D01*
X186616254Y-138152932D01*
X186616253Y-138152932D01*
X186379487Y-138251004D01*
X186128139Y-138301000D01*
X185871861Y-138301000D01*
X185620513Y-138251004D01*
X185383747Y-138152932D01*
X185383746Y-138152932D01*
X185383745Y-138152931D01*
X185170661Y-138010553D01*
X184989447Y-137829339D01*
X184847069Y-137616255D01*
X184847068Y-137616253D01*
X184748996Y-137379487D01*
X184699000Y-137128139D01*
X184699000Y-136871861D01*
X184748996Y-136620513D01*
X184847068Y-136383747D01*
X184989447Y-136170661D01*
X185170661Y-135989447D01*
X185383745Y-135847069D01*
X185383747Y-135847068D01*
X185620513Y-135748996D01*
X185871861Y-135699000D01*
X186128139Y-135699000D01*
X186379487Y-135748996D01*
X186379487Y-135748996D01*
G37*
G36*
X165379487Y-135748996D02*
G01*
X165616253Y-135847068D01*
X165616255Y-135847069D01*
X165829339Y-135989447D01*
X166010553Y-136170661D01*
X166152932Y-136383747D01*
X166251004Y-136620513D01*
X166301000Y-136871861D01*
X166301000Y-137128139D01*
X166251004Y-137379487D01*
X166152932Y-137616253D01*
X166152931Y-137616255D01*
X166010553Y-137829339D01*
X165829339Y-138010553D01*
X165616255Y-138152931D01*
X165616254Y-138152932D01*
X165616253Y-138152932D01*
X165379487Y-138251004D01*
X165128139Y-138301000D01*
X164871861Y-138301000D01*
X164620513Y-138251004D01*
X164383747Y-138152932D01*
X164383746Y-138152932D01*
X164383745Y-138152931D01*
X164170661Y-138010553D01*
X163989447Y-137829339D01*
X163847069Y-137616255D01*
X163847068Y-137616253D01*
X163748996Y-137379487D01*
X163699000Y-137128139D01*
X163699000Y-136871861D01*
X163748996Y-136620513D01*
X163847068Y-136383747D01*
X163989447Y-136170661D01*
X164170661Y-135989447D01*
X164383745Y-135847069D01*
X164383747Y-135847068D01*
X164620513Y-135748996D01*
X164871861Y-135699000D01*
X165128139Y-135699000D01*
X165379487Y-135748996D01*
X165379487Y-135748996D01*
G37*
G36*
X150379487Y-135748996D02*
G01*
X150616253Y-135847068D01*
X150616255Y-135847069D01*
X150829339Y-135989447D01*
X151010553Y-136170661D01*
X151152932Y-136383747D01*
X151251004Y-136620513D01*
X151301000Y-136871861D01*
X151301000Y-137128139D01*
X151251004Y-137379487D01*
X151152932Y-137616253D01*
X151152931Y-137616255D01*
X151010553Y-137829339D01*
X150829339Y-138010553D01*
X150616255Y-138152931D01*
X150616254Y-138152932D01*
X150616253Y-138152932D01*
X150379487Y-138251004D01*
X150128139Y-138301000D01*
X149871861Y-138301000D01*
X149620513Y-138251004D01*
X149383747Y-138152932D01*
X149383746Y-138152932D01*
X149383745Y-138152931D01*
X149170661Y-138010553D01*
X148989447Y-137829339D01*
X148847069Y-137616255D01*
X148847068Y-137616253D01*
X148748996Y-137379487D01*
X148699000Y-137128139D01*
X148699000Y-136871861D01*
X148748996Y-136620513D01*
X148847068Y-136383747D01*
X148989447Y-136170661D01*
X149170661Y-135989447D01*
X149383745Y-135847069D01*
X149383747Y-135847068D01*
X149620513Y-135748996D01*
X149871861Y-135699000D01*
X150128139Y-135699000D01*
X150379487Y-135748996D01*
X150379487Y-135748996D01*
G37*
G36*
X166301000Y-132631000D02*
G01*
X163699000Y-132631000D01*
X163699000Y-131529000D01*
X166301000Y-131529000D01*
X166301000Y-132631000D01*
X166301000Y-132631000D01*
G37*
G36*
X136301000Y-132631000D02*
G01*
X133699000Y-132631000D01*
X133699000Y-131529000D01*
X136301000Y-131529000D01*
X136301000Y-132631000D01*
X136301000Y-132631000D01*
G37*
G36*
X151301000Y-132631000D02*
G01*
X148699000Y-132631000D01*
X148699000Y-131529000D01*
X151301000Y-131529000D01*
X151301000Y-132631000D01*
X151301000Y-132631000D01*
G37*
G36*
X187301000Y-132631000D02*
G01*
X184699000Y-132631000D01*
X184699000Y-131529000D01*
X187301000Y-131529000D01*
X187301000Y-132631000D01*
X187301000Y-132631000D01*
G37*
G36*
X133770104Y-120609585D02*
G01*
X133938626Y-120679389D01*
X134090291Y-120780728D01*
X134219272Y-120909709D01*
X134320611Y-121061374D01*
X134390415Y-121229896D01*
X134426000Y-121408797D01*
X134426000Y-121591203D01*
X134390415Y-121770104D01*
X134320611Y-121938626D01*
X134219272Y-122090291D01*
X134090291Y-122219272D01*
X133938626Y-122320611D01*
X133770104Y-122390415D01*
X133591203Y-122426000D01*
X133408797Y-122426000D01*
X133229896Y-122390415D01*
X133061374Y-122320611D01*
X132909709Y-122219272D01*
X132780728Y-122090291D01*
X132679389Y-121938626D01*
X132609585Y-121770104D01*
X132574000Y-121591203D01*
X132574000Y-121408797D01*
X132609585Y-121229896D01*
X132679389Y-121061374D01*
X132780728Y-120909709D01*
X132909709Y-120780728D01*
X133061374Y-120679389D01*
X133229896Y-120609585D01*
X133408797Y-120574000D01*
X133591203Y-120574000D01*
X133770104Y-120609585D01*
X133770104Y-120609585D01*
G37*
G36*
X136270104Y-120609585D02*
G01*
X136438626Y-120679389D01*
X136590291Y-120780728D01*
X136719272Y-120909709D01*
X136820611Y-121061374D01*
X136890415Y-121229896D01*
X136926000Y-121408797D01*
X136926000Y-121591203D01*
X136890415Y-121770104D01*
X136820611Y-121938626D01*
X136719272Y-122090291D01*
X136590291Y-122219272D01*
X136438626Y-122320611D01*
X136270104Y-122390415D01*
X136091203Y-122426000D01*
X135908797Y-122426000D01*
X135729896Y-122390415D01*
X135561374Y-122320611D01*
X135409709Y-122219272D01*
X135280728Y-122090291D01*
X135179389Y-121938626D01*
X135109585Y-121770104D01*
X135074000Y-121591203D01*
X135074000Y-121408797D01*
X135109585Y-121229896D01*
X135179389Y-121061374D01*
X135280728Y-120909709D01*
X135409709Y-120780728D01*
X135561374Y-120679389D01*
X135729896Y-120609585D01*
X135908797Y-120574000D01*
X136091203Y-120574000D01*
X136270104Y-120609585D01*
X136270104Y-120609585D01*
G37*
G36*
X138770104Y-120609585D02*
G01*
X138938626Y-120679389D01*
X139090291Y-120780728D01*
X139219272Y-120909709D01*
X139320611Y-121061374D01*
X139390415Y-121229896D01*
X139426000Y-121408797D01*
X139426000Y-121591203D01*
X139390415Y-121770104D01*
X139320611Y-121938626D01*
X139219272Y-122090291D01*
X139090291Y-122219272D01*
X138938626Y-122320611D01*
X138770104Y-122390415D01*
X138591203Y-122426000D01*
X138408797Y-122426000D01*
X138229896Y-122390415D01*
X138061374Y-122320611D01*
X137909709Y-122219272D01*
X137780728Y-122090291D01*
X137679389Y-121938626D01*
X137609585Y-121770104D01*
X137574000Y-121591203D01*
X137574000Y-121408797D01*
X137609585Y-121229896D01*
X137679389Y-121061374D01*
X137780728Y-120909709D01*
X137909709Y-120780728D01*
X138061374Y-120679389D01*
X138229896Y-120609585D01*
X138408797Y-120574000D01*
X138591203Y-120574000D01*
X138770104Y-120609585D01*
X138770104Y-120609585D01*
G37*
G36*
X181770104Y-120609585D02*
G01*
X181938626Y-120679389D01*
X182090291Y-120780728D01*
X182219272Y-120909709D01*
X182320611Y-121061374D01*
X182390415Y-121229896D01*
X182426000Y-121408797D01*
X182426000Y-121591203D01*
X182390415Y-121770104D01*
X182320611Y-121938626D01*
X182219272Y-122090291D01*
X182090291Y-122219272D01*
X181938626Y-122320611D01*
X181770104Y-122390415D01*
X181591203Y-122426000D01*
X181408797Y-122426000D01*
X181229896Y-122390415D01*
X181061374Y-122320611D01*
X180909709Y-122219272D01*
X180780728Y-122090291D01*
X180679389Y-121938626D01*
X180609585Y-121770104D01*
X180574000Y-121591203D01*
X180574000Y-121408797D01*
X180609585Y-121229896D01*
X180679389Y-121061374D01*
X180780728Y-120909709D01*
X180909709Y-120780728D01*
X181061374Y-120679389D01*
X181229896Y-120609585D01*
X181408797Y-120574000D01*
X181591203Y-120574000D01*
X181770104Y-120609585D01*
X181770104Y-120609585D01*
G37*
G36*
X184270104Y-120609585D02*
G01*
X184438626Y-120679389D01*
X184590291Y-120780728D01*
X184719272Y-120909709D01*
X184820611Y-121061374D01*
X184890415Y-121229896D01*
X184926000Y-121408797D01*
X184926000Y-121591203D01*
X184890415Y-121770104D01*
X184820611Y-121938626D01*
X184719272Y-122090291D01*
X184590291Y-122219272D01*
X184438626Y-122320611D01*
X184270104Y-122390415D01*
X184091203Y-122426000D01*
X183908797Y-122426000D01*
X183729896Y-122390415D01*
X183561374Y-122320611D01*
X183409709Y-122219272D01*
X183280728Y-122090291D01*
X183179389Y-121938626D01*
X183109585Y-121770104D01*
X183074000Y-121591203D01*
X183074000Y-121408797D01*
X183109585Y-121229896D01*
X183179389Y-121061374D01*
X183280728Y-120909709D01*
X183409709Y-120780728D01*
X183561374Y-120679389D01*
X183729896Y-120609585D01*
X183908797Y-120574000D01*
X184091203Y-120574000D01*
X184270104Y-120609585D01*
X184270104Y-120609585D01*
G37*
G36*
X186770104Y-120609585D02*
G01*
X186938626Y-120679389D01*
X187090291Y-120780728D01*
X187219272Y-120909709D01*
X187320611Y-121061374D01*
X187390415Y-121229896D01*
X187426000Y-121408797D01*
X187426000Y-121591203D01*
X187390415Y-121770104D01*
X187320611Y-121938626D01*
X187219272Y-122090291D01*
X187090291Y-122219272D01*
X186938626Y-122320611D01*
X186770104Y-122390415D01*
X186591203Y-122426000D01*
X186408797Y-122426000D01*
X186229896Y-122390415D01*
X186061374Y-122320611D01*
X185909709Y-122219272D01*
X185780728Y-122090291D01*
X185679389Y-121938626D01*
X185609585Y-121770104D01*
X185574000Y-121591203D01*
X185574000Y-121408797D01*
X185609585Y-121229896D01*
X185679389Y-121061374D01*
X185780728Y-120909709D01*
X185909709Y-120780728D01*
X186061374Y-120679389D01*
X186229896Y-120609585D01*
X186408797Y-120574000D01*
X186591203Y-120574000D01*
X186770104Y-120609585D01*
X186770104Y-120609585D01*
G37*
G36*
X190401189Y-111958892D02*
G01*
X190602066Y-111978677D01*
X190988681Y-112095955D01*
X190988684Y-112095956D01*
X191344983Y-112286402D01*
X191344986Y-112286404D01*
X191344987Y-112286405D01*
X191657293Y-112542707D01*
X191913595Y-112855013D01*
X191913598Y-112855017D01*
X192104044Y-113211316D01*
X192104045Y-113211319D01*
X192221323Y-113597934D01*
X192260923Y-114000000D01*
X192221323Y-114402066D01*
X192189726Y-114506227D01*
X192104044Y-114788684D01*
X191913598Y-115144983D01*
X191913596Y-115144986D01*
X191913595Y-115144987D01*
X191657293Y-115457293D01*
X191344987Y-115713595D01*
X191344983Y-115713598D01*
X190988684Y-115904044D01*
X190988681Y-115904045D01*
X190602066Y-116021323D01*
X190401189Y-116041108D01*
X190300751Y-116051000D01*
X190099249Y-116051000D01*
X189998811Y-116041108D01*
X189797934Y-116021323D01*
X189411319Y-115904045D01*
X189411316Y-115904044D01*
X189055017Y-115713598D01*
X189055013Y-115713595D01*
X188742707Y-115457293D01*
X188486405Y-115144987D01*
X188486404Y-115144986D01*
X188486402Y-115144983D01*
X188295956Y-114788684D01*
X188210274Y-114506227D01*
X188178677Y-114402066D01*
X188139077Y-114000000D01*
X188178677Y-113597934D01*
X188295955Y-113211319D01*
X188295956Y-113211316D01*
X188486402Y-112855017D01*
X188486405Y-112855013D01*
X188742707Y-112542707D01*
X189055013Y-112286405D01*
X189055014Y-112286404D01*
X189055017Y-112286402D01*
X189411316Y-112095956D01*
X189411319Y-112095955D01*
X189797934Y-111978677D01*
X189998811Y-111958892D01*
X190099249Y-111949000D01*
X190300751Y-111949000D01*
X190401189Y-111958892D01*
X190401189Y-111958892D01*
G37*
G36*
X142401189Y-111958892D02*
G01*
X142602066Y-111978677D01*
X142988681Y-112095955D01*
X142988684Y-112095956D01*
X143344983Y-112286402D01*
X143344986Y-112286404D01*
X143344987Y-112286405D01*
X143657293Y-112542707D01*
X143913595Y-112855013D01*
X143913598Y-112855017D01*
X144104044Y-113211316D01*
X144104045Y-113211319D01*
X144221323Y-113597934D01*
X144260923Y-114000000D01*
X144221323Y-114402066D01*
X144189726Y-114506227D01*
X144104044Y-114788684D01*
X143913598Y-115144983D01*
X143913596Y-115144986D01*
X143913595Y-115144987D01*
X143657293Y-115457293D01*
X143344987Y-115713595D01*
X143344983Y-115713598D01*
X142988684Y-115904044D01*
X142988681Y-115904045D01*
X142602066Y-116021323D01*
X142401189Y-116041108D01*
X142300751Y-116051000D01*
X142099249Y-116051000D01*
X141998811Y-116041108D01*
X141797934Y-116021323D01*
X141411319Y-115904045D01*
X141411316Y-115904044D01*
X141055017Y-115713598D01*
X141055013Y-115713595D01*
X140742707Y-115457293D01*
X140486405Y-115144987D01*
X140486404Y-115144986D01*
X140486402Y-115144983D01*
X140295956Y-114788684D01*
X140210274Y-114506227D01*
X140178677Y-114402066D01*
X140139077Y-114000000D01*
X140178677Y-113597934D01*
X140295955Y-113211319D01*
X140295956Y-113211316D01*
X140486402Y-112855017D01*
X140486405Y-112855013D01*
X140742707Y-112542707D01*
X141055013Y-112286405D01*
X141055014Y-112286404D01*
X141055017Y-112286402D01*
X141411316Y-112095956D01*
X141411319Y-112095955D01*
X141797934Y-111978677D01*
X141998811Y-111958892D01*
X142099249Y-111949000D01*
X142300751Y-111949000D01*
X142401189Y-111958892D01*
X142401189Y-111958892D01*
G37*
G36*
X130001189Y-111958892D02*
G01*
X130202066Y-111978677D01*
X130588681Y-112095955D01*
X130588684Y-112095956D01*
X130944983Y-112286402D01*
X130944986Y-112286404D01*
X130944987Y-112286405D01*
X131257293Y-112542707D01*
X131513595Y-112855013D01*
X131513598Y-112855017D01*
X131704044Y-113211316D01*
X131704045Y-113211319D01*
X131821323Y-113597934D01*
X131860923Y-114000000D01*
X131821323Y-114402066D01*
X131789726Y-114506227D01*
X131704044Y-114788684D01*
X131513598Y-115144983D01*
X131513596Y-115144986D01*
X131513595Y-115144987D01*
X131257293Y-115457293D01*
X130944987Y-115713595D01*
X130944983Y-115713598D01*
X130588684Y-115904044D01*
X130588681Y-115904045D01*
X130202066Y-116021323D01*
X130001189Y-116041108D01*
X129900751Y-116051000D01*
X129699249Y-116051000D01*
X129598811Y-116041108D01*
X129397934Y-116021323D01*
X129011319Y-115904045D01*
X129011316Y-115904044D01*
X128655017Y-115713598D01*
X128655013Y-115713595D01*
X128342707Y-115457293D01*
X128086405Y-115144987D01*
X128086404Y-115144986D01*
X128086402Y-115144983D01*
X127895956Y-114788684D01*
X127810274Y-114506227D01*
X127778677Y-114402066D01*
X127739077Y-114000000D01*
X127778677Y-113597934D01*
X127895955Y-113211319D01*
X127895956Y-113211316D01*
X128086402Y-112855017D01*
X128086405Y-112855013D01*
X128342707Y-112542707D01*
X128655013Y-112286405D01*
X128655014Y-112286404D01*
X128655017Y-112286402D01*
X129011316Y-112095956D01*
X129011319Y-112095955D01*
X129397934Y-111978677D01*
X129598811Y-111958892D01*
X129699249Y-111949000D01*
X129900751Y-111949000D01*
X130001189Y-111958892D01*
X130001189Y-111958892D01*
G37*
G36*
X178001189Y-111958892D02*
G01*
X178202066Y-111978677D01*
X178588681Y-112095955D01*
X178588684Y-112095956D01*
X178944983Y-112286402D01*
X178944986Y-112286404D01*
X178944987Y-112286405D01*
X179257293Y-112542707D01*
X179513595Y-112855013D01*
X179513598Y-112855017D01*
X179704044Y-113211316D01*
X179704045Y-113211319D01*
X179821323Y-113597934D01*
X179860923Y-114000000D01*
X179821323Y-114402066D01*
X179789726Y-114506227D01*
X179704044Y-114788684D01*
X179513598Y-115144983D01*
X179513596Y-115144986D01*
X179513595Y-115144987D01*
X179257293Y-115457293D01*
X178944987Y-115713595D01*
X178944983Y-115713598D01*
X178588684Y-115904044D01*
X178588681Y-115904045D01*
X178202066Y-116021323D01*
X178001189Y-116041108D01*
X177900751Y-116051000D01*
X177699249Y-116051000D01*
X177598811Y-116041108D01*
X177397934Y-116021323D01*
X177011319Y-115904045D01*
X177011316Y-115904044D01*
X176655017Y-115713598D01*
X176655013Y-115713595D01*
X176342707Y-115457293D01*
X176086405Y-115144987D01*
X176086404Y-115144986D01*
X176086402Y-115144983D01*
X175895956Y-114788684D01*
X175810274Y-114506227D01*
X175778677Y-114402066D01*
X175739077Y-114000000D01*
X175778677Y-113597934D01*
X175895955Y-113211319D01*
X175895956Y-113211316D01*
X176086402Y-112855017D01*
X176086405Y-112855013D01*
X176342707Y-112542707D01*
X176655013Y-112286405D01*
X176655014Y-112286404D01*
X176655017Y-112286402D01*
X177011316Y-112095956D01*
X177011319Y-112095955D01*
X177397934Y-111978677D01*
X177598811Y-111958892D01*
X177699249Y-111949000D01*
X177900751Y-111949000D01*
X178001189Y-111958892D01*
X178001189Y-111958892D01*
G37*
G36*
X157251000Y-114851000D02*
G01*
X155349000Y-114851000D01*
X155349000Y-112949000D01*
X157251000Y-112949000D01*
X157251000Y-114851000D01*
X157251000Y-114851000D01*
G37*
G36*
X159117395Y-112985546D02*
G01*
X159290466Y-113057234D01*
X159290467Y-113057235D01*
X159446227Y-113161310D01*
X159578690Y-113293773D01*
X159578691Y-113293775D01*
X159682766Y-113449534D01*
X159754454Y-113622605D01*
X159791000Y-113806333D01*
X159791000Y-113993667D01*
X159754454Y-114177395D01*
X159682766Y-114350466D01*
X159682765Y-114350467D01*
X159578690Y-114506227D01*
X159446227Y-114638690D01*
X159367818Y-114691081D01*
X159290466Y-114742766D01*
X159117395Y-114814454D01*
X158933667Y-114851000D01*
X158746333Y-114851000D01*
X158562605Y-114814454D01*
X158389534Y-114742766D01*
X158312182Y-114691081D01*
X158233773Y-114638690D01*
X158101310Y-114506227D01*
X157997235Y-114350467D01*
X157997234Y-114350466D01*
X157925546Y-114177395D01*
X157889000Y-113993667D01*
X157889000Y-113806333D01*
X157925546Y-113622605D01*
X157997234Y-113449534D01*
X158101309Y-113293775D01*
X158101310Y-113293773D01*
X158233773Y-113161310D01*
X158389533Y-113057235D01*
X158389534Y-113057234D01*
X158562605Y-112985546D01*
X158746333Y-112949000D01*
X158933667Y-112949000D01*
X159117395Y-112985546D01*
X159117395Y-112985546D01*
G37*
G36*
X138770104Y-106109585D02*
G01*
X138938626Y-106179389D01*
X139090291Y-106280728D01*
X139219272Y-106409709D01*
X139320611Y-106561374D01*
X139390415Y-106729896D01*
X139426000Y-106908797D01*
X139426000Y-107091203D01*
X139390415Y-107270104D01*
X139320611Y-107438626D01*
X139219272Y-107590291D01*
X139090291Y-107719272D01*
X138938626Y-107820611D01*
X138770104Y-107890415D01*
X138591203Y-107926000D01*
X138408797Y-107926000D01*
X138229896Y-107890415D01*
X138061374Y-107820611D01*
X137909709Y-107719272D01*
X137780728Y-107590291D01*
X137679389Y-107438626D01*
X137609585Y-107270104D01*
X137574000Y-107091203D01*
X137574000Y-106908797D01*
X137609585Y-106729896D01*
X137679389Y-106561374D01*
X137780728Y-106409709D01*
X137909709Y-106280728D01*
X138061374Y-106179389D01*
X138229896Y-106109585D01*
X138408797Y-106074000D01*
X138591203Y-106074000D01*
X138770104Y-106109585D01*
X138770104Y-106109585D01*
G37*
G36*
X181770104Y-106109585D02*
G01*
X181938626Y-106179389D01*
X182090291Y-106280728D01*
X182219272Y-106409709D01*
X182320611Y-106561374D01*
X182390415Y-106729896D01*
X182426000Y-106908797D01*
X182426000Y-107091203D01*
X182390415Y-107270104D01*
X182320611Y-107438626D01*
X182219272Y-107590291D01*
X182090291Y-107719272D01*
X181938626Y-107820611D01*
X181770104Y-107890415D01*
X181591203Y-107926000D01*
X181408797Y-107926000D01*
X181229896Y-107890415D01*
X181061374Y-107820611D01*
X180909709Y-107719272D01*
X180780728Y-107590291D01*
X180679389Y-107438626D01*
X180609585Y-107270104D01*
X180574000Y-107091203D01*
X180574000Y-106908797D01*
X180609585Y-106729896D01*
X180679389Y-106561374D01*
X180780728Y-106409709D01*
X180909709Y-106280728D01*
X181061374Y-106179389D01*
X181229896Y-106109585D01*
X181408797Y-106074000D01*
X181591203Y-106074000D01*
X181770104Y-106109585D01*
X181770104Y-106109585D01*
G37*
G36*
X133770104Y-106109585D02*
G01*
X133938626Y-106179389D01*
X134090291Y-106280728D01*
X134219272Y-106409709D01*
X134320611Y-106561374D01*
X134390415Y-106729896D01*
X134426000Y-106908797D01*
X134426000Y-107091203D01*
X134390415Y-107270104D01*
X134320611Y-107438626D01*
X134219272Y-107590291D01*
X134090291Y-107719272D01*
X133938626Y-107820611D01*
X133770104Y-107890415D01*
X133591203Y-107926000D01*
X133408797Y-107926000D01*
X133229896Y-107890415D01*
X133061374Y-107820611D01*
X132909709Y-107719272D01*
X132780728Y-107590291D01*
X132679389Y-107438626D01*
X132609585Y-107270104D01*
X132574000Y-107091203D01*
X132574000Y-106908797D01*
X132609585Y-106729896D01*
X132679389Y-106561374D01*
X132780728Y-106409709D01*
X132909709Y-106280728D01*
X133061374Y-106179389D01*
X133229896Y-106109585D01*
X133408797Y-106074000D01*
X133591203Y-106074000D01*
X133770104Y-106109585D01*
X133770104Y-106109585D01*
G37*
G36*
X186770104Y-106109585D02*
G01*
X186938626Y-106179389D01*
X187090291Y-106280728D01*
X187219272Y-106409709D01*
X187320611Y-106561374D01*
X187390415Y-106729896D01*
X187426000Y-106908797D01*
X187426000Y-107091203D01*
X187390415Y-107270104D01*
X187320611Y-107438626D01*
X187219272Y-107590291D01*
X187090291Y-107719272D01*
X186938626Y-107820611D01*
X186770104Y-107890415D01*
X186591203Y-107926000D01*
X186408797Y-107926000D01*
X186229896Y-107890415D01*
X186061374Y-107820611D01*
X185909709Y-107719272D01*
X185780728Y-107590291D01*
X185679389Y-107438626D01*
X185609585Y-107270104D01*
X185574000Y-107091203D01*
X185574000Y-106908797D01*
X185609585Y-106729896D01*
X185679389Y-106561374D01*
X185780728Y-106409709D01*
X185909709Y-106280728D01*
X186061374Y-106179389D01*
X186229896Y-106109585D01*
X186408797Y-106074000D01*
X186591203Y-106074000D01*
X186770104Y-106109585D01*
X186770104Y-106109585D01*
G37*
G36*
X135301000Y-100601000D02*
G01*
X133499000Y-100601000D01*
X133499000Y-98799000D01*
X135301000Y-98799000D01*
X135301000Y-100601000D01*
X135301000Y-100601000D01*
G37*
G36*
X134513512Y-96263927D02*
G01*
X134662812Y-96293624D01*
X134826784Y-96361544D01*
X134974354Y-96460147D01*
X135099853Y-96585646D01*
X135198456Y-96733216D01*
X135266376Y-96897188D01*
X135301000Y-97071259D01*
X135301000Y-97248741D01*
X135266376Y-97422812D01*
X135198456Y-97586784D01*
X135099853Y-97734354D01*
X134974354Y-97859853D01*
X134826784Y-97958456D01*
X134662812Y-98026376D01*
X134513512Y-98056073D01*
X134488742Y-98061000D01*
X134311258Y-98061000D01*
X134286488Y-98056073D01*
X134137188Y-98026376D01*
X133973216Y-97958456D01*
X133825646Y-97859853D01*
X133700147Y-97734354D01*
X133601544Y-97586784D01*
X133533624Y-97422812D01*
X133499000Y-97248741D01*
X133499000Y-97071259D01*
X133533624Y-96897188D01*
X133601544Y-96733216D01*
X133700147Y-96585646D01*
X133825646Y-96460147D01*
X133973216Y-96361544D01*
X134137188Y-96293624D01*
X134286488Y-96263927D01*
X134311258Y-96259000D01*
X134488742Y-96259000D01*
X134513512Y-96263927D01*
X134513512Y-96263927D01*
G37*
G36*
X134513512Y-93723927D02*
G01*
X134662812Y-93753624D01*
X134826784Y-93821544D01*
X134974354Y-93920147D01*
X135099853Y-94045646D01*
X135198456Y-94193216D01*
X135266376Y-94357188D01*
X135301000Y-94531259D01*
X135301000Y-94708741D01*
X135266376Y-94882812D01*
X135198456Y-95046784D01*
X135099853Y-95194354D01*
X134974354Y-95319853D01*
X134826784Y-95418456D01*
X134662812Y-95486376D01*
X134513512Y-95516073D01*
X134488742Y-95521000D01*
X134311258Y-95521000D01*
X134286488Y-95516073D01*
X134137188Y-95486376D01*
X133973216Y-95418456D01*
X133825646Y-95319853D01*
X133700147Y-95194354D01*
X133601544Y-95046784D01*
X133533624Y-94882812D01*
X133499000Y-94708741D01*
X133499000Y-94531259D01*
X133533624Y-94357188D01*
X133601544Y-94193216D01*
X133700147Y-94045646D01*
X133825646Y-93920147D01*
X133973216Y-93821544D01*
X134137188Y-93753624D01*
X134286488Y-93723927D01*
X134311258Y-93719000D01*
X134488742Y-93719000D01*
X134513512Y-93723927D01*
X134513512Y-93723927D01*
G37*
G36*
X134513512Y-91183927D02*
G01*
X134662812Y-91213624D01*
X134826784Y-91281544D01*
X134974354Y-91380147D01*
X135099853Y-91505646D01*
X135198456Y-91653216D01*
X135266376Y-91817188D01*
X135301000Y-91991259D01*
X135301000Y-92168741D01*
X135266376Y-92342812D01*
X135198456Y-92506784D01*
X135099853Y-92654354D01*
X134974354Y-92779853D01*
X134826784Y-92878456D01*
X134662812Y-92946376D01*
X134513512Y-92976073D01*
X134488742Y-92981000D01*
X134311258Y-92981000D01*
X134286488Y-92976073D01*
X134137188Y-92946376D01*
X133973216Y-92878456D01*
X133825646Y-92779853D01*
X133700147Y-92654354D01*
X133601544Y-92506784D01*
X133533624Y-92342812D01*
X133499000Y-92168741D01*
X133499000Y-91991259D01*
X133533624Y-91817188D01*
X133601544Y-91653216D01*
X133700147Y-91505646D01*
X133825646Y-91380147D01*
X133973216Y-91281544D01*
X134137188Y-91213624D01*
X134286488Y-91183927D01*
X134311258Y-91179000D01*
X134488742Y-91179000D01*
X134513512Y-91183927D01*
X134513512Y-91183927D01*
G37*
G36*
X191233642Y-86669781D02*
G01*
X191379414Y-86730162D01*
X191379416Y-86730163D01*
X191510608Y-86817822D01*
X191622178Y-86929392D01*
X191709837Y-87060584D01*
X191709838Y-87060586D01*
X191770219Y-87206358D01*
X191801000Y-87361107D01*
X191801000Y-87518893D01*
X191770219Y-87673642D01*
X191709838Y-87819414D01*
X191709837Y-87819416D01*
X191622178Y-87950608D01*
X191510608Y-88062178D01*
X191379416Y-88149837D01*
X191379415Y-88149838D01*
X191379414Y-88149838D01*
X191233642Y-88210219D01*
X191078893Y-88241000D01*
X190921107Y-88241000D01*
X190766358Y-88210219D01*
X190620586Y-88149838D01*
X190620585Y-88149838D01*
X190620584Y-88149837D01*
X190489392Y-88062178D01*
X190377822Y-87950608D01*
X190290163Y-87819416D01*
X190290162Y-87819414D01*
X190229781Y-87673642D01*
X190199000Y-87518893D01*
X190199000Y-87361107D01*
X190229781Y-87206358D01*
X190290162Y-87060586D01*
X190290163Y-87060584D01*
X190377822Y-86929392D01*
X190489392Y-86817822D01*
X190620584Y-86730163D01*
X190620586Y-86730162D01*
X190766358Y-86669781D01*
X190921107Y-86639000D01*
X191078893Y-86639000D01*
X191233642Y-86669781D01*
X191233642Y-86669781D01*
G37*
G36*
X127333642Y-86669781D02*
G01*
X127479414Y-86730162D01*
X127479416Y-86730163D01*
X127610608Y-86817822D01*
X127722178Y-86929392D01*
X127809837Y-87060584D01*
X127809838Y-87060586D01*
X127870219Y-87206358D01*
X127901000Y-87361107D01*
X127901000Y-87518893D01*
X127870219Y-87673642D01*
X127809838Y-87819414D01*
X127809837Y-87819416D01*
X127722178Y-87950608D01*
X127610608Y-88062178D01*
X127479416Y-88149837D01*
X127479415Y-88149838D01*
X127479414Y-88149838D01*
X127333642Y-88210219D01*
X127178893Y-88241000D01*
X127021107Y-88241000D01*
X126866358Y-88210219D01*
X126720586Y-88149838D01*
X126720585Y-88149838D01*
X126720584Y-88149837D01*
X126589392Y-88062178D01*
X126477822Y-87950608D01*
X126390163Y-87819416D01*
X126390162Y-87819414D01*
X126329781Y-87673642D01*
X126299000Y-87518893D01*
X126299000Y-87361107D01*
X126329781Y-87206358D01*
X126390162Y-87060586D01*
X126390163Y-87060584D01*
X126477822Y-86929392D01*
X126589392Y-86817822D01*
X126720584Y-86730163D01*
X126720586Y-86730162D01*
X126866358Y-86669781D01*
X127021107Y-86639000D01*
X127178893Y-86639000D01*
X127333642Y-86669781D01*
X127333642Y-86669781D01*
G37*
G36*
X191233642Y-84129781D02*
G01*
X191379414Y-84190162D01*
X191379416Y-84190163D01*
X191510608Y-84277822D01*
X191622178Y-84389392D01*
X191709837Y-84520584D01*
X191709838Y-84520586D01*
X191770219Y-84666358D01*
X191801000Y-84821107D01*
X191801000Y-84978893D01*
X191770219Y-85133642D01*
X191709838Y-85279414D01*
X191709837Y-85279416D01*
X191622178Y-85410608D01*
X191510608Y-85522178D01*
X191379416Y-85609837D01*
X191379415Y-85609838D01*
X191379414Y-85609838D01*
X191233642Y-85670219D01*
X191078893Y-85701000D01*
X190921107Y-85701000D01*
X190766358Y-85670219D01*
X190620586Y-85609838D01*
X190620585Y-85609838D01*
X190620584Y-85609837D01*
X190489392Y-85522178D01*
X190377822Y-85410608D01*
X190290163Y-85279416D01*
X190290162Y-85279414D01*
X190229781Y-85133642D01*
X190199000Y-84978893D01*
X190199000Y-84821107D01*
X190229781Y-84666358D01*
X190290162Y-84520586D01*
X190290163Y-84520584D01*
X190377822Y-84389392D01*
X190489392Y-84277822D01*
X190620584Y-84190163D01*
X190620586Y-84190162D01*
X190766358Y-84129781D01*
X190921107Y-84099000D01*
X191078893Y-84099000D01*
X191233642Y-84129781D01*
X191233642Y-84129781D01*
G37*
G36*
X127333642Y-84129781D02*
G01*
X127479414Y-84190162D01*
X127479416Y-84190163D01*
X127610608Y-84277822D01*
X127722178Y-84389392D01*
X127809837Y-84520584D01*
X127809838Y-84520586D01*
X127870219Y-84666358D01*
X127901000Y-84821107D01*
X127901000Y-84978893D01*
X127870219Y-85133642D01*
X127809838Y-85279414D01*
X127809837Y-85279416D01*
X127722178Y-85410608D01*
X127610608Y-85522178D01*
X127479416Y-85609837D01*
X127479415Y-85609838D01*
X127479414Y-85609838D01*
X127333642Y-85670219D01*
X127178893Y-85701000D01*
X127021107Y-85701000D01*
X126866358Y-85670219D01*
X126720586Y-85609838D01*
X126720585Y-85609838D01*
X126720584Y-85609837D01*
X126589392Y-85522178D01*
X126477822Y-85410608D01*
X126390163Y-85279416D01*
X126390162Y-85279414D01*
X126329781Y-85133642D01*
X126299000Y-84978893D01*
X126299000Y-84821107D01*
X126329781Y-84666358D01*
X126390162Y-84520586D01*
X126390163Y-84520584D01*
X126477822Y-84389392D01*
X126589392Y-84277822D01*
X126720584Y-84190163D01*
X126720586Y-84190162D01*
X126866358Y-84129781D01*
X127021107Y-84099000D01*
X127178893Y-84099000D01*
X127333642Y-84129781D01*
X127333642Y-84129781D01*
G37*
G36*
X191233642Y-81589781D02*
G01*
X191379414Y-81650162D01*
X191379416Y-81650163D01*
X191510608Y-81737822D01*
X191622178Y-81849392D01*
X191709837Y-81980584D01*
X191709838Y-81980586D01*
X191770219Y-82126358D01*
X191801000Y-82281107D01*
X191801000Y-82438893D01*
X191770219Y-82593642D01*
X191709838Y-82739414D01*
X191709837Y-82739416D01*
X191622178Y-82870608D01*
X191510608Y-82982178D01*
X191379416Y-83069837D01*
X191379415Y-83069838D01*
X191379414Y-83069838D01*
X191233642Y-83130219D01*
X191078893Y-83161000D01*
X190921107Y-83161000D01*
X190766358Y-83130219D01*
X190620586Y-83069838D01*
X190620585Y-83069838D01*
X190620584Y-83069837D01*
X190489392Y-82982178D01*
X190377822Y-82870608D01*
X190290163Y-82739416D01*
X190290162Y-82739414D01*
X190229781Y-82593642D01*
X190199000Y-82438893D01*
X190199000Y-82281107D01*
X190229781Y-82126358D01*
X190290162Y-81980586D01*
X190290163Y-81980584D01*
X190377822Y-81849392D01*
X190489392Y-81737822D01*
X190620584Y-81650163D01*
X190620586Y-81650162D01*
X190766358Y-81589781D01*
X190921107Y-81559000D01*
X191078893Y-81559000D01*
X191233642Y-81589781D01*
X191233642Y-81589781D01*
G37*
G36*
X127333642Y-81589781D02*
G01*
X127479414Y-81650162D01*
X127479416Y-81650163D01*
X127610608Y-81737822D01*
X127722178Y-81849392D01*
X127809837Y-81980584D01*
X127809838Y-81980586D01*
X127870219Y-82126358D01*
X127901000Y-82281107D01*
X127901000Y-82438893D01*
X127870219Y-82593642D01*
X127809838Y-82739414D01*
X127809837Y-82739416D01*
X127722178Y-82870608D01*
X127610608Y-82982178D01*
X127479416Y-83069837D01*
X127479415Y-83069838D01*
X127479414Y-83069838D01*
X127333642Y-83130219D01*
X127178893Y-83161000D01*
X127021107Y-83161000D01*
X126866358Y-83130219D01*
X126720586Y-83069838D01*
X126720585Y-83069838D01*
X126720584Y-83069837D01*
X126589392Y-82982178D01*
X126477822Y-82870608D01*
X126390163Y-82739416D01*
X126390162Y-82739414D01*
X126329781Y-82593642D01*
X126299000Y-82438893D01*
X126299000Y-82281107D01*
X126329781Y-82126358D01*
X126390162Y-81980586D01*
X126390163Y-81980584D01*
X126477822Y-81849392D01*
X126589392Y-81737822D01*
X126720584Y-81650163D01*
X126720586Y-81650162D01*
X126866358Y-81589781D01*
X127021107Y-81559000D01*
X127178893Y-81559000D01*
X127333642Y-81589781D01*
X127333642Y-81589781D01*
G37*
G36*
X191233642Y-79049781D02*
G01*
X191379414Y-79110162D01*
X191379416Y-79110163D01*
X191510608Y-79197822D01*
X191622178Y-79309392D01*
X191709837Y-79440584D01*
X191709838Y-79440586D01*
X191770219Y-79586358D01*
X191801000Y-79741107D01*
X191801000Y-79898893D01*
X191770219Y-80053642D01*
X191709838Y-80199414D01*
X191709837Y-80199416D01*
X191622178Y-80330608D01*
X191510608Y-80442178D01*
X191379416Y-80529837D01*
X191379415Y-80529838D01*
X191379414Y-80529838D01*
X191233642Y-80590219D01*
X191078893Y-80621000D01*
X190921107Y-80621000D01*
X190766358Y-80590219D01*
X190620586Y-80529838D01*
X190620585Y-80529838D01*
X190620584Y-80529837D01*
X190489392Y-80442178D01*
X190377822Y-80330608D01*
X190290163Y-80199416D01*
X190290162Y-80199414D01*
X190229781Y-80053642D01*
X190199000Y-79898893D01*
X190199000Y-79741107D01*
X190229781Y-79586358D01*
X190290162Y-79440586D01*
X190290163Y-79440584D01*
X190377822Y-79309392D01*
X190489392Y-79197822D01*
X190620584Y-79110163D01*
X190620586Y-79110162D01*
X190766358Y-79049781D01*
X190921107Y-79019000D01*
X191078893Y-79019000D01*
X191233642Y-79049781D01*
X191233642Y-79049781D01*
G37*
G36*
X127333642Y-79049781D02*
G01*
X127479414Y-79110162D01*
X127479416Y-79110163D01*
X127610608Y-79197822D01*
X127722178Y-79309392D01*
X127809837Y-79440584D01*
X127809838Y-79440586D01*
X127870219Y-79586358D01*
X127901000Y-79741107D01*
X127901000Y-79898893D01*
X127870219Y-80053642D01*
X127809838Y-80199414D01*
X127809837Y-80199416D01*
X127722178Y-80330608D01*
X127610608Y-80442178D01*
X127479416Y-80529837D01*
X127479415Y-80529838D01*
X127479414Y-80529838D01*
X127333642Y-80590219D01*
X127178893Y-80621000D01*
X127021107Y-80621000D01*
X126866358Y-80590219D01*
X126720586Y-80529838D01*
X126720585Y-80529838D01*
X126720584Y-80529837D01*
X126589392Y-80442178D01*
X126477822Y-80330608D01*
X126390163Y-80199416D01*
X126390162Y-80199414D01*
X126329781Y-80053642D01*
X126299000Y-79898893D01*
X126299000Y-79741107D01*
X126329781Y-79586358D01*
X126390162Y-79440586D01*
X126390163Y-79440584D01*
X126477822Y-79309392D01*
X126589392Y-79197822D01*
X126720584Y-79110163D01*
X126720586Y-79110162D01*
X126866358Y-79049781D01*
X127021107Y-79019000D01*
X127178893Y-79019000D01*
X127333642Y-79049781D01*
X127333642Y-79049781D01*
G37*
G36*
X127333642Y-76509781D02*
G01*
X127479414Y-76570162D01*
X127479416Y-76570163D01*
X127610608Y-76657822D01*
X127722178Y-76769392D01*
X127809837Y-76900584D01*
X127809838Y-76900586D01*
X127870219Y-77046358D01*
X127901000Y-77201107D01*
X127901000Y-77358893D01*
X127870219Y-77513642D01*
X127809838Y-77659414D01*
X127809837Y-77659416D01*
X127722178Y-77790608D01*
X127610608Y-77902178D01*
X127479416Y-77989837D01*
X127479415Y-77989838D01*
X127479414Y-77989838D01*
X127333642Y-78050219D01*
X127178893Y-78081000D01*
X127021107Y-78081000D01*
X126866358Y-78050219D01*
X126720586Y-77989838D01*
X126720585Y-77989838D01*
X126720584Y-77989837D01*
X126589392Y-77902178D01*
X126477822Y-77790608D01*
X126390163Y-77659416D01*
X126390162Y-77659414D01*
X126329781Y-77513642D01*
X126299000Y-77358893D01*
X126299000Y-77201107D01*
X126329781Y-77046358D01*
X126390162Y-76900586D01*
X126390163Y-76900584D01*
X126477822Y-76769392D01*
X126589392Y-76657822D01*
X126720584Y-76570163D01*
X126720586Y-76570162D01*
X126866358Y-76509781D01*
X127021107Y-76479000D01*
X127178893Y-76479000D01*
X127333642Y-76509781D01*
X127333642Y-76509781D01*
G37*
G36*
X191233642Y-76509781D02*
G01*
X191379414Y-76570162D01*
X191379416Y-76570163D01*
X191510608Y-76657822D01*
X191622178Y-76769392D01*
X191709837Y-76900584D01*
X191709838Y-76900586D01*
X191770219Y-77046358D01*
X191801000Y-77201107D01*
X191801000Y-77358893D01*
X191770219Y-77513642D01*
X191709838Y-77659414D01*
X191709837Y-77659416D01*
X191622178Y-77790608D01*
X191510608Y-77902178D01*
X191379416Y-77989837D01*
X191379415Y-77989838D01*
X191379414Y-77989838D01*
X191233642Y-78050219D01*
X191078893Y-78081000D01*
X190921107Y-78081000D01*
X190766358Y-78050219D01*
X190620586Y-77989838D01*
X190620585Y-77989838D01*
X190620584Y-77989837D01*
X190489392Y-77902178D01*
X190377822Y-77790608D01*
X190290163Y-77659416D01*
X190290162Y-77659414D01*
X190229781Y-77513642D01*
X190199000Y-77358893D01*
X190199000Y-77201107D01*
X190229781Y-77046358D01*
X190290162Y-76900586D01*
X190290163Y-76900584D01*
X190377822Y-76769392D01*
X190489392Y-76657822D01*
X190620584Y-76570163D01*
X190620586Y-76570162D01*
X190766358Y-76509781D01*
X190921107Y-76479000D01*
X191078893Y-76479000D01*
X191233642Y-76509781D01*
X191233642Y-76509781D01*
G37*
G36*
X191233642Y-73969781D02*
G01*
X191379414Y-74030162D01*
X191379416Y-74030163D01*
X191510608Y-74117822D01*
X191622178Y-74229392D01*
X191709837Y-74360584D01*
X191709838Y-74360586D01*
X191770219Y-74506358D01*
X191801000Y-74661107D01*
X191801000Y-74818893D01*
X191770219Y-74973642D01*
X191709838Y-75119414D01*
X191709837Y-75119416D01*
X191622178Y-75250608D01*
X191510608Y-75362178D01*
X191379416Y-75449837D01*
X191379415Y-75449838D01*
X191379414Y-75449838D01*
X191233642Y-75510219D01*
X191078893Y-75541000D01*
X190921107Y-75541000D01*
X190766358Y-75510219D01*
X190620586Y-75449838D01*
X190620585Y-75449838D01*
X190620584Y-75449837D01*
X190489392Y-75362178D01*
X190377822Y-75250608D01*
X190290163Y-75119416D01*
X190290162Y-75119414D01*
X190229781Y-74973642D01*
X190199000Y-74818893D01*
X190199000Y-74661107D01*
X190229781Y-74506358D01*
X190290162Y-74360586D01*
X190290163Y-74360584D01*
X190377822Y-74229392D01*
X190489392Y-74117822D01*
X190620584Y-74030163D01*
X190620586Y-74030162D01*
X190766358Y-73969781D01*
X190921107Y-73939000D01*
X191078893Y-73939000D01*
X191233642Y-73969781D01*
X191233642Y-73969781D01*
G37*
G36*
X127333642Y-73969781D02*
G01*
X127479414Y-74030162D01*
X127479416Y-74030163D01*
X127610608Y-74117822D01*
X127722178Y-74229392D01*
X127809837Y-74360584D01*
X127809838Y-74360586D01*
X127870219Y-74506358D01*
X127901000Y-74661107D01*
X127901000Y-74818893D01*
X127870219Y-74973642D01*
X127809838Y-75119414D01*
X127809837Y-75119416D01*
X127722178Y-75250608D01*
X127610608Y-75362178D01*
X127479416Y-75449837D01*
X127479415Y-75449838D01*
X127479414Y-75449838D01*
X127333642Y-75510219D01*
X127178893Y-75541000D01*
X127021107Y-75541000D01*
X126866358Y-75510219D01*
X126720586Y-75449838D01*
X126720585Y-75449838D01*
X126720584Y-75449837D01*
X126589392Y-75362178D01*
X126477822Y-75250608D01*
X126390163Y-75119416D01*
X126390162Y-75119414D01*
X126329781Y-74973642D01*
X126299000Y-74818893D01*
X126299000Y-74661107D01*
X126329781Y-74506358D01*
X126390162Y-74360586D01*
X126390163Y-74360584D01*
X126477822Y-74229392D01*
X126589392Y-74117822D01*
X126720584Y-74030163D01*
X126720586Y-74030162D01*
X126866358Y-73969781D01*
X127021107Y-73939000D01*
X127178893Y-73939000D01*
X127333642Y-73969781D01*
X127333642Y-73969781D01*
G37*
G36*
X191233642Y-71429781D02*
G01*
X191379414Y-71490162D01*
X191379416Y-71490163D01*
X191510608Y-71577822D01*
X191622178Y-71689392D01*
X191709837Y-71820584D01*
X191709838Y-71820586D01*
X191770219Y-71966358D01*
X191801000Y-72121107D01*
X191801000Y-72278893D01*
X191770219Y-72433642D01*
X191709838Y-72579414D01*
X191709837Y-72579416D01*
X191622178Y-72710608D01*
X191510608Y-72822178D01*
X191379416Y-72909837D01*
X191379415Y-72909838D01*
X191379414Y-72909838D01*
X191233642Y-72970219D01*
X191078893Y-73001000D01*
X190921107Y-73001000D01*
X190766358Y-72970219D01*
X190620586Y-72909838D01*
X190620585Y-72909838D01*
X190620584Y-72909837D01*
X190489392Y-72822178D01*
X190377822Y-72710608D01*
X190290163Y-72579416D01*
X190290162Y-72579414D01*
X190229781Y-72433642D01*
X190199000Y-72278893D01*
X190199000Y-72121107D01*
X190229781Y-71966358D01*
X190290162Y-71820586D01*
X190290163Y-71820584D01*
X190377822Y-71689392D01*
X190489392Y-71577822D01*
X190620584Y-71490163D01*
X190620586Y-71490162D01*
X190766358Y-71429781D01*
X190921107Y-71399000D01*
X191078893Y-71399000D01*
X191233642Y-71429781D01*
X191233642Y-71429781D01*
G37*
G36*
X127333642Y-71429781D02*
G01*
X127479414Y-71490162D01*
X127479416Y-71490163D01*
X127610608Y-71577822D01*
X127722178Y-71689392D01*
X127809837Y-71820584D01*
X127809838Y-71820586D01*
X127870219Y-71966358D01*
X127901000Y-72121107D01*
X127901000Y-72278893D01*
X127870219Y-72433642D01*
X127809838Y-72579414D01*
X127809837Y-72579416D01*
X127722178Y-72710608D01*
X127610608Y-72822178D01*
X127479416Y-72909837D01*
X127479415Y-72909838D01*
X127479414Y-72909838D01*
X127333642Y-72970219D01*
X127178893Y-73001000D01*
X127021107Y-73001000D01*
X126866358Y-72970219D01*
X126720586Y-72909838D01*
X126720585Y-72909838D01*
X126720584Y-72909837D01*
X126589392Y-72822178D01*
X126477822Y-72710608D01*
X126390163Y-72579416D01*
X126390162Y-72579414D01*
X126329781Y-72433642D01*
X126299000Y-72278893D01*
X126299000Y-72121107D01*
X126329781Y-71966358D01*
X126390162Y-71820586D01*
X126390163Y-71820584D01*
X126477822Y-71689392D01*
X126589392Y-71577822D01*
X126720584Y-71490163D01*
X126720586Y-71490162D01*
X126866358Y-71429781D01*
X127021107Y-71399000D01*
X127178893Y-71399000D01*
X127333642Y-71429781D01*
X127333642Y-71429781D01*
G37*
G36*
X191233642Y-68889781D02*
G01*
X191379414Y-68950162D01*
X191379416Y-68950163D01*
X191510608Y-69037822D01*
X191622178Y-69149392D01*
X191709837Y-69280584D01*
X191709838Y-69280586D01*
X191770219Y-69426358D01*
X191801000Y-69581107D01*
X191801000Y-69738893D01*
X191770219Y-69893642D01*
X191709838Y-70039414D01*
X191709837Y-70039416D01*
X191622178Y-70170608D01*
X191510608Y-70282178D01*
X191379416Y-70369837D01*
X191379415Y-70369838D01*
X191379414Y-70369838D01*
X191233642Y-70430219D01*
X191078893Y-70461000D01*
X190921107Y-70461000D01*
X190766358Y-70430219D01*
X190620586Y-70369838D01*
X190620585Y-70369838D01*
X190620584Y-70369837D01*
X190489392Y-70282178D01*
X190377822Y-70170608D01*
X190290163Y-70039416D01*
X190290162Y-70039414D01*
X190229781Y-69893642D01*
X190199000Y-69738893D01*
X190199000Y-69581107D01*
X190229781Y-69426358D01*
X190290162Y-69280586D01*
X190290163Y-69280584D01*
X190377822Y-69149392D01*
X190489392Y-69037822D01*
X190620584Y-68950163D01*
X190620586Y-68950162D01*
X190766358Y-68889781D01*
X190921107Y-68859000D01*
X191078893Y-68859000D01*
X191233642Y-68889781D01*
X191233642Y-68889781D01*
G37*
G36*
X127333642Y-68889781D02*
G01*
X127479414Y-68950162D01*
X127479416Y-68950163D01*
X127610608Y-69037822D01*
X127722178Y-69149392D01*
X127809837Y-69280584D01*
X127809838Y-69280586D01*
X127870219Y-69426358D01*
X127901000Y-69581107D01*
X127901000Y-69738893D01*
X127870219Y-69893642D01*
X127809838Y-70039414D01*
X127809837Y-70039416D01*
X127722178Y-70170608D01*
X127610608Y-70282178D01*
X127479416Y-70369837D01*
X127479415Y-70369838D01*
X127479414Y-70369838D01*
X127333642Y-70430219D01*
X127178893Y-70461000D01*
X127021107Y-70461000D01*
X126866358Y-70430219D01*
X126720586Y-70369838D01*
X126720585Y-70369838D01*
X126720584Y-70369837D01*
X126589392Y-70282178D01*
X126477822Y-70170608D01*
X126390163Y-70039416D01*
X126390162Y-70039414D01*
X126329781Y-69893642D01*
X126299000Y-69738893D01*
X126299000Y-69581107D01*
X126329781Y-69426358D01*
X126390162Y-69280586D01*
X126390163Y-69280584D01*
X126477822Y-69149392D01*
X126589392Y-69037822D01*
X126720584Y-68950163D01*
X126720586Y-68950162D01*
X126866358Y-68889781D01*
X127021107Y-68859000D01*
X127178893Y-68859000D01*
X127333642Y-68889781D01*
X127333642Y-68889781D01*
G37*
G36*
X127333642Y-66349781D02*
G01*
X127479414Y-66410162D01*
X127479416Y-66410163D01*
X127610608Y-66497822D01*
X127722178Y-66609392D01*
X127809837Y-66740584D01*
X127809838Y-66740586D01*
X127870219Y-66886358D01*
X127901000Y-67041107D01*
X127901000Y-67198893D01*
X127870219Y-67353642D01*
X127809838Y-67499414D01*
X127809837Y-67499416D01*
X127722178Y-67630608D01*
X127610608Y-67742178D01*
X127479416Y-67829837D01*
X127479415Y-67829838D01*
X127479414Y-67829838D01*
X127333642Y-67890219D01*
X127178893Y-67921000D01*
X127021107Y-67921000D01*
X126866358Y-67890219D01*
X126720586Y-67829838D01*
X126720585Y-67829838D01*
X126720584Y-67829837D01*
X126589392Y-67742178D01*
X126477822Y-67630608D01*
X126390163Y-67499416D01*
X126390162Y-67499414D01*
X126329781Y-67353642D01*
X126299000Y-67198893D01*
X126299000Y-67041107D01*
X126329781Y-66886358D01*
X126390162Y-66740586D01*
X126390163Y-66740584D01*
X126477822Y-66609392D01*
X126589392Y-66497822D01*
X126720584Y-66410163D01*
X126720586Y-66410162D01*
X126866358Y-66349781D01*
X127021107Y-66319000D01*
X127178893Y-66319000D01*
X127333642Y-66349781D01*
X127333642Y-66349781D01*
G37*
G36*
X191233642Y-66349781D02*
G01*
X191379414Y-66410162D01*
X191379416Y-66410163D01*
X191510608Y-66497822D01*
X191622178Y-66609392D01*
X191709837Y-66740584D01*
X191709838Y-66740586D01*
X191770219Y-66886358D01*
X191801000Y-67041107D01*
X191801000Y-67198893D01*
X191770219Y-67353642D01*
X191709838Y-67499414D01*
X191709837Y-67499416D01*
X191622178Y-67630608D01*
X191510608Y-67742178D01*
X191379416Y-67829837D01*
X191379415Y-67829838D01*
X191379414Y-67829838D01*
X191233642Y-67890219D01*
X191078893Y-67921000D01*
X190921107Y-67921000D01*
X190766358Y-67890219D01*
X190620586Y-67829838D01*
X190620585Y-67829838D01*
X190620584Y-67829837D01*
X190489392Y-67742178D01*
X190377822Y-67630608D01*
X190290163Y-67499416D01*
X190290162Y-67499414D01*
X190229781Y-67353642D01*
X190199000Y-67198893D01*
X190199000Y-67041107D01*
X190229781Y-66886358D01*
X190290162Y-66740586D01*
X190290163Y-66740584D01*
X190377822Y-66609392D01*
X190489392Y-66497822D01*
X190620584Y-66410163D01*
X190620586Y-66410162D01*
X190766358Y-66349781D01*
X190921107Y-66319000D01*
X191078893Y-66319000D01*
X191233642Y-66349781D01*
X191233642Y-66349781D01*
G37*
G36*
X191233642Y-63809781D02*
G01*
X191379414Y-63870162D01*
X191379416Y-63870163D01*
X191510608Y-63957822D01*
X191622178Y-64069392D01*
X191709837Y-64200584D01*
X191709838Y-64200586D01*
X191770219Y-64346358D01*
X191801000Y-64501107D01*
X191801000Y-64658893D01*
X191770219Y-64813642D01*
X191709838Y-64959414D01*
X191709837Y-64959416D01*
X191622178Y-65090608D01*
X191510608Y-65202178D01*
X191379416Y-65289837D01*
X191379415Y-65289838D01*
X191379414Y-65289838D01*
X191233642Y-65350219D01*
X191078893Y-65381000D01*
X190921107Y-65381000D01*
X190766358Y-65350219D01*
X190620586Y-65289838D01*
X190620585Y-65289838D01*
X190620584Y-65289837D01*
X190489392Y-65202178D01*
X190377822Y-65090608D01*
X190290163Y-64959416D01*
X190290162Y-64959414D01*
X190229781Y-64813642D01*
X190199000Y-64658893D01*
X190199000Y-64501107D01*
X190229781Y-64346358D01*
X190290162Y-64200586D01*
X190290163Y-64200584D01*
X190377822Y-64069392D01*
X190489392Y-63957822D01*
X190620584Y-63870163D01*
X190620586Y-63870162D01*
X190766358Y-63809781D01*
X190921107Y-63779000D01*
X191078893Y-63779000D01*
X191233642Y-63809781D01*
X191233642Y-63809781D01*
G37*
G36*
X127333642Y-63809781D02*
G01*
X127479414Y-63870162D01*
X127479416Y-63870163D01*
X127610608Y-63957822D01*
X127722178Y-64069392D01*
X127809837Y-64200584D01*
X127809838Y-64200586D01*
X127870219Y-64346358D01*
X127901000Y-64501107D01*
X127901000Y-64658893D01*
X127870219Y-64813642D01*
X127809838Y-64959414D01*
X127809837Y-64959416D01*
X127722178Y-65090608D01*
X127610608Y-65202178D01*
X127479416Y-65289837D01*
X127479415Y-65289838D01*
X127479414Y-65289838D01*
X127333642Y-65350219D01*
X127178893Y-65381000D01*
X127021107Y-65381000D01*
X126866358Y-65350219D01*
X126720586Y-65289838D01*
X126720585Y-65289838D01*
X126720584Y-65289837D01*
X126589392Y-65202178D01*
X126477822Y-65090608D01*
X126390163Y-64959416D01*
X126390162Y-64959414D01*
X126329781Y-64813642D01*
X126299000Y-64658893D01*
X126299000Y-64501107D01*
X126329781Y-64346358D01*
X126390162Y-64200586D01*
X126390163Y-64200584D01*
X126477822Y-64069392D01*
X126589392Y-63957822D01*
X126720584Y-63870163D01*
X126720586Y-63870162D01*
X126866358Y-63809781D01*
X127021107Y-63779000D01*
X127178893Y-63779000D01*
X127333642Y-63809781D01*
X127333642Y-63809781D01*
G37*
G36*
X191233642Y-61269781D02*
G01*
X191379414Y-61330162D01*
X191379416Y-61330163D01*
X191510608Y-61417822D01*
X191622178Y-61529392D01*
X191709837Y-61660584D01*
X191709838Y-61660586D01*
X191770219Y-61806358D01*
X191801000Y-61961107D01*
X191801000Y-62118893D01*
X191770219Y-62273642D01*
X191709838Y-62419414D01*
X191709837Y-62419416D01*
X191622178Y-62550608D01*
X191510608Y-62662178D01*
X191379416Y-62749837D01*
X191379415Y-62749838D01*
X191379414Y-62749838D01*
X191233642Y-62810219D01*
X191078893Y-62841000D01*
X190921107Y-62841000D01*
X190766358Y-62810219D01*
X190620586Y-62749838D01*
X190620585Y-62749838D01*
X190620584Y-62749837D01*
X190489392Y-62662178D01*
X190377822Y-62550608D01*
X190290163Y-62419416D01*
X190290162Y-62419414D01*
X190229781Y-62273642D01*
X190199000Y-62118893D01*
X190199000Y-61961107D01*
X190229781Y-61806358D01*
X190290162Y-61660586D01*
X190290163Y-61660584D01*
X190377822Y-61529392D01*
X190489392Y-61417822D01*
X190620584Y-61330163D01*
X190620586Y-61330162D01*
X190766358Y-61269781D01*
X190921107Y-61239000D01*
X191078893Y-61239000D01*
X191233642Y-61269781D01*
X191233642Y-61269781D01*
G37*
G36*
X127333642Y-61269781D02*
G01*
X127479414Y-61330162D01*
X127479416Y-61330163D01*
X127610608Y-61417822D01*
X127722178Y-61529392D01*
X127809837Y-61660584D01*
X127809838Y-61660586D01*
X127870219Y-61806358D01*
X127901000Y-61961107D01*
X127901000Y-62118893D01*
X127870219Y-62273642D01*
X127809838Y-62419414D01*
X127809837Y-62419416D01*
X127722178Y-62550608D01*
X127610608Y-62662178D01*
X127479416Y-62749837D01*
X127479415Y-62749838D01*
X127479414Y-62749838D01*
X127333642Y-62810219D01*
X127178893Y-62841000D01*
X127021107Y-62841000D01*
X126866358Y-62810219D01*
X126720586Y-62749838D01*
X126720585Y-62749838D01*
X126720584Y-62749837D01*
X126589392Y-62662178D01*
X126477822Y-62550608D01*
X126390163Y-62419416D01*
X126390162Y-62419414D01*
X126329781Y-62273642D01*
X126299000Y-62118893D01*
X126299000Y-61961107D01*
X126329781Y-61806358D01*
X126390162Y-61660586D01*
X126390163Y-61660584D01*
X126477822Y-61529392D01*
X126589392Y-61417822D01*
X126720584Y-61330163D01*
X126720586Y-61330162D01*
X126866358Y-61269781D01*
X127021107Y-61239000D01*
X127178893Y-61239000D01*
X127333642Y-61269781D01*
X127333642Y-61269781D01*
G37*
G36*
X161793512Y-58943927D02*
G01*
X161942812Y-58973624D01*
X162106784Y-59041544D01*
X162254354Y-59140147D01*
X162379853Y-59265646D01*
X162478456Y-59413216D01*
X162546376Y-59577188D01*
X162581000Y-59751259D01*
X162581000Y-59928741D01*
X162546376Y-60102812D01*
X162478456Y-60266784D01*
X162379853Y-60414354D01*
X162254354Y-60539853D01*
X162106784Y-60638456D01*
X161942812Y-60706376D01*
X161793512Y-60736073D01*
X161768742Y-60741000D01*
X161591258Y-60741000D01*
X161566488Y-60736073D01*
X161417188Y-60706376D01*
X161253216Y-60638456D01*
X161105646Y-60539853D01*
X160980147Y-60414354D01*
X160881544Y-60266784D01*
X160813624Y-60102812D01*
X160779000Y-59928741D01*
X160779000Y-59751259D01*
X160813624Y-59577188D01*
X160881544Y-59413216D01*
X160980147Y-59265646D01*
X161105646Y-59140147D01*
X161253216Y-59041544D01*
X161417188Y-58973624D01*
X161566488Y-58943927D01*
X161591258Y-58939000D01*
X161768742Y-58939000D01*
X161793512Y-58943927D01*
X161793512Y-58943927D01*
G37*
G36*
X166873512Y-58943927D02*
G01*
X167022812Y-58973624D01*
X167186784Y-59041544D01*
X167334354Y-59140147D01*
X167459853Y-59265646D01*
X167558456Y-59413216D01*
X167626376Y-59577188D01*
X167661000Y-59751259D01*
X167661000Y-59928741D01*
X167626376Y-60102812D01*
X167558456Y-60266784D01*
X167459853Y-60414354D01*
X167334354Y-60539853D01*
X167186784Y-60638456D01*
X167022812Y-60706376D01*
X166873512Y-60736073D01*
X166848742Y-60741000D01*
X166671258Y-60741000D01*
X166646488Y-60736073D01*
X166497188Y-60706376D01*
X166333216Y-60638456D01*
X166185646Y-60539853D01*
X166060147Y-60414354D01*
X165961544Y-60266784D01*
X165893624Y-60102812D01*
X165859000Y-59928741D01*
X165859000Y-59751259D01*
X165893624Y-59577188D01*
X165961544Y-59413216D01*
X166060147Y-59265646D01*
X166185646Y-59140147D01*
X166333216Y-59041544D01*
X166497188Y-58973624D01*
X166646488Y-58943927D01*
X166671258Y-58939000D01*
X166848742Y-58939000D01*
X166873512Y-58943927D01*
X166873512Y-58943927D01*
G37*
G36*
X164333512Y-58943927D02*
G01*
X164482812Y-58973624D01*
X164646784Y-59041544D01*
X164794354Y-59140147D01*
X164919853Y-59265646D01*
X165018456Y-59413216D01*
X165086376Y-59577188D01*
X165121000Y-59751259D01*
X165121000Y-59928741D01*
X165086376Y-60102812D01*
X165018456Y-60266784D01*
X164919853Y-60414354D01*
X164794354Y-60539853D01*
X164646784Y-60638456D01*
X164482812Y-60706376D01*
X164333512Y-60736073D01*
X164308742Y-60741000D01*
X164131258Y-60741000D01*
X164106488Y-60736073D01*
X163957188Y-60706376D01*
X163793216Y-60638456D01*
X163645646Y-60539853D01*
X163520147Y-60414354D01*
X163421544Y-60266784D01*
X163353624Y-60102812D01*
X163319000Y-59928741D01*
X163319000Y-59751259D01*
X163353624Y-59577188D01*
X163421544Y-59413216D01*
X163520147Y-59265646D01*
X163645646Y-59140147D01*
X163793216Y-59041544D01*
X163957188Y-58973624D01*
X164106488Y-58943927D01*
X164131258Y-58939000D01*
X164308742Y-58939000D01*
X164333512Y-58943927D01*
X164333512Y-58943927D01*
G37*
G36*
X156713512Y-58943927D02*
G01*
X156862812Y-58973624D01*
X157026784Y-59041544D01*
X157174354Y-59140147D01*
X157299853Y-59265646D01*
X157398456Y-59413216D01*
X157466376Y-59577188D01*
X157501000Y-59751259D01*
X157501000Y-59928741D01*
X157466376Y-60102812D01*
X157398456Y-60266784D01*
X157299853Y-60414354D01*
X157174354Y-60539853D01*
X157026784Y-60638456D01*
X156862812Y-60706376D01*
X156713512Y-60736073D01*
X156688742Y-60741000D01*
X156511258Y-60741000D01*
X156486488Y-60736073D01*
X156337188Y-60706376D01*
X156173216Y-60638456D01*
X156025646Y-60539853D01*
X155900147Y-60414354D01*
X155801544Y-60266784D01*
X155733624Y-60102812D01*
X155699000Y-59928741D01*
X155699000Y-59751259D01*
X155733624Y-59577188D01*
X155801544Y-59413216D01*
X155900147Y-59265646D01*
X156025646Y-59140147D01*
X156173216Y-59041544D01*
X156337188Y-58973624D01*
X156486488Y-58943927D01*
X156511258Y-58939000D01*
X156688742Y-58939000D01*
X156713512Y-58943927D01*
X156713512Y-58943927D01*
G37*
G36*
X159253512Y-58943927D02*
G01*
X159402812Y-58973624D01*
X159566784Y-59041544D01*
X159714354Y-59140147D01*
X159839853Y-59265646D01*
X159938456Y-59413216D01*
X160006376Y-59577188D01*
X160041000Y-59751259D01*
X160041000Y-59928741D01*
X160006376Y-60102812D01*
X159938456Y-60266784D01*
X159839853Y-60414354D01*
X159714354Y-60539853D01*
X159566784Y-60638456D01*
X159402812Y-60706376D01*
X159253512Y-60736073D01*
X159228742Y-60741000D01*
X159051258Y-60741000D01*
X159026488Y-60736073D01*
X158877188Y-60706376D01*
X158713216Y-60638456D01*
X158565646Y-60539853D01*
X158440147Y-60414354D01*
X158341544Y-60266784D01*
X158273624Y-60102812D01*
X158239000Y-59928741D01*
X158239000Y-59751259D01*
X158273624Y-59577188D01*
X158341544Y-59413216D01*
X158440147Y-59265646D01*
X158565646Y-59140147D01*
X158713216Y-59041544D01*
X158877188Y-58973624D01*
X159026488Y-58943927D01*
X159051258Y-58939000D01*
X159228742Y-58939000D01*
X159253512Y-58943927D01*
X159253512Y-58943927D01*
G37*
G36*
X127901000Y-60301000D02*
G01*
X126299000Y-60301000D01*
X126299000Y-58699000D01*
X127901000Y-58699000D01*
X127901000Y-60301000D01*
X127901000Y-60301000D01*
G37*
G36*
X191801000Y-60301000D02*
G01*
X190199000Y-60301000D01*
X190199000Y-58699000D01*
X191801000Y-58699000D01*
X191801000Y-60301000D01*
X191801000Y-60301000D01*
G37*
G36*
X157501000Y-58201000D02*
G01*
X155699000Y-58201000D01*
X155699000Y-56399000D01*
X157501000Y-56399000D01*
X157501000Y-58201000D01*
X157501000Y-58201000D01*
G37*
G36*
X164333512Y-56403927D02*
G01*
X164482812Y-56433624D01*
X164646784Y-56501544D01*
X164794354Y-56600147D01*
X164919853Y-56725646D01*
X165018456Y-56873216D01*
X165086376Y-57037188D01*
X165121000Y-57211259D01*
X165121000Y-57388741D01*
X165086376Y-57562812D01*
X165018456Y-57726784D01*
X164919853Y-57874354D01*
X164794354Y-57999853D01*
X164646784Y-58098456D01*
X164482812Y-58166376D01*
X164333512Y-58196073D01*
X164308742Y-58201000D01*
X164131258Y-58201000D01*
X164106488Y-58196073D01*
X163957188Y-58166376D01*
X163793216Y-58098456D01*
X163645646Y-57999853D01*
X163520147Y-57874354D01*
X163421544Y-57726784D01*
X163353624Y-57562812D01*
X163319000Y-57388741D01*
X163319000Y-57211259D01*
X163353624Y-57037188D01*
X163421544Y-56873216D01*
X163520147Y-56725646D01*
X163645646Y-56600147D01*
X163793216Y-56501544D01*
X163957188Y-56433624D01*
X164106488Y-56403927D01*
X164131258Y-56399000D01*
X164308742Y-56399000D01*
X164333512Y-56403927D01*
X164333512Y-56403927D01*
G37*
G36*
X159253512Y-56403927D02*
G01*
X159402812Y-56433624D01*
X159566784Y-56501544D01*
X159714354Y-56600147D01*
X159839853Y-56725646D01*
X159938456Y-56873216D01*
X160006376Y-57037188D01*
X160041000Y-57211259D01*
X160041000Y-57388741D01*
X160006376Y-57562812D01*
X159938456Y-57726784D01*
X159839853Y-57874354D01*
X159714354Y-57999853D01*
X159566784Y-58098456D01*
X159402812Y-58166376D01*
X159253512Y-58196073D01*
X159228742Y-58201000D01*
X159051258Y-58201000D01*
X159026488Y-58196073D01*
X158877188Y-58166376D01*
X158713216Y-58098456D01*
X158565646Y-57999853D01*
X158440147Y-57874354D01*
X158341544Y-57726784D01*
X158273624Y-57562812D01*
X158239000Y-57388741D01*
X158239000Y-57211259D01*
X158273624Y-57037188D01*
X158341544Y-56873216D01*
X158440147Y-56725646D01*
X158565646Y-56600147D01*
X158713216Y-56501544D01*
X158877188Y-56433624D01*
X159026488Y-56403927D01*
X159051258Y-56399000D01*
X159228742Y-56399000D01*
X159253512Y-56403927D01*
X159253512Y-56403927D01*
G37*
G36*
X166873512Y-56403927D02*
G01*
X167022812Y-56433624D01*
X167186784Y-56501544D01*
X167334354Y-56600147D01*
X167459853Y-56725646D01*
X167558456Y-56873216D01*
X167626376Y-57037188D01*
X167661000Y-57211259D01*
X167661000Y-57388741D01*
X167626376Y-57562812D01*
X167558456Y-57726784D01*
X167459853Y-57874354D01*
X167334354Y-57999853D01*
X167186784Y-58098456D01*
X167022812Y-58166376D01*
X166873512Y-58196073D01*
X166848742Y-58201000D01*
X166671258Y-58201000D01*
X166646488Y-58196073D01*
X166497188Y-58166376D01*
X166333216Y-58098456D01*
X166185646Y-57999853D01*
X166060147Y-57874354D01*
X165961544Y-57726784D01*
X165893624Y-57562812D01*
X165859000Y-57388741D01*
X165859000Y-57211259D01*
X165893624Y-57037188D01*
X165961544Y-56873216D01*
X166060147Y-56725646D01*
X166185646Y-56600147D01*
X166333216Y-56501544D01*
X166497188Y-56433624D01*
X166646488Y-56403927D01*
X166671258Y-56399000D01*
X166848742Y-56399000D01*
X166873512Y-56403927D01*
X166873512Y-56403927D01*
G37*
G36*
X161793512Y-56403927D02*
G01*
X161942812Y-56433624D01*
X162106784Y-56501544D01*
X162254354Y-56600147D01*
X162379853Y-56725646D01*
X162478456Y-56873216D01*
X162546376Y-57037188D01*
X162581000Y-57211259D01*
X162581000Y-57388741D01*
X162546376Y-57562812D01*
X162478456Y-57726784D01*
X162379853Y-57874354D01*
X162254354Y-57999853D01*
X162106784Y-58098456D01*
X161942812Y-58166376D01*
X161793512Y-58196073D01*
X161768742Y-58201000D01*
X161591258Y-58201000D01*
X161566488Y-58196073D01*
X161417188Y-58166376D01*
X161253216Y-58098456D01*
X161105646Y-57999853D01*
X160980147Y-57874354D01*
X160881544Y-57726784D01*
X160813624Y-57562812D01*
X160779000Y-57388741D01*
X160779000Y-57211259D01*
X160813624Y-57037188D01*
X160881544Y-56873216D01*
X160980147Y-56725646D01*
X161105646Y-56600147D01*
X161253216Y-56501544D01*
X161417188Y-56433624D01*
X161566488Y-56403927D01*
X161591258Y-56399000D01*
X161768742Y-56399000D01*
X161793512Y-56403927D01*
X161793512Y-56403927D01*
G37*
M02*
