G04 #@! TF.GenerationSoftware,KiCad,Pcbnew,(5.1.0)-1*
G04 #@! TF.CreationDate,2019-08-17T17:24:14+01:00*
G04 #@! TF.ProjectId,lcd_Daughterboard,6c63645f-4461-4756-9768-746572626f61,rev?*
G04 #@! TF.SameCoordinates,Original*
G04 #@! TF.FileFunction,Legend,Bot*
G04 #@! TF.FilePolarity,Positive*
%FSLAX46Y46*%
G04 Gerber Fmt 4.6, Leading zero omitted, Abs format (unit mm)*
G04 Created by KiCad (PCBNEW (5.1.0)-1) date 2019-08-17 17:24:14*
%MOMM*%
%LPD*%
G04 APERTURE LIST*
%ADD10C,0.150000*%
%ADD11C,0.120000*%
G04 APERTURE END LIST*
D10*
X143161904Y-102552380D02*
X143638095Y-102552380D01*
X143638095Y-101552380D01*
X142257142Y-102457142D02*
X142304761Y-102504761D01*
X142447619Y-102552380D01*
X142542857Y-102552380D01*
X142685714Y-102504761D01*
X142780952Y-102409523D01*
X142828571Y-102314285D01*
X142876190Y-102123809D01*
X142876190Y-101980952D01*
X142828571Y-101790476D01*
X142780952Y-101695238D01*
X142685714Y-101600000D01*
X142542857Y-101552380D01*
X142447619Y-101552380D01*
X142304761Y-101600000D01*
X142257142Y-101647619D01*
X141828571Y-102552380D02*
X141828571Y-101552380D01*
X141590476Y-101552380D01*
X141447619Y-101600000D01*
X141352380Y-101695238D01*
X141304761Y-101790476D01*
X141257142Y-101980952D01*
X141257142Y-102123809D01*
X141304761Y-102314285D01*
X141352380Y-102409523D01*
X141447619Y-102504761D01*
X141590476Y-102552380D01*
X141828571Y-102552380D01*
X140066666Y-102552380D02*
X140066666Y-101552380D01*
X139828571Y-101552380D01*
X139685714Y-101600000D01*
X139590476Y-101695238D01*
X139542857Y-101790476D01*
X139495238Y-101980952D01*
X139495238Y-102123809D01*
X139542857Y-102314285D01*
X139590476Y-102409523D01*
X139685714Y-102504761D01*
X139828571Y-102552380D01*
X140066666Y-102552380D01*
X138638095Y-102552380D02*
X138638095Y-102028571D01*
X138685714Y-101933333D01*
X138780952Y-101885714D01*
X138971428Y-101885714D01*
X139066666Y-101933333D01*
X138638095Y-102504761D02*
X138733333Y-102552380D01*
X138971428Y-102552380D01*
X139066666Y-102504761D01*
X139114285Y-102409523D01*
X139114285Y-102314285D01*
X139066666Y-102219047D01*
X138971428Y-102171428D01*
X138733333Y-102171428D01*
X138638095Y-102123809D01*
X137733333Y-101885714D02*
X137733333Y-102552380D01*
X138161904Y-101885714D02*
X138161904Y-102409523D01*
X138114285Y-102504761D01*
X138019047Y-102552380D01*
X137876190Y-102552380D01*
X137780952Y-102504761D01*
X137733333Y-102457142D01*
X136828571Y-101885714D02*
X136828571Y-102695238D01*
X136876190Y-102790476D01*
X136923809Y-102838095D01*
X137019047Y-102885714D01*
X137161904Y-102885714D01*
X137257142Y-102838095D01*
X136828571Y-102504761D02*
X136923809Y-102552380D01*
X137114285Y-102552380D01*
X137209523Y-102504761D01*
X137257142Y-102457142D01*
X137304761Y-102361904D01*
X137304761Y-102076190D01*
X137257142Y-101980952D01*
X137209523Y-101933333D01*
X137114285Y-101885714D01*
X136923809Y-101885714D01*
X136828571Y-101933333D01*
X136352380Y-102552380D02*
X136352380Y-101552380D01*
X135923809Y-102552380D02*
X135923809Y-102028571D01*
X135971428Y-101933333D01*
X136066666Y-101885714D01*
X136209523Y-101885714D01*
X136304761Y-101933333D01*
X136352380Y-101980952D01*
X135590476Y-101885714D02*
X135209523Y-101885714D01*
X135447619Y-101552380D02*
X135447619Y-102409523D01*
X135400000Y-102504761D01*
X135304761Y-102552380D01*
X135209523Y-102552380D01*
X134495238Y-102504761D02*
X134590476Y-102552380D01*
X134780952Y-102552380D01*
X134876190Y-102504761D01*
X134923809Y-102409523D01*
X134923809Y-102028571D01*
X134876190Y-101933333D01*
X134780952Y-101885714D01*
X134590476Y-101885714D01*
X134495238Y-101933333D01*
X134447619Y-102028571D01*
X134447619Y-102123809D01*
X134923809Y-102219047D01*
X134019047Y-102552380D02*
X134019047Y-101885714D01*
X134019047Y-102076190D02*
X133971428Y-101980952D01*
X133923809Y-101933333D01*
X133828571Y-101885714D01*
X133733333Y-101885714D01*
X133400000Y-102552380D02*
X133400000Y-101552380D01*
X133400000Y-101933333D02*
X133304761Y-101885714D01*
X133114285Y-101885714D01*
X133019047Y-101933333D01*
X132971428Y-101980952D01*
X132923809Y-102076190D01*
X132923809Y-102361904D01*
X132971428Y-102457142D01*
X133019047Y-102504761D01*
X133114285Y-102552380D01*
X133304761Y-102552380D01*
X133400000Y-102504761D01*
X132352380Y-102552380D02*
X132447619Y-102504761D01*
X132495238Y-102457142D01*
X132542857Y-102361904D01*
X132542857Y-102076190D01*
X132495238Y-101980952D01*
X132447619Y-101933333D01*
X132352380Y-101885714D01*
X132209523Y-101885714D01*
X132114285Y-101933333D01*
X132066666Y-101980952D01*
X132019047Y-102076190D01*
X132019047Y-102361904D01*
X132066666Y-102457142D01*
X132114285Y-102504761D01*
X132209523Y-102552380D01*
X132352380Y-102552380D01*
X131161904Y-102552380D02*
X131161904Y-102028571D01*
X131209523Y-101933333D01*
X131304761Y-101885714D01*
X131495238Y-101885714D01*
X131590476Y-101933333D01*
X131161904Y-102504761D02*
X131257142Y-102552380D01*
X131495238Y-102552380D01*
X131590476Y-102504761D01*
X131638095Y-102409523D01*
X131638095Y-102314285D01*
X131590476Y-102219047D01*
X131495238Y-102171428D01*
X131257142Y-102171428D01*
X131161904Y-102123809D01*
X130685714Y-102552380D02*
X130685714Y-101885714D01*
X130685714Y-102076190D02*
X130638095Y-101980952D01*
X130590476Y-101933333D01*
X130495238Y-101885714D01*
X130400000Y-101885714D01*
X129638095Y-102552380D02*
X129638095Y-101552380D01*
X129638095Y-102504761D02*
X129733333Y-102552380D01*
X129923809Y-102552380D01*
X130019047Y-102504761D01*
X130066666Y-102457142D01*
X130114285Y-102361904D01*
X130114285Y-102076190D01*
X130066666Y-101980952D01*
X130019047Y-101933333D01*
X129923809Y-101885714D01*
X129733333Y-101885714D01*
X129638095Y-101933333D01*
X128495238Y-101885714D02*
X128257142Y-102552380D01*
X128019047Y-101885714D01*
X127114285Y-102552380D02*
X127685714Y-102552380D01*
X127400000Y-102552380D02*
X127400000Y-101552380D01*
X127495238Y-101695238D01*
X127590476Y-101790476D01*
X127685714Y-101838095D01*
X163238095Y-128452380D02*
X162619047Y-128452380D01*
X162952380Y-128833333D01*
X162809523Y-128833333D01*
X162714285Y-128880952D01*
X162666666Y-128928571D01*
X162619047Y-129023809D01*
X162619047Y-129261904D01*
X162666666Y-129357142D01*
X162714285Y-129404761D01*
X162809523Y-129452380D01*
X163095238Y-129452380D01*
X163190476Y-129404761D01*
X163238095Y-129357142D01*
X162333333Y-128452380D02*
X162000000Y-129452380D01*
X161666666Y-128452380D01*
X161428571Y-128452380D02*
X160809523Y-128452380D01*
X161142857Y-128833333D01*
X161000000Y-128833333D01*
X160904761Y-128880952D01*
X160857142Y-128928571D01*
X160809523Y-129023809D01*
X160809523Y-129261904D01*
X160857142Y-129357142D01*
X160904761Y-129404761D01*
X161000000Y-129452380D01*
X161285714Y-129452380D01*
X161380952Y-129404761D01*
X161428571Y-129357142D01*
X162761904Y-126000000D02*
X162857142Y-125952380D01*
X163000000Y-125952380D01*
X163142857Y-126000000D01*
X163238095Y-126095238D01*
X163285714Y-126190476D01*
X163333333Y-126380952D01*
X163333333Y-126523809D01*
X163285714Y-126714285D01*
X163238095Y-126809523D01*
X163142857Y-126904761D01*
X163000000Y-126952380D01*
X162904761Y-126952380D01*
X162761904Y-126904761D01*
X162714285Y-126857142D01*
X162714285Y-126523809D01*
X162904761Y-126523809D01*
X162285714Y-126952380D02*
X162285714Y-125952380D01*
X161714285Y-126952380D01*
X161714285Y-125952380D01*
X161238095Y-126952380D02*
X161238095Y-125952380D01*
X161000000Y-125952380D01*
X160857142Y-126000000D01*
X160761904Y-126095238D01*
X160714285Y-126190476D01*
X160666666Y-126380952D01*
X160666666Y-126523809D01*
X160714285Y-126714285D01*
X160761904Y-126809523D01*
X160857142Y-126904761D01*
X161000000Y-126952380D01*
X161238095Y-126952380D01*
X162761904Y-131000000D02*
X162857142Y-130952380D01*
X163000000Y-130952380D01*
X163142857Y-131000000D01*
X163238095Y-131095238D01*
X163285714Y-131190476D01*
X163333333Y-131380952D01*
X163333333Y-131523809D01*
X163285714Y-131714285D01*
X163238095Y-131809523D01*
X163142857Y-131904761D01*
X163000000Y-131952380D01*
X162904761Y-131952380D01*
X162761904Y-131904761D01*
X162714285Y-131857142D01*
X162714285Y-131523809D01*
X162904761Y-131523809D01*
X162285714Y-131952380D02*
X162285714Y-130952380D01*
X161714285Y-131952380D01*
X161714285Y-130952380D01*
X161238095Y-131952380D02*
X161238095Y-130952380D01*
X161000000Y-130952380D01*
X160857142Y-131000000D01*
X160761904Y-131095238D01*
X160714285Y-131190476D01*
X160666666Y-131380952D01*
X160666666Y-131523809D01*
X160714285Y-131714285D01*
X160761904Y-131809523D01*
X160857142Y-131904761D01*
X161000000Y-131952380D01*
X161238095Y-131952380D01*
X163071428Y-124452380D02*
X163071428Y-123452380D01*
X162738095Y-124166666D01*
X162404761Y-123452380D01*
X162404761Y-124452380D01*
X161928571Y-124452380D02*
X161928571Y-123452380D01*
X161500000Y-124404761D02*
X161357142Y-124452380D01*
X161119047Y-124452380D01*
X161023809Y-124404761D01*
X160976190Y-124357142D01*
X160928571Y-124261904D01*
X160928571Y-124166666D01*
X160976190Y-124071428D01*
X161023809Y-124023809D01*
X161119047Y-123976190D01*
X161309523Y-123928571D01*
X161404761Y-123880952D01*
X161452380Y-123833333D01*
X161500000Y-123738095D01*
X161500000Y-123642857D01*
X161452380Y-123547619D01*
X161404761Y-123500000D01*
X161309523Y-123452380D01*
X161071428Y-123452380D01*
X160928571Y-123500000D01*
X160309523Y-123452380D02*
X160119047Y-123452380D01*
X160023809Y-123500000D01*
X159928571Y-123595238D01*
X159880952Y-123785714D01*
X159880952Y-124119047D01*
X159928571Y-124309523D01*
X160023809Y-124404761D01*
X160119047Y-124452380D01*
X160309523Y-124452380D01*
X160404761Y-124404761D01*
X160500000Y-124309523D01*
X160547619Y-124119047D01*
X160547619Y-123785714D01*
X160500000Y-123595238D01*
X160404761Y-123500000D01*
X160309523Y-123452380D01*
X163071428Y-121452380D02*
X163071428Y-120452380D01*
X162738095Y-121166666D01*
X162404761Y-120452380D01*
X162404761Y-121452380D01*
X161738095Y-120452380D02*
X161547619Y-120452380D01*
X161452380Y-120500000D01*
X161357142Y-120595238D01*
X161309523Y-120785714D01*
X161309523Y-121119047D01*
X161357142Y-121309523D01*
X161452380Y-121404761D01*
X161547619Y-121452380D01*
X161738095Y-121452380D01*
X161833333Y-121404761D01*
X161928571Y-121309523D01*
X161976190Y-121119047D01*
X161976190Y-120785714D01*
X161928571Y-120595238D01*
X161833333Y-120500000D01*
X161738095Y-120452380D01*
X160928571Y-121404761D02*
X160785714Y-121452380D01*
X160547619Y-121452380D01*
X160452380Y-121404761D01*
X160404761Y-121357142D01*
X160357142Y-121261904D01*
X160357142Y-121166666D01*
X160404761Y-121071428D01*
X160452380Y-121023809D01*
X160547619Y-120976190D01*
X160738095Y-120928571D01*
X160833333Y-120880952D01*
X160880952Y-120833333D01*
X160928571Y-120738095D01*
X160928571Y-120642857D01*
X160880952Y-120547619D01*
X160833333Y-120500000D01*
X160738095Y-120452380D01*
X160500000Y-120452380D01*
X160357142Y-120500000D01*
X159928571Y-121452380D02*
X159928571Y-120452380D01*
X162619047Y-136952380D02*
X163190476Y-136952380D01*
X162904761Y-136952380D02*
X162904761Y-135952380D01*
X163000000Y-136095238D01*
X163095238Y-136190476D01*
X163190476Y-136238095D01*
X162238095Y-136047619D02*
X162190476Y-136000000D01*
X162095238Y-135952380D01*
X161857142Y-135952380D01*
X161761904Y-136000000D01*
X161714285Y-136047619D01*
X161666666Y-136142857D01*
X161666666Y-136238095D01*
X161714285Y-136380952D01*
X162285714Y-136952380D01*
X161666666Y-136952380D01*
X161380952Y-135952380D02*
X161047619Y-136952380D01*
X160714285Y-135952380D01*
X162666666Y-111452380D02*
X163000000Y-110976190D01*
X163238095Y-111452380D02*
X163238095Y-110452380D01*
X162857142Y-110452380D01*
X162761904Y-110500000D01*
X162714285Y-110547619D01*
X162666666Y-110642857D01*
X162666666Y-110785714D01*
X162714285Y-110880952D01*
X162761904Y-110928571D01*
X162857142Y-110976190D01*
X163238095Y-110976190D01*
X162285714Y-111404761D02*
X162142857Y-111452380D01*
X161904761Y-111452380D01*
X161809523Y-111404761D01*
X161761904Y-111357142D01*
X161714285Y-111261904D01*
X161714285Y-111166666D01*
X161761904Y-111071428D01*
X161809523Y-111023809D01*
X161904761Y-110976190D01*
X162095238Y-110928571D01*
X162190476Y-110880952D01*
X162238095Y-110833333D01*
X162285714Y-110738095D01*
X162285714Y-110642857D01*
X162238095Y-110547619D01*
X162190476Y-110500000D01*
X162095238Y-110452380D01*
X161857142Y-110452380D01*
X161714285Y-110500000D01*
X162761904Y-118000000D02*
X162857142Y-117952380D01*
X163000000Y-117952380D01*
X163142857Y-118000000D01*
X163238095Y-118095238D01*
X163285714Y-118190476D01*
X163333333Y-118380952D01*
X163333333Y-118523809D01*
X163285714Y-118714285D01*
X163238095Y-118809523D01*
X163142857Y-118904761D01*
X163000000Y-118952380D01*
X162904761Y-118952380D01*
X162761904Y-118904761D01*
X162714285Y-118857142D01*
X162714285Y-118523809D01*
X162904761Y-118523809D01*
X162285714Y-118952380D02*
X162285714Y-117952380D01*
X161714285Y-118952380D01*
X161714285Y-117952380D01*
X161238095Y-118952380D02*
X161238095Y-117952380D01*
X161000000Y-117952380D01*
X160857142Y-118000000D01*
X160761904Y-118095238D01*
X160714285Y-118190476D01*
X160666666Y-118380952D01*
X160666666Y-118523809D01*
X160714285Y-118714285D01*
X160761904Y-118809523D01*
X160857142Y-118904761D01*
X161000000Y-118952380D01*
X161238095Y-118952380D01*
X162761904Y-133500000D02*
X162857142Y-133452380D01*
X163000000Y-133452380D01*
X163142857Y-133500000D01*
X163238095Y-133595238D01*
X163285714Y-133690476D01*
X163333333Y-133880952D01*
X163333333Y-134023809D01*
X163285714Y-134214285D01*
X163238095Y-134309523D01*
X163142857Y-134404761D01*
X163000000Y-134452380D01*
X162904761Y-134452380D01*
X162761904Y-134404761D01*
X162714285Y-134357142D01*
X162714285Y-134023809D01*
X162904761Y-134023809D01*
X162285714Y-134452380D02*
X162285714Y-133452380D01*
X161714285Y-134452380D01*
X161714285Y-133452380D01*
X161238095Y-134452380D02*
X161238095Y-133452380D01*
X161000000Y-133452380D01*
X160857142Y-133500000D01*
X160761904Y-133595238D01*
X160714285Y-133690476D01*
X160666666Y-133880952D01*
X160666666Y-134023809D01*
X160714285Y-134214285D01*
X160761904Y-134309523D01*
X160857142Y-134404761D01*
X161000000Y-134452380D01*
X161238095Y-134452380D01*
X163285714Y-113904761D02*
X163142857Y-113952380D01*
X162904761Y-113952380D01*
X162809523Y-113904761D01*
X162761904Y-113857142D01*
X162714285Y-113761904D01*
X162714285Y-113666666D01*
X162761904Y-113571428D01*
X162809523Y-113523809D01*
X162904761Y-113476190D01*
X163095238Y-113428571D01*
X163190476Y-113380952D01*
X163238095Y-113333333D01*
X163285714Y-113238095D01*
X163285714Y-113142857D01*
X163238095Y-113047619D01*
X163190476Y-113000000D01*
X163095238Y-112952380D01*
X162857142Y-112952380D01*
X162714285Y-113000000D01*
X161714285Y-113857142D02*
X161761904Y-113904761D01*
X161904761Y-113952380D01*
X162000000Y-113952380D01*
X162142857Y-113904761D01*
X162238095Y-113809523D01*
X162285714Y-113714285D01*
X162333333Y-113523809D01*
X162333333Y-113380952D01*
X162285714Y-113190476D01*
X162238095Y-113095238D01*
X162142857Y-113000000D01*
X162000000Y-112952380D01*
X161904761Y-112952380D01*
X161761904Y-113000000D01*
X161714285Y-113047619D01*
X161285714Y-113952380D02*
X161285714Y-112952380D01*
X160714285Y-113952380D02*
X161142857Y-113380952D01*
X160714285Y-112952380D02*
X161285714Y-113523809D01*
X162761904Y-108000000D02*
X162857142Y-107952380D01*
X163000000Y-107952380D01*
X163142857Y-108000000D01*
X163238095Y-108095238D01*
X163285714Y-108190476D01*
X163333333Y-108380952D01*
X163333333Y-108523809D01*
X163285714Y-108714285D01*
X163238095Y-108809523D01*
X163142857Y-108904761D01*
X163000000Y-108952380D01*
X162904761Y-108952380D01*
X162761904Y-108904761D01*
X162714285Y-108857142D01*
X162714285Y-108523809D01*
X162904761Y-108523809D01*
X162285714Y-108952380D02*
X162285714Y-107952380D01*
X161714285Y-108952380D01*
X161714285Y-107952380D01*
X161238095Y-108952380D02*
X161238095Y-107952380D01*
X161000000Y-107952380D01*
X160857142Y-108000000D01*
X160761904Y-108095238D01*
X160714285Y-108190476D01*
X160666666Y-108380952D01*
X160666666Y-108523809D01*
X160714285Y-108714285D01*
X160761904Y-108809523D01*
X160857142Y-108904761D01*
X161000000Y-108952380D01*
X161238095Y-108952380D01*
X163261904Y-116452380D02*
X163261904Y-115452380D01*
X163023809Y-115452380D01*
X162880952Y-115500000D01*
X162785714Y-115595238D01*
X162738095Y-115690476D01*
X162690476Y-115880952D01*
X162690476Y-116023809D01*
X162738095Y-116214285D01*
X162785714Y-116309523D01*
X162880952Y-116404761D01*
X163023809Y-116452380D01*
X163261904Y-116452380D01*
X161690476Y-116357142D02*
X161738095Y-116404761D01*
X161880952Y-116452380D01*
X161976190Y-116452380D01*
X162119047Y-116404761D01*
X162214285Y-116309523D01*
X162261904Y-116214285D01*
X162309523Y-116023809D01*
X162309523Y-115880952D01*
X162261904Y-115690476D01*
X162214285Y-115595238D01*
X162119047Y-115500000D01*
X161976190Y-115452380D01*
X161880952Y-115452380D01*
X161738095Y-115500000D01*
X161690476Y-115547619D01*
X107761904Y-118000000D02*
X107857142Y-117952380D01*
X108000000Y-117952380D01*
X108142857Y-118000000D01*
X108238095Y-118095238D01*
X108285714Y-118190476D01*
X108333333Y-118380952D01*
X108333333Y-118523809D01*
X108285714Y-118714285D01*
X108238095Y-118809523D01*
X108142857Y-118904761D01*
X108000000Y-118952380D01*
X107904761Y-118952380D01*
X107761904Y-118904761D01*
X107714285Y-118857142D01*
X107714285Y-118523809D01*
X107904761Y-118523809D01*
X107285714Y-118952380D02*
X107285714Y-117952380D01*
X106714285Y-118952380D01*
X106714285Y-117952380D01*
X106238095Y-118952380D02*
X106238095Y-117952380D01*
X106000000Y-117952380D01*
X105857142Y-118000000D01*
X105761904Y-118095238D01*
X105714285Y-118190476D01*
X105666666Y-118380952D01*
X105666666Y-118523809D01*
X105714285Y-118714285D01*
X105761904Y-118809523D01*
X105857142Y-118904761D01*
X106000000Y-118952380D01*
X106238095Y-118952380D01*
X108261904Y-116452380D02*
X108261904Y-115452380D01*
X108023809Y-115452380D01*
X107880952Y-115500000D01*
X107785714Y-115595238D01*
X107738095Y-115690476D01*
X107690476Y-115880952D01*
X107690476Y-116023809D01*
X107738095Y-116214285D01*
X107785714Y-116309523D01*
X107880952Y-116404761D01*
X108023809Y-116452380D01*
X108261904Y-116452380D01*
X106690476Y-116357142D02*
X106738095Y-116404761D01*
X106880952Y-116452380D01*
X106976190Y-116452380D01*
X107119047Y-116404761D01*
X107214285Y-116309523D01*
X107261904Y-116214285D01*
X107309523Y-116023809D01*
X107309523Y-115880952D01*
X107261904Y-115690476D01*
X107214285Y-115595238D01*
X107119047Y-115500000D01*
X106976190Y-115452380D01*
X106880952Y-115452380D01*
X106738095Y-115500000D01*
X106690476Y-115547619D01*
X108238095Y-128452380D02*
X107619047Y-128452380D01*
X107952380Y-128833333D01*
X107809523Y-128833333D01*
X107714285Y-128880952D01*
X107666666Y-128928571D01*
X107619047Y-129023809D01*
X107619047Y-129261904D01*
X107666666Y-129357142D01*
X107714285Y-129404761D01*
X107809523Y-129452380D01*
X108095238Y-129452380D01*
X108190476Y-129404761D01*
X108238095Y-129357142D01*
X107333333Y-128452380D02*
X107000000Y-129452380D01*
X106666666Y-128452380D01*
X106428571Y-128452380D02*
X105809523Y-128452380D01*
X106142857Y-128833333D01*
X106000000Y-128833333D01*
X105904761Y-128880952D01*
X105857142Y-128928571D01*
X105809523Y-129023809D01*
X105809523Y-129261904D01*
X105857142Y-129357142D01*
X105904761Y-129404761D01*
X106000000Y-129452380D01*
X106285714Y-129452380D01*
X106380952Y-129404761D01*
X106428571Y-129357142D01*
X107619047Y-136952380D02*
X108190476Y-136952380D01*
X107904761Y-136952380D02*
X107904761Y-135952380D01*
X108000000Y-136095238D01*
X108095238Y-136190476D01*
X108190476Y-136238095D01*
X107238095Y-136047619D02*
X107190476Y-136000000D01*
X107095238Y-135952380D01*
X106857142Y-135952380D01*
X106761904Y-136000000D01*
X106714285Y-136047619D01*
X106666666Y-136142857D01*
X106666666Y-136238095D01*
X106714285Y-136380952D01*
X107285714Y-136952380D01*
X106666666Y-136952380D01*
X106380952Y-135952380D02*
X106047619Y-136952380D01*
X105714285Y-135952380D01*
X107761904Y-133500000D02*
X107857142Y-133452380D01*
X108000000Y-133452380D01*
X108142857Y-133500000D01*
X108238095Y-133595238D01*
X108285714Y-133690476D01*
X108333333Y-133880952D01*
X108333333Y-134023809D01*
X108285714Y-134214285D01*
X108238095Y-134309523D01*
X108142857Y-134404761D01*
X108000000Y-134452380D01*
X107904761Y-134452380D01*
X107761904Y-134404761D01*
X107714285Y-134357142D01*
X107714285Y-134023809D01*
X107904761Y-134023809D01*
X107285714Y-134452380D02*
X107285714Y-133452380D01*
X106714285Y-134452380D01*
X106714285Y-133452380D01*
X106238095Y-134452380D02*
X106238095Y-133452380D01*
X106000000Y-133452380D01*
X105857142Y-133500000D01*
X105761904Y-133595238D01*
X105714285Y-133690476D01*
X105666666Y-133880952D01*
X105666666Y-134023809D01*
X105714285Y-134214285D01*
X105761904Y-134309523D01*
X105857142Y-134404761D01*
X106000000Y-134452380D01*
X106238095Y-134452380D01*
X108071428Y-121452380D02*
X108071428Y-120452380D01*
X107738095Y-121166666D01*
X107404761Y-120452380D01*
X107404761Y-121452380D01*
X106738095Y-120452380D02*
X106547619Y-120452380D01*
X106452380Y-120500000D01*
X106357142Y-120595238D01*
X106309523Y-120785714D01*
X106309523Y-121119047D01*
X106357142Y-121309523D01*
X106452380Y-121404761D01*
X106547619Y-121452380D01*
X106738095Y-121452380D01*
X106833333Y-121404761D01*
X106928571Y-121309523D01*
X106976190Y-121119047D01*
X106976190Y-120785714D01*
X106928571Y-120595238D01*
X106833333Y-120500000D01*
X106738095Y-120452380D01*
X105928571Y-121404761D02*
X105785714Y-121452380D01*
X105547619Y-121452380D01*
X105452380Y-121404761D01*
X105404761Y-121357142D01*
X105357142Y-121261904D01*
X105357142Y-121166666D01*
X105404761Y-121071428D01*
X105452380Y-121023809D01*
X105547619Y-120976190D01*
X105738095Y-120928571D01*
X105833333Y-120880952D01*
X105880952Y-120833333D01*
X105928571Y-120738095D01*
X105928571Y-120642857D01*
X105880952Y-120547619D01*
X105833333Y-120500000D01*
X105738095Y-120452380D01*
X105500000Y-120452380D01*
X105357142Y-120500000D01*
X104928571Y-121452380D02*
X104928571Y-120452380D01*
X107761904Y-126000000D02*
X107857142Y-125952380D01*
X108000000Y-125952380D01*
X108142857Y-126000000D01*
X108238095Y-126095238D01*
X108285714Y-126190476D01*
X108333333Y-126380952D01*
X108333333Y-126523809D01*
X108285714Y-126714285D01*
X108238095Y-126809523D01*
X108142857Y-126904761D01*
X108000000Y-126952380D01*
X107904761Y-126952380D01*
X107761904Y-126904761D01*
X107714285Y-126857142D01*
X107714285Y-126523809D01*
X107904761Y-126523809D01*
X107285714Y-126952380D02*
X107285714Y-125952380D01*
X106714285Y-126952380D01*
X106714285Y-125952380D01*
X106238095Y-126952380D02*
X106238095Y-125952380D01*
X106000000Y-125952380D01*
X105857142Y-126000000D01*
X105761904Y-126095238D01*
X105714285Y-126190476D01*
X105666666Y-126380952D01*
X105666666Y-126523809D01*
X105714285Y-126714285D01*
X105761904Y-126809523D01*
X105857142Y-126904761D01*
X106000000Y-126952380D01*
X106238095Y-126952380D01*
X108071428Y-124452380D02*
X108071428Y-123452380D01*
X107738095Y-124166666D01*
X107404761Y-123452380D01*
X107404761Y-124452380D01*
X106928571Y-124452380D02*
X106928571Y-123452380D01*
X106500000Y-124404761D02*
X106357142Y-124452380D01*
X106119047Y-124452380D01*
X106023809Y-124404761D01*
X105976190Y-124357142D01*
X105928571Y-124261904D01*
X105928571Y-124166666D01*
X105976190Y-124071428D01*
X106023809Y-124023809D01*
X106119047Y-123976190D01*
X106309523Y-123928571D01*
X106404761Y-123880952D01*
X106452380Y-123833333D01*
X106500000Y-123738095D01*
X106500000Y-123642857D01*
X106452380Y-123547619D01*
X106404761Y-123500000D01*
X106309523Y-123452380D01*
X106071428Y-123452380D01*
X105928571Y-123500000D01*
X105309523Y-123452380D02*
X105119047Y-123452380D01*
X105023809Y-123500000D01*
X104928571Y-123595238D01*
X104880952Y-123785714D01*
X104880952Y-124119047D01*
X104928571Y-124309523D01*
X105023809Y-124404761D01*
X105119047Y-124452380D01*
X105309523Y-124452380D01*
X105404761Y-124404761D01*
X105500000Y-124309523D01*
X105547619Y-124119047D01*
X105547619Y-123785714D01*
X105500000Y-123595238D01*
X105404761Y-123500000D01*
X105309523Y-123452380D01*
X107761904Y-108000000D02*
X107857142Y-107952380D01*
X108000000Y-107952380D01*
X108142857Y-108000000D01*
X108238095Y-108095238D01*
X108285714Y-108190476D01*
X108333333Y-108380952D01*
X108333333Y-108523809D01*
X108285714Y-108714285D01*
X108238095Y-108809523D01*
X108142857Y-108904761D01*
X108000000Y-108952380D01*
X107904761Y-108952380D01*
X107761904Y-108904761D01*
X107714285Y-108857142D01*
X107714285Y-108523809D01*
X107904761Y-108523809D01*
X107285714Y-108952380D02*
X107285714Y-107952380D01*
X106714285Y-108952380D01*
X106714285Y-107952380D01*
X106238095Y-108952380D02*
X106238095Y-107952380D01*
X106000000Y-107952380D01*
X105857142Y-108000000D01*
X105761904Y-108095238D01*
X105714285Y-108190476D01*
X105666666Y-108380952D01*
X105666666Y-108523809D01*
X105714285Y-108714285D01*
X105761904Y-108809523D01*
X105857142Y-108904761D01*
X106000000Y-108952380D01*
X106238095Y-108952380D01*
X108285714Y-113904761D02*
X108142857Y-113952380D01*
X107904761Y-113952380D01*
X107809523Y-113904761D01*
X107761904Y-113857142D01*
X107714285Y-113761904D01*
X107714285Y-113666666D01*
X107761904Y-113571428D01*
X107809523Y-113523809D01*
X107904761Y-113476190D01*
X108095238Y-113428571D01*
X108190476Y-113380952D01*
X108238095Y-113333333D01*
X108285714Y-113238095D01*
X108285714Y-113142857D01*
X108238095Y-113047619D01*
X108190476Y-113000000D01*
X108095238Y-112952380D01*
X107857142Y-112952380D01*
X107714285Y-113000000D01*
X106714285Y-113857142D02*
X106761904Y-113904761D01*
X106904761Y-113952380D01*
X107000000Y-113952380D01*
X107142857Y-113904761D01*
X107238095Y-113809523D01*
X107285714Y-113714285D01*
X107333333Y-113523809D01*
X107333333Y-113380952D01*
X107285714Y-113190476D01*
X107238095Y-113095238D01*
X107142857Y-113000000D01*
X107000000Y-112952380D01*
X106904761Y-112952380D01*
X106761904Y-113000000D01*
X106714285Y-113047619D01*
X106285714Y-113952380D02*
X106285714Y-112952380D01*
X105714285Y-113952380D02*
X106142857Y-113380952D01*
X105714285Y-112952380D02*
X106285714Y-113523809D01*
X107761904Y-131000000D02*
X107857142Y-130952380D01*
X108000000Y-130952380D01*
X108142857Y-131000000D01*
X108238095Y-131095238D01*
X108285714Y-131190476D01*
X108333333Y-131380952D01*
X108333333Y-131523809D01*
X108285714Y-131714285D01*
X108238095Y-131809523D01*
X108142857Y-131904761D01*
X108000000Y-131952380D01*
X107904761Y-131952380D01*
X107761904Y-131904761D01*
X107714285Y-131857142D01*
X107714285Y-131523809D01*
X107904761Y-131523809D01*
X107285714Y-131952380D02*
X107285714Y-130952380D01*
X106714285Y-131952380D01*
X106714285Y-130952380D01*
X106238095Y-131952380D02*
X106238095Y-130952380D01*
X106000000Y-130952380D01*
X105857142Y-131000000D01*
X105761904Y-131095238D01*
X105714285Y-131190476D01*
X105666666Y-131380952D01*
X105666666Y-131523809D01*
X105714285Y-131714285D01*
X105761904Y-131809523D01*
X105857142Y-131904761D01*
X106000000Y-131952380D01*
X106238095Y-131952380D01*
X107666666Y-111452380D02*
X108000000Y-110976190D01*
X108238095Y-111452380D02*
X108238095Y-110452380D01*
X107857142Y-110452380D01*
X107761904Y-110500000D01*
X107714285Y-110547619D01*
X107666666Y-110642857D01*
X107666666Y-110785714D01*
X107714285Y-110880952D01*
X107761904Y-110928571D01*
X107857142Y-110976190D01*
X108238095Y-110976190D01*
X107285714Y-111404761D02*
X107142857Y-111452380D01*
X106904761Y-111452380D01*
X106809523Y-111404761D01*
X106761904Y-111357142D01*
X106714285Y-111261904D01*
X106714285Y-111166666D01*
X106761904Y-111071428D01*
X106809523Y-111023809D01*
X106904761Y-110976190D01*
X107095238Y-110928571D01*
X107190476Y-110880952D01*
X107238095Y-110833333D01*
X107285714Y-110738095D01*
X107285714Y-110642857D01*
X107238095Y-110547619D01*
X107190476Y-110500000D01*
X107095238Y-110452380D01*
X106857142Y-110452380D01*
X106714285Y-110500000D01*
D11*
X143400000Y-119880000D02*
X144600000Y-119880000D01*
X144600000Y-118120000D02*
X143400000Y-118120000D01*
X143400000Y-123880000D02*
X144600000Y-123880000D01*
X144600000Y-122120000D02*
X143400000Y-122120000D01*
X143400000Y-127880000D02*
X144600000Y-127880000D01*
X144600000Y-126120000D02*
X143400000Y-126120000D01*
X135240000Y-126580000D02*
X136700000Y-126580000D01*
X135240000Y-123420000D02*
X137400000Y-123420000D01*
X135240000Y-123420000D02*
X135240000Y-124350000D01*
X135240000Y-126580000D02*
X135240000Y-125650000D01*
D10*
X144166666Y-117752380D02*
X144500000Y-117276190D01*
X144738095Y-117752380D02*
X144738095Y-116752380D01*
X144357142Y-116752380D01*
X144261904Y-116800000D01*
X144214285Y-116847619D01*
X144166666Y-116942857D01*
X144166666Y-117085714D01*
X144214285Y-117180952D01*
X144261904Y-117228571D01*
X144357142Y-117276190D01*
X144738095Y-117276190D01*
X143214285Y-117752380D02*
X143785714Y-117752380D01*
X143500000Y-117752380D02*
X143500000Y-116752380D01*
X143595238Y-116895238D01*
X143690476Y-116990476D01*
X143785714Y-117038095D01*
X144166666Y-125152380D02*
X144500000Y-124676190D01*
X144738095Y-125152380D02*
X144738095Y-124152380D01*
X144357142Y-124152380D01*
X144261904Y-124200000D01*
X144214285Y-124247619D01*
X144166666Y-124342857D01*
X144166666Y-124485714D01*
X144214285Y-124580952D01*
X144261904Y-124628571D01*
X144357142Y-124676190D01*
X144738095Y-124676190D01*
X143785714Y-124247619D02*
X143738095Y-124200000D01*
X143642857Y-124152380D01*
X143404761Y-124152380D01*
X143309523Y-124200000D01*
X143261904Y-124247619D01*
X143214285Y-124342857D01*
X143214285Y-124438095D01*
X143261904Y-124580952D01*
X143833333Y-125152380D01*
X143214285Y-125152380D01*
X144166666Y-129152380D02*
X144500000Y-128676190D01*
X144738095Y-129152380D02*
X144738095Y-128152380D01*
X144357142Y-128152380D01*
X144261904Y-128200000D01*
X144214285Y-128247619D01*
X144166666Y-128342857D01*
X144166666Y-128485714D01*
X144214285Y-128580952D01*
X144261904Y-128628571D01*
X144357142Y-128676190D01*
X144738095Y-128676190D01*
X143833333Y-128152380D02*
X143214285Y-128152380D01*
X143547619Y-128533333D01*
X143404761Y-128533333D01*
X143309523Y-128580952D01*
X143261904Y-128628571D01*
X143214285Y-128723809D01*
X143214285Y-128961904D01*
X143261904Y-129057142D01*
X143309523Y-129104761D01*
X143404761Y-129152380D01*
X143690476Y-129152380D01*
X143785714Y-129104761D01*
X143833333Y-129057142D01*
X136095238Y-123047619D02*
X136190476Y-123000000D01*
X136285714Y-122904761D01*
X136428571Y-122761904D01*
X136523809Y-122714285D01*
X136619047Y-122714285D01*
X136571428Y-122952380D02*
X136666666Y-122904761D01*
X136761904Y-122809523D01*
X136809523Y-122619047D01*
X136809523Y-122285714D01*
X136761904Y-122095238D01*
X136666666Y-122000000D01*
X136571428Y-121952380D01*
X136380952Y-121952380D01*
X136285714Y-122000000D01*
X136190476Y-122095238D01*
X136142857Y-122285714D01*
X136142857Y-122619047D01*
X136190476Y-122809523D01*
X136285714Y-122904761D01*
X136380952Y-122952380D01*
X136571428Y-122952380D01*
X135190476Y-122952380D02*
X135761904Y-122952380D01*
X135476190Y-122952380D02*
X135476190Y-121952380D01*
X135571428Y-122095238D01*
X135666666Y-122190476D01*
X135761904Y-122238095D01*
M02*
