G04 #@! TF.GenerationSoftware,KiCad,Pcbnew,8.0.8*
G04 #@! TF.CreationDate,2025-06-13T11:57:10+01:00*
G04 #@! TF.ProjectId,oscar_panel_nousb_variant,6f736361-725f-4706-916e-656c5f6e6f75,rev?*
G04 #@! TF.SameCoordinates,Original*
G04 #@! TF.FileFunction,Copper,L1,Top*
G04 #@! TF.FilePolarity,Positive*
%FSLAX46Y46*%
G04 Gerber Fmt 4.6, Leading zero omitted, Abs format (unit mm)*
G04 Created by KiCad (PCBNEW 8.0.8) date 2025-06-13 11:57:10*
%MOMM*%
%LPD*%
G01*
G04 APERTURE LIST*
G04 #@! TA.AperFunction,WasherPad*
%ADD10C,6.300000*%
G04 #@! TD*
G04 APERTURE END LIST*
D10*
X152000000Y-120000000D03*
X137000000Y-120000000D03*
X122000000Y-120000000D03*
G04 #@! TA.AperFunction,NonConductor*
G36*
X170866621Y-34995502D02*
G01*
X170913114Y-35049158D01*
X170924500Y-35101500D01*
X170924500Y-163198500D01*
X170904498Y-163266621D01*
X170850842Y-163313114D01*
X170798500Y-163324500D01*
X100201500Y-163324500D01*
X100133379Y-163304498D01*
X100086886Y-163250842D01*
X100075500Y-163198500D01*
X100075500Y-160278709D01*
X104749500Y-160278709D01*
X104749500Y-160521290D01*
X104781160Y-160761782D01*
X104843944Y-160996095D01*
X104843945Y-160996097D01*
X104843946Y-160996100D01*
X104936776Y-161220212D01*
X104936777Y-161220213D01*
X104936782Y-161220224D01*
X105058061Y-161430285D01*
X105058063Y-161430288D01*
X105058064Y-161430289D01*
X105205735Y-161622738D01*
X105205739Y-161622742D01*
X105205744Y-161622748D01*
X105377251Y-161794255D01*
X105377256Y-161794259D01*
X105377262Y-161794265D01*
X105569711Y-161941936D01*
X105569714Y-161941938D01*
X105779775Y-162063217D01*
X105779779Y-162063218D01*
X105779788Y-162063224D01*
X106003900Y-162156054D01*
X106238211Y-162218838D01*
X106238215Y-162218838D01*
X106238217Y-162218839D01*
X106300202Y-162226999D01*
X106478712Y-162250500D01*
X106478719Y-162250500D01*
X108521281Y-162250500D01*
X108521288Y-162250500D01*
X108738637Y-162221885D01*
X108761782Y-162218839D01*
X108761782Y-162218838D01*
X108761789Y-162218838D01*
X108996100Y-162156054D01*
X109220212Y-162063224D01*
X109430289Y-161941936D01*
X109622738Y-161794265D01*
X109794265Y-161622738D01*
X109941936Y-161430289D01*
X110063224Y-161220212D01*
X110156054Y-160996100D01*
X110218838Y-160761789D01*
X110250500Y-160521288D01*
X110250500Y-160278712D01*
X110250500Y-160278709D01*
X160749500Y-160278709D01*
X160749500Y-160521290D01*
X160781160Y-160761782D01*
X160843944Y-160996095D01*
X160843945Y-160996097D01*
X160843946Y-160996100D01*
X160936776Y-161220212D01*
X160936777Y-161220213D01*
X160936782Y-161220224D01*
X161058061Y-161430285D01*
X161058063Y-161430288D01*
X161058064Y-161430289D01*
X161205735Y-161622738D01*
X161205739Y-161622742D01*
X161205744Y-161622748D01*
X161377251Y-161794255D01*
X161377256Y-161794259D01*
X161377262Y-161794265D01*
X161569711Y-161941936D01*
X161569714Y-161941938D01*
X161779775Y-162063217D01*
X161779779Y-162063218D01*
X161779788Y-162063224D01*
X162003900Y-162156054D01*
X162238211Y-162218838D01*
X162238215Y-162218838D01*
X162238217Y-162218839D01*
X162300202Y-162226999D01*
X162478712Y-162250500D01*
X162478719Y-162250500D01*
X164521281Y-162250500D01*
X164521288Y-162250500D01*
X164738637Y-162221885D01*
X164761782Y-162218839D01*
X164761782Y-162218838D01*
X164761789Y-162218838D01*
X164996100Y-162156054D01*
X165220212Y-162063224D01*
X165430289Y-161941936D01*
X165622738Y-161794265D01*
X165794265Y-161622738D01*
X165941936Y-161430289D01*
X166063224Y-161220212D01*
X166156054Y-160996100D01*
X166218838Y-160761789D01*
X166250500Y-160521288D01*
X166250500Y-160278712D01*
X166218838Y-160038211D01*
X166156054Y-159803900D01*
X166063224Y-159579788D01*
X166063218Y-159579779D01*
X166063217Y-159579775D01*
X165941938Y-159369714D01*
X165941936Y-159369711D01*
X165794265Y-159177262D01*
X165794259Y-159177256D01*
X165794255Y-159177251D01*
X165622748Y-159005744D01*
X165622742Y-159005739D01*
X165622738Y-159005735D01*
X165430289Y-158858064D01*
X165430288Y-158858063D01*
X165430285Y-158858061D01*
X165220224Y-158736782D01*
X165220216Y-158736778D01*
X165220212Y-158736776D01*
X164996100Y-158643946D01*
X164996097Y-158643945D01*
X164996095Y-158643944D01*
X164761782Y-158581160D01*
X164521290Y-158549500D01*
X164521288Y-158549500D01*
X162478712Y-158549500D01*
X162478709Y-158549500D01*
X162238217Y-158581160D01*
X162003904Y-158643944D01*
X162003900Y-158643946D01*
X161779786Y-158736777D01*
X161779775Y-158736782D01*
X161569714Y-158858061D01*
X161377262Y-159005735D01*
X161377251Y-159005744D01*
X161205744Y-159177251D01*
X161205735Y-159177262D01*
X161058061Y-159369714D01*
X160936782Y-159579775D01*
X160936777Y-159579786D01*
X160843946Y-159803900D01*
X160843944Y-159803904D01*
X160781160Y-160038217D01*
X160749500Y-160278709D01*
X110250500Y-160278709D01*
X110218838Y-160038211D01*
X110156054Y-159803900D01*
X110063224Y-159579788D01*
X110063218Y-159579779D01*
X110063217Y-159579775D01*
X109941938Y-159369714D01*
X109941936Y-159369711D01*
X109794265Y-159177262D01*
X109794259Y-159177256D01*
X109794255Y-159177251D01*
X109622748Y-159005744D01*
X109622742Y-159005739D01*
X109622738Y-159005735D01*
X109430289Y-158858064D01*
X109430288Y-158858063D01*
X109430285Y-158858061D01*
X109220224Y-158736782D01*
X109220216Y-158736778D01*
X109220212Y-158736776D01*
X108996100Y-158643946D01*
X108996097Y-158643945D01*
X108996095Y-158643944D01*
X108761782Y-158581160D01*
X108521290Y-158549500D01*
X108521288Y-158549500D01*
X106478712Y-158549500D01*
X106478709Y-158549500D01*
X106238217Y-158581160D01*
X106003904Y-158643944D01*
X106003900Y-158643946D01*
X105779786Y-158736777D01*
X105779775Y-158736782D01*
X105569714Y-158858061D01*
X105377262Y-159005735D01*
X105377251Y-159005744D01*
X105205744Y-159177251D01*
X105205735Y-159177262D01*
X105058061Y-159369714D01*
X104936782Y-159579775D01*
X104936777Y-159579786D01*
X104843946Y-159803900D01*
X104843944Y-159803904D01*
X104781160Y-160038217D01*
X104749500Y-160278709D01*
X100075500Y-160278709D01*
X100075500Y-145040306D01*
X104349500Y-145040306D01*
X104349500Y-145359693D01*
X104380802Y-145677508D01*
X104380804Y-145677523D01*
X104443111Y-145990760D01*
X104535820Y-146296381D01*
X104535821Y-146296385D01*
X104658039Y-146591444D01*
X104808592Y-146873108D01*
X104986020Y-147138649D01*
X104986031Y-147138664D01*
X105188628Y-147385528D01*
X105188646Y-147385548D01*
X105414451Y-147611353D01*
X105414461Y-147611362D01*
X105414465Y-147611366D01*
X105661344Y-147813975D01*
X105926894Y-147991409D01*
X106208556Y-148141961D01*
X106503619Y-148264180D01*
X106809240Y-148356889D01*
X107122477Y-148419196D01*
X107440313Y-148450500D01*
X107440322Y-148450500D01*
X107759678Y-148450500D01*
X107759687Y-148450500D01*
X108077523Y-148419196D01*
X108390760Y-148356889D01*
X108696381Y-148264180D01*
X108991444Y-148141961D01*
X109273106Y-147991409D01*
X109538656Y-147813975D01*
X109785535Y-147611366D01*
X110011366Y-147385535D01*
X110213975Y-147138656D01*
X110391409Y-146873106D01*
X110541961Y-146591444D01*
X110664180Y-146296381D01*
X110756889Y-145990760D01*
X110819196Y-145677523D01*
X110850500Y-145359687D01*
X110850500Y-145040313D01*
X110850499Y-145040306D01*
X118749500Y-145040306D01*
X118749500Y-145359693D01*
X118780802Y-145677508D01*
X118780804Y-145677523D01*
X118843111Y-145990760D01*
X118935820Y-146296381D01*
X118935821Y-146296385D01*
X119058039Y-146591444D01*
X119208592Y-146873108D01*
X119386020Y-147138649D01*
X119386031Y-147138664D01*
X119588628Y-147385528D01*
X119588646Y-147385548D01*
X119814451Y-147611353D01*
X119814461Y-147611362D01*
X119814465Y-147611366D01*
X120061344Y-147813975D01*
X120326894Y-147991409D01*
X120608556Y-148141961D01*
X120903619Y-148264180D01*
X121209240Y-148356889D01*
X121522477Y-148419196D01*
X121840313Y-148450500D01*
X121840322Y-148450500D01*
X122159678Y-148450500D01*
X122159687Y-148450500D01*
X122477523Y-148419196D01*
X122790760Y-148356889D01*
X123096381Y-148264180D01*
X123391444Y-148141961D01*
X123673106Y-147991409D01*
X123938656Y-147813975D01*
X124185535Y-147611366D01*
X124411366Y-147385535D01*
X124613975Y-147138656D01*
X124791409Y-146873106D01*
X124941961Y-146591444D01*
X125064180Y-146296381D01*
X125156889Y-145990760D01*
X125219196Y-145677523D01*
X125250500Y-145359687D01*
X125250500Y-145040313D01*
X125250499Y-145040306D01*
X133749500Y-145040306D01*
X133749500Y-145359693D01*
X133780802Y-145677508D01*
X133780804Y-145677523D01*
X133843111Y-145990760D01*
X133935820Y-146296381D01*
X133935821Y-146296385D01*
X134058039Y-146591444D01*
X134208592Y-146873108D01*
X134386020Y-147138649D01*
X134386031Y-147138664D01*
X134588628Y-147385528D01*
X134588646Y-147385548D01*
X134814451Y-147611353D01*
X134814461Y-147611362D01*
X134814465Y-147611366D01*
X135061344Y-147813975D01*
X135326894Y-147991409D01*
X135608556Y-148141961D01*
X135903619Y-148264180D01*
X136209240Y-148356889D01*
X136522477Y-148419196D01*
X136840313Y-148450500D01*
X136840322Y-148450500D01*
X137159678Y-148450500D01*
X137159687Y-148450500D01*
X137477523Y-148419196D01*
X137790760Y-148356889D01*
X138096381Y-148264180D01*
X138391444Y-148141961D01*
X138673106Y-147991409D01*
X138938656Y-147813975D01*
X139185535Y-147611366D01*
X139411366Y-147385535D01*
X139613975Y-147138656D01*
X139791409Y-146873106D01*
X139941961Y-146591444D01*
X140064180Y-146296381D01*
X140156889Y-145990760D01*
X140219196Y-145677523D01*
X140250500Y-145359687D01*
X140250500Y-145040313D01*
X140250499Y-145040306D01*
X148749500Y-145040306D01*
X148749500Y-145359693D01*
X148780802Y-145677508D01*
X148780804Y-145677523D01*
X148843111Y-145990760D01*
X148935820Y-146296381D01*
X148935821Y-146296385D01*
X149058039Y-146591444D01*
X149208592Y-146873108D01*
X149386020Y-147138649D01*
X149386031Y-147138664D01*
X149588628Y-147385528D01*
X149588646Y-147385548D01*
X149814451Y-147611353D01*
X149814461Y-147611362D01*
X149814465Y-147611366D01*
X150061344Y-147813975D01*
X150326894Y-147991409D01*
X150608556Y-148141961D01*
X150903619Y-148264180D01*
X151209240Y-148356889D01*
X151522477Y-148419196D01*
X151840313Y-148450500D01*
X151840322Y-148450500D01*
X152159678Y-148450500D01*
X152159687Y-148450500D01*
X152477523Y-148419196D01*
X152790760Y-148356889D01*
X153096381Y-148264180D01*
X153391444Y-148141961D01*
X153673106Y-147991409D01*
X153938656Y-147813975D01*
X154185535Y-147611366D01*
X154411366Y-147385535D01*
X154613975Y-147138656D01*
X154791409Y-146873106D01*
X154941961Y-146591444D01*
X155064180Y-146296381D01*
X155156889Y-145990760D01*
X155219196Y-145677523D01*
X155250500Y-145359687D01*
X155250500Y-145040313D01*
X155219196Y-144722477D01*
X155156889Y-144409240D01*
X155064180Y-144103619D01*
X154941961Y-143808556D01*
X154791409Y-143526894D01*
X154613975Y-143261344D01*
X154411366Y-143014465D01*
X154411362Y-143014461D01*
X154411353Y-143014451D01*
X154185548Y-142788646D01*
X154185528Y-142788628D01*
X153938664Y-142586031D01*
X153938649Y-142586020D01*
X153673108Y-142408592D01*
X153391444Y-142258039D01*
X153096385Y-142135821D01*
X153096381Y-142135820D01*
X152790760Y-142043111D01*
X152581935Y-142001573D01*
X152477524Y-141980804D01*
X152477508Y-141980802D01*
X152159693Y-141949500D01*
X152159687Y-141949500D01*
X151840313Y-141949500D01*
X151840306Y-141949500D01*
X151522491Y-141980802D01*
X151522475Y-141980804D01*
X151313652Y-142022342D01*
X151209240Y-142043111D01*
X151056429Y-142089465D01*
X150903618Y-142135820D01*
X150903614Y-142135821D01*
X150608555Y-142258039D01*
X150326891Y-142408592D01*
X150061350Y-142586020D01*
X150061335Y-142586031D01*
X149814471Y-142788628D01*
X149814451Y-142788646D01*
X149588646Y-143014451D01*
X149588628Y-143014471D01*
X149386031Y-143261335D01*
X149386020Y-143261350D01*
X149208592Y-143526891D01*
X149058039Y-143808555D01*
X148935821Y-144103614D01*
X148935820Y-144103618D01*
X148843111Y-144409241D01*
X148780804Y-144722475D01*
X148780802Y-144722491D01*
X148749500Y-145040306D01*
X140250499Y-145040306D01*
X140219196Y-144722477D01*
X140156889Y-144409240D01*
X140064180Y-144103619D01*
X139941961Y-143808556D01*
X139791409Y-143526894D01*
X139613975Y-143261344D01*
X139411366Y-143014465D01*
X139411362Y-143014461D01*
X139411353Y-143014451D01*
X139185548Y-142788646D01*
X139185528Y-142788628D01*
X138938664Y-142586031D01*
X138938649Y-142586020D01*
X138673108Y-142408592D01*
X138391444Y-142258039D01*
X138096385Y-142135821D01*
X138096381Y-142135820D01*
X137790760Y-142043111D01*
X137581935Y-142001573D01*
X137477524Y-141980804D01*
X137477508Y-141980802D01*
X137159693Y-141949500D01*
X137159687Y-141949500D01*
X136840313Y-141949500D01*
X136840306Y-141949500D01*
X136522491Y-141980802D01*
X136522475Y-141980804D01*
X136313652Y-142022342D01*
X136209240Y-142043111D01*
X136056429Y-142089465D01*
X135903618Y-142135820D01*
X135903614Y-142135821D01*
X135608555Y-142258039D01*
X135326891Y-142408592D01*
X135061350Y-142586020D01*
X135061335Y-142586031D01*
X134814471Y-142788628D01*
X134814451Y-142788646D01*
X134588646Y-143014451D01*
X134588628Y-143014471D01*
X134386031Y-143261335D01*
X134386020Y-143261350D01*
X134208592Y-143526891D01*
X134058039Y-143808555D01*
X133935821Y-144103614D01*
X133935820Y-144103618D01*
X133843111Y-144409241D01*
X133780804Y-144722475D01*
X133780802Y-144722491D01*
X133749500Y-145040306D01*
X125250499Y-145040306D01*
X125219196Y-144722477D01*
X125156889Y-144409240D01*
X125064180Y-144103619D01*
X124941961Y-143808556D01*
X124791409Y-143526894D01*
X124613975Y-143261344D01*
X124411366Y-143014465D01*
X124411362Y-143014461D01*
X124411353Y-143014451D01*
X124185548Y-142788646D01*
X124185528Y-142788628D01*
X123938664Y-142586031D01*
X123938649Y-142586020D01*
X123673108Y-142408592D01*
X123391444Y-142258039D01*
X123096385Y-142135821D01*
X123096381Y-142135820D01*
X122790760Y-142043111D01*
X122581935Y-142001573D01*
X122477524Y-141980804D01*
X122477508Y-141980802D01*
X122159693Y-141949500D01*
X122159687Y-141949500D01*
X121840313Y-141949500D01*
X121840306Y-141949500D01*
X121522491Y-141980802D01*
X121522475Y-141980804D01*
X121313652Y-142022342D01*
X121209240Y-142043111D01*
X121056429Y-142089465D01*
X120903618Y-142135820D01*
X120903614Y-142135821D01*
X120608555Y-142258039D01*
X120326891Y-142408592D01*
X120061350Y-142586020D01*
X120061335Y-142586031D01*
X119814471Y-142788628D01*
X119814451Y-142788646D01*
X119588646Y-143014451D01*
X119588628Y-143014471D01*
X119386031Y-143261335D01*
X119386020Y-143261350D01*
X119208592Y-143526891D01*
X119058039Y-143808555D01*
X118935821Y-144103614D01*
X118935820Y-144103618D01*
X118843111Y-144409241D01*
X118780804Y-144722475D01*
X118780802Y-144722491D01*
X118749500Y-145040306D01*
X110850499Y-145040306D01*
X110819196Y-144722477D01*
X110756889Y-144409240D01*
X110664180Y-144103619D01*
X110541961Y-143808556D01*
X110391409Y-143526894D01*
X110213975Y-143261344D01*
X110011366Y-143014465D01*
X110011362Y-143014461D01*
X110011353Y-143014451D01*
X109785548Y-142788646D01*
X109785528Y-142788628D01*
X109538664Y-142586031D01*
X109538649Y-142586020D01*
X109273108Y-142408592D01*
X108991444Y-142258039D01*
X108696385Y-142135821D01*
X108696381Y-142135820D01*
X108390760Y-142043111D01*
X108181935Y-142001573D01*
X108077524Y-141980804D01*
X108077508Y-141980802D01*
X107759693Y-141949500D01*
X107759687Y-141949500D01*
X107440313Y-141949500D01*
X107440306Y-141949500D01*
X107122491Y-141980802D01*
X107122475Y-141980804D01*
X106913652Y-142022342D01*
X106809240Y-142043111D01*
X106656429Y-142089465D01*
X106503618Y-142135820D01*
X106503614Y-142135821D01*
X106208555Y-142258039D01*
X105926891Y-142408592D01*
X105661350Y-142586020D01*
X105661335Y-142586031D01*
X105414471Y-142788628D01*
X105414451Y-142788646D01*
X105188646Y-143014451D01*
X105188628Y-143014471D01*
X104986031Y-143261335D01*
X104986020Y-143261350D01*
X104808592Y-143526891D01*
X104658039Y-143808555D01*
X104535821Y-144103614D01*
X104535820Y-144103618D01*
X104443111Y-144409241D01*
X104380804Y-144722475D01*
X104380802Y-144722491D01*
X104349500Y-145040306D01*
X100075500Y-145040306D01*
X100075500Y-131840306D01*
X104349500Y-131840306D01*
X104349500Y-132159693D01*
X104380802Y-132477508D01*
X104380804Y-132477523D01*
X104443111Y-132790760D01*
X104508789Y-133007270D01*
X104535820Y-133096381D01*
X104535821Y-133096385D01*
X104658039Y-133391444D01*
X104808592Y-133673108D01*
X104986020Y-133938649D01*
X104986031Y-133938664D01*
X105188628Y-134185528D01*
X105188646Y-134185548D01*
X105414451Y-134411353D01*
X105414461Y-134411362D01*
X105414465Y-134411366D01*
X105661344Y-134613975D01*
X105926894Y-134791409D01*
X106208556Y-134941961D01*
X106503619Y-135064180D01*
X106809240Y-135156889D01*
X107122477Y-135219196D01*
X107440313Y-135250500D01*
X107440322Y-135250500D01*
X107759678Y-135250500D01*
X107759687Y-135250500D01*
X108077523Y-135219196D01*
X108390760Y-135156889D01*
X108696381Y-135064180D01*
X108991444Y-134941961D01*
X109273106Y-134791409D01*
X109538656Y-134613975D01*
X109785535Y-134411366D01*
X110011366Y-134185535D01*
X110213975Y-133938656D01*
X110391409Y-133673106D01*
X110541961Y-133391444D01*
X110664180Y-133096381D01*
X110756889Y-132790760D01*
X110819196Y-132477523D01*
X110850500Y-132159687D01*
X110850500Y-131840313D01*
X110850499Y-131840306D01*
X118749500Y-131840306D01*
X118749500Y-132159693D01*
X118780802Y-132477508D01*
X118780804Y-132477523D01*
X118843111Y-132790760D01*
X118908789Y-133007270D01*
X118935820Y-133096381D01*
X118935821Y-133096385D01*
X119058039Y-133391444D01*
X119208592Y-133673108D01*
X119386020Y-133938649D01*
X119386031Y-133938664D01*
X119588628Y-134185528D01*
X119588646Y-134185548D01*
X119814451Y-134411353D01*
X119814461Y-134411362D01*
X119814465Y-134411366D01*
X120061344Y-134613975D01*
X120326894Y-134791409D01*
X120608556Y-134941961D01*
X120903619Y-135064180D01*
X121209240Y-135156889D01*
X121522477Y-135219196D01*
X121840313Y-135250500D01*
X121840322Y-135250500D01*
X122159678Y-135250500D01*
X122159687Y-135250500D01*
X122477523Y-135219196D01*
X122790760Y-135156889D01*
X123096381Y-135064180D01*
X123391444Y-134941961D01*
X123673106Y-134791409D01*
X123938656Y-134613975D01*
X124185535Y-134411366D01*
X124411366Y-134185535D01*
X124613975Y-133938656D01*
X124791409Y-133673106D01*
X124941961Y-133391444D01*
X125064180Y-133096381D01*
X125156889Y-132790760D01*
X125219196Y-132477523D01*
X125250500Y-132159687D01*
X125250500Y-131840313D01*
X125250499Y-131840306D01*
X133749500Y-131840306D01*
X133749500Y-132159693D01*
X133780802Y-132477508D01*
X133780804Y-132477523D01*
X133843111Y-132790760D01*
X133908789Y-133007270D01*
X133935820Y-133096381D01*
X133935821Y-133096385D01*
X134058039Y-133391444D01*
X134208592Y-133673108D01*
X134386020Y-133938649D01*
X134386031Y-133938664D01*
X134588628Y-134185528D01*
X134588646Y-134185548D01*
X134814451Y-134411353D01*
X134814461Y-134411362D01*
X134814465Y-134411366D01*
X135061344Y-134613975D01*
X135326894Y-134791409D01*
X135608556Y-134941961D01*
X135903619Y-135064180D01*
X136209240Y-135156889D01*
X136522477Y-135219196D01*
X136840313Y-135250500D01*
X136840322Y-135250500D01*
X137159678Y-135250500D01*
X137159687Y-135250500D01*
X137477523Y-135219196D01*
X137790760Y-135156889D01*
X138096381Y-135064180D01*
X138391444Y-134941961D01*
X138673106Y-134791409D01*
X138938656Y-134613975D01*
X139185535Y-134411366D01*
X139411366Y-134185535D01*
X139613975Y-133938656D01*
X139791409Y-133673106D01*
X139941961Y-133391444D01*
X140064180Y-133096381D01*
X140156889Y-132790760D01*
X140219196Y-132477523D01*
X140250500Y-132159687D01*
X140250500Y-131840313D01*
X140250499Y-131840306D01*
X148749500Y-131840306D01*
X148749500Y-132159693D01*
X148780802Y-132477508D01*
X148780804Y-132477523D01*
X148843111Y-132790760D01*
X148908789Y-133007270D01*
X148935820Y-133096381D01*
X148935821Y-133096385D01*
X149058039Y-133391444D01*
X149208592Y-133673108D01*
X149386020Y-133938649D01*
X149386031Y-133938664D01*
X149588628Y-134185528D01*
X149588646Y-134185548D01*
X149814451Y-134411353D01*
X149814461Y-134411362D01*
X149814465Y-134411366D01*
X150061344Y-134613975D01*
X150326894Y-134791409D01*
X150608556Y-134941961D01*
X150903619Y-135064180D01*
X151209240Y-135156889D01*
X151522477Y-135219196D01*
X151840313Y-135250500D01*
X151840322Y-135250500D01*
X152159678Y-135250500D01*
X152159687Y-135250500D01*
X152477523Y-135219196D01*
X152790760Y-135156889D01*
X153096381Y-135064180D01*
X153391444Y-134941961D01*
X153673106Y-134791409D01*
X153938656Y-134613975D01*
X154185535Y-134411366D01*
X154411366Y-134185535D01*
X154613975Y-133938656D01*
X154791409Y-133673106D01*
X154941961Y-133391444D01*
X155064180Y-133096381D01*
X155156889Y-132790760D01*
X155219196Y-132477523D01*
X155250500Y-132159687D01*
X155250500Y-131840313D01*
X155219196Y-131522477D01*
X155188643Y-131368878D01*
X161999500Y-131368878D01*
X161999500Y-131631121D01*
X162033728Y-131891108D01*
X162033729Y-131891114D01*
X162033730Y-131891116D01*
X162101602Y-132144419D01*
X162201957Y-132386697D01*
X162201958Y-132386698D01*
X162201963Y-132386709D01*
X162333073Y-132613799D01*
X162333077Y-132613805D01*
X162492710Y-132821842D01*
X162492729Y-132821863D01*
X162678136Y-133007270D01*
X162678157Y-133007289D01*
X162886194Y-133166922D01*
X162886200Y-133166926D01*
X163113290Y-133298036D01*
X163113294Y-133298037D01*
X163113303Y-133298043D01*
X163355581Y-133398398D01*
X163608884Y-133466270D01*
X163608890Y-133466270D01*
X163608891Y-133466271D01*
X163633900Y-133469563D01*
X163868880Y-133500500D01*
X163868887Y-133500500D01*
X164131113Y-133500500D01*
X164131120Y-133500500D01*
X164391116Y-133466270D01*
X164644419Y-133398398D01*
X164886697Y-133298043D01*
X165113803Y-133166924D01*
X165321851Y-133007282D01*
X165507282Y-132821851D01*
X165666924Y-132613803D01*
X165798043Y-132386697D01*
X165898398Y-132144419D01*
X165966270Y-131891116D01*
X166000500Y-131631120D01*
X166000500Y-131368880D01*
X165966270Y-131108884D01*
X165898398Y-130855581D01*
X165798043Y-130613303D01*
X165798037Y-130613294D01*
X165798036Y-130613290D01*
X165666926Y-130386200D01*
X165666922Y-130386194D01*
X165507289Y-130178157D01*
X165507270Y-130178136D01*
X165321863Y-129992729D01*
X165321842Y-129992710D01*
X165113805Y-129833077D01*
X165113799Y-129833073D01*
X164886709Y-129701963D01*
X164886701Y-129701959D01*
X164886697Y-129701957D01*
X164644419Y-129601602D01*
X164391116Y-129533730D01*
X164391114Y-129533729D01*
X164391108Y-129533728D01*
X164131121Y-129499500D01*
X164131120Y-129499500D01*
X163868880Y-129499500D01*
X163868878Y-129499500D01*
X163608891Y-129533728D01*
X163355581Y-129601602D01*
X163113301Y-129701958D01*
X163113290Y-129701963D01*
X162886200Y-129833073D01*
X162886194Y-129833077D01*
X162678157Y-129992710D01*
X162678136Y-129992729D01*
X162492729Y-130178136D01*
X162492710Y-130178157D01*
X162333077Y-130386194D01*
X162333073Y-130386200D01*
X162201963Y-130613290D01*
X162201958Y-130613301D01*
X162101602Y-130855581D01*
X162033728Y-131108891D01*
X161999500Y-131368878D01*
X155188643Y-131368878D01*
X155156889Y-131209240D01*
X155064180Y-130903619D01*
X154941961Y-130608556D01*
X154791409Y-130326894D01*
X154613975Y-130061344D01*
X154557648Y-129992710D01*
X154411371Y-129814471D01*
X154411353Y-129814451D01*
X154185548Y-129588646D01*
X154185528Y-129588628D01*
X153938664Y-129386031D01*
X153938649Y-129386020D01*
X153673108Y-129208592D01*
X153391444Y-129058039D01*
X153096385Y-128935821D01*
X153096381Y-128935820D01*
X152790760Y-128843111D01*
X152581935Y-128801573D01*
X152477524Y-128780804D01*
X152477508Y-128780802D01*
X152159693Y-128749500D01*
X152159687Y-128749500D01*
X151840313Y-128749500D01*
X151840306Y-128749500D01*
X151522491Y-128780802D01*
X151522475Y-128780804D01*
X151313652Y-128822342D01*
X151209240Y-128843111D01*
X151056429Y-128889465D01*
X150903618Y-128935820D01*
X150903614Y-128935821D01*
X150608555Y-129058039D01*
X150326891Y-129208592D01*
X150061350Y-129386020D01*
X150061335Y-129386031D01*
X149814471Y-129588628D01*
X149814451Y-129588646D01*
X149588646Y-129814451D01*
X149588628Y-129814471D01*
X149386031Y-130061335D01*
X149386020Y-130061350D01*
X149208592Y-130326891D01*
X149058039Y-130608555D01*
X148935821Y-130903614D01*
X148935820Y-130903618D01*
X148935820Y-130903619D01*
X148873552Y-131108891D01*
X148843111Y-131209241D01*
X148780804Y-131522475D01*
X148780802Y-131522491D01*
X148749500Y-131840306D01*
X140250499Y-131840306D01*
X140219196Y-131522477D01*
X140156889Y-131209240D01*
X140064180Y-130903619D01*
X139941961Y-130608556D01*
X139791409Y-130326894D01*
X139613975Y-130061344D01*
X139557648Y-129992710D01*
X139411371Y-129814471D01*
X139411353Y-129814451D01*
X139185548Y-129588646D01*
X139185528Y-129588628D01*
X138938664Y-129386031D01*
X138938649Y-129386020D01*
X138673108Y-129208592D01*
X138391444Y-129058039D01*
X138096385Y-128935821D01*
X138096381Y-128935820D01*
X137790760Y-128843111D01*
X137581935Y-128801573D01*
X137477524Y-128780804D01*
X137477508Y-128780802D01*
X137159693Y-128749500D01*
X137159687Y-128749500D01*
X136840313Y-128749500D01*
X136840306Y-128749500D01*
X136522491Y-128780802D01*
X136522475Y-128780804D01*
X136313652Y-128822342D01*
X136209240Y-128843111D01*
X136056429Y-128889465D01*
X135903618Y-128935820D01*
X135903614Y-128935821D01*
X135608555Y-129058039D01*
X135326891Y-129208592D01*
X135061350Y-129386020D01*
X135061335Y-129386031D01*
X134814471Y-129588628D01*
X134814451Y-129588646D01*
X134588646Y-129814451D01*
X134588628Y-129814471D01*
X134386031Y-130061335D01*
X134386020Y-130061350D01*
X134208592Y-130326891D01*
X134058039Y-130608555D01*
X133935821Y-130903614D01*
X133935820Y-130903618D01*
X133935820Y-130903619D01*
X133873552Y-131108891D01*
X133843111Y-131209241D01*
X133780804Y-131522475D01*
X133780802Y-131522491D01*
X133749500Y-131840306D01*
X125250499Y-131840306D01*
X125219196Y-131522477D01*
X125156889Y-131209240D01*
X125064180Y-130903619D01*
X124941961Y-130608556D01*
X124791409Y-130326894D01*
X124613975Y-130061344D01*
X124557648Y-129992710D01*
X124411371Y-129814471D01*
X124411353Y-129814451D01*
X124185548Y-129588646D01*
X124185528Y-129588628D01*
X123938664Y-129386031D01*
X123938649Y-129386020D01*
X123673108Y-129208592D01*
X123391444Y-129058039D01*
X123096385Y-128935821D01*
X123096381Y-128935820D01*
X122790760Y-128843111D01*
X122581935Y-128801573D01*
X122477524Y-128780804D01*
X122477508Y-128780802D01*
X122159693Y-128749500D01*
X122159687Y-128749500D01*
X121840313Y-128749500D01*
X121840306Y-128749500D01*
X121522491Y-128780802D01*
X121522475Y-128780804D01*
X121313652Y-128822342D01*
X121209240Y-128843111D01*
X121056429Y-128889465D01*
X120903618Y-128935820D01*
X120903614Y-128935821D01*
X120608555Y-129058039D01*
X120326891Y-129208592D01*
X120061350Y-129386020D01*
X120061335Y-129386031D01*
X119814471Y-129588628D01*
X119814451Y-129588646D01*
X119588646Y-129814451D01*
X119588628Y-129814471D01*
X119386031Y-130061335D01*
X119386020Y-130061350D01*
X119208592Y-130326891D01*
X119058039Y-130608555D01*
X118935821Y-130903614D01*
X118935820Y-130903618D01*
X118935820Y-130903619D01*
X118873552Y-131108891D01*
X118843111Y-131209241D01*
X118780804Y-131522475D01*
X118780802Y-131522491D01*
X118749500Y-131840306D01*
X110850499Y-131840306D01*
X110819196Y-131522477D01*
X110756889Y-131209240D01*
X110664180Y-130903619D01*
X110541961Y-130608556D01*
X110391409Y-130326894D01*
X110213975Y-130061344D01*
X110157648Y-129992710D01*
X110011371Y-129814471D01*
X110011353Y-129814451D01*
X109785548Y-129588646D01*
X109785528Y-129588628D01*
X109538664Y-129386031D01*
X109538649Y-129386020D01*
X109273108Y-129208592D01*
X108991444Y-129058039D01*
X108696385Y-128935821D01*
X108696381Y-128935820D01*
X108390760Y-128843111D01*
X108181935Y-128801573D01*
X108077524Y-128780804D01*
X108077508Y-128780802D01*
X107759693Y-128749500D01*
X107759687Y-128749500D01*
X107440313Y-128749500D01*
X107440306Y-128749500D01*
X107122491Y-128780802D01*
X107122475Y-128780804D01*
X106913652Y-128822342D01*
X106809240Y-128843111D01*
X106656429Y-128889465D01*
X106503618Y-128935820D01*
X106503614Y-128935821D01*
X106208555Y-129058039D01*
X105926891Y-129208592D01*
X105661350Y-129386020D01*
X105661335Y-129386031D01*
X105414471Y-129588628D01*
X105414451Y-129588646D01*
X105188646Y-129814451D01*
X105188628Y-129814471D01*
X104986031Y-130061335D01*
X104986020Y-130061350D01*
X104808592Y-130326891D01*
X104658039Y-130608555D01*
X104535821Y-130903614D01*
X104535820Y-130903618D01*
X104535820Y-130903619D01*
X104473552Y-131108891D01*
X104443111Y-131209241D01*
X104380804Y-131522475D01*
X104380802Y-131522491D01*
X104349500Y-131840306D01*
X100075500Y-131840306D01*
X100075500Y-119999993D01*
X118336479Y-119999993D01*
X118336479Y-120000006D01*
X118356546Y-120382933D01*
X118416535Y-120761687D01*
X118515785Y-121132096D01*
X118653202Y-121490078D01*
X118653206Y-121490086D01*
X118827298Y-121831761D01*
X119036143Y-122153356D01*
X119036155Y-122153373D01*
X119277460Y-122451360D01*
X119277474Y-122451375D01*
X119548624Y-122722525D01*
X119548639Y-122722539D01*
X119846626Y-122963844D01*
X119846643Y-122963856D01*
X120028133Y-123081716D01*
X120168239Y-123172702D01*
X120509912Y-123346793D01*
X120509916Y-123346794D01*
X120509921Y-123346797D01*
X120867903Y-123484214D01*
X120867908Y-123484215D01*
X120867910Y-123484216D01*
X121238311Y-123583464D01*
X121617058Y-123643452D01*
X121617060Y-123643452D01*
X121617066Y-123643453D01*
X121999994Y-123663521D01*
X122000000Y-123663521D01*
X122000006Y-123663521D01*
X122382933Y-123643453D01*
X122382937Y-123643452D01*
X122382942Y-123643452D01*
X122761689Y-123583464D01*
X123132090Y-123484216D01*
X123132093Y-123484214D01*
X123132096Y-123484214D01*
X123490078Y-123346797D01*
X123490079Y-123346796D01*
X123490088Y-123346793D01*
X123831761Y-123172702D01*
X124153364Y-122963851D01*
X124153373Y-122963844D01*
X124451360Y-122722539D01*
X124451365Y-122722533D01*
X124451374Y-122722527D01*
X124722527Y-122451374D01*
X124722533Y-122451365D01*
X124722539Y-122451360D01*
X124963844Y-122153373D01*
X124963845Y-122153370D01*
X124963851Y-122153364D01*
X125172702Y-121831761D01*
X125346793Y-121490088D01*
X125484216Y-121132090D01*
X125583464Y-120761689D01*
X125643452Y-120382942D01*
X125643452Y-120382937D01*
X125643453Y-120382933D01*
X125663521Y-120000006D01*
X125663521Y-119999993D01*
X133336479Y-119999993D01*
X133336479Y-120000006D01*
X133356546Y-120382933D01*
X133416535Y-120761687D01*
X133515785Y-121132096D01*
X133653202Y-121490078D01*
X133653206Y-121490086D01*
X133827298Y-121831761D01*
X134036143Y-122153356D01*
X134036155Y-122153373D01*
X134277460Y-122451360D01*
X134277474Y-122451375D01*
X134548624Y-122722525D01*
X134548639Y-122722539D01*
X134846626Y-122963844D01*
X134846643Y-122963856D01*
X135028133Y-123081716D01*
X135168239Y-123172702D01*
X135509912Y-123346793D01*
X135509916Y-123346794D01*
X135509921Y-123346797D01*
X135867903Y-123484214D01*
X135867908Y-123484215D01*
X135867910Y-123484216D01*
X136238311Y-123583464D01*
X136617058Y-123643452D01*
X136617060Y-123643452D01*
X136617066Y-123643453D01*
X136999994Y-123663521D01*
X137000000Y-123663521D01*
X137000006Y-123663521D01*
X137382933Y-123643453D01*
X137382937Y-123643452D01*
X137382942Y-123643452D01*
X137761689Y-123583464D01*
X138132090Y-123484216D01*
X138132093Y-123484214D01*
X138132096Y-123484214D01*
X138490078Y-123346797D01*
X138490079Y-123346796D01*
X138490088Y-123346793D01*
X138831761Y-123172702D01*
X139153364Y-122963851D01*
X139153373Y-122963844D01*
X139451360Y-122722539D01*
X139451365Y-122722533D01*
X139451374Y-122722527D01*
X139722527Y-122451374D01*
X139722533Y-122451365D01*
X139722539Y-122451360D01*
X139963844Y-122153373D01*
X139963845Y-122153370D01*
X139963851Y-122153364D01*
X140172702Y-121831761D01*
X140346793Y-121490088D01*
X140484216Y-121132090D01*
X140583464Y-120761689D01*
X140643452Y-120382942D01*
X140643452Y-120382937D01*
X140643453Y-120382933D01*
X140663521Y-120000006D01*
X140663521Y-119999993D01*
X148336479Y-119999993D01*
X148336479Y-120000006D01*
X148356546Y-120382933D01*
X148416535Y-120761687D01*
X148515785Y-121132096D01*
X148653202Y-121490078D01*
X148653206Y-121490086D01*
X148827298Y-121831761D01*
X149036143Y-122153356D01*
X149036155Y-122153373D01*
X149277460Y-122451360D01*
X149277474Y-122451375D01*
X149548624Y-122722525D01*
X149548639Y-122722539D01*
X149846626Y-122963844D01*
X149846643Y-122963856D01*
X150028133Y-123081716D01*
X150168239Y-123172702D01*
X150509912Y-123346793D01*
X150509916Y-123346794D01*
X150509921Y-123346797D01*
X150867903Y-123484214D01*
X150867908Y-123484215D01*
X150867910Y-123484216D01*
X151238311Y-123583464D01*
X151617058Y-123643452D01*
X151617060Y-123643452D01*
X151617066Y-123643453D01*
X151999994Y-123663521D01*
X152000000Y-123663521D01*
X152000006Y-123663521D01*
X152382933Y-123643453D01*
X152382937Y-123643452D01*
X152382942Y-123643452D01*
X152761689Y-123583464D01*
X153132090Y-123484216D01*
X153132093Y-123484214D01*
X153132096Y-123484214D01*
X153490078Y-123346797D01*
X153490079Y-123346796D01*
X153490088Y-123346793D01*
X153831761Y-123172702D01*
X154153364Y-122963851D01*
X154153373Y-122963844D01*
X154451360Y-122722539D01*
X154451365Y-122722533D01*
X154451374Y-122722527D01*
X154722527Y-122451374D01*
X154722533Y-122451365D01*
X154722539Y-122451360D01*
X154963844Y-122153373D01*
X154963845Y-122153370D01*
X154963851Y-122153364D01*
X155172702Y-121831761D01*
X155346793Y-121490088D01*
X155484216Y-121132090D01*
X155583464Y-120761689D01*
X155643452Y-120382942D01*
X155643452Y-120382937D01*
X155643453Y-120382933D01*
X155663521Y-120000006D01*
X155663521Y-119999993D01*
X155643453Y-119617066D01*
X155583464Y-119238312D01*
X155484214Y-118867903D01*
X155346797Y-118509921D01*
X155346793Y-118509913D01*
X155346793Y-118509912D01*
X155172702Y-118168240D01*
X154963851Y-117846636D01*
X154963848Y-117846632D01*
X154963846Y-117846629D01*
X154722539Y-117548639D01*
X154722525Y-117548624D01*
X154451375Y-117277474D01*
X154451360Y-117277460D01*
X154153373Y-117036155D01*
X154153356Y-117036143D01*
X153831761Y-116827298D01*
X153490086Y-116653206D01*
X153490078Y-116653202D01*
X153132096Y-116515785D01*
X152761687Y-116416535D01*
X152382933Y-116356546D01*
X152000006Y-116336479D01*
X151999994Y-116336479D01*
X151617066Y-116356546D01*
X151238312Y-116416535D01*
X150867903Y-116515785D01*
X150509921Y-116653202D01*
X150509913Y-116653206D01*
X150168239Y-116827298D01*
X149846632Y-117036151D01*
X149846629Y-117036153D01*
X149548639Y-117277460D01*
X149548624Y-117277474D01*
X149277474Y-117548624D01*
X149277460Y-117548639D01*
X149036153Y-117846629D01*
X149036151Y-117846632D01*
X148827298Y-118168239D01*
X148653206Y-118509913D01*
X148653202Y-118509921D01*
X148515785Y-118867903D01*
X148416535Y-119238312D01*
X148356546Y-119617066D01*
X148336479Y-119999993D01*
X140663521Y-119999993D01*
X140643453Y-119617066D01*
X140583464Y-119238312D01*
X140484214Y-118867903D01*
X140346797Y-118509921D01*
X140346793Y-118509913D01*
X140346793Y-118509912D01*
X140172702Y-118168240D01*
X139963851Y-117846636D01*
X139963848Y-117846632D01*
X139963846Y-117846629D01*
X139722539Y-117548639D01*
X139722525Y-117548624D01*
X139451375Y-117277474D01*
X139451360Y-117277460D01*
X139153373Y-117036155D01*
X139153356Y-117036143D01*
X138831761Y-116827298D01*
X138490086Y-116653206D01*
X138490078Y-116653202D01*
X138132096Y-116515785D01*
X137761687Y-116416535D01*
X137382933Y-116356546D01*
X137000006Y-116336479D01*
X136999994Y-116336479D01*
X136617066Y-116356546D01*
X136238312Y-116416535D01*
X135867903Y-116515785D01*
X135509921Y-116653202D01*
X135509913Y-116653206D01*
X135168239Y-116827298D01*
X134846632Y-117036151D01*
X134846629Y-117036153D01*
X134548639Y-117277460D01*
X134548624Y-117277474D01*
X134277474Y-117548624D01*
X134277460Y-117548639D01*
X134036153Y-117846629D01*
X134036151Y-117846632D01*
X133827298Y-118168239D01*
X133653206Y-118509913D01*
X133653202Y-118509921D01*
X133515785Y-118867903D01*
X133416535Y-119238312D01*
X133356546Y-119617066D01*
X133336479Y-119999993D01*
X125663521Y-119999993D01*
X125643453Y-119617066D01*
X125583464Y-119238312D01*
X125484214Y-118867903D01*
X125346797Y-118509921D01*
X125346793Y-118509913D01*
X125346793Y-118509912D01*
X125172702Y-118168240D01*
X124963851Y-117846636D01*
X124963848Y-117846632D01*
X124963846Y-117846629D01*
X124722539Y-117548639D01*
X124722525Y-117548624D01*
X124451375Y-117277474D01*
X124451360Y-117277460D01*
X124153373Y-117036155D01*
X124153356Y-117036143D01*
X123831761Y-116827298D01*
X123490086Y-116653206D01*
X123490078Y-116653202D01*
X123132096Y-116515785D01*
X122761687Y-116416535D01*
X122382933Y-116356546D01*
X122000006Y-116336479D01*
X121999994Y-116336479D01*
X121617066Y-116356546D01*
X121238312Y-116416535D01*
X120867903Y-116515785D01*
X120509921Y-116653202D01*
X120509913Y-116653206D01*
X120168239Y-116827298D01*
X119846632Y-117036151D01*
X119846629Y-117036153D01*
X119548639Y-117277460D01*
X119548624Y-117277474D01*
X119277474Y-117548624D01*
X119277460Y-117548639D01*
X119036153Y-117846629D01*
X119036151Y-117846632D01*
X118827298Y-118168239D01*
X118653206Y-118509913D01*
X118653202Y-118509921D01*
X118515785Y-118867903D01*
X118416535Y-119238312D01*
X118356546Y-119617066D01*
X118336479Y-119999993D01*
X100075500Y-119999993D01*
X100075500Y-103815743D01*
X107449500Y-103815743D01*
X107449500Y-104184256D01*
X107485617Y-104550961D01*
X107485620Y-104550981D01*
X107557506Y-104912382D01*
X107664480Y-105265029D01*
X107664481Y-105265033D01*
X107805499Y-105605479D01*
X107979210Y-105930470D01*
X108183932Y-106236858D01*
X108183943Y-106236873D01*
X108417705Y-106521712D01*
X108417723Y-106521732D01*
X108678267Y-106782276D01*
X108678277Y-106782285D01*
X108678281Y-106782289D01*
X108963135Y-107016063D01*
X109269532Y-107220791D01*
X109594521Y-107394501D01*
X109934971Y-107535520D01*
X110287604Y-107642490D01*
X110287613Y-107642491D01*
X110287617Y-107642493D01*
X110410230Y-107666881D01*
X110649024Y-107714381D01*
X111015750Y-107750500D01*
X111015759Y-107750500D01*
X111384241Y-107750500D01*
X111384250Y-107750500D01*
X111750976Y-107714381D01*
X112048660Y-107655167D01*
X112112382Y-107642493D01*
X112112384Y-107642492D01*
X112112396Y-107642490D01*
X112465029Y-107535520D01*
X112805479Y-107394501D01*
X113130468Y-107220791D01*
X113436865Y-107016063D01*
X113721719Y-106782289D01*
X113982289Y-106521719D01*
X114216063Y-106236865D01*
X114420791Y-105930468D01*
X114594501Y-105605479D01*
X114735520Y-105265029D01*
X114842490Y-104912396D01*
X114914381Y-104550976D01*
X114950500Y-104184250D01*
X114950500Y-103815750D01*
X114950499Y-103815743D01*
X155449500Y-103815743D01*
X155449500Y-104184256D01*
X155485617Y-104550961D01*
X155485620Y-104550981D01*
X155557506Y-104912382D01*
X155664480Y-105265029D01*
X155664481Y-105265033D01*
X155805499Y-105605479D01*
X155979210Y-105930470D01*
X156183932Y-106236858D01*
X156183943Y-106236873D01*
X156417705Y-106521712D01*
X156417723Y-106521732D01*
X156678267Y-106782276D01*
X156678277Y-106782285D01*
X156678281Y-106782289D01*
X156963135Y-107016063D01*
X157269532Y-107220791D01*
X157594521Y-107394501D01*
X157934971Y-107535520D01*
X158287604Y-107642490D01*
X158287613Y-107642491D01*
X158287617Y-107642493D01*
X158410230Y-107666881D01*
X158649024Y-107714381D01*
X159015750Y-107750500D01*
X159015759Y-107750500D01*
X159384241Y-107750500D01*
X159384250Y-107750500D01*
X159750976Y-107714381D01*
X160048660Y-107655167D01*
X160112382Y-107642493D01*
X160112384Y-107642492D01*
X160112396Y-107642490D01*
X160465029Y-107535520D01*
X160805479Y-107394501D01*
X161130468Y-107220791D01*
X161436865Y-107016063D01*
X161721719Y-106782289D01*
X161982289Y-106521719D01*
X162216063Y-106236865D01*
X162420791Y-105930468D01*
X162594501Y-105605479D01*
X162735520Y-105265029D01*
X162842490Y-104912396D01*
X162914381Y-104550976D01*
X162950500Y-104184250D01*
X162950500Y-103815750D01*
X162914381Y-103449024D01*
X162842490Y-103087604D01*
X162735520Y-102734971D01*
X162594501Y-102394521D01*
X162420791Y-102069532D01*
X162216063Y-101763135D01*
X162118634Y-101644418D01*
X161982294Y-101478287D01*
X161982276Y-101478267D01*
X161721732Y-101217723D01*
X161721712Y-101217705D01*
X161436873Y-100983943D01*
X161436858Y-100983932D01*
X161130470Y-100779210D01*
X160805479Y-100605499D01*
X160465033Y-100464481D01*
X160465029Y-100464480D01*
X160112396Y-100357510D01*
X160112393Y-100357509D01*
X160112382Y-100357506D01*
X159750981Y-100285620D01*
X159750976Y-100285619D01*
X159750971Y-100285618D01*
X159750961Y-100285617D01*
X159384256Y-100249500D01*
X159384250Y-100249500D01*
X159015750Y-100249500D01*
X159015743Y-100249500D01*
X158649038Y-100285617D01*
X158649025Y-100285618D01*
X158649024Y-100285619D01*
X158649021Y-100285619D01*
X158649018Y-100285620D01*
X158287617Y-100357506D01*
X157934970Y-100464480D01*
X157934966Y-100464481D01*
X157594520Y-100605499D01*
X157269529Y-100779210D01*
X156963141Y-100983932D01*
X156963126Y-100983943D01*
X156678287Y-101217705D01*
X156678267Y-101217723D01*
X156417723Y-101478267D01*
X156417705Y-101478287D01*
X156183943Y-101763126D01*
X156183932Y-101763141D01*
X155979210Y-102069529D01*
X155805499Y-102394520D01*
X155664481Y-102734966D01*
X155664480Y-102734970D01*
X155557506Y-103087617D01*
X155485620Y-103449018D01*
X155485617Y-103449038D01*
X155449500Y-103815743D01*
X114950499Y-103815743D01*
X114914381Y-103449024D01*
X114842490Y-103087604D01*
X114735520Y-102734971D01*
X114594501Y-102394521D01*
X114420791Y-102069532D01*
X114216063Y-101763135D01*
X114118634Y-101644418D01*
X113982294Y-101478287D01*
X113982276Y-101478267D01*
X113721732Y-101217723D01*
X113721712Y-101217705D01*
X113436873Y-100983943D01*
X113436858Y-100983932D01*
X113264668Y-100868878D01*
X133499500Y-100868878D01*
X133499500Y-101131121D01*
X133533728Y-101391108D01*
X133533729Y-101391114D01*
X133533730Y-101391116D01*
X133601602Y-101644419D01*
X133701957Y-101886697D01*
X133701958Y-101886698D01*
X133701963Y-101886709D01*
X133833073Y-102113799D01*
X133833077Y-102113805D01*
X133992710Y-102321842D01*
X133992729Y-102321863D01*
X134178136Y-102507270D01*
X134178157Y-102507289D01*
X134386194Y-102666922D01*
X134386200Y-102666926D01*
X134613290Y-102798036D01*
X134613294Y-102798037D01*
X134613303Y-102798043D01*
X134855581Y-102898398D01*
X135108884Y-102966270D01*
X135108890Y-102966270D01*
X135108891Y-102966271D01*
X135133900Y-102969563D01*
X135368880Y-103000500D01*
X135368887Y-103000500D01*
X135631113Y-103000500D01*
X135631120Y-103000500D01*
X135891116Y-102966270D01*
X136144419Y-102898398D01*
X136386697Y-102798043D01*
X136613803Y-102666924D01*
X136821851Y-102507282D01*
X137007282Y-102321851D01*
X137166924Y-102113803D01*
X137298043Y-101886697D01*
X137398398Y-101644419D01*
X137466270Y-101391116D01*
X137500500Y-101131120D01*
X137500500Y-100868880D01*
X137466270Y-100608884D01*
X137398398Y-100355581D01*
X137298043Y-100113303D01*
X137298037Y-100113294D01*
X137298036Y-100113290D01*
X137166926Y-99886200D01*
X137166922Y-99886194D01*
X137007289Y-99678157D01*
X137007270Y-99678136D01*
X136821863Y-99492729D01*
X136821842Y-99492710D01*
X136613805Y-99333077D01*
X136613799Y-99333073D01*
X136386709Y-99201963D01*
X136386701Y-99201959D01*
X136386697Y-99201957D01*
X136144419Y-99101602D01*
X135891116Y-99033730D01*
X135891114Y-99033729D01*
X135891108Y-99033728D01*
X135631121Y-98999500D01*
X135631120Y-98999500D01*
X135368880Y-98999500D01*
X135368878Y-98999500D01*
X135108891Y-99033728D01*
X134855581Y-99101602D01*
X134613301Y-99201958D01*
X134613290Y-99201963D01*
X134386200Y-99333073D01*
X134386194Y-99333077D01*
X134178157Y-99492710D01*
X134178136Y-99492729D01*
X133992729Y-99678136D01*
X133992710Y-99678157D01*
X133833077Y-99886194D01*
X133833073Y-99886200D01*
X133701963Y-100113290D01*
X133701958Y-100113301D01*
X133601602Y-100355581D01*
X133533728Y-100608891D01*
X133499500Y-100868878D01*
X113264668Y-100868878D01*
X113130470Y-100779210D01*
X112805479Y-100605499D01*
X112465033Y-100464481D01*
X112465029Y-100464480D01*
X112112396Y-100357510D01*
X112112393Y-100357509D01*
X112112382Y-100357506D01*
X111750981Y-100285620D01*
X111750976Y-100285619D01*
X111750971Y-100285618D01*
X111750961Y-100285617D01*
X111384256Y-100249500D01*
X111384250Y-100249500D01*
X111015750Y-100249500D01*
X111015743Y-100249500D01*
X110649038Y-100285617D01*
X110649025Y-100285618D01*
X110649024Y-100285619D01*
X110649021Y-100285619D01*
X110649018Y-100285620D01*
X110287617Y-100357506D01*
X109934970Y-100464480D01*
X109934966Y-100464481D01*
X109594520Y-100605499D01*
X109269529Y-100779210D01*
X108963141Y-100983932D01*
X108963126Y-100983943D01*
X108678287Y-101217705D01*
X108678267Y-101217723D01*
X108417723Y-101478267D01*
X108417705Y-101478287D01*
X108183943Y-101763126D01*
X108183932Y-101763141D01*
X107979210Y-102069529D01*
X107805499Y-102394520D01*
X107664481Y-102734966D01*
X107664480Y-102734970D01*
X107557506Y-103087617D01*
X107485620Y-103449018D01*
X107485617Y-103449038D01*
X107449500Y-103815743D01*
X100075500Y-103815743D01*
X100075500Y-47984981D01*
X110824500Y-47984981D01*
X110824500Y-87415018D01*
X110835993Y-87442766D01*
X110835996Y-87442770D01*
X110857229Y-87464003D01*
X110857233Y-87464006D01*
X110884982Y-87475500D01*
X162515018Y-87475500D01*
X162542767Y-87464006D01*
X162564006Y-87442767D01*
X162575500Y-87415018D01*
X162575500Y-47984982D01*
X162564006Y-47957233D01*
X162564003Y-47957229D01*
X162542770Y-47935996D01*
X162542766Y-47935993D01*
X162515018Y-47924500D01*
X110915018Y-47924500D01*
X110884982Y-47924500D01*
X110857233Y-47935993D01*
X110857229Y-47935996D01*
X110835996Y-47957229D01*
X110835993Y-47957233D01*
X110824500Y-47984981D01*
X100075500Y-47984981D01*
X100075500Y-37778709D01*
X104749500Y-37778709D01*
X104749500Y-38021290D01*
X104781160Y-38261782D01*
X104843944Y-38496095D01*
X104843945Y-38496097D01*
X104843946Y-38496100D01*
X104936776Y-38720212D01*
X104936777Y-38720213D01*
X104936782Y-38720224D01*
X105058061Y-38930285D01*
X105058063Y-38930288D01*
X105058064Y-38930289D01*
X105205735Y-39122738D01*
X105205739Y-39122742D01*
X105205744Y-39122748D01*
X105377251Y-39294255D01*
X105377256Y-39294259D01*
X105377262Y-39294265D01*
X105569711Y-39441936D01*
X105569714Y-39441938D01*
X105779775Y-39563217D01*
X105779779Y-39563218D01*
X105779788Y-39563224D01*
X106003900Y-39656054D01*
X106238211Y-39718838D01*
X106238215Y-39718838D01*
X106238217Y-39718839D01*
X106300202Y-39726999D01*
X106478712Y-39750500D01*
X106478719Y-39750500D01*
X108521281Y-39750500D01*
X108521288Y-39750500D01*
X108738637Y-39721885D01*
X108761782Y-39718839D01*
X108761782Y-39718838D01*
X108761789Y-39718838D01*
X108996100Y-39656054D01*
X109220212Y-39563224D01*
X109430289Y-39441936D01*
X109622738Y-39294265D01*
X109794265Y-39122738D01*
X109941936Y-38930289D01*
X110063224Y-38720212D01*
X110156054Y-38496100D01*
X110218838Y-38261789D01*
X110250500Y-38021288D01*
X110250500Y-37778712D01*
X110250500Y-37778709D01*
X160749500Y-37778709D01*
X160749500Y-38021290D01*
X160781160Y-38261782D01*
X160843944Y-38496095D01*
X160843945Y-38496097D01*
X160843946Y-38496100D01*
X160936776Y-38720212D01*
X160936777Y-38720213D01*
X160936782Y-38720224D01*
X161058061Y-38930285D01*
X161058063Y-38930288D01*
X161058064Y-38930289D01*
X161205735Y-39122738D01*
X161205739Y-39122742D01*
X161205744Y-39122748D01*
X161377251Y-39294255D01*
X161377256Y-39294259D01*
X161377262Y-39294265D01*
X161569711Y-39441936D01*
X161569714Y-39441938D01*
X161779775Y-39563217D01*
X161779779Y-39563218D01*
X161779788Y-39563224D01*
X162003900Y-39656054D01*
X162238211Y-39718838D01*
X162238215Y-39718838D01*
X162238217Y-39718839D01*
X162300202Y-39726999D01*
X162478712Y-39750500D01*
X162478719Y-39750500D01*
X164521281Y-39750500D01*
X164521288Y-39750500D01*
X164738637Y-39721885D01*
X164761782Y-39718839D01*
X164761782Y-39718838D01*
X164761789Y-39718838D01*
X164996100Y-39656054D01*
X165220212Y-39563224D01*
X165430289Y-39441936D01*
X165622738Y-39294265D01*
X165794265Y-39122738D01*
X165941936Y-38930289D01*
X166063224Y-38720212D01*
X166156054Y-38496100D01*
X166218838Y-38261789D01*
X166250500Y-38021288D01*
X166250500Y-37778712D01*
X166218838Y-37538211D01*
X166156054Y-37303900D01*
X166063224Y-37079788D01*
X166063218Y-37079779D01*
X166063217Y-37079775D01*
X165941938Y-36869714D01*
X165941936Y-36869711D01*
X165794265Y-36677262D01*
X165794259Y-36677256D01*
X165794255Y-36677251D01*
X165622748Y-36505744D01*
X165622742Y-36505739D01*
X165622738Y-36505735D01*
X165430289Y-36358064D01*
X165430288Y-36358063D01*
X165430285Y-36358061D01*
X165220224Y-36236782D01*
X165220216Y-36236778D01*
X165220212Y-36236776D01*
X164996100Y-36143946D01*
X164996097Y-36143945D01*
X164996095Y-36143944D01*
X164761782Y-36081160D01*
X164521290Y-36049500D01*
X164521288Y-36049500D01*
X162478712Y-36049500D01*
X162478709Y-36049500D01*
X162238217Y-36081160D01*
X162003904Y-36143944D01*
X162003900Y-36143946D01*
X161779786Y-36236777D01*
X161779775Y-36236782D01*
X161569714Y-36358061D01*
X161377262Y-36505735D01*
X161377251Y-36505744D01*
X161205744Y-36677251D01*
X161205735Y-36677262D01*
X161058061Y-36869714D01*
X160936782Y-37079775D01*
X160936777Y-37079786D01*
X160843946Y-37303900D01*
X160843944Y-37303904D01*
X160781160Y-37538217D01*
X160749500Y-37778709D01*
X110250500Y-37778709D01*
X110218838Y-37538211D01*
X110156054Y-37303900D01*
X110063224Y-37079788D01*
X110063218Y-37079779D01*
X110063217Y-37079775D01*
X109941938Y-36869714D01*
X109941936Y-36869711D01*
X109794265Y-36677262D01*
X109794259Y-36677256D01*
X109794255Y-36677251D01*
X109622748Y-36505744D01*
X109622742Y-36505739D01*
X109622738Y-36505735D01*
X109430289Y-36358064D01*
X109430288Y-36358063D01*
X109430285Y-36358061D01*
X109220224Y-36236782D01*
X109220216Y-36236778D01*
X109220212Y-36236776D01*
X108996100Y-36143946D01*
X108996097Y-36143945D01*
X108996095Y-36143944D01*
X108761782Y-36081160D01*
X108521290Y-36049500D01*
X108521288Y-36049500D01*
X106478712Y-36049500D01*
X106478709Y-36049500D01*
X106238217Y-36081160D01*
X106003904Y-36143944D01*
X106003900Y-36143946D01*
X105779786Y-36236777D01*
X105779775Y-36236782D01*
X105569714Y-36358061D01*
X105377262Y-36505735D01*
X105377251Y-36505744D01*
X105205744Y-36677251D01*
X105205735Y-36677262D01*
X105058061Y-36869714D01*
X104936782Y-37079775D01*
X104936777Y-37079786D01*
X104843946Y-37303900D01*
X104843944Y-37303904D01*
X104781160Y-37538217D01*
X104749500Y-37778709D01*
X100075500Y-37778709D01*
X100075500Y-35101500D01*
X100095502Y-35033379D01*
X100149158Y-34986886D01*
X100201500Y-34975500D01*
X170798500Y-34975500D01*
X170866621Y-34995502D01*
G37*
G04 #@! TD.AperFunction*
M02*
