G04 #@! TF.GenerationSoftware,KiCad,Pcbnew,8.0.8*
G04 #@! TF.CreationDate,2025-06-13T11:57:10+01:00*
G04 #@! TF.ProjectId,oscar_panel_nousb_variant,6f736361-725f-4706-916e-656c5f6e6f75,rev?*
G04 #@! TF.SameCoordinates,Original*
G04 #@! TF.FileFunction,Legend,Bot*
G04 #@! TF.FilePolarity,Positive*
%FSLAX46Y46*%
G04 Gerber Fmt 4.6, Leading zero omitted, Abs format (unit mm)*
G04 Created by KiCad (PCBNEW 8.0.8) date 2025-06-13 11:57:10*
%MOMM*%
%LPD*%
G01*
G04 APERTURE LIST*
%ADD10C,0.150000*%
G04 APERTURE END LIST*
D10*
X144666667Y-37754819D02*
X144476191Y-37754819D01*
X144476191Y-37754819D02*
X144380953Y-37802438D01*
X144380953Y-37802438D02*
X144285715Y-37897676D01*
X144285715Y-37897676D02*
X144238096Y-38088152D01*
X144238096Y-38088152D02*
X144238096Y-38421485D01*
X144238096Y-38421485D02*
X144285715Y-38611961D01*
X144285715Y-38611961D02*
X144380953Y-38707200D01*
X144380953Y-38707200D02*
X144476191Y-38754819D01*
X144476191Y-38754819D02*
X144666667Y-38754819D01*
X144666667Y-38754819D02*
X144761905Y-38707200D01*
X144761905Y-38707200D02*
X144857143Y-38611961D01*
X144857143Y-38611961D02*
X144904762Y-38421485D01*
X144904762Y-38421485D02*
X144904762Y-38088152D01*
X144904762Y-38088152D02*
X144857143Y-37897676D01*
X144857143Y-37897676D02*
X144761905Y-37802438D01*
X144761905Y-37802438D02*
X144666667Y-37754819D01*
X143857143Y-38707200D02*
X143714286Y-38754819D01*
X143714286Y-38754819D02*
X143476191Y-38754819D01*
X143476191Y-38754819D02*
X143380953Y-38707200D01*
X143380953Y-38707200D02*
X143333334Y-38659580D01*
X143333334Y-38659580D02*
X143285715Y-38564342D01*
X143285715Y-38564342D02*
X143285715Y-38469104D01*
X143285715Y-38469104D02*
X143333334Y-38373866D01*
X143333334Y-38373866D02*
X143380953Y-38326247D01*
X143380953Y-38326247D02*
X143476191Y-38278628D01*
X143476191Y-38278628D02*
X143666667Y-38231009D01*
X143666667Y-38231009D02*
X143761905Y-38183390D01*
X143761905Y-38183390D02*
X143809524Y-38135771D01*
X143809524Y-38135771D02*
X143857143Y-38040533D01*
X143857143Y-38040533D02*
X143857143Y-37945295D01*
X143857143Y-37945295D02*
X143809524Y-37850057D01*
X143809524Y-37850057D02*
X143761905Y-37802438D01*
X143761905Y-37802438D02*
X143666667Y-37754819D01*
X143666667Y-37754819D02*
X143428572Y-37754819D01*
X143428572Y-37754819D02*
X143285715Y-37802438D01*
X142285715Y-38659580D02*
X142333334Y-38707200D01*
X142333334Y-38707200D02*
X142476191Y-38754819D01*
X142476191Y-38754819D02*
X142571429Y-38754819D01*
X142571429Y-38754819D02*
X142714286Y-38707200D01*
X142714286Y-38707200D02*
X142809524Y-38611961D01*
X142809524Y-38611961D02*
X142857143Y-38516723D01*
X142857143Y-38516723D02*
X142904762Y-38326247D01*
X142904762Y-38326247D02*
X142904762Y-38183390D01*
X142904762Y-38183390D02*
X142857143Y-37992914D01*
X142857143Y-37992914D02*
X142809524Y-37897676D01*
X142809524Y-37897676D02*
X142714286Y-37802438D01*
X142714286Y-37802438D02*
X142571429Y-37754819D01*
X142571429Y-37754819D02*
X142476191Y-37754819D01*
X142476191Y-37754819D02*
X142333334Y-37802438D01*
X142333334Y-37802438D02*
X142285715Y-37850057D01*
X141904762Y-38469104D02*
X141428572Y-38469104D01*
X142000000Y-38754819D02*
X141666667Y-37754819D01*
X141666667Y-37754819D02*
X141333334Y-38754819D01*
X140428572Y-38754819D02*
X140761905Y-38278628D01*
X141000000Y-38754819D02*
X141000000Y-37754819D01*
X141000000Y-37754819D02*
X140619048Y-37754819D01*
X140619048Y-37754819D02*
X140523810Y-37802438D01*
X140523810Y-37802438D02*
X140476191Y-37850057D01*
X140476191Y-37850057D02*
X140428572Y-37945295D01*
X140428572Y-37945295D02*
X140428572Y-38088152D01*
X140428572Y-38088152D02*
X140476191Y-38183390D01*
X140476191Y-38183390D02*
X140523810Y-38231009D01*
X140523810Y-38231009D02*
X140619048Y-38278628D01*
X140619048Y-38278628D02*
X141000000Y-38278628D01*
X139238095Y-38754819D02*
X139238095Y-37754819D01*
X139238095Y-37754819D02*
X138857143Y-37754819D01*
X138857143Y-37754819D02*
X138761905Y-37802438D01*
X138761905Y-37802438D02*
X138714286Y-37850057D01*
X138714286Y-37850057D02*
X138666667Y-37945295D01*
X138666667Y-37945295D02*
X138666667Y-38088152D01*
X138666667Y-38088152D02*
X138714286Y-38183390D01*
X138714286Y-38183390D02*
X138761905Y-38231009D01*
X138761905Y-38231009D02*
X138857143Y-38278628D01*
X138857143Y-38278628D02*
X139238095Y-38278628D01*
X137809524Y-38754819D02*
X137809524Y-38231009D01*
X137809524Y-38231009D02*
X137857143Y-38135771D01*
X137857143Y-38135771D02*
X137952381Y-38088152D01*
X137952381Y-38088152D02*
X138142857Y-38088152D01*
X138142857Y-38088152D02*
X138238095Y-38135771D01*
X137809524Y-38707200D02*
X137904762Y-38754819D01*
X137904762Y-38754819D02*
X138142857Y-38754819D01*
X138142857Y-38754819D02*
X138238095Y-38707200D01*
X138238095Y-38707200D02*
X138285714Y-38611961D01*
X138285714Y-38611961D02*
X138285714Y-38516723D01*
X138285714Y-38516723D02*
X138238095Y-38421485D01*
X138238095Y-38421485D02*
X138142857Y-38373866D01*
X138142857Y-38373866D02*
X137904762Y-38373866D01*
X137904762Y-38373866D02*
X137809524Y-38326247D01*
X137333333Y-38088152D02*
X137333333Y-38754819D01*
X137333333Y-38183390D02*
X137285714Y-38135771D01*
X137285714Y-38135771D02*
X137190476Y-38088152D01*
X137190476Y-38088152D02*
X137047619Y-38088152D01*
X137047619Y-38088152D02*
X136952381Y-38135771D01*
X136952381Y-38135771D02*
X136904762Y-38231009D01*
X136904762Y-38231009D02*
X136904762Y-38754819D01*
X136047619Y-38707200D02*
X136142857Y-38754819D01*
X136142857Y-38754819D02*
X136333333Y-38754819D01*
X136333333Y-38754819D02*
X136428571Y-38707200D01*
X136428571Y-38707200D02*
X136476190Y-38611961D01*
X136476190Y-38611961D02*
X136476190Y-38231009D01*
X136476190Y-38231009D02*
X136428571Y-38135771D01*
X136428571Y-38135771D02*
X136333333Y-38088152D01*
X136333333Y-38088152D02*
X136142857Y-38088152D01*
X136142857Y-38088152D02*
X136047619Y-38135771D01*
X136047619Y-38135771D02*
X136000000Y-38231009D01*
X136000000Y-38231009D02*
X136000000Y-38326247D01*
X136000000Y-38326247D02*
X136476190Y-38421485D01*
X135428571Y-38754819D02*
X135523809Y-38707200D01*
X135523809Y-38707200D02*
X135571428Y-38611961D01*
X135571428Y-38611961D02*
X135571428Y-37754819D01*
X134285713Y-38754819D02*
X134285713Y-37754819D01*
X134285713Y-37754819D02*
X133714285Y-38754819D01*
X133714285Y-38754819D02*
X133714285Y-37754819D01*
X133095237Y-38754819D02*
X133190475Y-38707200D01*
X133190475Y-38707200D02*
X133238094Y-38659580D01*
X133238094Y-38659580D02*
X133285713Y-38564342D01*
X133285713Y-38564342D02*
X133285713Y-38278628D01*
X133285713Y-38278628D02*
X133238094Y-38183390D01*
X133238094Y-38183390D02*
X133190475Y-38135771D01*
X133190475Y-38135771D02*
X133095237Y-38088152D01*
X133095237Y-38088152D02*
X132952380Y-38088152D01*
X132952380Y-38088152D02*
X132857142Y-38135771D01*
X132857142Y-38135771D02*
X132809523Y-38183390D01*
X132809523Y-38183390D02*
X132761904Y-38278628D01*
X132761904Y-38278628D02*
X132761904Y-38564342D01*
X132761904Y-38564342D02*
X132809523Y-38659580D01*
X132809523Y-38659580D02*
X132857142Y-38707200D01*
X132857142Y-38707200D02*
X132952380Y-38754819D01*
X132952380Y-38754819D02*
X133095237Y-38754819D01*
X131571427Y-37754819D02*
X131571427Y-38564342D01*
X131571427Y-38564342D02*
X131523808Y-38659580D01*
X131523808Y-38659580D02*
X131476189Y-38707200D01*
X131476189Y-38707200D02*
X131380951Y-38754819D01*
X131380951Y-38754819D02*
X131190475Y-38754819D01*
X131190475Y-38754819D02*
X131095237Y-38707200D01*
X131095237Y-38707200D02*
X131047618Y-38659580D01*
X131047618Y-38659580D02*
X130999999Y-38564342D01*
X130999999Y-38564342D02*
X130999999Y-37754819D01*
X130571427Y-38707200D02*
X130428570Y-38754819D01*
X130428570Y-38754819D02*
X130190475Y-38754819D01*
X130190475Y-38754819D02*
X130095237Y-38707200D01*
X130095237Y-38707200D02*
X130047618Y-38659580D01*
X130047618Y-38659580D02*
X129999999Y-38564342D01*
X129999999Y-38564342D02*
X129999999Y-38469104D01*
X129999999Y-38469104D02*
X130047618Y-38373866D01*
X130047618Y-38373866D02*
X130095237Y-38326247D01*
X130095237Y-38326247D02*
X130190475Y-38278628D01*
X130190475Y-38278628D02*
X130380951Y-38231009D01*
X130380951Y-38231009D02*
X130476189Y-38183390D01*
X130476189Y-38183390D02*
X130523808Y-38135771D01*
X130523808Y-38135771D02*
X130571427Y-38040533D01*
X130571427Y-38040533D02*
X130571427Y-37945295D01*
X130571427Y-37945295D02*
X130523808Y-37850057D01*
X130523808Y-37850057D02*
X130476189Y-37802438D01*
X130476189Y-37802438D02*
X130380951Y-37754819D01*
X130380951Y-37754819D02*
X130142856Y-37754819D01*
X130142856Y-37754819D02*
X129999999Y-37802438D01*
X129238094Y-38231009D02*
X129095237Y-38278628D01*
X129095237Y-38278628D02*
X129047618Y-38326247D01*
X129047618Y-38326247D02*
X128999999Y-38421485D01*
X128999999Y-38421485D02*
X128999999Y-38564342D01*
X128999999Y-38564342D02*
X129047618Y-38659580D01*
X129047618Y-38659580D02*
X129095237Y-38707200D01*
X129095237Y-38707200D02*
X129190475Y-38754819D01*
X129190475Y-38754819D02*
X129571427Y-38754819D01*
X129571427Y-38754819D02*
X129571427Y-37754819D01*
X129571427Y-37754819D02*
X129238094Y-37754819D01*
X129238094Y-37754819D02*
X129142856Y-37802438D01*
X129142856Y-37802438D02*
X129095237Y-37850057D01*
X129095237Y-37850057D02*
X129047618Y-37945295D01*
X129047618Y-37945295D02*
X129047618Y-38040533D01*
X129047618Y-38040533D02*
X129095237Y-38135771D01*
X129095237Y-38135771D02*
X129142856Y-38183390D01*
X129142856Y-38183390D02*
X129238094Y-38231009D01*
X129238094Y-38231009D02*
X129571427Y-38231009D01*
X127904760Y-38088152D02*
X127666665Y-38754819D01*
X127666665Y-38754819D02*
X127428570Y-38088152D01*
X127142855Y-37754819D02*
X126523808Y-37754819D01*
X126523808Y-37754819D02*
X126857141Y-38135771D01*
X126857141Y-38135771D02*
X126714284Y-38135771D01*
X126714284Y-38135771D02*
X126619046Y-38183390D01*
X126619046Y-38183390D02*
X126571427Y-38231009D01*
X126571427Y-38231009D02*
X126523808Y-38326247D01*
X126523808Y-38326247D02*
X126523808Y-38564342D01*
X126523808Y-38564342D02*
X126571427Y-38659580D01*
X126571427Y-38659580D02*
X126619046Y-38707200D01*
X126619046Y-38707200D02*
X126714284Y-38754819D01*
X126714284Y-38754819D02*
X126999998Y-38754819D01*
X126999998Y-38754819D02*
X127095236Y-38707200D01*
X127095236Y-38707200D02*
X127142855Y-38659580D01*
X126095236Y-38659580D02*
X126047617Y-38707200D01*
X126047617Y-38707200D02*
X126095236Y-38754819D01*
X126095236Y-38754819D02*
X126142855Y-38707200D01*
X126142855Y-38707200D02*
X126095236Y-38659580D01*
X126095236Y-38659580D02*
X126095236Y-38754819D01*
X125095237Y-38754819D02*
X125666665Y-38754819D01*
X125380951Y-38754819D02*
X125380951Y-37754819D01*
X125380951Y-37754819D02*
X125476189Y-37897676D01*
X125476189Y-37897676D02*
X125571427Y-37992914D01*
X125571427Y-37992914D02*
X125666665Y-38040533D01*
X139819048Y-161354819D02*
X139819048Y-162069104D01*
X139819048Y-162069104D02*
X139866667Y-162211961D01*
X139866667Y-162211961D02*
X139961905Y-162307200D01*
X139961905Y-162307200D02*
X140104762Y-162354819D01*
X140104762Y-162354819D02*
X140200000Y-162354819D01*
X138866667Y-162354819D02*
X139342857Y-162354819D01*
X139342857Y-162354819D02*
X139342857Y-161354819D01*
X137961905Y-162259580D02*
X138009524Y-162307200D01*
X138009524Y-162307200D02*
X138152381Y-162354819D01*
X138152381Y-162354819D02*
X138247619Y-162354819D01*
X138247619Y-162354819D02*
X138390476Y-162307200D01*
X138390476Y-162307200D02*
X138485714Y-162211961D01*
X138485714Y-162211961D02*
X138533333Y-162116723D01*
X138533333Y-162116723D02*
X138580952Y-161926247D01*
X138580952Y-161926247D02*
X138580952Y-161783390D01*
X138580952Y-161783390D02*
X138533333Y-161592914D01*
X138533333Y-161592914D02*
X138485714Y-161497676D01*
X138485714Y-161497676D02*
X138390476Y-161402438D01*
X138390476Y-161402438D02*
X138247619Y-161354819D01*
X138247619Y-161354819D02*
X138152381Y-161354819D01*
X138152381Y-161354819D02*
X138009524Y-161402438D01*
X138009524Y-161402438D02*
X137961905Y-161450057D01*
X137247619Y-161354819D02*
X137247619Y-162069104D01*
X137247619Y-162069104D02*
X137295238Y-162211961D01*
X137295238Y-162211961D02*
X137390476Y-162307200D01*
X137390476Y-162307200D02*
X137533333Y-162354819D01*
X137533333Y-162354819D02*
X137628571Y-162354819D01*
X136295238Y-162354819D02*
X136771428Y-162354819D01*
X136771428Y-162354819D02*
X136771428Y-161354819D01*
X135390476Y-162259580D02*
X135438095Y-162307200D01*
X135438095Y-162307200D02*
X135580952Y-162354819D01*
X135580952Y-162354819D02*
X135676190Y-162354819D01*
X135676190Y-162354819D02*
X135819047Y-162307200D01*
X135819047Y-162307200D02*
X135914285Y-162211961D01*
X135914285Y-162211961D02*
X135961904Y-162116723D01*
X135961904Y-162116723D02*
X136009523Y-161926247D01*
X136009523Y-161926247D02*
X136009523Y-161783390D01*
X136009523Y-161783390D02*
X135961904Y-161592914D01*
X135961904Y-161592914D02*
X135914285Y-161497676D01*
X135914285Y-161497676D02*
X135819047Y-161402438D01*
X135819047Y-161402438D02*
X135676190Y-161354819D01*
X135676190Y-161354819D02*
X135580952Y-161354819D01*
X135580952Y-161354819D02*
X135438095Y-161402438D01*
X135438095Y-161402438D02*
X135390476Y-161450057D01*
X134676190Y-161354819D02*
X134676190Y-162069104D01*
X134676190Y-162069104D02*
X134723809Y-162211961D01*
X134723809Y-162211961D02*
X134819047Y-162307200D01*
X134819047Y-162307200D02*
X134961904Y-162354819D01*
X134961904Y-162354819D02*
X135057142Y-162354819D01*
X133723809Y-162354819D02*
X134199999Y-162354819D01*
X134199999Y-162354819D02*
X134199999Y-161354819D01*
X132819047Y-162259580D02*
X132866666Y-162307200D01*
X132866666Y-162307200D02*
X133009523Y-162354819D01*
X133009523Y-162354819D02*
X133104761Y-162354819D01*
X133104761Y-162354819D02*
X133247618Y-162307200D01*
X133247618Y-162307200D02*
X133342856Y-162211961D01*
X133342856Y-162211961D02*
X133390475Y-162116723D01*
X133390475Y-162116723D02*
X133438094Y-161926247D01*
X133438094Y-161926247D02*
X133438094Y-161783390D01*
X133438094Y-161783390D02*
X133390475Y-161592914D01*
X133390475Y-161592914D02*
X133342856Y-161497676D01*
X133342856Y-161497676D02*
X133247618Y-161402438D01*
X133247618Y-161402438D02*
X133104761Y-161354819D01*
X133104761Y-161354819D02*
X133009523Y-161354819D01*
X133009523Y-161354819D02*
X132866666Y-161402438D01*
X132866666Y-161402438D02*
X132819047Y-161450057D01*
X132104761Y-161354819D02*
X132104761Y-162069104D01*
X132104761Y-162069104D02*
X132152380Y-162211961D01*
X132152380Y-162211961D02*
X132247618Y-162307200D01*
X132247618Y-162307200D02*
X132390475Y-162354819D01*
X132390475Y-162354819D02*
X132485713Y-162354819D01*
X131152380Y-162354819D02*
X131628570Y-162354819D01*
X131628570Y-162354819D02*
X131628570Y-161354819D01*
X130247618Y-162259580D02*
X130295237Y-162307200D01*
X130295237Y-162307200D02*
X130438094Y-162354819D01*
X130438094Y-162354819D02*
X130533332Y-162354819D01*
X130533332Y-162354819D02*
X130676189Y-162307200D01*
X130676189Y-162307200D02*
X130771427Y-162211961D01*
X130771427Y-162211961D02*
X130819046Y-162116723D01*
X130819046Y-162116723D02*
X130866665Y-161926247D01*
X130866665Y-161926247D02*
X130866665Y-161783390D01*
X130866665Y-161783390D02*
X130819046Y-161592914D01*
X130819046Y-161592914D02*
X130771427Y-161497676D01*
X130771427Y-161497676D02*
X130676189Y-161402438D01*
X130676189Y-161402438D02*
X130533332Y-161354819D01*
X130533332Y-161354819D02*
X130438094Y-161354819D01*
X130438094Y-161354819D02*
X130295237Y-161402438D01*
X130295237Y-161402438D02*
X130247618Y-161450057D01*
M02*
