%TF.GenerationSoftware,KiCad,Pcbnew,8.0.8*%
%TF.CreationDate,2025-04-07T18:18:03+01:00*%
%TF.ProjectId,oscar_components,6f736361-725f-4636-9f6d-706f6e656e74,rev?*%
%TF.SameCoordinates,Original*%
%TF.FileFunction,Soldermask,Bot*%
%TF.FilePolarity,Negative*%
%FSLAX46Y46*%
G04 Gerber Fmt 4.6, Leading zero omitted, Abs format (unit mm)*
G04 Created by KiCad (PCBNEW 8.0.8) date 2025-04-07 18:18:03*
%MOMM*%
%LPD*%
G01*
G04 APERTURE LIST*
G04 Aperture macros list*
%AMRoundRect*
0 Rectangle with rounded corners*
0 $1 Rounding radius*
0 $2 $3 $4 $5 $6 $7 $8 $9 X,Y pos of 4 corners*
0 Add a 4 corners polygon primitive as box body*
4,1,4,$2,$3,$4,$5,$6,$7,$8,$9,$2,$3,0*
0 Add four circle primitives for the rounded corners*
1,1,$1+$1,$2,$3*
1,1,$1+$1,$4,$5*
1,1,$1+$1,$6,$7*
1,1,$1+$1,$8,$9*
0 Add four rect primitives between the rounded corners*
20,1,$1+$1,$2,$3,$4,$5,0*
20,1,$1+$1,$4,$5,$6,$7,0*
20,1,$1+$1,$6,$7,$8,$9,0*
20,1,$1+$1,$8,$9,$2,$3,0*%
G04 Aperture macros list end*
%ADD10C,0.200000*%
%ADD11RoundRect,0.250164X0.639836X-0.512336X0.639836X0.512336X-0.639836X0.512336X-0.639836X-0.512336X0*%
%ADD12RoundRect,0.250164X-0.639836X0.512336X-0.639836X-0.512336X0.639836X-0.512336X0.639836X0.512336X0*%
%ADD13C,2.500000*%
%ADD14R,1.000000X2.500000*%
%ADD15C,1.750000*%
%ADD16O,4.000000X4.000000*%
%ADD17R,1.500000X1.500000*%
%ADD18C,1.500000*%
%ADD19RoundRect,0.375000X0.375000X-0.925000X0.375000X0.925000X-0.375000X0.925000X-0.375000X-0.925000X0*%
%ADD20C,2.000000*%
%ADD21C,1.000000*%
%ADD22C,1.524000*%
%ADD23O,0.400000X0.600000*%
%ADD24O,1.000000X1.500000*%
%ADD25R,1.600000X1.600000*%
%ADD26C,1.600000*%
%ADD27RoundRect,0.250000X-0.250000X-0.475000X0.250000X-0.475000X0.250000X0.475000X-0.250000X0.475000X0*%
%ADD28RoundRect,0.250000X0.250000X0.475000X-0.250000X0.475000X-0.250000X-0.475000X0.250000X-0.475000X0*%
%ADD29RoundRect,0.250000X0.550000X-1.050000X0.550000X1.050000X-0.550000X1.050000X-0.550000X-1.050000X0*%
%ADD30RoundRect,0.250000X-0.475000X0.250000X-0.475000X-0.250000X0.475000X-0.250000X0.475000X0.250000X0*%
%ADD31RoundRect,0.225000X0.375000X-0.225000X0.375000X0.225000X-0.375000X0.225000X-0.375000X-0.225000X0*%
%ADD32RoundRect,0.250000X-0.262500X-0.450000X0.262500X-0.450000X0.262500X0.450000X-0.262500X0.450000X0*%
%ADD33RoundRect,0.250000X0.262500X0.450000X-0.262500X0.450000X-0.262500X-0.450000X0.262500X-0.450000X0*%
%ADD34RoundRect,0.075000X0.075000X-0.700000X0.075000X0.700000X-0.075000X0.700000X-0.075000X-0.700000X0*%
%ADD35RoundRect,0.075000X0.700000X-0.075000X0.700000X0.075000X-0.700000X0.075000X-0.700000X-0.075000X0*%
%ADD36RoundRect,0.150000X0.825000X0.150000X-0.825000X0.150000X-0.825000X-0.150000X0.825000X-0.150000X0*%
%ADD37RoundRect,0.150000X-0.825000X-0.150000X0.825000X-0.150000X0.825000X0.150000X-0.825000X0.150000X0*%
%ADD38RoundRect,0.375000X0.375000X-0.625000X0.375000X0.625000X-0.375000X0.625000X-0.375000X-0.625000X0*%
%ADD39RoundRect,0.500000X1.400000X-0.500000X1.400000X0.500000X-1.400000X0.500000X-1.400000X-0.500000X0*%
%ADD40R,2.450000X2.400000*%
%ADD41R,1.700000X1.700000*%
%ADD42C,1.700000*%
%ADD43RoundRect,0.250000X-0.450000X0.262500X-0.450000X-0.262500X0.450000X-0.262500X0.450000X0.262500X0*%
%ADD44RoundRect,0.225000X-0.375000X0.225000X-0.375000X-0.225000X0.375000X-0.225000X0.375000X0.225000X0*%
%ADD45O,1.700000X1.700000*%
%ADD46RoundRect,0.125000X0.125000X-0.175000X0.125000X0.175000X-0.125000X0.175000X-0.125000X-0.175000X0*%
%ADD47RoundRect,0.250000X0.450000X-0.262500X0.450000X0.262500X-0.450000X0.262500X-0.450000X-0.262500X0*%
%ADD48RoundRect,0.225000X-0.225000X-0.375000X0.225000X-0.375000X0.225000X0.375000X-0.225000X0.375000X0*%
G04 APERTURE END LIST*
D10*
X147000000Y-50000000D02*
X155200000Y-50000000D01*
X155200000Y-58200000D01*
X147000000Y-58200000D01*
X147000000Y-50000000D01*
G36*
X147000000Y-50000000D02*
G01*
X155200000Y-50000000D01*
X155200000Y-58200000D01*
X147000000Y-58200000D01*
X147000000Y-50000000D01*
G37*
D11*
%TO.C,U6*%
X147865000Y-105700000D03*
D12*
X145325000Y-105700000D03*
D11*
X142785000Y-105700000D03*
X142785000Y-96700000D03*
X145325000Y-96700000D03*
X147865000Y-96700000D03*
%TD*%
D13*
%TO.C,J4*%
X122000000Y-132000000D03*
D14*
X128480000Y-132000000D03*
X125380000Y-132000000D03*
X117080000Y-132000000D03*
%TD*%
D13*
%TO.C,J5*%
X137000000Y-132000000D03*
D14*
X143480000Y-132000000D03*
X140380000Y-132000000D03*
X132080000Y-132000000D03*
%TD*%
D13*
%TO.C,J7*%
X122000000Y-145200000D03*
D14*
X128480000Y-145200000D03*
X125380000Y-145200000D03*
X117080000Y-145200000D03*
%TD*%
D13*
%TO.C,J8*%
X137000000Y-145200000D03*
D14*
X143480000Y-145200000D03*
X140380000Y-145200000D03*
X132080000Y-145200000D03*
%TD*%
D13*
%TO.C,J6*%
X152000000Y-145200000D03*
D14*
X158480000Y-145200000D03*
X155380000Y-145200000D03*
X147080000Y-145200000D03*
%TD*%
D15*
%TO.C,SW4*%
X156700000Y-112500000D03*
X161700000Y-112500000D03*
X159200000Y-112500000D03*
X156700000Y-98000000D03*
X161700000Y-98000000D03*
D16*
X153000000Y-105000000D03*
X165400000Y-105000000D03*
%TD*%
D15*
%TO.C,SW3*%
X108700000Y-112500000D03*
X113700000Y-112500000D03*
X111200000Y-112500000D03*
X108700000Y-98000000D03*
X113700000Y-98000000D03*
D16*
X105000000Y-105000000D03*
X117400000Y-105000000D03*
%TD*%
D17*
%TO.C,U2*%
X166000000Y-53700000D03*
D18*
X166000000Y-56240000D03*
X166000000Y-58780000D03*
D17*
X166000000Y-76600000D03*
D18*
X166000000Y-79140000D03*
X166000000Y-81680000D03*
D17*
X102100000Y-53700000D03*
D18*
X102100000Y-56240000D03*
X102100000Y-81700000D03*
X102100000Y-84240000D03*
%TD*%
D13*
%TO.C,J3*%
X152000000Y-132000000D03*
D14*
X158480000Y-132000000D03*
X155380000Y-132000000D03*
X147080000Y-132000000D03*
%TD*%
D19*
%TO.C,J9*%
X110980000Y-132000000D03*
X114080000Y-132000000D03*
X102680000Y-132000000D03*
%TD*%
D20*
%TO.C,SW1*%
X166250000Y-127950000D03*
X166250000Y-134450000D03*
X161750000Y-127950000D03*
X161750000Y-134450000D03*
%TD*%
D21*
%TO.C,BTN2*%
X137100000Y-117460000D03*
D22*
X134560000Y-122540000D03*
X139640000Y-122540000D03*
X134560000Y-117460000D03*
X139640000Y-117460000D03*
X134400000Y-120000000D03*
X139800000Y-120000000D03*
%TD*%
D21*
%TO.C,BTN3*%
X152000000Y-122540000D03*
D22*
X154540000Y-117460000D03*
X149460000Y-117460000D03*
X154540000Y-122540000D03*
X149460000Y-122540000D03*
X154700000Y-120000000D03*
X149300000Y-120000000D03*
%TD*%
D20*
%TO.C,TP2*%
X110100000Y-60400000D03*
%TD*%
%TO.C,TP1*%
X105900000Y-60400000D03*
%TD*%
D21*
%TO.C,BTN1*%
X122000000Y-122540000D03*
D22*
X124540000Y-117460000D03*
X119460000Y-117460000D03*
X124540000Y-122540000D03*
X119460000Y-122540000D03*
X124700000Y-120000000D03*
X119300000Y-120000000D03*
%TD*%
D20*
%TO.C,TP4*%
X102000000Y-69200000D03*
%TD*%
%TO.C,TP3*%
X162300000Y-118600000D03*
%TD*%
%TO.C,TP5*%
X102000000Y-60400000D03*
%TD*%
D23*
%TO.C,J11*%
X164100000Y-140325000D03*
X164100000Y-147875000D03*
D24*
X167170000Y-140000000D03*
X161030000Y-140000000D03*
X167170000Y-148200000D03*
X161030000Y-148200000D03*
%TD*%
D19*
%TO.C,J10*%
X110980000Y-145200000D03*
X114080000Y-145200000D03*
X102680000Y-145200000D03*
%TD*%
D25*
%TO.C,SW2*%
X132800000Y-105500000D03*
D26*
X132800000Y-103000000D03*
X132800000Y-100500000D03*
X138200000Y-105500000D03*
X138200000Y-103000000D03*
X138200000Y-100500000D03*
%TD*%
D27*
%TO.C,C3*%
X156050000Y-69900000D03*
X157950000Y-69900000D03*
%TD*%
%TO.C,C4*%
X152200000Y-89400000D03*
X154100000Y-89400000D03*
%TD*%
D28*
%TO.C,C9*%
X139350000Y-73200000D03*
X137450000Y-73200000D03*
%TD*%
%TO.C,C10*%
X139350000Y-78900000D03*
X137450000Y-78900000D03*
%TD*%
%TO.C,C12*%
X139350000Y-71100000D03*
X137450000Y-71100000D03*
%TD*%
D29*
%TO.C,C2*%
X143800000Y-59100000D03*
X143800000Y-55500000D03*
%TD*%
%TO.C,C8*%
X158200000Y-59100000D03*
X158200000Y-55500000D03*
%TD*%
D30*
%TO.C,C11*%
X140600000Y-84650000D03*
X140600000Y-86550000D03*
%TD*%
D31*
%TO.C,D1*%
X139100000Y-58950000D03*
X139100000Y-55650000D03*
%TD*%
D32*
%TO.C,R2*%
X127187500Y-79800000D03*
X129012500Y-79800000D03*
%TD*%
D33*
%TO.C,R3*%
X129012500Y-83800000D03*
X127187500Y-83800000D03*
%TD*%
%TO.C,R4*%
X115912500Y-77800000D03*
X114087500Y-77800000D03*
%TD*%
%TO.C,R5*%
X115912500Y-75800000D03*
X114087500Y-75800000D03*
%TD*%
D32*
%TO.C,R6*%
X127187500Y-77800000D03*
X129012500Y-77800000D03*
%TD*%
D33*
%TO.C,R7*%
X129012500Y-73800000D03*
X127187500Y-73800000D03*
%TD*%
%TO.C,R9*%
X115912500Y-73800000D03*
X114087500Y-73800000D03*
%TD*%
D32*
%TO.C,R10*%
X127187500Y-75800000D03*
X129012500Y-75800000D03*
%TD*%
D33*
%TO.C,R13*%
X129012500Y-87600000D03*
X127187500Y-87600000D03*
%TD*%
D32*
%TO.C,R15*%
X113987500Y-92700000D03*
X115812500Y-92700000D03*
%TD*%
D34*
%TO.C,U3*%
X151750000Y-81575000D03*
X151250000Y-81575000D03*
X150750000Y-81575000D03*
X150250000Y-81575000D03*
X149750000Y-81575000D03*
X149250000Y-81575000D03*
X148750000Y-81575000D03*
X148250000Y-81575000D03*
X147750000Y-81575000D03*
X147250000Y-81575000D03*
X146750000Y-81575000D03*
X146250000Y-81575000D03*
X145750000Y-81575000D03*
X145250000Y-81575000D03*
X144750000Y-81575000D03*
X144250000Y-81575000D03*
D35*
X142325000Y-79650000D03*
X142325000Y-79150000D03*
X142325000Y-78650000D03*
X142325000Y-78150000D03*
X142325000Y-77650000D03*
X142325000Y-77150000D03*
X142325000Y-76650000D03*
X142325000Y-76150000D03*
X142325000Y-75650000D03*
X142325000Y-75150000D03*
X142325000Y-74650000D03*
X142325000Y-74150000D03*
X142325000Y-73650000D03*
X142325000Y-73150000D03*
X142325000Y-72650000D03*
X142325000Y-72150000D03*
D34*
X144250000Y-70225000D03*
X144750000Y-70225000D03*
X145250000Y-70225000D03*
X145750000Y-70225000D03*
X146250000Y-70225000D03*
X146750000Y-70225000D03*
X147250000Y-70225000D03*
X147750000Y-70225000D03*
X148250000Y-70225000D03*
X148750000Y-70225000D03*
X149250000Y-70225000D03*
X149750000Y-70225000D03*
X150250000Y-70225000D03*
X150750000Y-70225000D03*
X151250000Y-70225000D03*
X151750000Y-70225000D03*
D35*
X153675000Y-72150000D03*
X153675000Y-72650000D03*
X153675000Y-73150000D03*
X153675000Y-73650000D03*
X153675000Y-74150000D03*
X153675000Y-74650000D03*
X153675000Y-75150000D03*
X153675000Y-75650000D03*
X153675000Y-76150000D03*
X153675000Y-76650000D03*
X153675000Y-77150000D03*
X153675000Y-77650000D03*
X153675000Y-78150000D03*
X153675000Y-78650000D03*
X153675000Y-79150000D03*
X153675000Y-79650000D03*
%TD*%
D36*
%TO.C,U5*%
X123975000Y-74890000D03*
X123975000Y-76160000D03*
X123975000Y-77430000D03*
X123975000Y-78700000D03*
X123975000Y-79970000D03*
X123975000Y-81240000D03*
X123975000Y-82510000D03*
X119025000Y-82510000D03*
X119025000Y-81240000D03*
X119025000Y-79970000D03*
X119025000Y-78700000D03*
X119025000Y-77430000D03*
X119025000Y-76160000D03*
X119025000Y-74890000D03*
%TD*%
D37*
%TO.C,U4*%
X119025000Y-95010000D03*
X119025000Y-93740000D03*
X119025000Y-92470000D03*
X119025000Y-91200000D03*
X119025000Y-89930000D03*
X119025000Y-88660000D03*
X119025000Y-87390000D03*
X123975000Y-87390000D03*
X123975000Y-88660000D03*
X123975000Y-89930000D03*
X123975000Y-91200000D03*
X123975000Y-92470000D03*
X123975000Y-93740000D03*
X123975000Y-95010000D03*
%TD*%
D38*
%TO.C,U1*%
X153400000Y-59850000D03*
X151100000Y-59850000D03*
D39*
X151100000Y-53550000D03*
D38*
X148800000Y-59850000D03*
%TD*%
D40*
%TO.C,Y1*%
X149275000Y-86200000D03*
X153425000Y-86200000D03*
%TD*%
D41*
%TO.C,J1*%
X166200000Y-63600000D03*
D42*
X166200000Y-66140000D03*
X166200000Y-68680000D03*
X166200000Y-71220000D03*
%TD*%
D43*
%TO.C,L1*%
X138600000Y-84687500D03*
X138600000Y-86512500D03*
%TD*%
D32*
%TO.C,R8*%
X127187500Y-81800000D03*
X129012500Y-81800000D03*
%TD*%
D44*
%TO.C,D2*%
X112300000Y-55150000D03*
X112300000Y-58450000D03*
%TD*%
D32*
%TO.C,R14*%
X113987500Y-87600000D03*
X115812500Y-87600000D03*
%TD*%
D27*
%TO.C,C6*%
X156450000Y-79600000D03*
X158350000Y-79600000D03*
%TD*%
D28*
%TO.C,C5*%
X150500000Y-89400000D03*
X148600000Y-89400000D03*
%TD*%
D41*
%TO.C,J2*%
X120300000Y-56025000D03*
D42*
X120300000Y-58565000D03*
X122840000Y-56025000D03*
X122840000Y-58565000D03*
X125380000Y-56025000D03*
X125380000Y-58565000D03*
X127920000Y-56025000D03*
X127920000Y-58565000D03*
X130460000Y-56025000D03*
X130460000Y-58565000D03*
%TD*%
D28*
%TO.C,C1*%
X139350000Y-81000000D03*
X137450000Y-81000000D03*
%TD*%
D43*
%TO.C,R1*%
X109000000Y-55987500D03*
X109000000Y-57812500D03*
%TD*%
D32*
%TO.C,R12*%
X114087500Y-83900000D03*
X115912500Y-83900000D03*
%TD*%
D33*
%TO.C,R20*%
X146612500Y-116600000D03*
X144787500Y-116600000D03*
%TD*%
D30*
%TO.C,C7*%
X146900000Y-84650000D03*
X146900000Y-86550000D03*
%TD*%
%TO.C,C14*%
X142700000Y-84650000D03*
X142700000Y-86550000D03*
%TD*%
D33*
%TO.C,R18*%
X106012500Y-88900000D03*
X104187500Y-88900000D03*
%TD*%
D41*
%TO.C,J12*%
X166000000Y-92825000D03*
D45*
X166000000Y-90285000D03*
X166000000Y-87745000D03*
%TD*%
D30*
%TO.C,C13*%
X144800000Y-84650000D03*
X144800000Y-86550000D03*
%TD*%
D33*
%TO.C,R19*%
X106012500Y-91500000D03*
X104187500Y-91500000D03*
%TD*%
D27*
%TO.C,C15*%
X114050000Y-79800000D03*
X115950000Y-79800000D03*
%TD*%
D33*
%TO.C,R11*%
X115912500Y-81900000D03*
X114087500Y-81900000D03*
%TD*%
D32*
%TO.C,R16*%
X144787500Y-110400000D03*
X146612500Y-110400000D03*
%TD*%
D46*
%TO.C,D4*%
X164700000Y-137850000D03*
X163700000Y-137850000D03*
X164200000Y-136550000D03*
%TD*%
D47*
%TO.C,R17*%
X136600000Y-86512500D03*
X136600000Y-84687500D03*
%TD*%
D48*
%TO.C,D3*%
X144050000Y-113400000D03*
X147350000Y-113400000D03*
%TD*%
M02*
