%TF.GenerationSoftware,KiCad,Pcbnew,8.0.8*%
%TF.CreationDate,2025-06-14T16:52:44+01:00*%
%TF.ProjectId,oscar_components,6f736361-725f-4636-9f6d-706f6e656e74,rev?*%
%TF.SameCoordinates,Original*%
%TF.FileFunction,Legend,Bot*%
%TF.FilePolarity,Positive*%
%FSLAX46Y46*%
G04 Gerber Fmt 4.6, Leading zero omitted, Abs format (unit mm)*
G04 Created by KiCad (PCBNEW 8.0.8) date 2025-06-14 16:52:44*
%MOMM*%
%LPD*%
G01*
G04 APERTURE LIST*
G04 Aperture macros list*
%AMRoundRect*
0 Rectangle with rounded corners*
0 $1 Rounding radius*
0 $2 $3 $4 $5 $6 $7 $8 $9 X,Y pos of 4 corners*
0 Add a 4 corners polygon primitive as box body*
4,1,4,$2,$3,$4,$5,$6,$7,$8,$9,$2,$3,0*
0 Add four circle primitives for the rounded corners*
1,1,$1+$1,$2,$3*
1,1,$1+$1,$4,$5*
1,1,$1+$1,$6,$7*
1,1,$1+$1,$8,$9*
0 Add four rect primitives between the rounded corners*
20,1,$1+$1,$2,$3,$4,$5,0*
20,1,$1+$1,$4,$5,$6,$7,0*
20,1,$1+$1,$6,$7,$8,$9,0*
20,1,$1+$1,$8,$9,$2,$3,0*%
G04 Aperture macros list end*
%ADD10C,0.150000*%
%ADD11C,0.300000*%
%ADD12C,0.120000*%
%ADD13C,0.100000*%
%ADD14C,0.200000*%
%ADD15C,2.500000*%
%ADD16R,1.000000X2.500000*%
%ADD17C,1.750000*%
%ADD18O,4.000000X4.000000*%
%ADD19R,1.500000X1.500000*%
%ADD20C,1.500000*%
%ADD21RoundRect,0.375000X0.375000X-0.925000X0.375000X0.925000X-0.375000X0.925000X-0.375000X-0.925000X0*%
%ADD22C,2.000000*%
%ADD23C,1.000000*%
%ADD24C,1.524000*%
%ADD25O,0.400000X0.600000*%
%ADD26O,1.000000X1.500000*%
%ADD27RoundRect,0.250000X-0.250000X-0.475000X0.250000X-0.475000X0.250000X0.475000X-0.250000X0.475000X0*%
%ADD28RoundRect,0.237500X0.300000X0.237500X-0.300000X0.237500X-0.300000X-0.237500X0.300000X-0.237500X0*%
%ADD29RoundRect,0.250000X0.250000X0.475000X-0.250000X0.475000X-0.250000X-0.475000X0.250000X-0.475000X0*%
%ADD30RoundRect,0.250000X0.550000X-1.050000X0.550000X1.050000X-0.550000X1.050000X-0.550000X-1.050000X0*%
%ADD31RoundRect,0.250000X-0.475000X0.250000X-0.475000X-0.250000X0.475000X-0.250000X0.475000X0.250000X0*%
%ADD32RoundRect,0.225000X0.375000X-0.225000X0.375000X0.225000X-0.375000X0.225000X-0.375000X-0.225000X0*%
%ADD33RoundRect,0.250000X-0.262500X-0.450000X0.262500X-0.450000X0.262500X0.450000X-0.262500X0.450000X0*%
%ADD34RoundRect,0.250000X0.262500X0.450000X-0.262500X0.450000X-0.262500X-0.450000X0.262500X-0.450000X0*%
%ADD35RoundRect,0.075000X0.075000X-0.700000X0.075000X0.700000X-0.075000X0.700000X-0.075000X-0.700000X0*%
%ADD36RoundRect,0.075000X0.700000X-0.075000X0.700000X0.075000X-0.700000X0.075000X-0.700000X-0.075000X0*%
%ADD37RoundRect,0.150000X0.825000X0.150000X-0.825000X0.150000X-0.825000X-0.150000X0.825000X-0.150000X0*%
%ADD38RoundRect,0.150000X-0.825000X-0.150000X0.825000X-0.150000X0.825000X0.150000X-0.825000X0.150000X0*%
%ADD39RoundRect,0.375000X0.375000X-0.625000X0.375000X0.625000X-0.375000X0.625000X-0.375000X-0.625000X0*%
%ADD40RoundRect,0.500000X1.400000X-0.500000X1.400000X0.500000X-1.400000X0.500000X-1.400000X-0.500000X0*%
%ADD41R,2.450000X2.400000*%
%ADD42R,1.700000X1.700000*%
%ADD43C,1.700000*%
%ADD44RoundRect,0.250000X-0.450000X0.262500X-0.450000X-0.262500X0.450000X-0.262500X0.450000X0.262500X0*%
%ADD45RoundRect,0.225000X-0.375000X0.225000X-0.375000X-0.225000X0.375000X-0.225000X0.375000X0.225000X0*%
%ADD46RoundRect,0.237500X-0.300000X-0.237500X0.300000X-0.237500X0.300000X0.237500X-0.300000X0.237500X0*%
%ADD47O,1.700000X1.700000*%
%ADD48RoundRect,0.250164X0.639836X-0.512336X0.639836X0.512336X-0.639836X0.512336X-0.639836X-0.512336X0*%
%ADD49RoundRect,0.250164X-0.639836X0.512336X-0.639836X-0.512336X0.639836X-0.512336X0.639836X0.512336X0*%
%ADD50RoundRect,0.125000X0.125000X-0.175000X0.125000X0.175000X-0.125000X0.175000X-0.125000X-0.175000X0*%
%ADD51RoundRect,0.250000X0.450000X-0.262500X0.450000X0.262500X-0.450000X0.262500X-0.450000X-0.262500X0*%
G04 APERTURE END LIST*
D10*
X112163220Y-62488866D02*
X111401316Y-62488866D01*
X110401316Y-62869819D02*
X110972744Y-62869819D01*
X110687030Y-62869819D02*
X110687030Y-61869819D01*
X110687030Y-61869819D02*
X110782268Y-62012676D01*
X110782268Y-62012676D02*
X110877506Y-62107914D01*
X110877506Y-62107914D02*
X110972744Y-62155533D01*
X110020363Y-61965057D02*
X109972744Y-61917438D01*
X109972744Y-61917438D02*
X109877506Y-61869819D01*
X109877506Y-61869819D02*
X109639411Y-61869819D01*
X109639411Y-61869819D02*
X109544173Y-61917438D01*
X109544173Y-61917438D02*
X109496554Y-61965057D01*
X109496554Y-61965057D02*
X109448935Y-62060295D01*
X109448935Y-62060295D02*
X109448935Y-62155533D01*
X109448935Y-62155533D02*
X109496554Y-62298390D01*
X109496554Y-62298390D02*
X110067982Y-62869819D01*
X110067982Y-62869819D02*
X109448935Y-62869819D01*
X109163220Y-61869819D02*
X108829887Y-62869819D01*
X108829887Y-62869819D02*
X108496554Y-61869819D01*
D11*
X128592856Y-136070870D02*
X128307142Y-136070870D01*
X128307142Y-136070870D02*
X128164285Y-136142299D01*
X128164285Y-136142299D02*
X128021428Y-136285156D01*
X128021428Y-136285156D02*
X127949999Y-136570870D01*
X127949999Y-136570870D02*
X127949999Y-137070870D01*
X127949999Y-137070870D02*
X128021428Y-137356584D01*
X128021428Y-137356584D02*
X128164285Y-137499442D01*
X128164285Y-137499442D02*
X128307142Y-137570870D01*
X128307142Y-137570870D02*
X128592856Y-137570870D01*
X128592856Y-137570870D02*
X128735714Y-137499442D01*
X128735714Y-137499442D02*
X128878571Y-137356584D01*
X128878571Y-137356584D02*
X128949999Y-137070870D01*
X128949999Y-137070870D02*
X128949999Y-136570870D01*
X128949999Y-136570870D02*
X128878571Y-136285156D01*
X128878571Y-136285156D02*
X128735714Y-136142299D01*
X128735714Y-136142299D02*
X128592856Y-136070870D01*
X127378570Y-137499442D02*
X127235713Y-137570870D01*
X127235713Y-137570870D02*
X126949999Y-137570870D01*
X126949999Y-137570870D02*
X126807142Y-137499442D01*
X126807142Y-137499442D02*
X126735713Y-137356584D01*
X126735713Y-137356584D02*
X126735713Y-137285156D01*
X126735713Y-137285156D02*
X126807142Y-137142299D01*
X126807142Y-137142299D02*
X126949999Y-137070870D01*
X126949999Y-137070870D02*
X127164285Y-137070870D01*
X127164285Y-137070870D02*
X127307142Y-136999442D01*
X127307142Y-136999442D02*
X127378570Y-136856584D01*
X127378570Y-136856584D02*
X127378570Y-136785156D01*
X127378570Y-136785156D02*
X127307142Y-136642299D01*
X127307142Y-136642299D02*
X127164285Y-136570870D01*
X127164285Y-136570870D02*
X126949999Y-136570870D01*
X126949999Y-136570870D02*
X126807142Y-136642299D01*
X125449999Y-137499442D02*
X125592856Y-137570870D01*
X125592856Y-137570870D02*
X125878570Y-137570870D01*
X125878570Y-137570870D02*
X126021427Y-137499442D01*
X126021427Y-137499442D02*
X126092856Y-137428013D01*
X126092856Y-137428013D02*
X126164284Y-137285156D01*
X126164284Y-137285156D02*
X126164284Y-136856584D01*
X126164284Y-136856584D02*
X126092856Y-136713727D01*
X126092856Y-136713727D02*
X126021427Y-136642299D01*
X126021427Y-136642299D02*
X125878570Y-136570870D01*
X125878570Y-136570870D02*
X125592856Y-136570870D01*
X125592856Y-136570870D02*
X125449999Y-136642299D01*
X124164285Y-137570870D02*
X124164285Y-136785156D01*
X124164285Y-136785156D02*
X124235713Y-136642299D01*
X124235713Y-136642299D02*
X124378570Y-136570870D01*
X124378570Y-136570870D02*
X124664285Y-136570870D01*
X124664285Y-136570870D02*
X124807142Y-136642299D01*
X124164285Y-137499442D02*
X124307142Y-137570870D01*
X124307142Y-137570870D02*
X124664285Y-137570870D01*
X124664285Y-137570870D02*
X124807142Y-137499442D01*
X124807142Y-137499442D02*
X124878570Y-137356584D01*
X124878570Y-137356584D02*
X124878570Y-137213727D01*
X124878570Y-137213727D02*
X124807142Y-137070870D01*
X124807142Y-137070870D02*
X124664285Y-136999442D01*
X124664285Y-136999442D02*
X124307142Y-136999442D01*
X124307142Y-136999442D02*
X124164285Y-136928013D01*
X123449999Y-137570870D02*
X123449999Y-136570870D01*
X123449999Y-136856584D02*
X123378570Y-136713727D01*
X123378570Y-136713727D02*
X123307142Y-136642299D01*
X123307142Y-136642299D02*
X123164284Y-136570870D01*
X123164284Y-136570870D02*
X123021427Y-136570870D01*
X121521428Y-136570870D02*
X121164285Y-137570870D01*
X121164285Y-137570870D02*
X120807142Y-136570870D01*
X120378571Y-136070870D02*
X119449999Y-136070870D01*
X119449999Y-136070870D02*
X119949999Y-136642299D01*
X119949999Y-136642299D02*
X119735714Y-136642299D01*
X119735714Y-136642299D02*
X119592857Y-136713727D01*
X119592857Y-136713727D02*
X119521428Y-136785156D01*
X119521428Y-136785156D02*
X119449999Y-136928013D01*
X119449999Y-136928013D02*
X119449999Y-137285156D01*
X119449999Y-137285156D02*
X119521428Y-137428013D01*
X119521428Y-137428013D02*
X119592857Y-137499442D01*
X119592857Y-137499442D02*
X119735714Y-137570870D01*
X119735714Y-137570870D02*
X120164285Y-137570870D01*
X120164285Y-137570870D02*
X120307142Y-137499442D01*
X120307142Y-137499442D02*
X120378571Y-137428013D01*
X137199999Y-139985786D02*
X137199999Y-138485786D01*
X137199999Y-138485786D02*
X136699999Y-139557215D01*
X136699999Y-139557215D02*
X136199999Y-138485786D01*
X136199999Y-138485786D02*
X136199999Y-139985786D01*
X135271427Y-139985786D02*
X135414284Y-139914358D01*
X135414284Y-139914358D02*
X135485713Y-139842929D01*
X135485713Y-139842929D02*
X135557141Y-139700072D01*
X135557141Y-139700072D02*
X135557141Y-139271500D01*
X135557141Y-139271500D02*
X135485713Y-139128643D01*
X135485713Y-139128643D02*
X135414284Y-139057215D01*
X135414284Y-139057215D02*
X135271427Y-138985786D01*
X135271427Y-138985786D02*
X135057141Y-138985786D01*
X135057141Y-138985786D02*
X134914284Y-139057215D01*
X134914284Y-139057215D02*
X134842856Y-139128643D01*
X134842856Y-139128643D02*
X134771427Y-139271500D01*
X134771427Y-139271500D02*
X134771427Y-139700072D01*
X134771427Y-139700072D02*
X134842856Y-139842929D01*
X134842856Y-139842929D02*
X134914284Y-139914358D01*
X134914284Y-139914358D02*
X135057141Y-139985786D01*
X135057141Y-139985786D02*
X135271427Y-139985786D01*
X133485713Y-138985786D02*
X133485713Y-139985786D01*
X134128570Y-138985786D02*
X134128570Y-139771500D01*
X134128570Y-139771500D02*
X134057141Y-139914358D01*
X134057141Y-139914358D02*
X133914284Y-139985786D01*
X133914284Y-139985786D02*
X133699998Y-139985786D01*
X133699998Y-139985786D02*
X133557141Y-139914358D01*
X133557141Y-139914358D02*
X133485713Y-139842929D01*
X132771427Y-138985786D02*
X132771427Y-139985786D01*
X132771427Y-139128643D02*
X132699998Y-139057215D01*
X132699998Y-139057215D02*
X132557141Y-138985786D01*
X132557141Y-138985786D02*
X132342855Y-138985786D01*
X132342855Y-138985786D02*
X132199998Y-139057215D01*
X132199998Y-139057215D02*
X132128570Y-139200072D01*
X132128570Y-139200072D02*
X132128570Y-139985786D01*
X131628569Y-138985786D02*
X131057141Y-138985786D01*
X131414284Y-138485786D02*
X131414284Y-139771500D01*
X131414284Y-139771500D02*
X131342855Y-139914358D01*
X131342855Y-139914358D02*
X131199998Y-139985786D01*
X131199998Y-139985786D02*
X131057141Y-139985786D01*
X130557141Y-138985786D02*
X130557141Y-140271500D01*
X130557141Y-140271500D02*
X130628569Y-140414358D01*
X130628569Y-140414358D02*
X130771426Y-140485786D01*
X130771426Y-140485786D02*
X130842855Y-140485786D01*
X130557141Y-138485786D02*
X130628569Y-138557215D01*
X130628569Y-138557215D02*
X130557141Y-138628643D01*
X130557141Y-138628643D02*
X130485712Y-138557215D01*
X130485712Y-138557215D02*
X130557141Y-138485786D01*
X130557141Y-138485786D02*
X130557141Y-138628643D01*
X129628569Y-139985786D02*
X129771426Y-139914358D01*
X129771426Y-139914358D02*
X129842855Y-139842929D01*
X129842855Y-139842929D02*
X129914283Y-139700072D01*
X129914283Y-139700072D02*
X129914283Y-139271500D01*
X129914283Y-139271500D02*
X129842855Y-139128643D01*
X129842855Y-139128643D02*
X129771426Y-139057215D01*
X129771426Y-139057215D02*
X129628569Y-138985786D01*
X129628569Y-138985786D02*
X129414283Y-138985786D01*
X129414283Y-138985786D02*
X129271426Y-139057215D01*
X129271426Y-139057215D02*
X129199998Y-139128643D01*
X129199998Y-139128643D02*
X129128569Y-139271500D01*
X129128569Y-139271500D02*
X129128569Y-139700072D01*
X129128569Y-139700072D02*
X129199998Y-139842929D01*
X129199998Y-139842929D02*
X129271426Y-139914358D01*
X129271426Y-139914358D02*
X129414283Y-139985786D01*
X129414283Y-139985786D02*
X129628569Y-139985786D01*
X128628569Y-138985786D02*
X128271426Y-139985786D01*
X127914283Y-138985786D02*
X128271426Y-139985786D01*
X128271426Y-139985786D02*
X128414283Y-140342929D01*
X128414283Y-140342929D02*
X128485712Y-140414358D01*
X128485712Y-140414358D02*
X128628569Y-140485786D01*
X126199998Y-139985786D02*
X126199998Y-138485786D01*
X126199998Y-138485786D02*
X125699998Y-139557215D01*
X125699998Y-139557215D02*
X125199998Y-138485786D01*
X125199998Y-138485786D02*
X125199998Y-139985786D01*
X124271426Y-139985786D02*
X124414283Y-139914358D01*
X124414283Y-139914358D02*
X124485712Y-139842929D01*
X124485712Y-139842929D02*
X124557140Y-139700072D01*
X124557140Y-139700072D02*
X124557140Y-139271500D01*
X124557140Y-139271500D02*
X124485712Y-139128643D01*
X124485712Y-139128643D02*
X124414283Y-139057215D01*
X124414283Y-139057215D02*
X124271426Y-138985786D01*
X124271426Y-138985786D02*
X124057140Y-138985786D01*
X124057140Y-138985786D02*
X123914283Y-139057215D01*
X123914283Y-139057215D02*
X123842855Y-139128643D01*
X123842855Y-139128643D02*
X123771426Y-139271500D01*
X123771426Y-139271500D02*
X123771426Y-139700072D01*
X123771426Y-139700072D02*
X123842855Y-139842929D01*
X123842855Y-139842929D02*
X123914283Y-139914358D01*
X123914283Y-139914358D02*
X124057140Y-139985786D01*
X124057140Y-139985786D02*
X124271426Y-139985786D01*
X122485712Y-139985786D02*
X122485712Y-138485786D01*
X122485712Y-139914358D02*
X122628569Y-139985786D01*
X122628569Y-139985786D02*
X122914283Y-139985786D01*
X122914283Y-139985786D02*
X123057140Y-139914358D01*
X123057140Y-139914358D02*
X123128569Y-139842929D01*
X123128569Y-139842929D02*
X123199997Y-139700072D01*
X123199997Y-139700072D02*
X123199997Y-139271500D01*
X123199997Y-139271500D02*
X123128569Y-139128643D01*
X123128569Y-139128643D02*
X123057140Y-139057215D01*
X123057140Y-139057215D02*
X122914283Y-138985786D01*
X122914283Y-138985786D02*
X122628569Y-138985786D01*
X122628569Y-138985786D02*
X122485712Y-139057215D01*
X121128569Y-138985786D02*
X121128569Y-139985786D01*
X121771426Y-138985786D02*
X121771426Y-139771500D01*
X121771426Y-139771500D02*
X121699997Y-139914358D01*
X121699997Y-139914358D02*
X121557140Y-139985786D01*
X121557140Y-139985786D02*
X121342854Y-139985786D01*
X121342854Y-139985786D02*
X121199997Y-139914358D01*
X121199997Y-139914358D02*
X121128569Y-139842929D01*
X120199997Y-139985786D02*
X120342854Y-139914358D01*
X120342854Y-139914358D02*
X120414283Y-139771500D01*
X120414283Y-139771500D02*
X120414283Y-138485786D01*
X118985712Y-139985786D02*
X118985712Y-139200072D01*
X118985712Y-139200072D02*
X119057140Y-139057215D01*
X119057140Y-139057215D02*
X119199997Y-138985786D01*
X119199997Y-138985786D02*
X119485712Y-138985786D01*
X119485712Y-138985786D02*
X119628569Y-139057215D01*
X118985712Y-139914358D02*
X119128569Y-139985786D01*
X119128569Y-139985786D02*
X119485712Y-139985786D01*
X119485712Y-139985786D02*
X119628569Y-139914358D01*
X119628569Y-139914358D02*
X119699997Y-139771500D01*
X119699997Y-139771500D02*
X119699997Y-139628643D01*
X119699997Y-139628643D02*
X119628569Y-139485786D01*
X119628569Y-139485786D02*
X119485712Y-139414358D01*
X119485712Y-139414358D02*
X119128569Y-139414358D01*
X119128569Y-139414358D02*
X118985712Y-139342929D01*
X118271426Y-139985786D02*
X118271426Y-138985786D01*
X118271426Y-139271500D02*
X118199997Y-139128643D01*
X118199997Y-139128643D02*
X118128569Y-139057215D01*
X118128569Y-139057215D02*
X117985711Y-138985786D01*
X117985711Y-138985786D02*
X117842854Y-138985786D01*
X116271426Y-138628643D02*
X116199998Y-138557215D01*
X116199998Y-138557215D02*
X116057141Y-138485786D01*
X116057141Y-138485786D02*
X115699998Y-138485786D01*
X115699998Y-138485786D02*
X115557141Y-138557215D01*
X115557141Y-138557215D02*
X115485712Y-138628643D01*
X115485712Y-138628643D02*
X115414283Y-138771500D01*
X115414283Y-138771500D02*
X115414283Y-138914358D01*
X115414283Y-138914358D02*
X115485712Y-139128643D01*
X115485712Y-139128643D02*
X116342855Y-139985786D01*
X116342855Y-139985786D02*
X115414283Y-139985786D01*
X114485712Y-138485786D02*
X114342855Y-138485786D01*
X114342855Y-138485786D02*
X114199998Y-138557215D01*
X114199998Y-138557215D02*
X114128570Y-138628643D01*
X114128570Y-138628643D02*
X114057141Y-138771500D01*
X114057141Y-138771500D02*
X113985712Y-139057215D01*
X113985712Y-139057215D02*
X113985712Y-139414358D01*
X113985712Y-139414358D02*
X114057141Y-139700072D01*
X114057141Y-139700072D02*
X114128570Y-139842929D01*
X114128570Y-139842929D02*
X114199998Y-139914358D01*
X114199998Y-139914358D02*
X114342855Y-139985786D01*
X114342855Y-139985786D02*
X114485712Y-139985786D01*
X114485712Y-139985786D02*
X114628570Y-139914358D01*
X114628570Y-139914358D02*
X114699998Y-139842929D01*
X114699998Y-139842929D02*
X114771427Y-139700072D01*
X114771427Y-139700072D02*
X114842855Y-139414358D01*
X114842855Y-139414358D02*
X114842855Y-139057215D01*
X114842855Y-139057215D02*
X114771427Y-138771500D01*
X114771427Y-138771500D02*
X114699998Y-138628643D01*
X114699998Y-138628643D02*
X114628570Y-138557215D01*
X114628570Y-138557215D02*
X114485712Y-138485786D01*
X113414284Y-138628643D02*
X113342856Y-138557215D01*
X113342856Y-138557215D02*
X113199999Y-138485786D01*
X113199999Y-138485786D02*
X112842856Y-138485786D01*
X112842856Y-138485786D02*
X112699999Y-138557215D01*
X112699999Y-138557215D02*
X112628570Y-138628643D01*
X112628570Y-138628643D02*
X112557141Y-138771500D01*
X112557141Y-138771500D02*
X112557141Y-138914358D01*
X112557141Y-138914358D02*
X112628570Y-139128643D01*
X112628570Y-139128643D02*
X113485713Y-139985786D01*
X113485713Y-139985786D02*
X112557141Y-139985786D01*
X111199999Y-138485786D02*
X111914285Y-138485786D01*
X111914285Y-138485786D02*
X111985713Y-139200072D01*
X111985713Y-139200072D02*
X111914285Y-139128643D01*
X111914285Y-139128643D02*
X111771428Y-139057215D01*
X111771428Y-139057215D02*
X111414285Y-139057215D01*
X111414285Y-139057215D02*
X111271428Y-139128643D01*
X111271428Y-139128643D02*
X111199999Y-139200072D01*
X111199999Y-139200072D02*
X111128570Y-139342929D01*
X111128570Y-139342929D02*
X111128570Y-139700072D01*
X111128570Y-139700072D02*
X111199999Y-139842929D01*
X111199999Y-139842929D02*
X111271428Y-139914358D01*
X111271428Y-139914358D02*
X111414285Y-139985786D01*
X111414285Y-139985786D02*
X111771428Y-139985786D01*
X111771428Y-139985786D02*
X111914285Y-139914358D01*
X111914285Y-139914358D02*
X111985713Y-139842929D01*
D10*
X163039411Y-120417438D02*
X163134649Y-120369819D01*
X163134649Y-120369819D02*
X163277506Y-120369819D01*
X163277506Y-120369819D02*
X163420363Y-120417438D01*
X163420363Y-120417438D02*
X163515601Y-120512676D01*
X163515601Y-120512676D02*
X163563220Y-120607914D01*
X163563220Y-120607914D02*
X163610839Y-120798390D01*
X163610839Y-120798390D02*
X163610839Y-120941247D01*
X163610839Y-120941247D02*
X163563220Y-121131723D01*
X163563220Y-121131723D02*
X163515601Y-121226961D01*
X163515601Y-121226961D02*
X163420363Y-121322200D01*
X163420363Y-121322200D02*
X163277506Y-121369819D01*
X163277506Y-121369819D02*
X163182268Y-121369819D01*
X163182268Y-121369819D02*
X163039411Y-121322200D01*
X163039411Y-121322200D02*
X162991792Y-121274580D01*
X162991792Y-121274580D02*
X162991792Y-120941247D01*
X162991792Y-120941247D02*
X163182268Y-120941247D01*
X162563220Y-121369819D02*
X162563220Y-120369819D01*
X162563220Y-120369819D02*
X161991792Y-121369819D01*
X161991792Y-121369819D02*
X161991792Y-120369819D01*
X161515601Y-121369819D02*
X161515601Y-120369819D01*
X161515601Y-120369819D02*
X161277506Y-120369819D01*
X161277506Y-120369819D02*
X161134649Y-120417438D01*
X161134649Y-120417438D02*
X161039411Y-120512676D01*
X161039411Y-120512676D02*
X160991792Y-120607914D01*
X160991792Y-120607914D02*
X160944173Y-120798390D01*
X160944173Y-120798390D02*
X160944173Y-120941247D01*
X160944173Y-120941247D02*
X160991792Y-121131723D01*
X160991792Y-121131723D02*
X161039411Y-121226961D01*
X161039411Y-121226961D02*
X161134649Y-121322200D01*
X161134649Y-121322200D02*
X161277506Y-121369819D01*
X161277506Y-121369819D02*
X161515601Y-121369819D01*
X106539411Y-62769819D02*
X107110839Y-62769819D01*
X106825125Y-62769819D02*
X106825125Y-61769819D01*
X106825125Y-61769819D02*
X106920363Y-61912676D01*
X106920363Y-61912676D02*
X107015601Y-62007914D01*
X107015601Y-62007914D02*
X107110839Y-62055533D01*
X106158458Y-61865057D02*
X106110839Y-61817438D01*
X106110839Y-61817438D02*
X106015601Y-61769819D01*
X106015601Y-61769819D02*
X105777506Y-61769819D01*
X105777506Y-61769819D02*
X105682268Y-61817438D01*
X105682268Y-61817438D02*
X105634649Y-61865057D01*
X105634649Y-61865057D02*
X105587030Y-61960295D01*
X105587030Y-61960295D02*
X105587030Y-62055533D01*
X105587030Y-62055533D02*
X105634649Y-62198390D01*
X105634649Y-62198390D02*
X106206077Y-62769819D01*
X106206077Y-62769819D02*
X105587030Y-62769819D01*
X105301315Y-61769819D02*
X104967982Y-62769819D01*
X104967982Y-62769819D02*
X104634649Y-61769819D01*
X103258458Y-61769819D02*
X102639411Y-61769819D01*
X102639411Y-61769819D02*
X102972744Y-62150771D01*
X102972744Y-62150771D02*
X102829887Y-62150771D01*
X102829887Y-62150771D02*
X102734649Y-62198390D01*
X102734649Y-62198390D02*
X102687030Y-62246009D01*
X102687030Y-62246009D02*
X102639411Y-62341247D01*
X102639411Y-62341247D02*
X102639411Y-62579342D01*
X102639411Y-62579342D02*
X102687030Y-62674580D01*
X102687030Y-62674580D02*
X102734649Y-62722200D01*
X102734649Y-62722200D02*
X102829887Y-62769819D01*
X102829887Y-62769819D02*
X103115601Y-62769819D01*
X103115601Y-62769819D02*
X103210839Y-62722200D01*
X103210839Y-62722200D02*
X103258458Y-62674580D01*
X102353696Y-61769819D02*
X102020363Y-62769819D01*
X102020363Y-62769819D02*
X101687030Y-61769819D01*
X101448934Y-61769819D02*
X100829887Y-61769819D01*
X100829887Y-61769819D02*
X101163220Y-62150771D01*
X101163220Y-62150771D02*
X101020363Y-62150771D01*
X101020363Y-62150771D02*
X100925125Y-62198390D01*
X100925125Y-62198390D02*
X100877506Y-62246009D01*
X100877506Y-62246009D02*
X100829887Y-62341247D01*
X100829887Y-62341247D02*
X100829887Y-62579342D01*
X100829887Y-62579342D02*
X100877506Y-62674580D01*
X100877506Y-62674580D02*
X100925125Y-62722200D01*
X100925125Y-62722200D02*
X101020363Y-62769819D01*
X101020363Y-62769819D02*
X101306077Y-62769819D01*
X101306077Y-62769819D02*
X101401315Y-62722200D01*
X101401315Y-62722200D02*
X101448934Y-62674580D01*
X167963220Y-96369819D02*
X167963220Y-95369819D01*
X167963220Y-95369819D02*
X167725125Y-95369819D01*
X167725125Y-95369819D02*
X167582268Y-95417438D01*
X167582268Y-95417438D02*
X167487030Y-95512676D01*
X167487030Y-95512676D02*
X167439411Y-95607914D01*
X167439411Y-95607914D02*
X167391792Y-95798390D01*
X167391792Y-95798390D02*
X167391792Y-95941247D01*
X167391792Y-95941247D02*
X167439411Y-96131723D01*
X167439411Y-96131723D02*
X167487030Y-96226961D01*
X167487030Y-96226961D02*
X167582268Y-96322200D01*
X167582268Y-96322200D02*
X167725125Y-96369819D01*
X167725125Y-96369819D02*
X167963220Y-96369819D01*
X166582268Y-96322200D02*
X166677506Y-96369819D01*
X166677506Y-96369819D02*
X166867982Y-96369819D01*
X166867982Y-96369819D02*
X166963220Y-96322200D01*
X166963220Y-96322200D02*
X167010839Y-96226961D01*
X167010839Y-96226961D02*
X167010839Y-95846009D01*
X167010839Y-95846009D02*
X166963220Y-95750771D01*
X166963220Y-95750771D02*
X166867982Y-95703152D01*
X166867982Y-95703152D02*
X166677506Y-95703152D01*
X166677506Y-95703152D02*
X166582268Y-95750771D01*
X166582268Y-95750771D02*
X166534649Y-95846009D01*
X166534649Y-95846009D02*
X166534649Y-95941247D01*
X166534649Y-95941247D02*
X167010839Y-96036485D01*
X166106077Y-96369819D02*
X166106077Y-95369819D01*
X166106077Y-95750771D02*
X166010839Y-95703152D01*
X166010839Y-95703152D02*
X165820363Y-95703152D01*
X165820363Y-95703152D02*
X165725125Y-95750771D01*
X165725125Y-95750771D02*
X165677506Y-95798390D01*
X165677506Y-95798390D02*
X165629887Y-95893628D01*
X165629887Y-95893628D02*
X165629887Y-96179342D01*
X165629887Y-96179342D02*
X165677506Y-96274580D01*
X165677506Y-96274580D02*
X165725125Y-96322200D01*
X165725125Y-96322200D02*
X165820363Y-96369819D01*
X165820363Y-96369819D02*
X166010839Y-96369819D01*
X166010839Y-96369819D02*
X166106077Y-96322200D01*
X164772744Y-95703152D02*
X164772744Y-96369819D01*
X165201315Y-95703152D02*
X165201315Y-96226961D01*
X165201315Y-96226961D02*
X165153696Y-96322200D01*
X165153696Y-96322200D02*
X165058458Y-96369819D01*
X165058458Y-96369819D02*
X164915601Y-96369819D01*
X164915601Y-96369819D02*
X164820363Y-96322200D01*
X164820363Y-96322200D02*
X164772744Y-96274580D01*
X163867982Y-95703152D02*
X163867982Y-96512676D01*
X163867982Y-96512676D02*
X163915601Y-96607914D01*
X163915601Y-96607914D02*
X163963220Y-96655533D01*
X163963220Y-96655533D02*
X164058458Y-96703152D01*
X164058458Y-96703152D02*
X164201315Y-96703152D01*
X164201315Y-96703152D02*
X164296553Y-96655533D01*
X163867982Y-96322200D02*
X163963220Y-96369819D01*
X163963220Y-96369819D02*
X164153696Y-96369819D01*
X164153696Y-96369819D02*
X164248934Y-96322200D01*
X164248934Y-96322200D02*
X164296553Y-96274580D01*
X164296553Y-96274580D02*
X164344172Y-96179342D01*
X164344172Y-96179342D02*
X164344172Y-95893628D01*
X164344172Y-95893628D02*
X164296553Y-95798390D01*
X164296553Y-95798390D02*
X164248934Y-95750771D01*
X164248934Y-95750771D02*
X164153696Y-95703152D01*
X164153696Y-95703152D02*
X163963220Y-95703152D01*
X163963220Y-95703152D02*
X163867982Y-95750771D01*
X163663220Y-93269819D02*
X163663220Y-92269819D01*
X163663220Y-92269819D02*
X163282268Y-92269819D01*
X163282268Y-92269819D02*
X163187030Y-92317438D01*
X163187030Y-92317438D02*
X163139411Y-92365057D01*
X163139411Y-92365057D02*
X163091792Y-92460295D01*
X163091792Y-92460295D02*
X163091792Y-92603152D01*
X163091792Y-92603152D02*
X163139411Y-92698390D01*
X163139411Y-92698390D02*
X163187030Y-92746009D01*
X163187030Y-92746009D02*
X163282268Y-92793628D01*
X163282268Y-92793628D02*
X163663220Y-92793628D01*
X162091792Y-93174580D02*
X162139411Y-93222200D01*
X162139411Y-93222200D02*
X162282268Y-93269819D01*
X162282268Y-93269819D02*
X162377506Y-93269819D01*
X162377506Y-93269819D02*
X162520363Y-93222200D01*
X162520363Y-93222200D02*
X162615601Y-93126961D01*
X162615601Y-93126961D02*
X162663220Y-93031723D01*
X162663220Y-93031723D02*
X162710839Y-92841247D01*
X162710839Y-92841247D02*
X162710839Y-92698390D01*
X162710839Y-92698390D02*
X162663220Y-92507914D01*
X162663220Y-92507914D02*
X162615601Y-92412676D01*
X162615601Y-92412676D02*
X162520363Y-92317438D01*
X162520363Y-92317438D02*
X162377506Y-92269819D01*
X162377506Y-92269819D02*
X162282268Y-92269819D01*
X162282268Y-92269819D02*
X162139411Y-92317438D01*
X162139411Y-92317438D02*
X162091792Y-92365057D01*
X161139411Y-93269819D02*
X161710839Y-93269819D01*
X161425125Y-93269819D02*
X161425125Y-92269819D01*
X161425125Y-92269819D02*
X161520363Y-92412676D01*
X161520363Y-92412676D02*
X161615601Y-92507914D01*
X161615601Y-92507914D02*
X161710839Y-92555533D01*
X160520363Y-92269819D02*
X160425125Y-92269819D01*
X160425125Y-92269819D02*
X160329887Y-92317438D01*
X160329887Y-92317438D02*
X160282268Y-92365057D01*
X160282268Y-92365057D02*
X160234649Y-92460295D01*
X160234649Y-92460295D02*
X160187030Y-92650771D01*
X160187030Y-92650771D02*
X160187030Y-92888866D01*
X160187030Y-92888866D02*
X160234649Y-93079342D01*
X160234649Y-93079342D02*
X160282268Y-93174580D01*
X160282268Y-93174580D02*
X160329887Y-93222200D01*
X160329887Y-93222200D02*
X160425125Y-93269819D01*
X160425125Y-93269819D02*
X160520363Y-93269819D01*
X160520363Y-93269819D02*
X160615601Y-93222200D01*
X160615601Y-93222200D02*
X160663220Y-93174580D01*
X160663220Y-93174580D02*
X160710839Y-93079342D01*
X160710839Y-93079342D02*
X160758458Y-92888866D01*
X160758458Y-92888866D02*
X160758458Y-92650771D01*
X160758458Y-92650771D02*
X160710839Y-92460295D01*
X160710839Y-92460295D02*
X160663220Y-92365057D01*
X160663220Y-92365057D02*
X160615601Y-92317438D01*
X160615601Y-92317438D02*
X160520363Y-92269819D01*
X163663220Y-90769819D02*
X163663220Y-89769819D01*
X163663220Y-89769819D02*
X163282268Y-89769819D01*
X163282268Y-89769819D02*
X163187030Y-89817438D01*
X163187030Y-89817438D02*
X163139411Y-89865057D01*
X163139411Y-89865057D02*
X163091792Y-89960295D01*
X163091792Y-89960295D02*
X163091792Y-90103152D01*
X163091792Y-90103152D02*
X163139411Y-90198390D01*
X163139411Y-90198390D02*
X163187030Y-90246009D01*
X163187030Y-90246009D02*
X163282268Y-90293628D01*
X163282268Y-90293628D02*
X163663220Y-90293628D01*
X162091792Y-90674580D02*
X162139411Y-90722200D01*
X162139411Y-90722200D02*
X162282268Y-90769819D01*
X162282268Y-90769819D02*
X162377506Y-90769819D01*
X162377506Y-90769819D02*
X162520363Y-90722200D01*
X162520363Y-90722200D02*
X162615601Y-90626961D01*
X162615601Y-90626961D02*
X162663220Y-90531723D01*
X162663220Y-90531723D02*
X162710839Y-90341247D01*
X162710839Y-90341247D02*
X162710839Y-90198390D01*
X162710839Y-90198390D02*
X162663220Y-90007914D01*
X162663220Y-90007914D02*
X162615601Y-89912676D01*
X162615601Y-89912676D02*
X162520363Y-89817438D01*
X162520363Y-89817438D02*
X162377506Y-89769819D01*
X162377506Y-89769819D02*
X162282268Y-89769819D01*
X162282268Y-89769819D02*
X162139411Y-89817438D01*
X162139411Y-89817438D02*
X162091792Y-89865057D01*
X161139411Y-90769819D02*
X161710839Y-90769819D01*
X161425125Y-90769819D02*
X161425125Y-89769819D01*
X161425125Y-89769819D02*
X161520363Y-89912676D01*
X161520363Y-89912676D02*
X161615601Y-90007914D01*
X161615601Y-90007914D02*
X161710839Y-90055533D01*
X160187030Y-90769819D02*
X160758458Y-90769819D01*
X160472744Y-90769819D02*
X160472744Y-89769819D01*
X160472744Y-89769819D02*
X160567982Y-89912676D01*
X160567982Y-89912676D02*
X160663220Y-90007914D01*
X160663220Y-90007914D02*
X160758458Y-90055533D01*
X102739411Y-70917438D02*
X102834649Y-70869819D01*
X102834649Y-70869819D02*
X102977506Y-70869819D01*
X102977506Y-70869819D02*
X103120363Y-70917438D01*
X103120363Y-70917438D02*
X103215601Y-71012676D01*
X103215601Y-71012676D02*
X103263220Y-71107914D01*
X103263220Y-71107914D02*
X103310839Y-71298390D01*
X103310839Y-71298390D02*
X103310839Y-71441247D01*
X103310839Y-71441247D02*
X103263220Y-71631723D01*
X103263220Y-71631723D02*
X103215601Y-71726961D01*
X103215601Y-71726961D02*
X103120363Y-71822200D01*
X103120363Y-71822200D02*
X102977506Y-71869819D01*
X102977506Y-71869819D02*
X102882268Y-71869819D01*
X102882268Y-71869819D02*
X102739411Y-71822200D01*
X102739411Y-71822200D02*
X102691792Y-71774580D01*
X102691792Y-71774580D02*
X102691792Y-71441247D01*
X102691792Y-71441247D02*
X102882268Y-71441247D01*
X102263220Y-71869819D02*
X102263220Y-70869819D01*
X102263220Y-70869819D02*
X101691792Y-71869819D01*
X101691792Y-71869819D02*
X101691792Y-70869819D01*
X101215601Y-71869819D02*
X101215601Y-70869819D01*
X101215601Y-70869819D02*
X100977506Y-70869819D01*
X100977506Y-70869819D02*
X100834649Y-70917438D01*
X100834649Y-70917438D02*
X100739411Y-71012676D01*
X100739411Y-71012676D02*
X100691792Y-71107914D01*
X100691792Y-71107914D02*
X100644173Y-71298390D01*
X100644173Y-71298390D02*
X100644173Y-71441247D01*
X100644173Y-71441247D02*
X100691792Y-71631723D01*
X100691792Y-71631723D02*
X100739411Y-71726961D01*
X100739411Y-71726961D02*
X100834649Y-71822200D01*
X100834649Y-71822200D02*
X100977506Y-71869819D01*
X100977506Y-71869819D02*
X101215601Y-71869819D01*
X163139411Y-87317438D02*
X163234649Y-87269819D01*
X163234649Y-87269819D02*
X163377506Y-87269819D01*
X163377506Y-87269819D02*
X163520363Y-87317438D01*
X163520363Y-87317438D02*
X163615601Y-87412676D01*
X163615601Y-87412676D02*
X163663220Y-87507914D01*
X163663220Y-87507914D02*
X163710839Y-87698390D01*
X163710839Y-87698390D02*
X163710839Y-87841247D01*
X163710839Y-87841247D02*
X163663220Y-88031723D01*
X163663220Y-88031723D02*
X163615601Y-88126961D01*
X163615601Y-88126961D02*
X163520363Y-88222200D01*
X163520363Y-88222200D02*
X163377506Y-88269819D01*
X163377506Y-88269819D02*
X163282268Y-88269819D01*
X163282268Y-88269819D02*
X163139411Y-88222200D01*
X163139411Y-88222200D02*
X163091792Y-88174580D01*
X163091792Y-88174580D02*
X163091792Y-87841247D01*
X163091792Y-87841247D02*
X163282268Y-87841247D01*
X162663220Y-88269819D02*
X162663220Y-87269819D01*
X162663220Y-87269819D02*
X162091792Y-88269819D01*
X162091792Y-88269819D02*
X162091792Y-87269819D01*
X161615601Y-88269819D02*
X161615601Y-87269819D01*
X161615601Y-87269819D02*
X161377506Y-87269819D01*
X161377506Y-87269819D02*
X161234649Y-87317438D01*
X161234649Y-87317438D02*
X161139411Y-87412676D01*
X161139411Y-87412676D02*
X161091792Y-87507914D01*
X161091792Y-87507914D02*
X161044173Y-87698390D01*
X161044173Y-87698390D02*
X161044173Y-87841247D01*
X161044173Y-87841247D02*
X161091792Y-88031723D01*
X161091792Y-88031723D02*
X161139411Y-88126961D01*
X161139411Y-88126961D02*
X161234649Y-88222200D01*
X161234649Y-88222200D02*
X161377506Y-88269819D01*
X161377506Y-88269819D02*
X161615601Y-88269819D01*
X157166666Y-71939580D02*
X157214285Y-71987200D01*
X157214285Y-71987200D02*
X157357142Y-72034819D01*
X157357142Y-72034819D02*
X157452380Y-72034819D01*
X157452380Y-72034819D02*
X157595237Y-71987200D01*
X157595237Y-71987200D02*
X157690475Y-71891961D01*
X157690475Y-71891961D02*
X157738094Y-71796723D01*
X157738094Y-71796723D02*
X157785713Y-71606247D01*
X157785713Y-71606247D02*
X157785713Y-71463390D01*
X157785713Y-71463390D02*
X157738094Y-71272914D01*
X157738094Y-71272914D02*
X157690475Y-71177676D01*
X157690475Y-71177676D02*
X157595237Y-71082438D01*
X157595237Y-71082438D02*
X157452380Y-71034819D01*
X157452380Y-71034819D02*
X157357142Y-71034819D01*
X157357142Y-71034819D02*
X157214285Y-71082438D01*
X157214285Y-71082438D02*
X157166666Y-71130057D01*
X156833332Y-71034819D02*
X156214285Y-71034819D01*
X156214285Y-71034819D02*
X156547618Y-71415771D01*
X156547618Y-71415771D02*
X156404761Y-71415771D01*
X156404761Y-71415771D02*
X156309523Y-71463390D01*
X156309523Y-71463390D02*
X156261904Y-71511009D01*
X156261904Y-71511009D02*
X156214285Y-71606247D01*
X156214285Y-71606247D02*
X156214285Y-71844342D01*
X156214285Y-71844342D02*
X156261904Y-71939580D01*
X156261904Y-71939580D02*
X156309523Y-71987200D01*
X156309523Y-71987200D02*
X156404761Y-72034819D01*
X156404761Y-72034819D02*
X156690475Y-72034819D01*
X156690475Y-72034819D02*
X156785713Y-71987200D01*
X156785713Y-71987200D02*
X156833332Y-71939580D01*
X153316666Y-91259580D02*
X153364285Y-91307200D01*
X153364285Y-91307200D02*
X153507142Y-91354819D01*
X153507142Y-91354819D02*
X153602380Y-91354819D01*
X153602380Y-91354819D02*
X153745237Y-91307200D01*
X153745237Y-91307200D02*
X153840475Y-91211961D01*
X153840475Y-91211961D02*
X153888094Y-91116723D01*
X153888094Y-91116723D02*
X153935713Y-90926247D01*
X153935713Y-90926247D02*
X153935713Y-90783390D01*
X153935713Y-90783390D02*
X153888094Y-90592914D01*
X153888094Y-90592914D02*
X153840475Y-90497676D01*
X153840475Y-90497676D02*
X153745237Y-90402438D01*
X153745237Y-90402438D02*
X153602380Y-90354819D01*
X153602380Y-90354819D02*
X153507142Y-90354819D01*
X153507142Y-90354819D02*
X153364285Y-90402438D01*
X153364285Y-90402438D02*
X153316666Y-90450057D01*
X152459523Y-90688152D02*
X152459523Y-91354819D01*
X152697618Y-90307200D02*
X152935713Y-91021485D01*
X152935713Y-91021485D02*
X152316666Y-91021485D01*
X135866666Y-73559580D02*
X135914285Y-73607200D01*
X135914285Y-73607200D02*
X136057142Y-73654819D01*
X136057142Y-73654819D02*
X136152380Y-73654819D01*
X136152380Y-73654819D02*
X136295237Y-73607200D01*
X136295237Y-73607200D02*
X136390475Y-73511961D01*
X136390475Y-73511961D02*
X136438094Y-73416723D01*
X136438094Y-73416723D02*
X136485713Y-73226247D01*
X136485713Y-73226247D02*
X136485713Y-73083390D01*
X136485713Y-73083390D02*
X136438094Y-72892914D01*
X136438094Y-72892914D02*
X136390475Y-72797676D01*
X136390475Y-72797676D02*
X136295237Y-72702438D01*
X136295237Y-72702438D02*
X136152380Y-72654819D01*
X136152380Y-72654819D02*
X136057142Y-72654819D01*
X136057142Y-72654819D02*
X135914285Y-72702438D01*
X135914285Y-72702438D02*
X135866666Y-72750057D01*
X135390475Y-73654819D02*
X135199999Y-73654819D01*
X135199999Y-73654819D02*
X135104761Y-73607200D01*
X135104761Y-73607200D02*
X135057142Y-73559580D01*
X135057142Y-73559580D02*
X134961904Y-73416723D01*
X134961904Y-73416723D02*
X134914285Y-73226247D01*
X134914285Y-73226247D02*
X134914285Y-72845295D01*
X134914285Y-72845295D02*
X134961904Y-72750057D01*
X134961904Y-72750057D02*
X135009523Y-72702438D01*
X135009523Y-72702438D02*
X135104761Y-72654819D01*
X135104761Y-72654819D02*
X135295237Y-72654819D01*
X135295237Y-72654819D02*
X135390475Y-72702438D01*
X135390475Y-72702438D02*
X135438094Y-72750057D01*
X135438094Y-72750057D02*
X135485713Y-72845295D01*
X135485713Y-72845295D02*
X135485713Y-73083390D01*
X135485713Y-73083390D02*
X135438094Y-73178628D01*
X135438094Y-73178628D02*
X135390475Y-73226247D01*
X135390475Y-73226247D02*
X135295237Y-73273866D01*
X135295237Y-73273866D02*
X135104761Y-73273866D01*
X135104761Y-73273866D02*
X135009523Y-73226247D01*
X135009523Y-73226247D02*
X134961904Y-73178628D01*
X134961904Y-73178628D02*
X134914285Y-73083390D01*
X135842857Y-79259580D02*
X135890476Y-79307200D01*
X135890476Y-79307200D02*
X136033333Y-79354819D01*
X136033333Y-79354819D02*
X136128571Y-79354819D01*
X136128571Y-79354819D02*
X136271428Y-79307200D01*
X136271428Y-79307200D02*
X136366666Y-79211961D01*
X136366666Y-79211961D02*
X136414285Y-79116723D01*
X136414285Y-79116723D02*
X136461904Y-78926247D01*
X136461904Y-78926247D02*
X136461904Y-78783390D01*
X136461904Y-78783390D02*
X136414285Y-78592914D01*
X136414285Y-78592914D02*
X136366666Y-78497676D01*
X136366666Y-78497676D02*
X136271428Y-78402438D01*
X136271428Y-78402438D02*
X136128571Y-78354819D01*
X136128571Y-78354819D02*
X136033333Y-78354819D01*
X136033333Y-78354819D02*
X135890476Y-78402438D01*
X135890476Y-78402438D02*
X135842857Y-78450057D01*
X134890476Y-79354819D02*
X135461904Y-79354819D01*
X135176190Y-79354819D02*
X135176190Y-78354819D01*
X135176190Y-78354819D02*
X135271428Y-78497676D01*
X135271428Y-78497676D02*
X135366666Y-78592914D01*
X135366666Y-78592914D02*
X135461904Y-78640533D01*
X134271428Y-78354819D02*
X134176190Y-78354819D01*
X134176190Y-78354819D02*
X134080952Y-78402438D01*
X134080952Y-78402438D02*
X134033333Y-78450057D01*
X134033333Y-78450057D02*
X133985714Y-78545295D01*
X133985714Y-78545295D02*
X133938095Y-78735771D01*
X133938095Y-78735771D02*
X133938095Y-78973866D01*
X133938095Y-78973866D02*
X133985714Y-79164342D01*
X133985714Y-79164342D02*
X134033333Y-79259580D01*
X134033333Y-79259580D02*
X134080952Y-79307200D01*
X134080952Y-79307200D02*
X134176190Y-79354819D01*
X134176190Y-79354819D02*
X134271428Y-79354819D01*
X134271428Y-79354819D02*
X134366666Y-79307200D01*
X134366666Y-79307200D02*
X134414285Y-79259580D01*
X134414285Y-79259580D02*
X134461904Y-79164342D01*
X134461904Y-79164342D02*
X134509523Y-78973866D01*
X134509523Y-78973866D02*
X134509523Y-78735771D01*
X134509523Y-78735771D02*
X134461904Y-78545295D01*
X134461904Y-78545295D02*
X134414285Y-78450057D01*
X134414285Y-78450057D02*
X134366666Y-78402438D01*
X134366666Y-78402438D02*
X134271428Y-78354819D01*
X135842857Y-71459580D02*
X135890476Y-71507200D01*
X135890476Y-71507200D02*
X136033333Y-71554819D01*
X136033333Y-71554819D02*
X136128571Y-71554819D01*
X136128571Y-71554819D02*
X136271428Y-71507200D01*
X136271428Y-71507200D02*
X136366666Y-71411961D01*
X136366666Y-71411961D02*
X136414285Y-71316723D01*
X136414285Y-71316723D02*
X136461904Y-71126247D01*
X136461904Y-71126247D02*
X136461904Y-70983390D01*
X136461904Y-70983390D02*
X136414285Y-70792914D01*
X136414285Y-70792914D02*
X136366666Y-70697676D01*
X136366666Y-70697676D02*
X136271428Y-70602438D01*
X136271428Y-70602438D02*
X136128571Y-70554819D01*
X136128571Y-70554819D02*
X136033333Y-70554819D01*
X136033333Y-70554819D02*
X135890476Y-70602438D01*
X135890476Y-70602438D02*
X135842857Y-70650057D01*
X134890476Y-71554819D02*
X135461904Y-71554819D01*
X135176190Y-71554819D02*
X135176190Y-70554819D01*
X135176190Y-70554819D02*
X135271428Y-70697676D01*
X135271428Y-70697676D02*
X135366666Y-70792914D01*
X135366666Y-70792914D02*
X135461904Y-70840533D01*
X134509523Y-70650057D02*
X134461904Y-70602438D01*
X134461904Y-70602438D02*
X134366666Y-70554819D01*
X134366666Y-70554819D02*
X134128571Y-70554819D01*
X134128571Y-70554819D02*
X134033333Y-70602438D01*
X134033333Y-70602438D02*
X133985714Y-70650057D01*
X133985714Y-70650057D02*
X133938095Y-70745295D01*
X133938095Y-70745295D02*
X133938095Y-70840533D01*
X133938095Y-70840533D02*
X133985714Y-70983390D01*
X133985714Y-70983390D02*
X134557142Y-71554819D01*
X134557142Y-71554819D02*
X133938095Y-71554819D01*
X143966666Y-53259580D02*
X144014285Y-53307200D01*
X144014285Y-53307200D02*
X144157142Y-53354819D01*
X144157142Y-53354819D02*
X144252380Y-53354819D01*
X144252380Y-53354819D02*
X144395237Y-53307200D01*
X144395237Y-53307200D02*
X144490475Y-53211961D01*
X144490475Y-53211961D02*
X144538094Y-53116723D01*
X144538094Y-53116723D02*
X144585713Y-52926247D01*
X144585713Y-52926247D02*
X144585713Y-52783390D01*
X144585713Y-52783390D02*
X144538094Y-52592914D01*
X144538094Y-52592914D02*
X144490475Y-52497676D01*
X144490475Y-52497676D02*
X144395237Y-52402438D01*
X144395237Y-52402438D02*
X144252380Y-52354819D01*
X144252380Y-52354819D02*
X144157142Y-52354819D01*
X144157142Y-52354819D02*
X144014285Y-52402438D01*
X144014285Y-52402438D02*
X143966666Y-52450057D01*
X143585713Y-52450057D02*
X143538094Y-52402438D01*
X143538094Y-52402438D02*
X143442856Y-52354819D01*
X143442856Y-52354819D02*
X143204761Y-52354819D01*
X143204761Y-52354819D02*
X143109523Y-52402438D01*
X143109523Y-52402438D02*
X143061904Y-52450057D01*
X143061904Y-52450057D02*
X143014285Y-52545295D01*
X143014285Y-52545295D02*
X143014285Y-52640533D01*
X143014285Y-52640533D02*
X143061904Y-52783390D01*
X143061904Y-52783390D02*
X143633332Y-53354819D01*
X143633332Y-53354819D02*
X143014285Y-53354819D01*
X158366666Y-53359580D02*
X158414285Y-53407200D01*
X158414285Y-53407200D02*
X158557142Y-53454819D01*
X158557142Y-53454819D02*
X158652380Y-53454819D01*
X158652380Y-53454819D02*
X158795237Y-53407200D01*
X158795237Y-53407200D02*
X158890475Y-53311961D01*
X158890475Y-53311961D02*
X158938094Y-53216723D01*
X158938094Y-53216723D02*
X158985713Y-53026247D01*
X158985713Y-53026247D02*
X158985713Y-52883390D01*
X158985713Y-52883390D02*
X158938094Y-52692914D01*
X158938094Y-52692914D02*
X158890475Y-52597676D01*
X158890475Y-52597676D02*
X158795237Y-52502438D01*
X158795237Y-52502438D02*
X158652380Y-52454819D01*
X158652380Y-52454819D02*
X158557142Y-52454819D01*
X158557142Y-52454819D02*
X158414285Y-52502438D01*
X158414285Y-52502438D02*
X158366666Y-52550057D01*
X157795237Y-52883390D02*
X157890475Y-52835771D01*
X157890475Y-52835771D02*
X157938094Y-52788152D01*
X157938094Y-52788152D02*
X157985713Y-52692914D01*
X157985713Y-52692914D02*
X157985713Y-52645295D01*
X157985713Y-52645295D02*
X157938094Y-52550057D01*
X157938094Y-52550057D02*
X157890475Y-52502438D01*
X157890475Y-52502438D02*
X157795237Y-52454819D01*
X157795237Y-52454819D02*
X157604761Y-52454819D01*
X157604761Y-52454819D02*
X157509523Y-52502438D01*
X157509523Y-52502438D02*
X157461904Y-52550057D01*
X157461904Y-52550057D02*
X157414285Y-52645295D01*
X157414285Y-52645295D02*
X157414285Y-52692914D01*
X157414285Y-52692914D02*
X157461904Y-52788152D01*
X157461904Y-52788152D02*
X157509523Y-52835771D01*
X157509523Y-52835771D02*
X157604761Y-52883390D01*
X157604761Y-52883390D02*
X157795237Y-52883390D01*
X157795237Y-52883390D02*
X157890475Y-52931009D01*
X157890475Y-52931009D02*
X157938094Y-52978628D01*
X157938094Y-52978628D02*
X157985713Y-53073866D01*
X157985713Y-53073866D02*
X157985713Y-53264342D01*
X157985713Y-53264342D02*
X157938094Y-53359580D01*
X157938094Y-53359580D02*
X157890475Y-53407200D01*
X157890475Y-53407200D02*
X157795237Y-53454819D01*
X157795237Y-53454819D02*
X157604761Y-53454819D01*
X157604761Y-53454819D02*
X157509523Y-53407200D01*
X157509523Y-53407200D02*
X157461904Y-53359580D01*
X157461904Y-53359580D02*
X157414285Y-53264342D01*
X157414285Y-53264342D02*
X157414285Y-53073866D01*
X157414285Y-53073866D02*
X157461904Y-52978628D01*
X157461904Y-52978628D02*
X157509523Y-52931009D01*
X157509523Y-52931009D02*
X157604761Y-52883390D01*
X140959580Y-88257142D02*
X141007200Y-88209523D01*
X141007200Y-88209523D02*
X141054819Y-88066666D01*
X141054819Y-88066666D02*
X141054819Y-87971428D01*
X141054819Y-87971428D02*
X141007200Y-87828571D01*
X141007200Y-87828571D02*
X140911961Y-87733333D01*
X140911961Y-87733333D02*
X140816723Y-87685714D01*
X140816723Y-87685714D02*
X140626247Y-87638095D01*
X140626247Y-87638095D02*
X140483390Y-87638095D01*
X140483390Y-87638095D02*
X140292914Y-87685714D01*
X140292914Y-87685714D02*
X140197676Y-87733333D01*
X140197676Y-87733333D02*
X140102438Y-87828571D01*
X140102438Y-87828571D02*
X140054819Y-87971428D01*
X140054819Y-87971428D02*
X140054819Y-88066666D01*
X140054819Y-88066666D02*
X140102438Y-88209523D01*
X140102438Y-88209523D02*
X140150057Y-88257142D01*
X141054819Y-89209523D02*
X141054819Y-88638095D01*
X141054819Y-88923809D02*
X140054819Y-88923809D01*
X140054819Y-88923809D02*
X140197676Y-88828571D01*
X140197676Y-88828571D02*
X140292914Y-88733333D01*
X140292914Y-88733333D02*
X140340533Y-88638095D01*
X141054819Y-90161904D02*
X141054819Y-89590476D01*
X141054819Y-89876190D02*
X140054819Y-89876190D01*
X140054819Y-89876190D02*
X140197676Y-89780952D01*
X140197676Y-89780952D02*
X140292914Y-89685714D01*
X140292914Y-89685714D02*
X140340533Y-89590476D01*
X139838094Y-54554819D02*
X139838094Y-53554819D01*
X139838094Y-53554819D02*
X139599999Y-53554819D01*
X139599999Y-53554819D02*
X139457142Y-53602438D01*
X139457142Y-53602438D02*
X139361904Y-53697676D01*
X139361904Y-53697676D02*
X139314285Y-53792914D01*
X139314285Y-53792914D02*
X139266666Y-53983390D01*
X139266666Y-53983390D02*
X139266666Y-54126247D01*
X139266666Y-54126247D02*
X139314285Y-54316723D01*
X139314285Y-54316723D02*
X139361904Y-54411961D01*
X139361904Y-54411961D02*
X139457142Y-54507200D01*
X139457142Y-54507200D02*
X139599999Y-54554819D01*
X139599999Y-54554819D02*
X139838094Y-54554819D01*
X138314285Y-54554819D02*
X138885713Y-54554819D01*
X138599999Y-54554819D02*
X138599999Y-53554819D01*
X138599999Y-53554819D02*
X138695237Y-53697676D01*
X138695237Y-53697676D02*
X138790475Y-53792914D01*
X138790475Y-53792914D02*
X138885713Y-53840533D01*
X130966666Y-80254819D02*
X131299999Y-79778628D01*
X131538094Y-80254819D02*
X131538094Y-79254819D01*
X131538094Y-79254819D02*
X131157142Y-79254819D01*
X131157142Y-79254819D02*
X131061904Y-79302438D01*
X131061904Y-79302438D02*
X131014285Y-79350057D01*
X131014285Y-79350057D02*
X130966666Y-79445295D01*
X130966666Y-79445295D02*
X130966666Y-79588152D01*
X130966666Y-79588152D02*
X131014285Y-79683390D01*
X131014285Y-79683390D02*
X131061904Y-79731009D01*
X131061904Y-79731009D02*
X131157142Y-79778628D01*
X131157142Y-79778628D02*
X131538094Y-79778628D01*
X130585713Y-79350057D02*
X130538094Y-79302438D01*
X130538094Y-79302438D02*
X130442856Y-79254819D01*
X130442856Y-79254819D02*
X130204761Y-79254819D01*
X130204761Y-79254819D02*
X130109523Y-79302438D01*
X130109523Y-79302438D02*
X130061904Y-79350057D01*
X130061904Y-79350057D02*
X130014285Y-79445295D01*
X130014285Y-79445295D02*
X130014285Y-79540533D01*
X130014285Y-79540533D02*
X130061904Y-79683390D01*
X130061904Y-79683390D02*
X130633332Y-80254819D01*
X130633332Y-80254819D02*
X130014285Y-80254819D01*
X130966666Y-84254819D02*
X131299999Y-83778628D01*
X131538094Y-84254819D02*
X131538094Y-83254819D01*
X131538094Y-83254819D02*
X131157142Y-83254819D01*
X131157142Y-83254819D02*
X131061904Y-83302438D01*
X131061904Y-83302438D02*
X131014285Y-83350057D01*
X131014285Y-83350057D02*
X130966666Y-83445295D01*
X130966666Y-83445295D02*
X130966666Y-83588152D01*
X130966666Y-83588152D02*
X131014285Y-83683390D01*
X131014285Y-83683390D02*
X131061904Y-83731009D01*
X131061904Y-83731009D02*
X131157142Y-83778628D01*
X131157142Y-83778628D02*
X131538094Y-83778628D01*
X130633332Y-83254819D02*
X130014285Y-83254819D01*
X130014285Y-83254819D02*
X130347618Y-83635771D01*
X130347618Y-83635771D02*
X130204761Y-83635771D01*
X130204761Y-83635771D02*
X130109523Y-83683390D01*
X130109523Y-83683390D02*
X130061904Y-83731009D01*
X130061904Y-83731009D02*
X130014285Y-83826247D01*
X130014285Y-83826247D02*
X130014285Y-84064342D01*
X130014285Y-84064342D02*
X130061904Y-84159580D01*
X130061904Y-84159580D02*
X130109523Y-84207200D01*
X130109523Y-84207200D02*
X130204761Y-84254819D01*
X130204761Y-84254819D02*
X130490475Y-84254819D01*
X130490475Y-84254819D02*
X130585713Y-84207200D01*
X130585713Y-84207200D02*
X130633332Y-84159580D01*
X112466666Y-78254819D02*
X112799999Y-77778628D01*
X113038094Y-78254819D02*
X113038094Y-77254819D01*
X113038094Y-77254819D02*
X112657142Y-77254819D01*
X112657142Y-77254819D02*
X112561904Y-77302438D01*
X112561904Y-77302438D02*
X112514285Y-77350057D01*
X112514285Y-77350057D02*
X112466666Y-77445295D01*
X112466666Y-77445295D02*
X112466666Y-77588152D01*
X112466666Y-77588152D02*
X112514285Y-77683390D01*
X112514285Y-77683390D02*
X112561904Y-77731009D01*
X112561904Y-77731009D02*
X112657142Y-77778628D01*
X112657142Y-77778628D02*
X113038094Y-77778628D01*
X111609523Y-77588152D02*
X111609523Y-78254819D01*
X111847618Y-77207200D02*
X112085713Y-77921485D01*
X112085713Y-77921485D02*
X111466666Y-77921485D01*
X112466666Y-76254819D02*
X112799999Y-75778628D01*
X113038094Y-76254819D02*
X113038094Y-75254819D01*
X113038094Y-75254819D02*
X112657142Y-75254819D01*
X112657142Y-75254819D02*
X112561904Y-75302438D01*
X112561904Y-75302438D02*
X112514285Y-75350057D01*
X112514285Y-75350057D02*
X112466666Y-75445295D01*
X112466666Y-75445295D02*
X112466666Y-75588152D01*
X112466666Y-75588152D02*
X112514285Y-75683390D01*
X112514285Y-75683390D02*
X112561904Y-75731009D01*
X112561904Y-75731009D02*
X112657142Y-75778628D01*
X112657142Y-75778628D02*
X113038094Y-75778628D01*
X111561904Y-75254819D02*
X112038094Y-75254819D01*
X112038094Y-75254819D02*
X112085713Y-75731009D01*
X112085713Y-75731009D02*
X112038094Y-75683390D01*
X112038094Y-75683390D02*
X111942856Y-75635771D01*
X111942856Y-75635771D02*
X111704761Y-75635771D01*
X111704761Y-75635771D02*
X111609523Y-75683390D01*
X111609523Y-75683390D02*
X111561904Y-75731009D01*
X111561904Y-75731009D02*
X111514285Y-75826247D01*
X111514285Y-75826247D02*
X111514285Y-76064342D01*
X111514285Y-76064342D02*
X111561904Y-76159580D01*
X111561904Y-76159580D02*
X111609523Y-76207200D01*
X111609523Y-76207200D02*
X111704761Y-76254819D01*
X111704761Y-76254819D02*
X111942856Y-76254819D01*
X111942856Y-76254819D02*
X112038094Y-76207200D01*
X112038094Y-76207200D02*
X112085713Y-76159580D01*
X130966666Y-78254819D02*
X131299999Y-77778628D01*
X131538094Y-78254819D02*
X131538094Y-77254819D01*
X131538094Y-77254819D02*
X131157142Y-77254819D01*
X131157142Y-77254819D02*
X131061904Y-77302438D01*
X131061904Y-77302438D02*
X131014285Y-77350057D01*
X131014285Y-77350057D02*
X130966666Y-77445295D01*
X130966666Y-77445295D02*
X130966666Y-77588152D01*
X130966666Y-77588152D02*
X131014285Y-77683390D01*
X131014285Y-77683390D02*
X131061904Y-77731009D01*
X131061904Y-77731009D02*
X131157142Y-77778628D01*
X131157142Y-77778628D02*
X131538094Y-77778628D01*
X130109523Y-77254819D02*
X130299999Y-77254819D01*
X130299999Y-77254819D02*
X130395237Y-77302438D01*
X130395237Y-77302438D02*
X130442856Y-77350057D01*
X130442856Y-77350057D02*
X130538094Y-77492914D01*
X130538094Y-77492914D02*
X130585713Y-77683390D01*
X130585713Y-77683390D02*
X130585713Y-78064342D01*
X130585713Y-78064342D02*
X130538094Y-78159580D01*
X130538094Y-78159580D02*
X130490475Y-78207200D01*
X130490475Y-78207200D02*
X130395237Y-78254819D01*
X130395237Y-78254819D02*
X130204761Y-78254819D01*
X130204761Y-78254819D02*
X130109523Y-78207200D01*
X130109523Y-78207200D02*
X130061904Y-78159580D01*
X130061904Y-78159580D02*
X130014285Y-78064342D01*
X130014285Y-78064342D02*
X130014285Y-77826247D01*
X130014285Y-77826247D02*
X130061904Y-77731009D01*
X130061904Y-77731009D02*
X130109523Y-77683390D01*
X130109523Y-77683390D02*
X130204761Y-77635771D01*
X130204761Y-77635771D02*
X130395237Y-77635771D01*
X130395237Y-77635771D02*
X130490475Y-77683390D01*
X130490475Y-77683390D02*
X130538094Y-77731009D01*
X130538094Y-77731009D02*
X130585713Y-77826247D01*
X130966666Y-74254819D02*
X131299999Y-73778628D01*
X131538094Y-74254819D02*
X131538094Y-73254819D01*
X131538094Y-73254819D02*
X131157142Y-73254819D01*
X131157142Y-73254819D02*
X131061904Y-73302438D01*
X131061904Y-73302438D02*
X131014285Y-73350057D01*
X131014285Y-73350057D02*
X130966666Y-73445295D01*
X130966666Y-73445295D02*
X130966666Y-73588152D01*
X130966666Y-73588152D02*
X131014285Y-73683390D01*
X131014285Y-73683390D02*
X131061904Y-73731009D01*
X131061904Y-73731009D02*
X131157142Y-73778628D01*
X131157142Y-73778628D02*
X131538094Y-73778628D01*
X130633332Y-73254819D02*
X129966666Y-73254819D01*
X129966666Y-73254819D02*
X130395237Y-74254819D01*
X112366666Y-74254819D02*
X112699999Y-73778628D01*
X112938094Y-74254819D02*
X112938094Y-73254819D01*
X112938094Y-73254819D02*
X112557142Y-73254819D01*
X112557142Y-73254819D02*
X112461904Y-73302438D01*
X112461904Y-73302438D02*
X112414285Y-73350057D01*
X112414285Y-73350057D02*
X112366666Y-73445295D01*
X112366666Y-73445295D02*
X112366666Y-73588152D01*
X112366666Y-73588152D02*
X112414285Y-73683390D01*
X112414285Y-73683390D02*
X112461904Y-73731009D01*
X112461904Y-73731009D02*
X112557142Y-73778628D01*
X112557142Y-73778628D02*
X112938094Y-73778628D01*
X111890475Y-74254819D02*
X111699999Y-74254819D01*
X111699999Y-74254819D02*
X111604761Y-74207200D01*
X111604761Y-74207200D02*
X111557142Y-74159580D01*
X111557142Y-74159580D02*
X111461904Y-74016723D01*
X111461904Y-74016723D02*
X111414285Y-73826247D01*
X111414285Y-73826247D02*
X111414285Y-73445295D01*
X111414285Y-73445295D02*
X111461904Y-73350057D01*
X111461904Y-73350057D02*
X111509523Y-73302438D01*
X111509523Y-73302438D02*
X111604761Y-73254819D01*
X111604761Y-73254819D02*
X111795237Y-73254819D01*
X111795237Y-73254819D02*
X111890475Y-73302438D01*
X111890475Y-73302438D02*
X111938094Y-73350057D01*
X111938094Y-73350057D02*
X111985713Y-73445295D01*
X111985713Y-73445295D02*
X111985713Y-73683390D01*
X111985713Y-73683390D02*
X111938094Y-73778628D01*
X111938094Y-73778628D02*
X111890475Y-73826247D01*
X111890475Y-73826247D02*
X111795237Y-73873866D01*
X111795237Y-73873866D02*
X111604761Y-73873866D01*
X111604761Y-73873866D02*
X111509523Y-73826247D01*
X111509523Y-73826247D02*
X111461904Y-73778628D01*
X111461904Y-73778628D02*
X111414285Y-73683390D01*
X131842857Y-76254819D02*
X132176190Y-75778628D01*
X132414285Y-76254819D02*
X132414285Y-75254819D01*
X132414285Y-75254819D02*
X132033333Y-75254819D01*
X132033333Y-75254819D02*
X131938095Y-75302438D01*
X131938095Y-75302438D02*
X131890476Y-75350057D01*
X131890476Y-75350057D02*
X131842857Y-75445295D01*
X131842857Y-75445295D02*
X131842857Y-75588152D01*
X131842857Y-75588152D02*
X131890476Y-75683390D01*
X131890476Y-75683390D02*
X131938095Y-75731009D01*
X131938095Y-75731009D02*
X132033333Y-75778628D01*
X132033333Y-75778628D02*
X132414285Y-75778628D01*
X130890476Y-76254819D02*
X131461904Y-76254819D01*
X131176190Y-76254819D02*
X131176190Y-75254819D01*
X131176190Y-75254819D02*
X131271428Y-75397676D01*
X131271428Y-75397676D02*
X131366666Y-75492914D01*
X131366666Y-75492914D02*
X131461904Y-75540533D01*
X130271428Y-75254819D02*
X130176190Y-75254819D01*
X130176190Y-75254819D02*
X130080952Y-75302438D01*
X130080952Y-75302438D02*
X130033333Y-75350057D01*
X130033333Y-75350057D02*
X129985714Y-75445295D01*
X129985714Y-75445295D02*
X129938095Y-75635771D01*
X129938095Y-75635771D02*
X129938095Y-75873866D01*
X129938095Y-75873866D02*
X129985714Y-76064342D01*
X129985714Y-76064342D02*
X130033333Y-76159580D01*
X130033333Y-76159580D02*
X130080952Y-76207200D01*
X130080952Y-76207200D02*
X130176190Y-76254819D01*
X130176190Y-76254819D02*
X130271428Y-76254819D01*
X130271428Y-76254819D02*
X130366666Y-76207200D01*
X130366666Y-76207200D02*
X130414285Y-76159580D01*
X130414285Y-76159580D02*
X130461904Y-76064342D01*
X130461904Y-76064342D02*
X130509523Y-75873866D01*
X130509523Y-75873866D02*
X130509523Y-75635771D01*
X130509523Y-75635771D02*
X130461904Y-75445295D01*
X130461904Y-75445295D02*
X130414285Y-75350057D01*
X130414285Y-75350057D02*
X130366666Y-75302438D01*
X130366666Y-75302438D02*
X130271428Y-75254819D01*
X131942857Y-88054819D02*
X132276190Y-87578628D01*
X132514285Y-88054819D02*
X132514285Y-87054819D01*
X132514285Y-87054819D02*
X132133333Y-87054819D01*
X132133333Y-87054819D02*
X132038095Y-87102438D01*
X132038095Y-87102438D02*
X131990476Y-87150057D01*
X131990476Y-87150057D02*
X131942857Y-87245295D01*
X131942857Y-87245295D02*
X131942857Y-87388152D01*
X131942857Y-87388152D02*
X131990476Y-87483390D01*
X131990476Y-87483390D02*
X132038095Y-87531009D01*
X132038095Y-87531009D02*
X132133333Y-87578628D01*
X132133333Y-87578628D02*
X132514285Y-87578628D01*
X130990476Y-88054819D02*
X131561904Y-88054819D01*
X131276190Y-88054819D02*
X131276190Y-87054819D01*
X131276190Y-87054819D02*
X131371428Y-87197676D01*
X131371428Y-87197676D02*
X131466666Y-87292914D01*
X131466666Y-87292914D02*
X131561904Y-87340533D01*
X130657142Y-87054819D02*
X130038095Y-87054819D01*
X130038095Y-87054819D02*
X130371428Y-87435771D01*
X130371428Y-87435771D02*
X130228571Y-87435771D01*
X130228571Y-87435771D02*
X130133333Y-87483390D01*
X130133333Y-87483390D02*
X130085714Y-87531009D01*
X130085714Y-87531009D02*
X130038095Y-87626247D01*
X130038095Y-87626247D02*
X130038095Y-87864342D01*
X130038095Y-87864342D02*
X130085714Y-87959580D01*
X130085714Y-87959580D02*
X130133333Y-88007200D01*
X130133333Y-88007200D02*
X130228571Y-88054819D01*
X130228571Y-88054819D02*
X130514285Y-88054819D01*
X130514285Y-88054819D02*
X130609523Y-88007200D01*
X130609523Y-88007200D02*
X130657142Y-87959580D01*
X112342857Y-93154819D02*
X112676190Y-92678628D01*
X112914285Y-93154819D02*
X112914285Y-92154819D01*
X112914285Y-92154819D02*
X112533333Y-92154819D01*
X112533333Y-92154819D02*
X112438095Y-92202438D01*
X112438095Y-92202438D02*
X112390476Y-92250057D01*
X112390476Y-92250057D02*
X112342857Y-92345295D01*
X112342857Y-92345295D02*
X112342857Y-92488152D01*
X112342857Y-92488152D02*
X112390476Y-92583390D01*
X112390476Y-92583390D02*
X112438095Y-92631009D01*
X112438095Y-92631009D02*
X112533333Y-92678628D01*
X112533333Y-92678628D02*
X112914285Y-92678628D01*
X111390476Y-93154819D02*
X111961904Y-93154819D01*
X111676190Y-93154819D02*
X111676190Y-92154819D01*
X111676190Y-92154819D02*
X111771428Y-92297676D01*
X111771428Y-92297676D02*
X111866666Y-92392914D01*
X111866666Y-92392914D02*
X111961904Y-92440533D01*
X110485714Y-92154819D02*
X110961904Y-92154819D01*
X110961904Y-92154819D02*
X111009523Y-92631009D01*
X111009523Y-92631009D02*
X110961904Y-92583390D01*
X110961904Y-92583390D02*
X110866666Y-92535771D01*
X110866666Y-92535771D02*
X110628571Y-92535771D01*
X110628571Y-92535771D02*
X110533333Y-92583390D01*
X110533333Y-92583390D02*
X110485714Y-92631009D01*
X110485714Y-92631009D02*
X110438095Y-92726247D01*
X110438095Y-92726247D02*
X110438095Y-92964342D01*
X110438095Y-92964342D02*
X110485714Y-93059580D01*
X110485714Y-93059580D02*
X110533333Y-93107200D01*
X110533333Y-93107200D02*
X110628571Y-93154819D01*
X110628571Y-93154819D02*
X110866666Y-93154819D01*
X110866666Y-93154819D02*
X110961904Y-93107200D01*
X110961904Y-93107200D02*
X111009523Y-93059580D01*
X148761904Y-75354819D02*
X148761904Y-76164342D01*
X148761904Y-76164342D02*
X148714285Y-76259580D01*
X148714285Y-76259580D02*
X148666666Y-76307200D01*
X148666666Y-76307200D02*
X148571428Y-76354819D01*
X148571428Y-76354819D02*
X148380952Y-76354819D01*
X148380952Y-76354819D02*
X148285714Y-76307200D01*
X148285714Y-76307200D02*
X148238095Y-76259580D01*
X148238095Y-76259580D02*
X148190476Y-76164342D01*
X148190476Y-76164342D02*
X148190476Y-75354819D01*
X147809523Y-75354819D02*
X147190476Y-75354819D01*
X147190476Y-75354819D02*
X147523809Y-75735771D01*
X147523809Y-75735771D02*
X147380952Y-75735771D01*
X147380952Y-75735771D02*
X147285714Y-75783390D01*
X147285714Y-75783390D02*
X147238095Y-75831009D01*
X147238095Y-75831009D02*
X147190476Y-75926247D01*
X147190476Y-75926247D02*
X147190476Y-76164342D01*
X147190476Y-76164342D02*
X147238095Y-76259580D01*
X147238095Y-76259580D02*
X147285714Y-76307200D01*
X147285714Y-76307200D02*
X147380952Y-76354819D01*
X147380952Y-76354819D02*
X147666666Y-76354819D01*
X147666666Y-76354819D02*
X147761904Y-76307200D01*
X147761904Y-76307200D02*
X147809523Y-76259580D01*
X122261904Y-72874819D02*
X122261904Y-73684342D01*
X122261904Y-73684342D02*
X122214285Y-73779580D01*
X122214285Y-73779580D02*
X122166666Y-73827200D01*
X122166666Y-73827200D02*
X122071428Y-73874819D01*
X122071428Y-73874819D02*
X121880952Y-73874819D01*
X121880952Y-73874819D02*
X121785714Y-73827200D01*
X121785714Y-73827200D02*
X121738095Y-73779580D01*
X121738095Y-73779580D02*
X121690476Y-73684342D01*
X121690476Y-73684342D02*
X121690476Y-72874819D01*
X120738095Y-72874819D02*
X121214285Y-72874819D01*
X121214285Y-72874819D02*
X121261904Y-73351009D01*
X121261904Y-73351009D02*
X121214285Y-73303390D01*
X121214285Y-73303390D02*
X121119047Y-73255771D01*
X121119047Y-73255771D02*
X120880952Y-73255771D01*
X120880952Y-73255771D02*
X120785714Y-73303390D01*
X120785714Y-73303390D02*
X120738095Y-73351009D01*
X120738095Y-73351009D02*
X120690476Y-73446247D01*
X120690476Y-73446247D02*
X120690476Y-73684342D01*
X120690476Y-73684342D02*
X120738095Y-73779580D01*
X120738095Y-73779580D02*
X120785714Y-73827200D01*
X120785714Y-73827200D02*
X120880952Y-73874819D01*
X120880952Y-73874819D02*
X121119047Y-73874819D01*
X121119047Y-73874819D02*
X121214285Y-73827200D01*
X121214285Y-73827200D02*
X121261904Y-73779580D01*
X122261904Y-85254819D02*
X122261904Y-86064342D01*
X122261904Y-86064342D02*
X122214285Y-86159580D01*
X122214285Y-86159580D02*
X122166666Y-86207200D01*
X122166666Y-86207200D02*
X122071428Y-86254819D01*
X122071428Y-86254819D02*
X121880952Y-86254819D01*
X121880952Y-86254819D02*
X121785714Y-86207200D01*
X121785714Y-86207200D02*
X121738095Y-86159580D01*
X121738095Y-86159580D02*
X121690476Y-86064342D01*
X121690476Y-86064342D02*
X121690476Y-85254819D01*
X120785714Y-85588152D02*
X120785714Y-86254819D01*
X121023809Y-85207200D02*
X121261904Y-85921485D01*
X121261904Y-85921485D02*
X120642857Y-85921485D01*
X151861904Y-61354819D02*
X151861904Y-62164342D01*
X151861904Y-62164342D02*
X151814285Y-62259580D01*
X151814285Y-62259580D02*
X151766666Y-62307200D01*
X151766666Y-62307200D02*
X151671428Y-62354819D01*
X151671428Y-62354819D02*
X151480952Y-62354819D01*
X151480952Y-62354819D02*
X151385714Y-62307200D01*
X151385714Y-62307200D02*
X151338095Y-62259580D01*
X151338095Y-62259580D02*
X151290476Y-62164342D01*
X151290476Y-62164342D02*
X151290476Y-61354819D01*
X150290476Y-62354819D02*
X150861904Y-62354819D01*
X150576190Y-62354819D02*
X150576190Y-61354819D01*
X150576190Y-61354819D02*
X150671428Y-61497676D01*
X150671428Y-61497676D02*
X150766666Y-61592914D01*
X150766666Y-61592914D02*
X150861904Y-61640533D01*
X151328628Y-85723809D02*
X151804819Y-85723809D01*
X150804819Y-85390476D02*
X151328628Y-85723809D01*
X151328628Y-85723809D02*
X150804819Y-86057142D01*
X151804819Y-86914285D02*
X151804819Y-86342857D01*
X151804819Y-86628571D02*
X150804819Y-86628571D01*
X150804819Y-86628571D02*
X150947676Y-86533333D01*
X150947676Y-86533333D02*
X151042914Y-86438095D01*
X151042914Y-86438095D02*
X151090533Y-86342857D01*
X163242856Y-65722438D02*
X163338094Y-65674819D01*
X163338094Y-65674819D02*
X163480951Y-65674819D01*
X163480951Y-65674819D02*
X163623808Y-65722438D01*
X163623808Y-65722438D02*
X163719046Y-65817676D01*
X163719046Y-65817676D02*
X163766665Y-65912914D01*
X163766665Y-65912914D02*
X163814284Y-66103390D01*
X163814284Y-66103390D02*
X163814284Y-66246247D01*
X163814284Y-66246247D02*
X163766665Y-66436723D01*
X163766665Y-66436723D02*
X163719046Y-66531961D01*
X163719046Y-66531961D02*
X163623808Y-66627200D01*
X163623808Y-66627200D02*
X163480951Y-66674819D01*
X163480951Y-66674819D02*
X163385713Y-66674819D01*
X163385713Y-66674819D02*
X163242856Y-66627200D01*
X163242856Y-66627200D02*
X163195237Y-66579580D01*
X163195237Y-66579580D02*
X163195237Y-66246247D01*
X163195237Y-66246247D02*
X163385713Y-66246247D01*
X162766665Y-66674819D02*
X162766665Y-65674819D01*
X162766665Y-65674819D02*
X162195237Y-66674819D01*
X162195237Y-66674819D02*
X162195237Y-65674819D01*
X161719046Y-66674819D02*
X161719046Y-65674819D01*
X161719046Y-65674819D02*
X161480951Y-65674819D01*
X161480951Y-65674819D02*
X161338094Y-65722438D01*
X161338094Y-65722438D02*
X161242856Y-65817676D01*
X161242856Y-65817676D02*
X161195237Y-65912914D01*
X161195237Y-65912914D02*
X161147618Y-66103390D01*
X161147618Y-66103390D02*
X161147618Y-66246247D01*
X161147618Y-66246247D02*
X161195237Y-66436723D01*
X161195237Y-66436723D02*
X161242856Y-66531961D01*
X161242856Y-66531961D02*
X161338094Y-66627200D01*
X161338094Y-66627200D02*
X161480951Y-66674819D01*
X161480951Y-66674819D02*
X161719046Y-66674819D01*
X163195238Y-71659580D02*
X163242857Y-71707200D01*
X163242857Y-71707200D02*
X163385714Y-71754819D01*
X163385714Y-71754819D02*
X163480952Y-71754819D01*
X163480952Y-71754819D02*
X163623809Y-71707200D01*
X163623809Y-71707200D02*
X163719047Y-71611961D01*
X163719047Y-71611961D02*
X163766666Y-71516723D01*
X163766666Y-71516723D02*
X163814285Y-71326247D01*
X163814285Y-71326247D02*
X163814285Y-71183390D01*
X163814285Y-71183390D02*
X163766666Y-70992914D01*
X163766666Y-70992914D02*
X163719047Y-70897676D01*
X163719047Y-70897676D02*
X163623809Y-70802438D01*
X163623809Y-70802438D02*
X163480952Y-70754819D01*
X163480952Y-70754819D02*
X163385714Y-70754819D01*
X163385714Y-70754819D02*
X163242857Y-70802438D01*
X163242857Y-70802438D02*
X163195238Y-70850057D01*
X162290476Y-71754819D02*
X162766666Y-71754819D01*
X162766666Y-71754819D02*
X162766666Y-70754819D01*
X161957142Y-71754819D02*
X161957142Y-70754819D01*
X161385714Y-71754819D02*
X161814285Y-71183390D01*
X161385714Y-70754819D02*
X161957142Y-71326247D01*
X163861903Y-63134819D02*
X163242856Y-63134819D01*
X163242856Y-63134819D02*
X163576189Y-63515771D01*
X163576189Y-63515771D02*
X163433332Y-63515771D01*
X163433332Y-63515771D02*
X163338094Y-63563390D01*
X163338094Y-63563390D02*
X163290475Y-63611009D01*
X163290475Y-63611009D02*
X163242856Y-63706247D01*
X163242856Y-63706247D02*
X163242856Y-63944342D01*
X163242856Y-63944342D02*
X163290475Y-64039580D01*
X163290475Y-64039580D02*
X163338094Y-64087200D01*
X163338094Y-64087200D02*
X163433332Y-64134819D01*
X163433332Y-64134819D02*
X163719046Y-64134819D01*
X163719046Y-64134819D02*
X163814284Y-64087200D01*
X163814284Y-64087200D02*
X163861903Y-64039580D01*
X162814284Y-64039580D02*
X162766665Y-64087200D01*
X162766665Y-64087200D02*
X162814284Y-64134819D01*
X162814284Y-64134819D02*
X162861903Y-64087200D01*
X162861903Y-64087200D02*
X162814284Y-64039580D01*
X162814284Y-64039580D02*
X162814284Y-64134819D01*
X162433332Y-63134819D02*
X161814285Y-63134819D01*
X161814285Y-63134819D02*
X162147618Y-63515771D01*
X162147618Y-63515771D02*
X162004761Y-63515771D01*
X162004761Y-63515771D02*
X161909523Y-63563390D01*
X161909523Y-63563390D02*
X161861904Y-63611009D01*
X161861904Y-63611009D02*
X161814285Y-63706247D01*
X161814285Y-63706247D02*
X161814285Y-63944342D01*
X161814285Y-63944342D02*
X161861904Y-64039580D01*
X161861904Y-64039580D02*
X161909523Y-64087200D01*
X161909523Y-64087200D02*
X162004761Y-64134819D01*
X162004761Y-64134819D02*
X162290475Y-64134819D01*
X162290475Y-64134819D02*
X162385713Y-64087200D01*
X162385713Y-64087200D02*
X162433332Y-64039580D01*
X161528570Y-63134819D02*
X161195237Y-64134819D01*
X161195237Y-64134819D02*
X160861904Y-63134819D01*
X163766665Y-69214819D02*
X163766665Y-68214819D01*
X163099999Y-68214819D02*
X162909523Y-68214819D01*
X162909523Y-68214819D02*
X162814285Y-68262438D01*
X162814285Y-68262438D02*
X162719047Y-68357676D01*
X162719047Y-68357676D02*
X162671428Y-68548152D01*
X162671428Y-68548152D02*
X162671428Y-68881485D01*
X162671428Y-68881485D02*
X162719047Y-69071961D01*
X162719047Y-69071961D02*
X162814285Y-69167200D01*
X162814285Y-69167200D02*
X162909523Y-69214819D01*
X162909523Y-69214819D02*
X163099999Y-69214819D01*
X163099999Y-69214819D02*
X163195237Y-69167200D01*
X163195237Y-69167200D02*
X163290475Y-69071961D01*
X163290475Y-69071961D02*
X163338094Y-68881485D01*
X163338094Y-68881485D02*
X163338094Y-68548152D01*
X163338094Y-68548152D02*
X163290475Y-68357676D01*
X163290475Y-68357676D02*
X163195237Y-68262438D01*
X163195237Y-68262438D02*
X163099999Y-68214819D01*
X139054819Y-88133333D02*
X139054819Y-87657143D01*
X139054819Y-87657143D02*
X138054819Y-87657143D01*
X139054819Y-88990476D02*
X139054819Y-88419048D01*
X139054819Y-88704762D02*
X138054819Y-88704762D01*
X138054819Y-88704762D02*
X138197676Y-88609524D01*
X138197676Y-88609524D02*
X138292914Y-88514286D01*
X138292914Y-88514286D02*
X138340533Y-88419048D01*
X130966666Y-82254819D02*
X131299999Y-81778628D01*
X131538094Y-82254819D02*
X131538094Y-81254819D01*
X131538094Y-81254819D02*
X131157142Y-81254819D01*
X131157142Y-81254819D02*
X131061904Y-81302438D01*
X131061904Y-81302438D02*
X131014285Y-81350057D01*
X131014285Y-81350057D02*
X130966666Y-81445295D01*
X130966666Y-81445295D02*
X130966666Y-81588152D01*
X130966666Y-81588152D02*
X131014285Y-81683390D01*
X131014285Y-81683390D02*
X131061904Y-81731009D01*
X131061904Y-81731009D02*
X131157142Y-81778628D01*
X131157142Y-81778628D02*
X131538094Y-81778628D01*
X130395237Y-81683390D02*
X130490475Y-81635771D01*
X130490475Y-81635771D02*
X130538094Y-81588152D01*
X130538094Y-81588152D02*
X130585713Y-81492914D01*
X130585713Y-81492914D02*
X130585713Y-81445295D01*
X130585713Y-81445295D02*
X130538094Y-81350057D01*
X130538094Y-81350057D02*
X130490475Y-81302438D01*
X130490475Y-81302438D02*
X130395237Y-81254819D01*
X130395237Y-81254819D02*
X130204761Y-81254819D01*
X130204761Y-81254819D02*
X130109523Y-81302438D01*
X130109523Y-81302438D02*
X130061904Y-81350057D01*
X130061904Y-81350057D02*
X130014285Y-81445295D01*
X130014285Y-81445295D02*
X130014285Y-81492914D01*
X130014285Y-81492914D02*
X130061904Y-81588152D01*
X130061904Y-81588152D02*
X130109523Y-81635771D01*
X130109523Y-81635771D02*
X130204761Y-81683390D01*
X130204761Y-81683390D02*
X130395237Y-81683390D01*
X130395237Y-81683390D02*
X130490475Y-81731009D01*
X130490475Y-81731009D02*
X130538094Y-81778628D01*
X130538094Y-81778628D02*
X130585713Y-81873866D01*
X130585713Y-81873866D02*
X130585713Y-82064342D01*
X130585713Y-82064342D02*
X130538094Y-82159580D01*
X130538094Y-82159580D02*
X130490475Y-82207200D01*
X130490475Y-82207200D02*
X130395237Y-82254819D01*
X130395237Y-82254819D02*
X130204761Y-82254819D01*
X130204761Y-82254819D02*
X130109523Y-82207200D01*
X130109523Y-82207200D02*
X130061904Y-82159580D01*
X130061904Y-82159580D02*
X130014285Y-82064342D01*
X130014285Y-82064342D02*
X130014285Y-81873866D01*
X130014285Y-81873866D02*
X130061904Y-81778628D01*
X130061904Y-81778628D02*
X130109523Y-81731009D01*
X130109523Y-81731009D02*
X130204761Y-81683390D01*
X113038094Y-54154819D02*
X113038094Y-53154819D01*
X113038094Y-53154819D02*
X112799999Y-53154819D01*
X112799999Y-53154819D02*
X112657142Y-53202438D01*
X112657142Y-53202438D02*
X112561904Y-53297676D01*
X112561904Y-53297676D02*
X112514285Y-53392914D01*
X112514285Y-53392914D02*
X112466666Y-53583390D01*
X112466666Y-53583390D02*
X112466666Y-53726247D01*
X112466666Y-53726247D02*
X112514285Y-53916723D01*
X112514285Y-53916723D02*
X112561904Y-54011961D01*
X112561904Y-54011961D02*
X112657142Y-54107200D01*
X112657142Y-54107200D02*
X112799999Y-54154819D01*
X112799999Y-54154819D02*
X113038094Y-54154819D01*
X112085713Y-53250057D02*
X112038094Y-53202438D01*
X112038094Y-53202438D02*
X111942856Y-53154819D01*
X111942856Y-53154819D02*
X111704761Y-53154819D01*
X111704761Y-53154819D02*
X111609523Y-53202438D01*
X111609523Y-53202438D02*
X111561904Y-53250057D01*
X111561904Y-53250057D02*
X111514285Y-53345295D01*
X111514285Y-53345295D02*
X111514285Y-53440533D01*
X111514285Y-53440533D02*
X111561904Y-53583390D01*
X111561904Y-53583390D02*
X112133332Y-54154819D01*
X112133332Y-54154819D02*
X111514285Y-54154819D01*
X112242857Y-88054819D02*
X112576190Y-87578628D01*
X112814285Y-88054819D02*
X112814285Y-87054819D01*
X112814285Y-87054819D02*
X112433333Y-87054819D01*
X112433333Y-87054819D02*
X112338095Y-87102438D01*
X112338095Y-87102438D02*
X112290476Y-87150057D01*
X112290476Y-87150057D02*
X112242857Y-87245295D01*
X112242857Y-87245295D02*
X112242857Y-87388152D01*
X112242857Y-87388152D02*
X112290476Y-87483390D01*
X112290476Y-87483390D02*
X112338095Y-87531009D01*
X112338095Y-87531009D02*
X112433333Y-87578628D01*
X112433333Y-87578628D02*
X112814285Y-87578628D01*
X111290476Y-88054819D02*
X111861904Y-88054819D01*
X111576190Y-88054819D02*
X111576190Y-87054819D01*
X111576190Y-87054819D02*
X111671428Y-87197676D01*
X111671428Y-87197676D02*
X111766666Y-87292914D01*
X111766666Y-87292914D02*
X111861904Y-87340533D01*
X110433333Y-87388152D02*
X110433333Y-88054819D01*
X110671428Y-87007200D02*
X110909523Y-87721485D01*
X110909523Y-87721485D02*
X110290476Y-87721485D01*
X160166666Y-79959580D02*
X160214285Y-80007200D01*
X160214285Y-80007200D02*
X160357142Y-80054819D01*
X160357142Y-80054819D02*
X160452380Y-80054819D01*
X160452380Y-80054819D02*
X160595237Y-80007200D01*
X160595237Y-80007200D02*
X160690475Y-79911961D01*
X160690475Y-79911961D02*
X160738094Y-79816723D01*
X160738094Y-79816723D02*
X160785713Y-79626247D01*
X160785713Y-79626247D02*
X160785713Y-79483390D01*
X160785713Y-79483390D02*
X160738094Y-79292914D01*
X160738094Y-79292914D02*
X160690475Y-79197676D01*
X160690475Y-79197676D02*
X160595237Y-79102438D01*
X160595237Y-79102438D02*
X160452380Y-79054819D01*
X160452380Y-79054819D02*
X160357142Y-79054819D01*
X160357142Y-79054819D02*
X160214285Y-79102438D01*
X160214285Y-79102438D02*
X160166666Y-79150057D01*
X159309523Y-79054819D02*
X159499999Y-79054819D01*
X159499999Y-79054819D02*
X159595237Y-79102438D01*
X159595237Y-79102438D02*
X159642856Y-79150057D01*
X159642856Y-79150057D02*
X159738094Y-79292914D01*
X159738094Y-79292914D02*
X159785713Y-79483390D01*
X159785713Y-79483390D02*
X159785713Y-79864342D01*
X159785713Y-79864342D02*
X159738094Y-79959580D01*
X159738094Y-79959580D02*
X159690475Y-80007200D01*
X159690475Y-80007200D02*
X159595237Y-80054819D01*
X159595237Y-80054819D02*
X159404761Y-80054819D01*
X159404761Y-80054819D02*
X159309523Y-80007200D01*
X159309523Y-80007200D02*
X159261904Y-79959580D01*
X159261904Y-79959580D02*
X159214285Y-79864342D01*
X159214285Y-79864342D02*
X159214285Y-79626247D01*
X159214285Y-79626247D02*
X159261904Y-79531009D01*
X159261904Y-79531009D02*
X159309523Y-79483390D01*
X159309523Y-79483390D02*
X159404761Y-79435771D01*
X159404761Y-79435771D02*
X159595237Y-79435771D01*
X159595237Y-79435771D02*
X159690475Y-79483390D01*
X159690475Y-79483390D02*
X159738094Y-79531009D01*
X159738094Y-79531009D02*
X159785713Y-79626247D01*
X149716666Y-91189580D02*
X149764285Y-91237200D01*
X149764285Y-91237200D02*
X149907142Y-91284819D01*
X149907142Y-91284819D02*
X150002380Y-91284819D01*
X150002380Y-91284819D02*
X150145237Y-91237200D01*
X150145237Y-91237200D02*
X150240475Y-91141961D01*
X150240475Y-91141961D02*
X150288094Y-91046723D01*
X150288094Y-91046723D02*
X150335713Y-90856247D01*
X150335713Y-90856247D02*
X150335713Y-90713390D01*
X150335713Y-90713390D02*
X150288094Y-90522914D01*
X150288094Y-90522914D02*
X150240475Y-90427676D01*
X150240475Y-90427676D02*
X150145237Y-90332438D01*
X150145237Y-90332438D02*
X150002380Y-90284819D01*
X150002380Y-90284819D02*
X149907142Y-90284819D01*
X149907142Y-90284819D02*
X149764285Y-90332438D01*
X149764285Y-90332438D02*
X149716666Y-90380057D01*
X148811904Y-90284819D02*
X149288094Y-90284819D01*
X149288094Y-90284819D02*
X149335713Y-90761009D01*
X149335713Y-90761009D02*
X149288094Y-90713390D01*
X149288094Y-90713390D02*
X149192856Y-90665771D01*
X149192856Y-90665771D02*
X148954761Y-90665771D01*
X148954761Y-90665771D02*
X148859523Y-90713390D01*
X148859523Y-90713390D02*
X148811904Y-90761009D01*
X148811904Y-90761009D02*
X148764285Y-90856247D01*
X148764285Y-90856247D02*
X148764285Y-91094342D01*
X148764285Y-91094342D02*
X148811904Y-91189580D01*
X148811904Y-91189580D02*
X148859523Y-91237200D01*
X148859523Y-91237200D02*
X148954761Y-91284819D01*
X148954761Y-91284819D02*
X149192856Y-91284819D01*
X149192856Y-91284819D02*
X149288094Y-91237200D01*
X149288094Y-91237200D02*
X149335713Y-91189580D01*
X122561904Y-63773866D02*
X121800000Y-63773866D01*
X120800000Y-64154819D02*
X121371428Y-64154819D01*
X121085714Y-64154819D02*
X121085714Y-63154819D01*
X121085714Y-63154819D02*
X121180952Y-63297676D01*
X121180952Y-63297676D02*
X121276190Y-63392914D01*
X121276190Y-63392914D02*
X121371428Y-63440533D01*
X120419047Y-63250057D02*
X120371428Y-63202438D01*
X120371428Y-63202438D02*
X120276190Y-63154819D01*
X120276190Y-63154819D02*
X120038095Y-63154819D01*
X120038095Y-63154819D02*
X119942857Y-63202438D01*
X119942857Y-63202438D02*
X119895238Y-63250057D01*
X119895238Y-63250057D02*
X119847619Y-63345295D01*
X119847619Y-63345295D02*
X119847619Y-63440533D01*
X119847619Y-63440533D02*
X119895238Y-63583390D01*
X119895238Y-63583390D02*
X120466666Y-64154819D01*
X120466666Y-64154819D02*
X119847619Y-64154819D01*
X119561904Y-63154819D02*
X119228571Y-64154819D01*
X119228571Y-64154819D02*
X118895238Y-63154819D01*
X135666666Y-81359580D02*
X135714285Y-81407200D01*
X135714285Y-81407200D02*
X135857142Y-81454819D01*
X135857142Y-81454819D02*
X135952380Y-81454819D01*
X135952380Y-81454819D02*
X136095237Y-81407200D01*
X136095237Y-81407200D02*
X136190475Y-81311961D01*
X136190475Y-81311961D02*
X136238094Y-81216723D01*
X136238094Y-81216723D02*
X136285713Y-81026247D01*
X136285713Y-81026247D02*
X136285713Y-80883390D01*
X136285713Y-80883390D02*
X136238094Y-80692914D01*
X136238094Y-80692914D02*
X136190475Y-80597676D01*
X136190475Y-80597676D02*
X136095237Y-80502438D01*
X136095237Y-80502438D02*
X135952380Y-80454819D01*
X135952380Y-80454819D02*
X135857142Y-80454819D01*
X135857142Y-80454819D02*
X135714285Y-80502438D01*
X135714285Y-80502438D02*
X135666666Y-80550057D01*
X134714285Y-81454819D02*
X135285713Y-81454819D01*
X134999999Y-81454819D02*
X134999999Y-80454819D01*
X134999999Y-80454819D02*
X135095237Y-80597676D01*
X135095237Y-80597676D02*
X135190475Y-80692914D01*
X135190475Y-80692914D02*
X135285713Y-80740533D01*
X109166666Y-54854819D02*
X109499999Y-54378628D01*
X109738094Y-54854819D02*
X109738094Y-53854819D01*
X109738094Y-53854819D02*
X109357142Y-53854819D01*
X109357142Y-53854819D02*
X109261904Y-53902438D01*
X109261904Y-53902438D02*
X109214285Y-53950057D01*
X109214285Y-53950057D02*
X109166666Y-54045295D01*
X109166666Y-54045295D02*
X109166666Y-54188152D01*
X109166666Y-54188152D02*
X109214285Y-54283390D01*
X109214285Y-54283390D02*
X109261904Y-54331009D01*
X109261904Y-54331009D02*
X109357142Y-54378628D01*
X109357142Y-54378628D02*
X109738094Y-54378628D01*
X108214285Y-54854819D02*
X108785713Y-54854819D01*
X108499999Y-54854819D02*
X108499999Y-53854819D01*
X108499999Y-53854819D02*
X108595237Y-53997676D01*
X108595237Y-53997676D02*
X108690475Y-54092914D01*
X108690475Y-54092914D02*
X108785713Y-54140533D01*
X112442857Y-84354819D02*
X112776190Y-83878628D01*
X113014285Y-84354819D02*
X113014285Y-83354819D01*
X113014285Y-83354819D02*
X112633333Y-83354819D01*
X112633333Y-83354819D02*
X112538095Y-83402438D01*
X112538095Y-83402438D02*
X112490476Y-83450057D01*
X112490476Y-83450057D02*
X112442857Y-83545295D01*
X112442857Y-83545295D02*
X112442857Y-83688152D01*
X112442857Y-83688152D02*
X112490476Y-83783390D01*
X112490476Y-83783390D02*
X112538095Y-83831009D01*
X112538095Y-83831009D02*
X112633333Y-83878628D01*
X112633333Y-83878628D02*
X113014285Y-83878628D01*
X111490476Y-84354819D02*
X112061904Y-84354819D01*
X111776190Y-84354819D02*
X111776190Y-83354819D01*
X111776190Y-83354819D02*
X111871428Y-83497676D01*
X111871428Y-83497676D02*
X111966666Y-83592914D01*
X111966666Y-83592914D02*
X112061904Y-83640533D01*
X111109523Y-83450057D02*
X111061904Y-83402438D01*
X111061904Y-83402438D02*
X110966666Y-83354819D01*
X110966666Y-83354819D02*
X110728571Y-83354819D01*
X110728571Y-83354819D02*
X110633333Y-83402438D01*
X110633333Y-83402438D02*
X110585714Y-83450057D01*
X110585714Y-83450057D02*
X110538095Y-83545295D01*
X110538095Y-83545295D02*
X110538095Y-83640533D01*
X110538095Y-83640533D02*
X110585714Y-83783390D01*
X110585714Y-83783390D02*
X111157142Y-84354819D01*
X111157142Y-84354819D02*
X110538095Y-84354819D01*
X149954819Y-108157142D02*
X149478628Y-107823809D01*
X149954819Y-107585714D02*
X148954819Y-107585714D01*
X148954819Y-107585714D02*
X148954819Y-107966666D01*
X148954819Y-107966666D02*
X149002438Y-108061904D01*
X149002438Y-108061904D02*
X149050057Y-108109523D01*
X149050057Y-108109523D02*
X149145295Y-108157142D01*
X149145295Y-108157142D02*
X149288152Y-108157142D01*
X149288152Y-108157142D02*
X149383390Y-108109523D01*
X149383390Y-108109523D02*
X149431009Y-108061904D01*
X149431009Y-108061904D02*
X149478628Y-107966666D01*
X149478628Y-107966666D02*
X149478628Y-107585714D01*
X149050057Y-108538095D02*
X149002438Y-108585714D01*
X149002438Y-108585714D02*
X148954819Y-108680952D01*
X148954819Y-108680952D02*
X148954819Y-108919047D01*
X148954819Y-108919047D02*
X149002438Y-109014285D01*
X149002438Y-109014285D02*
X149050057Y-109061904D01*
X149050057Y-109061904D02*
X149145295Y-109109523D01*
X149145295Y-109109523D02*
X149240533Y-109109523D01*
X149240533Y-109109523D02*
X149383390Y-109061904D01*
X149383390Y-109061904D02*
X149954819Y-108490476D01*
X149954819Y-108490476D02*
X149954819Y-109109523D01*
X148954819Y-109728571D02*
X148954819Y-109823809D01*
X148954819Y-109823809D02*
X149002438Y-109919047D01*
X149002438Y-109919047D02*
X149050057Y-109966666D01*
X149050057Y-109966666D02*
X149145295Y-110014285D01*
X149145295Y-110014285D02*
X149335771Y-110061904D01*
X149335771Y-110061904D02*
X149573866Y-110061904D01*
X149573866Y-110061904D02*
X149764342Y-110014285D01*
X149764342Y-110014285D02*
X149859580Y-109966666D01*
X149859580Y-109966666D02*
X149907200Y-109919047D01*
X149907200Y-109919047D02*
X149954819Y-109823809D01*
X149954819Y-109823809D02*
X149954819Y-109728571D01*
X149954819Y-109728571D02*
X149907200Y-109633333D01*
X149907200Y-109633333D02*
X149859580Y-109585714D01*
X149859580Y-109585714D02*
X149764342Y-109538095D01*
X149764342Y-109538095D02*
X149573866Y-109490476D01*
X149573866Y-109490476D02*
X149335771Y-109490476D01*
X149335771Y-109490476D02*
X149145295Y-109538095D01*
X149145295Y-109538095D02*
X149050057Y-109585714D01*
X149050057Y-109585714D02*
X149002438Y-109633333D01*
X149002438Y-109633333D02*
X148954819Y-109728571D01*
X147259580Y-88233333D02*
X147307200Y-88185714D01*
X147307200Y-88185714D02*
X147354819Y-88042857D01*
X147354819Y-88042857D02*
X147354819Y-87947619D01*
X147354819Y-87947619D02*
X147307200Y-87804762D01*
X147307200Y-87804762D02*
X147211961Y-87709524D01*
X147211961Y-87709524D02*
X147116723Y-87661905D01*
X147116723Y-87661905D02*
X146926247Y-87614286D01*
X146926247Y-87614286D02*
X146783390Y-87614286D01*
X146783390Y-87614286D02*
X146592914Y-87661905D01*
X146592914Y-87661905D02*
X146497676Y-87709524D01*
X146497676Y-87709524D02*
X146402438Y-87804762D01*
X146402438Y-87804762D02*
X146354819Y-87947619D01*
X146354819Y-87947619D02*
X146354819Y-88042857D01*
X146354819Y-88042857D02*
X146402438Y-88185714D01*
X146402438Y-88185714D02*
X146450057Y-88233333D01*
X146354819Y-88566667D02*
X146354819Y-89233333D01*
X146354819Y-89233333D02*
X147354819Y-88804762D01*
X143059580Y-88257142D02*
X143107200Y-88209523D01*
X143107200Y-88209523D02*
X143154819Y-88066666D01*
X143154819Y-88066666D02*
X143154819Y-87971428D01*
X143154819Y-87971428D02*
X143107200Y-87828571D01*
X143107200Y-87828571D02*
X143011961Y-87733333D01*
X143011961Y-87733333D02*
X142916723Y-87685714D01*
X142916723Y-87685714D02*
X142726247Y-87638095D01*
X142726247Y-87638095D02*
X142583390Y-87638095D01*
X142583390Y-87638095D02*
X142392914Y-87685714D01*
X142392914Y-87685714D02*
X142297676Y-87733333D01*
X142297676Y-87733333D02*
X142202438Y-87828571D01*
X142202438Y-87828571D02*
X142154819Y-87971428D01*
X142154819Y-87971428D02*
X142154819Y-88066666D01*
X142154819Y-88066666D02*
X142202438Y-88209523D01*
X142202438Y-88209523D02*
X142250057Y-88257142D01*
X143154819Y-89209523D02*
X143154819Y-88638095D01*
X143154819Y-88923809D02*
X142154819Y-88923809D01*
X142154819Y-88923809D02*
X142297676Y-88828571D01*
X142297676Y-88828571D02*
X142392914Y-88733333D01*
X142392914Y-88733333D02*
X142440533Y-88638095D01*
X142488152Y-90066666D02*
X143154819Y-90066666D01*
X142107200Y-89828571D02*
X142821485Y-89590476D01*
X142821485Y-89590476D02*
X142821485Y-90209523D01*
X102442857Y-89354819D02*
X102776190Y-88878628D01*
X103014285Y-89354819D02*
X103014285Y-88354819D01*
X103014285Y-88354819D02*
X102633333Y-88354819D01*
X102633333Y-88354819D02*
X102538095Y-88402438D01*
X102538095Y-88402438D02*
X102490476Y-88450057D01*
X102490476Y-88450057D02*
X102442857Y-88545295D01*
X102442857Y-88545295D02*
X102442857Y-88688152D01*
X102442857Y-88688152D02*
X102490476Y-88783390D01*
X102490476Y-88783390D02*
X102538095Y-88831009D01*
X102538095Y-88831009D02*
X102633333Y-88878628D01*
X102633333Y-88878628D02*
X103014285Y-88878628D01*
X101490476Y-89354819D02*
X102061904Y-89354819D01*
X101776190Y-89354819D02*
X101776190Y-88354819D01*
X101776190Y-88354819D02*
X101871428Y-88497676D01*
X101871428Y-88497676D02*
X101966666Y-88592914D01*
X101966666Y-88592914D02*
X102061904Y-88640533D01*
X100919047Y-88783390D02*
X101014285Y-88735771D01*
X101014285Y-88735771D02*
X101061904Y-88688152D01*
X101061904Y-88688152D02*
X101109523Y-88592914D01*
X101109523Y-88592914D02*
X101109523Y-88545295D01*
X101109523Y-88545295D02*
X101061904Y-88450057D01*
X101061904Y-88450057D02*
X101014285Y-88402438D01*
X101014285Y-88402438D02*
X100919047Y-88354819D01*
X100919047Y-88354819D02*
X100728571Y-88354819D01*
X100728571Y-88354819D02*
X100633333Y-88402438D01*
X100633333Y-88402438D02*
X100585714Y-88450057D01*
X100585714Y-88450057D02*
X100538095Y-88545295D01*
X100538095Y-88545295D02*
X100538095Y-88592914D01*
X100538095Y-88592914D02*
X100585714Y-88688152D01*
X100585714Y-88688152D02*
X100633333Y-88735771D01*
X100633333Y-88735771D02*
X100728571Y-88783390D01*
X100728571Y-88783390D02*
X100919047Y-88783390D01*
X100919047Y-88783390D02*
X101014285Y-88831009D01*
X101014285Y-88831009D02*
X101061904Y-88878628D01*
X101061904Y-88878628D02*
X101109523Y-88973866D01*
X101109523Y-88973866D02*
X101109523Y-89164342D01*
X101109523Y-89164342D02*
X101061904Y-89259580D01*
X101061904Y-89259580D02*
X101014285Y-89307200D01*
X101014285Y-89307200D02*
X100919047Y-89354819D01*
X100919047Y-89354819D02*
X100728571Y-89354819D01*
X100728571Y-89354819D02*
X100633333Y-89307200D01*
X100633333Y-89307200D02*
X100585714Y-89259580D01*
X100585714Y-89259580D02*
X100538095Y-89164342D01*
X100538095Y-89164342D02*
X100538095Y-88973866D01*
X100538095Y-88973866D02*
X100585714Y-88878628D01*
X100585714Y-88878628D02*
X100633333Y-88831009D01*
X100633333Y-88831009D02*
X100728571Y-88783390D01*
X145159580Y-88257142D02*
X145207200Y-88209523D01*
X145207200Y-88209523D02*
X145254819Y-88066666D01*
X145254819Y-88066666D02*
X145254819Y-87971428D01*
X145254819Y-87971428D02*
X145207200Y-87828571D01*
X145207200Y-87828571D02*
X145111961Y-87733333D01*
X145111961Y-87733333D02*
X145016723Y-87685714D01*
X145016723Y-87685714D02*
X144826247Y-87638095D01*
X144826247Y-87638095D02*
X144683390Y-87638095D01*
X144683390Y-87638095D02*
X144492914Y-87685714D01*
X144492914Y-87685714D02*
X144397676Y-87733333D01*
X144397676Y-87733333D02*
X144302438Y-87828571D01*
X144302438Y-87828571D02*
X144254819Y-87971428D01*
X144254819Y-87971428D02*
X144254819Y-88066666D01*
X144254819Y-88066666D02*
X144302438Y-88209523D01*
X144302438Y-88209523D02*
X144350057Y-88257142D01*
X145254819Y-89209523D02*
X145254819Y-88638095D01*
X145254819Y-88923809D02*
X144254819Y-88923809D01*
X144254819Y-88923809D02*
X144397676Y-88828571D01*
X144397676Y-88828571D02*
X144492914Y-88733333D01*
X144492914Y-88733333D02*
X144540533Y-88638095D01*
X144254819Y-89542857D02*
X144254819Y-90161904D01*
X144254819Y-90161904D02*
X144635771Y-89828571D01*
X144635771Y-89828571D02*
X144635771Y-89971428D01*
X144635771Y-89971428D02*
X144683390Y-90066666D01*
X144683390Y-90066666D02*
X144731009Y-90114285D01*
X144731009Y-90114285D02*
X144826247Y-90161904D01*
X144826247Y-90161904D02*
X145064342Y-90161904D01*
X145064342Y-90161904D02*
X145159580Y-90114285D01*
X145159580Y-90114285D02*
X145207200Y-90066666D01*
X145207200Y-90066666D02*
X145254819Y-89971428D01*
X145254819Y-89971428D02*
X145254819Y-89685714D01*
X145254819Y-89685714D02*
X145207200Y-89590476D01*
X145207200Y-89590476D02*
X145159580Y-89542857D01*
X151145180Y-101761904D02*
X150335657Y-101761904D01*
X150335657Y-101761904D02*
X150240419Y-101714285D01*
X150240419Y-101714285D02*
X150192800Y-101666666D01*
X150192800Y-101666666D02*
X150145180Y-101571428D01*
X150145180Y-101571428D02*
X150145180Y-101380952D01*
X150145180Y-101380952D02*
X150192800Y-101285714D01*
X150192800Y-101285714D02*
X150240419Y-101238095D01*
X150240419Y-101238095D02*
X150335657Y-101190476D01*
X150335657Y-101190476D02*
X151145180Y-101190476D01*
X151145180Y-100285714D02*
X151145180Y-100476190D01*
X151145180Y-100476190D02*
X151097561Y-100571428D01*
X151097561Y-100571428D02*
X151049942Y-100619047D01*
X151049942Y-100619047D02*
X150907085Y-100714285D01*
X150907085Y-100714285D02*
X150716609Y-100761904D01*
X150716609Y-100761904D02*
X150335657Y-100761904D01*
X150335657Y-100761904D02*
X150240419Y-100714285D01*
X150240419Y-100714285D02*
X150192800Y-100666666D01*
X150192800Y-100666666D02*
X150145180Y-100571428D01*
X150145180Y-100571428D02*
X150145180Y-100380952D01*
X150145180Y-100380952D02*
X150192800Y-100285714D01*
X150192800Y-100285714D02*
X150240419Y-100238095D01*
X150240419Y-100238095D02*
X150335657Y-100190476D01*
X150335657Y-100190476D02*
X150573752Y-100190476D01*
X150573752Y-100190476D02*
X150668990Y-100238095D01*
X150668990Y-100238095D02*
X150716609Y-100285714D01*
X150716609Y-100285714D02*
X150764228Y-100380952D01*
X150764228Y-100380952D02*
X150764228Y-100571428D01*
X150764228Y-100571428D02*
X150716609Y-100666666D01*
X150716609Y-100666666D02*
X150668990Y-100714285D01*
X150668990Y-100714285D02*
X150573752Y-100761904D01*
X102342857Y-91954819D02*
X102676190Y-91478628D01*
X102914285Y-91954819D02*
X102914285Y-90954819D01*
X102914285Y-90954819D02*
X102533333Y-90954819D01*
X102533333Y-90954819D02*
X102438095Y-91002438D01*
X102438095Y-91002438D02*
X102390476Y-91050057D01*
X102390476Y-91050057D02*
X102342857Y-91145295D01*
X102342857Y-91145295D02*
X102342857Y-91288152D01*
X102342857Y-91288152D02*
X102390476Y-91383390D01*
X102390476Y-91383390D02*
X102438095Y-91431009D01*
X102438095Y-91431009D02*
X102533333Y-91478628D01*
X102533333Y-91478628D02*
X102914285Y-91478628D01*
X101390476Y-91954819D02*
X101961904Y-91954819D01*
X101676190Y-91954819D02*
X101676190Y-90954819D01*
X101676190Y-90954819D02*
X101771428Y-91097676D01*
X101771428Y-91097676D02*
X101866666Y-91192914D01*
X101866666Y-91192914D02*
X101961904Y-91240533D01*
X100914285Y-91954819D02*
X100723809Y-91954819D01*
X100723809Y-91954819D02*
X100628571Y-91907200D01*
X100628571Y-91907200D02*
X100580952Y-91859580D01*
X100580952Y-91859580D02*
X100485714Y-91716723D01*
X100485714Y-91716723D02*
X100438095Y-91526247D01*
X100438095Y-91526247D02*
X100438095Y-91145295D01*
X100438095Y-91145295D02*
X100485714Y-91050057D01*
X100485714Y-91050057D02*
X100533333Y-91002438D01*
X100533333Y-91002438D02*
X100628571Y-90954819D01*
X100628571Y-90954819D02*
X100819047Y-90954819D01*
X100819047Y-90954819D02*
X100914285Y-91002438D01*
X100914285Y-91002438D02*
X100961904Y-91050057D01*
X100961904Y-91050057D02*
X101009523Y-91145295D01*
X101009523Y-91145295D02*
X101009523Y-91383390D01*
X101009523Y-91383390D02*
X100961904Y-91478628D01*
X100961904Y-91478628D02*
X100914285Y-91526247D01*
X100914285Y-91526247D02*
X100819047Y-91573866D01*
X100819047Y-91573866D02*
X100628571Y-91573866D01*
X100628571Y-91573866D02*
X100533333Y-91526247D01*
X100533333Y-91526247D02*
X100485714Y-91478628D01*
X100485714Y-91478628D02*
X100438095Y-91383390D01*
X112442857Y-80159580D02*
X112490476Y-80207200D01*
X112490476Y-80207200D02*
X112633333Y-80254819D01*
X112633333Y-80254819D02*
X112728571Y-80254819D01*
X112728571Y-80254819D02*
X112871428Y-80207200D01*
X112871428Y-80207200D02*
X112966666Y-80111961D01*
X112966666Y-80111961D02*
X113014285Y-80016723D01*
X113014285Y-80016723D02*
X113061904Y-79826247D01*
X113061904Y-79826247D02*
X113061904Y-79683390D01*
X113061904Y-79683390D02*
X113014285Y-79492914D01*
X113014285Y-79492914D02*
X112966666Y-79397676D01*
X112966666Y-79397676D02*
X112871428Y-79302438D01*
X112871428Y-79302438D02*
X112728571Y-79254819D01*
X112728571Y-79254819D02*
X112633333Y-79254819D01*
X112633333Y-79254819D02*
X112490476Y-79302438D01*
X112490476Y-79302438D02*
X112442857Y-79350057D01*
X111490476Y-80254819D02*
X112061904Y-80254819D01*
X111776190Y-80254819D02*
X111776190Y-79254819D01*
X111776190Y-79254819D02*
X111871428Y-79397676D01*
X111871428Y-79397676D02*
X111966666Y-79492914D01*
X111966666Y-79492914D02*
X112061904Y-79540533D01*
X110585714Y-79254819D02*
X111061904Y-79254819D01*
X111061904Y-79254819D02*
X111109523Y-79731009D01*
X111109523Y-79731009D02*
X111061904Y-79683390D01*
X111061904Y-79683390D02*
X110966666Y-79635771D01*
X110966666Y-79635771D02*
X110728571Y-79635771D01*
X110728571Y-79635771D02*
X110633333Y-79683390D01*
X110633333Y-79683390D02*
X110585714Y-79731009D01*
X110585714Y-79731009D02*
X110538095Y-79826247D01*
X110538095Y-79826247D02*
X110538095Y-80064342D01*
X110538095Y-80064342D02*
X110585714Y-80159580D01*
X110585714Y-80159580D02*
X110633333Y-80207200D01*
X110633333Y-80207200D02*
X110728571Y-80254819D01*
X110728571Y-80254819D02*
X110966666Y-80254819D01*
X110966666Y-80254819D02*
X111061904Y-80207200D01*
X111061904Y-80207200D02*
X111109523Y-80159580D01*
X112442857Y-82354819D02*
X112776190Y-81878628D01*
X113014285Y-82354819D02*
X113014285Y-81354819D01*
X113014285Y-81354819D02*
X112633333Y-81354819D01*
X112633333Y-81354819D02*
X112538095Y-81402438D01*
X112538095Y-81402438D02*
X112490476Y-81450057D01*
X112490476Y-81450057D02*
X112442857Y-81545295D01*
X112442857Y-81545295D02*
X112442857Y-81688152D01*
X112442857Y-81688152D02*
X112490476Y-81783390D01*
X112490476Y-81783390D02*
X112538095Y-81831009D01*
X112538095Y-81831009D02*
X112633333Y-81878628D01*
X112633333Y-81878628D02*
X113014285Y-81878628D01*
X111490476Y-82354819D02*
X112061904Y-82354819D01*
X111776190Y-82354819D02*
X111776190Y-81354819D01*
X111776190Y-81354819D02*
X111871428Y-81497676D01*
X111871428Y-81497676D02*
X111966666Y-81592914D01*
X111966666Y-81592914D02*
X112061904Y-81640533D01*
X110538095Y-82354819D02*
X111109523Y-82354819D01*
X110823809Y-82354819D02*
X110823809Y-81354819D01*
X110823809Y-81354819D02*
X110919047Y-81497676D01*
X110919047Y-81497676D02*
X111014285Y-81592914D01*
X111014285Y-81592914D02*
X111109523Y-81640533D01*
X147454819Y-108157142D02*
X146978628Y-107823809D01*
X147454819Y-107585714D02*
X146454819Y-107585714D01*
X146454819Y-107585714D02*
X146454819Y-107966666D01*
X146454819Y-107966666D02*
X146502438Y-108061904D01*
X146502438Y-108061904D02*
X146550057Y-108109523D01*
X146550057Y-108109523D02*
X146645295Y-108157142D01*
X146645295Y-108157142D02*
X146788152Y-108157142D01*
X146788152Y-108157142D02*
X146883390Y-108109523D01*
X146883390Y-108109523D02*
X146931009Y-108061904D01*
X146931009Y-108061904D02*
X146978628Y-107966666D01*
X146978628Y-107966666D02*
X146978628Y-107585714D01*
X147454819Y-109109523D02*
X147454819Y-108538095D01*
X147454819Y-108823809D02*
X146454819Y-108823809D01*
X146454819Y-108823809D02*
X146597676Y-108728571D01*
X146597676Y-108728571D02*
X146692914Y-108633333D01*
X146692914Y-108633333D02*
X146740533Y-108538095D01*
X146454819Y-109966666D02*
X146454819Y-109776190D01*
X146454819Y-109776190D02*
X146502438Y-109680952D01*
X146502438Y-109680952D02*
X146550057Y-109633333D01*
X146550057Y-109633333D02*
X146692914Y-109538095D01*
X146692914Y-109538095D02*
X146883390Y-109490476D01*
X146883390Y-109490476D02*
X147264342Y-109490476D01*
X147264342Y-109490476D02*
X147359580Y-109538095D01*
X147359580Y-109538095D02*
X147407200Y-109585714D01*
X147407200Y-109585714D02*
X147454819Y-109680952D01*
X147454819Y-109680952D02*
X147454819Y-109871428D01*
X147454819Y-109871428D02*
X147407200Y-109966666D01*
X147407200Y-109966666D02*
X147359580Y-110014285D01*
X147359580Y-110014285D02*
X147264342Y-110061904D01*
X147264342Y-110061904D02*
X147026247Y-110061904D01*
X147026247Y-110061904D02*
X146931009Y-110014285D01*
X146931009Y-110014285D02*
X146883390Y-109966666D01*
X146883390Y-109966666D02*
X146835771Y-109871428D01*
X146835771Y-109871428D02*
X146835771Y-109680952D01*
X146835771Y-109680952D02*
X146883390Y-109585714D01*
X146883390Y-109585714D02*
X146931009Y-109538095D01*
X146931009Y-109538095D02*
X147026247Y-109490476D01*
X162738094Y-137754819D02*
X162738094Y-136754819D01*
X162738094Y-136754819D02*
X162499999Y-136754819D01*
X162499999Y-136754819D02*
X162357142Y-136802438D01*
X162357142Y-136802438D02*
X162261904Y-136897676D01*
X162261904Y-136897676D02*
X162214285Y-136992914D01*
X162214285Y-136992914D02*
X162166666Y-137183390D01*
X162166666Y-137183390D02*
X162166666Y-137326247D01*
X162166666Y-137326247D02*
X162214285Y-137516723D01*
X162214285Y-137516723D02*
X162261904Y-137611961D01*
X162261904Y-137611961D02*
X162357142Y-137707200D01*
X162357142Y-137707200D02*
X162499999Y-137754819D01*
X162499999Y-137754819D02*
X162738094Y-137754819D01*
X161309523Y-137088152D02*
X161309523Y-137754819D01*
X161547618Y-136707200D02*
X161785713Y-137421485D01*
X161785713Y-137421485D02*
X161166666Y-137421485D01*
X137054819Y-88257142D02*
X136578628Y-87923809D01*
X137054819Y-87685714D02*
X136054819Y-87685714D01*
X136054819Y-87685714D02*
X136054819Y-88066666D01*
X136054819Y-88066666D02*
X136102438Y-88161904D01*
X136102438Y-88161904D02*
X136150057Y-88209523D01*
X136150057Y-88209523D02*
X136245295Y-88257142D01*
X136245295Y-88257142D02*
X136388152Y-88257142D01*
X136388152Y-88257142D02*
X136483390Y-88209523D01*
X136483390Y-88209523D02*
X136531009Y-88161904D01*
X136531009Y-88161904D02*
X136578628Y-88066666D01*
X136578628Y-88066666D02*
X136578628Y-87685714D01*
X137054819Y-89209523D02*
X137054819Y-88638095D01*
X137054819Y-88923809D02*
X136054819Y-88923809D01*
X136054819Y-88923809D02*
X136197676Y-88828571D01*
X136197676Y-88828571D02*
X136292914Y-88733333D01*
X136292914Y-88733333D02*
X136340533Y-88638095D01*
X136054819Y-89542857D02*
X136054819Y-90209523D01*
X136054819Y-90209523D02*
X137054819Y-89780952D01*
X144754819Y-107761905D02*
X143754819Y-107761905D01*
X143754819Y-107761905D02*
X143754819Y-108000000D01*
X143754819Y-108000000D02*
X143802438Y-108142857D01*
X143802438Y-108142857D02*
X143897676Y-108238095D01*
X143897676Y-108238095D02*
X143992914Y-108285714D01*
X143992914Y-108285714D02*
X144183390Y-108333333D01*
X144183390Y-108333333D02*
X144326247Y-108333333D01*
X144326247Y-108333333D02*
X144516723Y-108285714D01*
X144516723Y-108285714D02*
X144611961Y-108238095D01*
X144611961Y-108238095D02*
X144707200Y-108142857D01*
X144707200Y-108142857D02*
X144754819Y-108000000D01*
X144754819Y-108000000D02*
X144754819Y-107761905D01*
X143754819Y-108666667D02*
X143754819Y-109285714D01*
X143754819Y-109285714D02*
X144135771Y-108952381D01*
X144135771Y-108952381D02*
X144135771Y-109095238D01*
X144135771Y-109095238D02*
X144183390Y-109190476D01*
X144183390Y-109190476D02*
X144231009Y-109238095D01*
X144231009Y-109238095D02*
X144326247Y-109285714D01*
X144326247Y-109285714D02*
X144564342Y-109285714D01*
X144564342Y-109285714D02*
X144659580Y-109238095D01*
X144659580Y-109238095D02*
X144707200Y-109190476D01*
X144707200Y-109190476D02*
X144754819Y-109095238D01*
X144754819Y-109095238D02*
X144754819Y-108809524D01*
X144754819Y-108809524D02*
X144707200Y-108714286D01*
X144707200Y-108714286D02*
X144659580Y-108666667D01*
D12*
%TO.C,C3*%
X157261252Y-69165000D02*
X156738748Y-69165000D01*
X157261252Y-70635000D02*
X156738748Y-70635000D01*
%TO.C,C4*%
X153003733Y-88890000D02*
X153296267Y-88890000D01*
X153003733Y-89910000D02*
X153296267Y-89910000D01*
%TO.C,C9*%
X138138748Y-72465000D02*
X138661252Y-72465000D01*
X138138748Y-73935000D02*
X138661252Y-73935000D01*
%TO.C,C10*%
X138138748Y-78165000D02*
X138661252Y-78165000D01*
X138138748Y-79635000D02*
X138661252Y-79635000D01*
%TO.C,C12*%
X138138748Y-70365000D02*
X138661252Y-70365000D01*
X138138748Y-71835000D02*
X138661252Y-71835000D01*
%TO.C,C2*%
X141540000Y-55040000D02*
X141540000Y-58495563D01*
X141540000Y-58495563D02*
X142604437Y-59560000D01*
X142740000Y-55040000D02*
X141540000Y-55040000D01*
X142740000Y-59560000D02*
X142604437Y-59560000D01*
X144860000Y-55040000D02*
X146060000Y-55040000D01*
X144860000Y-59560000D02*
X144995563Y-59560000D01*
X145110000Y-60050000D02*
X145610000Y-60050000D01*
X145360000Y-59800000D02*
X145360000Y-60300000D01*
X146060000Y-55040000D02*
X146060000Y-58495563D01*
X146060000Y-58495563D02*
X144995563Y-59560000D01*
%TO.C,C8*%
X155940000Y-55040000D02*
X155940000Y-58495563D01*
X155940000Y-58495563D02*
X157004437Y-59560000D01*
X157140000Y-55040000D02*
X155940000Y-55040000D01*
X157140000Y-59560000D02*
X157004437Y-59560000D01*
X159260000Y-55040000D02*
X160460000Y-55040000D01*
X159260000Y-59560000D02*
X159395563Y-59560000D01*
X159510000Y-60050000D02*
X160010000Y-60050000D01*
X159760000Y-59800000D02*
X159760000Y-60300000D01*
X160460000Y-55040000D02*
X160460000Y-58495563D01*
X160460000Y-58495563D02*
X159395563Y-59560000D01*
%TO.C,C11*%
X139865000Y-85861252D02*
X139865000Y-85338748D01*
X141335000Y-85861252D02*
X141335000Y-85338748D01*
%TO.C,D1*%
X138100000Y-55650000D02*
X138100000Y-59660000D01*
X138100000Y-59660000D02*
X140100000Y-59660000D01*
X140100000Y-55650000D02*
X140100000Y-59660000D01*
%TO.C,R2*%
X128327064Y-79065000D02*
X127872936Y-79065000D01*
X128327064Y-80535000D02*
X127872936Y-80535000D01*
%TO.C,R3*%
X127872936Y-83065000D02*
X128327064Y-83065000D01*
X127872936Y-84535000D02*
X128327064Y-84535000D01*
%TO.C,R4*%
X114772936Y-77065000D02*
X115227064Y-77065000D01*
X114772936Y-78535000D02*
X115227064Y-78535000D01*
%TO.C,R5*%
X114772936Y-75065000D02*
X115227064Y-75065000D01*
X114772936Y-76535000D02*
X115227064Y-76535000D01*
%TO.C,R6*%
X128327064Y-77065000D02*
X127872936Y-77065000D01*
X128327064Y-78535000D02*
X127872936Y-78535000D01*
%TO.C,R7*%
X127872936Y-73065000D02*
X128327064Y-73065000D01*
X127872936Y-74535000D02*
X128327064Y-74535000D01*
%TO.C,R9*%
X114772936Y-73065000D02*
X115227064Y-73065000D01*
X114772936Y-74535000D02*
X115227064Y-74535000D01*
%TO.C,R10*%
X128327064Y-75065000D02*
X127872936Y-75065000D01*
X128327064Y-76535000D02*
X127872936Y-76535000D01*
%TO.C,R13*%
X127872936Y-86865000D02*
X128327064Y-86865000D01*
X127872936Y-88335000D02*
X128327064Y-88335000D01*
%TO.C,R15*%
X115127064Y-91965000D02*
X114672936Y-91965000D01*
X115127064Y-93435000D02*
X114672936Y-93435000D01*
%TO.C,U3*%
X142890000Y-70790000D02*
X142890000Y-71740000D01*
X142890000Y-81010000D02*
X142890000Y-80060000D01*
X143840000Y-70790000D02*
X142890000Y-70790000D01*
X143840000Y-81010000D02*
X142890000Y-81010000D01*
X152160000Y-70790000D02*
X153110000Y-70790000D01*
X152160000Y-81010000D02*
X153110000Y-81010000D01*
X153110000Y-70790000D02*
X153110000Y-71740000D01*
X153110000Y-81010000D02*
X153110000Y-80060000D01*
X152630000Y-81965000D02*
X152160000Y-81625000D01*
X152630000Y-81285000D01*
X152630000Y-81965000D01*
G36*
X152630000Y-81965000D02*
G01*
X152160000Y-81625000D01*
X152630000Y-81285000D01*
X152630000Y-81965000D01*
G37*
%TO.C,U5*%
X119550000Y-74265000D02*
X121500000Y-74265000D01*
X119550000Y-83135000D02*
X121500000Y-83135000D01*
X123450000Y-74265000D02*
X121500000Y-74265000D01*
X123450000Y-83135000D02*
X121500000Y-83135000D01*
X124200000Y-74330000D02*
X123960000Y-74000000D01*
X124440000Y-74000000D01*
X124200000Y-74330000D01*
G36*
X124200000Y-74330000D02*
G01*
X123960000Y-74000000D01*
X124440000Y-74000000D01*
X124200000Y-74330000D01*
G37*
%TO.C,U4*%
X119550000Y-86765000D02*
X121500000Y-86765000D01*
X119550000Y-95635000D02*
X121500000Y-95635000D01*
X123450000Y-86765000D02*
X121500000Y-86765000D01*
X123450000Y-95635000D02*
X121500000Y-95635000D01*
X119040000Y-95900000D02*
X118560000Y-95900000D01*
X118800000Y-95570000D01*
X119040000Y-95900000D01*
G36*
X119040000Y-95900000D02*
G01*
X118560000Y-95900000D01*
X118800000Y-95570000D01*
X119040000Y-95900000D01*
G37*
%TO.C,U1*%
X154740000Y-60070000D02*
X154410000Y-59830000D01*
X154740000Y-59590000D01*
X154740000Y-60070000D01*
G36*
X154740000Y-60070000D02*
G01*
X154410000Y-59830000D01*
X154740000Y-59590000D01*
X154740000Y-60070000D01*
G37*
%TO.C,Y1*%
X148300000Y-84400000D02*
X148300000Y-84900000D01*
X148300000Y-87500000D02*
X148300000Y-88000000D01*
X148300000Y-88000000D02*
X154050000Y-88000000D01*
X154050000Y-84400000D02*
X148300000Y-84400000D01*
D10*
%TO.C,J1*%
X164930000Y-62330000D02*
X164930000Y-72490000D01*
X164930000Y-72490000D02*
X167470000Y-72490000D01*
X167470000Y-62330000D02*
X164930000Y-62330000D01*
X167470000Y-72490000D02*
X167470000Y-62330000D01*
D12*
%TO.C,L1*%
X137865000Y-85827064D02*
X137865000Y-85372936D01*
X139335000Y-85827064D02*
X139335000Y-85372936D01*
%TO.C,R8*%
X128327064Y-81065000D02*
X127872936Y-81065000D01*
X128327064Y-82535000D02*
X127872936Y-82535000D01*
%TO.C,D2*%
X111300000Y-58450000D02*
X111300000Y-54440000D01*
X113300000Y-54440000D02*
X111300000Y-54440000D01*
X113300000Y-58450000D02*
X113300000Y-54440000D01*
%TO.C,R14*%
X115127064Y-86865000D02*
X114672936Y-86865000D01*
X115127064Y-88335000D02*
X114672936Y-88335000D01*
%TO.C,C6*%
X157661252Y-78865000D02*
X157138748Y-78865000D01*
X157661252Y-80335000D02*
X157138748Y-80335000D01*
%TO.C,C5*%
X149696267Y-88890000D02*
X149403733Y-88890000D01*
X149696267Y-89910000D02*
X149403733Y-89910000D01*
D10*
%TO.C,J2*%
X115230000Y-52825000D02*
X135530000Y-52825000D01*
X115230000Y-61765000D02*
X115230000Y-52825000D01*
X116430000Y-54125000D02*
X123155000Y-54125000D01*
X116430000Y-60465000D02*
X116430000Y-54125000D01*
X117650000Y-61965000D02*
X117650000Y-61765000D01*
X118150000Y-61765000D02*
X118150000Y-61965000D01*
X118150000Y-61865000D02*
X117650000Y-61865000D01*
X118150000Y-61965000D02*
X117650000Y-61965000D01*
X123155000Y-54125000D02*
X123155000Y-52825000D01*
X125130000Y-61965000D02*
X125130000Y-61765000D01*
X125630000Y-61765000D02*
X125630000Y-61965000D01*
X125630000Y-61865000D02*
X125130000Y-61865000D01*
X125630000Y-61965000D02*
X125130000Y-61965000D01*
X127605000Y-52825000D02*
X127605000Y-54125000D01*
X127605000Y-54125000D02*
X134330000Y-54125000D01*
X132610000Y-61965000D02*
X132610000Y-61765000D01*
X133110000Y-61765000D02*
X133110000Y-61965000D01*
X133110000Y-61865000D02*
X132610000Y-61865000D01*
X133110000Y-61965000D02*
X132610000Y-61965000D01*
X134330000Y-54125000D02*
X134330000Y-60465000D01*
X134330000Y-60465000D02*
X116430000Y-60465000D01*
X135530000Y-52825000D02*
X135530000Y-61765000D01*
X135530000Y-61765000D02*
X115230000Y-61765000D01*
D13*
X121300000Y-55075000D02*
X119300000Y-55075000D01*
X119300000Y-52375000D01*
X121300000Y-52375000D01*
X121300000Y-55075000D01*
G36*
X121300000Y-55075000D02*
G01*
X119300000Y-55075000D01*
X119300000Y-52375000D01*
X121300000Y-52375000D01*
X121300000Y-55075000D01*
G37*
X121300000Y-62225000D02*
X119300000Y-62225000D01*
X119300000Y-59525000D01*
X121300000Y-59525000D01*
X121300000Y-62225000D01*
G36*
X121300000Y-62225000D02*
G01*
X119300000Y-62225000D01*
X119300000Y-59525000D01*
X121300000Y-59525000D01*
X121300000Y-62225000D01*
G37*
D12*
%TO.C,C1*%
X138138748Y-80265000D02*
X138661252Y-80265000D01*
X138138748Y-81735000D02*
X138661252Y-81735000D01*
%TO.C,R1*%
X108265000Y-57127064D02*
X108265000Y-56672936D01*
X109735000Y-57127064D02*
X109735000Y-56672936D01*
%TO.C,R12*%
X115227064Y-83165000D02*
X114772936Y-83165000D01*
X115227064Y-84635000D02*
X114772936Y-84635000D01*
%TO.C,R20*%
X148765000Y-112227064D02*
X148765000Y-111772936D01*
X150235000Y-112227064D02*
X150235000Y-111772936D01*
%TO.C,C7*%
X146165000Y-85861252D02*
X146165000Y-85338748D01*
X147635000Y-85861252D02*
X147635000Y-85338748D01*
%TO.C,C14*%
X141965000Y-85861252D02*
X141965000Y-85338748D01*
X143435000Y-85861252D02*
X143435000Y-85338748D01*
%TO.C,R18*%
X104872936Y-88165000D02*
X105327064Y-88165000D01*
X104872936Y-89635000D02*
X105327064Y-89635000D01*
%TO.C,J12*%
X164670000Y-86415000D02*
X164670000Y-91555000D01*
X164670000Y-94155000D02*
X164670000Y-92825000D01*
X166000000Y-94155000D02*
X164670000Y-94155000D01*
X167330000Y-86415000D02*
X164670000Y-86415000D01*
X167330000Y-86415000D02*
X167330000Y-91555000D01*
X167330000Y-91555000D02*
X164670000Y-91555000D01*
%TO.C,C13*%
X144065000Y-85861252D02*
X144065000Y-85338748D01*
X145535000Y-85861252D02*
X145535000Y-85338748D01*
%TO.C,U6*%
X141075000Y-98015000D02*
X141075000Y-104365000D01*
X149595000Y-98015000D02*
X141075000Y-98015000D01*
X149595000Y-98015000D02*
X149595000Y-104365000D01*
X149595000Y-104365000D02*
X141075000Y-104365000D01*
X149595000Y-106160000D02*
X149095000Y-105660000D01*
X149595000Y-105160000D01*
X149595000Y-106160000D01*
%TO.C,R19*%
X104872936Y-90765000D02*
X105327064Y-90765000D01*
X104872936Y-92235000D02*
X105327064Y-92235000D01*
%TO.C,C15*%
X115261252Y-79065000D02*
X114738748Y-79065000D01*
X115261252Y-80535000D02*
X114738748Y-80535000D01*
%TO.C,R11*%
X114772936Y-81165000D02*
X115227064Y-81165000D01*
X114772936Y-82635000D02*
X115227064Y-82635000D01*
%TO.C,R16*%
X146265000Y-112227064D02*
X146265000Y-111772936D01*
X147735000Y-112227064D02*
X147735000Y-111772936D01*
%TO.C,D4*%
X163240000Y-137850000D02*
X163240000Y-136690000D01*
X163550000Y-136690000D02*
X163240000Y-136690000D01*
X164850000Y-136690000D02*
X165160000Y-136690000D01*
X165160000Y-137850000D02*
X165160000Y-136690000D01*
D10*
X164775000Y-138500000D02*
G75*
G02*
X164625000Y-138500000I-75000J0D01*
G01*
X164625000Y-138500000D02*
G75*
G02*
X164775000Y-138500000I75000J0D01*
G01*
D12*
%TO.C,R17*%
X135865000Y-85372936D02*
X135865000Y-85827064D01*
X137335000Y-85372936D02*
X137335000Y-85827064D01*
%TO.C,D3*%
X143300000Y-113650000D02*
X143300000Y-109640000D01*
X145300000Y-109640000D02*
X143300000Y-109640000D01*
X145300000Y-113650000D02*
X145300000Y-109640000D01*
%TD*%
%LPC*%
D14*
X147000000Y-50000000D02*
X155200000Y-50000000D01*
X155200000Y-58200000D01*
X147000000Y-58200000D01*
X147000000Y-50000000D01*
G36*
X147000000Y-50000000D02*
G01*
X155200000Y-50000000D01*
X155200000Y-58200000D01*
X147000000Y-58200000D01*
X147000000Y-50000000D01*
G37*
D15*
%TO.C,J4*%
X122000000Y-132000000D03*
D16*
X128480000Y-132000000D03*
X125380000Y-132000000D03*
X117080000Y-132000000D03*
%TD*%
D15*
%TO.C,J5*%
X137000000Y-132000000D03*
D16*
X143480000Y-132000000D03*
X140380000Y-132000000D03*
X132080000Y-132000000D03*
%TD*%
D15*
%TO.C,J7*%
X122000000Y-145200000D03*
D16*
X128480000Y-145200000D03*
X125380000Y-145200000D03*
X117080000Y-145200000D03*
%TD*%
D15*
%TO.C,J8*%
X137000000Y-145200000D03*
D16*
X143480000Y-145200000D03*
X140380000Y-145200000D03*
X132080000Y-145200000D03*
%TD*%
D15*
%TO.C,J6*%
X152000000Y-145200000D03*
D16*
X158480000Y-145200000D03*
X155380000Y-145200000D03*
X147080000Y-145200000D03*
%TD*%
D17*
%TO.C,SW4*%
X156700000Y-111500000D03*
X161700000Y-111500000D03*
X159200000Y-111500000D03*
X156700000Y-97000000D03*
X161700000Y-97000000D03*
D18*
X153000000Y-104000000D03*
X165400000Y-104000000D03*
%TD*%
D17*
%TO.C,SW3*%
X108700000Y-111500000D03*
X113700000Y-111500000D03*
X111200000Y-111500000D03*
X108700000Y-97000000D03*
X113700000Y-97000000D03*
D18*
X105000000Y-104000000D03*
X117400000Y-104000000D03*
%TD*%
D19*
%TO.C,U2*%
X166000000Y-53700000D03*
D20*
X166000000Y-56240000D03*
X166000000Y-58780000D03*
D19*
X166000000Y-76600000D03*
D20*
X166000000Y-79140000D03*
X166000000Y-81680000D03*
D19*
X102100000Y-53700000D03*
D20*
X102100000Y-56240000D03*
X102100000Y-81700000D03*
X102100000Y-84240000D03*
%TD*%
D15*
%TO.C,J3*%
X152000000Y-132000000D03*
D16*
X158480000Y-132000000D03*
X155380000Y-132000000D03*
X147080000Y-132000000D03*
%TD*%
D21*
%TO.C,J9*%
X110980000Y-132000000D03*
X114080000Y-132000000D03*
X102680000Y-132000000D03*
%TD*%
D22*
%TO.C,SW1*%
X166250000Y-127950000D03*
X166250000Y-134450000D03*
X161750000Y-127950000D03*
X161750000Y-134450000D03*
%TD*%
D23*
%TO.C,BTN2*%
X137000000Y-117460000D03*
D24*
X134460000Y-122540000D03*
X139540000Y-122540000D03*
X134460000Y-117460000D03*
X139540000Y-117460000D03*
X134300000Y-120000000D03*
X139700000Y-120000000D03*
%TD*%
D23*
%TO.C,BTN3*%
X152000000Y-122540000D03*
D24*
X154540000Y-117460000D03*
X149460000Y-117460000D03*
X154540000Y-122540000D03*
X149460000Y-122540000D03*
X154700000Y-120000000D03*
X149300000Y-120000000D03*
%TD*%
D22*
%TO.C,TP2*%
X110100000Y-60400000D03*
%TD*%
%TO.C,TP1*%
X105900000Y-60400000D03*
%TD*%
D23*
%TO.C,BTN1*%
X122000000Y-117460000D03*
D24*
X119460000Y-122540000D03*
X124540000Y-122540000D03*
X119460000Y-117460000D03*
X124540000Y-117460000D03*
X119300000Y-120000000D03*
X124700000Y-120000000D03*
%TD*%
D22*
%TO.C,TP4*%
X102000000Y-69200000D03*
%TD*%
%TO.C,TP3*%
X162300000Y-118600000D03*
%TD*%
%TO.C,TP5*%
X102000000Y-60400000D03*
%TD*%
D25*
%TO.C,J11*%
X164100000Y-140325000D03*
X164100000Y-147875000D03*
D26*
X167170000Y-140000000D03*
X161030000Y-140000000D03*
X167170000Y-148200000D03*
X161030000Y-148200000D03*
%TD*%
D21*
%TO.C,J10*%
X110980000Y-145200000D03*
X114080000Y-145200000D03*
X102680000Y-145200000D03*
%TD*%
D22*
%TO.C,SW2*%
X133250000Y-104250000D03*
X133250000Y-97750000D03*
X137750000Y-104250000D03*
X137750000Y-97750000D03*
%TD*%
D27*
%TO.C,C3*%
X156050000Y-69900000D03*
X157950000Y-69900000D03*
%TD*%
D28*
%TO.C,C4*%
X154012500Y-89400000D03*
X152287500Y-89400000D03*
%TD*%
D29*
%TO.C,C9*%
X139350000Y-73200000D03*
X137450000Y-73200000D03*
%TD*%
%TO.C,C10*%
X139350000Y-78900000D03*
X137450000Y-78900000D03*
%TD*%
%TO.C,C12*%
X139350000Y-71100000D03*
X137450000Y-71100000D03*
%TD*%
D30*
%TO.C,C2*%
X143800000Y-59100000D03*
X143800000Y-55500000D03*
%TD*%
%TO.C,C8*%
X158200000Y-59100000D03*
X158200000Y-55500000D03*
%TD*%
D31*
%TO.C,C11*%
X140600000Y-84650000D03*
X140600000Y-86550000D03*
%TD*%
D32*
%TO.C,D1*%
X139100000Y-58950000D03*
X139100000Y-55650000D03*
%TD*%
D33*
%TO.C,R2*%
X127187500Y-79800000D03*
X129012500Y-79800000D03*
%TD*%
D34*
%TO.C,R3*%
X129012500Y-83800000D03*
X127187500Y-83800000D03*
%TD*%
%TO.C,R4*%
X115912500Y-77800000D03*
X114087500Y-77800000D03*
%TD*%
%TO.C,R5*%
X115912500Y-75800000D03*
X114087500Y-75800000D03*
%TD*%
D33*
%TO.C,R6*%
X127187500Y-77800000D03*
X129012500Y-77800000D03*
%TD*%
D34*
%TO.C,R7*%
X129012500Y-73800000D03*
X127187500Y-73800000D03*
%TD*%
%TO.C,R9*%
X115912500Y-73800000D03*
X114087500Y-73800000D03*
%TD*%
D33*
%TO.C,R10*%
X127187500Y-75800000D03*
X129012500Y-75800000D03*
%TD*%
D34*
%TO.C,R13*%
X129012500Y-87600000D03*
X127187500Y-87600000D03*
%TD*%
D33*
%TO.C,R15*%
X113987500Y-92700000D03*
X115812500Y-92700000D03*
%TD*%
D35*
%TO.C,U3*%
X151750000Y-81575000D03*
X151250000Y-81575000D03*
X150750000Y-81575000D03*
X150250000Y-81575000D03*
X149750000Y-81575000D03*
X149250000Y-81575000D03*
X148750000Y-81575000D03*
X148250000Y-81575000D03*
X147750000Y-81575000D03*
X147250000Y-81575000D03*
X146750000Y-81575000D03*
X146250000Y-81575000D03*
X145750000Y-81575000D03*
X145250000Y-81575000D03*
X144750000Y-81575000D03*
X144250000Y-81575000D03*
D36*
X142325000Y-79650000D03*
X142325000Y-79150000D03*
X142325000Y-78650000D03*
X142325000Y-78150000D03*
X142325000Y-77650000D03*
X142325000Y-77150000D03*
X142325000Y-76650000D03*
X142325000Y-76150000D03*
X142325000Y-75650000D03*
X142325000Y-75150000D03*
X142325000Y-74650000D03*
X142325000Y-74150000D03*
X142325000Y-73650000D03*
X142325000Y-73150000D03*
X142325000Y-72650000D03*
X142325000Y-72150000D03*
D35*
X144250000Y-70225000D03*
X144750000Y-70225000D03*
X145250000Y-70225000D03*
X145750000Y-70225000D03*
X146250000Y-70225000D03*
X146750000Y-70225000D03*
X147250000Y-70225000D03*
X147750000Y-70225000D03*
X148250000Y-70225000D03*
X148750000Y-70225000D03*
X149250000Y-70225000D03*
X149750000Y-70225000D03*
X150250000Y-70225000D03*
X150750000Y-70225000D03*
X151250000Y-70225000D03*
X151750000Y-70225000D03*
D36*
X153675000Y-72150000D03*
X153675000Y-72650000D03*
X153675000Y-73150000D03*
X153675000Y-73650000D03*
X153675000Y-74150000D03*
X153675000Y-74650000D03*
X153675000Y-75150000D03*
X153675000Y-75650000D03*
X153675000Y-76150000D03*
X153675000Y-76650000D03*
X153675000Y-77150000D03*
X153675000Y-77650000D03*
X153675000Y-78150000D03*
X153675000Y-78650000D03*
X153675000Y-79150000D03*
X153675000Y-79650000D03*
%TD*%
D37*
%TO.C,U5*%
X123975000Y-74890000D03*
X123975000Y-76160000D03*
X123975000Y-77430000D03*
X123975000Y-78700000D03*
X123975000Y-79970000D03*
X123975000Y-81240000D03*
X123975000Y-82510000D03*
X119025000Y-82510000D03*
X119025000Y-81240000D03*
X119025000Y-79970000D03*
X119025000Y-78700000D03*
X119025000Y-77430000D03*
X119025000Y-76160000D03*
X119025000Y-74890000D03*
%TD*%
D38*
%TO.C,U4*%
X119025000Y-95010000D03*
X119025000Y-93740000D03*
X119025000Y-92470000D03*
X119025000Y-91200000D03*
X119025000Y-89930000D03*
X119025000Y-88660000D03*
X119025000Y-87390000D03*
X123975000Y-87390000D03*
X123975000Y-88660000D03*
X123975000Y-89930000D03*
X123975000Y-91200000D03*
X123975000Y-92470000D03*
X123975000Y-93740000D03*
X123975000Y-95010000D03*
%TD*%
D39*
%TO.C,U1*%
X153400000Y-59850000D03*
X151100000Y-59850000D03*
D40*
X151100000Y-53550000D03*
D39*
X148800000Y-59850000D03*
%TD*%
D41*
%TO.C,Y1*%
X149275000Y-86200000D03*
X153425000Y-86200000D03*
%TD*%
D42*
%TO.C,J1*%
X166200000Y-63600000D03*
D43*
X166200000Y-66140000D03*
X166200000Y-68680000D03*
X166200000Y-71220000D03*
%TD*%
D44*
%TO.C,L1*%
X138600000Y-84687500D03*
X138600000Y-86512500D03*
%TD*%
D33*
%TO.C,R8*%
X127187500Y-81800000D03*
X129012500Y-81800000D03*
%TD*%
D45*
%TO.C,D2*%
X112300000Y-55150000D03*
X112300000Y-58450000D03*
%TD*%
D33*
%TO.C,R14*%
X113987500Y-87600000D03*
X115812500Y-87600000D03*
%TD*%
D27*
%TO.C,C6*%
X156450000Y-79600000D03*
X158350000Y-79600000D03*
%TD*%
D46*
%TO.C,C5*%
X148687500Y-89400000D03*
X150412500Y-89400000D03*
%TD*%
D42*
%TO.C,J2*%
X120300000Y-56025000D03*
D43*
X120300000Y-58565000D03*
X122840000Y-56025000D03*
X122840000Y-58565000D03*
X125380000Y-56025000D03*
X125380000Y-58565000D03*
X127920000Y-56025000D03*
X127920000Y-58565000D03*
X130460000Y-56025000D03*
X130460000Y-58565000D03*
%TD*%
D29*
%TO.C,C1*%
X139350000Y-81000000D03*
X137450000Y-81000000D03*
%TD*%
D44*
%TO.C,R1*%
X109000000Y-55987500D03*
X109000000Y-57812500D03*
%TD*%
D33*
%TO.C,R12*%
X114087500Y-83900000D03*
X115912500Y-83900000D03*
%TD*%
D44*
%TO.C,R20*%
X149500000Y-111087500D03*
X149500000Y-112912500D03*
%TD*%
D31*
%TO.C,C7*%
X146900000Y-84650000D03*
X146900000Y-86550000D03*
%TD*%
%TO.C,C14*%
X142700000Y-84650000D03*
X142700000Y-86550000D03*
%TD*%
D34*
%TO.C,R18*%
X106012500Y-88900000D03*
X104187500Y-88900000D03*
%TD*%
D42*
%TO.C,J12*%
X166000000Y-92825000D03*
D47*
X166000000Y-90285000D03*
X166000000Y-87745000D03*
%TD*%
D31*
%TO.C,C13*%
X144800000Y-84650000D03*
X144800000Y-86550000D03*
%TD*%
D48*
%TO.C,U6*%
X147865000Y-105700000D03*
D49*
X145325000Y-105700000D03*
D48*
X142785000Y-105700000D03*
X142785000Y-96700000D03*
X145325000Y-96700000D03*
X147865000Y-96700000D03*
%TD*%
D34*
%TO.C,R19*%
X106012500Y-91500000D03*
X104187500Y-91500000D03*
%TD*%
D27*
%TO.C,C15*%
X114050000Y-79800000D03*
X115950000Y-79800000D03*
%TD*%
D34*
%TO.C,R11*%
X115912500Y-81900000D03*
X114087500Y-81900000D03*
%TD*%
D44*
%TO.C,R16*%
X147000000Y-111087500D03*
X147000000Y-112912500D03*
%TD*%
D50*
%TO.C,D4*%
X164700000Y-137850000D03*
X163700000Y-137850000D03*
X164200000Y-136550000D03*
%TD*%
D51*
%TO.C,R17*%
X136600000Y-86512500D03*
X136600000Y-84687500D03*
%TD*%
D45*
%TO.C,D3*%
X144300000Y-110350000D03*
X144300000Y-113650000D03*
%TD*%
%LPD*%
M02*
