%TF.GenerationSoftware,KiCad,Pcbnew,8.0.8*%
%TF.CreationDate,2025-06-14T16:52:44+01:00*%
%TF.ProjectId,oscar_components,6f736361-725f-4636-9f6d-706f6e656e74,rev?*%
%TF.SameCoordinates,Original*%
%TF.FileFunction,Legend,Top*%
%TF.FilePolarity,Positive*%
%FSLAX46Y46*%
G04 Gerber Fmt 4.6, Leading zero omitted, Abs format (unit mm)*
G04 Created by KiCad (PCBNEW 8.0.8) date 2025-06-14 16:52:44*
%MOMM*%
%LPD*%
G01*
G04 APERTURE LIST*
G04 Aperture macros list*
%AMRoundRect*
0 Rectangle with rounded corners*
0 $1 Rounding radius*
0 $2 $3 $4 $5 $6 $7 $8 $9 X,Y pos of 4 corners*
0 Add a 4 corners polygon primitive as box body*
4,1,4,$2,$3,$4,$5,$6,$7,$8,$9,$2,$3,0*
0 Add four circle primitives for the rounded corners*
1,1,$1+$1,$2,$3*
1,1,$1+$1,$4,$5*
1,1,$1+$1,$6,$7*
1,1,$1+$1,$8,$9*
0 Add four rect primitives between the rounded corners*
20,1,$1+$1,$2,$3,$4,$5,0*
20,1,$1+$1,$4,$5,$6,$7,0*
20,1,$1+$1,$6,$7,$8,$9,0*
20,1,$1+$1,$8,$9,$2,$3,0*%
G04 Aperture macros list end*
%ADD10C,0.150000*%
%ADD11C,0.200000*%
%ADD12C,0.120000*%
%ADD13C,0.100000*%
%ADD14C,2.500000*%
%ADD15R,1.000000X2.500000*%
%ADD16C,1.750000*%
%ADD17O,4.000000X4.000000*%
%ADD18R,1.500000X1.500000*%
%ADD19C,1.500000*%
%ADD20RoundRect,0.375000X0.375000X-0.925000X0.375000X0.925000X-0.375000X0.925000X-0.375000X-0.925000X0*%
%ADD21C,2.000000*%
%ADD22C,1.000000*%
%ADD23C,1.524000*%
%ADD24O,0.400000X0.600000*%
%ADD25R,1.400000X0.270000*%
%ADD26O,1.000000X1.500000*%
%ADD27R,1.700000X1.700000*%
%ADD28C,1.700000*%
%ADD29O,1.700000X1.700000*%
G04 APERTURE END LIST*
D10*
X149809523Y-124369819D02*
X149999999Y-124369819D01*
X149999999Y-124369819D02*
X150095237Y-124417438D01*
X150095237Y-124417438D02*
X150190475Y-124512676D01*
X150190475Y-124512676D02*
X150238094Y-124703152D01*
X150238094Y-124703152D02*
X150238094Y-125036485D01*
X150238094Y-125036485D02*
X150190475Y-125226961D01*
X150190475Y-125226961D02*
X150095237Y-125322200D01*
X150095237Y-125322200D02*
X149999999Y-125369819D01*
X149999999Y-125369819D02*
X149809523Y-125369819D01*
X149809523Y-125369819D02*
X149714285Y-125322200D01*
X149714285Y-125322200D02*
X149619047Y-125226961D01*
X149619047Y-125226961D02*
X149571428Y-125036485D01*
X149571428Y-125036485D02*
X149571428Y-124703152D01*
X149571428Y-124703152D02*
X149619047Y-124512676D01*
X149619047Y-124512676D02*
X149714285Y-124417438D01*
X149714285Y-124417438D02*
X149809523Y-124369819D01*
X150666666Y-125369819D02*
X150666666Y-124703152D01*
X150666666Y-124893628D02*
X150714285Y-124798390D01*
X150714285Y-124798390D02*
X150761904Y-124750771D01*
X150761904Y-124750771D02*
X150857142Y-124703152D01*
X150857142Y-124703152D02*
X150952380Y-124703152D01*
X151714285Y-125369819D02*
X151714285Y-124846009D01*
X151714285Y-124846009D02*
X151666666Y-124750771D01*
X151666666Y-124750771D02*
X151571428Y-124703152D01*
X151571428Y-124703152D02*
X151380952Y-124703152D01*
X151380952Y-124703152D02*
X151285714Y-124750771D01*
X151714285Y-125322200D02*
X151619047Y-125369819D01*
X151619047Y-125369819D02*
X151380952Y-125369819D01*
X151380952Y-125369819D02*
X151285714Y-125322200D01*
X151285714Y-125322200D02*
X151238095Y-125226961D01*
X151238095Y-125226961D02*
X151238095Y-125131723D01*
X151238095Y-125131723D02*
X151285714Y-125036485D01*
X151285714Y-125036485D02*
X151380952Y-124988866D01*
X151380952Y-124988866D02*
X151619047Y-124988866D01*
X151619047Y-124988866D02*
X151714285Y-124941247D01*
X152190476Y-124703152D02*
X152190476Y-125369819D01*
X152190476Y-124798390D02*
X152238095Y-124750771D01*
X152238095Y-124750771D02*
X152333333Y-124703152D01*
X152333333Y-124703152D02*
X152476190Y-124703152D01*
X152476190Y-124703152D02*
X152571428Y-124750771D01*
X152571428Y-124750771D02*
X152619047Y-124846009D01*
X152619047Y-124846009D02*
X152619047Y-125369819D01*
X153523809Y-124703152D02*
X153523809Y-125512676D01*
X153523809Y-125512676D02*
X153476190Y-125607914D01*
X153476190Y-125607914D02*
X153428571Y-125655533D01*
X153428571Y-125655533D02*
X153333333Y-125703152D01*
X153333333Y-125703152D02*
X153190476Y-125703152D01*
X153190476Y-125703152D02*
X153095238Y-125655533D01*
X153523809Y-125322200D02*
X153428571Y-125369819D01*
X153428571Y-125369819D02*
X153238095Y-125369819D01*
X153238095Y-125369819D02*
X153142857Y-125322200D01*
X153142857Y-125322200D02*
X153095238Y-125274580D01*
X153095238Y-125274580D02*
X153047619Y-125179342D01*
X153047619Y-125179342D02*
X153047619Y-124893628D01*
X153047619Y-124893628D02*
X153095238Y-124798390D01*
X153095238Y-124798390D02*
X153142857Y-124750771D01*
X153142857Y-124750771D02*
X153238095Y-124703152D01*
X153238095Y-124703152D02*
X153428571Y-124703152D01*
X153428571Y-124703152D02*
X153523809Y-124750771D01*
X154380952Y-125322200D02*
X154285714Y-125369819D01*
X154285714Y-125369819D02*
X154095238Y-125369819D01*
X154095238Y-125369819D02*
X154000000Y-125322200D01*
X154000000Y-125322200D02*
X153952381Y-125226961D01*
X153952381Y-125226961D02*
X153952381Y-124846009D01*
X153952381Y-124846009D02*
X154000000Y-124750771D01*
X154000000Y-124750771D02*
X154095238Y-124703152D01*
X154095238Y-124703152D02*
X154285714Y-124703152D01*
X154285714Y-124703152D02*
X154380952Y-124750771D01*
X154380952Y-124750771D02*
X154428571Y-124846009D01*
X154428571Y-124846009D02*
X154428571Y-124941247D01*
X154428571Y-124941247D02*
X153952381Y-125036485D01*
X135928571Y-124846009D02*
X136071428Y-124893628D01*
X136071428Y-124893628D02*
X136119047Y-124941247D01*
X136119047Y-124941247D02*
X136166666Y-125036485D01*
X136166666Y-125036485D02*
X136166666Y-125179342D01*
X136166666Y-125179342D02*
X136119047Y-125274580D01*
X136119047Y-125274580D02*
X136071428Y-125322200D01*
X136071428Y-125322200D02*
X135976190Y-125369819D01*
X135976190Y-125369819D02*
X135595238Y-125369819D01*
X135595238Y-125369819D02*
X135595238Y-124369819D01*
X135595238Y-124369819D02*
X135928571Y-124369819D01*
X135928571Y-124369819D02*
X136023809Y-124417438D01*
X136023809Y-124417438D02*
X136071428Y-124465057D01*
X136071428Y-124465057D02*
X136119047Y-124560295D01*
X136119047Y-124560295D02*
X136119047Y-124655533D01*
X136119047Y-124655533D02*
X136071428Y-124750771D01*
X136071428Y-124750771D02*
X136023809Y-124798390D01*
X136023809Y-124798390D02*
X135928571Y-124846009D01*
X135928571Y-124846009D02*
X135595238Y-124846009D01*
X136738095Y-125369819D02*
X136642857Y-125322200D01*
X136642857Y-125322200D02*
X136595238Y-125226961D01*
X136595238Y-125226961D02*
X136595238Y-124369819D01*
X137547619Y-124703152D02*
X137547619Y-125369819D01*
X137119048Y-124703152D02*
X137119048Y-125226961D01*
X137119048Y-125226961D02*
X137166667Y-125322200D01*
X137166667Y-125322200D02*
X137261905Y-125369819D01*
X137261905Y-125369819D02*
X137404762Y-125369819D01*
X137404762Y-125369819D02*
X137500000Y-125322200D01*
X137500000Y-125322200D02*
X137547619Y-125274580D01*
X138404762Y-125322200D02*
X138309524Y-125369819D01*
X138309524Y-125369819D02*
X138119048Y-125369819D01*
X138119048Y-125369819D02*
X138023810Y-125322200D01*
X138023810Y-125322200D02*
X137976191Y-125226961D01*
X137976191Y-125226961D02*
X137976191Y-124846009D01*
X137976191Y-124846009D02*
X138023810Y-124750771D01*
X138023810Y-124750771D02*
X138119048Y-124703152D01*
X138119048Y-124703152D02*
X138309524Y-124703152D01*
X138309524Y-124703152D02*
X138404762Y-124750771D01*
X138404762Y-124750771D02*
X138452381Y-124846009D01*
X138452381Y-124846009D02*
X138452381Y-124941247D01*
X138452381Y-124941247D02*
X137976191Y-125036485D01*
X120642856Y-124417438D02*
X120547618Y-124369819D01*
X120547618Y-124369819D02*
X120404761Y-124369819D01*
X120404761Y-124369819D02*
X120261904Y-124417438D01*
X120261904Y-124417438D02*
X120166666Y-124512676D01*
X120166666Y-124512676D02*
X120119047Y-124607914D01*
X120119047Y-124607914D02*
X120071428Y-124798390D01*
X120071428Y-124798390D02*
X120071428Y-124941247D01*
X120071428Y-124941247D02*
X120119047Y-125131723D01*
X120119047Y-125131723D02*
X120166666Y-125226961D01*
X120166666Y-125226961D02*
X120261904Y-125322200D01*
X120261904Y-125322200D02*
X120404761Y-125369819D01*
X120404761Y-125369819D02*
X120499999Y-125369819D01*
X120499999Y-125369819D02*
X120642856Y-125322200D01*
X120642856Y-125322200D02*
X120690475Y-125274580D01*
X120690475Y-125274580D02*
X120690475Y-124941247D01*
X120690475Y-124941247D02*
X120499999Y-124941247D01*
X121119047Y-125369819D02*
X121119047Y-124703152D01*
X121119047Y-124893628D02*
X121166666Y-124798390D01*
X121166666Y-124798390D02*
X121214285Y-124750771D01*
X121214285Y-124750771D02*
X121309523Y-124703152D01*
X121309523Y-124703152D02*
X121404761Y-124703152D01*
X122119047Y-125322200D02*
X122023809Y-125369819D01*
X122023809Y-125369819D02*
X121833333Y-125369819D01*
X121833333Y-125369819D02*
X121738095Y-125322200D01*
X121738095Y-125322200D02*
X121690476Y-125226961D01*
X121690476Y-125226961D02*
X121690476Y-124846009D01*
X121690476Y-124846009D02*
X121738095Y-124750771D01*
X121738095Y-124750771D02*
X121833333Y-124703152D01*
X121833333Y-124703152D02*
X122023809Y-124703152D01*
X122023809Y-124703152D02*
X122119047Y-124750771D01*
X122119047Y-124750771D02*
X122166666Y-124846009D01*
X122166666Y-124846009D02*
X122166666Y-124941247D01*
X122166666Y-124941247D02*
X121690476Y-125036485D01*
X122976190Y-125322200D02*
X122880952Y-125369819D01*
X122880952Y-125369819D02*
X122690476Y-125369819D01*
X122690476Y-125369819D02*
X122595238Y-125322200D01*
X122595238Y-125322200D02*
X122547619Y-125226961D01*
X122547619Y-125226961D02*
X122547619Y-124846009D01*
X122547619Y-124846009D02*
X122595238Y-124750771D01*
X122595238Y-124750771D02*
X122690476Y-124703152D01*
X122690476Y-124703152D02*
X122880952Y-124703152D01*
X122880952Y-124703152D02*
X122976190Y-124750771D01*
X122976190Y-124750771D02*
X123023809Y-124846009D01*
X123023809Y-124846009D02*
X123023809Y-124941247D01*
X123023809Y-124941247D02*
X122547619Y-125036485D01*
X123452381Y-124703152D02*
X123452381Y-125369819D01*
X123452381Y-124798390D02*
X123500000Y-124750771D01*
X123500000Y-124750771D02*
X123595238Y-124703152D01*
X123595238Y-124703152D02*
X123738095Y-124703152D01*
X123738095Y-124703152D02*
X123833333Y-124750771D01*
X123833333Y-124750771D02*
X123880952Y-124846009D01*
X123880952Y-124846009D02*
X123880952Y-125369819D01*
X160919048Y-113823866D02*
X161680953Y-113823866D01*
X161300000Y-114204819D02*
X161300000Y-113442914D01*
D11*
X157866667Y-95304600D02*
X158009524Y-95352219D01*
X158009524Y-95352219D02*
X158247619Y-95352219D01*
X158247619Y-95352219D02*
X158342857Y-95304600D01*
X158342857Y-95304600D02*
X158390476Y-95256980D01*
X158390476Y-95256980D02*
X158438095Y-95161742D01*
X158438095Y-95161742D02*
X158438095Y-95066504D01*
X158438095Y-95066504D02*
X158390476Y-94971266D01*
X158390476Y-94971266D02*
X158342857Y-94923647D01*
X158342857Y-94923647D02*
X158247619Y-94876028D01*
X158247619Y-94876028D02*
X158057143Y-94828409D01*
X158057143Y-94828409D02*
X157961905Y-94780790D01*
X157961905Y-94780790D02*
X157914286Y-94733171D01*
X157914286Y-94733171D02*
X157866667Y-94637933D01*
X157866667Y-94637933D02*
X157866667Y-94542695D01*
X157866667Y-94542695D02*
X157914286Y-94447457D01*
X157914286Y-94447457D02*
X157961905Y-94399838D01*
X157961905Y-94399838D02*
X158057143Y-94352219D01*
X158057143Y-94352219D02*
X158295238Y-94352219D01*
X158295238Y-94352219D02*
X158438095Y-94399838D01*
X158771429Y-94352219D02*
X159009524Y-95352219D01*
X159009524Y-95352219D02*
X159200000Y-94637933D01*
X159200000Y-94637933D02*
X159390476Y-95352219D01*
X159390476Y-95352219D02*
X159628572Y-94352219D01*
X160438095Y-94685552D02*
X160438095Y-95352219D01*
X160200000Y-94304600D02*
X159961905Y-95018885D01*
X159961905Y-95018885D02*
X160580952Y-95018885D01*
X109866667Y-95304600D02*
X110009524Y-95352219D01*
X110009524Y-95352219D02*
X110247619Y-95352219D01*
X110247619Y-95352219D02*
X110342857Y-95304600D01*
X110342857Y-95304600D02*
X110390476Y-95256980D01*
X110390476Y-95256980D02*
X110438095Y-95161742D01*
X110438095Y-95161742D02*
X110438095Y-95066504D01*
X110438095Y-95066504D02*
X110390476Y-94971266D01*
X110390476Y-94971266D02*
X110342857Y-94923647D01*
X110342857Y-94923647D02*
X110247619Y-94876028D01*
X110247619Y-94876028D02*
X110057143Y-94828409D01*
X110057143Y-94828409D02*
X109961905Y-94780790D01*
X109961905Y-94780790D02*
X109914286Y-94733171D01*
X109914286Y-94733171D02*
X109866667Y-94637933D01*
X109866667Y-94637933D02*
X109866667Y-94542695D01*
X109866667Y-94542695D02*
X109914286Y-94447457D01*
X109914286Y-94447457D02*
X109961905Y-94399838D01*
X109961905Y-94399838D02*
X110057143Y-94352219D01*
X110057143Y-94352219D02*
X110295238Y-94352219D01*
X110295238Y-94352219D02*
X110438095Y-94399838D01*
X110771429Y-94352219D02*
X111009524Y-95352219D01*
X111009524Y-95352219D02*
X111200000Y-94637933D01*
X111200000Y-94637933D02*
X111390476Y-95352219D01*
X111390476Y-95352219D02*
X111628572Y-94352219D01*
X111914286Y-94352219D02*
X112533333Y-94352219D01*
X112533333Y-94352219D02*
X112200000Y-94733171D01*
X112200000Y-94733171D02*
X112342857Y-94733171D01*
X112342857Y-94733171D02*
X112438095Y-94780790D01*
X112438095Y-94780790D02*
X112485714Y-94828409D01*
X112485714Y-94828409D02*
X112533333Y-94923647D01*
X112533333Y-94923647D02*
X112533333Y-95161742D01*
X112533333Y-95161742D02*
X112485714Y-95256980D01*
X112485714Y-95256980D02*
X112438095Y-95304600D01*
X112438095Y-95304600D02*
X112342857Y-95352219D01*
X112342857Y-95352219D02*
X112057143Y-95352219D01*
X112057143Y-95352219D02*
X111961905Y-95304600D01*
X111961905Y-95304600D02*
X111914286Y-95256980D01*
D10*
X161741792Y-76967200D02*
X161884649Y-77014819D01*
X161884649Y-77014819D02*
X162122744Y-77014819D01*
X162122744Y-77014819D02*
X162217982Y-76967200D01*
X162217982Y-76967200D02*
X162265601Y-76919580D01*
X162265601Y-76919580D02*
X162313220Y-76824342D01*
X162313220Y-76824342D02*
X162313220Y-76729104D01*
X162313220Y-76729104D02*
X162265601Y-76633866D01*
X162265601Y-76633866D02*
X162217982Y-76586247D01*
X162217982Y-76586247D02*
X162122744Y-76538628D01*
X162122744Y-76538628D02*
X161932268Y-76491009D01*
X161932268Y-76491009D02*
X161837030Y-76443390D01*
X161837030Y-76443390D02*
X161789411Y-76395771D01*
X161789411Y-76395771D02*
X161741792Y-76300533D01*
X161741792Y-76300533D02*
X161741792Y-76205295D01*
X161741792Y-76205295D02*
X161789411Y-76110057D01*
X161789411Y-76110057D02*
X161837030Y-76062438D01*
X161837030Y-76062438D02*
X161932268Y-76014819D01*
X161932268Y-76014819D02*
X162170363Y-76014819D01*
X162170363Y-76014819D02*
X162313220Y-76062438D01*
X163313220Y-76919580D02*
X163265601Y-76967200D01*
X163265601Y-76967200D02*
X163122744Y-77014819D01*
X163122744Y-77014819D02*
X163027506Y-77014819D01*
X163027506Y-77014819D02*
X162884649Y-76967200D01*
X162884649Y-76967200D02*
X162789411Y-76871961D01*
X162789411Y-76871961D02*
X162741792Y-76776723D01*
X162741792Y-76776723D02*
X162694173Y-76586247D01*
X162694173Y-76586247D02*
X162694173Y-76443390D01*
X162694173Y-76443390D02*
X162741792Y-76252914D01*
X162741792Y-76252914D02*
X162789411Y-76157676D01*
X162789411Y-76157676D02*
X162884649Y-76062438D01*
X162884649Y-76062438D02*
X163027506Y-76014819D01*
X163027506Y-76014819D02*
X163122744Y-76014819D01*
X163122744Y-76014819D02*
X163265601Y-76062438D01*
X163265601Y-76062438D02*
X163313220Y-76110057D01*
X163741792Y-77014819D02*
X163741792Y-76014819D01*
X164313220Y-77014819D02*
X163884649Y-76443390D01*
X164313220Y-76014819D02*
X163741792Y-76586247D01*
X162112969Y-55802438D02*
X162017731Y-55754819D01*
X162017731Y-55754819D02*
X161874874Y-55754819D01*
X161874874Y-55754819D02*
X161732017Y-55802438D01*
X161732017Y-55802438D02*
X161636779Y-55897676D01*
X161636779Y-55897676D02*
X161589160Y-55992914D01*
X161589160Y-55992914D02*
X161541541Y-56183390D01*
X161541541Y-56183390D02*
X161541541Y-56326247D01*
X161541541Y-56326247D02*
X161589160Y-56516723D01*
X161589160Y-56516723D02*
X161636779Y-56611961D01*
X161636779Y-56611961D02*
X161732017Y-56707200D01*
X161732017Y-56707200D02*
X161874874Y-56754819D01*
X161874874Y-56754819D02*
X161970112Y-56754819D01*
X161970112Y-56754819D02*
X162112969Y-56707200D01*
X162112969Y-56707200D02*
X162160588Y-56659580D01*
X162160588Y-56659580D02*
X162160588Y-56326247D01*
X162160588Y-56326247D02*
X161970112Y-56326247D01*
X162589160Y-56754819D02*
X162589160Y-55754819D01*
X162589160Y-55754819D02*
X163160588Y-56754819D01*
X163160588Y-56754819D02*
X163160588Y-55754819D01*
X163636779Y-56754819D02*
X163636779Y-55754819D01*
X163636779Y-55754819D02*
X163874874Y-55754819D01*
X163874874Y-55754819D02*
X164017731Y-55802438D01*
X164017731Y-55802438D02*
X164112969Y-55897676D01*
X164112969Y-55897676D02*
X164160588Y-55992914D01*
X164160588Y-55992914D02*
X164208207Y-56183390D01*
X164208207Y-56183390D02*
X164208207Y-56326247D01*
X164208207Y-56326247D02*
X164160588Y-56516723D01*
X164160588Y-56516723D02*
X164112969Y-56611961D01*
X164112969Y-56611961D02*
X164017731Y-56707200D01*
X164017731Y-56707200D02*
X163874874Y-56754819D01*
X163874874Y-56754819D02*
X163636779Y-56754819D01*
X162217982Y-78662438D02*
X162122744Y-78614819D01*
X162122744Y-78614819D02*
X161979887Y-78614819D01*
X161979887Y-78614819D02*
X161837030Y-78662438D01*
X161837030Y-78662438D02*
X161741792Y-78757676D01*
X161741792Y-78757676D02*
X161694173Y-78852914D01*
X161694173Y-78852914D02*
X161646554Y-79043390D01*
X161646554Y-79043390D02*
X161646554Y-79186247D01*
X161646554Y-79186247D02*
X161694173Y-79376723D01*
X161694173Y-79376723D02*
X161741792Y-79471961D01*
X161741792Y-79471961D02*
X161837030Y-79567200D01*
X161837030Y-79567200D02*
X161979887Y-79614819D01*
X161979887Y-79614819D02*
X162075125Y-79614819D01*
X162075125Y-79614819D02*
X162217982Y-79567200D01*
X162217982Y-79567200D02*
X162265601Y-79519580D01*
X162265601Y-79519580D02*
X162265601Y-79186247D01*
X162265601Y-79186247D02*
X162075125Y-79186247D01*
X162694173Y-79614819D02*
X162694173Y-78614819D01*
X162694173Y-78614819D02*
X163265601Y-79614819D01*
X163265601Y-79614819D02*
X163265601Y-78614819D01*
X163741792Y-79614819D02*
X163741792Y-78614819D01*
X163741792Y-78614819D02*
X163979887Y-78614819D01*
X163979887Y-78614819D02*
X164122744Y-78662438D01*
X164122744Y-78662438D02*
X164217982Y-78757676D01*
X164217982Y-78757676D02*
X164265601Y-78852914D01*
X164265601Y-78852914D02*
X164313220Y-79043390D01*
X164313220Y-79043390D02*
X164313220Y-79186247D01*
X164313220Y-79186247D02*
X164265601Y-79376723D01*
X164265601Y-79376723D02*
X164217982Y-79471961D01*
X164217982Y-79471961D02*
X164122744Y-79567200D01*
X164122744Y-79567200D02*
X163979887Y-79614819D01*
X163979887Y-79614819D02*
X163741792Y-79614819D01*
X104386904Y-81102438D02*
X104291666Y-81054819D01*
X104291666Y-81054819D02*
X104148809Y-81054819D01*
X104148809Y-81054819D02*
X104005952Y-81102438D01*
X104005952Y-81102438D02*
X103910714Y-81197676D01*
X103910714Y-81197676D02*
X103863095Y-81292914D01*
X103863095Y-81292914D02*
X103815476Y-81483390D01*
X103815476Y-81483390D02*
X103815476Y-81626247D01*
X103815476Y-81626247D02*
X103863095Y-81816723D01*
X103863095Y-81816723D02*
X103910714Y-81911961D01*
X103910714Y-81911961D02*
X104005952Y-82007200D01*
X104005952Y-82007200D02*
X104148809Y-82054819D01*
X104148809Y-82054819D02*
X104244047Y-82054819D01*
X104244047Y-82054819D02*
X104386904Y-82007200D01*
X104386904Y-82007200D02*
X104434523Y-81959580D01*
X104434523Y-81959580D02*
X104434523Y-81626247D01*
X104434523Y-81626247D02*
X104244047Y-81626247D01*
X104863095Y-82054819D02*
X104863095Y-81054819D01*
X104863095Y-81054819D02*
X105434523Y-82054819D01*
X105434523Y-82054819D02*
X105434523Y-81054819D01*
X105910714Y-82054819D02*
X105910714Y-81054819D01*
X105910714Y-81054819D02*
X106148809Y-81054819D01*
X106148809Y-81054819D02*
X106291666Y-81102438D01*
X106291666Y-81102438D02*
X106386904Y-81197676D01*
X106386904Y-81197676D02*
X106434523Y-81292914D01*
X106434523Y-81292914D02*
X106482142Y-81483390D01*
X106482142Y-81483390D02*
X106482142Y-81626247D01*
X106482142Y-81626247D02*
X106434523Y-81816723D01*
X106434523Y-81816723D02*
X106386904Y-81911961D01*
X106386904Y-81911961D02*
X106291666Y-82007200D01*
X106291666Y-82007200D02*
X106148809Y-82054819D01*
X106148809Y-82054819D02*
X105910714Y-82054819D01*
X163255826Y-59154819D02*
X162922493Y-58678628D01*
X162684398Y-59154819D02*
X162684398Y-58154819D01*
X162684398Y-58154819D02*
X163065350Y-58154819D01*
X163065350Y-58154819D02*
X163160588Y-58202438D01*
X163160588Y-58202438D02*
X163208207Y-58250057D01*
X163208207Y-58250057D02*
X163255826Y-58345295D01*
X163255826Y-58345295D02*
X163255826Y-58488152D01*
X163255826Y-58488152D02*
X163208207Y-58583390D01*
X163208207Y-58583390D02*
X163160588Y-58631009D01*
X163160588Y-58631009D02*
X163065350Y-58678628D01*
X163065350Y-58678628D02*
X162684398Y-58678628D01*
X163636779Y-59107200D02*
X163779636Y-59154819D01*
X163779636Y-59154819D02*
X164017731Y-59154819D01*
X164017731Y-59154819D02*
X164112969Y-59107200D01*
X164112969Y-59107200D02*
X164160588Y-59059580D01*
X164160588Y-59059580D02*
X164208207Y-58964342D01*
X164208207Y-58964342D02*
X164208207Y-58869104D01*
X164208207Y-58869104D02*
X164160588Y-58773866D01*
X164160588Y-58773866D02*
X164112969Y-58726247D01*
X164112969Y-58726247D02*
X164017731Y-58678628D01*
X164017731Y-58678628D02*
X163827255Y-58631009D01*
X163827255Y-58631009D02*
X163732017Y-58583390D01*
X163732017Y-58583390D02*
X163684398Y-58535771D01*
X163684398Y-58535771D02*
X163636779Y-58440533D01*
X163636779Y-58440533D02*
X163636779Y-58345295D01*
X163636779Y-58345295D02*
X163684398Y-58250057D01*
X163684398Y-58250057D02*
X163732017Y-58202438D01*
X163732017Y-58202438D02*
X163827255Y-58154819D01*
X163827255Y-58154819D02*
X164065350Y-58154819D01*
X164065350Y-58154819D02*
X164208207Y-58202438D01*
X104360588Y-53302438D02*
X104265350Y-53254819D01*
X104265350Y-53254819D02*
X104122493Y-53254819D01*
X104122493Y-53254819D02*
X103979636Y-53302438D01*
X103979636Y-53302438D02*
X103884398Y-53397676D01*
X103884398Y-53397676D02*
X103836779Y-53492914D01*
X103836779Y-53492914D02*
X103789160Y-53683390D01*
X103789160Y-53683390D02*
X103789160Y-53826247D01*
X103789160Y-53826247D02*
X103836779Y-54016723D01*
X103836779Y-54016723D02*
X103884398Y-54111961D01*
X103884398Y-54111961D02*
X103979636Y-54207200D01*
X103979636Y-54207200D02*
X104122493Y-54254819D01*
X104122493Y-54254819D02*
X104217731Y-54254819D01*
X104217731Y-54254819D02*
X104360588Y-54207200D01*
X104360588Y-54207200D02*
X104408207Y-54159580D01*
X104408207Y-54159580D02*
X104408207Y-53826247D01*
X104408207Y-53826247D02*
X104217731Y-53826247D01*
X104836779Y-54254819D02*
X104836779Y-53254819D01*
X104836779Y-53254819D02*
X105408207Y-54254819D01*
X105408207Y-54254819D02*
X105408207Y-53254819D01*
X105884398Y-54254819D02*
X105884398Y-53254819D01*
X105884398Y-53254819D02*
X106122493Y-53254819D01*
X106122493Y-53254819D02*
X106265350Y-53302438D01*
X106265350Y-53302438D02*
X106360588Y-53397676D01*
X106360588Y-53397676D02*
X106408207Y-53492914D01*
X106408207Y-53492914D02*
X106455826Y-53683390D01*
X106455826Y-53683390D02*
X106455826Y-53826247D01*
X106455826Y-53826247D02*
X106408207Y-54016723D01*
X106408207Y-54016723D02*
X106360588Y-54111961D01*
X106360588Y-54111961D02*
X106265350Y-54207200D01*
X106265350Y-54207200D02*
X106122493Y-54254819D01*
X106122493Y-54254819D02*
X105884398Y-54254819D01*
X162636779Y-54154819D02*
X162636779Y-53154819D01*
X162636779Y-53154819D02*
X162874874Y-53154819D01*
X162874874Y-53154819D02*
X163017731Y-53202438D01*
X163017731Y-53202438D02*
X163112969Y-53297676D01*
X163112969Y-53297676D02*
X163160588Y-53392914D01*
X163160588Y-53392914D02*
X163208207Y-53583390D01*
X163208207Y-53583390D02*
X163208207Y-53726247D01*
X163208207Y-53726247D02*
X163160588Y-53916723D01*
X163160588Y-53916723D02*
X163112969Y-54011961D01*
X163112969Y-54011961D02*
X163017731Y-54107200D01*
X163017731Y-54107200D02*
X162874874Y-54154819D01*
X162874874Y-54154819D02*
X162636779Y-54154819D01*
X164208207Y-54059580D02*
X164160588Y-54107200D01*
X164160588Y-54107200D02*
X164017731Y-54154819D01*
X164017731Y-54154819D02*
X163922493Y-54154819D01*
X163922493Y-54154819D02*
X163779636Y-54107200D01*
X163779636Y-54107200D02*
X163684398Y-54011961D01*
X163684398Y-54011961D02*
X163636779Y-53916723D01*
X163636779Y-53916723D02*
X163589160Y-53726247D01*
X163589160Y-53726247D02*
X163589160Y-53583390D01*
X163589160Y-53583390D02*
X163636779Y-53392914D01*
X163636779Y-53392914D02*
X163684398Y-53297676D01*
X163684398Y-53297676D02*
X163779636Y-53202438D01*
X163779636Y-53202438D02*
X163922493Y-53154819D01*
X163922493Y-53154819D02*
X164017731Y-53154819D01*
X164017731Y-53154819D02*
X164160588Y-53202438D01*
X164160588Y-53202438D02*
X164208207Y-53250057D01*
X104170112Y-56131009D02*
X104312969Y-56178628D01*
X104312969Y-56178628D02*
X104360588Y-56226247D01*
X104360588Y-56226247D02*
X104408207Y-56321485D01*
X104408207Y-56321485D02*
X104408207Y-56464342D01*
X104408207Y-56464342D02*
X104360588Y-56559580D01*
X104360588Y-56559580D02*
X104312969Y-56607200D01*
X104312969Y-56607200D02*
X104217731Y-56654819D01*
X104217731Y-56654819D02*
X103836779Y-56654819D01*
X103836779Y-56654819D02*
X103836779Y-55654819D01*
X103836779Y-55654819D02*
X104170112Y-55654819D01*
X104170112Y-55654819D02*
X104265350Y-55702438D01*
X104265350Y-55702438D02*
X104312969Y-55750057D01*
X104312969Y-55750057D02*
X104360588Y-55845295D01*
X104360588Y-55845295D02*
X104360588Y-55940533D01*
X104360588Y-55940533D02*
X104312969Y-56035771D01*
X104312969Y-56035771D02*
X104265350Y-56083390D01*
X104265350Y-56083390D02*
X104170112Y-56131009D01*
X104170112Y-56131009D02*
X103836779Y-56131009D01*
X105312969Y-56654819D02*
X104836779Y-56654819D01*
X104836779Y-56654819D02*
X104836779Y-55654819D01*
X161122745Y-82114819D02*
X161122745Y-81114819D01*
X161122745Y-81114819D02*
X161456078Y-81829104D01*
X161456078Y-81829104D02*
X161789411Y-81114819D01*
X161789411Y-81114819D02*
X161789411Y-82114819D01*
X162456078Y-81114819D02*
X162646554Y-81114819D01*
X162646554Y-81114819D02*
X162741792Y-81162438D01*
X162741792Y-81162438D02*
X162837030Y-81257676D01*
X162837030Y-81257676D02*
X162884649Y-81448152D01*
X162884649Y-81448152D02*
X162884649Y-81781485D01*
X162884649Y-81781485D02*
X162837030Y-81971961D01*
X162837030Y-81971961D02*
X162741792Y-82067200D01*
X162741792Y-82067200D02*
X162646554Y-82114819D01*
X162646554Y-82114819D02*
X162456078Y-82114819D01*
X162456078Y-82114819D02*
X162360840Y-82067200D01*
X162360840Y-82067200D02*
X162265602Y-81971961D01*
X162265602Y-81971961D02*
X162217983Y-81781485D01*
X162217983Y-81781485D02*
X162217983Y-81448152D01*
X162217983Y-81448152D02*
X162265602Y-81257676D01*
X162265602Y-81257676D02*
X162360840Y-81162438D01*
X162360840Y-81162438D02*
X162456078Y-81114819D01*
X163265602Y-82067200D02*
X163408459Y-82114819D01*
X163408459Y-82114819D02*
X163646554Y-82114819D01*
X163646554Y-82114819D02*
X163741792Y-82067200D01*
X163741792Y-82067200D02*
X163789411Y-82019580D01*
X163789411Y-82019580D02*
X163837030Y-81924342D01*
X163837030Y-81924342D02*
X163837030Y-81829104D01*
X163837030Y-81829104D02*
X163789411Y-81733866D01*
X163789411Y-81733866D02*
X163741792Y-81686247D01*
X163741792Y-81686247D02*
X163646554Y-81638628D01*
X163646554Y-81638628D02*
X163456078Y-81591009D01*
X163456078Y-81591009D02*
X163360840Y-81543390D01*
X163360840Y-81543390D02*
X163313221Y-81495771D01*
X163313221Y-81495771D02*
X163265602Y-81400533D01*
X163265602Y-81400533D02*
X163265602Y-81305295D01*
X163265602Y-81305295D02*
X163313221Y-81210057D01*
X163313221Y-81210057D02*
X163360840Y-81162438D01*
X163360840Y-81162438D02*
X163456078Y-81114819D01*
X163456078Y-81114819D02*
X163694173Y-81114819D01*
X163694173Y-81114819D02*
X163837030Y-81162438D01*
X164265602Y-82114819D02*
X164265602Y-81114819D01*
X103767857Y-83654819D02*
X104386904Y-83654819D01*
X104386904Y-83654819D02*
X104053571Y-84035771D01*
X104053571Y-84035771D02*
X104196428Y-84035771D01*
X104196428Y-84035771D02*
X104291666Y-84083390D01*
X104291666Y-84083390D02*
X104339285Y-84131009D01*
X104339285Y-84131009D02*
X104386904Y-84226247D01*
X104386904Y-84226247D02*
X104386904Y-84464342D01*
X104386904Y-84464342D02*
X104339285Y-84559580D01*
X104339285Y-84559580D02*
X104291666Y-84607200D01*
X104291666Y-84607200D02*
X104196428Y-84654819D01*
X104196428Y-84654819D02*
X103910714Y-84654819D01*
X103910714Y-84654819D02*
X103815476Y-84607200D01*
X103815476Y-84607200D02*
X103767857Y-84559580D01*
X104815476Y-84559580D02*
X104863095Y-84607200D01*
X104863095Y-84607200D02*
X104815476Y-84654819D01*
X104815476Y-84654819D02*
X104767857Y-84607200D01*
X104767857Y-84607200D02*
X104815476Y-84559580D01*
X104815476Y-84559580D02*
X104815476Y-84654819D01*
X105196428Y-83654819D02*
X105815475Y-83654819D01*
X105815475Y-83654819D02*
X105482142Y-84035771D01*
X105482142Y-84035771D02*
X105624999Y-84035771D01*
X105624999Y-84035771D02*
X105720237Y-84083390D01*
X105720237Y-84083390D02*
X105767856Y-84131009D01*
X105767856Y-84131009D02*
X105815475Y-84226247D01*
X105815475Y-84226247D02*
X105815475Y-84464342D01*
X105815475Y-84464342D02*
X105767856Y-84559580D01*
X105767856Y-84559580D02*
X105720237Y-84607200D01*
X105720237Y-84607200D02*
X105624999Y-84654819D01*
X105624999Y-84654819D02*
X105339285Y-84654819D01*
X105339285Y-84654819D02*
X105244047Y-84607200D01*
X105244047Y-84607200D02*
X105196428Y-84559580D01*
X106101190Y-83654819D02*
X106434523Y-84654819D01*
X106434523Y-84654819D02*
X106767856Y-83654819D01*
X100254819Y-134933333D02*
X100969104Y-134933333D01*
X100969104Y-134933333D02*
X101111961Y-134980952D01*
X101111961Y-134980952D02*
X101207200Y-135076190D01*
X101207200Y-135076190D02*
X101254819Y-135219047D01*
X101254819Y-135219047D02*
X101254819Y-135314285D01*
X101254819Y-134409523D02*
X101254819Y-134219047D01*
X101254819Y-134219047D02*
X101207200Y-134123809D01*
X101207200Y-134123809D02*
X101159580Y-134076190D01*
X101159580Y-134076190D02*
X101016723Y-133980952D01*
X101016723Y-133980952D02*
X100826247Y-133933333D01*
X100826247Y-133933333D02*
X100445295Y-133933333D01*
X100445295Y-133933333D02*
X100350057Y-133980952D01*
X100350057Y-133980952D02*
X100302438Y-134028571D01*
X100302438Y-134028571D02*
X100254819Y-134123809D01*
X100254819Y-134123809D02*
X100254819Y-134314285D01*
X100254819Y-134314285D02*
X100302438Y-134409523D01*
X100302438Y-134409523D02*
X100350057Y-134457142D01*
X100350057Y-134457142D02*
X100445295Y-134504761D01*
X100445295Y-134504761D02*
X100683390Y-134504761D01*
X100683390Y-134504761D02*
X100778628Y-134457142D01*
X100778628Y-134457142D02*
X100826247Y-134409523D01*
X100826247Y-134409523D02*
X100873866Y-134314285D01*
X100873866Y-134314285D02*
X100873866Y-134123809D01*
X100873866Y-134123809D02*
X100826247Y-134028571D01*
X100826247Y-134028571D02*
X100778628Y-133980952D01*
X100778628Y-133980952D02*
X100683390Y-133933333D01*
X100254819Y-148609523D02*
X100969104Y-148609523D01*
X100969104Y-148609523D02*
X101111961Y-148657142D01*
X101111961Y-148657142D02*
X101207200Y-148752380D01*
X101207200Y-148752380D02*
X101254819Y-148895237D01*
X101254819Y-148895237D02*
X101254819Y-148990475D01*
X101254819Y-147609523D02*
X101254819Y-148180951D01*
X101254819Y-147895237D02*
X100254819Y-147895237D01*
X100254819Y-147895237D02*
X100397676Y-147990475D01*
X100397676Y-147990475D02*
X100492914Y-148085713D01*
X100492914Y-148085713D02*
X100540533Y-148180951D01*
X100254819Y-146990475D02*
X100254819Y-146895237D01*
X100254819Y-146895237D02*
X100302438Y-146799999D01*
X100302438Y-146799999D02*
X100350057Y-146752380D01*
X100350057Y-146752380D02*
X100445295Y-146704761D01*
X100445295Y-146704761D02*
X100635771Y-146657142D01*
X100635771Y-146657142D02*
X100873866Y-146657142D01*
X100873866Y-146657142D02*
X101064342Y-146704761D01*
X101064342Y-146704761D02*
X101159580Y-146752380D01*
X101159580Y-146752380D02*
X101207200Y-146799999D01*
X101207200Y-146799999D02*
X101254819Y-146895237D01*
X101254819Y-146895237D02*
X101254819Y-146990475D01*
X101254819Y-146990475D02*
X101207200Y-147085713D01*
X101207200Y-147085713D02*
X101159580Y-147133332D01*
X101159580Y-147133332D02*
X101064342Y-147180951D01*
X101064342Y-147180951D02*
X100873866Y-147228570D01*
X100873866Y-147228570D02*
X100635771Y-147228570D01*
X100635771Y-147228570D02*
X100445295Y-147180951D01*
X100445295Y-147180951D02*
X100350057Y-147133332D01*
X100350057Y-147133332D02*
X100302438Y-147085713D01*
X100302438Y-147085713D02*
X100254819Y-146990475D01*
%TO.C,J4*%
X116000000Y-127500000D02*
X126500000Y-127500000D01*
X116000000Y-136500000D02*
X116000000Y-127500000D01*
X116000000Y-136500000D02*
X126500000Y-136500000D01*
X120095000Y-133905000D02*
X120095000Y-130095000D01*
X123905000Y-130095000D02*
X123905000Y-133905000D01*
X125810000Y-130095000D02*
X125810000Y-127555000D01*
X125810000Y-133905000D02*
X126445000Y-133905000D01*
X125810000Y-136445000D02*
X125810000Y-133905000D01*
X126445000Y-130095000D02*
X125810000Y-130095000D01*
X126445000Y-133905000D02*
X126445000Y-130095000D01*
X126500000Y-136500000D02*
X126500000Y-127500000D01*
X120095000Y-130095000D02*
G75*
G02*
X123905000Y-130095000I1905000J-1905000D01*
G01*
X123905000Y-133905000D02*
G75*
G02*
X120095000Y-133905000I-1905000J1904999D01*
G01*
X123796051Y-132000000D02*
G75*
G02*
X120203949Y-132000000I-1796051J0D01*
G01*
X120203949Y-132000000D02*
G75*
G02*
X123796051Y-132000000I1796051J0D01*
G01*
%TO.C,J5*%
X131000000Y-127500000D02*
X141500000Y-127500000D01*
X131000000Y-136500000D02*
X131000000Y-127500000D01*
X131000000Y-136500000D02*
X141500000Y-136500000D01*
X135095000Y-133905000D02*
X135095000Y-130095000D01*
X138905000Y-130095000D02*
X138905000Y-133905000D01*
X140810000Y-130095000D02*
X140810000Y-127555000D01*
X140810000Y-133905000D02*
X141445000Y-133905000D01*
X140810000Y-136445000D02*
X140810000Y-133905000D01*
X141445000Y-130095000D02*
X140810000Y-130095000D01*
X141445000Y-133905000D02*
X141445000Y-130095000D01*
X141500000Y-136500000D02*
X141500000Y-127500000D01*
X135095000Y-130095000D02*
G75*
G02*
X138905000Y-130095000I1905000J-1905000D01*
G01*
X138905000Y-133905000D02*
G75*
G02*
X135095000Y-133905000I-1905000J1904999D01*
G01*
X138796051Y-132000000D02*
G75*
G02*
X135203949Y-132000000I-1796051J0D01*
G01*
X135203949Y-132000000D02*
G75*
G02*
X138796051Y-132000000I1796051J0D01*
G01*
%TO.C,J7*%
X116000000Y-140700000D02*
X126500000Y-140700000D01*
X116000000Y-149700000D02*
X116000000Y-140700000D01*
X116000000Y-149700000D02*
X126500000Y-149700000D01*
X120095000Y-147105000D02*
X120095000Y-143295000D01*
X123905000Y-143295000D02*
X123905000Y-147105000D01*
X125810000Y-143295000D02*
X125810000Y-140755000D01*
X125810000Y-147105000D02*
X126445000Y-147105000D01*
X125810000Y-149645000D02*
X125810000Y-147105000D01*
X126445000Y-143295000D02*
X125810000Y-143295000D01*
X126445000Y-147105000D02*
X126445000Y-143295000D01*
X126500000Y-149700000D02*
X126500000Y-140700000D01*
X120095000Y-143295000D02*
G75*
G02*
X123905000Y-143295000I1905000J-1905000D01*
G01*
X123905000Y-147105000D02*
G75*
G02*
X120095000Y-147105000I-1905000J1904999D01*
G01*
X123796051Y-145200000D02*
G75*
G02*
X120203949Y-145200000I-1796051J0D01*
G01*
X120203949Y-145200000D02*
G75*
G02*
X123796051Y-145200000I1796051J0D01*
G01*
%TO.C,J8*%
X131000000Y-140700000D02*
X141500000Y-140700000D01*
X131000000Y-149700000D02*
X131000000Y-140700000D01*
X131000000Y-149700000D02*
X141500000Y-149700000D01*
X135095000Y-147105000D02*
X135095000Y-143295000D01*
X138905000Y-143295000D02*
X138905000Y-147105000D01*
X140810000Y-143295000D02*
X140810000Y-140755000D01*
X140810000Y-147105000D02*
X141445000Y-147105000D01*
X140810000Y-149645000D02*
X140810000Y-147105000D01*
X141445000Y-143295000D02*
X140810000Y-143295000D01*
X141445000Y-147105000D02*
X141445000Y-143295000D01*
X141500000Y-149700000D02*
X141500000Y-140700000D01*
X135095000Y-143295000D02*
G75*
G02*
X138905000Y-143295000I1905000J-1905000D01*
G01*
X138905000Y-147105000D02*
G75*
G02*
X135095000Y-147105000I-1905000J1904999D01*
G01*
X138796051Y-145200000D02*
G75*
G02*
X135203949Y-145200000I-1796051J0D01*
G01*
X135203949Y-145200000D02*
G75*
G02*
X138796051Y-145200000I1796051J0D01*
G01*
%TO.C,J6*%
X146000000Y-140700000D02*
X156500000Y-140700000D01*
X146000000Y-149700000D02*
X146000000Y-140700000D01*
X146000000Y-149700000D02*
X156500000Y-149700000D01*
X150095000Y-147105000D02*
X150095000Y-143295000D01*
X153905000Y-143295000D02*
X153905000Y-147105000D01*
X155810000Y-143295000D02*
X155810000Y-140755000D01*
X155810000Y-147105000D02*
X156445000Y-147105000D01*
X155810000Y-149645000D02*
X155810000Y-147105000D01*
X156445000Y-143295000D02*
X155810000Y-143295000D01*
X156445000Y-147105000D02*
X156445000Y-143295000D01*
X156500000Y-149700000D02*
X156500000Y-140700000D01*
X150095000Y-143295000D02*
G75*
G02*
X153905000Y-143295000I1905000J-1905000D01*
G01*
X153905000Y-147105000D02*
G75*
G02*
X150095000Y-147105000I-1905000J1904999D01*
G01*
X153796051Y-145200000D02*
G75*
G02*
X150203949Y-145200000I-1796051J0D01*
G01*
X150203949Y-145200000D02*
G75*
G02*
X153796051Y-145200000I1796051J0D01*
G01*
D11*
%TO.C,SW4*%
X153000000Y-101700000D02*
X153000000Y-98200000D01*
X153000000Y-109800000D02*
X153000000Y-106300000D01*
X153800000Y-97400000D02*
X155600000Y-97400000D01*
X153800000Y-110600000D02*
X155900000Y-110600000D01*
X156600000Y-102500000D02*
X161800000Y-102500000D01*
X158050000Y-97400000D02*
X160400000Y-97400000D01*
X162500000Y-110600000D02*
X164600000Y-110600000D01*
X162800000Y-97400000D02*
X164600000Y-97400000D01*
X165400000Y-98200000D02*
X165400000Y-101700000D01*
X165400000Y-106300000D02*
X165400000Y-109800000D01*
X153000000Y-98200000D02*
G75*
G02*
X153800000Y-97400000I800001J-1D01*
G01*
X153800000Y-110600000D02*
G75*
G02*
X153000000Y-109800000I1J800001D01*
G01*
X164600000Y-97400000D02*
G75*
G02*
X165400000Y-98200000I0J-800000D01*
G01*
X165400000Y-109800000D02*
G75*
G02*
X164600000Y-110600000I-800000J0D01*
G01*
X155600000Y-98950000D02*
G75*
G02*
X154600000Y-98950000I-500000J0D01*
G01*
X154600000Y-98950000D02*
G75*
G02*
X155600000Y-98950000I500000J0D01*
G01*
X155600000Y-109150000D02*
G75*
G02*
X154600000Y-109150000I-500000J0D01*
G01*
X154600000Y-109150000D02*
G75*
G02*
X155600000Y-109150000I500000J0D01*
G01*
X162200000Y-104000000D02*
G75*
G02*
X156200000Y-104000000I-3000000J0D01*
G01*
X156200000Y-104000000D02*
G75*
G02*
X162200000Y-104000000I3000000J0D01*
G01*
X163800000Y-98950000D02*
G75*
G02*
X162800000Y-98950000I-500000J0D01*
G01*
X162800000Y-98950000D02*
G75*
G02*
X163800000Y-98950000I500000J0D01*
G01*
X163800000Y-109150000D02*
G75*
G02*
X162800000Y-109150000I-500000J0D01*
G01*
X162800000Y-109150000D02*
G75*
G02*
X163800000Y-109150000I500000J0D01*
G01*
%TO.C,SW3*%
X105000000Y-101700000D02*
X105000000Y-98200000D01*
X105000000Y-109800000D02*
X105000000Y-106300000D01*
X105800000Y-97400000D02*
X107600000Y-97400000D01*
X105800000Y-110600000D02*
X107900000Y-110600000D01*
X108600000Y-102500000D02*
X113800000Y-102500000D01*
X110050000Y-97400000D02*
X112400000Y-97400000D01*
X114500000Y-110600000D02*
X116600000Y-110600000D01*
X114800000Y-97400000D02*
X116600000Y-97400000D01*
X117400000Y-98200000D02*
X117400000Y-101700000D01*
X117400000Y-106300000D02*
X117400000Y-109800000D01*
X105000000Y-98200000D02*
G75*
G02*
X105800000Y-97400000I800001J-1D01*
G01*
X105800000Y-110600000D02*
G75*
G02*
X105000000Y-109800000I1J800001D01*
G01*
X116600000Y-97400000D02*
G75*
G02*
X117400000Y-98200000I0J-800000D01*
G01*
X117400000Y-109800000D02*
G75*
G02*
X116600000Y-110600000I-800000J0D01*
G01*
X107600000Y-98950000D02*
G75*
G02*
X106600000Y-98950000I-500000J0D01*
G01*
X106600000Y-98950000D02*
G75*
G02*
X107600000Y-98950000I500000J0D01*
G01*
X107600000Y-109150000D02*
G75*
G02*
X106600000Y-109150000I-500000J0D01*
G01*
X106600000Y-109150000D02*
G75*
G02*
X107600000Y-109150000I500000J0D01*
G01*
X114200000Y-104000000D02*
G75*
G02*
X108200000Y-104000000I-3000000J0D01*
G01*
X108200000Y-104000000D02*
G75*
G02*
X114200000Y-104000000I3000000J0D01*
G01*
X115800000Y-98950000D02*
G75*
G02*
X114800000Y-98950000I-500000J0D01*
G01*
X114800000Y-98950000D02*
G75*
G02*
X115800000Y-98950000I500000J0D01*
G01*
X115800000Y-109150000D02*
G75*
G02*
X114800000Y-109150000I-500000J0D01*
G01*
X114800000Y-109150000D02*
G75*
G02*
X115800000Y-109150000I500000J0D01*
G01*
%TO.C,U2*%
D12*
X101100000Y-52700000D02*
X103100000Y-52700000D01*
X103100000Y-57300000D01*
X101100000Y-57300000D01*
X101100000Y-52700000D01*
X101100000Y-80700000D02*
X103100000Y-80700000D01*
X103100000Y-85300000D01*
X101100000Y-85300000D01*
X101100000Y-80700000D01*
X165000000Y-52700000D02*
X167100000Y-52700000D01*
X167100000Y-59800000D01*
X165000000Y-59800000D01*
X165000000Y-52700000D01*
X165000000Y-75600000D02*
X167100000Y-75600000D01*
X167100000Y-82700000D01*
X165000000Y-82700000D01*
X165000000Y-75600000D01*
D10*
%TO.C,J3*%
X146000000Y-127500000D02*
X156500000Y-127500000D01*
X146000000Y-136500000D02*
X146000000Y-127500000D01*
X146000000Y-136500000D02*
X156500000Y-136500000D01*
X150095000Y-133905000D02*
X150095000Y-130095000D01*
X153905000Y-130095000D02*
X153905000Y-133905000D01*
X155810000Y-130095000D02*
X155810000Y-127555000D01*
X155810000Y-133905000D02*
X156445000Y-133905000D01*
X155810000Y-136445000D02*
X155810000Y-133905000D01*
X156445000Y-130095000D02*
X155810000Y-130095000D01*
X156445000Y-133905000D02*
X156445000Y-130095000D01*
X156500000Y-136500000D02*
X156500000Y-127500000D01*
X150095000Y-130095000D02*
G75*
G02*
X153905000Y-130095000I1905000J-1905000D01*
G01*
X153905000Y-133905000D02*
G75*
G02*
X150095000Y-133905000I-1905000J1904999D01*
G01*
X153796051Y-132000000D02*
G75*
G02*
X150203949Y-132000000I-1796051J0D01*
G01*
X150203949Y-132000000D02*
G75*
G02*
X153796051Y-132000000I1796051J0D01*
G01*
D11*
%TO.C,J9*%
X101600000Y-130400000D02*
X101600000Y-127500000D01*
X101600000Y-136500000D02*
X101600000Y-133600000D01*
X112100000Y-127500000D02*
X101600000Y-127500000D01*
X112100000Y-130500000D02*
X112100000Y-127500000D01*
X112100000Y-136500000D02*
X101600000Y-136500000D01*
X112100000Y-136500000D02*
X112100000Y-133500000D01*
D12*
X110100000Y-133450000D02*
G75*
G02*
X110126375Y-130596458I-2498381J1449985D01*
G01*
X109400000Y-132000000D02*
G75*
G02*
X105800000Y-132000000I-1800000J0D01*
G01*
X105800000Y-132000000D02*
G75*
G02*
X109400000Y-132000000I1800000J0D01*
G01*
%TO.C,SW1*%
X160750000Y-128950000D02*
X160750000Y-133450000D01*
X163250000Y-134700000D02*
X164750000Y-134700000D01*
X164750000Y-127700000D02*
X163250000Y-127700000D01*
X167250000Y-133450000D02*
X167250000Y-128950000D01*
D13*
%TO.C,BTN2*%
X133250000Y-116500000D02*
X133250000Y-123500000D01*
X133500000Y-123750000D02*
X140500000Y-123750000D01*
X135500000Y-120250000D02*
X135500000Y-119750000D01*
X135750000Y-120000000D02*
X135250000Y-120000000D01*
X138750000Y-120000000D02*
X138250000Y-120000000D01*
X140500000Y-116250000D02*
X133500000Y-116250000D01*
X140750000Y-123500000D02*
X140750000Y-116500000D01*
X133250000Y-116500000D02*
G75*
G02*
X133500000Y-116250000I250000J0D01*
G01*
X133500000Y-123750000D02*
G75*
G02*
X133250000Y-123500000I0J250000D01*
G01*
X134726620Y-118958970D02*
G75*
G02*
X136300000Y-117599583I2273380J-1041030D01*
G01*
X137700000Y-117600000D02*
G75*
G02*
X139281044Y-118976849I-700000J-2400000D01*
G01*
X139250000Y-121000000D02*
G75*
G02*
X134736868Y-120969914I-2250000J999999D01*
G01*
X140500000Y-116250000D02*
G75*
G02*
X140750000Y-116500000I1J-249999D01*
G01*
X140750000Y-123500000D02*
G75*
G02*
X140500000Y-123750000I-249999J-1D01*
G01*
%TO.C,BTN3*%
X148250000Y-116500000D02*
X148250000Y-123500000D01*
X148500000Y-123750000D02*
X155500000Y-123750000D01*
X150250000Y-120000000D02*
X150750000Y-120000000D01*
X153250000Y-120000000D02*
X153750000Y-120000000D01*
X153500000Y-119750000D02*
X153500000Y-120250000D01*
X155500000Y-116250000D02*
X148500000Y-116250000D01*
X155750000Y-123500000D02*
X155750000Y-116500000D01*
X148250000Y-116500000D02*
G75*
G02*
X148500000Y-116250000I249999J1D01*
G01*
X148500000Y-123750000D02*
G75*
G02*
X148250000Y-123500000I-1J249999D01*
G01*
X149750000Y-119000000D02*
G75*
G02*
X154263132Y-119030086I2250000J-999999D01*
G01*
X151300000Y-122400000D02*
G75*
G02*
X149718956Y-121023151I700000J2400000D01*
G01*
X154273380Y-121041030D02*
G75*
G02*
X152700000Y-122400417I-2273380J1041030D01*
G01*
X155500000Y-116250000D02*
G75*
G02*
X155750000Y-116500000I0J-250000D01*
G01*
X155750000Y-123500000D02*
G75*
G02*
X155500000Y-123750000I-250000J0D01*
G01*
%TO.C,BTN1*%
X118250000Y-116500000D02*
X118250000Y-123500000D01*
X118500000Y-123750000D02*
X125500000Y-123750000D01*
X120500000Y-120250000D02*
X120500000Y-119750000D01*
X120750000Y-120000000D02*
X120250000Y-120000000D01*
X123750000Y-120000000D02*
X123250000Y-120000000D01*
X125500000Y-116250000D02*
X118500000Y-116250000D01*
X125750000Y-123500000D02*
X125750000Y-116500000D01*
X118250000Y-116500000D02*
G75*
G02*
X118500000Y-116250000I250000J0D01*
G01*
X118500000Y-123750000D02*
G75*
G02*
X118250000Y-123500000I0J250000D01*
G01*
X119726620Y-118958970D02*
G75*
G02*
X121300000Y-117599583I2273380J-1041030D01*
G01*
X122700000Y-117600000D02*
G75*
G02*
X124281044Y-118976849I-700000J-2400000D01*
G01*
X124250000Y-121000000D02*
G75*
G02*
X119736868Y-120969914I-2250000J999999D01*
G01*
X125500000Y-116250000D02*
G75*
G02*
X125750000Y-116500000I1J-249999D01*
G01*
X125750000Y-123500000D02*
G75*
G02*
X125500000Y-123750000I-249999J-1D01*
G01*
D12*
%TO.C,J11*%
X160400000Y-138400000D02*
X160400000Y-139300000D01*
X160400000Y-148900000D02*
X160400000Y-149800000D01*
X167800000Y-138400000D02*
X160400000Y-138400000D01*
X167800000Y-138400000D02*
X167800000Y-139300000D01*
X167800000Y-148900000D02*
X167800000Y-149800000D01*
X167800000Y-149800000D02*
X160400000Y-149800000D01*
X167861803Y-141350000D02*
G75*
G02*
X167638197Y-141350000I-111803J0D01*
G01*
X167638197Y-141350000D02*
G75*
G02*
X167861803Y-141350000I111803J0D01*
G01*
D11*
%TO.C,J10*%
X101600000Y-143600000D02*
X101600000Y-140700000D01*
X101600000Y-149700000D02*
X101600000Y-146800000D01*
X112100000Y-140700000D02*
X101600000Y-140700000D01*
X112100000Y-143700000D02*
X112100000Y-140700000D01*
X112100000Y-149700000D02*
X101600000Y-149700000D01*
X112100000Y-149700000D02*
X112100000Y-146700000D01*
D12*
X110100000Y-146650000D02*
G75*
G02*
X110126375Y-143796458I-2498381J1449985D01*
G01*
X109400000Y-145200000D02*
G75*
G02*
X105800000Y-145200000I-1800000J0D01*
G01*
X105800000Y-145200000D02*
G75*
G02*
X109400000Y-145200000I1800000J0D01*
G01*
%TO.C,SW2*%
X132250000Y-98750000D02*
X132250000Y-103250000D01*
X134750000Y-104500000D02*
X136250000Y-104500000D01*
X136250000Y-97500000D02*
X134750000Y-97500000D01*
X138750000Y-103250000D02*
X138750000Y-98750000D01*
%TD*%
%LPC*%
D11*
X147000000Y-50000000D02*
X155200000Y-50000000D01*
X155200000Y-58200000D01*
X147000000Y-58200000D01*
X147000000Y-50000000D01*
G36*
X147000000Y-50000000D02*
G01*
X155200000Y-50000000D01*
X155200000Y-58200000D01*
X147000000Y-58200000D01*
X147000000Y-50000000D01*
G37*
D14*
%TO.C,J4*%
X122000000Y-132000000D03*
D15*
X128480000Y-132000000D03*
X125380000Y-132000000D03*
X117080000Y-132000000D03*
%TD*%
D14*
%TO.C,J5*%
X137000000Y-132000000D03*
D15*
X143480000Y-132000000D03*
X140380000Y-132000000D03*
X132080000Y-132000000D03*
%TD*%
D14*
%TO.C,J7*%
X122000000Y-145200000D03*
D15*
X128480000Y-145200000D03*
X125380000Y-145200000D03*
X117080000Y-145200000D03*
%TD*%
D14*
%TO.C,J8*%
X137000000Y-145200000D03*
D15*
X143480000Y-145200000D03*
X140380000Y-145200000D03*
X132080000Y-145200000D03*
%TD*%
D14*
%TO.C,J6*%
X152000000Y-145200000D03*
D15*
X158480000Y-145200000D03*
X155380000Y-145200000D03*
X147080000Y-145200000D03*
%TD*%
D16*
%TO.C,SW4*%
X156700000Y-111500000D03*
X161700000Y-111500000D03*
X159200000Y-111500000D03*
X156700000Y-97000000D03*
X161700000Y-97000000D03*
D17*
X153000000Y-104000000D03*
X165400000Y-104000000D03*
%TD*%
D16*
%TO.C,SW3*%
X108700000Y-111500000D03*
X113700000Y-111500000D03*
X111200000Y-111500000D03*
X108700000Y-97000000D03*
X113700000Y-97000000D03*
D17*
X105000000Y-104000000D03*
X117400000Y-104000000D03*
%TD*%
D18*
%TO.C,U2*%
X166000000Y-53700000D03*
D19*
X166000000Y-56240000D03*
X166000000Y-58780000D03*
D18*
X166000000Y-76600000D03*
D19*
X166000000Y-79140000D03*
X166000000Y-81680000D03*
D18*
X102100000Y-53700000D03*
D19*
X102100000Y-56240000D03*
X102100000Y-81700000D03*
X102100000Y-84240000D03*
%TD*%
D14*
%TO.C,J3*%
X152000000Y-132000000D03*
D15*
X158480000Y-132000000D03*
X155380000Y-132000000D03*
X147080000Y-132000000D03*
%TD*%
D20*
%TO.C,J9*%
X110980000Y-132000000D03*
X114080000Y-132000000D03*
X102680000Y-132000000D03*
%TD*%
D21*
%TO.C,SW1*%
X166250000Y-127950000D03*
X166250000Y-134450000D03*
X161750000Y-127950000D03*
X161750000Y-134450000D03*
%TD*%
D22*
%TO.C,BTN2*%
X137000000Y-117460000D03*
D23*
X134460000Y-122540000D03*
X139540000Y-122540000D03*
X134460000Y-117460000D03*
X139540000Y-117460000D03*
X134300000Y-120000000D03*
X139700000Y-120000000D03*
%TD*%
D22*
%TO.C,BTN3*%
X152000000Y-122540000D03*
D23*
X154540000Y-117460000D03*
X149460000Y-117460000D03*
X154540000Y-122540000D03*
X149460000Y-122540000D03*
X154700000Y-120000000D03*
X149300000Y-120000000D03*
%TD*%
D21*
%TO.C,TP2*%
X110100000Y-60400000D03*
%TD*%
%TO.C,TP1*%
X105900000Y-60400000D03*
%TD*%
D22*
%TO.C,BTN1*%
X122000000Y-117460000D03*
D23*
X119460000Y-122540000D03*
X124540000Y-122540000D03*
X119460000Y-117460000D03*
X124540000Y-117460000D03*
X119300000Y-120000000D03*
X124700000Y-120000000D03*
%TD*%
D21*
%TO.C,TP4*%
X102000000Y-69200000D03*
%TD*%
%TO.C,TP3*%
X162300000Y-118600000D03*
%TD*%
%TO.C,TP5*%
X102000000Y-60400000D03*
%TD*%
D24*
%TO.C,J11*%
X164100000Y-140325000D03*
X164100000Y-147875000D03*
D25*
X166400000Y-141350000D03*
X166400000Y-141850000D03*
X166400000Y-142350000D03*
X166400000Y-142850000D03*
X166400000Y-143350000D03*
X166400000Y-143850000D03*
X166400000Y-144350000D03*
X166400000Y-144850000D03*
X166400000Y-145350000D03*
X166400000Y-145850000D03*
X166400000Y-146350000D03*
X166400000Y-146850000D03*
X161800000Y-146850000D03*
X161800000Y-146350000D03*
X161800000Y-145850000D03*
X161800000Y-145350000D03*
X161800000Y-144850000D03*
X161800000Y-144350000D03*
X161800000Y-143850000D03*
X161800000Y-143350000D03*
X161800000Y-142850000D03*
X161800000Y-142350000D03*
X161800000Y-141850000D03*
X161800000Y-141350000D03*
D26*
X167170000Y-140000000D03*
X161030000Y-140000000D03*
X167170000Y-148200000D03*
X161030000Y-148200000D03*
%TD*%
D20*
%TO.C,J10*%
X110980000Y-145200000D03*
X114080000Y-145200000D03*
X102680000Y-145200000D03*
%TD*%
D21*
%TO.C,SW2*%
X133250000Y-104250000D03*
X133250000Y-97750000D03*
X137750000Y-104250000D03*
X137750000Y-97750000D03*
%TD*%
D27*
%TO.C,J1*%
X166200000Y-63600000D03*
D28*
X166200000Y-66140000D03*
X166200000Y-68680000D03*
X166200000Y-71220000D03*
%TD*%
D27*
%TO.C,J2*%
X120300000Y-56025000D03*
D28*
X120300000Y-58565000D03*
X122840000Y-56025000D03*
X122840000Y-58565000D03*
X125380000Y-56025000D03*
X125380000Y-58565000D03*
X127920000Y-56025000D03*
X127920000Y-58565000D03*
X130460000Y-56025000D03*
X130460000Y-58565000D03*
%TD*%
D27*
%TO.C,J12*%
X166000000Y-92825000D03*
D29*
X166000000Y-90285000D03*
X166000000Y-87745000D03*
%TD*%
%LPD*%
M02*
