M48
; DRILL file {KiCad 8.0.8} date 2025-07-25T09:34:49+0100
; FORMAT={-:-/ absolute / inch / decimal}
; #@! TF.CreationDate,2025-07-25T09:34:49+01:00
; #@! TF.GenerationSoftware,Kicad,Pcbnew,8.0.8
; #@! TF.FileFunction,Plated,1,4,PTH
FMAT,2
INCH
; #@! TA.AperFunction,Plated,PTH,ViaDrill
T1C0.0157
; #@! TA.AperFunction,Plated,PTH,ComponentDrill
T2C0.0197
; #@! TA.AperFunction,Plated,PTH,ViaDrill
T3C0.0236
; #@! TA.AperFunction,Plated,PTH,ComponentDrill
T4C0.0236
; #@! TA.AperFunction,Plated,PTH,ComponentDrill
T5C0.0394
; #@! TA.AperFunction,Plated,PTH,ComponentDrill
T6C0.0433
; #@! TA.AperFunction,Plated,PTH,ComponentDrill
T7C0.0512
; #@! TA.AperFunction,Plated,PTH,ComponentDrill
T8C0.0984
%
G90
G05
T1
X4.0787Y-4.5039
X4.0945Y-4.5945
X4.3228Y-3.6811
X4.3346Y-2.7677
X4.3465Y-3.3858
X4.5236Y-2.7638
X4.5669Y-3.3819
X4.6142Y-3.1024
X4.6929Y-2.8661
X4.8189Y-3.1496
X4.8189Y-4.5591
X4.9213Y-3.3465
X4.9528Y-3.9449
X5.0866Y-2.752
X5.126Y-4.3504
X5.2559Y-3.4803
X5.2559Y-4.4646
X5.2953Y-4.3386
X5.3819Y-4.3248
X5.4449Y-4.2815
X5.4843Y-2.9882
X5.6063Y-2.7126
X5.6772Y-2.8622
X5.6772Y-3.1142
X5.6969Y-4.9646
X5.7598Y-3.1378
X5.7677Y-2.6654
X5.7835Y-3.2913
X5.8661Y-3.8898
X5.9567Y-2.8386
X5.9606Y-3.5748
X5.9803Y-3.0787
X6.0394Y-3.252
X6.0866Y-3.8346
X6.122Y-3.3819
X6.2205Y-3.6575
X6.2283Y-4.0748
X6.3198Y-5.5728
X6.4134Y-5.5039
X6.4606Y-5.4764
X6.4843Y-5.7795
X6.5118Y-5.5039
X6.6299Y-5.5906
T3
X4.3858Y-2.0866
X4.4213Y-2.3819
X4.4252Y-3.0709
X4.4291Y-3.2244
X4.5394Y-3.5906
X4.9567Y-3.1024
X4.9646Y-3.5906
X5.1142Y-3.1063
X5.3543Y-2.8268
X5.3583Y-3.1457
X5.4882Y-2.7283
X5.4921Y-3.5315
X5.4961Y-3.7756
X5.5433Y-3.189
X5.5866Y-3.4606
X5.6535Y-3.2992
X5.7165Y-3.7126
X5.7323Y-3.4567
X5.815Y-2.0079
X5.815Y-2.0945
X5.815Y-2.1811
X5.815Y-2.2598
X5.8819Y-2.0079
X5.8819Y-2.0945
X5.8819Y-2.1811
X5.8819Y-2.2598
X5.9488Y-2.0079
X5.9488Y-2.0945
X5.9488Y-2.1811
X5.9488Y-2.2598
X6.0157Y-2.0079
X6.0157Y-2.0945
X6.0157Y-2.1811
X6.0157Y-2.2598
X6.0827Y-2.0079
X6.0827Y-2.0945
X6.0827Y-2.1811
X6.0827Y-2.2598
X6.1024Y-2.4961
X6.1024Y-2.7205
X6.1535Y-3.1929
X6.2362Y-3.1969
X6.2756Y-2.752
T5
X4.0197Y-2.1142
X4.0197Y-2.2142
X4.0197Y-3.2165
X4.0197Y-3.3165
X4.6969Y-4.7244
X4.7031Y-4.6244
X4.7031Y-4.8244
X4.7362Y-2.2057
X4.7362Y-2.3057
X4.8362Y-2.2057
X4.8362Y-2.3057
X4.9031Y-4.6244
X4.9031Y-4.8244
X4.9094Y-4.7244
X4.9362Y-2.2057
X4.9362Y-2.3057
X5.0362Y-2.2057
X5.0362Y-2.3057
X5.1362Y-2.2057
X5.1362Y-2.3057
X5.2874Y-4.7244
X5.2937Y-4.6244
X5.2937Y-4.8244
X5.4937Y-4.6244
X5.4937Y-4.8244
X5.5Y-4.7244
X5.878Y-4.7244
X5.8843Y-4.6244
X5.8843Y-4.8244
X6.0843Y-4.6244
X6.0843Y-4.8244
X6.0906Y-4.7244
X6.5354Y-2.1142
X6.5354Y-2.2142
X6.5354Y-2.3142
X6.5354Y-3.0157
X6.5354Y-3.1157
X6.5354Y-3.2157
X6.5354Y-3.4545
X6.5354Y-3.5545
X6.5354Y-3.6545
X6.5433Y-2.5039
X6.5433Y-2.6039
X6.5433Y-2.7039
X6.5433Y-2.8039
T6
X4.2795Y-3.8189
X4.2795Y-4.3898
X4.378Y-4.3898
X4.4764Y-3.8189
X4.4764Y-4.3898
X5.2461Y-3.8484
X5.2461Y-4.1043
X5.4232Y-3.8484
X5.4232Y-4.1043
X6.1693Y-3.8189
X6.1693Y-4.3898
X6.2677Y-4.3898
X6.3661Y-3.8189
X6.3661Y-4.3898
X6.3681Y-5.0374
X6.3681Y-5.2933
X6.5453Y-5.0374
X6.5453Y-5.2933
T7
X4.0157Y-2.378
X4.0157Y-2.7244
X4.1693Y-2.378
X4.3346Y-2.378
X6.3898Y-4.6693
T8
X4.1339Y-4.0945
X4.622Y-4.0945
X6.0236Y-4.0945
X6.5118Y-4.0945
T2
G00X4.6094Y-5.2165
M15
G01X4.6094Y-5.1772
M16
G05
G00X4.6094Y-5.7362
M15
G01X4.6094Y-5.6969
M16
G05
G00X4.9362Y-5.2165
M15
G01X4.9362Y-5.1772
M16
G05
G00X4.9362Y-5.7362
M15
G01X4.9362Y-5.6969
M16
G05
G00X5.0583Y-5.2165
M15
G01X5.0583Y-5.1772
M16
G05
G00X5.0583Y-5.7362
M15
G01X5.0583Y-5.6969
M16
G05
G00X5.2Y-5.2165
M15
G01X5.2Y-5.1772
M16
G05
G00X5.2Y-5.7362
M15
G01X5.2Y-5.6969
M16
G05
G00X5.5268Y-5.2165
M15
G01X5.5268Y-5.1772
M16
G05
G00X5.5268Y-5.7362
M15
G01X5.5268Y-5.6969
M16
G05
G00X5.6488Y-5.2165
M15
G01X5.6488Y-5.1772
M16
G05
G00X5.6488Y-5.7362
M15
G01X5.6488Y-5.6969
M16
G05
G00X5.7906Y-5.2165
M15
G01X5.7906Y-5.1772
M16
G05
G00X5.7906Y-5.7362
M15
G01X5.7906Y-5.6969
M16
G05
G00X6.1173Y-5.2165
M15
G01X6.1173Y-5.1772
M16
G05
G00X6.1173Y-5.7362
M15
G01X6.1173Y-5.6969
M16
G05
G00X6.2394Y-5.2165
M15
G01X6.2394Y-5.1772
M16
G05
G00X6.2394Y-5.7362
M15
G01X6.2394Y-5.6969
M16
G05
T4
G00X4.0425Y-5.2165
M15
G01X4.0425Y-5.1772
M16
G05
G00X4.0425Y-5.7362
M15
G01X4.0425Y-5.6969
M16
G05
G00X4.3693Y-5.2165
M15
G01X4.3693Y-5.1772
M16
G05
G00X4.3693Y-5.7362
M15
G01X4.3693Y-5.6969
M16
G05
G00X4.4913Y-5.2165
M15
G01X4.4913Y-5.1772
M16
G05
G00X4.4913Y-5.7362
M15
G01X4.4913Y-5.6969
M16
G05
G00X6.3398Y-5.502
M15
G01X6.3398Y-5.5217
M16
G05
G00X6.3398Y-5.8248
M15
G01X6.3398Y-5.8445
M16
G05
G00X6.5815Y-5.502
M15
G01X6.5815Y-5.5217
M16
G05
G00X6.5815Y-5.8248
M15
G01X6.5815Y-5.8445
M16
G05
M30
