G04 #@! TF.GenerationSoftware,KiCad,Pcbnew,(5.1.0)-1*
G04 #@! TF.CreationDate,2019-08-17T17:24:14+01:00*
G04 #@! TF.ProjectId,lcd_Daughterboard,6c63645f-4461-4756-9768-746572626f61,rev?*
G04 #@! TF.SameCoordinates,Original*
G04 #@! TF.FileFunction,Copper,L1,Top*
G04 #@! TF.FilePolarity,Positive*
%FSLAX46Y46*%
G04 Gerber Fmt 4.6, Leading zero omitted, Abs format (unit mm)*
G04 Created by KiCad (PCBNEW (5.1.0)-1) date 2019-08-17 17:24:14*
%MOMM*%
%LPD*%
G04 APERTURE LIST*
%ADD10O,1.700000X1.700000*%
%ADD11R,1.700000X1.700000*%
%ADD12R,3.000000X0.400000*%
%ADD13C,0.800000*%
%ADD14C,0.400000*%
%ADD15C,0.254000*%
G04 APERTURE END LIST*
D10*
X102100000Y-136440000D03*
X102100000Y-133900000D03*
X102100000Y-131360000D03*
X102100000Y-128820000D03*
X102100000Y-126280000D03*
X102100000Y-123740000D03*
X102100000Y-121200000D03*
X102100000Y-118660000D03*
X102100000Y-116120000D03*
X102100000Y-113580000D03*
X102100000Y-111040000D03*
D11*
X102100000Y-108500000D03*
X166000000Y-108500000D03*
D10*
X166000000Y-111040000D03*
X166000000Y-113580000D03*
X166000000Y-116120000D03*
X166000000Y-118660000D03*
X166000000Y-121200000D03*
X166000000Y-123740000D03*
X166000000Y-126280000D03*
X166000000Y-128820000D03*
X166000000Y-131360000D03*
X166000000Y-133900000D03*
X166000000Y-136440000D03*
D12*
X121500000Y-115500000D03*
X121500000Y-116300000D03*
X121500000Y-117100000D03*
X121500000Y-117900000D03*
X121500000Y-118700000D03*
X121500000Y-119500000D03*
X121500000Y-120300000D03*
X121500000Y-121100000D03*
X121500000Y-121900000D03*
X121500000Y-122700000D03*
X121500000Y-123500000D03*
X121500000Y-124300000D03*
X121500000Y-125100000D03*
X121500000Y-125900000D03*
X121500000Y-126700000D03*
X121500000Y-127500000D03*
X121500000Y-128300000D03*
X121500000Y-129100000D03*
D13*
X113600000Y-133100000D03*
X156000000Y-132500000D03*
X141300000Y-133100000D03*
X125900000Y-132900000D03*
X128000000Y-125000000D03*
D14*
X115840000Y-122700000D02*
X121500000Y-122700000D01*
X102100000Y-136440000D02*
X115840000Y-122700000D01*
X152260000Y-122700000D02*
X166000000Y-136440000D01*
X121500000Y-122700000D02*
X152260000Y-122700000D01*
X107280000Y-121100000D02*
X102100000Y-126280000D01*
X121500000Y-121100000D02*
X107280000Y-121100000D01*
X121460000Y-118660000D02*
X121500000Y-118700000D01*
X102100000Y-118660000D02*
X121460000Y-118660000D01*
X105540000Y-120300000D02*
X121500000Y-120300000D01*
X102100000Y-123740000D02*
X105540000Y-120300000D01*
X162560000Y-120300000D02*
X166000000Y-123740000D01*
X121500000Y-120300000D02*
X162560000Y-120300000D01*
X103800000Y-119500000D02*
X121500000Y-119500000D01*
X102100000Y-121200000D02*
X103800000Y-119500000D01*
X164300000Y-119500000D02*
X166000000Y-121200000D01*
X121500000Y-119500000D02*
X164300000Y-119500000D01*
X103880000Y-117900000D02*
X121500000Y-117900000D01*
X102100000Y-116120000D02*
X103880000Y-117900000D01*
X164220000Y-117900000D02*
X166000000Y-116120000D01*
X121500000Y-117900000D02*
X164220000Y-117900000D01*
X105620000Y-117100000D02*
X102100000Y-113580000D01*
X121500000Y-117100000D02*
X105620000Y-117100000D01*
X162480000Y-117100000D02*
X166000000Y-113580000D01*
X121500000Y-117100000D02*
X162480000Y-117100000D01*
X107360000Y-116300000D02*
X121500000Y-116300000D01*
X102100000Y-111040000D02*
X107360000Y-116300000D01*
X160740000Y-116300000D02*
X166000000Y-111040000D01*
X121500000Y-116300000D02*
X160740000Y-116300000D01*
X109020000Y-121900000D02*
X102100000Y-128820000D01*
X121500000Y-121900000D02*
X109020000Y-121900000D01*
X159080000Y-121900000D02*
X166000000Y-128820000D01*
X121500000Y-121900000D02*
X159080000Y-121900000D01*
X121500000Y-125900000D02*
X121500000Y-123500000D01*
X121600000Y-125000000D02*
X121500000Y-125100000D01*
X128000000Y-125000000D02*
X121600000Y-125000000D01*
D15*
G36*
X119361928Y-123700000D02*
G01*
X119374188Y-123824482D01*
X119397096Y-123900000D01*
X119374188Y-123975518D01*
X119361928Y-124100000D01*
X119361928Y-124500000D01*
X119374188Y-124624482D01*
X119397096Y-124700000D01*
X119374188Y-124775518D01*
X119361928Y-124900000D01*
X119361928Y-125300000D01*
X119374188Y-125424482D01*
X119397096Y-125500000D01*
X119374188Y-125575518D01*
X119361928Y-125700000D01*
X119361928Y-126100000D01*
X119374188Y-126224482D01*
X119397096Y-126300000D01*
X119374188Y-126375518D01*
X119361928Y-126500000D01*
X119361928Y-126900000D01*
X119374188Y-127024482D01*
X119397096Y-127100000D01*
X119374188Y-127175518D01*
X119361928Y-127300000D01*
X119361928Y-127700000D01*
X119374188Y-127824482D01*
X119397096Y-127900000D01*
X119374188Y-127975518D01*
X119361928Y-128100000D01*
X119361928Y-128500000D01*
X119374188Y-128624482D01*
X119397096Y-128700000D01*
X119374188Y-128775518D01*
X119361928Y-128900000D01*
X119361928Y-129300000D01*
X119374188Y-129424482D01*
X119410498Y-129544180D01*
X119469463Y-129654494D01*
X119548815Y-129751185D01*
X119645506Y-129830537D01*
X119755820Y-129889502D01*
X119875518Y-129925812D01*
X120000000Y-129938072D01*
X123000000Y-129938072D01*
X123124482Y-129925812D01*
X123244180Y-129889502D01*
X123354494Y-129830537D01*
X123451185Y-129751185D01*
X123530537Y-129654494D01*
X123589502Y-129544180D01*
X123625812Y-129424482D01*
X123638072Y-129300000D01*
X123638072Y-128900000D01*
X123625812Y-128775518D01*
X123602904Y-128700000D01*
X123625812Y-128624482D01*
X123638072Y-128500000D01*
X123638072Y-128100000D01*
X123625812Y-127975518D01*
X123602904Y-127900000D01*
X123625812Y-127824482D01*
X123638072Y-127700000D01*
X123638072Y-127300000D01*
X123625812Y-127175518D01*
X123602904Y-127100000D01*
X123625812Y-127024482D01*
X123638072Y-126900000D01*
X123638072Y-126500000D01*
X123625812Y-126375518D01*
X123602904Y-126300000D01*
X123625812Y-126224482D01*
X123638072Y-126100000D01*
X123638072Y-125835000D01*
X127386715Y-125835000D01*
X127509744Y-125917205D01*
X127698102Y-125995226D01*
X127898061Y-126035000D01*
X128101939Y-126035000D01*
X128301898Y-125995226D01*
X128490256Y-125917205D01*
X128659774Y-125803937D01*
X128803937Y-125659774D01*
X128917205Y-125490256D01*
X128995226Y-125301898D01*
X129035000Y-125101939D01*
X129035000Y-124898061D01*
X128995226Y-124698102D01*
X128917205Y-124509744D01*
X128803937Y-124340226D01*
X128659774Y-124196063D01*
X128490256Y-124082795D01*
X128301898Y-124004774D01*
X128101939Y-123965000D01*
X127898061Y-123965000D01*
X127698102Y-124004774D01*
X127509744Y-124082795D01*
X127386715Y-124165000D01*
X123638072Y-124165000D01*
X123638072Y-124100000D01*
X123625812Y-123975518D01*
X123602904Y-123900000D01*
X123625812Y-123824482D01*
X123638072Y-123700000D01*
X123638072Y-123535000D01*
X151914133Y-123535000D01*
X164535728Y-136156596D01*
X164507815Y-136440000D01*
X164536487Y-136731111D01*
X164621401Y-137011034D01*
X164759294Y-137269014D01*
X164944866Y-137495134D01*
X165170986Y-137680706D01*
X165428966Y-137818599D01*
X165708889Y-137903513D01*
X165927050Y-137925000D01*
X166072950Y-137925000D01*
X166291111Y-137903513D01*
X166571034Y-137818599D01*
X166829014Y-137680706D01*
X167055134Y-137495134D01*
X167240706Y-137269014D01*
X167315001Y-137130018D01*
X167315001Y-144315000D01*
X100685000Y-144315000D01*
X100685000Y-136891036D01*
X100721401Y-137011034D01*
X100859294Y-137269014D01*
X101044866Y-137495134D01*
X101270986Y-137680706D01*
X101528966Y-137818599D01*
X101808889Y-137903513D01*
X102027050Y-137925000D01*
X102172950Y-137925000D01*
X102391111Y-137903513D01*
X102671034Y-137818599D01*
X102929014Y-137680706D01*
X103155134Y-137495134D01*
X103340706Y-137269014D01*
X103478599Y-137011034D01*
X103563513Y-136731111D01*
X103592185Y-136440000D01*
X103564272Y-136156595D01*
X116185868Y-123535000D01*
X119361928Y-123535000D01*
X119361928Y-123700000D01*
X119361928Y-123700000D01*
G37*
X119361928Y-123700000D02*
X119374188Y-123824482D01*
X119397096Y-123900000D01*
X119374188Y-123975518D01*
X119361928Y-124100000D01*
X119361928Y-124500000D01*
X119374188Y-124624482D01*
X119397096Y-124700000D01*
X119374188Y-124775518D01*
X119361928Y-124900000D01*
X119361928Y-125300000D01*
X119374188Y-125424482D01*
X119397096Y-125500000D01*
X119374188Y-125575518D01*
X119361928Y-125700000D01*
X119361928Y-126100000D01*
X119374188Y-126224482D01*
X119397096Y-126300000D01*
X119374188Y-126375518D01*
X119361928Y-126500000D01*
X119361928Y-126900000D01*
X119374188Y-127024482D01*
X119397096Y-127100000D01*
X119374188Y-127175518D01*
X119361928Y-127300000D01*
X119361928Y-127700000D01*
X119374188Y-127824482D01*
X119397096Y-127900000D01*
X119374188Y-127975518D01*
X119361928Y-128100000D01*
X119361928Y-128500000D01*
X119374188Y-128624482D01*
X119397096Y-128700000D01*
X119374188Y-128775518D01*
X119361928Y-128900000D01*
X119361928Y-129300000D01*
X119374188Y-129424482D01*
X119410498Y-129544180D01*
X119469463Y-129654494D01*
X119548815Y-129751185D01*
X119645506Y-129830537D01*
X119755820Y-129889502D01*
X119875518Y-129925812D01*
X120000000Y-129938072D01*
X123000000Y-129938072D01*
X123124482Y-129925812D01*
X123244180Y-129889502D01*
X123354494Y-129830537D01*
X123451185Y-129751185D01*
X123530537Y-129654494D01*
X123589502Y-129544180D01*
X123625812Y-129424482D01*
X123638072Y-129300000D01*
X123638072Y-128900000D01*
X123625812Y-128775518D01*
X123602904Y-128700000D01*
X123625812Y-128624482D01*
X123638072Y-128500000D01*
X123638072Y-128100000D01*
X123625812Y-127975518D01*
X123602904Y-127900000D01*
X123625812Y-127824482D01*
X123638072Y-127700000D01*
X123638072Y-127300000D01*
X123625812Y-127175518D01*
X123602904Y-127100000D01*
X123625812Y-127024482D01*
X123638072Y-126900000D01*
X123638072Y-126500000D01*
X123625812Y-126375518D01*
X123602904Y-126300000D01*
X123625812Y-126224482D01*
X123638072Y-126100000D01*
X123638072Y-125835000D01*
X127386715Y-125835000D01*
X127509744Y-125917205D01*
X127698102Y-125995226D01*
X127898061Y-126035000D01*
X128101939Y-126035000D01*
X128301898Y-125995226D01*
X128490256Y-125917205D01*
X128659774Y-125803937D01*
X128803937Y-125659774D01*
X128917205Y-125490256D01*
X128995226Y-125301898D01*
X129035000Y-125101939D01*
X129035000Y-124898061D01*
X128995226Y-124698102D01*
X128917205Y-124509744D01*
X128803937Y-124340226D01*
X128659774Y-124196063D01*
X128490256Y-124082795D01*
X128301898Y-124004774D01*
X128101939Y-123965000D01*
X127898061Y-123965000D01*
X127698102Y-124004774D01*
X127509744Y-124082795D01*
X127386715Y-124165000D01*
X123638072Y-124165000D01*
X123638072Y-124100000D01*
X123625812Y-123975518D01*
X123602904Y-123900000D01*
X123625812Y-123824482D01*
X123638072Y-123700000D01*
X123638072Y-123535000D01*
X151914133Y-123535000D01*
X164535728Y-136156596D01*
X164507815Y-136440000D01*
X164536487Y-136731111D01*
X164621401Y-137011034D01*
X164759294Y-137269014D01*
X164944866Y-137495134D01*
X165170986Y-137680706D01*
X165428966Y-137818599D01*
X165708889Y-137903513D01*
X165927050Y-137925000D01*
X166072950Y-137925000D01*
X166291111Y-137903513D01*
X166571034Y-137818599D01*
X166829014Y-137680706D01*
X167055134Y-137495134D01*
X167240706Y-137269014D01*
X167315001Y-137130018D01*
X167315001Y-144315000D01*
X100685000Y-144315000D01*
X100685000Y-136891036D01*
X100721401Y-137011034D01*
X100859294Y-137269014D01*
X101044866Y-137495134D01*
X101270986Y-137680706D01*
X101528966Y-137818599D01*
X101808889Y-137903513D01*
X102027050Y-137925000D01*
X102172950Y-137925000D01*
X102391111Y-137903513D01*
X102671034Y-137818599D01*
X102929014Y-137680706D01*
X103155134Y-137495134D01*
X103340706Y-137269014D01*
X103478599Y-137011034D01*
X103563513Y-136731111D01*
X103592185Y-136440000D01*
X103564272Y-136156595D01*
X116185868Y-123535000D01*
X119361928Y-123535000D01*
X119361928Y-123700000D01*
G36*
X103585000Y-133774133D02*
G01*
X103585000Y-133772998D01*
X103420156Y-133772998D01*
X103541476Y-133543110D01*
X103496825Y-133395901D01*
X103371641Y-133133080D01*
X103197588Y-132899731D01*
X102981355Y-132704822D01*
X102855745Y-132630000D01*
X102981355Y-132555178D01*
X103197588Y-132360269D01*
X103371641Y-132126920D01*
X103496825Y-131864099D01*
X103541476Y-131716890D01*
X103420155Y-131487000D01*
X102227000Y-131487000D01*
X102227000Y-133773000D01*
X102247000Y-133773000D01*
X102247000Y-134027000D01*
X102227000Y-134027000D01*
X102227000Y-134047000D01*
X101973000Y-134047000D01*
X101973000Y-134027000D01*
X101953000Y-134027000D01*
X101953000Y-133773000D01*
X101973000Y-133773000D01*
X101973000Y-131487000D01*
X101953000Y-131487000D01*
X101953000Y-131233000D01*
X101973000Y-131233000D01*
X101973000Y-131213000D01*
X102227000Y-131213000D01*
X102227000Y-131233000D01*
X103420155Y-131233000D01*
X103541476Y-131003110D01*
X103496825Y-130855901D01*
X103371641Y-130593080D01*
X103197588Y-130359731D01*
X102981355Y-130164822D01*
X102864477Y-130095201D01*
X102929014Y-130060706D01*
X103155134Y-129875134D01*
X103340706Y-129649014D01*
X103478599Y-129391034D01*
X103563513Y-129111111D01*
X103592185Y-128820000D01*
X103564272Y-128536595D01*
X109365869Y-122735000D01*
X114624132Y-122735000D01*
X103585000Y-133774133D01*
X103585000Y-133774133D01*
G37*
X103585000Y-133774133D02*
X103585000Y-133772998D01*
X103420156Y-133772998D01*
X103541476Y-133543110D01*
X103496825Y-133395901D01*
X103371641Y-133133080D01*
X103197588Y-132899731D01*
X102981355Y-132704822D01*
X102855745Y-132630000D01*
X102981355Y-132555178D01*
X103197588Y-132360269D01*
X103371641Y-132126920D01*
X103496825Y-131864099D01*
X103541476Y-131716890D01*
X103420155Y-131487000D01*
X102227000Y-131487000D01*
X102227000Y-133773000D01*
X102247000Y-133773000D01*
X102247000Y-134027000D01*
X102227000Y-134027000D01*
X102227000Y-134047000D01*
X101973000Y-134047000D01*
X101973000Y-134027000D01*
X101953000Y-134027000D01*
X101953000Y-133773000D01*
X101973000Y-133773000D01*
X101973000Y-131487000D01*
X101953000Y-131487000D01*
X101953000Y-131233000D01*
X101973000Y-131233000D01*
X101973000Y-131213000D01*
X102227000Y-131213000D01*
X102227000Y-131233000D01*
X103420155Y-131233000D01*
X103541476Y-131003110D01*
X103496825Y-130855901D01*
X103371641Y-130593080D01*
X103197588Y-130359731D01*
X102981355Y-130164822D01*
X102864477Y-130095201D01*
X102929014Y-130060706D01*
X103155134Y-129875134D01*
X103340706Y-129649014D01*
X103478599Y-129391034D01*
X103563513Y-129111111D01*
X103592185Y-128820000D01*
X103564272Y-128536595D01*
X109365869Y-122735000D01*
X114624132Y-122735000D01*
X103585000Y-133774133D01*
G36*
X164535728Y-128536597D02*
G01*
X164507815Y-128820000D01*
X164536487Y-129111111D01*
X164621401Y-129391034D01*
X164759294Y-129649014D01*
X164944866Y-129875134D01*
X165170986Y-130060706D01*
X165235523Y-130095201D01*
X165118645Y-130164822D01*
X164902412Y-130359731D01*
X164728359Y-130593080D01*
X164603175Y-130855901D01*
X164558524Y-131003110D01*
X164679845Y-131233000D01*
X165873000Y-131233000D01*
X165873000Y-131213000D01*
X166127000Y-131213000D01*
X166127000Y-131233000D01*
X166147000Y-131233000D01*
X166147000Y-131487000D01*
X166127000Y-131487000D01*
X166127000Y-133773000D01*
X166147000Y-133773000D01*
X166147000Y-134027000D01*
X166127000Y-134027000D01*
X166127000Y-134047000D01*
X165873000Y-134047000D01*
X165873000Y-134027000D01*
X165853000Y-134027000D01*
X165853000Y-133773000D01*
X165873000Y-133773000D01*
X165873000Y-131487000D01*
X164679845Y-131487000D01*
X164558524Y-131716890D01*
X164603175Y-131864099D01*
X164728359Y-132126920D01*
X164902412Y-132360269D01*
X165118645Y-132555178D01*
X165244255Y-132630000D01*
X165118645Y-132704822D01*
X164902412Y-132899731D01*
X164728359Y-133133080D01*
X164603175Y-133395901D01*
X164558524Y-133543110D01*
X164679844Y-133772998D01*
X164515000Y-133772998D01*
X164515000Y-133774132D01*
X153475867Y-122735000D01*
X158734133Y-122735000D01*
X164535728Y-128536597D01*
X164535728Y-128536597D01*
G37*
X164535728Y-128536597D02*
X164507815Y-128820000D01*
X164536487Y-129111111D01*
X164621401Y-129391034D01*
X164759294Y-129649014D01*
X164944866Y-129875134D01*
X165170986Y-130060706D01*
X165235523Y-130095201D01*
X165118645Y-130164822D01*
X164902412Y-130359731D01*
X164728359Y-130593080D01*
X164603175Y-130855901D01*
X164558524Y-131003110D01*
X164679845Y-131233000D01*
X165873000Y-131233000D01*
X165873000Y-131213000D01*
X166127000Y-131213000D01*
X166127000Y-131233000D01*
X166147000Y-131233000D01*
X166147000Y-131487000D01*
X166127000Y-131487000D01*
X166127000Y-133773000D01*
X166147000Y-133773000D01*
X166147000Y-134027000D01*
X166127000Y-134027000D01*
X166127000Y-134047000D01*
X165873000Y-134047000D01*
X165873000Y-134027000D01*
X165853000Y-134027000D01*
X165853000Y-133773000D01*
X165873000Y-133773000D01*
X165873000Y-131487000D01*
X164679845Y-131487000D01*
X164558524Y-131716890D01*
X164603175Y-131864099D01*
X164728359Y-132126920D01*
X164902412Y-132360269D01*
X165118645Y-132555178D01*
X165244255Y-132630000D01*
X165118645Y-132704822D01*
X164902412Y-132899731D01*
X164728359Y-133133080D01*
X164603175Y-133395901D01*
X164558524Y-133543110D01*
X164679844Y-133772998D01*
X164515000Y-133772998D01*
X164515000Y-133774132D01*
X153475867Y-122735000D01*
X158734133Y-122735000D01*
X164535728Y-128536597D01*
G36*
X166127000Y-126153000D02*
G01*
X166147000Y-126153000D01*
X166147000Y-126407000D01*
X166127000Y-126407000D01*
X166127000Y-126427000D01*
X165873000Y-126427000D01*
X165873000Y-126407000D01*
X165853000Y-126407000D01*
X165853000Y-126153000D01*
X165873000Y-126153000D01*
X165873000Y-126133000D01*
X166127000Y-126133000D01*
X166127000Y-126153000D01*
X166127000Y-126153000D01*
G37*
X166127000Y-126153000D02*
X166147000Y-126153000D01*
X166147000Y-126407000D01*
X166127000Y-126407000D01*
X166127000Y-126427000D01*
X165873000Y-126427000D01*
X165873000Y-126407000D01*
X165853000Y-126407000D01*
X165853000Y-126153000D01*
X165873000Y-126153000D01*
X165873000Y-126133000D01*
X166127000Y-126133000D01*
X166127000Y-126153000D01*
G36*
X102227000Y-126153000D02*
G01*
X102247000Y-126153000D01*
X102247000Y-126407000D01*
X102227000Y-126407000D01*
X102227000Y-126427000D01*
X101973000Y-126427000D01*
X101973000Y-126407000D01*
X101953000Y-126407000D01*
X101953000Y-126153000D01*
X101973000Y-126153000D01*
X101973000Y-126133000D01*
X102227000Y-126133000D01*
X102227000Y-126153000D01*
X102227000Y-126153000D01*
G37*
X102227000Y-126153000D02*
X102247000Y-126153000D01*
X102247000Y-126407000D01*
X102227000Y-126407000D01*
X102227000Y-126427000D01*
X101973000Y-126427000D01*
X101973000Y-126407000D01*
X101953000Y-126407000D01*
X101953000Y-126153000D01*
X101973000Y-126153000D01*
X101973000Y-126133000D01*
X102227000Y-126133000D01*
X102227000Y-126153000D01*
G36*
X166127000Y-118533000D02*
G01*
X166147000Y-118533000D01*
X166147000Y-118787000D01*
X166127000Y-118787000D01*
X166127000Y-118807000D01*
X165873000Y-118807000D01*
X165873000Y-118787000D01*
X165853000Y-118787000D01*
X165853000Y-118533000D01*
X165873000Y-118533000D01*
X165873000Y-118513000D01*
X166127000Y-118513000D01*
X166127000Y-118533000D01*
X166127000Y-118533000D01*
G37*
X166127000Y-118533000D02*
X166147000Y-118533000D01*
X166147000Y-118787000D01*
X166127000Y-118787000D01*
X166127000Y-118807000D01*
X165873000Y-118807000D01*
X165873000Y-118787000D01*
X165853000Y-118787000D01*
X165853000Y-118533000D01*
X165873000Y-118533000D01*
X165873000Y-118513000D01*
X166127000Y-118513000D01*
X166127000Y-118533000D01*
G36*
X102227000Y-118533000D02*
G01*
X102247000Y-118533000D01*
X102247000Y-118787000D01*
X102227000Y-118787000D01*
X102227000Y-118807000D01*
X101973000Y-118807000D01*
X101973000Y-118787000D01*
X101953000Y-118787000D01*
X101953000Y-118533000D01*
X101973000Y-118533000D01*
X101973000Y-118513000D01*
X102227000Y-118513000D01*
X102227000Y-118533000D01*
X102227000Y-118533000D01*
G37*
X102227000Y-118533000D02*
X102247000Y-118533000D01*
X102247000Y-118787000D01*
X102227000Y-118787000D01*
X102227000Y-118807000D01*
X101973000Y-118807000D01*
X101973000Y-118787000D01*
X101953000Y-118787000D01*
X101953000Y-118533000D01*
X101973000Y-118533000D01*
X101973000Y-118513000D01*
X102227000Y-118513000D01*
X102227000Y-118533000D01*
G36*
X167315000Y-107215649D02*
G01*
X167301185Y-107198815D01*
X167204494Y-107119463D01*
X167094180Y-107060498D01*
X166974482Y-107024188D01*
X166850000Y-107011928D01*
X166285750Y-107015000D01*
X166127000Y-107173750D01*
X166127000Y-108373000D01*
X166147000Y-108373000D01*
X166147000Y-108627000D01*
X166127000Y-108627000D01*
X166127000Y-108647000D01*
X165873000Y-108647000D01*
X165873000Y-108627000D01*
X164673750Y-108627000D01*
X164515000Y-108785750D01*
X164511928Y-109350000D01*
X164524188Y-109474482D01*
X164560498Y-109594180D01*
X164619463Y-109704494D01*
X164698815Y-109801185D01*
X164795506Y-109880537D01*
X164905820Y-109939502D01*
X164974687Y-109960393D01*
X164944866Y-109984866D01*
X164759294Y-110210986D01*
X164621401Y-110468966D01*
X164536487Y-110748889D01*
X164507815Y-111040000D01*
X164535728Y-111323404D01*
X160394133Y-115465000D01*
X123635000Y-115465000D01*
X123635000Y-115372998D01*
X123530252Y-115372998D01*
X123635000Y-115268250D01*
X123624701Y-115170057D01*
X123587346Y-115050681D01*
X123527421Y-114940886D01*
X123447227Y-114844891D01*
X123349846Y-114766387D01*
X123239021Y-114708388D01*
X123119011Y-114673125D01*
X122994427Y-114661952D01*
X121785750Y-114665000D01*
X121627000Y-114823750D01*
X121627000Y-115427000D01*
X121647000Y-115427000D01*
X121647000Y-115461928D01*
X121353000Y-115461928D01*
X121353000Y-115427000D01*
X121373000Y-115427000D01*
X121373000Y-114823750D01*
X121214250Y-114665000D01*
X120005573Y-114661952D01*
X119880989Y-114673125D01*
X119760979Y-114708388D01*
X119650154Y-114766387D01*
X119552773Y-114844891D01*
X119472579Y-114940886D01*
X119412654Y-115050681D01*
X119375299Y-115170057D01*
X119365000Y-115268250D01*
X119469748Y-115372998D01*
X119365000Y-115372998D01*
X119365000Y-115465000D01*
X107705868Y-115465000D01*
X103564272Y-111323405D01*
X103592185Y-111040000D01*
X103563513Y-110748889D01*
X103478599Y-110468966D01*
X103340706Y-110210986D01*
X103155134Y-109984866D01*
X103125313Y-109960393D01*
X103194180Y-109939502D01*
X103304494Y-109880537D01*
X103401185Y-109801185D01*
X103480537Y-109704494D01*
X103539502Y-109594180D01*
X103575812Y-109474482D01*
X103588072Y-109350000D01*
X103585000Y-108785750D01*
X103426250Y-108627000D01*
X102227000Y-108627000D01*
X102227000Y-108647000D01*
X101973000Y-108647000D01*
X101973000Y-108627000D01*
X101953000Y-108627000D01*
X101953000Y-108373000D01*
X101973000Y-108373000D01*
X101973000Y-107173750D01*
X102227000Y-107173750D01*
X102227000Y-108373000D01*
X103426250Y-108373000D01*
X103585000Y-108214250D01*
X103588072Y-107650000D01*
X164511928Y-107650000D01*
X164515000Y-108214250D01*
X164673750Y-108373000D01*
X165873000Y-108373000D01*
X165873000Y-107173750D01*
X165714250Y-107015000D01*
X165150000Y-107011928D01*
X165025518Y-107024188D01*
X164905820Y-107060498D01*
X164795506Y-107119463D01*
X164698815Y-107198815D01*
X164619463Y-107295506D01*
X164560498Y-107405820D01*
X164524188Y-107525518D01*
X164511928Y-107650000D01*
X103588072Y-107650000D01*
X103575812Y-107525518D01*
X103539502Y-107405820D01*
X103480537Y-107295506D01*
X103401185Y-107198815D01*
X103304494Y-107119463D01*
X103194180Y-107060498D01*
X103074482Y-107024188D01*
X102950000Y-107011928D01*
X102385750Y-107015000D01*
X102227000Y-107173750D01*
X101973000Y-107173750D01*
X101814250Y-107015000D01*
X101250000Y-107011928D01*
X101125518Y-107024188D01*
X101005820Y-107060498D01*
X100895506Y-107119463D01*
X100798815Y-107198815D01*
X100719463Y-107295506D01*
X100685000Y-107359981D01*
X100685000Y-100685000D01*
X167315000Y-100685000D01*
X167315000Y-107215649D01*
X167315000Y-107215649D01*
G37*
X167315000Y-107215649D02*
X167301185Y-107198815D01*
X167204494Y-107119463D01*
X167094180Y-107060498D01*
X166974482Y-107024188D01*
X166850000Y-107011928D01*
X166285750Y-107015000D01*
X166127000Y-107173750D01*
X166127000Y-108373000D01*
X166147000Y-108373000D01*
X166147000Y-108627000D01*
X166127000Y-108627000D01*
X166127000Y-108647000D01*
X165873000Y-108647000D01*
X165873000Y-108627000D01*
X164673750Y-108627000D01*
X164515000Y-108785750D01*
X164511928Y-109350000D01*
X164524188Y-109474482D01*
X164560498Y-109594180D01*
X164619463Y-109704494D01*
X164698815Y-109801185D01*
X164795506Y-109880537D01*
X164905820Y-109939502D01*
X164974687Y-109960393D01*
X164944866Y-109984866D01*
X164759294Y-110210986D01*
X164621401Y-110468966D01*
X164536487Y-110748889D01*
X164507815Y-111040000D01*
X164535728Y-111323404D01*
X160394133Y-115465000D01*
X123635000Y-115465000D01*
X123635000Y-115372998D01*
X123530252Y-115372998D01*
X123635000Y-115268250D01*
X123624701Y-115170057D01*
X123587346Y-115050681D01*
X123527421Y-114940886D01*
X123447227Y-114844891D01*
X123349846Y-114766387D01*
X123239021Y-114708388D01*
X123119011Y-114673125D01*
X122994427Y-114661952D01*
X121785750Y-114665000D01*
X121627000Y-114823750D01*
X121627000Y-115427000D01*
X121647000Y-115427000D01*
X121647000Y-115461928D01*
X121353000Y-115461928D01*
X121353000Y-115427000D01*
X121373000Y-115427000D01*
X121373000Y-114823750D01*
X121214250Y-114665000D01*
X120005573Y-114661952D01*
X119880989Y-114673125D01*
X119760979Y-114708388D01*
X119650154Y-114766387D01*
X119552773Y-114844891D01*
X119472579Y-114940886D01*
X119412654Y-115050681D01*
X119375299Y-115170057D01*
X119365000Y-115268250D01*
X119469748Y-115372998D01*
X119365000Y-115372998D01*
X119365000Y-115465000D01*
X107705868Y-115465000D01*
X103564272Y-111323405D01*
X103592185Y-111040000D01*
X103563513Y-110748889D01*
X103478599Y-110468966D01*
X103340706Y-110210986D01*
X103155134Y-109984866D01*
X103125313Y-109960393D01*
X103194180Y-109939502D01*
X103304494Y-109880537D01*
X103401185Y-109801185D01*
X103480537Y-109704494D01*
X103539502Y-109594180D01*
X103575812Y-109474482D01*
X103588072Y-109350000D01*
X103585000Y-108785750D01*
X103426250Y-108627000D01*
X102227000Y-108627000D01*
X102227000Y-108647000D01*
X101973000Y-108647000D01*
X101973000Y-108627000D01*
X101953000Y-108627000D01*
X101953000Y-108373000D01*
X101973000Y-108373000D01*
X101973000Y-107173750D01*
X102227000Y-107173750D01*
X102227000Y-108373000D01*
X103426250Y-108373000D01*
X103585000Y-108214250D01*
X103588072Y-107650000D01*
X164511928Y-107650000D01*
X164515000Y-108214250D01*
X164673750Y-108373000D01*
X165873000Y-108373000D01*
X165873000Y-107173750D01*
X165714250Y-107015000D01*
X165150000Y-107011928D01*
X165025518Y-107024188D01*
X164905820Y-107060498D01*
X164795506Y-107119463D01*
X164698815Y-107198815D01*
X164619463Y-107295506D01*
X164560498Y-107405820D01*
X164524188Y-107525518D01*
X164511928Y-107650000D01*
X103588072Y-107650000D01*
X103575812Y-107525518D01*
X103539502Y-107405820D01*
X103480537Y-107295506D01*
X103401185Y-107198815D01*
X103304494Y-107119463D01*
X103194180Y-107060498D01*
X103074482Y-107024188D01*
X102950000Y-107011928D01*
X102385750Y-107015000D01*
X102227000Y-107173750D01*
X101973000Y-107173750D01*
X101814250Y-107015000D01*
X101250000Y-107011928D01*
X101125518Y-107024188D01*
X101005820Y-107060498D01*
X100895506Y-107119463D01*
X100798815Y-107198815D01*
X100719463Y-107295506D01*
X100685000Y-107359981D01*
X100685000Y-100685000D01*
X167315000Y-100685000D01*
X167315000Y-107215649D01*
M02*
