M48
; DRILL file {KiCad (5.1.0)-1} date 17/08/2019 17:24:19
; FORMAT={-:-/ absolute / inch / decimal}
; #@! TF.CreationDate,2019-08-17T17:24:19+01:00
; #@! TF.GenerationSoftware,Kicad,Pcbnew,(5.1.0)-1
; #@! TF.FileFunction,Plated,1,2,PTH
FMAT,2
INCH
T1C0.0157
T2C0.0394
%
G90
G05
T1
X4.4724Y-5.2402
X4.9567Y-5.2323
X5.0394Y-4.9213
X5.563Y-5.2402
X6.1417Y-5.2165
T2
X4.0197Y-4.2717
X4.0197Y-4.3717
X4.0197Y-4.4717
X4.0197Y-4.5717
X4.0197Y-4.6717
X4.0197Y-4.7717
X4.0197Y-4.8717
X4.0197Y-4.9717
X4.0197Y-5.0717
X4.0197Y-5.1717
X4.0197Y-5.2717
X4.0197Y-5.3717
X6.5354Y-4.2717
X6.5354Y-4.3717
X6.5354Y-4.4717
X6.5354Y-4.5717
X6.5354Y-4.6717
X6.5354Y-4.7717
X6.5354Y-4.8717
X6.5354Y-4.9717
X6.5354Y-5.0717
X6.5354Y-5.1717
X6.5354Y-5.2717
X6.5354Y-5.3717
T0
M30
