G04 #@! TF.GenerationSoftware,KiCad,Pcbnew,8.0.8*
G04 #@! TF.CreationDate,2025-06-07T15:14:33+01:00*
G04 #@! TF.ProjectId,lcd_Daughterboard,6c63645f-4461-4756-9768-746572626f61,rev?*
G04 #@! TF.SameCoordinates,Original*
G04 #@! TF.FileFunction,Legend,Bot*
G04 #@! TF.FilePolarity,Positive*
%FSLAX46Y46*%
G04 Gerber Fmt 4.6, Leading zero omitted, Abs format (unit mm)*
G04 Created by KiCad (PCBNEW 8.0.8) date 2025-06-07 15:14:33*
%MOMM*%
%LPD*%
G01*
G04 APERTURE LIST*
%ADD10C,0.150000*%
%ADD11C,0.120000*%
G04 APERTURE END LIST*
D10*
X143876191Y-46949847D02*
X144352381Y-46949847D01*
X144352381Y-46949847D02*
X144352381Y-45949847D01*
X142971429Y-46854608D02*
X143019048Y-46902228D01*
X143019048Y-46902228D02*
X143161905Y-46949847D01*
X143161905Y-46949847D02*
X143257143Y-46949847D01*
X143257143Y-46949847D02*
X143400000Y-46902228D01*
X143400000Y-46902228D02*
X143495238Y-46806989D01*
X143495238Y-46806989D02*
X143542857Y-46711751D01*
X143542857Y-46711751D02*
X143590476Y-46521275D01*
X143590476Y-46521275D02*
X143590476Y-46378418D01*
X143590476Y-46378418D02*
X143542857Y-46187942D01*
X143542857Y-46187942D02*
X143495238Y-46092704D01*
X143495238Y-46092704D02*
X143400000Y-45997466D01*
X143400000Y-45997466D02*
X143257143Y-45949847D01*
X143257143Y-45949847D02*
X143161905Y-45949847D01*
X143161905Y-45949847D02*
X143019048Y-45997466D01*
X143019048Y-45997466D02*
X142971429Y-46045085D01*
X142542857Y-46949847D02*
X142542857Y-45949847D01*
X142542857Y-45949847D02*
X142304762Y-45949847D01*
X142304762Y-45949847D02*
X142161905Y-45997466D01*
X142161905Y-45997466D02*
X142066667Y-46092704D01*
X142066667Y-46092704D02*
X142019048Y-46187942D01*
X142019048Y-46187942D02*
X141971429Y-46378418D01*
X141971429Y-46378418D02*
X141971429Y-46521275D01*
X141971429Y-46521275D02*
X142019048Y-46711751D01*
X142019048Y-46711751D02*
X142066667Y-46806989D01*
X142066667Y-46806989D02*
X142161905Y-46902228D01*
X142161905Y-46902228D02*
X142304762Y-46949847D01*
X142304762Y-46949847D02*
X142542857Y-46949847D01*
X140780952Y-46949847D02*
X140780952Y-45949847D01*
X140780952Y-45949847D02*
X140542857Y-45949847D01*
X140542857Y-45949847D02*
X140400000Y-45997466D01*
X140400000Y-45997466D02*
X140304762Y-46092704D01*
X140304762Y-46092704D02*
X140257143Y-46187942D01*
X140257143Y-46187942D02*
X140209524Y-46378418D01*
X140209524Y-46378418D02*
X140209524Y-46521275D01*
X140209524Y-46521275D02*
X140257143Y-46711751D01*
X140257143Y-46711751D02*
X140304762Y-46806989D01*
X140304762Y-46806989D02*
X140400000Y-46902228D01*
X140400000Y-46902228D02*
X140542857Y-46949847D01*
X140542857Y-46949847D02*
X140780952Y-46949847D01*
X139352381Y-46949847D02*
X139352381Y-46426037D01*
X139352381Y-46426037D02*
X139400000Y-46330799D01*
X139400000Y-46330799D02*
X139495238Y-46283180D01*
X139495238Y-46283180D02*
X139685714Y-46283180D01*
X139685714Y-46283180D02*
X139780952Y-46330799D01*
X139352381Y-46902228D02*
X139447619Y-46949847D01*
X139447619Y-46949847D02*
X139685714Y-46949847D01*
X139685714Y-46949847D02*
X139780952Y-46902228D01*
X139780952Y-46902228D02*
X139828571Y-46806989D01*
X139828571Y-46806989D02*
X139828571Y-46711751D01*
X139828571Y-46711751D02*
X139780952Y-46616513D01*
X139780952Y-46616513D02*
X139685714Y-46568894D01*
X139685714Y-46568894D02*
X139447619Y-46568894D01*
X139447619Y-46568894D02*
X139352381Y-46521275D01*
X138447619Y-46283180D02*
X138447619Y-46949847D01*
X138876190Y-46283180D02*
X138876190Y-46806989D01*
X138876190Y-46806989D02*
X138828571Y-46902228D01*
X138828571Y-46902228D02*
X138733333Y-46949847D01*
X138733333Y-46949847D02*
X138590476Y-46949847D01*
X138590476Y-46949847D02*
X138495238Y-46902228D01*
X138495238Y-46902228D02*
X138447619Y-46854608D01*
X137542857Y-46283180D02*
X137542857Y-47092704D01*
X137542857Y-47092704D02*
X137590476Y-47187942D01*
X137590476Y-47187942D02*
X137638095Y-47235561D01*
X137638095Y-47235561D02*
X137733333Y-47283180D01*
X137733333Y-47283180D02*
X137876190Y-47283180D01*
X137876190Y-47283180D02*
X137971428Y-47235561D01*
X137542857Y-46902228D02*
X137638095Y-46949847D01*
X137638095Y-46949847D02*
X137828571Y-46949847D01*
X137828571Y-46949847D02*
X137923809Y-46902228D01*
X137923809Y-46902228D02*
X137971428Y-46854608D01*
X137971428Y-46854608D02*
X138019047Y-46759370D01*
X138019047Y-46759370D02*
X138019047Y-46473656D01*
X138019047Y-46473656D02*
X137971428Y-46378418D01*
X137971428Y-46378418D02*
X137923809Y-46330799D01*
X137923809Y-46330799D02*
X137828571Y-46283180D01*
X137828571Y-46283180D02*
X137638095Y-46283180D01*
X137638095Y-46283180D02*
X137542857Y-46330799D01*
X137066666Y-46949847D02*
X137066666Y-45949847D01*
X136638095Y-46949847D02*
X136638095Y-46426037D01*
X136638095Y-46426037D02*
X136685714Y-46330799D01*
X136685714Y-46330799D02*
X136780952Y-46283180D01*
X136780952Y-46283180D02*
X136923809Y-46283180D01*
X136923809Y-46283180D02*
X137019047Y-46330799D01*
X137019047Y-46330799D02*
X137066666Y-46378418D01*
X136304761Y-46283180D02*
X135923809Y-46283180D01*
X136161904Y-45949847D02*
X136161904Y-46806989D01*
X136161904Y-46806989D02*
X136114285Y-46902228D01*
X136114285Y-46902228D02*
X136019047Y-46949847D01*
X136019047Y-46949847D02*
X135923809Y-46949847D01*
X135209523Y-46902228D02*
X135304761Y-46949847D01*
X135304761Y-46949847D02*
X135495237Y-46949847D01*
X135495237Y-46949847D02*
X135590475Y-46902228D01*
X135590475Y-46902228D02*
X135638094Y-46806989D01*
X135638094Y-46806989D02*
X135638094Y-46426037D01*
X135638094Y-46426037D02*
X135590475Y-46330799D01*
X135590475Y-46330799D02*
X135495237Y-46283180D01*
X135495237Y-46283180D02*
X135304761Y-46283180D01*
X135304761Y-46283180D02*
X135209523Y-46330799D01*
X135209523Y-46330799D02*
X135161904Y-46426037D01*
X135161904Y-46426037D02*
X135161904Y-46521275D01*
X135161904Y-46521275D02*
X135638094Y-46616513D01*
X134733332Y-46949847D02*
X134733332Y-46283180D01*
X134733332Y-46473656D02*
X134685713Y-46378418D01*
X134685713Y-46378418D02*
X134638094Y-46330799D01*
X134638094Y-46330799D02*
X134542856Y-46283180D01*
X134542856Y-46283180D02*
X134447618Y-46283180D01*
X134114284Y-46949847D02*
X134114284Y-45949847D01*
X134114284Y-46330799D02*
X134019046Y-46283180D01*
X134019046Y-46283180D02*
X133828570Y-46283180D01*
X133828570Y-46283180D02*
X133733332Y-46330799D01*
X133733332Y-46330799D02*
X133685713Y-46378418D01*
X133685713Y-46378418D02*
X133638094Y-46473656D01*
X133638094Y-46473656D02*
X133638094Y-46759370D01*
X133638094Y-46759370D02*
X133685713Y-46854608D01*
X133685713Y-46854608D02*
X133733332Y-46902228D01*
X133733332Y-46902228D02*
X133828570Y-46949847D01*
X133828570Y-46949847D02*
X134019046Y-46949847D01*
X134019046Y-46949847D02*
X134114284Y-46902228D01*
X133066665Y-46949847D02*
X133161903Y-46902228D01*
X133161903Y-46902228D02*
X133209522Y-46854608D01*
X133209522Y-46854608D02*
X133257141Y-46759370D01*
X133257141Y-46759370D02*
X133257141Y-46473656D01*
X133257141Y-46473656D02*
X133209522Y-46378418D01*
X133209522Y-46378418D02*
X133161903Y-46330799D01*
X133161903Y-46330799D02*
X133066665Y-46283180D01*
X133066665Y-46283180D02*
X132923808Y-46283180D01*
X132923808Y-46283180D02*
X132828570Y-46330799D01*
X132828570Y-46330799D02*
X132780951Y-46378418D01*
X132780951Y-46378418D02*
X132733332Y-46473656D01*
X132733332Y-46473656D02*
X132733332Y-46759370D01*
X132733332Y-46759370D02*
X132780951Y-46854608D01*
X132780951Y-46854608D02*
X132828570Y-46902228D01*
X132828570Y-46902228D02*
X132923808Y-46949847D01*
X132923808Y-46949847D02*
X133066665Y-46949847D01*
X131876189Y-46949847D02*
X131876189Y-46426037D01*
X131876189Y-46426037D02*
X131923808Y-46330799D01*
X131923808Y-46330799D02*
X132019046Y-46283180D01*
X132019046Y-46283180D02*
X132209522Y-46283180D01*
X132209522Y-46283180D02*
X132304760Y-46330799D01*
X131876189Y-46902228D02*
X131971427Y-46949847D01*
X131971427Y-46949847D02*
X132209522Y-46949847D01*
X132209522Y-46949847D02*
X132304760Y-46902228D01*
X132304760Y-46902228D02*
X132352379Y-46806989D01*
X132352379Y-46806989D02*
X132352379Y-46711751D01*
X132352379Y-46711751D02*
X132304760Y-46616513D01*
X132304760Y-46616513D02*
X132209522Y-46568894D01*
X132209522Y-46568894D02*
X131971427Y-46568894D01*
X131971427Y-46568894D02*
X131876189Y-46521275D01*
X131399998Y-46949847D02*
X131399998Y-46283180D01*
X131399998Y-46473656D02*
X131352379Y-46378418D01*
X131352379Y-46378418D02*
X131304760Y-46330799D01*
X131304760Y-46330799D02*
X131209522Y-46283180D01*
X131209522Y-46283180D02*
X131114284Y-46283180D01*
X130352379Y-46949847D02*
X130352379Y-45949847D01*
X130352379Y-46902228D02*
X130447617Y-46949847D01*
X130447617Y-46949847D02*
X130638093Y-46949847D01*
X130638093Y-46949847D02*
X130733331Y-46902228D01*
X130733331Y-46902228D02*
X130780950Y-46854608D01*
X130780950Y-46854608D02*
X130828569Y-46759370D01*
X130828569Y-46759370D02*
X130828569Y-46473656D01*
X130828569Y-46473656D02*
X130780950Y-46378418D01*
X130780950Y-46378418D02*
X130733331Y-46330799D01*
X130733331Y-46330799D02*
X130638093Y-46283180D01*
X130638093Y-46283180D02*
X130447617Y-46283180D01*
X130447617Y-46283180D02*
X130352379Y-46330799D01*
X129209521Y-46283180D02*
X128971426Y-46949847D01*
X128971426Y-46949847D02*
X128733331Y-46283180D01*
X128447616Y-45949847D02*
X127828569Y-45949847D01*
X127828569Y-45949847D02*
X128161902Y-46330799D01*
X128161902Y-46330799D02*
X128019045Y-46330799D01*
X128019045Y-46330799D02*
X127923807Y-46378418D01*
X127923807Y-46378418D02*
X127876188Y-46426037D01*
X127876188Y-46426037D02*
X127828569Y-46521275D01*
X127828569Y-46521275D02*
X127828569Y-46759370D01*
X127828569Y-46759370D02*
X127876188Y-46854608D01*
X127876188Y-46854608D02*
X127923807Y-46902228D01*
X127923807Y-46902228D02*
X128019045Y-46949847D01*
X128019045Y-46949847D02*
X128304759Y-46949847D01*
X128304759Y-46949847D02*
X128399997Y-46902228D01*
X128399997Y-46902228D02*
X128447616Y-46854608D01*
X127399997Y-46854608D02*
X127352378Y-46902228D01*
X127352378Y-46902228D02*
X127399997Y-46949847D01*
X127399997Y-46949847D02*
X127447616Y-46902228D01*
X127447616Y-46902228D02*
X127399997Y-46854608D01*
X127399997Y-46854608D02*
X127399997Y-46949847D01*
X126971426Y-46045085D02*
X126923807Y-45997466D01*
X126923807Y-45997466D02*
X126828569Y-45949847D01*
X126828569Y-45949847D02*
X126590474Y-45949847D01*
X126590474Y-45949847D02*
X126495236Y-45997466D01*
X126495236Y-45997466D02*
X126447617Y-46045085D01*
X126447617Y-46045085D02*
X126399998Y-46140323D01*
X126399998Y-46140323D02*
X126399998Y-46235561D01*
X126399998Y-46235561D02*
X126447617Y-46378418D01*
X126447617Y-46378418D02*
X127019045Y-46949847D01*
X127019045Y-46949847D02*
X126399998Y-46949847D01*
X141780952Y-48559791D02*
X141780952Y-47559791D01*
X141780952Y-47559791D02*
X141447619Y-48274076D01*
X141447619Y-48274076D02*
X141114286Y-47559791D01*
X141114286Y-47559791D02*
X141114286Y-48559791D01*
X140495238Y-48559791D02*
X140590476Y-48512172D01*
X140590476Y-48512172D02*
X140638095Y-48464552D01*
X140638095Y-48464552D02*
X140685714Y-48369314D01*
X140685714Y-48369314D02*
X140685714Y-48083600D01*
X140685714Y-48083600D02*
X140638095Y-47988362D01*
X140638095Y-47988362D02*
X140590476Y-47940743D01*
X140590476Y-47940743D02*
X140495238Y-47893124D01*
X140495238Y-47893124D02*
X140352381Y-47893124D01*
X140352381Y-47893124D02*
X140257143Y-47940743D01*
X140257143Y-47940743D02*
X140209524Y-47988362D01*
X140209524Y-47988362D02*
X140161905Y-48083600D01*
X140161905Y-48083600D02*
X140161905Y-48369314D01*
X140161905Y-48369314D02*
X140209524Y-48464552D01*
X140209524Y-48464552D02*
X140257143Y-48512172D01*
X140257143Y-48512172D02*
X140352381Y-48559791D01*
X140352381Y-48559791D02*
X140495238Y-48559791D01*
X139304762Y-47893124D02*
X139304762Y-48559791D01*
X139733333Y-47893124D02*
X139733333Y-48416933D01*
X139733333Y-48416933D02*
X139685714Y-48512172D01*
X139685714Y-48512172D02*
X139590476Y-48559791D01*
X139590476Y-48559791D02*
X139447619Y-48559791D01*
X139447619Y-48559791D02*
X139352381Y-48512172D01*
X139352381Y-48512172D02*
X139304762Y-48464552D01*
X138828571Y-47893124D02*
X138828571Y-48559791D01*
X138828571Y-47988362D02*
X138780952Y-47940743D01*
X138780952Y-47940743D02*
X138685714Y-47893124D01*
X138685714Y-47893124D02*
X138542857Y-47893124D01*
X138542857Y-47893124D02*
X138447619Y-47940743D01*
X138447619Y-47940743D02*
X138400000Y-48035981D01*
X138400000Y-48035981D02*
X138400000Y-48559791D01*
X138066666Y-47893124D02*
X137685714Y-47893124D01*
X137923809Y-47559791D02*
X137923809Y-48416933D01*
X137923809Y-48416933D02*
X137876190Y-48512172D01*
X137876190Y-48512172D02*
X137780952Y-48559791D01*
X137780952Y-48559791D02*
X137685714Y-48559791D01*
X137352380Y-47893124D02*
X137352380Y-48750267D01*
X137352380Y-48750267D02*
X137399999Y-48845505D01*
X137399999Y-48845505D02*
X137495237Y-48893124D01*
X137495237Y-48893124D02*
X137542856Y-48893124D01*
X137352380Y-47559791D02*
X137399999Y-47607410D01*
X137399999Y-47607410D02*
X137352380Y-47655029D01*
X137352380Y-47655029D02*
X137304761Y-47607410D01*
X137304761Y-47607410D02*
X137352380Y-47559791D01*
X137352380Y-47559791D02*
X137352380Y-47655029D01*
X136733333Y-48559791D02*
X136828571Y-48512172D01*
X136828571Y-48512172D02*
X136876190Y-48464552D01*
X136876190Y-48464552D02*
X136923809Y-48369314D01*
X136923809Y-48369314D02*
X136923809Y-48083600D01*
X136923809Y-48083600D02*
X136876190Y-47988362D01*
X136876190Y-47988362D02*
X136828571Y-47940743D01*
X136828571Y-47940743D02*
X136733333Y-47893124D01*
X136733333Y-47893124D02*
X136590476Y-47893124D01*
X136590476Y-47893124D02*
X136495238Y-47940743D01*
X136495238Y-47940743D02*
X136447619Y-47988362D01*
X136447619Y-47988362D02*
X136400000Y-48083600D01*
X136400000Y-48083600D02*
X136400000Y-48369314D01*
X136400000Y-48369314D02*
X136447619Y-48464552D01*
X136447619Y-48464552D02*
X136495238Y-48512172D01*
X136495238Y-48512172D02*
X136590476Y-48559791D01*
X136590476Y-48559791D02*
X136733333Y-48559791D01*
X136066666Y-47893124D02*
X135828571Y-48559791D01*
X135590476Y-47893124D02*
X135828571Y-48559791D01*
X135828571Y-48559791D02*
X135923809Y-48797886D01*
X135923809Y-48797886D02*
X135971428Y-48845505D01*
X135971428Y-48845505D02*
X136066666Y-48893124D01*
X134447618Y-48559791D02*
X134447618Y-47559791D01*
X134447618Y-47559791D02*
X134114285Y-48274076D01*
X134114285Y-48274076D02*
X133780952Y-47559791D01*
X133780952Y-47559791D02*
X133780952Y-48559791D01*
X133161904Y-48559791D02*
X133257142Y-48512172D01*
X133257142Y-48512172D02*
X133304761Y-48464552D01*
X133304761Y-48464552D02*
X133352380Y-48369314D01*
X133352380Y-48369314D02*
X133352380Y-48083600D01*
X133352380Y-48083600D02*
X133304761Y-47988362D01*
X133304761Y-47988362D02*
X133257142Y-47940743D01*
X133257142Y-47940743D02*
X133161904Y-47893124D01*
X133161904Y-47893124D02*
X133019047Y-47893124D01*
X133019047Y-47893124D02*
X132923809Y-47940743D01*
X132923809Y-47940743D02*
X132876190Y-47988362D01*
X132876190Y-47988362D02*
X132828571Y-48083600D01*
X132828571Y-48083600D02*
X132828571Y-48369314D01*
X132828571Y-48369314D02*
X132876190Y-48464552D01*
X132876190Y-48464552D02*
X132923809Y-48512172D01*
X132923809Y-48512172D02*
X133019047Y-48559791D01*
X133019047Y-48559791D02*
X133161904Y-48559791D01*
X131971428Y-48559791D02*
X131971428Y-47559791D01*
X131971428Y-48512172D02*
X132066666Y-48559791D01*
X132066666Y-48559791D02*
X132257142Y-48559791D01*
X132257142Y-48559791D02*
X132352380Y-48512172D01*
X132352380Y-48512172D02*
X132399999Y-48464552D01*
X132399999Y-48464552D02*
X132447618Y-48369314D01*
X132447618Y-48369314D02*
X132447618Y-48083600D01*
X132447618Y-48083600D02*
X132399999Y-47988362D01*
X132399999Y-47988362D02*
X132352380Y-47940743D01*
X132352380Y-47940743D02*
X132257142Y-47893124D01*
X132257142Y-47893124D02*
X132066666Y-47893124D01*
X132066666Y-47893124D02*
X131971428Y-47940743D01*
X131066666Y-47893124D02*
X131066666Y-48559791D01*
X131495237Y-47893124D02*
X131495237Y-48416933D01*
X131495237Y-48416933D02*
X131447618Y-48512172D01*
X131447618Y-48512172D02*
X131352380Y-48559791D01*
X131352380Y-48559791D02*
X131209523Y-48559791D01*
X131209523Y-48559791D02*
X131114285Y-48512172D01*
X131114285Y-48512172D02*
X131066666Y-48464552D01*
X130447618Y-48559791D02*
X130542856Y-48512172D01*
X130542856Y-48512172D02*
X130590475Y-48416933D01*
X130590475Y-48416933D02*
X130590475Y-47559791D01*
X129638094Y-48559791D02*
X129638094Y-48035981D01*
X129638094Y-48035981D02*
X129685713Y-47940743D01*
X129685713Y-47940743D02*
X129780951Y-47893124D01*
X129780951Y-47893124D02*
X129971427Y-47893124D01*
X129971427Y-47893124D02*
X130066665Y-47940743D01*
X129638094Y-48512172D02*
X129733332Y-48559791D01*
X129733332Y-48559791D02*
X129971427Y-48559791D01*
X129971427Y-48559791D02*
X130066665Y-48512172D01*
X130066665Y-48512172D02*
X130114284Y-48416933D01*
X130114284Y-48416933D02*
X130114284Y-48321695D01*
X130114284Y-48321695D02*
X130066665Y-48226457D01*
X130066665Y-48226457D02*
X129971427Y-48178838D01*
X129971427Y-48178838D02*
X129733332Y-48178838D01*
X129733332Y-48178838D02*
X129638094Y-48131219D01*
X129161903Y-48559791D02*
X129161903Y-47893124D01*
X129161903Y-48083600D02*
X129114284Y-47988362D01*
X129114284Y-47988362D02*
X129066665Y-47940743D01*
X129066665Y-47940743D02*
X128971427Y-47893124D01*
X128971427Y-47893124D02*
X128876189Y-47893124D01*
D11*
X100770000Y-54970000D02*
X103430000Y-54970000D01*
X100770000Y-57570000D02*
X100770000Y-54970000D01*
X100770000Y-57570000D02*
X103430000Y-57570000D01*
X102100000Y-52370000D02*
X103430000Y-52370000D01*
X103430000Y-52370000D02*
X103430000Y-53700000D01*
X103430000Y-57570000D02*
X103430000Y-54970000D01*
X164670000Y-54970000D02*
X167330000Y-54970000D01*
X164670000Y-60110000D02*
X164670000Y-54970000D01*
X164670000Y-60110000D02*
X167330000Y-60110000D01*
X166000000Y-52370000D02*
X167330000Y-52370000D01*
X167330000Y-52370000D02*
X167330000Y-53700000D01*
X167330000Y-60110000D02*
X167330000Y-54970000D01*
X164670000Y-77870000D02*
X167330000Y-77870000D01*
X164670000Y-83010000D02*
X164670000Y-77870000D01*
X164670000Y-83010000D02*
X167330000Y-83010000D01*
X166000000Y-75270000D02*
X167330000Y-75270000D01*
X167330000Y-75270000D02*
X167330000Y-76600000D01*
X167330000Y-83010000D02*
X167330000Y-77870000D01*
X100770000Y-82970000D02*
X103430000Y-82970000D01*
X100770000Y-85570000D02*
X100770000Y-82970000D01*
X100770000Y-85570000D02*
X103430000Y-85570000D01*
X102100000Y-80370000D02*
X103430000Y-80370000D01*
X103430000Y-80370000D02*
X103430000Y-81700000D01*
X103430000Y-85570000D02*
X103430000Y-82970000D01*
M02*
