G04 #@! TF.GenerationSoftware,KiCad,Pcbnew,8.0.8*
G04 #@! TF.CreationDate,2025-04-14T14:54:38+01:00*
G04 #@! TF.ProjectId,lcd_Daughterboard,6c63645f-4461-4756-9768-746572626f61,rev?*
G04 #@! TF.SameCoordinates,Original*
G04 #@! TF.FileFunction,Legend,Top*
G04 #@! TF.FilePolarity,Positive*
%FSLAX46Y46*%
G04 Gerber Fmt 4.6, Leading zero omitted, Abs format (unit mm)*
G04 Created by KiCad (PCBNEW 8.0.8) date 2025-04-14 14:54:38*
%MOMM*%
%LPD*%
G01*
G04 APERTURE LIST*
%ADD10C,0.150000*%
%ADD11C,0.300000*%
G04 APERTURE END LIST*
D10*
X123200000Y-67100000D02*
X125500000Y-68550000D01*
X123100000Y-60700000D02*
X125400000Y-58700000D01*
X121700000Y-74900000D02*
X121700000Y-76600000D01*
X123100000Y-63900000D02*
X125450000Y-64150000D01*
X123150000Y-67900000D02*
X125500000Y-69850000D01*
X123150000Y-66300000D02*
X125450000Y-67050000D01*
D11*
X103250000Y-46150000D02*
X163750000Y-46150000D01*
X163750000Y-89150000D01*
X103250000Y-89150000D01*
X103250000Y-46150000D01*
D10*
X121700000Y-58400000D02*
X121700000Y-60100000D01*
X123100000Y-64700000D02*
X125450000Y-65600000D01*
D11*
X112250000Y-49150000D02*
X161250000Y-49150000D01*
X161250000Y-86150000D01*
X112250000Y-86150000D01*
X112250000Y-49150000D01*
D10*
X123100000Y-61500000D02*
X125400000Y-60050000D01*
X123100000Y-63100000D02*
X125450000Y-62850000D01*
X123100000Y-62250000D02*
X125450000Y-61450000D01*
X165833333Y-61554819D02*
X165500000Y-61078628D01*
X165261905Y-61554819D02*
X165261905Y-60554819D01*
X165261905Y-60554819D02*
X165642857Y-60554819D01*
X165642857Y-60554819D02*
X165738095Y-60602438D01*
X165738095Y-60602438D02*
X165785714Y-60650057D01*
X165785714Y-60650057D02*
X165833333Y-60745295D01*
X165833333Y-60745295D02*
X165833333Y-60888152D01*
X165833333Y-60888152D02*
X165785714Y-60983390D01*
X165785714Y-60983390D02*
X165738095Y-61031009D01*
X165738095Y-61031009D02*
X165642857Y-61078628D01*
X165642857Y-61078628D02*
X165261905Y-61078628D01*
X166214286Y-61507200D02*
X166357143Y-61554819D01*
X166357143Y-61554819D02*
X166595238Y-61554819D01*
X166595238Y-61554819D02*
X166690476Y-61507200D01*
X166690476Y-61507200D02*
X166738095Y-61459580D01*
X166738095Y-61459580D02*
X166785714Y-61364342D01*
X166785714Y-61364342D02*
X166785714Y-61269104D01*
X166785714Y-61269104D02*
X166738095Y-61173866D01*
X166738095Y-61173866D02*
X166690476Y-61126247D01*
X166690476Y-61126247D02*
X166595238Y-61078628D01*
X166595238Y-61078628D02*
X166404762Y-61031009D01*
X166404762Y-61031009D02*
X166309524Y-60983390D01*
X166309524Y-60983390D02*
X166261905Y-60935771D01*
X166261905Y-60935771D02*
X166214286Y-60840533D01*
X166214286Y-60840533D02*
X166214286Y-60745295D01*
X166214286Y-60745295D02*
X166261905Y-60650057D01*
X166261905Y-60650057D02*
X166309524Y-60602438D01*
X166309524Y-60602438D02*
X166404762Y-60554819D01*
X166404762Y-60554819D02*
X166642857Y-60554819D01*
X166642857Y-60554819D02*
X166785714Y-60602438D01*
X164428572Y-84654819D02*
X164428572Y-83654819D01*
X164428572Y-83654819D02*
X164761905Y-84369104D01*
X164761905Y-84369104D02*
X165095238Y-83654819D01*
X165095238Y-83654819D02*
X165095238Y-84654819D01*
X165761905Y-83654819D02*
X165952381Y-83654819D01*
X165952381Y-83654819D02*
X166047619Y-83702438D01*
X166047619Y-83702438D02*
X166142857Y-83797676D01*
X166142857Y-83797676D02*
X166190476Y-83988152D01*
X166190476Y-83988152D02*
X166190476Y-84321485D01*
X166190476Y-84321485D02*
X166142857Y-84511961D01*
X166142857Y-84511961D02*
X166047619Y-84607200D01*
X166047619Y-84607200D02*
X165952381Y-84654819D01*
X165952381Y-84654819D02*
X165761905Y-84654819D01*
X165761905Y-84654819D02*
X165666667Y-84607200D01*
X165666667Y-84607200D02*
X165571429Y-84511961D01*
X165571429Y-84511961D02*
X165523810Y-84321485D01*
X165523810Y-84321485D02*
X165523810Y-83988152D01*
X165523810Y-83988152D02*
X165571429Y-83797676D01*
X165571429Y-83797676D02*
X165666667Y-83702438D01*
X165666667Y-83702438D02*
X165761905Y-83654819D01*
X166571429Y-84607200D02*
X166714286Y-84654819D01*
X166714286Y-84654819D02*
X166952381Y-84654819D01*
X166952381Y-84654819D02*
X167047619Y-84607200D01*
X167047619Y-84607200D02*
X167095238Y-84559580D01*
X167095238Y-84559580D02*
X167142857Y-84464342D01*
X167142857Y-84464342D02*
X167142857Y-84369104D01*
X167142857Y-84369104D02*
X167095238Y-84273866D01*
X167095238Y-84273866D02*
X167047619Y-84226247D01*
X167047619Y-84226247D02*
X166952381Y-84178628D01*
X166952381Y-84178628D02*
X166761905Y-84131009D01*
X166761905Y-84131009D02*
X166666667Y-84083390D01*
X166666667Y-84083390D02*
X166619048Y-84035771D01*
X166619048Y-84035771D02*
X166571429Y-83940533D01*
X166571429Y-83940533D02*
X166571429Y-83845295D01*
X166571429Y-83845295D02*
X166619048Y-83750057D01*
X166619048Y-83750057D02*
X166666667Y-83702438D01*
X166666667Y-83702438D02*
X166761905Y-83654819D01*
X166761905Y-83654819D02*
X167000000Y-83654819D01*
X167000000Y-83654819D02*
X167142857Y-83702438D01*
X167571429Y-84654819D02*
X167571429Y-83654819D01*
X165238095Y-51754819D02*
X165238095Y-50754819D01*
X165238095Y-50754819D02*
X165476190Y-50754819D01*
X165476190Y-50754819D02*
X165619047Y-50802438D01*
X165619047Y-50802438D02*
X165714285Y-50897676D01*
X165714285Y-50897676D02*
X165761904Y-50992914D01*
X165761904Y-50992914D02*
X165809523Y-51183390D01*
X165809523Y-51183390D02*
X165809523Y-51326247D01*
X165809523Y-51326247D02*
X165761904Y-51516723D01*
X165761904Y-51516723D02*
X165714285Y-51611961D01*
X165714285Y-51611961D02*
X165619047Y-51707200D01*
X165619047Y-51707200D02*
X165476190Y-51754819D01*
X165476190Y-51754819D02*
X165238095Y-51754819D01*
X166809523Y-51659580D02*
X166761904Y-51707200D01*
X166761904Y-51707200D02*
X166619047Y-51754819D01*
X166619047Y-51754819D02*
X166523809Y-51754819D01*
X166523809Y-51754819D02*
X166380952Y-51707200D01*
X166380952Y-51707200D02*
X166285714Y-51611961D01*
X166285714Y-51611961D02*
X166238095Y-51516723D01*
X166238095Y-51516723D02*
X166190476Y-51326247D01*
X166190476Y-51326247D02*
X166190476Y-51183390D01*
X166190476Y-51183390D02*
X166238095Y-50992914D01*
X166238095Y-50992914D02*
X166285714Y-50897676D01*
X166285714Y-50897676D02*
X166380952Y-50802438D01*
X166380952Y-50802438D02*
X166523809Y-50754819D01*
X166523809Y-50754819D02*
X166619047Y-50754819D01*
X166619047Y-50754819D02*
X166761904Y-50802438D01*
X166761904Y-50802438D02*
X166809523Y-50850057D01*
X164614286Y-74107200D02*
X164757143Y-74154819D01*
X164757143Y-74154819D02*
X164995238Y-74154819D01*
X164995238Y-74154819D02*
X165090476Y-74107200D01*
X165090476Y-74107200D02*
X165138095Y-74059580D01*
X165138095Y-74059580D02*
X165185714Y-73964342D01*
X165185714Y-73964342D02*
X165185714Y-73869104D01*
X165185714Y-73869104D02*
X165138095Y-73773866D01*
X165138095Y-73773866D02*
X165090476Y-73726247D01*
X165090476Y-73726247D02*
X164995238Y-73678628D01*
X164995238Y-73678628D02*
X164804762Y-73631009D01*
X164804762Y-73631009D02*
X164709524Y-73583390D01*
X164709524Y-73583390D02*
X164661905Y-73535771D01*
X164661905Y-73535771D02*
X164614286Y-73440533D01*
X164614286Y-73440533D02*
X164614286Y-73345295D01*
X164614286Y-73345295D02*
X164661905Y-73250057D01*
X164661905Y-73250057D02*
X164709524Y-73202438D01*
X164709524Y-73202438D02*
X164804762Y-73154819D01*
X164804762Y-73154819D02*
X165042857Y-73154819D01*
X165042857Y-73154819D02*
X165185714Y-73202438D01*
X166185714Y-74059580D02*
X166138095Y-74107200D01*
X166138095Y-74107200D02*
X165995238Y-74154819D01*
X165995238Y-74154819D02*
X165900000Y-74154819D01*
X165900000Y-74154819D02*
X165757143Y-74107200D01*
X165757143Y-74107200D02*
X165661905Y-74011961D01*
X165661905Y-74011961D02*
X165614286Y-73916723D01*
X165614286Y-73916723D02*
X165566667Y-73726247D01*
X165566667Y-73726247D02*
X165566667Y-73583390D01*
X165566667Y-73583390D02*
X165614286Y-73392914D01*
X165614286Y-73392914D02*
X165661905Y-73297676D01*
X165661905Y-73297676D02*
X165757143Y-73202438D01*
X165757143Y-73202438D02*
X165900000Y-73154819D01*
X165900000Y-73154819D02*
X165995238Y-73154819D01*
X165995238Y-73154819D02*
X166138095Y-73202438D01*
X166138095Y-73202438D02*
X166185714Y-73250057D01*
X166614286Y-74154819D02*
X166614286Y-73154819D01*
X167185714Y-74154819D02*
X166757143Y-73583390D01*
X167185714Y-73154819D02*
X166614286Y-73726247D01*
X125816667Y-67967319D02*
X126435714Y-67967319D01*
X126435714Y-67967319D02*
X126102381Y-68348271D01*
X126102381Y-68348271D02*
X126245238Y-68348271D01*
X126245238Y-68348271D02*
X126340476Y-68395890D01*
X126340476Y-68395890D02*
X126388095Y-68443509D01*
X126388095Y-68443509D02*
X126435714Y-68538747D01*
X126435714Y-68538747D02*
X126435714Y-68776842D01*
X126435714Y-68776842D02*
X126388095Y-68872080D01*
X126388095Y-68872080D02*
X126340476Y-68919700D01*
X126340476Y-68919700D02*
X126245238Y-68967319D01*
X126245238Y-68967319D02*
X125959524Y-68967319D01*
X125959524Y-68967319D02*
X125864286Y-68919700D01*
X125864286Y-68919700D02*
X125816667Y-68872080D01*
X126721429Y-67967319D02*
X127054762Y-68967319D01*
X127054762Y-68967319D02*
X127388095Y-67967319D01*
X127626191Y-67967319D02*
X128245238Y-67967319D01*
X128245238Y-67967319D02*
X127911905Y-68348271D01*
X127911905Y-68348271D02*
X128054762Y-68348271D01*
X128054762Y-68348271D02*
X128150000Y-68395890D01*
X128150000Y-68395890D02*
X128197619Y-68443509D01*
X128197619Y-68443509D02*
X128245238Y-68538747D01*
X128245238Y-68538747D02*
X128245238Y-68776842D01*
X128245238Y-68776842D02*
X128197619Y-68872080D01*
X128197619Y-68872080D02*
X128150000Y-68919700D01*
X128150000Y-68919700D02*
X128054762Y-68967319D01*
X128054762Y-68967319D02*
X127769048Y-68967319D01*
X127769048Y-68967319D02*
X127673810Y-68919700D01*
X127673810Y-68919700D02*
X127626191Y-68872080D01*
X125911905Y-63317319D02*
X125911905Y-62317319D01*
X125911905Y-62317319D02*
X126150000Y-62317319D01*
X126150000Y-62317319D02*
X126292857Y-62364938D01*
X126292857Y-62364938D02*
X126388095Y-62460176D01*
X126388095Y-62460176D02*
X126435714Y-62555414D01*
X126435714Y-62555414D02*
X126483333Y-62745890D01*
X126483333Y-62745890D02*
X126483333Y-62888747D01*
X126483333Y-62888747D02*
X126435714Y-63079223D01*
X126435714Y-63079223D02*
X126388095Y-63174461D01*
X126388095Y-63174461D02*
X126292857Y-63269700D01*
X126292857Y-63269700D02*
X126150000Y-63317319D01*
X126150000Y-63317319D02*
X125911905Y-63317319D01*
X127483333Y-63222080D02*
X127435714Y-63269700D01*
X127435714Y-63269700D02*
X127292857Y-63317319D01*
X127292857Y-63317319D02*
X127197619Y-63317319D01*
X127197619Y-63317319D02*
X127054762Y-63269700D01*
X127054762Y-63269700D02*
X126959524Y-63174461D01*
X126959524Y-63174461D02*
X126911905Y-63079223D01*
X126911905Y-63079223D02*
X126864286Y-62888747D01*
X126864286Y-62888747D02*
X126864286Y-62745890D01*
X126864286Y-62745890D02*
X126911905Y-62555414D01*
X126911905Y-62555414D02*
X126959524Y-62460176D01*
X126959524Y-62460176D02*
X127054762Y-62364938D01*
X127054762Y-62364938D02*
X127197619Y-62317319D01*
X127197619Y-62317319D02*
X127292857Y-62317319D01*
X127292857Y-62317319D02*
X127435714Y-62364938D01*
X127435714Y-62364938D02*
X127483333Y-62412557D01*
X126435714Y-63777438D02*
X126340476Y-63729819D01*
X126340476Y-63729819D02*
X126197619Y-63729819D01*
X126197619Y-63729819D02*
X126054762Y-63777438D01*
X126054762Y-63777438D02*
X125959524Y-63872676D01*
X125959524Y-63872676D02*
X125911905Y-63967914D01*
X125911905Y-63967914D02*
X125864286Y-64158390D01*
X125864286Y-64158390D02*
X125864286Y-64301247D01*
X125864286Y-64301247D02*
X125911905Y-64491723D01*
X125911905Y-64491723D02*
X125959524Y-64586961D01*
X125959524Y-64586961D02*
X126054762Y-64682200D01*
X126054762Y-64682200D02*
X126197619Y-64729819D01*
X126197619Y-64729819D02*
X126292857Y-64729819D01*
X126292857Y-64729819D02*
X126435714Y-64682200D01*
X126435714Y-64682200D02*
X126483333Y-64634580D01*
X126483333Y-64634580D02*
X126483333Y-64301247D01*
X126483333Y-64301247D02*
X126292857Y-64301247D01*
X126911905Y-64729819D02*
X126911905Y-63729819D01*
X126911905Y-63729819D02*
X127483333Y-64729819D01*
X127483333Y-64729819D02*
X127483333Y-63729819D01*
X127959524Y-64729819D02*
X127959524Y-63729819D01*
X127959524Y-63729819D02*
X128197619Y-63729819D01*
X128197619Y-63729819D02*
X128340476Y-63777438D01*
X128340476Y-63777438D02*
X128435714Y-63872676D01*
X128435714Y-63872676D02*
X128483333Y-63967914D01*
X128483333Y-63967914D02*
X128530952Y-64158390D01*
X128530952Y-64158390D02*
X128530952Y-64301247D01*
X128530952Y-64301247D02*
X128483333Y-64491723D01*
X128483333Y-64491723D02*
X128435714Y-64586961D01*
X128435714Y-64586961D02*
X128340476Y-64682200D01*
X128340476Y-64682200D02*
X128197619Y-64729819D01*
X128197619Y-64729819D02*
X127959524Y-64729819D01*
X126435714Y-66602438D02*
X126340476Y-66554819D01*
X126340476Y-66554819D02*
X126197619Y-66554819D01*
X126197619Y-66554819D02*
X126054762Y-66602438D01*
X126054762Y-66602438D02*
X125959524Y-66697676D01*
X125959524Y-66697676D02*
X125911905Y-66792914D01*
X125911905Y-66792914D02*
X125864286Y-66983390D01*
X125864286Y-66983390D02*
X125864286Y-67126247D01*
X125864286Y-67126247D02*
X125911905Y-67316723D01*
X125911905Y-67316723D02*
X125959524Y-67411961D01*
X125959524Y-67411961D02*
X126054762Y-67507200D01*
X126054762Y-67507200D02*
X126197619Y-67554819D01*
X126197619Y-67554819D02*
X126292857Y-67554819D01*
X126292857Y-67554819D02*
X126435714Y-67507200D01*
X126435714Y-67507200D02*
X126483333Y-67459580D01*
X126483333Y-67459580D02*
X126483333Y-67126247D01*
X126483333Y-67126247D02*
X126292857Y-67126247D01*
X126911905Y-67554819D02*
X126911905Y-66554819D01*
X126911905Y-66554819D02*
X127483333Y-67554819D01*
X127483333Y-67554819D02*
X127483333Y-66554819D01*
X127959524Y-67554819D02*
X127959524Y-66554819D01*
X127959524Y-66554819D02*
X128197619Y-66554819D01*
X128197619Y-66554819D02*
X128340476Y-66602438D01*
X128340476Y-66602438D02*
X128435714Y-66697676D01*
X128435714Y-66697676D02*
X128483333Y-66792914D01*
X128483333Y-66792914D02*
X128530952Y-66983390D01*
X128530952Y-66983390D02*
X128530952Y-67126247D01*
X128530952Y-67126247D02*
X128483333Y-67316723D01*
X128483333Y-67316723D02*
X128435714Y-67411961D01*
X128435714Y-67411961D02*
X128340476Y-67507200D01*
X128340476Y-67507200D02*
X128197619Y-67554819D01*
X128197619Y-67554819D02*
X127959524Y-67554819D01*
X125911905Y-66142319D02*
X125911905Y-65142319D01*
X125911905Y-65142319D02*
X126245238Y-65856604D01*
X126245238Y-65856604D02*
X126578571Y-65142319D01*
X126578571Y-65142319D02*
X126578571Y-66142319D01*
X127245238Y-65142319D02*
X127435714Y-65142319D01*
X127435714Y-65142319D02*
X127530952Y-65189938D01*
X127530952Y-65189938D02*
X127626190Y-65285176D01*
X127626190Y-65285176D02*
X127673809Y-65475652D01*
X127673809Y-65475652D02*
X127673809Y-65808985D01*
X127673809Y-65808985D02*
X127626190Y-65999461D01*
X127626190Y-65999461D02*
X127530952Y-66094700D01*
X127530952Y-66094700D02*
X127435714Y-66142319D01*
X127435714Y-66142319D02*
X127245238Y-66142319D01*
X127245238Y-66142319D02*
X127150000Y-66094700D01*
X127150000Y-66094700D02*
X127054762Y-65999461D01*
X127054762Y-65999461D02*
X127007143Y-65808985D01*
X127007143Y-65808985D02*
X127007143Y-65475652D01*
X127007143Y-65475652D02*
X127054762Y-65285176D01*
X127054762Y-65285176D02*
X127150000Y-65189938D01*
X127150000Y-65189938D02*
X127245238Y-65142319D01*
X128054762Y-66094700D02*
X128197619Y-66142319D01*
X128197619Y-66142319D02*
X128435714Y-66142319D01*
X128435714Y-66142319D02*
X128530952Y-66094700D01*
X128530952Y-66094700D02*
X128578571Y-66047080D01*
X128578571Y-66047080D02*
X128626190Y-65951842D01*
X128626190Y-65951842D02*
X128626190Y-65856604D01*
X128626190Y-65856604D02*
X128578571Y-65761366D01*
X128578571Y-65761366D02*
X128530952Y-65713747D01*
X128530952Y-65713747D02*
X128435714Y-65666128D01*
X128435714Y-65666128D02*
X128245238Y-65618509D01*
X128245238Y-65618509D02*
X128150000Y-65570890D01*
X128150000Y-65570890D02*
X128102381Y-65523271D01*
X128102381Y-65523271D02*
X128054762Y-65428033D01*
X128054762Y-65428033D02*
X128054762Y-65332795D01*
X128054762Y-65332795D02*
X128102381Y-65237557D01*
X128102381Y-65237557D02*
X128150000Y-65189938D01*
X128150000Y-65189938D02*
X128245238Y-65142319D01*
X128245238Y-65142319D02*
X128483333Y-65142319D01*
X128483333Y-65142319D02*
X128626190Y-65189938D01*
X129054762Y-66142319D02*
X129054762Y-65142319D01*
X126245238Y-69856009D02*
X126388095Y-69903628D01*
X126388095Y-69903628D02*
X126435714Y-69951247D01*
X126435714Y-69951247D02*
X126483333Y-70046485D01*
X126483333Y-70046485D02*
X126483333Y-70189342D01*
X126483333Y-70189342D02*
X126435714Y-70284580D01*
X126435714Y-70284580D02*
X126388095Y-70332200D01*
X126388095Y-70332200D02*
X126292857Y-70379819D01*
X126292857Y-70379819D02*
X125911905Y-70379819D01*
X125911905Y-70379819D02*
X125911905Y-69379819D01*
X125911905Y-69379819D02*
X126245238Y-69379819D01*
X126245238Y-69379819D02*
X126340476Y-69427438D01*
X126340476Y-69427438D02*
X126388095Y-69475057D01*
X126388095Y-69475057D02*
X126435714Y-69570295D01*
X126435714Y-69570295D02*
X126435714Y-69665533D01*
X126435714Y-69665533D02*
X126388095Y-69760771D01*
X126388095Y-69760771D02*
X126340476Y-69808390D01*
X126340476Y-69808390D02*
X126245238Y-69856009D01*
X126245238Y-69856009D02*
X125911905Y-69856009D01*
X127388095Y-70379819D02*
X126911905Y-70379819D01*
X126911905Y-70379819D02*
X126911905Y-69379819D01*
X126435714Y-58127438D02*
X126340476Y-58079819D01*
X126340476Y-58079819D02*
X126197619Y-58079819D01*
X126197619Y-58079819D02*
X126054762Y-58127438D01*
X126054762Y-58127438D02*
X125959524Y-58222676D01*
X125959524Y-58222676D02*
X125911905Y-58317914D01*
X125911905Y-58317914D02*
X125864286Y-58508390D01*
X125864286Y-58508390D02*
X125864286Y-58651247D01*
X125864286Y-58651247D02*
X125911905Y-58841723D01*
X125911905Y-58841723D02*
X125959524Y-58936961D01*
X125959524Y-58936961D02*
X126054762Y-59032200D01*
X126054762Y-59032200D02*
X126197619Y-59079819D01*
X126197619Y-59079819D02*
X126292857Y-59079819D01*
X126292857Y-59079819D02*
X126435714Y-59032200D01*
X126435714Y-59032200D02*
X126483333Y-58984580D01*
X126483333Y-58984580D02*
X126483333Y-58651247D01*
X126483333Y-58651247D02*
X126292857Y-58651247D01*
X126911905Y-59079819D02*
X126911905Y-58079819D01*
X126911905Y-58079819D02*
X127483333Y-59079819D01*
X127483333Y-59079819D02*
X127483333Y-58079819D01*
X127959524Y-59079819D02*
X127959524Y-58079819D01*
X127959524Y-58079819D02*
X128197619Y-58079819D01*
X128197619Y-58079819D02*
X128340476Y-58127438D01*
X128340476Y-58127438D02*
X128435714Y-58222676D01*
X128435714Y-58222676D02*
X128483333Y-58317914D01*
X128483333Y-58317914D02*
X128530952Y-58508390D01*
X128530952Y-58508390D02*
X128530952Y-58651247D01*
X128530952Y-58651247D02*
X128483333Y-58841723D01*
X128483333Y-58841723D02*
X128435714Y-58936961D01*
X128435714Y-58936961D02*
X128340476Y-59032200D01*
X128340476Y-59032200D02*
X128197619Y-59079819D01*
X128197619Y-59079819D02*
X127959524Y-59079819D01*
X126483333Y-60492319D02*
X126150000Y-60016128D01*
X125911905Y-60492319D02*
X125911905Y-59492319D01*
X125911905Y-59492319D02*
X126292857Y-59492319D01*
X126292857Y-59492319D02*
X126388095Y-59539938D01*
X126388095Y-59539938D02*
X126435714Y-59587557D01*
X126435714Y-59587557D02*
X126483333Y-59682795D01*
X126483333Y-59682795D02*
X126483333Y-59825652D01*
X126483333Y-59825652D02*
X126435714Y-59920890D01*
X126435714Y-59920890D02*
X126388095Y-59968509D01*
X126388095Y-59968509D02*
X126292857Y-60016128D01*
X126292857Y-60016128D02*
X125911905Y-60016128D01*
X126864286Y-60444700D02*
X127007143Y-60492319D01*
X127007143Y-60492319D02*
X127245238Y-60492319D01*
X127245238Y-60492319D02*
X127340476Y-60444700D01*
X127340476Y-60444700D02*
X127388095Y-60397080D01*
X127388095Y-60397080D02*
X127435714Y-60301842D01*
X127435714Y-60301842D02*
X127435714Y-60206604D01*
X127435714Y-60206604D02*
X127388095Y-60111366D01*
X127388095Y-60111366D02*
X127340476Y-60063747D01*
X127340476Y-60063747D02*
X127245238Y-60016128D01*
X127245238Y-60016128D02*
X127054762Y-59968509D01*
X127054762Y-59968509D02*
X126959524Y-59920890D01*
X126959524Y-59920890D02*
X126911905Y-59873271D01*
X126911905Y-59873271D02*
X126864286Y-59778033D01*
X126864286Y-59778033D02*
X126864286Y-59682795D01*
X126864286Y-59682795D02*
X126911905Y-59587557D01*
X126911905Y-59587557D02*
X126959524Y-59539938D01*
X126959524Y-59539938D02*
X127054762Y-59492319D01*
X127054762Y-59492319D02*
X127292857Y-59492319D01*
X127292857Y-59492319D02*
X127435714Y-59539938D01*
X125864286Y-61857200D02*
X126007143Y-61904819D01*
X126007143Y-61904819D02*
X126245238Y-61904819D01*
X126245238Y-61904819D02*
X126340476Y-61857200D01*
X126340476Y-61857200D02*
X126388095Y-61809580D01*
X126388095Y-61809580D02*
X126435714Y-61714342D01*
X126435714Y-61714342D02*
X126435714Y-61619104D01*
X126435714Y-61619104D02*
X126388095Y-61523866D01*
X126388095Y-61523866D02*
X126340476Y-61476247D01*
X126340476Y-61476247D02*
X126245238Y-61428628D01*
X126245238Y-61428628D02*
X126054762Y-61381009D01*
X126054762Y-61381009D02*
X125959524Y-61333390D01*
X125959524Y-61333390D02*
X125911905Y-61285771D01*
X125911905Y-61285771D02*
X125864286Y-61190533D01*
X125864286Y-61190533D02*
X125864286Y-61095295D01*
X125864286Y-61095295D02*
X125911905Y-61000057D01*
X125911905Y-61000057D02*
X125959524Y-60952438D01*
X125959524Y-60952438D02*
X126054762Y-60904819D01*
X126054762Y-60904819D02*
X126292857Y-60904819D01*
X126292857Y-60904819D02*
X126435714Y-60952438D01*
X127435714Y-61809580D02*
X127388095Y-61857200D01*
X127388095Y-61857200D02*
X127245238Y-61904819D01*
X127245238Y-61904819D02*
X127150000Y-61904819D01*
X127150000Y-61904819D02*
X127007143Y-61857200D01*
X127007143Y-61857200D02*
X126911905Y-61761961D01*
X126911905Y-61761961D02*
X126864286Y-61666723D01*
X126864286Y-61666723D02*
X126816667Y-61476247D01*
X126816667Y-61476247D02*
X126816667Y-61333390D01*
X126816667Y-61333390D02*
X126864286Y-61142914D01*
X126864286Y-61142914D02*
X126911905Y-61047676D01*
X126911905Y-61047676D02*
X127007143Y-60952438D01*
X127007143Y-60952438D02*
X127150000Y-60904819D01*
X127150000Y-60904819D02*
X127245238Y-60904819D01*
X127245238Y-60904819D02*
X127388095Y-60952438D01*
X127388095Y-60952438D02*
X127435714Y-61000057D01*
X127864286Y-61904819D02*
X127864286Y-60904819D01*
X128435714Y-61904819D02*
X128007143Y-61333390D01*
X128435714Y-60904819D02*
X127864286Y-61476247D01*
X100609524Y-86554819D02*
X101228571Y-86554819D01*
X101228571Y-86554819D02*
X100895238Y-86935771D01*
X100895238Y-86935771D02*
X101038095Y-86935771D01*
X101038095Y-86935771D02*
X101133333Y-86983390D01*
X101133333Y-86983390D02*
X101180952Y-87031009D01*
X101180952Y-87031009D02*
X101228571Y-87126247D01*
X101228571Y-87126247D02*
X101228571Y-87364342D01*
X101228571Y-87364342D02*
X101180952Y-87459580D01*
X101180952Y-87459580D02*
X101133333Y-87507200D01*
X101133333Y-87507200D02*
X101038095Y-87554819D01*
X101038095Y-87554819D02*
X100752381Y-87554819D01*
X100752381Y-87554819D02*
X100657143Y-87507200D01*
X100657143Y-87507200D02*
X100609524Y-87459580D01*
X101561905Y-86888152D02*
X101800000Y-87554819D01*
X101800000Y-87554819D02*
X102038095Y-86888152D01*
X102323810Y-86554819D02*
X102942857Y-86554819D01*
X102942857Y-86554819D02*
X102609524Y-86935771D01*
X102609524Y-86935771D02*
X102752381Y-86935771D01*
X102752381Y-86935771D02*
X102847619Y-86983390D01*
X102847619Y-86983390D02*
X102895238Y-87031009D01*
X102895238Y-87031009D02*
X102942857Y-87126247D01*
X102942857Y-87126247D02*
X102942857Y-87364342D01*
X102942857Y-87364342D02*
X102895238Y-87459580D01*
X102895238Y-87459580D02*
X102847619Y-87507200D01*
X102847619Y-87507200D02*
X102752381Y-87554819D01*
X102752381Y-87554819D02*
X102466667Y-87554819D01*
X102466667Y-87554819D02*
X102371429Y-87507200D01*
X102371429Y-87507200D02*
X102323810Y-87459580D01*
X101466666Y-59031009D02*
X101609523Y-59078628D01*
X101609523Y-59078628D02*
X101657142Y-59126247D01*
X101657142Y-59126247D02*
X101704761Y-59221485D01*
X101704761Y-59221485D02*
X101704761Y-59364342D01*
X101704761Y-59364342D02*
X101657142Y-59459580D01*
X101657142Y-59459580D02*
X101609523Y-59507200D01*
X101609523Y-59507200D02*
X101514285Y-59554819D01*
X101514285Y-59554819D02*
X101133333Y-59554819D01*
X101133333Y-59554819D02*
X101133333Y-58554819D01*
X101133333Y-58554819D02*
X101466666Y-58554819D01*
X101466666Y-58554819D02*
X101561904Y-58602438D01*
X101561904Y-58602438D02*
X101609523Y-58650057D01*
X101609523Y-58650057D02*
X101657142Y-58745295D01*
X101657142Y-58745295D02*
X101657142Y-58840533D01*
X101657142Y-58840533D02*
X101609523Y-58935771D01*
X101609523Y-58935771D02*
X101561904Y-58983390D01*
X101561904Y-58983390D02*
X101466666Y-59031009D01*
X101466666Y-59031009D02*
X101133333Y-59031009D01*
X102609523Y-59554819D02*
X102133333Y-59554819D01*
X102133333Y-59554819D02*
X102133333Y-58554819D01*
M02*
