G04 #@! TF.GenerationSoftware,KiCad,Pcbnew,8.0.8*
G04 #@! TF.CreationDate,2025-05-15T18:15:19+01:00*
G04 #@! TF.ProjectId,lcd_Daughterboard,6c63645f-4461-4756-9768-746572626f61,rev?*
G04 #@! TF.SameCoordinates,Original*
G04 #@! TF.FileFunction,Legend,Top*
G04 #@! TF.FilePolarity,Positive*
%FSLAX46Y46*%
G04 Gerber Fmt 4.6, Leading zero omitted, Abs format (unit mm)*
G04 Created by KiCad (PCBNEW 8.0.8) date 2025-05-15 18:15:19*
%MOMM*%
%LPD*%
G01*
G04 APERTURE LIST*
%ADD10C,0.150000*%
%ADD11C,0.300000*%
G04 APERTURE END LIST*
D10*
X123200000Y-68075000D02*
X125500000Y-69525000D01*
X123100000Y-61675000D02*
X125400000Y-59675000D01*
X121700000Y-75850000D02*
X121700000Y-77550000D01*
X123100000Y-64875000D02*
X125450000Y-65125000D01*
X123150000Y-68875000D02*
X125500000Y-70825000D01*
X123150000Y-67275000D02*
X125450000Y-68025000D01*
D11*
X103250000Y-46150000D02*
X163750000Y-46150000D01*
X163750000Y-89150000D01*
X103250000Y-89150000D01*
X103250000Y-46150000D01*
D10*
X121700000Y-59350000D02*
X121700000Y-61050000D01*
X123100000Y-65675000D02*
X125450000Y-66575000D01*
D11*
X112250000Y-49000000D02*
X161250000Y-49000000D01*
X161250000Y-86000000D01*
X112250000Y-86000000D01*
X112250000Y-49000000D01*
D10*
X123100000Y-62475000D02*
X125400000Y-61025000D01*
X123100000Y-64075000D02*
X125450000Y-63825000D01*
X123100000Y-63225000D02*
X125450000Y-62425000D01*
X165833333Y-61554819D02*
X165500000Y-61078628D01*
X165261905Y-61554819D02*
X165261905Y-60554819D01*
X165261905Y-60554819D02*
X165642857Y-60554819D01*
X165642857Y-60554819D02*
X165738095Y-60602438D01*
X165738095Y-60602438D02*
X165785714Y-60650057D01*
X165785714Y-60650057D02*
X165833333Y-60745295D01*
X165833333Y-60745295D02*
X165833333Y-60888152D01*
X165833333Y-60888152D02*
X165785714Y-60983390D01*
X165785714Y-60983390D02*
X165738095Y-61031009D01*
X165738095Y-61031009D02*
X165642857Y-61078628D01*
X165642857Y-61078628D02*
X165261905Y-61078628D01*
X166214286Y-61507200D02*
X166357143Y-61554819D01*
X166357143Y-61554819D02*
X166595238Y-61554819D01*
X166595238Y-61554819D02*
X166690476Y-61507200D01*
X166690476Y-61507200D02*
X166738095Y-61459580D01*
X166738095Y-61459580D02*
X166785714Y-61364342D01*
X166785714Y-61364342D02*
X166785714Y-61269104D01*
X166785714Y-61269104D02*
X166738095Y-61173866D01*
X166738095Y-61173866D02*
X166690476Y-61126247D01*
X166690476Y-61126247D02*
X166595238Y-61078628D01*
X166595238Y-61078628D02*
X166404762Y-61031009D01*
X166404762Y-61031009D02*
X166309524Y-60983390D01*
X166309524Y-60983390D02*
X166261905Y-60935771D01*
X166261905Y-60935771D02*
X166214286Y-60840533D01*
X166214286Y-60840533D02*
X166214286Y-60745295D01*
X166214286Y-60745295D02*
X166261905Y-60650057D01*
X166261905Y-60650057D02*
X166309524Y-60602438D01*
X166309524Y-60602438D02*
X166404762Y-60554819D01*
X166404762Y-60554819D02*
X166642857Y-60554819D01*
X166642857Y-60554819D02*
X166785714Y-60602438D01*
X164428572Y-84654819D02*
X164428572Y-83654819D01*
X164428572Y-83654819D02*
X164761905Y-84369104D01*
X164761905Y-84369104D02*
X165095238Y-83654819D01*
X165095238Y-83654819D02*
X165095238Y-84654819D01*
X165761905Y-83654819D02*
X165952381Y-83654819D01*
X165952381Y-83654819D02*
X166047619Y-83702438D01*
X166047619Y-83702438D02*
X166142857Y-83797676D01*
X166142857Y-83797676D02*
X166190476Y-83988152D01*
X166190476Y-83988152D02*
X166190476Y-84321485D01*
X166190476Y-84321485D02*
X166142857Y-84511961D01*
X166142857Y-84511961D02*
X166047619Y-84607200D01*
X166047619Y-84607200D02*
X165952381Y-84654819D01*
X165952381Y-84654819D02*
X165761905Y-84654819D01*
X165761905Y-84654819D02*
X165666667Y-84607200D01*
X165666667Y-84607200D02*
X165571429Y-84511961D01*
X165571429Y-84511961D02*
X165523810Y-84321485D01*
X165523810Y-84321485D02*
X165523810Y-83988152D01*
X165523810Y-83988152D02*
X165571429Y-83797676D01*
X165571429Y-83797676D02*
X165666667Y-83702438D01*
X165666667Y-83702438D02*
X165761905Y-83654819D01*
X166571429Y-84607200D02*
X166714286Y-84654819D01*
X166714286Y-84654819D02*
X166952381Y-84654819D01*
X166952381Y-84654819D02*
X167047619Y-84607200D01*
X167047619Y-84607200D02*
X167095238Y-84559580D01*
X167095238Y-84559580D02*
X167142857Y-84464342D01*
X167142857Y-84464342D02*
X167142857Y-84369104D01*
X167142857Y-84369104D02*
X167095238Y-84273866D01*
X167095238Y-84273866D02*
X167047619Y-84226247D01*
X167047619Y-84226247D02*
X166952381Y-84178628D01*
X166952381Y-84178628D02*
X166761905Y-84131009D01*
X166761905Y-84131009D02*
X166666667Y-84083390D01*
X166666667Y-84083390D02*
X166619048Y-84035771D01*
X166619048Y-84035771D02*
X166571429Y-83940533D01*
X166571429Y-83940533D02*
X166571429Y-83845295D01*
X166571429Y-83845295D02*
X166619048Y-83750057D01*
X166619048Y-83750057D02*
X166666667Y-83702438D01*
X166666667Y-83702438D02*
X166761905Y-83654819D01*
X166761905Y-83654819D02*
X167000000Y-83654819D01*
X167000000Y-83654819D02*
X167142857Y-83702438D01*
X167571429Y-84654819D02*
X167571429Y-83654819D01*
X165238095Y-51754819D02*
X165238095Y-50754819D01*
X165238095Y-50754819D02*
X165476190Y-50754819D01*
X165476190Y-50754819D02*
X165619047Y-50802438D01*
X165619047Y-50802438D02*
X165714285Y-50897676D01*
X165714285Y-50897676D02*
X165761904Y-50992914D01*
X165761904Y-50992914D02*
X165809523Y-51183390D01*
X165809523Y-51183390D02*
X165809523Y-51326247D01*
X165809523Y-51326247D02*
X165761904Y-51516723D01*
X165761904Y-51516723D02*
X165714285Y-51611961D01*
X165714285Y-51611961D02*
X165619047Y-51707200D01*
X165619047Y-51707200D02*
X165476190Y-51754819D01*
X165476190Y-51754819D02*
X165238095Y-51754819D01*
X166809523Y-51659580D02*
X166761904Y-51707200D01*
X166761904Y-51707200D02*
X166619047Y-51754819D01*
X166619047Y-51754819D02*
X166523809Y-51754819D01*
X166523809Y-51754819D02*
X166380952Y-51707200D01*
X166380952Y-51707200D02*
X166285714Y-51611961D01*
X166285714Y-51611961D02*
X166238095Y-51516723D01*
X166238095Y-51516723D02*
X166190476Y-51326247D01*
X166190476Y-51326247D02*
X166190476Y-51183390D01*
X166190476Y-51183390D02*
X166238095Y-50992914D01*
X166238095Y-50992914D02*
X166285714Y-50897676D01*
X166285714Y-50897676D02*
X166380952Y-50802438D01*
X166380952Y-50802438D02*
X166523809Y-50754819D01*
X166523809Y-50754819D02*
X166619047Y-50754819D01*
X166619047Y-50754819D02*
X166761904Y-50802438D01*
X166761904Y-50802438D02*
X166809523Y-50850057D01*
X164614286Y-74107200D02*
X164757143Y-74154819D01*
X164757143Y-74154819D02*
X164995238Y-74154819D01*
X164995238Y-74154819D02*
X165090476Y-74107200D01*
X165090476Y-74107200D02*
X165138095Y-74059580D01*
X165138095Y-74059580D02*
X165185714Y-73964342D01*
X165185714Y-73964342D02*
X165185714Y-73869104D01*
X165185714Y-73869104D02*
X165138095Y-73773866D01*
X165138095Y-73773866D02*
X165090476Y-73726247D01*
X165090476Y-73726247D02*
X164995238Y-73678628D01*
X164995238Y-73678628D02*
X164804762Y-73631009D01*
X164804762Y-73631009D02*
X164709524Y-73583390D01*
X164709524Y-73583390D02*
X164661905Y-73535771D01*
X164661905Y-73535771D02*
X164614286Y-73440533D01*
X164614286Y-73440533D02*
X164614286Y-73345295D01*
X164614286Y-73345295D02*
X164661905Y-73250057D01*
X164661905Y-73250057D02*
X164709524Y-73202438D01*
X164709524Y-73202438D02*
X164804762Y-73154819D01*
X164804762Y-73154819D02*
X165042857Y-73154819D01*
X165042857Y-73154819D02*
X165185714Y-73202438D01*
X166185714Y-74059580D02*
X166138095Y-74107200D01*
X166138095Y-74107200D02*
X165995238Y-74154819D01*
X165995238Y-74154819D02*
X165900000Y-74154819D01*
X165900000Y-74154819D02*
X165757143Y-74107200D01*
X165757143Y-74107200D02*
X165661905Y-74011961D01*
X165661905Y-74011961D02*
X165614286Y-73916723D01*
X165614286Y-73916723D02*
X165566667Y-73726247D01*
X165566667Y-73726247D02*
X165566667Y-73583390D01*
X165566667Y-73583390D02*
X165614286Y-73392914D01*
X165614286Y-73392914D02*
X165661905Y-73297676D01*
X165661905Y-73297676D02*
X165757143Y-73202438D01*
X165757143Y-73202438D02*
X165900000Y-73154819D01*
X165900000Y-73154819D02*
X165995238Y-73154819D01*
X165995238Y-73154819D02*
X166138095Y-73202438D01*
X166138095Y-73202438D02*
X166185714Y-73250057D01*
X166614286Y-74154819D02*
X166614286Y-73154819D01*
X167185714Y-74154819D02*
X166757143Y-73583390D01*
X167185714Y-73154819D02*
X166614286Y-73726247D01*
X125816667Y-68942319D02*
X126435714Y-68942319D01*
X126435714Y-68942319D02*
X126102381Y-69323271D01*
X126102381Y-69323271D02*
X126245238Y-69323271D01*
X126245238Y-69323271D02*
X126340476Y-69370890D01*
X126340476Y-69370890D02*
X126388095Y-69418509D01*
X126388095Y-69418509D02*
X126435714Y-69513747D01*
X126435714Y-69513747D02*
X126435714Y-69751842D01*
X126435714Y-69751842D02*
X126388095Y-69847080D01*
X126388095Y-69847080D02*
X126340476Y-69894700D01*
X126340476Y-69894700D02*
X126245238Y-69942319D01*
X126245238Y-69942319D02*
X125959524Y-69942319D01*
X125959524Y-69942319D02*
X125864286Y-69894700D01*
X125864286Y-69894700D02*
X125816667Y-69847080D01*
X126721429Y-68942319D02*
X127054762Y-69942319D01*
X127054762Y-69942319D02*
X127388095Y-68942319D01*
X127626191Y-68942319D02*
X128245238Y-68942319D01*
X128245238Y-68942319D02*
X127911905Y-69323271D01*
X127911905Y-69323271D02*
X128054762Y-69323271D01*
X128054762Y-69323271D02*
X128150000Y-69370890D01*
X128150000Y-69370890D02*
X128197619Y-69418509D01*
X128197619Y-69418509D02*
X128245238Y-69513747D01*
X128245238Y-69513747D02*
X128245238Y-69751842D01*
X128245238Y-69751842D02*
X128197619Y-69847080D01*
X128197619Y-69847080D02*
X128150000Y-69894700D01*
X128150000Y-69894700D02*
X128054762Y-69942319D01*
X128054762Y-69942319D02*
X127769048Y-69942319D01*
X127769048Y-69942319D02*
X127673810Y-69894700D01*
X127673810Y-69894700D02*
X127626191Y-69847080D01*
X125911905Y-64292319D02*
X125911905Y-63292319D01*
X125911905Y-63292319D02*
X126150000Y-63292319D01*
X126150000Y-63292319D02*
X126292857Y-63339938D01*
X126292857Y-63339938D02*
X126388095Y-63435176D01*
X126388095Y-63435176D02*
X126435714Y-63530414D01*
X126435714Y-63530414D02*
X126483333Y-63720890D01*
X126483333Y-63720890D02*
X126483333Y-63863747D01*
X126483333Y-63863747D02*
X126435714Y-64054223D01*
X126435714Y-64054223D02*
X126388095Y-64149461D01*
X126388095Y-64149461D02*
X126292857Y-64244700D01*
X126292857Y-64244700D02*
X126150000Y-64292319D01*
X126150000Y-64292319D02*
X125911905Y-64292319D01*
X127483333Y-64197080D02*
X127435714Y-64244700D01*
X127435714Y-64244700D02*
X127292857Y-64292319D01*
X127292857Y-64292319D02*
X127197619Y-64292319D01*
X127197619Y-64292319D02*
X127054762Y-64244700D01*
X127054762Y-64244700D02*
X126959524Y-64149461D01*
X126959524Y-64149461D02*
X126911905Y-64054223D01*
X126911905Y-64054223D02*
X126864286Y-63863747D01*
X126864286Y-63863747D02*
X126864286Y-63720890D01*
X126864286Y-63720890D02*
X126911905Y-63530414D01*
X126911905Y-63530414D02*
X126959524Y-63435176D01*
X126959524Y-63435176D02*
X127054762Y-63339938D01*
X127054762Y-63339938D02*
X127197619Y-63292319D01*
X127197619Y-63292319D02*
X127292857Y-63292319D01*
X127292857Y-63292319D02*
X127435714Y-63339938D01*
X127435714Y-63339938D02*
X127483333Y-63387557D01*
X126435714Y-64752438D02*
X126340476Y-64704819D01*
X126340476Y-64704819D02*
X126197619Y-64704819D01*
X126197619Y-64704819D02*
X126054762Y-64752438D01*
X126054762Y-64752438D02*
X125959524Y-64847676D01*
X125959524Y-64847676D02*
X125911905Y-64942914D01*
X125911905Y-64942914D02*
X125864286Y-65133390D01*
X125864286Y-65133390D02*
X125864286Y-65276247D01*
X125864286Y-65276247D02*
X125911905Y-65466723D01*
X125911905Y-65466723D02*
X125959524Y-65561961D01*
X125959524Y-65561961D02*
X126054762Y-65657200D01*
X126054762Y-65657200D02*
X126197619Y-65704819D01*
X126197619Y-65704819D02*
X126292857Y-65704819D01*
X126292857Y-65704819D02*
X126435714Y-65657200D01*
X126435714Y-65657200D02*
X126483333Y-65609580D01*
X126483333Y-65609580D02*
X126483333Y-65276247D01*
X126483333Y-65276247D02*
X126292857Y-65276247D01*
X126911905Y-65704819D02*
X126911905Y-64704819D01*
X126911905Y-64704819D02*
X127483333Y-65704819D01*
X127483333Y-65704819D02*
X127483333Y-64704819D01*
X127959524Y-65704819D02*
X127959524Y-64704819D01*
X127959524Y-64704819D02*
X128197619Y-64704819D01*
X128197619Y-64704819D02*
X128340476Y-64752438D01*
X128340476Y-64752438D02*
X128435714Y-64847676D01*
X128435714Y-64847676D02*
X128483333Y-64942914D01*
X128483333Y-64942914D02*
X128530952Y-65133390D01*
X128530952Y-65133390D02*
X128530952Y-65276247D01*
X128530952Y-65276247D02*
X128483333Y-65466723D01*
X128483333Y-65466723D02*
X128435714Y-65561961D01*
X128435714Y-65561961D02*
X128340476Y-65657200D01*
X128340476Y-65657200D02*
X128197619Y-65704819D01*
X128197619Y-65704819D02*
X127959524Y-65704819D01*
X126435714Y-67577438D02*
X126340476Y-67529819D01*
X126340476Y-67529819D02*
X126197619Y-67529819D01*
X126197619Y-67529819D02*
X126054762Y-67577438D01*
X126054762Y-67577438D02*
X125959524Y-67672676D01*
X125959524Y-67672676D02*
X125911905Y-67767914D01*
X125911905Y-67767914D02*
X125864286Y-67958390D01*
X125864286Y-67958390D02*
X125864286Y-68101247D01*
X125864286Y-68101247D02*
X125911905Y-68291723D01*
X125911905Y-68291723D02*
X125959524Y-68386961D01*
X125959524Y-68386961D02*
X126054762Y-68482200D01*
X126054762Y-68482200D02*
X126197619Y-68529819D01*
X126197619Y-68529819D02*
X126292857Y-68529819D01*
X126292857Y-68529819D02*
X126435714Y-68482200D01*
X126435714Y-68482200D02*
X126483333Y-68434580D01*
X126483333Y-68434580D02*
X126483333Y-68101247D01*
X126483333Y-68101247D02*
X126292857Y-68101247D01*
X126911905Y-68529819D02*
X126911905Y-67529819D01*
X126911905Y-67529819D02*
X127483333Y-68529819D01*
X127483333Y-68529819D02*
X127483333Y-67529819D01*
X127959524Y-68529819D02*
X127959524Y-67529819D01*
X127959524Y-67529819D02*
X128197619Y-67529819D01*
X128197619Y-67529819D02*
X128340476Y-67577438D01*
X128340476Y-67577438D02*
X128435714Y-67672676D01*
X128435714Y-67672676D02*
X128483333Y-67767914D01*
X128483333Y-67767914D02*
X128530952Y-67958390D01*
X128530952Y-67958390D02*
X128530952Y-68101247D01*
X128530952Y-68101247D02*
X128483333Y-68291723D01*
X128483333Y-68291723D02*
X128435714Y-68386961D01*
X128435714Y-68386961D02*
X128340476Y-68482200D01*
X128340476Y-68482200D02*
X128197619Y-68529819D01*
X128197619Y-68529819D02*
X127959524Y-68529819D01*
X125911905Y-67117319D02*
X125911905Y-66117319D01*
X125911905Y-66117319D02*
X126245238Y-66831604D01*
X126245238Y-66831604D02*
X126578571Y-66117319D01*
X126578571Y-66117319D02*
X126578571Y-67117319D01*
X127245238Y-66117319D02*
X127435714Y-66117319D01*
X127435714Y-66117319D02*
X127530952Y-66164938D01*
X127530952Y-66164938D02*
X127626190Y-66260176D01*
X127626190Y-66260176D02*
X127673809Y-66450652D01*
X127673809Y-66450652D02*
X127673809Y-66783985D01*
X127673809Y-66783985D02*
X127626190Y-66974461D01*
X127626190Y-66974461D02*
X127530952Y-67069700D01*
X127530952Y-67069700D02*
X127435714Y-67117319D01*
X127435714Y-67117319D02*
X127245238Y-67117319D01*
X127245238Y-67117319D02*
X127150000Y-67069700D01*
X127150000Y-67069700D02*
X127054762Y-66974461D01*
X127054762Y-66974461D02*
X127007143Y-66783985D01*
X127007143Y-66783985D02*
X127007143Y-66450652D01*
X127007143Y-66450652D02*
X127054762Y-66260176D01*
X127054762Y-66260176D02*
X127150000Y-66164938D01*
X127150000Y-66164938D02*
X127245238Y-66117319D01*
X128054762Y-67069700D02*
X128197619Y-67117319D01*
X128197619Y-67117319D02*
X128435714Y-67117319D01*
X128435714Y-67117319D02*
X128530952Y-67069700D01*
X128530952Y-67069700D02*
X128578571Y-67022080D01*
X128578571Y-67022080D02*
X128626190Y-66926842D01*
X128626190Y-66926842D02*
X128626190Y-66831604D01*
X128626190Y-66831604D02*
X128578571Y-66736366D01*
X128578571Y-66736366D02*
X128530952Y-66688747D01*
X128530952Y-66688747D02*
X128435714Y-66641128D01*
X128435714Y-66641128D02*
X128245238Y-66593509D01*
X128245238Y-66593509D02*
X128150000Y-66545890D01*
X128150000Y-66545890D02*
X128102381Y-66498271D01*
X128102381Y-66498271D02*
X128054762Y-66403033D01*
X128054762Y-66403033D02*
X128054762Y-66307795D01*
X128054762Y-66307795D02*
X128102381Y-66212557D01*
X128102381Y-66212557D02*
X128150000Y-66164938D01*
X128150000Y-66164938D02*
X128245238Y-66117319D01*
X128245238Y-66117319D02*
X128483333Y-66117319D01*
X128483333Y-66117319D02*
X128626190Y-66164938D01*
X129054762Y-67117319D02*
X129054762Y-66117319D01*
X126245238Y-70831009D02*
X126388095Y-70878628D01*
X126388095Y-70878628D02*
X126435714Y-70926247D01*
X126435714Y-70926247D02*
X126483333Y-71021485D01*
X126483333Y-71021485D02*
X126483333Y-71164342D01*
X126483333Y-71164342D02*
X126435714Y-71259580D01*
X126435714Y-71259580D02*
X126388095Y-71307200D01*
X126388095Y-71307200D02*
X126292857Y-71354819D01*
X126292857Y-71354819D02*
X125911905Y-71354819D01*
X125911905Y-71354819D02*
X125911905Y-70354819D01*
X125911905Y-70354819D02*
X126245238Y-70354819D01*
X126245238Y-70354819D02*
X126340476Y-70402438D01*
X126340476Y-70402438D02*
X126388095Y-70450057D01*
X126388095Y-70450057D02*
X126435714Y-70545295D01*
X126435714Y-70545295D02*
X126435714Y-70640533D01*
X126435714Y-70640533D02*
X126388095Y-70735771D01*
X126388095Y-70735771D02*
X126340476Y-70783390D01*
X126340476Y-70783390D02*
X126245238Y-70831009D01*
X126245238Y-70831009D02*
X125911905Y-70831009D01*
X127388095Y-71354819D02*
X126911905Y-71354819D01*
X126911905Y-71354819D02*
X126911905Y-70354819D01*
X126435714Y-59102438D02*
X126340476Y-59054819D01*
X126340476Y-59054819D02*
X126197619Y-59054819D01*
X126197619Y-59054819D02*
X126054762Y-59102438D01*
X126054762Y-59102438D02*
X125959524Y-59197676D01*
X125959524Y-59197676D02*
X125911905Y-59292914D01*
X125911905Y-59292914D02*
X125864286Y-59483390D01*
X125864286Y-59483390D02*
X125864286Y-59626247D01*
X125864286Y-59626247D02*
X125911905Y-59816723D01*
X125911905Y-59816723D02*
X125959524Y-59911961D01*
X125959524Y-59911961D02*
X126054762Y-60007200D01*
X126054762Y-60007200D02*
X126197619Y-60054819D01*
X126197619Y-60054819D02*
X126292857Y-60054819D01*
X126292857Y-60054819D02*
X126435714Y-60007200D01*
X126435714Y-60007200D02*
X126483333Y-59959580D01*
X126483333Y-59959580D02*
X126483333Y-59626247D01*
X126483333Y-59626247D02*
X126292857Y-59626247D01*
X126911905Y-60054819D02*
X126911905Y-59054819D01*
X126911905Y-59054819D02*
X127483333Y-60054819D01*
X127483333Y-60054819D02*
X127483333Y-59054819D01*
X127959524Y-60054819D02*
X127959524Y-59054819D01*
X127959524Y-59054819D02*
X128197619Y-59054819D01*
X128197619Y-59054819D02*
X128340476Y-59102438D01*
X128340476Y-59102438D02*
X128435714Y-59197676D01*
X128435714Y-59197676D02*
X128483333Y-59292914D01*
X128483333Y-59292914D02*
X128530952Y-59483390D01*
X128530952Y-59483390D02*
X128530952Y-59626247D01*
X128530952Y-59626247D02*
X128483333Y-59816723D01*
X128483333Y-59816723D02*
X128435714Y-59911961D01*
X128435714Y-59911961D02*
X128340476Y-60007200D01*
X128340476Y-60007200D02*
X128197619Y-60054819D01*
X128197619Y-60054819D02*
X127959524Y-60054819D01*
X126483333Y-61467319D02*
X126150000Y-60991128D01*
X125911905Y-61467319D02*
X125911905Y-60467319D01*
X125911905Y-60467319D02*
X126292857Y-60467319D01*
X126292857Y-60467319D02*
X126388095Y-60514938D01*
X126388095Y-60514938D02*
X126435714Y-60562557D01*
X126435714Y-60562557D02*
X126483333Y-60657795D01*
X126483333Y-60657795D02*
X126483333Y-60800652D01*
X126483333Y-60800652D02*
X126435714Y-60895890D01*
X126435714Y-60895890D02*
X126388095Y-60943509D01*
X126388095Y-60943509D02*
X126292857Y-60991128D01*
X126292857Y-60991128D02*
X125911905Y-60991128D01*
X126864286Y-61419700D02*
X127007143Y-61467319D01*
X127007143Y-61467319D02*
X127245238Y-61467319D01*
X127245238Y-61467319D02*
X127340476Y-61419700D01*
X127340476Y-61419700D02*
X127388095Y-61372080D01*
X127388095Y-61372080D02*
X127435714Y-61276842D01*
X127435714Y-61276842D02*
X127435714Y-61181604D01*
X127435714Y-61181604D02*
X127388095Y-61086366D01*
X127388095Y-61086366D02*
X127340476Y-61038747D01*
X127340476Y-61038747D02*
X127245238Y-60991128D01*
X127245238Y-60991128D02*
X127054762Y-60943509D01*
X127054762Y-60943509D02*
X126959524Y-60895890D01*
X126959524Y-60895890D02*
X126911905Y-60848271D01*
X126911905Y-60848271D02*
X126864286Y-60753033D01*
X126864286Y-60753033D02*
X126864286Y-60657795D01*
X126864286Y-60657795D02*
X126911905Y-60562557D01*
X126911905Y-60562557D02*
X126959524Y-60514938D01*
X126959524Y-60514938D02*
X127054762Y-60467319D01*
X127054762Y-60467319D02*
X127292857Y-60467319D01*
X127292857Y-60467319D02*
X127435714Y-60514938D01*
X125864286Y-62832200D02*
X126007143Y-62879819D01*
X126007143Y-62879819D02*
X126245238Y-62879819D01*
X126245238Y-62879819D02*
X126340476Y-62832200D01*
X126340476Y-62832200D02*
X126388095Y-62784580D01*
X126388095Y-62784580D02*
X126435714Y-62689342D01*
X126435714Y-62689342D02*
X126435714Y-62594104D01*
X126435714Y-62594104D02*
X126388095Y-62498866D01*
X126388095Y-62498866D02*
X126340476Y-62451247D01*
X126340476Y-62451247D02*
X126245238Y-62403628D01*
X126245238Y-62403628D02*
X126054762Y-62356009D01*
X126054762Y-62356009D02*
X125959524Y-62308390D01*
X125959524Y-62308390D02*
X125911905Y-62260771D01*
X125911905Y-62260771D02*
X125864286Y-62165533D01*
X125864286Y-62165533D02*
X125864286Y-62070295D01*
X125864286Y-62070295D02*
X125911905Y-61975057D01*
X125911905Y-61975057D02*
X125959524Y-61927438D01*
X125959524Y-61927438D02*
X126054762Y-61879819D01*
X126054762Y-61879819D02*
X126292857Y-61879819D01*
X126292857Y-61879819D02*
X126435714Y-61927438D01*
X127435714Y-62784580D02*
X127388095Y-62832200D01*
X127388095Y-62832200D02*
X127245238Y-62879819D01*
X127245238Y-62879819D02*
X127150000Y-62879819D01*
X127150000Y-62879819D02*
X127007143Y-62832200D01*
X127007143Y-62832200D02*
X126911905Y-62736961D01*
X126911905Y-62736961D02*
X126864286Y-62641723D01*
X126864286Y-62641723D02*
X126816667Y-62451247D01*
X126816667Y-62451247D02*
X126816667Y-62308390D01*
X126816667Y-62308390D02*
X126864286Y-62117914D01*
X126864286Y-62117914D02*
X126911905Y-62022676D01*
X126911905Y-62022676D02*
X127007143Y-61927438D01*
X127007143Y-61927438D02*
X127150000Y-61879819D01*
X127150000Y-61879819D02*
X127245238Y-61879819D01*
X127245238Y-61879819D02*
X127388095Y-61927438D01*
X127388095Y-61927438D02*
X127435714Y-61975057D01*
X127864286Y-62879819D02*
X127864286Y-61879819D01*
X128435714Y-62879819D02*
X128007143Y-62308390D01*
X128435714Y-61879819D02*
X127864286Y-62451247D01*
X100609524Y-86554819D02*
X101228571Y-86554819D01*
X101228571Y-86554819D02*
X100895238Y-86935771D01*
X100895238Y-86935771D02*
X101038095Y-86935771D01*
X101038095Y-86935771D02*
X101133333Y-86983390D01*
X101133333Y-86983390D02*
X101180952Y-87031009D01*
X101180952Y-87031009D02*
X101228571Y-87126247D01*
X101228571Y-87126247D02*
X101228571Y-87364342D01*
X101228571Y-87364342D02*
X101180952Y-87459580D01*
X101180952Y-87459580D02*
X101133333Y-87507200D01*
X101133333Y-87507200D02*
X101038095Y-87554819D01*
X101038095Y-87554819D02*
X100752381Y-87554819D01*
X100752381Y-87554819D02*
X100657143Y-87507200D01*
X100657143Y-87507200D02*
X100609524Y-87459580D01*
X101561905Y-86888152D02*
X101800000Y-87554819D01*
X101800000Y-87554819D02*
X102038095Y-86888152D01*
X102323810Y-86554819D02*
X102942857Y-86554819D01*
X102942857Y-86554819D02*
X102609524Y-86935771D01*
X102609524Y-86935771D02*
X102752381Y-86935771D01*
X102752381Y-86935771D02*
X102847619Y-86983390D01*
X102847619Y-86983390D02*
X102895238Y-87031009D01*
X102895238Y-87031009D02*
X102942857Y-87126247D01*
X102942857Y-87126247D02*
X102942857Y-87364342D01*
X102942857Y-87364342D02*
X102895238Y-87459580D01*
X102895238Y-87459580D02*
X102847619Y-87507200D01*
X102847619Y-87507200D02*
X102752381Y-87554819D01*
X102752381Y-87554819D02*
X102466667Y-87554819D01*
X102466667Y-87554819D02*
X102371429Y-87507200D01*
X102371429Y-87507200D02*
X102323810Y-87459580D01*
X101466666Y-59031009D02*
X101609523Y-59078628D01*
X101609523Y-59078628D02*
X101657142Y-59126247D01*
X101657142Y-59126247D02*
X101704761Y-59221485D01*
X101704761Y-59221485D02*
X101704761Y-59364342D01*
X101704761Y-59364342D02*
X101657142Y-59459580D01*
X101657142Y-59459580D02*
X101609523Y-59507200D01*
X101609523Y-59507200D02*
X101514285Y-59554819D01*
X101514285Y-59554819D02*
X101133333Y-59554819D01*
X101133333Y-59554819D02*
X101133333Y-58554819D01*
X101133333Y-58554819D02*
X101466666Y-58554819D01*
X101466666Y-58554819D02*
X101561904Y-58602438D01*
X101561904Y-58602438D02*
X101609523Y-58650057D01*
X101609523Y-58650057D02*
X101657142Y-58745295D01*
X101657142Y-58745295D02*
X101657142Y-58840533D01*
X101657142Y-58840533D02*
X101609523Y-58935771D01*
X101609523Y-58935771D02*
X101561904Y-58983390D01*
X101561904Y-58983390D02*
X101466666Y-59031009D01*
X101466666Y-59031009D02*
X101133333Y-59031009D01*
X102609523Y-59554819D02*
X102133333Y-59554819D01*
X102133333Y-59554819D02*
X102133333Y-58554819D01*
M02*
