G04 #@! TF.GenerationSoftware,KiCad,Pcbnew,8.0.8*
G04 #@! TF.CreationDate,2025-04-14T14:54:38+01:00*
G04 #@! TF.ProjectId,lcd_Daughterboard,6c63645f-4461-4756-9768-746572626f61,rev?*
G04 #@! TF.SameCoordinates,Original*
G04 #@! TF.FileFunction,Copper,L1,Top*
G04 #@! TF.FilePolarity,Positive*
%FSLAX46Y46*%
G04 Gerber Fmt 4.6, Leading zero omitted, Abs format (unit mm)*
G04 Created by KiCad (PCBNEW 8.0.8) date 2025-04-14 14:54:38*
%MOMM*%
%LPD*%
G01*
G04 APERTURE LIST*
G04 #@! TA.AperFunction,SMDPad,CuDef*
%ADD10R,3.000000X0.400000*%
G04 #@! TD*
G04 #@! TA.AperFunction,ComponentPad*
%ADD11R,1.700000X1.700000*%
G04 #@! TD*
G04 #@! TA.AperFunction,ComponentPad*
%ADD12O,1.700000X1.700000*%
G04 #@! TD*
G04 #@! TA.AperFunction,Conductor*
%ADD13C,0.400000*%
G04 #@! TD*
G04 APERTURE END LIST*
D10*
X121500000Y-60700000D03*
X121500000Y-61500000D03*
X121500000Y-62300000D03*
X121500000Y-63100000D03*
X121500000Y-63900000D03*
X121500000Y-64700000D03*
X121500000Y-65500000D03*
X121500000Y-66300000D03*
X121500000Y-67100000D03*
X121500000Y-67900000D03*
X121500000Y-68700000D03*
X121500000Y-69500000D03*
X121500000Y-70300000D03*
X121500000Y-71100000D03*
X121500000Y-71900000D03*
X121500000Y-72700000D03*
X121500000Y-73500000D03*
X121500000Y-74300000D03*
D11*
X102100000Y-53700000D03*
D12*
X102100000Y-56240000D03*
D11*
X166000000Y-53700000D03*
D12*
X166000000Y-56240000D03*
X166000000Y-58780000D03*
D11*
X166000000Y-76600000D03*
D12*
X166000000Y-79140000D03*
X166000000Y-81680000D03*
D11*
X102100000Y-81700000D03*
D12*
X102100000Y-84240000D03*
D13*
X121600000Y-70200000D02*
X121500000Y-70300000D01*
X121500000Y-71100000D02*
X121500000Y-68700000D01*
X125900000Y-67100000D02*
X127000000Y-68200000D01*
X127000000Y-76200000D02*
X119000000Y-84200000D01*
X127000000Y-68200000D02*
X127000000Y-76200000D01*
X121500000Y-67100000D02*
X125900000Y-67100000D01*
X119000000Y-84200000D02*
X102100000Y-84200000D01*
X118400000Y-63100000D02*
X117400000Y-62100000D01*
X117400000Y-62100000D02*
X117400000Y-55900000D01*
X119600000Y-53700000D02*
X166000000Y-53700000D01*
X117400000Y-55900000D02*
X119600000Y-53700000D01*
X121500000Y-63100000D02*
X118400000Y-63100000D01*
X121500000Y-61500000D02*
X163280000Y-61500000D01*
X163280000Y-61500000D02*
X166000000Y-58780000D01*
X121500000Y-64700000D02*
X131351472Y-64700000D01*
X148306472Y-81655000D02*
X165975000Y-81655000D01*
X131351472Y-64700000D02*
X148306472Y-81655000D01*
X165975000Y-81655000D02*
X166000000Y-81680000D01*
X121500000Y-67900000D02*
X119000000Y-67900000D01*
X119000000Y-67900000D02*
X107340000Y-56240000D01*
X107340000Y-56240000D02*
X102100000Y-56240000D01*
X134100000Y-62300000D02*
X148375000Y-76575000D01*
X121500000Y-62300000D02*
X134100000Y-62300000D01*
X165975000Y-76575000D02*
X166000000Y-76600000D01*
X148375000Y-76575000D02*
X165975000Y-76575000D01*
G04 #@! TA.AperFunction,Conductor*
G36*
X164791622Y-54220502D02*
G01*
X164838115Y-54274158D01*
X164849501Y-54326500D01*
X164849501Y-54594866D01*
X164852414Y-54619990D01*
X164852416Y-54619994D01*
X164897793Y-54722765D01*
X164977232Y-54802204D01*
X164977234Y-54802205D01*
X164977235Y-54802206D01*
X165080009Y-54847585D01*
X165105135Y-54850500D01*
X165231139Y-54850499D01*
X165299257Y-54870501D01*
X165345750Y-54924156D01*
X165355855Y-54994430D01*
X165326362Y-55059011D01*
X165303408Y-55079712D01*
X165128925Y-55201887D01*
X165128919Y-55201892D01*
X164961892Y-55368919D01*
X164961887Y-55368925D01*
X164826400Y-55562421D01*
X164726570Y-55776506D01*
X164726568Y-55776511D01*
X164669363Y-55990000D01*
X165566988Y-55990000D01*
X165534075Y-56047007D01*
X165500000Y-56174174D01*
X165500000Y-56305826D01*
X165534075Y-56432993D01*
X165566988Y-56490000D01*
X164669364Y-56490000D01*
X164726568Y-56703488D01*
X164726570Y-56703493D01*
X164826399Y-56917577D01*
X164826400Y-56917579D01*
X164961886Y-57111073D01*
X164961893Y-57111082D01*
X165128917Y-57278106D01*
X165128926Y-57278113D01*
X165322420Y-57413599D01*
X165322422Y-57413600D01*
X165517320Y-57504483D01*
X165570605Y-57551400D01*
X165590066Y-57619678D01*
X165569524Y-57687638D01*
X165515501Y-57733703D01*
X165509592Y-57736167D01*
X165484981Y-57745702D01*
X165484980Y-57745702D01*
X165484979Y-57745703D01*
X165484974Y-57745705D01*
X165303701Y-57857945D01*
X165303699Y-57857946D01*
X165146129Y-58001591D01*
X165059293Y-58116580D01*
X165017634Y-58171745D01*
X164924130Y-58359526D01*
X164922593Y-58362615D01*
X164864244Y-58567688D01*
X164844571Y-58780000D01*
X164864244Y-58992313D01*
X164891743Y-59088960D01*
X164891147Y-59159954D01*
X164859648Y-59212536D01*
X163109589Y-60962596D01*
X163047279Y-60996620D01*
X163020496Y-60999500D01*
X123626000Y-60999500D01*
X123557879Y-60979498D01*
X123511386Y-60925842D01*
X123507366Y-60907365D01*
X123500001Y-60900000D01*
X119500000Y-60900000D01*
X119500000Y-60947840D01*
X119506400Y-61007371D01*
X119556647Y-61142089D01*
X119642809Y-61257187D01*
X119649009Y-61261828D01*
X119691555Y-61318664D01*
X119699500Y-61362697D01*
X119699500Y-61744859D01*
X119699501Y-61744866D01*
X119702414Y-61769990D01*
X119702416Y-61769994D01*
X119737347Y-61849106D01*
X119746565Y-61919502D01*
X119737347Y-61950893D01*
X119702415Y-62030007D01*
X119702414Y-62030008D01*
X119699500Y-62055130D01*
X119699500Y-62055133D01*
X119699500Y-62055135D01*
X119699500Y-62293190D01*
X119699501Y-62473500D01*
X119679499Y-62541620D01*
X119625844Y-62588114D01*
X119573501Y-62599500D01*
X118659504Y-62599500D01*
X118591383Y-62579498D01*
X118570409Y-62562595D01*
X117937405Y-61929591D01*
X117903379Y-61867279D01*
X117900500Y-61840496D01*
X117900500Y-60452159D01*
X119500000Y-60452159D01*
X119500000Y-60500000D01*
X121300000Y-60500000D01*
X121700000Y-60500000D01*
X123500000Y-60500000D01*
X123500000Y-60452176D01*
X123499999Y-60452159D01*
X123493599Y-60392628D01*
X123443352Y-60257910D01*
X123357189Y-60142810D01*
X123242089Y-60056647D01*
X123107371Y-60006400D01*
X123047840Y-60000000D01*
X121700000Y-60000000D01*
X121700000Y-60500000D01*
X121300000Y-60500000D01*
X121300000Y-60000000D01*
X119952159Y-60000000D01*
X119892628Y-60006400D01*
X119757910Y-60056647D01*
X119642810Y-60142810D01*
X119556647Y-60257910D01*
X119506400Y-60392628D01*
X119500000Y-60452159D01*
X117900500Y-60452159D01*
X117900500Y-56159504D01*
X117920502Y-56091383D01*
X117937405Y-56070409D01*
X119770409Y-54237405D01*
X119832721Y-54203379D01*
X119859504Y-54200500D01*
X164723501Y-54200500D01*
X164791622Y-54220502D01*
G37*
G04 #@! TD.AperFunction*
G04 #@! TA.AperFunction,Conductor*
G36*
X167891621Y-45270502D02*
G01*
X167938114Y-45324158D01*
X167949500Y-45376500D01*
X167949500Y-90023500D01*
X167929498Y-90091621D01*
X167875842Y-90138114D01*
X167823500Y-90149500D01*
X100176500Y-90149500D01*
X100108379Y-90129498D01*
X100061886Y-90075842D01*
X100050500Y-90023500D01*
X100050500Y-71347840D01*
X119500000Y-71347840D01*
X119506400Y-71407371D01*
X119556647Y-71542089D01*
X119642809Y-71657187D01*
X119649009Y-71661828D01*
X119691555Y-71718664D01*
X119699500Y-71762697D01*
X119699500Y-72144859D01*
X119699501Y-72144866D01*
X119702414Y-72169990D01*
X119702416Y-72169994D01*
X119737347Y-72249106D01*
X119746565Y-72319502D01*
X119737347Y-72350893D01*
X119702415Y-72430007D01*
X119702414Y-72430008D01*
X119699500Y-72455130D01*
X119699500Y-72944859D01*
X119699501Y-72944866D01*
X119702414Y-72969990D01*
X119702416Y-72969994D01*
X119737347Y-73049106D01*
X119746565Y-73119502D01*
X119737347Y-73150893D01*
X119702415Y-73230007D01*
X119702414Y-73230008D01*
X119699500Y-73255130D01*
X119699500Y-73744859D01*
X119699501Y-73744866D01*
X119702414Y-73769990D01*
X119702416Y-73769994D01*
X119737347Y-73849106D01*
X119746565Y-73919502D01*
X119737347Y-73950893D01*
X119702415Y-74030007D01*
X119702414Y-74030008D01*
X119699500Y-74055130D01*
X119699500Y-74544859D01*
X119699501Y-74544866D01*
X119702414Y-74569990D01*
X119702416Y-74569994D01*
X119747793Y-74672765D01*
X119827232Y-74752204D01*
X119827234Y-74752205D01*
X119827235Y-74752206D01*
X119930009Y-74797585D01*
X119955135Y-74800500D01*
X123044864Y-74800499D01*
X123069991Y-74797585D01*
X123172765Y-74752206D01*
X123252206Y-74672765D01*
X123297585Y-74569991D01*
X123300500Y-74544865D01*
X123300499Y-74055136D01*
X123297585Y-74030009D01*
X123262652Y-73950893D01*
X123253434Y-73880498D01*
X123262649Y-73849112D01*
X123297585Y-73769991D01*
X123300500Y-73744865D01*
X123300499Y-73255136D01*
X123297585Y-73230009D01*
X123262652Y-73150893D01*
X123253434Y-73080498D01*
X123262649Y-73049112D01*
X123297585Y-72969991D01*
X123300500Y-72944865D01*
X123300499Y-72455136D01*
X123297585Y-72430009D01*
X123262652Y-72350893D01*
X123253434Y-72280498D01*
X123262649Y-72249112D01*
X123297585Y-72169991D01*
X123300500Y-72144865D01*
X123300499Y-71762696D01*
X123320501Y-71694577D01*
X123350994Y-71661826D01*
X123357189Y-71657188D01*
X123443352Y-71542089D01*
X123493599Y-71407371D01*
X123499999Y-71347840D01*
X123500000Y-71347823D01*
X123500000Y-71300000D01*
X119500000Y-71300000D01*
X119500000Y-71347840D01*
X100050500Y-71347840D01*
X100050500Y-70547840D01*
X119500000Y-70547840D01*
X119506401Y-70607372D01*
X119524526Y-70655971D01*
X119529589Y-70726787D01*
X119524526Y-70744029D01*
X119506401Y-70792627D01*
X119500000Y-70852159D01*
X119500000Y-70900000D01*
X121300000Y-70900000D01*
X121700000Y-70900000D01*
X123500000Y-70900000D01*
X123500000Y-70852176D01*
X123499999Y-70852159D01*
X123493599Y-70792627D01*
X123475474Y-70744032D01*
X123470410Y-70673216D01*
X123475474Y-70655968D01*
X123493599Y-70607372D01*
X123499999Y-70547840D01*
X123500000Y-70547823D01*
X123500000Y-70500000D01*
X121700000Y-70500000D01*
X121700000Y-70900000D01*
X121300000Y-70900000D01*
X121300000Y-70500000D01*
X119500000Y-70500000D01*
X119500000Y-70547840D01*
X100050500Y-70547840D01*
X100050500Y-69747840D01*
X119500000Y-69747840D01*
X119506401Y-69807372D01*
X119524526Y-69855971D01*
X119529589Y-69926787D01*
X119524526Y-69944029D01*
X119506401Y-69992627D01*
X119500000Y-70052159D01*
X119500000Y-70100000D01*
X121300000Y-70100000D01*
X121700000Y-70100000D01*
X123500000Y-70100000D01*
X123500000Y-70052176D01*
X123499999Y-70052159D01*
X123493599Y-69992627D01*
X123475474Y-69944032D01*
X123470410Y-69873216D01*
X123475474Y-69855968D01*
X123493599Y-69807372D01*
X123499999Y-69747840D01*
X123500000Y-69747823D01*
X123500000Y-69700000D01*
X121700000Y-69700000D01*
X121700000Y-70100000D01*
X121300000Y-70100000D01*
X121300000Y-69700000D01*
X119500000Y-69700000D01*
X119500000Y-69747840D01*
X100050500Y-69747840D01*
X100050500Y-68947840D01*
X119500000Y-68947840D01*
X119506401Y-69007372D01*
X119524526Y-69055971D01*
X119529589Y-69126787D01*
X119524526Y-69144029D01*
X119506401Y-69192627D01*
X119500000Y-69252159D01*
X119500000Y-69300000D01*
X121300000Y-69300000D01*
X121700000Y-69300000D01*
X123500000Y-69300000D01*
X123500000Y-69252176D01*
X123499999Y-69252159D01*
X123493599Y-69192627D01*
X123475474Y-69144032D01*
X123470410Y-69073216D01*
X123475474Y-69055968D01*
X123493599Y-69007372D01*
X123499999Y-68947840D01*
X123500000Y-68947823D01*
X123500000Y-68900000D01*
X121700000Y-68900000D01*
X121700000Y-69300000D01*
X121300000Y-69300000D01*
X121300000Y-68900000D01*
X119500000Y-68900000D01*
X119500000Y-68947840D01*
X100050500Y-68947840D01*
X100050500Y-52802159D01*
X100750000Y-52802159D01*
X100750000Y-53450000D01*
X101666988Y-53450000D01*
X101634075Y-53507007D01*
X101600000Y-53634174D01*
X101600000Y-53765826D01*
X101634075Y-53892993D01*
X101666988Y-53950000D01*
X100750000Y-53950000D01*
X100750000Y-54597840D01*
X100756400Y-54657371D01*
X100806647Y-54792089D01*
X100892810Y-54907189D01*
X101007910Y-54993352D01*
X101142628Y-55043599D01*
X101202159Y-55049999D01*
X101202176Y-55050000D01*
X101393604Y-55050000D01*
X101461725Y-55070002D01*
X101508218Y-55123658D01*
X101518322Y-55193932D01*
X101488828Y-55258512D01*
X101459935Y-55283127D01*
X101403701Y-55317945D01*
X101403699Y-55317946D01*
X101246129Y-55461591D01*
X101159293Y-55576580D01*
X101117634Y-55631745D01*
X101073939Y-55719498D01*
X101022593Y-55822615D01*
X100964244Y-56027688D01*
X100944571Y-56240000D01*
X100964244Y-56452311D01*
X101022593Y-56657384D01*
X101022594Y-56657386D01*
X101022595Y-56657389D01*
X101117634Y-56848255D01*
X101169986Y-56917579D01*
X101246129Y-57018408D01*
X101403699Y-57162053D01*
X101403701Y-57162054D01*
X101584974Y-57274294D01*
X101584975Y-57274294D01*
X101584981Y-57274298D01*
X101783802Y-57351321D01*
X101993390Y-57390500D01*
X101993393Y-57390500D01*
X102206607Y-57390500D01*
X102206610Y-57390500D01*
X102416198Y-57351321D01*
X102615019Y-57274298D01*
X102796302Y-57162052D01*
X102953872Y-57018407D01*
X103082366Y-56848255D01*
X103101247Y-56810335D01*
X103149515Y-56758274D01*
X103214037Y-56740500D01*
X107080496Y-56740500D01*
X107148617Y-56760502D01*
X107169591Y-56777405D01*
X118692679Y-68300494D01*
X118692684Y-68300498D01*
X118692686Y-68300500D01*
X118806814Y-68366392D01*
X118934107Y-68400500D01*
X118934108Y-68400500D01*
X118934109Y-68400500D01*
X119374000Y-68400500D01*
X119442121Y-68420502D01*
X119488614Y-68474158D01*
X119492633Y-68492634D01*
X119499999Y-68500000D01*
X123500000Y-68500000D01*
X123500000Y-68452176D01*
X123499999Y-68452159D01*
X123493599Y-68392628D01*
X123443352Y-68257910D01*
X123357189Y-68142811D01*
X123350989Y-68138170D01*
X123308443Y-68081334D01*
X123300499Y-68037306D01*
X123300499Y-67726499D01*
X123320501Y-67658379D01*
X123374157Y-67611886D01*
X123426499Y-67600500D01*
X125640496Y-67600500D01*
X125708617Y-67620502D01*
X125729591Y-67637405D01*
X126462595Y-68370409D01*
X126496621Y-68432721D01*
X126499500Y-68459504D01*
X126499500Y-75940496D01*
X126479498Y-76008617D01*
X126462595Y-76029591D01*
X118829591Y-83662595D01*
X118767279Y-83696621D01*
X118740496Y-83699500D01*
X103194120Y-83699500D01*
X103125999Y-83679498D01*
X103086851Y-83635823D01*
X103085435Y-83636701D01*
X103082366Y-83631746D01*
X103082366Y-83631745D01*
X102953872Y-83461593D01*
X102796302Y-83317948D01*
X102796300Y-83317946D01*
X102796298Y-83317945D01*
X102740065Y-83283127D01*
X102692678Y-83230260D01*
X102681395Y-83160165D01*
X102709799Y-83095098D01*
X102768872Y-83055717D01*
X102806396Y-83050000D01*
X102997824Y-83050000D01*
X102997840Y-83049999D01*
X103057371Y-83043599D01*
X103192089Y-82993352D01*
X103307189Y-82907189D01*
X103393352Y-82792089D01*
X103443599Y-82657371D01*
X103449999Y-82597840D01*
X103450000Y-82597823D01*
X103450000Y-81950000D01*
X102533012Y-81950000D01*
X102565925Y-81892993D01*
X102600000Y-81765826D01*
X102600000Y-81634174D01*
X102565925Y-81507007D01*
X102533012Y-81450000D01*
X103450000Y-81450000D01*
X103450000Y-80802176D01*
X103449999Y-80802159D01*
X103443599Y-80742628D01*
X103393352Y-80607910D01*
X103307189Y-80492810D01*
X103192089Y-80406647D01*
X103057371Y-80356400D01*
X102997840Y-80350000D01*
X102350000Y-80350000D01*
X102350000Y-81266988D01*
X102292993Y-81234075D01*
X102165826Y-81200000D01*
X102034174Y-81200000D01*
X101907007Y-81234075D01*
X101850000Y-81266988D01*
X101850000Y-80350000D01*
X101202159Y-80350000D01*
X101142628Y-80356400D01*
X101007910Y-80406647D01*
X100892810Y-80492810D01*
X100806647Y-80607910D01*
X100756400Y-80742628D01*
X100750000Y-80802159D01*
X100750000Y-81450000D01*
X101666988Y-81450000D01*
X101634075Y-81507007D01*
X101600000Y-81634174D01*
X101600000Y-81765826D01*
X101634075Y-81892993D01*
X101666988Y-81950000D01*
X100750000Y-81950000D01*
X100750000Y-82597840D01*
X100756400Y-82657371D01*
X100806647Y-82792089D01*
X100892810Y-82907189D01*
X101007910Y-82993352D01*
X101142628Y-83043599D01*
X101202159Y-83049999D01*
X101202176Y-83050000D01*
X101393604Y-83050000D01*
X101461725Y-83070002D01*
X101508218Y-83123658D01*
X101518322Y-83193932D01*
X101488828Y-83258512D01*
X101459935Y-83283127D01*
X101403701Y-83317945D01*
X101403699Y-83317946D01*
X101246129Y-83461591D01*
X101246126Y-83461595D01*
X101117634Y-83631745D01*
X101024130Y-83819526D01*
X101022593Y-83822615D01*
X100964244Y-84027688D01*
X100944571Y-84240000D01*
X100964244Y-84452311D01*
X101022593Y-84657384D01*
X101022594Y-84657386D01*
X101022595Y-84657389D01*
X101117634Y-84848255D01*
X101246128Y-85018407D01*
X101246129Y-85018408D01*
X101403699Y-85162053D01*
X101403701Y-85162054D01*
X101584974Y-85274294D01*
X101584975Y-85274294D01*
X101584981Y-85274298D01*
X101783802Y-85351321D01*
X101993390Y-85390500D01*
X101993393Y-85390500D01*
X102206607Y-85390500D01*
X102206610Y-85390500D01*
X102416198Y-85351321D01*
X102615019Y-85274298D01*
X102796302Y-85162052D01*
X102953872Y-85018407D01*
X103082366Y-84848255D01*
X103121163Y-84770337D01*
X103169432Y-84718274D01*
X103233954Y-84700500D01*
X119065890Y-84700500D01*
X119065892Y-84700500D01*
X119193186Y-84666392D01*
X119307314Y-84600500D01*
X127400499Y-76507315D01*
X127466392Y-76393186D01*
X127500500Y-76265893D01*
X127500500Y-76134108D01*
X127500500Y-68134108D01*
X127466392Y-68006814D01*
X127400500Y-67892686D01*
X127307314Y-67799500D01*
X126781314Y-67273500D01*
X126207320Y-66699505D01*
X126207310Y-66699497D01*
X126093190Y-66633610D01*
X126093187Y-66633609D01*
X126093186Y-66633608D01*
X126093184Y-66633607D01*
X126093183Y-66633607D01*
X126059073Y-66624467D01*
X125965892Y-66599500D01*
X123626000Y-66599500D01*
X123557879Y-66579498D01*
X123511386Y-66525842D01*
X123507366Y-66507365D01*
X123500001Y-66500000D01*
X119500000Y-66500000D01*
X119500000Y-66547840D01*
X119506400Y-66607371D01*
X119556647Y-66742089D01*
X119642809Y-66857187D01*
X119649009Y-66861828D01*
X119691555Y-66918664D01*
X119699500Y-66962697D01*
X119699501Y-67273500D01*
X119679499Y-67341620D01*
X119625844Y-67388113D01*
X119573501Y-67399500D01*
X119259504Y-67399500D01*
X119191383Y-67379498D01*
X119170409Y-67362595D01*
X107647320Y-55839505D01*
X107647310Y-55839497D01*
X107637976Y-55834108D01*
X116899500Y-55834108D01*
X116899500Y-62034108D01*
X116899500Y-62165892D01*
X116912818Y-62215595D01*
X116933607Y-62293183D01*
X116933610Y-62293190D01*
X116999497Y-62407310D01*
X116999505Y-62407320D01*
X117999500Y-63407314D01*
X118092686Y-63500500D01*
X118206814Y-63566392D01*
X118334108Y-63600500D01*
X118334110Y-63600500D01*
X119374000Y-63600500D01*
X119442121Y-63620502D01*
X119488614Y-63674158D01*
X119492633Y-63692634D01*
X119499999Y-63700000D01*
X123500000Y-63700000D01*
X123500000Y-63652176D01*
X123499999Y-63652159D01*
X123493599Y-63592628D01*
X123443352Y-63457910D01*
X123357189Y-63342811D01*
X123350989Y-63338170D01*
X123308443Y-63281334D01*
X123300499Y-63237306D01*
X123300499Y-62926499D01*
X123320501Y-62858379D01*
X123374157Y-62811886D01*
X123426499Y-62800500D01*
X133840496Y-62800500D01*
X133908617Y-62820502D01*
X133929591Y-62837405D01*
X147974500Y-76882314D01*
X148067686Y-76975500D01*
X148181814Y-77041392D01*
X148309108Y-77075500D01*
X164723501Y-77075500D01*
X164791622Y-77095502D01*
X164838115Y-77149158D01*
X164849501Y-77201500D01*
X164849501Y-77494866D01*
X164852414Y-77519990D01*
X164852416Y-77519994D01*
X164897793Y-77622765D01*
X164977232Y-77702204D01*
X164977234Y-77702205D01*
X164977235Y-77702206D01*
X165080009Y-77747585D01*
X165105135Y-77750500D01*
X165231139Y-77750499D01*
X165299257Y-77770501D01*
X165345750Y-77824156D01*
X165355855Y-77894430D01*
X165326362Y-77959011D01*
X165303408Y-77979712D01*
X165128925Y-78101887D01*
X165128919Y-78101892D01*
X164961892Y-78268919D01*
X164961887Y-78268925D01*
X164826400Y-78462421D01*
X164726570Y-78676506D01*
X164726568Y-78676511D01*
X164669363Y-78890000D01*
X165566988Y-78890000D01*
X165534075Y-78947007D01*
X165500000Y-79074174D01*
X165500000Y-79205826D01*
X165534075Y-79332993D01*
X165566988Y-79390000D01*
X164669364Y-79390000D01*
X164726568Y-79603488D01*
X164726570Y-79603493D01*
X164826399Y-79817577D01*
X164826400Y-79817579D01*
X164961886Y-80011073D01*
X164961893Y-80011082D01*
X165128917Y-80178106D01*
X165128926Y-80178113D01*
X165322420Y-80313599D01*
X165322422Y-80313600D01*
X165517320Y-80404483D01*
X165570605Y-80451400D01*
X165590066Y-80519678D01*
X165569524Y-80587638D01*
X165515501Y-80633703D01*
X165509592Y-80636167D01*
X165484981Y-80645702D01*
X165484980Y-80645702D01*
X165484979Y-80645703D01*
X165484974Y-80645705D01*
X165303701Y-80757945D01*
X165303699Y-80757946D01*
X165146129Y-80901591D01*
X165017633Y-81071745D01*
X165011202Y-81084662D01*
X164962933Y-81136726D01*
X164898411Y-81154500D01*
X148565976Y-81154500D01*
X148497855Y-81134498D01*
X148476881Y-81117595D01*
X131658792Y-64299505D01*
X131658782Y-64299497D01*
X131544662Y-64233610D01*
X131544659Y-64233609D01*
X131544658Y-64233608D01*
X131544656Y-64233607D01*
X131544655Y-64233607D01*
X131510545Y-64224467D01*
X131417364Y-64199500D01*
X123626000Y-64199500D01*
X123557879Y-64179498D01*
X123511386Y-64125842D01*
X123507366Y-64107365D01*
X123500001Y-64100000D01*
X119500000Y-64100000D01*
X119500000Y-64147840D01*
X119506400Y-64207371D01*
X119556647Y-64342089D01*
X119642809Y-64457187D01*
X119649009Y-64461828D01*
X119691555Y-64518664D01*
X119699500Y-64562697D01*
X119699500Y-64944859D01*
X119699501Y-64944866D01*
X119702414Y-64969990D01*
X119702416Y-64969994D01*
X119737347Y-65049106D01*
X119746565Y-65119502D01*
X119737347Y-65150893D01*
X119702415Y-65230007D01*
X119702414Y-65230009D01*
X119699500Y-65255129D01*
X119699500Y-65637303D01*
X119679498Y-65705424D01*
X119649011Y-65738170D01*
X119642809Y-65742812D01*
X119556647Y-65857910D01*
X119506400Y-65992628D01*
X119500000Y-66052159D01*
X119500000Y-66100000D01*
X123500000Y-66100000D01*
X123500000Y-66052176D01*
X123499999Y-66052159D01*
X123493599Y-65992628D01*
X123443352Y-65857910D01*
X123357189Y-65742811D01*
X123350989Y-65738170D01*
X123308443Y-65681334D01*
X123300499Y-65637306D01*
X123300499Y-65326499D01*
X123320501Y-65258379D01*
X123374157Y-65211886D01*
X123426499Y-65200500D01*
X131091968Y-65200500D01*
X131160089Y-65220502D01*
X131181063Y-65237405D01*
X147999151Y-82055494D01*
X147999156Y-82055498D01*
X147999158Y-82055500D01*
X148113286Y-82121392D01*
X148240580Y-82155500D01*
X148372364Y-82155500D01*
X164873515Y-82155500D01*
X164941636Y-82175502D01*
X164986305Y-82225336D01*
X165017634Y-82288255D01*
X165146128Y-82458407D01*
X165146129Y-82458408D01*
X165303699Y-82602053D01*
X165303701Y-82602054D01*
X165484974Y-82714294D01*
X165484975Y-82714294D01*
X165484981Y-82714298D01*
X165683802Y-82791321D01*
X165893390Y-82830500D01*
X165893393Y-82830500D01*
X166106607Y-82830500D01*
X166106610Y-82830500D01*
X166316198Y-82791321D01*
X166515019Y-82714298D01*
X166696302Y-82602052D01*
X166853872Y-82458407D01*
X166982366Y-82288255D01*
X167077405Y-82097389D01*
X167135756Y-81892310D01*
X167155429Y-81680000D01*
X167135756Y-81467690D01*
X167077405Y-81262611D01*
X166982366Y-81071745D01*
X166853872Y-80901593D01*
X166744818Y-80802176D01*
X166696300Y-80757946D01*
X166696298Y-80757945D01*
X166515025Y-80645705D01*
X166515020Y-80645703D01*
X166515019Y-80645702D01*
X166515014Y-80645700D01*
X166490412Y-80636169D01*
X166434117Y-80592909D01*
X166410147Y-80526082D01*
X166426111Y-80456903D01*
X166476942Y-80407338D01*
X166482679Y-80404483D01*
X166677577Y-80313600D01*
X166677579Y-80313599D01*
X166871073Y-80178113D01*
X166871082Y-80178106D01*
X167038106Y-80011082D01*
X167038113Y-80011073D01*
X167173599Y-79817579D01*
X167173600Y-79817577D01*
X167273429Y-79603493D01*
X167273431Y-79603488D01*
X167330636Y-79390000D01*
X166433012Y-79390000D01*
X166465925Y-79332993D01*
X166500000Y-79205826D01*
X166500000Y-79074174D01*
X166465925Y-78947007D01*
X166433012Y-78890000D01*
X167330636Y-78890000D01*
X167273431Y-78676511D01*
X167273429Y-78676506D01*
X167173599Y-78462421D01*
X167038112Y-78268925D01*
X166871076Y-78101888D01*
X166871073Y-78101886D01*
X166696590Y-77979712D01*
X166652261Y-77924255D01*
X166644952Y-77853636D01*
X166676982Y-77790275D01*
X166738184Y-77754290D01*
X166768859Y-77750499D01*
X166894864Y-77750499D01*
X166919991Y-77747585D01*
X167022765Y-77702206D01*
X167102206Y-77622765D01*
X167147585Y-77519991D01*
X167150500Y-77494865D01*
X167150499Y-75705136D01*
X167147585Y-75680009D01*
X167102206Y-75577235D01*
X167102206Y-75577234D01*
X167022767Y-75497795D01*
X167022765Y-75497794D01*
X166919989Y-75452414D01*
X166919990Y-75452414D01*
X166894868Y-75449500D01*
X165105140Y-75449500D01*
X165105133Y-75449501D01*
X165080009Y-75452414D01*
X165080005Y-75452416D01*
X164977234Y-75497793D01*
X164897795Y-75577232D01*
X164897794Y-75577234D01*
X164852414Y-75680009D01*
X164849500Y-75705129D01*
X164849500Y-75948500D01*
X164829498Y-76016621D01*
X164775842Y-76063114D01*
X164723500Y-76074500D01*
X148634504Y-76074500D01*
X148566383Y-76054498D01*
X148545409Y-76037595D01*
X134723409Y-62215595D01*
X134689383Y-62153283D01*
X134694448Y-62082468D01*
X134736995Y-62025632D01*
X134803515Y-62000821D01*
X134812504Y-62000500D01*
X163345890Y-62000500D01*
X163345892Y-62000500D01*
X163473186Y-61966392D01*
X163587314Y-61900500D01*
X165563475Y-59924337D01*
X165625784Y-59890315D01*
X165677758Y-59891948D01*
X165678076Y-59890250D01*
X165683798Y-59891319D01*
X165683802Y-59891321D01*
X165893390Y-59930500D01*
X165893393Y-59930500D01*
X166106607Y-59930500D01*
X166106610Y-59930500D01*
X166316198Y-59891321D01*
X166515019Y-59814298D01*
X166696302Y-59702052D01*
X166853872Y-59558407D01*
X166982366Y-59388255D01*
X167077405Y-59197389D01*
X167135756Y-58992310D01*
X167155429Y-58780000D01*
X167135756Y-58567690D01*
X167077405Y-58362611D01*
X166982366Y-58171745D01*
X166853872Y-58001593D01*
X166696302Y-57857948D01*
X166696300Y-57857946D01*
X166696298Y-57857945D01*
X166515025Y-57745705D01*
X166515020Y-57745703D01*
X166515019Y-57745702D01*
X166515014Y-57745700D01*
X166490412Y-57736169D01*
X166434117Y-57692909D01*
X166410147Y-57626082D01*
X166426111Y-57556903D01*
X166476942Y-57507338D01*
X166482679Y-57504483D01*
X166677577Y-57413600D01*
X166677579Y-57413599D01*
X166871073Y-57278113D01*
X166871082Y-57278106D01*
X167038106Y-57111082D01*
X167038113Y-57111073D01*
X167173599Y-56917579D01*
X167173600Y-56917577D01*
X167273429Y-56703493D01*
X167273431Y-56703488D01*
X167330636Y-56490000D01*
X166433012Y-56490000D01*
X166465925Y-56432993D01*
X166500000Y-56305826D01*
X166500000Y-56174174D01*
X166465925Y-56047007D01*
X166433012Y-55990000D01*
X167330636Y-55990000D01*
X167273431Y-55776511D01*
X167273429Y-55776506D01*
X167173599Y-55562421D01*
X167038112Y-55368925D01*
X166871076Y-55201888D01*
X166871073Y-55201886D01*
X166696590Y-55079712D01*
X166652261Y-55024255D01*
X166644952Y-54953636D01*
X166676982Y-54890275D01*
X166738184Y-54854290D01*
X166768859Y-54850499D01*
X166894864Y-54850499D01*
X166919991Y-54847585D01*
X167022765Y-54802206D01*
X167102206Y-54722765D01*
X167147585Y-54619991D01*
X167150500Y-54594865D01*
X167150499Y-52805136D01*
X167147585Y-52780009D01*
X167102206Y-52677235D01*
X167102206Y-52677234D01*
X167022767Y-52597795D01*
X167022765Y-52597794D01*
X166919989Y-52552414D01*
X166919990Y-52552414D01*
X166894868Y-52549500D01*
X165105140Y-52549500D01*
X165105133Y-52549501D01*
X165080009Y-52552414D01*
X165080005Y-52552416D01*
X164977234Y-52597793D01*
X164897795Y-52677232D01*
X164897794Y-52677234D01*
X164852414Y-52780009D01*
X164849500Y-52805129D01*
X164849500Y-53073500D01*
X164829498Y-53141621D01*
X164775842Y-53188114D01*
X164723500Y-53199500D01*
X119665893Y-53199500D01*
X119534108Y-53199500D01*
X119465894Y-53217777D01*
X119406816Y-53233607D01*
X119406809Y-53233610D01*
X119292689Y-53299497D01*
X119292679Y-53299505D01*
X117638550Y-54953636D01*
X117092686Y-55499500D01*
X117046093Y-55546092D01*
X116999501Y-55592684D01*
X116999497Y-55592689D01*
X116933610Y-55706809D01*
X116933608Y-55706814D01*
X116899500Y-55834108D01*
X107637976Y-55834108D01*
X107533190Y-55773610D01*
X107533187Y-55773609D01*
X107533186Y-55773608D01*
X107533184Y-55773607D01*
X107533183Y-55773607D01*
X107499073Y-55764467D01*
X107405892Y-55739500D01*
X107405890Y-55739500D01*
X103214037Y-55739500D01*
X103145916Y-55719498D01*
X103101247Y-55669664D01*
X103082366Y-55631745D01*
X102953872Y-55461593D01*
X102796302Y-55317948D01*
X102796300Y-55317946D01*
X102796298Y-55317945D01*
X102740065Y-55283127D01*
X102692678Y-55230260D01*
X102681395Y-55160165D01*
X102709799Y-55095098D01*
X102768872Y-55055717D01*
X102806396Y-55050000D01*
X102997824Y-55050000D01*
X102997840Y-55049999D01*
X103057371Y-55043599D01*
X103192089Y-54993352D01*
X103307189Y-54907189D01*
X103393352Y-54792089D01*
X103443599Y-54657371D01*
X103449999Y-54597840D01*
X103450000Y-54597823D01*
X103450000Y-53950000D01*
X102533012Y-53950000D01*
X102565925Y-53892993D01*
X102600000Y-53765826D01*
X102600000Y-53634174D01*
X102565925Y-53507007D01*
X102533012Y-53450000D01*
X103450000Y-53450000D01*
X103450000Y-52802176D01*
X103449999Y-52802159D01*
X103443599Y-52742628D01*
X103393352Y-52607910D01*
X103307189Y-52492810D01*
X103192089Y-52406647D01*
X103057371Y-52356400D01*
X102997840Y-52350000D01*
X102350000Y-52350000D01*
X102350000Y-53266988D01*
X102292993Y-53234075D01*
X102165826Y-53200000D01*
X102034174Y-53200000D01*
X101907007Y-53234075D01*
X101850000Y-53266988D01*
X101850000Y-52350000D01*
X101202159Y-52350000D01*
X101142628Y-52356400D01*
X101007910Y-52406647D01*
X100892810Y-52492810D01*
X100806647Y-52607910D01*
X100756400Y-52742628D01*
X100750000Y-52802159D01*
X100050500Y-52802159D01*
X100050500Y-45376500D01*
X100070502Y-45308379D01*
X100124158Y-45261886D01*
X100176500Y-45250500D01*
X167823500Y-45250500D01*
X167891621Y-45270502D01*
G37*
G04 #@! TD.AperFunction*
M02*
