G04 #@! TF.GenerationSoftware,KiCad,Pcbnew,8.0.8*
G04 #@! TF.CreationDate,2025-06-07T15:14:33+01:00*
G04 #@! TF.ProjectId,lcd_Daughterboard,6c63645f-4461-4756-9768-746572626f61,rev?*
G04 #@! TF.SameCoordinates,Original*
G04 #@! TF.FileFunction,Legend,Top*
G04 #@! TF.FilePolarity,Positive*
%FSLAX46Y46*%
G04 Gerber Fmt 4.6, Leading zero omitted, Abs format (unit mm)*
G04 Created by KiCad (PCBNEW 8.0.8) date 2025-06-07 15:14:33*
%MOMM*%
%LPD*%
G01*
G04 APERTURE LIST*
%ADD10C,0.150000*%
%ADD11C,0.300000*%
G04 APERTURE END LIST*
D10*
X122450000Y-67875000D02*
X124750000Y-69325000D01*
X122350000Y-61475000D02*
X124650000Y-59475000D01*
X120950000Y-75650000D02*
X120950000Y-77350000D01*
X122350000Y-64675000D02*
X124700000Y-64925000D01*
X122400000Y-68675000D02*
X124750000Y-70625000D01*
X122400000Y-67075000D02*
X124700000Y-67825000D01*
D11*
X103250000Y-46150000D02*
X163750000Y-46150000D01*
X163750000Y-89150000D01*
X103250000Y-89150000D01*
X103250000Y-46150000D01*
D10*
X120950000Y-59150000D02*
X120950000Y-60850000D01*
X122350000Y-65475000D02*
X124700000Y-66375000D01*
D11*
X112250000Y-49000000D02*
X161250000Y-49000000D01*
X161250000Y-86000000D01*
X112250000Y-86000000D01*
X112250000Y-49000000D01*
D10*
X122350000Y-62275000D02*
X124650000Y-60825000D01*
X122350000Y-63875000D02*
X124700000Y-63625000D01*
X122350000Y-63025000D02*
X124700000Y-62225000D01*
X165833333Y-61554819D02*
X165500000Y-61078628D01*
X165261905Y-61554819D02*
X165261905Y-60554819D01*
X165261905Y-60554819D02*
X165642857Y-60554819D01*
X165642857Y-60554819D02*
X165738095Y-60602438D01*
X165738095Y-60602438D02*
X165785714Y-60650057D01*
X165785714Y-60650057D02*
X165833333Y-60745295D01*
X165833333Y-60745295D02*
X165833333Y-60888152D01*
X165833333Y-60888152D02*
X165785714Y-60983390D01*
X165785714Y-60983390D02*
X165738095Y-61031009D01*
X165738095Y-61031009D02*
X165642857Y-61078628D01*
X165642857Y-61078628D02*
X165261905Y-61078628D01*
X166214286Y-61507200D02*
X166357143Y-61554819D01*
X166357143Y-61554819D02*
X166595238Y-61554819D01*
X166595238Y-61554819D02*
X166690476Y-61507200D01*
X166690476Y-61507200D02*
X166738095Y-61459580D01*
X166738095Y-61459580D02*
X166785714Y-61364342D01*
X166785714Y-61364342D02*
X166785714Y-61269104D01*
X166785714Y-61269104D02*
X166738095Y-61173866D01*
X166738095Y-61173866D02*
X166690476Y-61126247D01*
X166690476Y-61126247D02*
X166595238Y-61078628D01*
X166595238Y-61078628D02*
X166404762Y-61031009D01*
X166404762Y-61031009D02*
X166309524Y-60983390D01*
X166309524Y-60983390D02*
X166261905Y-60935771D01*
X166261905Y-60935771D02*
X166214286Y-60840533D01*
X166214286Y-60840533D02*
X166214286Y-60745295D01*
X166214286Y-60745295D02*
X166261905Y-60650057D01*
X166261905Y-60650057D02*
X166309524Y-60602438D01*
X166309524Y-60602438D02*
X166404762Y-60554819D01*
X166404762Y-60554819D02*
X166642857Y-60554819D01*
X166642857Y-60554819D02*
X166785714Y-60602438D01*
X164428572Y-84654819D02*
X164428572Y-83654819D01*
X164428572Y-83654819D02*
X164761905Y-84369104D01*
X164761905Y-84369104D02*
X165095238Y-83654819D01*
X165095238Y-83654819D02*
X165095238Y-84654819D01*
X165761905Y-83654819D02*
X165952381Y-83654819D01*
X165952381Y-83654819D02*
X166047619Y-83702438D01*
X166047619Y-83702438D02*
X166142857Y-83797676D01*
X166142857Y-83797676D02*
X166190476Y-83988152D01*
X166190476Y-83988152D02*
X166190476Y-84321485D01*
X166190476Y-84321485D02*
X166142857Y-84511961D01*
X166142857Y-84511961D02*
X166047619Y-84607200D01*
X166047619Y-84607200D02*
X165952381Y-84654819D01*
X165952381Y-84654819D02*
X165761905Y-84654819D01*
X165761905Y-84654819D02*
X165666667Y-84607200D01*
X165666667Y-84607200D02*
X165571429Y-84511961D01*
X165571429Y-84511961D02*
X165523810Y-84321485D01*
X165523810Y-84321485D02*
X165523810Y-83988152D01*
X165523810Y-83988152D02*
X165571429Y-83797676D01*
X165571429Y-83797676D02*
X165666667Y-83702438D01*
X165666667Y-83702438D02*
X165761905Y-83654819D01*
X166571429Y-84607200D02*
X166714286Y-84654819D01*
X166714286Y-84654819D02*
X166952381Y-84654819D01*
X166952381Y-84654819D02*
X167047619Y-84607200D01*
X167047619Y-84607200D02*
X167095238Y-84559580D01*
X167095238Y-84559580D02*
X167142857Y-84464342D01*
X167142857Y-84464342D02*
X167142857Y-84369104D01*
X167142857Y-84369104D02*
X167095238Y-84273866D01*
X167095238Y-84273866D02*
X167047619Y-84226247D01*
X167047619Y-84226247D02*
X166952381Y-84178628D01*
X166952381Y-84178628D02*
X166761905Y-84131009D01*
X166761905Y-84131009D02*
X166666667Y-84083390D01*
X166666667Y-84083390D02*
X166619048Y-84035771D01*
X166619048Y-84035771D02*
X166571429Y-83940533D01*
X166571429Y-83940533D02*
X166571429Y-83845295D01*
X166571429Y-83845295D02*
X166619048Y-83750057D01*
X166619048Y-83750057D02*
X166666667Y-83702438D01*
X166666667Y-83702438D02*
X166761905Y-83654819D01*
X166761905Y-83654819D02*
X167000000Y-83654819D01*
X167000000Y-83654819D02*
X167142857Y-83702438D01*
X167571429Y-84654819D02*
X167571429Y-83654819D01*
X165238095Y-51754819D02*
X165238095Y-50754819D01*
X165238095Y-50754819D02*
X165476190Y-50754819D01*
X165476190Y-50754819D02*
X165619047Y-50802438D01*
X165619047Y-50802438D02*
X165714285Y-50897676D01*
X165714285Y-50897676D02*
X165761904Y-50992914D01*
X165761904Y-50992914D02*
X165809523Y-51183390D01*
X165809523Y-51183390D02*
X165809523Y-51326247D01*
X165809523Y-51326247D02*
X165761904Y-51516723D01*
X165761904Y-51516723D02*
X165714285Y-51611961D01*
X165714285Y-51611961D02*
X165619047Y-51707200D01*
X165619047Y-51707200D02*
X165476190Y-51754819D01*
X165476190Y-51754819D02*
X165238095Y-51754819D01*
X166809523Y-51659580D02*
X166761904Y-51707200D01*
X166761904Y-51707200D02*
X166619047Y-51754819D01*
X166619047Y-51754819D02*
X166523809Y-51754819D01*
X166523809Y-51754819D02*
X166380952Y-51707200D01*
X166380952Y-51707200D02*
X166285714Y-51611961D01*
X166285714Y-51611961D02*
X166238095Y-51516723D01*
X166238095Y-51516723D02*
X166190476Y-51326247D01*
X166190476Y-51326247D02*
X166190476Y-51183390D01*
X166190476Y-51183390D02*
X166238095Y-50992914D01*
X166238095Y-50992914D02*
X166285714Y-50897676D01*
X166285714Y-50897676D02*
X166380952Y-50802438D01*
X166380952Y-50802438D02*
X166523809Y-50754819D01*
X166523809Y-50754819D02*
X166619047Y-50754819D01*
X166619047Y-50754819D02*
X166761904Y-50802438D01*
X166761904Y-50802438D02*
X166809523Y-50850057D01*
X164614286Y-74107200D02*
X164757143Y-74154819D01*
X164757143Y-74154819D02*
X164995238Y-74154819D01*
X164995238Y-74154819D02*
X165090476Y-74107200D01*
X165090476Y-74107200D02*
X165138095Y-74059580D01*
X165138095Y-74059580D02*
X165185714Y-73964342D01*
X165185714Y-73964342D02*
X165185714Y-73869104D01*
X165185714Y-73869104D02*
X165138095Y-73773866D01*
X165138095Y-73773866D02*
X165090476Y-73726247D01*
X165090476Y-73726247D02*
X164995238Y-73678628D01*
X164995238Y-73678628D02*
X164804762Y-73631009D01*
X164804762Y-73631009D02*
X164709524Y-73583390D01*
X164709524Y-73583390D02*
X164661905Y-73535771D01*
X164661905Y-73535771D02*
X164614286Y-73440533D01*
X164614286Y-73440533D02*
X164614286Y-73345295D01*
X164614286Y-73345295D02*
X164661905Y-73250057D01*
X164661905Y-73250057D02*
X164709524Y-73202438D01*
X164709524Y-73202438D02*
X164804762Y-73154819D01*
X164804762Y-73154819D02*
X165042857Y-73154819D01*
X165042857Y-73154819D02*
X165185714Y-73202438D01*
X166185714Y-74059580D02*
X166138095Y-74107200D01*
X166138095Y-74107200D02*
X165995238Y-74154819D01*
X165995238Y-74154819D02*
X165900000Y-74154819D01*
X165900000Y-74154819D02*
X165757143Y-74107200D01*
X165757143Y-74107200D02*
X165661905Y-74011961D01*
X165661905Y-74011961D02*
X165614286Y-73916723D01*
X165614286Y-73916723D02*
X165566667Y-73726247D01*
X165566667Y-73726247D02*
X165566667Y-73583390D01*
X165566667Y-73583390D02*
X165614286Y-73392914D01*
X165614286Y-73392914D02*
X165661905Y-73297676D01*
X165661905Y-73297676D02*
X165757143Y-73202438D01*
X165757143Y-73202438D02*
X165900000Y-73154819D01*
X165900000Y-73154819D02*
X165995238Y-73154819D01*
X165995238Y-73154819D02*
X166138095Y-73202438D01*
X166138095Y-73202438D02*
X166185714Y-73250057D01*
X166614286Y-74154819D02*
X166614286Y-73154819D01*
X167185714Y-74154819D02*
X166757143Y-73583390D01*
X167185714Y-73154819D02*
X166614286Y-73726247D01*
X125066667Y-68742319D02*
X125685714Y-68742319D01*
X125685714Y-68742319D02*
X125352381Y-69123271D01*
X125352381Y-69123271D02*
X125495238Y-69123271D01*
X125495238Y-69123271D02*
X125590476Y-69170890D01*
X125590476Y-69170890D02*
X125638095Y-69218509D01*
X125638095Y-69218509D02*
X125685714Y-69313747D01*
X125685714Y-69313747D02*
X125685714Y-69551842D01*
X125685714Y-69551842D02*
X125638095Y-69647080D01*
X125638095Y-69647080D02*
X125590476Y-69694700D01*
X125590476Y-69694700D02*
X125495238Y-69742319D01*
X125495238Y-69742319D02*
X125209524Y-69742319D01*
X125209524Y-69742319D02*
X125114286Y-69694700D01*
X125114286Y-69694700D02*
X125066667Y-69647080D01*
X125971429Y-68742319D02*
X126304762Y-69742319D01*
X126304762Y-69742319D02*
X126638095Y-68742319D01*
X126876191Y-68742319D02*
X127495238Y-68742319D01*
X127495238Y-68742319D02*
X127161905Y-69123271D01*
X127161905Y-69123271D02*
X127304762Y-69123271D01*
X127304762Y-69123271D02*
X127400000Y-69170890D01*
X127400000Y-69170890D02*
X127447619Y-69218509D01*
X127447619Y-69218509D02*
X127495238Y-69313747D01*
X127495238Y-69313747D02*
X127495238Y-69551842D01*
X127495238Y-69551842D02*
X127447619Y-69647080D01*
X127447619Y-69647080D02*
X127400000Y-69694700D01*
X127400000Y-69694700D02*
X127304762Y-69742319D01*
X127304762Y-69742319D02*
X127019048Y-69742319D01*
X127019048Y-69742319D02*
X126923810Y-69694700D01*
X126923810Y-69694700D02*
X126876191Y-69647080D01*
X125161905Y-64092319D02*
X125161905Y-63092319D01*
X125161905Y-63092319D02*
X125400000Y-63092319D01*
X125400000Y-63092319D02*
X125542857Y-63139938D01*
X125542857Y-63139938D02*
X125638095Y-63235176D01*
X125638095Y-63235176D02*
X125685714Y-63330414D01*
X125685714Y-63330414D02*
X125733333Y-63520890D01*
X125733333Y-63520890D02*
X125733333Y-63663747D01*
X125733333Y-63663747D02*
X125685714Y-63854223D01*
X125685714Y-63854223D02*
X125638095Y-63949461D01*
X125638095Y-63949461D02*
X125542857Y-64044700D01*
X125542857Y-64044700D02*
X125400000Y-64092319D01*
X125400000Y-64092319D02*
X125161905Y-64092319D01*
X126733333Y-63997080D02*
X126685714Y-64044700D01*
X126685714Y-64044700D02*
X126542857Y-64092319D01*
X126542857Y-64092319D02*
X126447619Y-64092319D01*
X126447619Y-64092319D02*
X126304762Y-64044700D01*
X126304762Y-64044700D02*
X126209524Y-63949461D01*
X126209524Y-63949461D02*
X126161905Y-63854223D01*
X126161905Y-63854223D02*
X126114286Y-63663747D01*
X126114286Y-63663747D02*
X126114286Y-63520890D01*
X126114286Y-63520890D02*
X126161905Y-63330414D01*
X126161905Y-63330414D02*
X126209524Y-63235176D01*
X126209524Y-63235176D02*
X126304762Y-63139938D01*
X126304762Y-63139938D02*
X126447619Y-63092319D01*
X126447619Y-63092319D02*
X126542857Y-63092319D01*
X126542857Y-63092319D02*
X126685714Y-63139938D01*
X126685714Y-63139938D02*
X126733333Y-63187557D01*
X125685714Y-64552438D02*
X125590476Y-64504819D01*
X125590476Y-64504819D02*
X125447619Y-64504819D01*
X125447619Y-64504819D02*
X125304762Y-64552438D01*
X125304762Y-64552438D02*
X125209524Y-64647676D01*
X125209524Y-64647676D02*
X125161905Y-64742914D01*
X125161905Y-64742914D02*
X125114286Y-64933390D01*
X125114286Y-64933390D02*
X125114286Y-65076247D01*
X125114286Y-65076247D02*
X125161905Y-65266723D01*
X125161905Y-65266723D02*
X125209524Y-65361961D01*
X125209524Y-65361961D02*
X125304762Y-65457200D01*
X125304762Y-65457200D02*
X125447619Y-65504819D01*
X125447619Y-65504819D02*
X125542857Y-65504819D01*
X125542857Y-65504819D02*
X125685714Y-65457200D01*
X125685714Y-65457200D02*
X125733333Y-65409580D01*
X125733333Y-65409580D02*
X125733333Y-65076247D01*
X125733333Y-65076247D02*
X125542857Y-65076247D01*
X126161905Y-65504819D02*
X126161905Y-64504819D01*
X126161905Y-64504819D02*
X126733333Y-65504819D01*
X126733333Y-65504819D02*
X126733333Y-64504819D01*
X127209524Y-65504819D02*
X127209524Y-64504819D01*
X127209524Y-64504819D02*
X127447619Y-64504819D01*
X127447619Y-64504819D02*
X127590476Y-64552438D01*
X127590476Y-64552438D02*
X127685714Y-64647676D01*
X127685714Y-64647676D02*
X127733333Y-64742914D01*
X127733333Y-64742914D02*
X127780952Y-64933390D01*
X127780952Y-64933390D02*
X127780952Y-65076247D01*
X127780952Y-65076247D02*
X127733333Y-65266723D01*
X127733333Y-65266723D02*
X127685714Y-65361961D01*
X127685714Y-65361961D02*
X127590476Y-65457200D01*
X127590476Y-65457200D02*
X127447619Y-65504819D01*
X127447619Y-65504819D02*
X127209524Y-65504819D01*
X125685714Y-67377438D02*
X125590476Y-67329819D01*
X125590476Y-67329819D02*
X125447619Y-67329819D01*
X125447619Y-67329819D02*
X125304762Y-67377438D01*
X125304762Y-67377438D02*
X125209524Y-67472676D01*
X125209524Y-67472676D02*
X125161905Y-67567914D01*
X125161905Y-67567914D02*
X125114286Y-67758390D01*
X125114286Y-67758390D02*
X125114286Y-67901247D01*
X125114286Y-67901247D02*
X125161905Y-68091723D01*
X125161905Y-68091723D02*
X125209524Y-68186961D01*
X125209524Y-68186961D02*
X125304762Y-68282200D01*
X125304762Y-68282200D02*
X125447619Y-68329819D01*
X125447619Y-68329819D02*
X125542857Y-68329819D01*
X125542857Y-68329819D02*
X125685714Y-68282200D01*
X125685714Y-68282200D02*
X125733333Y-68234580D01*
X125733333Y-68234580D02*
X125733333Y-67901247D01*
X125733333Y-67901247D02*
X125542857Y-67901247D01*
X126161905Y-68329819D02*
X126161905Y-67329819D01*
X126161905Y-67329819D02*
X126733333Y-68329819D01*
X126733333Y-68329819D02*
X126733333Y-67329819D01*
X127209524Y-68329819D02*
X127209524Y-67329819D01*
X127209524Y-67329819D02*
X127447619Y-67329819D01*
X127447619Y-67329819D02*
X127590476Y-67377438D01*
X127590476Y-67377438D02*
X127685714Y-67472676D01*
X127685714Y-67472676D02*
X127733333Y-67567914D01*
X127733333Y-67567914D02*
X127780952Y-67758390D01*
X127780952Y-67758390D02*
X127780952Y-67901247D01*
X127780952Y-67901247D02*
X127733333Y-68091723D01*
X127733333Y-68091723D02*
X127685714Y-68186961D01*
X127685714Y-68186961D02*
X127590476Y-68282200D01*
X127590476Y-68282200D02*
X127447619Y-68329819D01*
X127447619Y-68329819D02*
X127209524Y-68329819D01*
X125161905Y-66917319D02*
X125161905Y-65917319D01*
X125161905Y-65917319D02*
X125495238Y-66631604D01*
X125495238Y-66631604D02*
X125828571Y-65917319D01*
X125828571Y-65917319D02*
X125828571Y-66917319D01*
X126495238Y-65917319D02*
X126685714Y-65917319D01*
X126685714Y-65917319D02*
X126780952Y-65964938D01*
X126780952Y-65964938D02*
X126876190Y-66060176D01*
X126876190Y-66060176D02*
X126923809Y-66250652D01*
X126923809Y-66250652D02*
X126923809Y-66583985D01*
X126923809Y-66583985D02*
X126876190Y-66774461D01*
X126876190Y-66774461D02*
X126780952Y-66869700D01*
X126780952Y-66869700D02*
X126685714Y-66917319D01*
X126685714Y-66917319D02*
X126495238Y-66917319D01*
X126495238Y-66917319D02*
X126400000Y-66869700D01*
X126400000Y-66869700D02*
X126304762Y-66774461D01*
X126304762Y-66774461D02*
X126257143Y-66583985D01*
X126257143Y-66583985D02*
X126257143Y-66250652D01*
X126257143Y-66250652D02*
X126304762Y-66060176D01*
X126304762Y-66060176D02*
X126400000Y-65964938D01*
X126400000Y-65964938D02*
X126495238Y-65917319D01*
X127304762Y-66869700D02*
X127447619Y-66917319D01*
X127447619Y-66917319D02*
X127685714Y-66917319D01*
X127685714Y-66917319D02*
X127780952Y-66869700D01*
X127780952Y-66869700D02*
X127828571Y-66822080D01*
X127828571Y-66822080D02*
X127876190Y-66726842D01*
X127876190Y-66726842D02*
X127876190Y-66631604D01*
X127876190Y-66631604D02*
X127828571Y-66536366D01*
X127828571Y-66536366D02*
X127780952Y-66488747D01*
X127780952Y-66488747D02*
X127685714Y-66441128D01*
X127685714Y-66441128D02*
X127495238Y-66393509D01*
X127495238Y-66393509D02*
X127400000Y-66345890D01*
X127400000Y-66345890D02*
X127352381Y-66298271D01*
X127352381Y-66298271D02*
X127304762Y-66203033D01*
X127304762Y-66203033D02*
X127304762Y-66107795D01*
X127304762Y-66107795D02*
X127352381Y-66012557D01*
X127352381Y-66012557D02*
X127400000Y-65964938D01*
X127400000Y-65964938D02*
X127495238Y-65917319D01*
X127495238Y-65917319D02*
X127733333Y-65917319D01*
X127733333Y-65917319D02*
X127876190Y-65964938D01*
X128304762Y-66917319D02*
X128304762Y-65917319D01*
X125495238Y-70631009D02*
X125638095Y-70678628D01*
X125638095Y-70678628D02*
X125685714Y-70726247D01*
X125685714Y-70726247D02*
X125733333Y-70821485D01*
X125733333Y-70821485D02*
X125733333Y-70964342D01*
X125733333Y-70964342D02*
X125685714Y-71059580D01*
X125685714Y-71059580D02*
X125638095Y-71107200D01*
X125638095Y-71107200D02*
X125542857Y-71154819D01*
X125542857Y-71154819D02*
X125161905Y-71154819D01*
X125161905Y-71154819D02*
X125161905Y-70154819D01*
X125161905Y-70154819D02*
X125495238Y-70154819D01*
X125495238Y-70154819D02*
X125590476Y-70202438D01*
X125590476Y-70202438D02*
X125638095Y-70250057D01*
X125638095Y-70250057D02*
X125685714Y-70345295D01*
X125685714Y-70345295D02*
X125685714Y-70440533D01*
X125685714Y-70440533D02*
X125638095Y-70535771D01*
X125638095Y-70535771D02*
X125590476Y-70583390D01*
X125590476Y-70583390D02*
X125495238Y-70631009D01*
X125495238Y-70631009D02*
X125161905Y-70631009D01*
X126638095Y-71154819D02*
X126161905Y-71154819D01*
X126161905Y-71154819D02*
X126161905Y-70154819D01*
X125685714Y-58902438D02*
X125590476Y-58854819D01*
X125590476Y-58854819D02*
X125447619Y-58854819D01*
X125447619Y-58854819D02*
X125304762Y-58902438D01*
X125304762Y-58902438D02*
X125209524Y-58997676D01*
X125209524Y-58997676D02*
X125161905Y-59092914D01*
X125161905Y-59092914D02*
X125114286Y-59283390D01*
X125114286Y-59283390D02*
X125114286Y-59426247D01*
X125114286Y-59426247D02*
X125161905Y-59616723D01*
X125161905Y-59616723D02*
X125209524Y-59711961D01*
X125209524Y-59711961D02*
X125304762Y-59807200D01*
X125304762Y-59807200D02*
X125447619Y-59854819D01*
X125447619Y-59854819D02*
X125542857Y-59854819D01*
X125542857Y-59854819D02*
X125685714Y-59807200D01*
X125685714Y-59807200D02*
X125733333Y-59759580D01*
X125733333Y-59759580D02*
X125733333Y-59426247D01*
X125733333Y-59426247D02*
X125542857Y-59426247D01*
X126161905Y-59854819D02*
X126161905Y-58854819D01*
X126161905Y-58854819D02*
X126733333Y-59854819D01*
X126733333Y-59854819D02*
X126733333Y-58854819D01*
X127209524Y-59854819D02*
X127209524Y-58854819D01*
X127209524Y-58854819D02*
X127447619Y-58854819D01*
X127447619Y-58854819D02*
X127590476Y-58902438D01*
X127590476Y-58902438D02*
X127685714Y-58997676D01*
X127685714Y-58997676D02*
X127733333Y-59092914D01*
X127733333Y-59092914D02*
X127780952Y-59283390D01*
X127780952Y-59283390D02*
X127780952Y-59426247D01*
X127780952Y-59426247D02*
X127733333Y-59616723D01*
X127733333Y-59616723D02*
X127685714Y-59711961D01*
X127685714Y-59711961D02*
X127590476Y-59807200D01*
X127590476Y-59807200D02*
X127447619Y-59854819D01*
X127447619Y-59854819D02*
X127209524Y-59854819D01*
X125733333Y-61267319D02*
X125400000Y-60791128D01*
X125161905Y-61267319D02*
X125161905Y-60267319D01*
X125161905Y-60267319D02*
X125542857Y-60267319D01*
X125542857Y-60267319D02*
X125638095Y-60314938D01*
X125638095Y-60314938D02*
X125685714Y-60362557D01*
X125685714Y-60362557D02*
X125733333Y-60457795D01*
X125733333Y-60457795D02*
X125733333Y-60600652D01*
X125733333Y-60600652D02*
X125685714Y-60695890D01*
X125685714Y-60695890D02*
X125638095Y-60743509D01*
X125638095Y-60743509D02*
X125542857Y-60791128D01*
X125542857Y-60791128D02*
X125161905Y-60791128D01*
X126114286Y-61219700D02*
X126257143Y-61267319D01*
X126257143Y-61267319D02*
X126495238Y-61267319D01*
X126495238Y-61267319D02*
X126590476Y-61219700D01*
X126590476Y-61219700D02*
X126638095Y-61172080D01*
X126638095Y-61172080D02*
X126685714Y-61076842D01*
X126685714Y-61076842D02*
X126685714Y-60981604D01*
X126685714Y-60981604D02*
X126638095Y-60886366D01*
X126638095Y-60886366D02*
X126590476Y-60838747D01*
X126590476Y-60838747D02*
X126495238Y-60791128D01*
X126495238Y-60791128D02*
X126304762Y-60743509D01*
X126304762Y-60743509D02*
X126209524Y-60695890D01*
X126209524Y-60695890D02*
X126161905Y-60648271D01*
X126161905Y-60648271D02*
X126114286Y-60553033D01*
X126114286Y-60553033D02*
X126114286Y-60457795D01*
X126114286Y-60457795D02*
X126161905Y-60362557D01*
X126161905Y-60362557D02*
X126209524Y-60314938D01*
X126209524Y-60314938D02*
X126304762Y-60267319D01*
X126304762Y-60267319D02*
X126542857Y-60267319D01*
X126542857Y-60267319D02*
X126685714Y-60314938D01*
X125114286Y-62632200D02*
X125257143Y-62679819D01*
X125257143Y-62679819D02*
X125495238Y-62679819D01*
X125495238Y-62679819D02*
X125590476Y-62632200D01*
X125590476Y-62632200D02*
X125638095Y-62584580D01*
X125638095Y-62584580D02*
X125685714Y-62489342D01*
X125685714Y-62489342D02*
X125685714Y-62394104D01*
X125685714Y-62394104D02*
X125638095Y-62298866D01*
X125638095Y-62298866D02*
X125590476Y-62251247D01*
X125590476Y-62251247D02*
X125495238Y-62203628D01*
X125495238Y-62203628D02*
X125304762Y-62156009D01*
X125304762Y-62156009D02*
X125209524Y-62108390D01*
X125209524Y-62108390D02*
X125161905Y-62060771D01*
X125161905Y-62060771D02*
X125114286Y-61965533D01*
X125114286Y-61965533D02*
X125114286Y-61870295D01*
X125114286Y-61870295D02*
X125161905Y-61775057D01*
X125161905Y-61775057D02*
X125209524Y-61727438D01*
X125209524Y-61727438D02*
X125304762Y-61679819D01*
X125304762Y-61679819D02*
X125542857Y-61679819D01*
X125542857Y-61679819D02*
X125685714Y-61727438D01*
X126685714Y-62584580D02*
X126638095Y-62632200D01*
X126638095Y-62632200D02*
X126495238Y-62679819D01*
X126495238Y-62679819D02*
X126400000Y-62679819D01*
X126400000Y-62679819D02*
X126257143Y-62632200D01*
X126257143Y-62632200D02*
X126161905Y-62536961D01*
X126161905Y-62536961D02*
X126114286Y-62441723D01*
X126114286Y-62441723D02*
X126066667Y-62251247D01*
X126066667Y-62251247D02*
X126066667Y-62108390D01*
X126066667Y-62108390D02*
X126114286Y-61917914D01*
X126114286Y-61917914D02*
X126161905Y-61822676D01*
X126161905Y-61822676D02*
X126257143Y-61727438D01*
X126257143Y-61727438D02*
X126400000Y-61679819D01*
X126400000Y-61679819D02*
X126495238Y-61679819D01*
X126495238Y-61679819D02*
X126638095Y-61727438D01*
X126638095Y-61727438D02*
X126685714Y-61775057D01*
X127114286Y-62679819D02*
X127114286Y-61679819D01*
X127685714Y-62679819D02*
X127257143Y-62108390D01*
X127685714Y-61679819D02*
X127114286Y-62251247D01*
X100609524Y-86554819D02*
X101228571Y-86554819D01*
X101228571Y-86554819D02*
X100895238Y-86935771D01*
X100895238Y-86935771D02*
X101038095Y-86935771D01*
X101038095Y-86935771D02*
X101133333Y-86983390D01*
X101133333Y-86983390D02*
X101180952Y-87031009D01*
X101180952Y-87031009D02*
X101228571Y-87126247D01*
X101228571Y-87126247D02*
X101228571Y-87364342D01*
X101228571Y-87364342D02*
X101180952Y-87459580D01*
X101180952Y-87459580D02*
X101133333Y-87507200D01*
X101133333Y-87507200D02*
X101038095Y-87554819D01*
X101038095Y-87554819D02*
X100752381Y-87554819D01*
X100752381Y-87554819D02*
X100657143Y-87507200D01*
X100657143Y-87507200D02*
X100609524Y-87459580D01*
X101561905Y-86888152D02*
X101800000Y-87554819D01*
X101800000Y-87554819D02*
X102038095Y-86888152D01*
X102323810Y-86554819D02*
X102942857Y-86554819D01*
X102942857Y-86554819D02*
X102609524Y-86935771D01*
X102609524Y-86935771D02*
X102752381Y-86935771D01*
X102752381Y-86935771D02*
X102847619Y-86983390D01*
X102847619Y-86983390D02*
X102895238Y-87031009D01*
X102895238Y-87031009D02*
X102942857Y-87126247D01*
X102942857Y-87126247D02*
X102942857Y-87364342D01*
X102942857Y-87364342D02*
X102895238Y-87459580D01*
X102895238Y-87459580D02*
X102847619Y-87507200D01*
X102847619Y-87507200D02*
X102752381Y-87554819D01*
X102752381Y-87554819D02*
X102466667Y-87554819D01*
X102466667Y-87554819D02*
X102371429Y-87507200D01*
X102371429Y-87507200D02*
X102323810Y-87459580D01*
X101466666Y-59031009D02*
X101609523Y-59078628D01*
X101609523Y-59078628D02*
X101657142Y-59126247D01*
X101657142Y-59126247D02*
X101704761Y-59221485D01*
X101704761Y-59221485D02*
X101704761Y-59364342D01*
X101704761Y-59364342D02*
X101657142Y-59459580D01*
X101657142Y-59459580D02*
X101609523Y-59507200D01*
X101609523Y-59507200D02*
X101514285Y-59554819D01*
X101514285Y-59554819D02*
X101133333Y-59554819D01*
X101133333Y-59554819D02*
X101133333Y-58554819D01*
X101133333Y-58554819D02*
X101466666Y-58554819D01*
X101466666Y-58554819D02*
X101561904Y-58602438D01*
X101561904Y-58602438D02*
X101609523Y-58650057D01*
X101609523Y-58650057D02*
X101657142Y-58745295D01*
X101657142Y-58745295D02*
X101657142Y-58840533D01*
X101657142Y-58840533D02*
X101609523Y-58935771D01*
X101609523Y-58935771D02*
X101561904Y-58983390D01*
X101561904Y-58983390D02*
X101466666Y-59031009D01*
X101466666Y-59031009D02*
X101133333Y-59031009D01*
X102609523Y-59554819D02*
X102133333Y-59554819D01*
X102133333Y-59554819D02*
X102133333Y-58554819D01*
M02*
