G04 #@! TF.GenerationSoftware,KiCad,Pcbnew,8.0.8*
G04 #@! TF.CreationDate,2025-04-14T14:54:38+01:00*
G04 #@! TF.ProjectId,lcd_Daughterboard,6c63645f-4461-4756-9768-746572626f61,rev?*
G04 #@! TF.SameCoordinates,Original*
G04 #@! TF.FileFunction,Legend,Bot*
G04 #@! TF.FilePolarity,Positive*
%FSLAX46Y46*%
G04 Gerber Fmt 4.6, Leading zero omitted, Abs format (unit mm)*
G04 Created by KiCad (PCBNEW 8.0.8) date 2025-04-14 14:54:38*
%MOMM*%
%LPD*%
G01*
G04 APERTURE LIST*
%ADD10C,0.150000*%
%ADD11C,0.120000*%
G04 APERTURE END LIST*
D10*
X143161906Y-47754819D02*
X143638096Y-47754819D01*
X143638096Y-47754819D02*
X143638096Y-46754819D01*
X142257144Y-47659580D02*
X142304763Y-47707200D01*
X142304763Y-47707200D02*
X142447620Y-47754819D01*
X142447620Y-47754819D02*
X142542858Y-47754819D01*
X142542858Y-47754819D02*
X142685715Y-47707200D01*
X142685715Y-47707200D02*
X142780953Y-47611961D01*
X142780953Y-47611961D02*
X142828572Y-47516723D01*
X142828572Y-47516723D02*
X142876191Y-47326247D01*
X142876191Y-47326247D02*
X142876191Y-47183390D01*
X142876191Y-47183390D02*
X142828572Y-46992914D01*
X142828572Y-46992914D02*
X142780953Y-46897676D01*
X142780953Y-46897676D02*
X142685715Y-46802438D01*
X142685715Y-46802438D02*
X142542858Y-46754819D01*
X142542858Y-46754819D02*
X142447620Y-46754819D01*
X142447620Y-46754819D02*
X142304763Y-46802438D01*
X142304763Y-46802438D02*
X142257144Y-46850057D01*
X141828572Y-47754819D02*
X141828572Y-46754819D01*
X141828572Y-46754819D02*
X141590477Y-46754819D01*
X141590477Y-46754819D02*
X141447620Y-46802438D01*
X141447620Y-46802438D02*
X141352382Y-46897676D01*
X141352382Y-46897676D02*
X141304763Y-46992914D01*
X141304763Y-46992914D02*
X141257144Y-47183390D01*
X141257144Y-47183390D02*
X141257144Y-47326247D01*
X141257144Y-47326247D02*
X141304763Y-47516723D01*
X141304763Y-47516723D02*
X141352382Y-47611961D01*
X141352382Y-47611961D02*
X141447620Y-47707200D01*
X141447620Y-47707200D02*
X141590477Y-47754819D01*
X141590477Y-47754819D02*
X141828572Y-47754819D01*
X140066667Y-47754819D02*
X140066667Y-46754819D01*
X140066667Y-46754819D02*
X139828572Y-46754819D01*
X139828572Y-46754819D02*
X139685715Y-46802438D01*
X139685715Y-46802438D02*
X139590477Y-46897676D01*
X139590477Y-46897676D02*
X139542858Y-46992914D01*
X139542858Y-46992914D02*
X139495239Y-47183390D01*
X139495239Y-47183390D02*
X139495239Y-47326247D01*
X139495239Y-47326247D02*
X139542858Y-47516723D01*
X139542858Y-47516723D02*
X139590477Y-47611961D01*
X139590477Y-47611961D02*
X139685715Y-47707200D01*
X139685715Y-47707200D02*
X139828572Y-47754819D01*
X139828572Y-47754819D02*
X140066667Y-47754819D01*
X138638096Y-47754819D02*
X138638096Y-47231009D01*
X138638096Y-47231009D02*
X138685715Y-47135771D01*
X138685715Y-47135771D02*
X138780953Y-47088152D01*
X138780953Y-47088152D02*
X138971429Y-47088152D01*
X138971429Y-47088152D02*
X139066667Y-47135771D01*
X138638096Y-47707200D02*
X138733334Y-47754819D01*
X138733334Y-47754819D02*
X138971429Y-47754819D01*
X138971429Y-47754819D02*
X139066667Y-47707200D01*
X139066667Y-47707200D02*
X139114286Y-47611961D01*
X139114286Y-47611961D02*
X139114286Y-47516723D01*
X139114286Y-47516723D02*
X139066667Y-47421485D01*
X139066667Y-47421485D02*
X138971429Y-47373866D01*
X138971429Y-47373866D02*
X138733334Y-47373866D01*
X138733334Y-47373866D02*
X138638096Y-47326247D01*
X137733334Y-47088152D02*
X137733334Y-47754819D01*
X138161905Y-47088152D02*
X138161905Y-47611961D01*
X138161905Y-47611961D02*
X138114286Y-47707200D01*
X138114286Y-47707200D02*
X138019048Y-47754819D01*
X138019048Y-47754819D02*
X137876191Y-47754819D01*
X137876191Y-47754819D02*
X137780953Y-47707200D01*
X137780953Y-47707200D02*
X137733334Y-47659580D01*
X136828572Y-47088152D02*
X136828572Y-47897676D01*
X136828572Y-47897676D02*
X136876191Y-47992914D01*
X136876191Y-47992914D02*
X136923810Y-48040533D01*
X136923810Y-48040533D02*
X137019048Y-48088152D01*
X137019048Y-48088152D02*
X137161905Y-48088152D01*
X137161905Y-48088152D02*
X137257143Y-48040533D01*
X136828572Y-47707200D02*
X136923810Y-47754819D01*
X136923810Y-47754819D02*
X137114286Y-47754819D01*
X137114286Y-47754819D02*
X137209524Y-47707200D01*
X137209524Y-47707200D02*
X137257143Y-47659580D01*
X137257143Y-47659580D02*
X137304762Y-47564342D01*
X137304762Y-47564342D02*
X137304762Y-47278628D01*
X137304762Y-47278628D02*
X137257143Y-47183390D01*
X137257143Y-47183390D02*
X137209524Y-47135771D01*
X137209524Y-47135771D02*
X137114286Y-47088152D01*
X137114286Y-47088152D02*
X136923810Y-47088152D01*
X136923810Y-47088152D02*
X136828572Y-47135771D01*
X136352381Y-47754819D02*
X136352381Y-46754819D01*
X135923810Y-47754819D02*
X135923810Y-47231009D01*
X135923810Y-47231009D02*
X135971429Y-47135771D01*
X135971429Y-47135771D02*
X136066667Y-47088152D01*
X136066667Y-47088152D02*
X136209524Y-47088152D01*
X136209524Y-47088152D02*
X136304762Y-47135771D01*
X136304762Y-47135771D02*
X136352381Y-47183390D01*
X135590476Y-47088152D02*
X135209524Y-47088152D01*
X135447619Y-46754819D02*
X135447619Y-47611961D01*
X135447619Y-47611961D02*
X135400000Y-47707200D01*
X135400000Y-47707200D02*
X135304762Y-47754819D01*
X135304762Y-47754819D02*
X135209524Y-47754819D01*
X134495238Y-47707200D02*
X134590476Y-47754819D01*
X134590476Y-47754819D02*
X134780952Y-47754819D01*
X134780952Y-47754819D02*
X134876190Y-47707200D01*
X134876190Y-47707200D02*
X134923809Y-47611961D01*
X134923809Y-47611961D02*
X134923809Y-47231009D01*
X134923809Y-47231009D02*
X134876190Y-47135771D01*
X134876190Y-47135771D02*
X134780952Y-47088152D01*
X134780952Y-47088152D02*
X134590476Y-47088152D01*
X134590476Y-47088152D02*
X134495238Y-47135771D01*
X134495238Y-47135771D02*
X134447619Y-47231009D01*
X134447619Y-47231009D02*
X134447619Y-47326247D01*
X134447619Y-47326247D02*
X134923809Y-47421485D01*
X134019047Y-47754819D02*
X134019047Y-47088152D01*
X134019047Y-47278628D02*
X133971428Y-47183390D01*
X133971428Y-47183390D02*
X133923809Y-47135771D01*
X133923809Y-47135771D02*
X133828571Y-47088152D01*
X133828571Y-47088152D02*
X133733333Y-47088152D01*
X133399999Y-47754819D02*
X133399999Y-46754819D01*
X133399999Y-47135771D02*
X133304761Y-47088152D01*
X133304761Y-47088152D02*
X133114285Y-47088152D01*
X133114285Y-47088152D02*
X133019047Y-47135771D01*
X133019047Y-47135771D02*
X132971428Y-47183390D01*
X132971428Y-47183390D02*
X132923809Y-47278628D01*
X132923809Y-47278628D02*
X132923809Y-47564342D01*
X132923809Y-47564342D02*
X132971428Y-47659580D01*
X132971428Y-47659580D02*
X133019047Y-47707200D01*
X133019047Y-47707200D02*
X133114285Y-47754819D01*
X133114285Y-47754819D02*
X133304761Y-47754819D01*
X133304761Y-47754819D02*
X133399999Y-47707200D01*
X132352380Y-47754819D02*
X132447618Y-47707200D01*
X132447618Y-47707200D02*
X132495237Y-47659580D01*
X132495237Y-47659580D02*
X132542856Y-47564342D01*
X132542856Y-47564342D02*
X132542856Y-47278628D01*
X132542856Y-47278628D02*
X132495237Y-47183390D01*
X132495237Y-47183390D02*
X132447618Y-47135771D01*
X132447618Y-47135771D02*
X132352380Y-47088152D01*
X132352380Y-47088152D02*
X132209523Y-47088152D01*
X132209523Y-47088152D02*
X132114285Y-47135771D01*
X132114285Y-47135771D02*
X132066666Y-47183390D01*
X132066666Y-47183390D02*
X132019047Y-47278628D01*
X132019047Y-47278628D02*
X132019047Y-47564342D01*
X132019047Y-47564342D02*
X132066666Y-47659580D01*
X132066666Y-47659580D02*
X132114285Y-47707200D01*
X132114285Y-47707200D02*
X132209523Y-47754819D01*
X132209523Y-47754819D02*
X132352380Y-47754819D01*
X131161904Y-47754819D02*
X131161904Y-47231009D01*
X131161904Y-47231009D02*
X131209523Y-47135771D01*
X131209523Y-47135771D02*
X131304761Y-47088152D01*
X131304761Y-47088152D02*
X131495237Y-47088152D01*
X131495237Y-47088152D02*
X131590475Y-47135771D01*
X131161904Y-47707200D02*
X131257142Y-47754819D01*
X131257142Y-47754819D02*
X131495237Y-47754819D01*
X131495237Y-47754819D02*
X131590475Y-47707200D01*
X131590475Y-47707200D02*
X131638094Y-47611961D01*
X131638094Y-47611961D02*
X131638094Y-47516723D01*
X131638094Y-47516723D02*
X131590475Y-47421485D01*
X131590475Y-47421485D02*
X131495237Y-47373866D01*
X131495237Y-47373866D02*
X131257142Y-47373866D01*
X131257142Y-47373866D02*
X131161904Y-47326247D01*
X130685713Y-47754819D02*
X130685713Y-47088152D01*
X130685713Y-47278628D02*
X130638094Y-47183390D01*
X130638094Y-47183390D02*
X130590475Y-47135771D01*
X130590475Y-47135771D02*
X130495237Y-47088152D01*
X130495237Y-47088152D02*
X130399999Y-47088152D01*
X129638094Y-47754819D02*
X129638094Y-46754819D01*
X129638094Y-47707200D02*
X129733332Y-47754819D01*
X129733332Y-47754819D02*
X129923808Y-47754819D01*
X129923808Y-47754819D02*
X130019046Y-47707200D01*
X130019046Y-47707200D02*
X130066665Y-47659580D01*
X130066665Y-47659580D02*
X130114284Y-47564342D01*
X130114284Y-47564342D02*
X130114284Y-47278628D01*
X130114284Y-47278628D02*
X130066665Y-47183390D01*
X130066665Y-47183390D02*
X130019046Y-47135771D01*
X130019046Y-47135771D02*
X129923808Y-47088152D01*
X129923808Y-47088152D02*
X129733332Y-47088152D01*
X129733332Y-47088152D02*
X129638094Y-47135771D01*
X128495236Y-47088152D02*
X128257141Y-47754819D01*
X128257141Y-47754819D02*
X128019046Y-47088152D01*
X127733331Y-46754819D02*
X127114284Y-46754819D01*
X127114284Y-46754819D02*
X127447617Y-47135771D01*
X127447617Y-47135771D02*
X127304760Y-47135771D01*
X127304760Y-47135771D02*
X127209522Y-47183390D01*
X127209522Y-47183390D02*
X127161903Y-47231009D01*
X127161903Y-47231009D02*
X127114284Y-47326247D01*
X127114284Y-47326247D02*
X127114284Y-47564342D01*
X127114284Y-47564342D02*
X127161903Y-47659580D01*
X127161903Y-47659580D02*
X127209522Y-47707200D01*
X127209522Y-47707200D02*
X127304760Y-47754819D01*
X127304760Y-47754819D02*
X127590474Y-47754819D01*
X127590474Y-47754819D02*
X127685712Y-47707200D01*
X127685712Y-47707200D02*
X127733331Y-47659580D01*
D11*
X100770000Y-54970000D02*
X103430000Y-54970000D01*
X100770000Y-57570000D02*
X100770000Y-54970000D01*
X100770000Y-57570000D02*
X103430000Y-57570000D01*
X102100000Y-52370000D02*
X103430000Y-52370000D01*
X103430000Y-52370000D02*
X103430000Y-53700000D01*
X103430000Y-57570000D02*
X103430000Y-54970000D01*
X164670000Y-54970000D02*
X167330000Y-54970000D01*
X164670000Y-60110000D02*
X164670000Y-54970000D01*
X164670000Y-60110000D02*
X167330000Y-60110000D01*
X166000000Y-52370000D02*
X167330000Y-52370000D01*
X167330000Y-52370000D02*
X167330000Y-53700000D01*
X167330000Y-60110000D02*
X167330000Y-54970000D01*
X164670000Y-77870000D02*
X167330000Y-77870000D01*
X164670000Y-83010000D02*
X164670000Y-77870000D01*
X164670000Y-83010000D02*
X167330000Y-83010000D01*
X166000000Y-75270000D02*
X167330000Y-75270000D01*
X167330000Y-75270000D02*
X167330000Y-76600000D01*
X167330000Y-83010000D02*
X167330000Y-77870000D01*
X100770000Y-82970000D02*
X103430000Y-82970000D01*
X100770000Y-85570000D02*
X100770000Y-82970000D01*
X100770000Y-85570000D02*
X103430000Y-85570000D01*
X102100000Y-80370000D02*
X103430000Y-80370000D01*
X103430000Y-80370000D02*
X103430000Y-81700000D01*
X103430000Y-85570000D02*
X103430000Y-82970000D01*
M02*
