G04 #@! TF.GenerationSoftware,KiCad,Pcbnew,8.0.8*
G04 #@! TF.CreationDate,2025-05-15T18:15:19+01:00*
G04 #@! TF.ProjectId,lcd_Daughterboard,6c63645f-4461-4756-9768-746572626f61,rev?*
G04 #@! TF.SameCoordinates,Original*
G04 #@! TF.FileFunction,Legend,Bot*
G04 #@! TF.FilePolarity,Positive*
%FSLAX46Y46*%
G04 Gerber Fmt 4.6, Leading zero omitted, Abs format (unit mm)*
G04 Created by KiCad (PCBNEW 8.0.8) date 2025-05-15 18:15:19*
%MOMM*%
%LPD*%
G01*
G04 APERTURE LIST*
%ADD10C,0.150000*%
%ADD11C,0.120000*%
G04 APERTURE END LIST*
D10*
X143876191Y-47754819D02*
X144352381Y-47754819D01*
X144352381Y-47754819D02*
X144352381Y-46754819D01*
X142971429Y-47659580D02*
X143019048Y-47707200D01*
X143019048Y-47707200D02*
X143161905Y-47754819D01*
X143161905Y-47754819D02*
X143257143Y-47754819D01*
X143257143Y-47754819D02*
X143400000Y-47707200D01*
X143400000Y-47707200D02*
X143495238Y-47611961D01*
X143495238Y-47611961D02*
X143542857Y-47516723D01*
X143542857Y-47516723D02*
X143590476Y-47326247D01*
X143590476Y-47326247D02*
X143590476Y-47183390D01*
X143590476Y-47183390D02*
X143542857Y-46992914D01*
X143542857Y-46992914D02*
X143495238Y-46897676D01*
X143495238Y-46897676D02*
X143400000Y-46802438D01*
X143400000Y-46802438D02*
X143257143Y-46754819D01*
X143257143Y-46754819D02*
X143161905Y-46754819D01*
X143161905Y-46754819D02*
X143019048Y-46802438D01*
X143019048Y-46802438D02*
X142971429Y-46850057D01*
X142542857Y-47754819D02*
X142542857Y-46754819D01*
X142542857Y-46754819D02*
X142304762Y-46754819D01*
X142304762Y-46754819D02*
X142161905Y-46802438D01*
X142161905Y-46802438D02*
X142066667Y-46897676D01*
X142066667Y-46897676D02*
X142019048Y-46992914D01*
X142019048Y-46992914D02*
X141971429Y-47183390D01*
X141971429Y-47183390D02*
X141971429Y-47326247D01*
X141971429Y-47326247D02*
X142019048Y-47516723D01*
X142019048Y-47516723D02*
X142066667Y-47611961D01*
X142066667Y-47611961D02*
X142161905Y-47707200D01*
X142161905Y-47707200D02*
X142304762Y-47754819D01*
X142304762Y-47754819D02*
X142542857Y-47754819D01*
X140780952Y-47754819D02*
X140780952Y-46754819D01*
X140780952Y-46754819D02*
X140542857Y-46754819D01*
X140542857Y-46754819D02*
X140400000Y-46802438D01*
X140400000Y-46802438D02*
X140304762Y-46897676D01*
X140304762Y-46897676D02*
X140257143Y-46992914D01*
X140257143Y-46992914D02*
X140209524Y-47183390D01*
X140209524Y-47183390D02*
X140209524Y-47326247D01*
X140209524Y-47326247D02*
X140257143Y-47516723D01*
X140257143Y-47516723D02*
X140304762Y-47611961D01*
X140304762Y-47611961D02*
X140400000Y-47707200D01*
X140400000Y-47707200D02*
X140542857Y-47754819D01*
X140542857Y-47754819D02*
X140780952Y-47754819D01*
X139352381Y-47754819D02*
X139352381Y-47231009D01*
X139352381Y-47231009D02*
X139400000Y-47135771D01*
X139400000Y-47135771D02*
X139495238Y-47088152D01*
X139495238Y-47088152D02*
X139685714Y-47088152D01*
X139685714Y-47088152D02*
X139780952Y-47135771D01*
X139352381Y-47707200D02*
X139447619Y-47754819D01*
X139447619Y-47754819D02*
X139685714Y-47754819D01*
X139685714Y-47754819D02*
X139780952Y-47707200D01*
X139780952Y-47707200D02*
X139828571Y-47611961D01*
X139828571Y-47611961D02*
X139828571Y-47516723D01*
X139828571Y-47516723D02*
X139780952Y-47421485D01*
X139780952Y-47421485D02*
X139685714Y-47373866D01*
X139685714Y-47373866D02*
X139447619Y-47373866D01*
X139447619Y-47373866D02*
X139352381Y-47326247D01*
X138447619Y-47088152D02*
X138447619Y-47754819D01*
X138876190Y-47088152D02*
X138876190Y-47611961D01*
X138876190Y-47611961D02*
X138828571Y-47707200D01*
X138828571Y-47707200D02*
X138733333Y-47754819D01*
X138733333Y-47754819D02*
X138590476Y-47754819D01*
X138590476Y-47754819D02*
X138495238Y-47707200D01*
X138495238Y-47707200D02*
X138447619Y-47659580D01*
X137542857Y-47088152D02*
X137542857Y-47897676D01*
X137542857Y-47897676D02*
X137590476Y-47992914D01*
X137590476Y-47992914D02*
X137638095Y-48040533D01*
X137638095Y-48040533D02*
X137733333Y-48088152D01*
X137733333Y-48088152D02*
X137876190Y-48088152D01*
X137876190Y-48088152D02*
X137971428Y-48040533D01*
X137542857Y-47707200D02*
X137638095Y-47754819D01*
X137638095Y-47754819D02*
X137828571Y-47754819D01*
X137828571Y-47754819D02*
X137923809Y-47707200D01*
X137923809Y-47707200D02*
X137971428Y-47659580D01*
X137971428Y-47659580D02*
X138019047Y-47564342D01*
X138019047Y-47564342D02*
X138019047Y-47278628D01*
X138019047Y-47278628D02*
X137971428Y-47183390D01*
X137971428Y-47183390D02*
X137923809Y-47135771D01*
X137923809Y-47135771D02*
X137828571Y-47088152D01*
X137828571Y-47088152D02*
X137638095Y-47088152D01*
X137638095Y-47088152D02*
X137542857Y-47135771D01*
X137066666Y-47754819D02*
X137066666Y-46754819D01*
X136638095Y-47754819D02*
X136638095Y-47231009D01*
X136638095Y-47231009D02*
X136685714Y-47135771D01*
X136685714Y-47135771D02*
X136780952Y-47088152D01*
X136780952Y-47088152D02*
X136923809Y-47088152D01*
X136923809Y-47088152D02*
X137019047Y-47135771D01*
X137019047Y-47135771D02*
X137066666Y-47183390D01*
X136304761Y-47088152D02*
X135923809Y-47088152D01*
X136161904Y-46754819D02*
X136161904Y-47611961D01*
X136161904Y-47611961D02*
X136114285Y-47707200D01*
X136114285Y-47707200D02*
X136019047Y-47754819D01*
X136019047Y-47754819D02*
X135923809Y-47754819D01*
X135209523Y-47707200D02*
X135304761Y-47754819D01*
X135304761Y-47754819D02*
X135495237Y-47754819D01*
X135495237Y-47754819D02*
X135590475Y-47707200D01*
X135590475Y-47707200D02*
X135638094Y-47611961D01*
X135638094Y-47611961D02*
X135638094Y-47231009D01*
X135638094Y-47231009D02*
X135590475Y-47135771D01*
X135590475Y-47135771D02*
X135495237Y-47088152D01*
X135495237Y-47088152D02*
X135304761Y-47088152D01*
X135304761Y-47088152D02*
X135209523Y-47135771D01*
X135209523Y-47135771D02*
X135161904Y-47231009D01*
X135161904Y-47231009D02*
X135161904Y-47326247D01*
X135161904Y-47326247D02*
X135638094Y-47421485D01*
X134733332Y-47754819D02*
X134733332Y-47088152D01*
X134733332Y-47278628D02*
X134685713Y-47183390D01*
X134685713Y-47183390D02*
X134638094Y-47135771D01*
X134638094Y-47135771D02*
X134542856Y-47088152D01*
X134542856Y-47088152D02*
X134447618Y-47088152D01*
X134114284Y-47754819D02*
X134114284Y-46754819D01*
X134114284Y-47135771D02*
X134019046Y-47088152D01*
X134019046Y-47088152D02*
X133828570Y-47088152D01*
X133828570Y-47088152D02*
X133733332Y-47135771D01*
X133733332Y-47135771D02*
X133685713Y-47183390D01*
X133685713Y-47183390D02*
X133638094Y-47278628D01*
X133638094Y-47278628D02*
X133638094Y-47564342D01*
X133638094Y-47564342D02*
X133685713Y-47659580D01*
X133685713Y-47659580D02*
X133733332Y-47707200D01*
X133733332Y-47707200D02*
X133828570Y-47754819D01*
X133828570Y-47754819D02*
X134019046Y-47754819D01*
X134019046Y-47754819D02*
X134114284Y-47707200D01*
X133066665Y-47754819D02*
X133161903Y-47707200D01*
X133161903Y-47707200D02*
X133209522Y-47659580D01*
X133209522Y-47659580D02*
X133257141Y-47564342D01*
X133257141Y-47564342D02*
X133257141Y-47278628D01*
X133257141Y-47278628D02*
X133209522Y-47183390D01*
X133209522Y-47183390D02*
X133161903Y-47135771D01*
X133161903Y-47135771D02*
X133066665Y-47088152D01*
X133066665Y-47088152D02*
X132923808Y-47088152D01*
X132923808Y-47088152D02*
X132828570Y-47135771D01*
X132828570Y-47135771D02*
X132780951Y-47183390D01*
X132780951Y-47183390D02*
X132733332Y-47278628D01*
X132733332Y-47278628D02*
X132733332Y-47564342D01*
X132733332Y-47564342D02*
X132780951Y-47659580D01*
X132780951Y-47659580D02*
X132828570Y-47707200D01*
X132828570Y-47707200D02*
X132923808Y-47754819D01*
X132923808Y-47754819D02*
X133066665Y-47754819D01*
X131876189Y-47754819D02*
X131876189Y-47231009D01*
X131876189Y-47231009D02*
X131923808Y-47135771D01*
X131923808Y-47135771D02*
X132019046Y-47088152D01*
X132019046Y-47088152D02*
X132209522Y-47088152D01*
X132209522Y-47088152D02*
X132304760Y-47135771D01*
X131876189Y-47707200D02*
X131971427Y-47754819D01*
X131971427Y-47754819D02*
X132209522Y-47754819D01*
X132209522Y-47754819D02*
X132304760Y-47707200D01*
X132304760Y-47707200D02*
X132352379Y-47611961D01*
X132352379Y-47611961D02*
X132352379Y-47516723D01*
X132352379Y-47516723D02*
X132304760Y-47421485D01*
X132304760Y-47421485D02*
X132209522Y-47373866D01*
X132209522Y-47373866D02*
X131971427Y-47373866D01*
X131971427Y-47373866D02*
X131876189Y-47326247D01*
X131399998Y-47754819D02*
X131399998Y-47088152D01*
X131399998Y-47278628D02*
X131352379Y-47183390D01*
X131352379Y-47183390D02*
X131304760Y-47135771D01*
X131304760Y-47135771D02*
X131209522Y-47088152D01*
X131209522Y-47088152D02*
X131114284Y-47088152D01*
X130352379Y-47754819D02*
X130352379Y-46754819D01*
X130352379Y-47707200D02*
X130447617Y-47754819D01*
X130447617Y-47754819D02*
X130638093Y-47754819D01*
X130638093Y-47754819D02*
X130733331Y-47707200D01*
X130733331Y-47707200D02*
X130780950Y-47659580D01*
X130780950Y-47659580D02*
X130828569Y-47564342D01*
X130828569Y-47564342D02*
X130828569Y-47278628D01*
X130828569Y-47278628D02*
X130780950Y-47183390D01*
X130780950Y-47183390D02*
X130733331Y-47135771D01*
X130733331Y-47135771D02*
X130638093Y-47088152D01*
X130638093Y-47088152D02*
X130447617Y-47088152D01*
X130447617Y-47088152D02*
X130352379Y-47135771D01*
X129209521Y-47088152D02*
X128971426Y-47754819D01*
X128971426Y-47754819D02*
X128733331Y-47088152D01*
X128447616Y-46754819D02*
X127828569Y-46754819D01*
X127828569Y-46754819D02*
X128161902Y-47135771D01*
X128161902Y-47135771D02*
X128019045Y-47135771D01*
X128019045Y-47135771D02*
X127923807Y-47183390D01*
X127923807Y-47183390D02*
X127876188Y-47231009D01*
X127876188Y-47231009D02*
X127828569Y-47326247D01*
X127828569Y-47326247D02*
X127828569Y-47564342D01*
X127828569Y-47564342D02*
X127876188Y-47659580D01*
X127876188Y-47659580D02*
X127923807Y-47707200D01*
X127923807Y-47707200D02*
X128019045Y-47754819D01*
X128019045Y-47754819D02*
X128304759Y-47754819D01*
X128304759Y-47754819D02*
X128399997Y-47707200D01*
X128399997Y-47707200D02*
X128447616Y-47659580D01*
X127399997Y-47659580D02*
X127352378Y-47707200D01*
X127352378Y-47707200D02*
X127399997Y-47754819D01*
X127399997Y-47754819D02*
X127447616Y-47707200D01*
X127447616Y-47707200D02*
X127399997Y-47659580D01*
X127399997Y-47659580D02*
X127399997Y-47754819D01*
X126399998Y-47754819D02*
X126971426Y-47754819D01*
X126685712Y-47754819D02*
X126685712Y-46754819D01*
X126685712Y-46754819D02*
X126780950Y-46897676D01*
X126780950Y-46897676D02*
X126876188Y-46992914D01*
X126876188Y-46992914D02*
X126971426Y-47040533D01*
D11*
X100770000Y-54970000D02*
X103430000Y-54970000D01*
X100770000Y-57570000D02*
X100770000Y-54970000D01*
X100770000Y-57570000D02*
X103430000Y-57570000D01*
X102100000Y-52370000D02*
X103430000Y-52370000D01*
X103430000Y-52370000D02*
X103430000Y-53700000D01*
X103430000Y-57570000D02*
X103430000Y-54970000D01*
X164670000Y-54970000D02*
X167330000Y-54970000D01*
X164670000Y-60110000D02*
X164670000Y-54970000D01*
X164670000Y-60110000D02*
X167330000Y-60110000D01*
X166000000Y-52370000D02*
X167330000Y-52370000D01*
X167330000Y-52370000D02*
X167330000Y-53700000D01*
X167330000Y-60110000D02*
X167330000Y-54970000D01*
X164670000Y-77870000D02*
X167330000Y-77870000D01*
X164670000Y-83010000D02*
X164670000Y-77870000D01*
X164670000Y-83010000D02*
X167330000Y-83010000D01*
X166000000Y-75270000D02*
X167330000Y-75270000D01*
X167330000Y-75270000D02*
X167330000Y-76600000D01*
X167330000Y-83010000D02*
X167330000Y-77870000D01*
X100770000Y-82970000D02*
X103430000Y-82970000D01*
X100770000Y-85570000D02*
X100770000Y-82970000D01*
X100770000Y-85570000D02*
X103430000Y-85570000D01*
X102100000Y-80370000D02*
X103430000Y-80370000D01*
X103430000Y-80370000D02*
X103430000Y-81700000D01*
X103430000Y-85570000D02*
X103430000Y-82970000D01*
M02*
