G04 #@! TF.GenerationSoftware,KiCad,Pcbnew,8.0.8*
G04 #@! TF.CreationDate,2025-06-07T15:14:33+01:00*
G04 #@! TF.ProjectId,lcd_Daughterboard,6c63645f-4461-4756-9768-746572626f61,rev?*
G04 #@! TF.SameCoordinates,Original*
G04 #@! TF.FileFunction,Copper,L2,Bot*
G04 #@! TF.FilePolarity,Positive*
%FSLAX46Y46*%
G04 Gerber Fmt 4.6, Leading zero omitted, Abs format (unit mm)*
G04 Created by KiCad (PCBNEW 8.0.8) date 2025-06-07 15:14:33*
%MOMM*%
%LPD*%
G01*
G04 APERTURE LIST*
G04 #@! TA.AperFunction,ComponentPad*
%ADD10R,1.700000X1.700000*%
G04 #@! TD*
G04 #@! TA.AperFunction,ComponentPad*
%ADD11O,1.700000X1.700000*%
G04 #@! TD*
G04 #@! TA.AperFunction,ViaPad*
%ADD12C,0.800000*%
G04 #@! TD*
G04 APERTURE END LIST*
D10*
X102100000Y-53700000D03*
D11*
X102100000Y-56240000D03*
D10*
X166000000Y-53700000D03*
D11*
X166000000Y-56240000D03*
X166000000Y-58780000D03*
D10*
X166000000Y-76600000D03*
D11*
X166000000Y-79140000D03*
X166000000Y-81680000D03*
D10*
X102100000Y-81700000D03*
D11*
X102100000Y-84240000D03*
D12*
X139200000Y-64100000D03*
G04 #@! TA.AperFunction,Conductor*
G36*
X167891621Y-45270502D02*
G01*
X167938114Y-45324158D01*
X167949500Y-45376500D01*
X167949500Y-90023500D01*
X167929498Y-90091621D01*
X167875842Y-90138114D01*
X167823500Y-90149500D01*
X100176500Y-90149500D01*
X100108379Y-90129498D01*
X100061886Y-90075842D01*
X100050500Y-90023500D01*
X100050500Y-80802159D01*
X100750000Y-80802159D01*
X100750000Y-81450000D01*
X101666988Y-81450000D01*
X101634075Y-81507007D01*
X101600000Y-81634174D01*
X101600000Y-81765826D01*
X101634075Y-81892993D01*
X101666988Y-81950000D01*
X100750000Y-81950000D01*
X100750000Y-82597840D01*
X100756400Y-82657371D01*
X100806647Y-82792089D01*
X100892810Y-82907189D01*
X101007910Y-82993352D01*
X101142628Y-83043599D01*
X101202159Y-83049999D01*
X101202176Y-83050000D01*
X101393604Y-83050000D01*
X101461725Y-83070002D01*
X101508218Y-83123658D01*
X101518322Y-83193932D01*
X101488828Y-83258512D01*
X101459935Y-83283127D01*
X101403701Y-83317945D01*
X101403699Y-83317946D01*
X101246129Y-83461591D01*
X101159293Y-83576580D01*
X101117634Y-83631745D01*
X101024130Y-83819526D01*
X101022593Y-83822615D01*
X100964244Y-84027688D01*
X100944571Y-84240000D01*
X100964244Y-84452311D01*
X101022593Y-84657384D01*
X101022594Y-84657386D01*
X101022595Y-84657389D01*
X101117634Y-84848255D01*
X101246128Y-85018407D01*
X101246129Y-85018408D01*
X101403699Y-85162053D01*
X101403701Y-85162054D01*
X101584974Y-85274294D01*
X101584975Y-85274294D01*
X101584981Y-85274298D01*
X101783802Y-85351321D01*
X101993390Y-85390500D01*
X101993393Y-85390500D01*
X102206607Y-85390500D01*
X102206610Y-85390500D01*
X102416198Y-85351321D01*
X102615019Y-85274298D01*
X102796302Y-85162052D01*
X102953872Y-85018407D01*
X103082366Y-84848255D01*
X103177405Y-84657389D01*
X103235756Y-84452310D01*
X103255429Y-84240000D01*
X103235756Y-84027690D01*
X103177405Y-83822611D01*
X103082366Y-83631745D01*
X102953872Y-83461593D01*
X102796302Y-83317948D01*
X102796300Y-83317946D01*
X102796298Y-83317945D01*
X102740065Y-83283127D01*
X102692678Y-83230260D01*
X102681395Y-83160165D01*
X102709799Y-83095098D01*
X102768872Y-83055717D01*
X102806396Y-83050000D01*
X102997824Y-83050000D01*
X102997840Y-83049999D01*
X103057371Y-83043599D01*
X103192089Y-82993352D01*
X103307189Y-82907189D01*
X103393352Y-82792089D01*
X103443599Y-82657371D01*
X103449999Y-82597840D01*
X103450000Y-82597823D01*
X103450000Y-81950000D01*
X102533012Y-81950000D01*
X102565925Y-81892993D01*
X102600000Y-81765826D01*
X102600000Y-81634174D01*
X102565925Y-81507007D01*
X102533012Y-81450000D01*
X103450000Y-81450000D01*
X103450000Y-80802176D01*
X103449999Y-80802159D01*
X103443599Y-80742628D01*
X103393352Y-80607910D01*
X103307189Y-80492810D01*
X103192089Y-80406647D01*
X103057371Y-80356400D01*
X102997840Y-80350000D01*
X102350000Y-80350000D01*
X102350000Y-81266988D01*
X102292993Y-81234075D01*
X102165826Y-81200000D01*
X102034174Y-81200000D01*
X101907007Y-81234075D01*
X101850000Y-81266988D01*
X101850000Y-80350000D01*
X101202159Y-80350000D01*
X101142628Y-80356400D01*
X101007910Y-80406647D01*
X100892810Y-80492810D01*
X100806647Y-80607910D01*
X100756400Y-80742628D01*
X100750000Y-80802159D01*
X100050500Y-80802159D01*
X100050500Y-78890000D01*
X164669363Y-78890000D01*
X165566988Y-78890000D01*
X165534075Y-78947007D01*
X165500000Y-79074174D01*
X165500000Y-79205826D01*
X165534075Y-79332993D01*
X165566988Y-79390000D01*
X164669364Y-79390000D01*
X164726568Y-79603488D01*
X164726570Y-79603493D01*
X164826399Y-79817577D01*
X164826400Y-79817579D01*
X164961886Y-80011073D01*
X164961893Y-80011082D01*
X165128917Y-80178106D01*
X165128926Y-80178113D01*
X165322420Y-80313599D01*
X165322422Y-80313600D01*
X165517320Y-80404483D01*
X165570605Y-80451400D01*
X165590066Y-80519678D01*
X165569524Y-80587638D01*
X165515501Y-80633703D01*
X165509592Y-80636167D01*
X165484981Y-80645702D01*
X165484980Y-80645702D01*
X165484979Y-80645703D01*
X165484974Y-80645705D01*
X165303701Y-80757945D01*
X165303699Y-80757946D01*
X165146129Y-80901591D01*
X165059293Y-81016580D01*
X165017634Y-81071745D01*
X164953771Y-81200000D01*
X164922593Y-81262615D01*
X164864244Y-81467688D01*
X164844571Y-81680000D01*
X164864244Y-81892311D01*
X164922593Y-82097384D01*
X164922594Y-82097386D01*
X164922595Y-82097389D01*
X165017634Y-82288255D01*
X165146128Y-82458407D01*
X165146129Y-82458408D01*
X165303699Y-82602053D01*
X165303701Y-82602054D01*
X165484974Y-82714294D01*
X165484975Y-82714294D01*
X165484981Y-82714298D01*
X165683802Y-82791321D01*
X165893390Y-82830500D01*
X165893393Y-82830500D01*
X166106607Y-82830500D01*
X166106610Y-82830500D01*
X166316198Y-82791321D01*
X166515019Y-82714298D01*
X166696302Y-82602052D01*
X166853872Y-82458407D01*
X166982366Y-82288255D01*
X167077405Y-82097389D01*
X167135756Y-81892310D01*
X167155429Y-81680000D01*
X167135756Y-81467690D01*
X167077405Y-81262611D01*
X166982366Y-81071745D01*
X166853872Y-80901593D01*
X166744818Y-80802176D01*
X166696300Y-80757946D01*
X166696298Y-80757945D01*
X166515025Y-80645705D01*
X166515020Y-80645703D01*
X166515019Y-80645702D01*
X166515014Y-80645700D01*
X166490412Y-80636169D01*
X166434117Y-80592909D01*
X166410147Y-80526082D01*
X166426111Y-80456903D01*
X166476942Y-80407338D01*
X166482679Y-80404483D01*
X166677577Y-80313600D01*
X166677579Y-80313599D01*
X166871073Y-80178113D01*
X166871082Y-80178106D01*
X167038106Y-80011082D01*
X167038113Y-80011073D01*
X167173599Y-79817579D01*
X167173600Y-79817577D01*
X167273429Y-79603493D01*
X167273431Y-79603488D01*
X167330636Y-79390000D01*
X166433012Y-79390000D01*
X166465925Y-79332993D01*
X166500000Y-79205826D01*
X166500000Y-79074174D01*
X166465925Y-78947007D01*
X166433012Y-78890000D01*
X167330636Y-78890000D01*
X167273431Y-78676511D01*
X167273429Y-78676506D01*
X167173599Y-78462421D01*
X167038112Y-78268925D01*
X166871076Y-78101888D01*
X166871073Y-78101886D01*
X166696590Y-77979712D01*
X166652261Y-77924255D01*
X166644952Y-77853636D01*
X166676982Y-77790275D01*
X166738184Y-77754290D01*
X166768859Y-77750499D01*
X166894864Y-77750499D01*
X166919991Y-77747585D01*
X167022765Y-77702206D01*
X167102206Y-77622765D01*
X167147585Y-77519991D01*
X167150500Y-77494865D01*
X167150499Y-75705136D01*
X167147585Y-75680009D01*
X167102206Y-75577235D01*
X167102206Y-75577234D01*
X167022767Y-75497795D01*
X167022765Y-75497794D01*
X166919989Y-75452414D01*
X166919990Y-75452414D01*
X166894868Y-75449500D01*
X165105140Y-75449500D01*
X165105133Y-75449501D01*
X165080009Y-75452414D01*
X165080005Y-75452416D01*
X164977234Y-75497793D01*
X164897795Y-75577232D01*
X164897794Y-75577234D01*
X164852414Y-75680009D01*
X164849500Y-75705129D01*
X164849500Y-77494859D01*
X164849501Y-77494866D01*
X164852414Y-77519990D01*
X164852416Y-77519994D01*
X164897793Y-77622765D01*
X164977232Y-77702204D01*
X164977234Y-77702205D01*
X164977235Y-77702206D01*
X165080009Y-77747585D01*
X165105135Y-77750500D01*
X165231139Y-77750499D01*
X165299257Y-77770501D01*
X165345750Y-77824156D01*
X165355855Y-77894430D01*
X165326362Y-77959011D01*
X165303408Y-77979712D01*
X165128925Y-78101887D01*
X165128919Y-78101892D01*
X164961892Y-78268919D01*
X164961887Y-78268925D01*
X164826400Y-78462421D01*
X164726570Y-78676506D01*
X164726568Y-78676511D01*
X164669363Y-78890000D01*
X100050500Y-78890000D01*
X100050500Y-52802159D01*
X100750000Y-52802159D01*
X100750000Y-53450000D01*
X101666988Y-53450000D01*
X101634075Y-53507007D01*
X101600000Y-53634174D01*
X101600000Y-53765826D01*
X101634075Y-53892993D01*
X101666988Y-53950000D01*
X100750000Y-53950000D01*
X100750000Y-54597840D01*
X100756400Y-54657371D01*
X100806647Y-54792089D01*
X100892810Y-54907189D01*
X101007910Y-54993352D01*
X101142628Y-55043599D01*
X101202159Y-55049999D01*
X101202176Y-55050000D01*
X101393604Y-55050000D01*
X101461725Y-55070002D01*
X101508218Y-55123658D01*
X101518322Y-55193932D01*
X101488828Y-55258512D01*
X101459935Y-55283127D01*
X101403701Y-55317945D01*
X101403699Y-55317946D01*
X101246129Y-55461591D01*
X101159293Y-55576580D01*
X101117634Y-55631745D01*
X101063730Y-55740000D01*
X101022593Y-55822615D01*
X100964244Y-56027688D01*
X100944571Y-56240000D01*
X100964244Y-56452311D01*
X101022593Y-56657384D01*
X101022594Y-56657386D01*
X101022595Y-56657389D01*
X101117634Y-56848255D01*
X101169986Y-56917579D01*
X101246129Y-57018408D01*
X101403699Y-57162053D01*
X101403701Y-57162054D01*
X101584974Y-57274294D01*
X101584975Y-57274294D01*
X101584981Y-57274298D01*
X101783802Y-57351321D01*
X101993390Y-57390500D01*
X101993393Y-57390500D01*
X102206607Y-57390500D01*
X102206610Y-57390500D01*
X102416198Y-57351321D01*
X102615019Y-57274298D01*
X102796302Y-57162052D01*
X102953872Y-57018407D01*
X103082366Y-56848255D01*
X103177405Y-56657389D01*
X103235756Y-56452310D01*
X103255429Y-56240000D01*
X103235756Y-56027690D01*
X103225032Y-55990000D01*
X164669363Y-55990000D01*
X165566988Y-55990000D01*
X165534075Y-56047007D01*
X165500000Y-56174174D01*
X165500000Y-56305826D01*
X165534075Y-56432993D01*
X165566988Y-56490000D01*
X164669364Y-56490000D01*
X164726568Y-56703488D01*
X164726570Y-56703493D01*
X164826399Y-56917577D01*
X164826400Y-56917579D01*
X164961886Y-57111073D01*
X164961893Y-57111082D01*
X165128917Y-57278106D01*
X165128926Y-57278113D01*
X165322420Y-57413599D01*
X165322422Y-57413600D01*
X165517320Y-57504483D01*
X165570605Y-57551400D01*
X165590066Y-57619678D01*
X165569524Y-57687638D01*
X165515501Y-57733703D01*
X165509592Y-57736167D01*
X165484981Y-57745702D01*
X165484980Y-57745702D01*
X165484979Y-57745703D01*
X165484974Y-57745705D01*
X165303701Y-57857945D01*
X165303699Y-57857946D01*
X165146129Y-58001591D01*
X165059293Y-58116580D01*
X165017634Y-58171745D01*
X164924130Y-58359526D01*
X164922593Y-58362615D01*
X164864244Y-58567688D01*
X164844571Y-58780000D01*
X164864244Y-58992311D01*
X164922593Y-59197384D01*
X164922594Y-59197386D01*
X164922595Y-59197389D01*
X165017634Y-59388255D01*
X165146128Y-59558407D01*
X165146129Y-59558408D01*
X165303699Y-59702053D01*
X165303701Y-59702054D01*
X165484974Y-59814294D01*
X165484975Y-59814294D01*
X165484981Y-59814298D01*
X165683802Y-59891321D01*
X165893390Y-59930500D01*
X165893393Y-59930500D01*
X166106607Y-59930500D01*
X166106610Y-59930500D01*
X166316198Y-59891321D01*
X166515019Y-59814298D01*
X166696302Y-59702052D01*
X166853872Y-59558407D01*
X166982366Y-59388255D01*
X167077405Y-59197389D01*
X167135756Y-58992310D01*
X167155429Y-58780000D01*
X167135756Y-58567690D01*
X167077405Y-58362611D01*
X166982366Y-58171745D01*
X166853872Y-58001593D01*
X166696302Y-57857948D01*
X166696300Y-57857946D01*
X166696298Y-57857945D01*
X166515025Y-57745705D01*
X166515020Y-57745703D01*
X166515019Y-57745702D01*
X166515014Y-57745700D01*
X166490412Y-57736169D01*
X166434117Y-57692909D01*
X166410147Y-57626082D01*
X166426111Y-57556903D01*
X166476942Y-57507338D01*
X166482679Y-57504483D01*
X166677577Y-57413600D01*
X166677579Y-57413599D01*
X166871073Y-57278113D01*
X166871082Y-57278106D01*
X167038106Y-57111082D01*
X167038113Y-57111073D01*
X167173599Y-56917579D01*
X167173600Y-56917577D01*
X167273429Y-56703493D01*
X167273431Y-56703488D01*
X167330636Y-56490000D01*
X166433012Y-56490000D01*
X166465925Y-56432993D01*
X166500000Y-56305826D01*
X166500000Y-56174174D01*
X166465925Y-56047007D01*
X166433012Y-55990000D01*
X167330636Y-55990000D01*
X167273431Y-55776511D01*
X167273429Y-55776506D01*
X167173599Y-55562421D01*
X167038112Y-55368925D01*
X166871076Y-55201888D01*
X166871073Y-55201886D01*
X166696590Y-55079712D01*
X166652261Y-55024255D01*
X166644952Y-54953636D01*
X166676982Y-54890275D01*
X166738184Y-54854290D01*
X166768859Y-54850499D01*
X166894864Y-54850499D01*
X166919991Y-54847585D01*
X167022765Y-54802206D01*
X167102206Y-54722765D01*
X167147585Y-54619991D01*
X167150500Y-54594865D01*
X167150499Y-52805136D01*
X167147585Y-52780009D01*
X167102206Y-52677235D01*
X167102206Y-52677234D01*
X167022767Y-52597795D01*
X167022765Y-52597794D01*
X166919989Y-52552414D01*
X166919990Y-52552414D01*
X166894868Y-52549500D01*
X165105140Y-52549500D01*
X165105133Y-52549501D01*
X165080009Y-52552414D01*
X165080005Y-52552416D01*
X164977234Y-52597793D01*
X164897795Y-52677232D01*
X164897794Y-52677234D01*
X164852414Y-52780009D01*
X164849500Y-52805129D01*
X164849500Y-54594859D01*
X164849501Y-54594866D01*
X164852414Y-54619990D01*
X164852416Y-54619994D01*
X164897793Y-54722765D01*
X164977232Y-54802204D01*
X164977234Y-54802205D01*
X164977235Y-54802206D01*
X165080009Y-54847585D01*
X165105135Y-54850500D01*
X165231139Y-54850499D01*
X165299257Y-54870501D01*
X165345750Y-54924156D01*
X165355855Y-54994430D01*
X165326362Y-55059011D01*
X165303408Y-55079712D01*
X165128925Y-55201887D01*
X165128919Y-55201892D01*
X164961892Y-55368919D01*
X164961887Y-55368925D01*
X164826400Y-55562421D01*
X164726570Y-55776506D01*
X164726568Y-55776511D01*
X164669363Y-55990000D01*
X103225032Y-55990000D01*
X103177405Y-55822611D01*
X103082366Y-55631745D01*
X102953872Y-55461593D01*
X102796302Y-55317948D01*
X102796300Y-55317946D01*
X102796298Y-55317945D01*
X102740065Y-55283127D01*
X102692678Y-55230260D01*
X102681395Y-55160165D01*
X102709799Y-55095098D01*
X102768872Y-55055717D01*
X102806396Y-55050000D01*
X102997824Y-55050000D01*
X102997840Y-55049999D01*
X103057371Y-55043599D01*
X103192089Y-54993352D01*
X103307189Y-54907189D01*
X103393352Y-54792089D01*
X103443599Y-54657371D01*
X103449999Y-54597840D01*
X103450000Y-54597823D01*
X103450000Y-53950000D01*
X102533012Y-53950000D01*
X102565925Y-53892993D01*
X102600000Y-53765826D01*
X102600000Y-53634174D01*
X102565925Y-53507007D01*
X102533012Y-53450000D01*
X103450000Y-53450000D01*
X103450000Y-52802176D01*
X103449999Y-52802159D01*
X103443599Y-52742628D01*
X103393352Y-52607910D01*
X103307189Y-52492810D01*
X103192089Y-52406647D01*
X103057371Y-52356400D01*
X102997840Y-52350000D01*
X102350000Y-52350000D01*
X102350000Y-53266988D01*
X102292993Y-53234075D01*
X102165826Y-53200000D01*
X102034174Y-53200000D01*
X101907007Y-53234075D01*
X101850000Y-53266988D01*
X101850000Y-52350000D01*
X101202159Y-52350000D01*
X101142628Y-52356400D01*
X101007910Y-52406647D01*
X100892810Y-52492810D01*
X100806647Y-52607910D01*
X100756400Y-52742628D01*
X100750000Y-52802159D01*
X100050500Y-52802159D01*
X100050500Y-45376500D01*
X100070502Y-45308379D01*
X100124158Y-45261886D01*
X100176500Y-45250500D01*
X167823500Y-45250500D01*
X167891621Y-45270502D01*
G37*
G04 #@! TD.AperFunction*
M02*
